<?xml version="1.0" encoding="utf-8"?>
<!-- Generator: Adobe Illustrator 16.0.4, SVG Export Plug-In . SVG Version: 6.00 Build 0)  -->
<!DOCTYPE svg PUBLIC "-//W3C//DTD SVG 1.1//EN" "http://www.w3.org/Graphics/SVG/1.1/DTD/svg11.dtd">
<svg version="1.1" id="Layer_1" xmlns="http://www.w3.org/2000/svg" xmlns:xlink="http://www.w3.org/1999/xlink" x="0px" y="0px"
	 width="1920px" height="1080px" viewBox="0 0 1920 1080" enable-background="new 0 0 1920 1080" xml:space="preserve">
<g id="BOX_x5F_INFO">
	<rect x="47.875" y="882.528" opacity="0.16" enable-background="new    " width="1824.875" height="150"/>
</g>
<g id="BOX_x5F_DETAILS">
	<rect x="46.438" y="881.229" opacity="0.26" fill="#FFFFFF" width="2.801" height="2.807"/>
	<rect x="46.438" y="1030.804" opacity="0.26" fill="#FFFFFF" width="2.801" height="2.802"/>
	<rect x="1871.164" y="881.229" opacity="0.26" fill="#FFFFFF" width="2.802" height="2.807"/>
	<rect x="1871.164" y="1031.068" opacity="0.26" fill="#FFFFFF" width="2.802" height="2.802"/>
	<line opacity="0.26" fill="none" stroke="#FFFFFF" stroke-miterlimit="10" x1="47.812" y1="882" x2="47.812" y2="1033"/>
	<line opacity="0.26" fill="none" stroke="#FFFFFF" stroke-miterlimit="10" x1="1872.812" y1="882" x2="1872.812" y2="1033"/>
	<line opacity="0.26" fill="none" stroke="#FFFFFF" stroke-miterlimit="10" x1="1873.312" y1="882.5" x2="48.312" y2="882.5"/>
	<line opacity="0.26" fill="none" stroke="#FFFFFF" stroke-miterlimit="10" x1="48.312" y1="1032.5" x2="1873.312" y2="1032.5"/>
</g>
<g id="BOX_x5F_VIDEO" opacity="0">
	<rect x="308.799" y="88.046" fill="none" width="1280" height="720"/>
</g>
<g id="TEXTBOX_x5F_NAME" opacity="0">
	<rect x="85.049" y="909.594" fill="none" width="492.925" height="50.185"/>
</g>
<g id="TEXTBOX_x5F_ARTIST_1_" opacity="0">
	<rect id="_x3C_Path_x3E__1_" x="674.502" y="922.508" fill="none" width="341.521" height="14.213"/>
</g>
<g id="TEXTBOX_x5F_DESC_1_" opacity="0">
	<rect id="_x3C_Path_x3E__2_" x="1099.164" y="909.609" fill="none" width="740.35" height="16.312"/>
</g>
<g id="BOX_x5F_ARTIST" opacity="0.36">
	<rect x="654.498" y="909.614" opacity="0.36" fill="#101010" width="275" height="40"/>
</g>
</svg>
