<?xml version="1.0" encoding="utf-8"?>
<!-- Generator: Adobe Illustrator 16.0.4, SVG Export Plug-In . SVG Version: 6.00 Build 0)  -->
<!DOCTYPE svg PUBLIC "-//W3C//DTD SVG 1.1 Basic//EN" "http://www.w3.org/Graphics/SVG/1.1/DTD/svg11-basic.dtd">
<svg version="1.1" baseProfile="basic" xmlns="http://www.w3.org/2000/svg" xmlns:xlink="http://www.w3.org/1999/xlink" x="0px"
	 y="0px" width="1920.001px" height="1080px" viewBox="0 0 1920.001 1080" xml:space="preserve">
<g id="BACKGROUND" display="none">
	<rect x="0" y="0.419" display="inline" fill="#060F42" width="1920" height="1080"/>
</g>
<g id="BOX_x5F_INFO">
	<rect x="47.813" y="881.948" fill="none" width="1824" height="150"/>
	<path fill="none" d="M1494.093,1052.708"/>
	<path fill="none" d="M1569.381,1052.708"/>
</g>
<g id="BOX_x5F_DETAILS">
	<path fill="none" d="M1494.093,1052.708"/>
	<rect x="46.403" y="880.553" fill="none" width="2.802" height="2.802"/>
	<rect x="46.403" y="1030.528" fill="none" width="2.802" height="2.802"/>
	<rect x="1870.462" y="880.402" fill="none" width="2.802" height="2.802"/>
	<rect x="1870.462" y="1030.389" fill="none" width="2.802" height="2.802"/>
	<line fill="none" x1="47.313" y1="881.419" x2="47.313" y2="1032.419"/>
	<line fill="none" x1="1871.313" y1="881.419" x2="1871.313" y2="1032.419"/>
	<line fill="none" x1="1872.313" y1="882.419" x2="47.313" y2="882.419"/>
	<path fill="none" d="M1494.093,1052.708"/>
	<line fill="none" x1="47.313" y1="1032.419" x2="1872.313" y2="1032.419"/>
	<path fill="none" d="M1569.381,1052.708"/>
	<rect x="46.403" y="880.553" fill="none" width="2.802" height="2.802"/>
	<rect x="46.403" y="1030.528" fill="none" width="2.802" height="2.802"/>
	<line fill="none" x1="47.313" y1="881.419" x2="47.313" y2="1032.419"/>
</g>
<g id="TEXTBOX_x5F_TITLE">
	<rect x="85.269" y="899.91" fill="none" width="867.962" height="50.185"/>
</g>
<g id="BOX_x5F_ARTIST">
	<rect x="1004.105" y="909.397" fill="none" width="370.383" height="38.965"/>
</g>
<g id="TEXTBOX_x5F_ARTIST">
	<rect x="1016.666" y="917.864" fill="none" width="345.262" height="23.277"/>
</g>
<g id="TEXTBOX_x5F_DESC">
	<rect x="1416.987" y="899.962" fill="none" width="415.023" height="117.985"/>
</g>
<g id="BOX_x5F_VIDEO">
	<rect x="308.799" y="88.046" fill="none" width="1280" height="720"/>
</g>
<g id="INFO">
</g>
</svg>
