<?xml version="1.0" encoding="utf-8"?>
<!-- Generator: Adobe Illustrator 16.0.4, SVG Export Plug-In . SVG Version: 6.00 Build 0)  -->
<!DOCTYPE svg PUBLIC "-//W3C//DTD SVG 1.1 Basic//EN" "http://www.w3.org/Graphics/SVG/1.1/DTD/svg11-basic.dtd">
<svg version="1.1" baseProfile="basic" xmlns="http://www.w3.org/2000/svg" xmlns:xlink="http://www.w3.org/1999/xlink" x="0px"
	 y="0px" width="1920.001px" height="1080px" viewBox="0 0 1920.001 1080" xml:space="preserve">
<g id="BOX_x5F_INFO">
	<rect x="47.875" y="882.528" opacity="0.16" width="1824.875" height="150"/>
</g>
<g id="BOX_x5F_DETAILS">
	<rect x="46.653" y="881.326" fill="#FFFFFF" width="2.802" height="2.802"/>
	<rect x="1871.385" y="881.326" fill="#FFFFFF" width="2.802" height="2.802"/>
	<rect x="1871.385" y="1031.465" fill="#FFFFFF" width="2.802" height="2.802"/>
	<line fill="none" stroke="#FFFFFF" stroke-miterlimit="10" x1="1872.813" y1="882.419" x2="1872.813" y2="1033.419"/>
	<line fill="none" stroke="#FFFFFF" stroke-miterlimit="10" x1="1872.313" y1="882.919" x2="47.313" y2="882.919"/>
	<line fill="none" stroke="#FFFFFF" stroke-miterlimit="10" x1="47.313" y1="1032.919" x2="1872.313" y2="1032.919"/>
	<rect x="46.653" y="1031.465" fill="#FFFFFF" width="2.802" height="2.802"/>
	<line fill="none" stroke="#FFFFFF" stroke-miterlimit="10" x1="47.813" y1="882.419" x2="47.813" y2="1033.419"/>
</g>
<g id="TEXTBOX_x5F_TITLE">
	<rect x="85.269" y="899.91" opacity="0" fill="none" width="867.962" height="50.185"/>
</g>
<g id="BOX_x5F_ARTIST">
	<rect x="1004.105" y="909.397" opacity="0.36" fill="#101010" width="370.383" height="38.965"/>
</g>
<g id="TEXTBOX_x5F_ARTIST">
	<rect x="1016.666" y="917.864" opacity="0" fill="none" width="345.262" height="23.277"/>
</g>
<g id="TEXTBOX_x5F_DESC">
	<rect x="1416.987" y="899.962" opacity="0" fill="none" width="415.023" height="117.985"/>
</g>
<g id="BOX_x5F_VIDEO">
	<rect x="308.799" y="88.046" opacity="0" fill="none" width="1280" height="720"/>
</g>
</svg>
