<?xml version="1.0" encoding="utf-8"?>
<!-- Generator: Adobe Illustrator 16.0.4, SVG Export Plug-In . SVG Version: 6.00 Build 0)  -->
<!DOCTYPE svg PUBLIC "-//W3C//DTD SVG 1.1//EN" "http://www.w3.org/Graphics/SVG/1.1/DTD/svg11.dtd">
<svg version="1.1" xmlns="http://www.w3.org/2000/svg" xmlns:xlink="http://www.w3.org/1999/xlink" x="0px" y="0px" width="1440px"
	 height="900px" viewBox="0 0 1440 900" enable-background="new 0 0 1440 900" xml:space="preserve">
<g id="_x2F__x2F_Background" display="none">
	<rect x="0" display="inline" opacity="0.6" fill="#090A0A" width="1440" height="900"/>
</g>
<g id="_x2F__x2F_ImagePlane" display="none">
	<g display="inline">
		<defs>
			<rect id="SVGID_1_" x="1.969" width="1439.998" height="900"/>
		</defs>
		<clipPath id="SVGID_2_">
			<use xlink:href="#SVGID_1_"  overflow="visible"/>
		</clipPath>
		<g clip-path="url(#SVGID_2_)">
			
				<image overflow="visible" width="1920" height="1080" xlink:href="4FCC2080344F92F0.jpg"  transform="matrix(-0.8394 0 0 0.8394 1448.9421 -5.0229)">
			</image>
		</g>
	</g>
</g>
<g id="MapHoverBacking" display="none">
	<rect x="342.307" y="828.961" display="inline" opacity="0.6" fill="#101010" width="330.324" height="33.032"/>
</g>
<g id="PeopleHoverBacking" display="none">
	<rect x="673.62" y="828.961" display="inline" opacity="0.6" fill="#101010" width="330.339" height="33.032"/>
</g>
<g id="VSHoverBacking" display="none">
	<rect x="1004.989" y="828.984" display="inline" opacity="0.6" fill="#101010" width="330.812" height="33.032"/>
</g>
<g id="NavDivisions" display="none">
	
		<line display="inline" opacity="0.69" fill="none" stroke="#FFFFFF" stroke-miterlimit="10" x1="673.126" y1="828" x2="673.126" y2="863"/>
	
		<line display="inline" opacity="0.26" fill="none" stroke="#FFFFFF" stroke-miterlimit="10" x1="341.798" y1="827.984" x2="341.798" y2="863.016"/>
	
		<line display="inline" opacity="0.69" fill="none" stroke="#FFFFFF" stroke-miterlimit="10" x1="1004.485" y1="828.023" x2="1004.485" y2="863.031"/>
	
		<line display="inline" opacity="0.26" fill="none" stroke="#FFFFFF" stroke-miterlimit="10" x1="341.319" y1="828.5" x2="1335.802" y2="828.5"/>
</g>
<g id="NavTypography" display="none">
	<g display="inline">
		
			<text transform="matrix(1 0 0 1 806.1687 851.4414)" fill="#FFFFFF" font-family="'Blender-BOOK'" font-size="19" letter-spacing="1">PEOPLE</text>
	</g>
	<g display="inline">
		
			<text transform="matrix(1 0 0 1 1133.0554 851.4414)" fill="#FFFFFF" font-family="'Blender-BOOK'" font-size="19" letter-spacing="1">VISUALS</text>
	</g>
	<g display="inline">
		
			<text transform="matrix(1 0 0 1 490.4158 851.4414)" fill="#FFFFFF" font-family="'Blender-BOOK'" font-size="19" letter-spacing="1">MAP</text>
	</g>
</g>
<g id="MapTextBox" display="none">
	
		<rect x="490.416" y="840.035" display="inline" fill="none" stroke="#DD4B39" stroke-miterlimit="10" width="34.107" height="11.494"/>
</g>
<g id="PeopleTextBox" display="none">
	
		<rect x="806.168" y="840.035" display="inline" fill="none" stroke="#DD4B39" stroke-miterlimit="10" width="65.243" height="11.494"/>
</g>
<g id="VisualsTextBox" display="none">
	
		<rect x="1133.055" y="840.035" display="inline" fill="none" stroke="#DD4B39" stroke-miterlimit="10" width="74.679" height="11.494"/>
</g>
<g id="ListBacking">
	<rect x="59.329" y="54.996" opacity="0.6" fill="#101010" width="282" height="772.988"/>
</g>
<g id="ListTextBoxes">
	<rect x="69.59" y="69.151" fill="none" stroke="#DD4B39" stroke-miterlimit="10" width="161.899" height="14.954"/>
</g>
<g id="ListScrollConnectStatic">
	<line opacity="0.26" fill="none" stroke="#FFFFFF" stroke-miterlimit="10" x1="324.499" y1="69.148" x2="324.499" y2="813.837"/>
</g>
<g id="ListScrollDownBacking">
	<rect x="59.326" y="829.014" opacity="0" fill="#101010" width="281.971" height="32.97"/>
</g>
<g id="ListScrollDownArrow" display="none">
	<polygon display="inline" opacity="0.69" fill="#FFFFFF" points="206.588,842.475 194.022,842.475 200.305,848.757 	"/>
</g>
<g id="ListScrollDownArrowSpace">
	<rect x="194.005" y="842.469" fill="none" stroke="#DD4B39" stroke-miterlimit="10" width="12.623" height="6.234"/>
</g>
<g id="ListScrollUpBacking">
	<rect x="59.4" y="19.024" opacity="0" fill="#101010" width="281.897" height="34.961"/>
</g>
<g id="ListScrollUpArrow" display="none">
	<polygon display="inline" opacity="0.69" fill="#FFFFFF" points="194.022,39.632 206.588,39.632 200.305,33.35 	"/>
</g>
<g id="ListScrollUpArrowSpace">
	<rect x="194.057" y="33.404" fill="none" stroke="#DD4B39" stroke-miterlimit="10" width="12.623" height="6.234"/>
</g>
<g id="ListFrame">
	<g opacity="0.26">
		<path fill="none" stroke="#FFFFFF" stroke-width="0.25" stroke-miterlimit="10" d="M641.126,37.054"/>
	</g>
	<path opacity="0.26" fill="none" stroke="#FFFFFF" stroke-miterlimit="10" d="M58.873,37.016"/>
	<path opacity="0.26" fill="none" stroke="#FFFFFF" stroke-miterlimit="10" d="M1383.813,36.5"/>
	<line opacity="0.26" fill="none" stroke="#FFFFFF" stroke-miterlimit="10" x1="58.865" y1="18.062" x2="58.814" y2="863.092"/>
	<line opacity="0.26" fill="none" stroke="#FFFFFF" stroke-miterlimit="10" x1="341.865" y1="18.062" x2="341.814" y2="863.036"/>
	<line opacity="0.26" fill="none" stroke="#FFFFFF" stroke-miterlimit="10" x1="341.313" y1="54.5" x2="58.313" y2="54.5"/>
	<line opacity="0.16" fill="none" stroke="#FFFFFF" stroke-miterlimit="10" x1="58.313" y1="828.5" x2="341.313" y2="828.5"/>
</g>
<g id="RSResetButtonBacking">
	<rect x="1335.802" y="828.5" opacity="0.36" fill="#101010" width="77.011" height="34"/>
</g>
<g id="RSResetButtonArrow" display="none">
	<rect x="1393.853" y="841.1" display="inline" fill="#FFFFFF" width="9" height="9"/>
</g>
<g id="RSResetButtonArrowSpace">
	<rect x="1393.853" y="841.1" fill="none" stroke="#DD4B39" stroke-miterlimit="10" width="9" height="9"/>
</g>
<g id="RSResetButtonFrame">
	<rect x="1335.772" y="828.5" opacity="0.69" fill="none" stroke="#FFFFFF" stroke-miterlimit="10" width="77.042" height="34"/>
</g>
<g id="RSResetButtonTextBox">
	<rect x="1346.093" y="840" fill="none" stroke="#DD4B39" stroke-miterlimit="10" width="35.882" height="11.424"/>
</g>
<g id="RSResetButtonTypography" display="none">
	<g display="inline">
		
			<text transform="matrix(1 0 0 1 1345.53 851.4414)" fill="#FFFFFF" font-family="'Blender-BOOK'" font-size="19" letter-spacing="1">EXIT</text>
	</g>
</g>
<g id="ShuffleButtonBacking" display="none">
	<rect x="1252.499" y="18.524" display="inline" opacity="0.36" fill="#101010" width="160.319" height="35.721"/>
</g>
<g id="ShuffleButtonArrow" display="none">
	<polygon display="inline" fill="#DD4B39" points="1394.298,30.242 1394.298,42.808 1400.58,36.525 	"/>
</g>
<g id="ShuffleButtonArrowSpace" display="none">
	
		<rect x="1394.425" y="30.242" display="inline" fill="none" stroke="#DD4B39" stroke-miterlimit="10" width="6.282" height="12.565"/>
</g>
<g id="ShuffleButtonFrame" display="none">
	
		<rect x="1252.499" y="18.524" display="inline" opacity="0.69" fill="none" stroke="#FFFFFF" stroke-miterlimit="10" width="160.345" height="35.721"/>
</g>
<g id="ShuffleButtonTextBox" display="none">
	
		<rect x="1264.77" y="30.058" display="inline" fill="none" stroke="#DD4B39" stroke-miterlimit="10" width="118.577" height="11.424"/>
</g>
<g id="ShuffleButtonTypography" display="none">
	
		<text transform="matrix(1 0 0 1 1264.5535 41.4658)" display="inline" fill="#FFFFFF" font-family="'Blender-BOOK'" font-size="19" letter-spacing="1">SHUFFLE ALL</text>
</g>
<g id="OutsideFrame">
	<path opacity="0.16" fill="none" stroke="#FFFFFF" stroke-miterlimit="10" d="M29.813,685"/>
	<path opacity="0.16" fill="none" stroke="#FFFFFF" stroke-miterlimit="10" d="M29.313,18.5"/>
	<path opacity="0.16" fill="none" stroke="#FFFFFF" stroke-miterlimit="10" d="M1412.813,19"/>
	<path opacity="0.16" fill="none" stroke="#FFFFFF" stroke-miterlimit="10" d="M1412.813,883"/>
	<line opacity="0.16" fill="none" stroke="#FFFFFF" stroke-miterlimit="10" x1="1412.813" y1="829" x2="1412.813" y2="19"/>
	<path opacity="0.16" fill="none" stroke="#FFFFFF" stroke-miterlimit="10" d="M29.313,882.5"/>
	<line opacity="0.16" fill="none" stroke="#FFFFFF" stroke-miterlimit="10" x1="29.313" y1="862.5" x2="1412.313" y2="862.5"/>
	<path opacity="0.16" fill="none" stroke="#FFFFFF" stroke-miterlimit="10" d="M29.813,829"/>
	<path opacity="0.16" fill="none" stroke="#FFFFFF" stroke-miterlimit="10" d="M29.313,18.5"/>
	<path opacity="0.16" fill="none" stroke="#FFFFFF" stroke-miterlimit="10" d="M1412.313,18.5"/>
	<line opacity="0.16" fill="none" stroke="#FFFFFF" stroke-miterlimit="10" x1="1413.313" y1="18.5" x2="29.313" y2="18.5"/>
	<line opacity="0.16" fill="none" stroke="#FFFFFF" stroke-miterlimit="10" x1="29.813" y1="19" x2="29.813" y2="863"/>
</g>
<g id="OutsideFrameTicks">
	<rect x="1411.804" y="17.491" opacity="0.69" fill="#FFFFFF" width="2.019" height="2.019"/>
	<rect x="28.804" y="17.491" opacity="0.69" fill="#FFFFFF" width="2.019" height="2.019"/>
	<rect x="28.804" y="861.491" opacity="0.69" fill="#FFFFFF" width="2.019" height="2.019"/>
	<rect x="1411.804" y="827.491" opacity="0.69" fill="#FFFFFF" width="2.019" height="2.019"/>
</g>
</svg>
