<?xml version="1.0" encoding="utf-8"?>
<!-- Generator: Adobe Illustrator 16.0.4, SVG Export Plug-In . SVG Version: 6.00 Build 0)  -->
<!DOCTYPE svg PUBLIC "-//W3C//DTD SVG 1.1 Basic//EN" "http://www.w3.org/Graphics/SVG/1.1/DTD/svg11-basic.dtd">
<svg version="1.1" baseProfile="basic" xmlns="http://www.w3.org/2000/svg" xmlns:xlink="http://www.w3.org/1999/xlink" x="0px"
	 y="0px" width="1920px" height="1080px" viewBox="0 0 1920 1080" xml:space="preserve">
<g id="BACKGROUND" display="none">
	<rect display="inline" fill="#060F42" width="1920" height="1080"/>
</g>
<g id="BOX_x5F_INFO" display="none">
	<rect x="47.813" y="881.528" display="inline" opacity="0.16" width="1824" height="150"/>
	
		<rect x="48.403" y="880.528" display="inline" opacity="0.16" fill="none" stroke="#000000" stroke-miterlimit="10" width="1824" height="150"/>
</g>
<g id="BOX_x5F_DETAILS" display="none">
	<rect x="46.993" y="879.134" display="inline" opacity="0.69" fill="#FFFFFF" width="2.801" height="2.802"/>
	<rect x="46.993" y="1029.108" display="inline" opacity="0.69" fill="#FFFFFF" width="2.801" height="2.802"/>
	<rect x="1871.051" y="878.982" display="inline" opacity="0.69" fill="#FFFFFF" width="2.803" height="2.802"/>
	<rect x="1871.051" y="1028.97" display="inline" opacity="0.69" fill="#FFFFFF" width="2.803" height="2.802"/>
	
		<line display="inline" opacity="0.26" fill="none" stroke="#FFFFFF" stroke-miterlimit="10" x1="48.813" y1="880" x2="48.813" y2="1031"/>
	
		<line display="inline" opacity="0.49" fill="none" stroke="#FFFFFF" stroke-miterlimit="10" x1="1872.813" y1="880" x2="1872.813" y2="1031"/>
	
		<line display="inline" opacity="0.49" fill="none" stroke="#FFFFFF" stroke-miterlimit="10" x1="1873.313" y1="880.5" x2="48.313" y2="880.5"/>
	<path display="inline" opacity="0.26" fill="none" stroke="#FFFFFF" stroke-miterlimit="10" d="M1494.683,1051.289"/>
	
		<line display="inline" opacity="0.49" fill="none" stroke="#FFFFFF" stroke-miterlimit="10" x1="48.313" y1="1030.5" x2="1873.313" y2="1030.5"/>
</g>
<g id="BOX_x5F_NAME" display="none">
	
		<rect x="83.354" y="909.229" display="inline" fill="none" stroke="#FFFFFF" stroke-miterlimit="10" width="543.429" height="94.745"/>
</g>
<g id="TEXTBOX_x5F_FIRSTNAME">
	
		<rect x="83.123" y="904.264" display="inline" fill="none" stroke="#FFFFFF" stroke-miterlimit="10" width="544.069" height="40.965"/>
</g>
<g id="TEXTBOX_x5F_LASTNAME" display="none">
</g>
<g id="BOX_x5F_TITLE" display="none">
	
		<rect x="657.685" y="962.793" display="inline" opacity="0.36" fill="none" stroke="#101010" stroke-miterlimit="10" width="266.81" height="40.36"/>
	
		<rect x="657.685" y="907.978" display="inline" opacity="0.36" fill="none" stroke="#101010" stroke-miterlimit="10" width="362.883" height="38.965"/>
</g>
<g id="TEXTBOX_x5F_TITLE">
	<line opacity="0.26" fill="none" stroke="#FFFFFF" stroke-miterlimit="10" x1="47.813" y1="47" x2="47.813" y2="207"/>
	<line opacity="0.49" fill="none" stroke="#FFFFFF" stroke-miterlimit="10" x1="683.313" y1="47.5" x2="47.313" y2="47.5"/>
	<line opacity="0.49" fill="none" stroke="#FFFFFF" stroke-miterlimit="10" x1="47.313" y1="206.5" x2="683.313" y2="206.5"/>
	<line opacity="0.26" fill="none" stroke="#FFFFFF" stroke-miterlimit="10" x1="682.813" y1="207" x2="682.813" y2="47"/>
	<rect x="83.61" y="64.971" fill="none" width="557.394" height="129.697"/>
	<text transform="matrix(1 0 0 1 83.6104 87.9229)"><tspan x="0" y="0" fill="#FFFFFF" font-family="'Blender-BOOK'" font-size="38" letter-spacing="1">HAS TECHNOLOGY HELPED BREAK </tspan><tspan x="0" y="45.6" fill="#FFFFFF" font-family="'Blender-BOOK'" font-size="38" letter-spacing="1">DOWN BARRIERS BETWEEN THE </tspan><tspan x="0" y="91.2" fill="#FFFFFF" font-family="'Blender-BOOK'" font-size="38" letter-spacing="1">CREATIVE DISCLIPINES?</tspan></text>
	<rect x="47.813" y="881.528" opacity="0.16" width="1824" height="150"/>
	<rect x="46.449" y="46.183" opacity="0.69" fill="#FFFFFF" width="2.802" height="2.802"/>
	<rect x="46.375" y="205.139" opacity="0.69" fill="#FFFFFF" width="2.802" height="2.802"/>
	<rect x="681.266" y="46.183" opacity="0.69" fill="#FFFFFF" width="2.802" height="2.802"/>
	<rect x="681.192" y="205.139" opacity="0.69" fill="#FFFFFF" width="2.802" height="2.802"/>
	<rect x="657.094" y="963.793" opacity="0.36" fill="#101010" width="266.81" height="40.36"/>
	<rect x="657.094" y="908.978" opacity="0.36" fill="#101010" width="362.883" height="38.965"/>
	
		<text transform="matrix(1 0 0 1 82.6831 1003.8955)" fill="#FFFFFF" font-family="'Blender-BOOK'" font-size="72" letter-spacing="3">ROSENKRANTZ</text>
	
		<text transform="matrix(1 0 0 1 85.2456 940.7158)" fill="#FFFFFF" font-family="'Blender-THIN'" font-size="52" letter-spacing="2">JESSICA</text>
	<text transform="matrix(1 0 0 1 668.2261 991.0605)"><tspan x="0" y="0" fill="#97D7FB" font-family="'Blender-BOOK'" font-size="23.7751" letter-spacing="1">SOMMERVILLE,</tspan><tspan x="154.012" y="0" fill="#97D7FB" font-family="'Blender-BOOK'" font-size="23.7751"> </tspan><tspan x="160.55" y="0" fill="#439CED" font-family="'Blender-BOOK'" font-size="23.7751" letter-spacing="1">MA </tspan></text>
	<text transform="matrix(1 0 0 1 669.7837 936.5479)"><tspan x="0" y="0" fill="#FFFFFF" font-family="'Blender-BOOK'" font-size="23.7751" letter-spacing="1">DESIGNER </tspan><tspan x="110.861" y="0" fill="#DD4B39" font-family="'Blender-BOOK'" font-size="23.7751" letter-spacing="1">+</tspan><tspan x="124.365" y="0" fill="#FFFFFF" font-family="'Blender-BOOK'" font-size="23.7751" letter-spacing="1"> CREATIVE DIRECTOR</tspan></text>
	<rect x="1099.309" y="908.869" fill="none" width="770.138" height="122.107"/>
	<text transform="matrix(1 0 0 1 1099.3091 921.6323)"><tspan x="0" y="0" fill="#FFFFFF" font-family="'Blender-BOOK'" font-size="21.1334">Jessica is Creative Director of Nervous System, a generative design studio that </tspan><tspan x="0" y="30.379" fill="#FFFFFF" font-family="'Blender-BOOK'" font-size="21.1334">works at the intersection of science, art, and technology.</tspan></text>
	<rect x="46.402" y="880.134" opacity="0.69" fill="#FFFFFF" width="2.802" height="2.802"/>
	<rect x="46.402" y="1030.108" opacity="0.69" fill="#FFFFFF" width="2.802" height="2.802"/>
	<rect x="1870.461" y="879.982" opacity="0.69" fill="#FFFFFF" width="2.802" height="2.802"/>
	<rect x="1870.461" y="1029.97" opacity="0.69" fill="#FFFFFF" width="2.802" height="2.802"/>
	<line opacity="0.26" fill="none" stroke="#FFFFFF" stroke-miterlimit="10" x1="47.813" y1="881" x2="47.813" y2="1032"/>
	<line opacity="0.49" fill="none" stroke="#FFFFFF" stroke-miterlimit="10" x1="1871.813" y1="881" x2="1871.813" y2="1032"/>
	<line opacity="0.49" fill="none" stroke="#FFFFFF" stroke-miterlimit="10" x1="1872.313" y1="881.5" x2="47.313" y2="881.5"/>
	<path opacity="0.26" fill="none" stroke="#FFFFFF" stroke-miterlimit="10" d="M1494.092,1052.289"/>
	<line opacity="0.49" fill="none" stroke="#FFFFFF" stroke-miterlimit="10" x1="47.313" y1="1031.5" x2="1872.313" y2="1031.5"/>
	<path opacity="0.26" fill="none" stroke="#FFFFFF" stroke-miterlimit="10" d="M1569.38,1052.289"/>
	<line opacity="0.26" fill="none" stroke="#FFFFFF" stroke-miterlimit="10" x1="47.813" y1="47" x2="47.813" y2="207"/>
	<line opacity="0.49" fill="none" stroke="#FFFFFF" stroke-miterlimit="10" x1="683.313" y1="47.5" x2="47.313" y2="47.5"/>
	<line opacity="0.49" fill="none" stroke="#FFFFFF" stroke-miterlimit="10" x1="47.313" y1="206.5" x2="683.313" y2="206.5"/>
	<line opacity="0.26" fill="none" stroke="#FFFFFF" stroke-miterlimit="10" x1="682.813" y1="207" x2="682.813" y2="47"/>
	<rect x="83.61" y="64.971" fill="none" width="557.394" height="129.697"/>
	<text transform="matrix(1 0 0 1 83.6104 87.9229)"><tspan x="0" y="0" fill="#FFFFFF" font-family="'Blender-BOOK'" font-size="38" letter-spacing="1">HAS TECHNOLOGY HELPED BREAK </tspan><tspan x="0" y="45.6" fill="#FFFFFF" font-family="'Blender-BOOK'" font-size="38" letter-spacing="1">DOWN BARRIERS BETWEEN THE </tspan><tspan x="0" y="91.2" fill="#FFFFFF" font-family="'Blender-BOOK'" font-size="38" letter-spacing="1">CREATIVE DISCLIPINES?</tspan></text>
	<rect x="47.813" y="881.528" opacity="0.16" width="1824" height="150"/>
	<rect x="46.449" y="46.183" opacity="0.69" fill="#FFFFFF" width="2.802" height="2.802"/>
	<rect x="46.375" y="205.139" opacity="0.69" fill="#FFFFFF" width="2.802" height="2.802"/>
	<rect x="681.266" y="46.183" opacity="0.69" fill="#FFFFFF" width="2.802" height="2.802"/>
	<rect x="681.192" y="205.139" opacity="0.69" fill="#FFFFFF" width="2.802" height="2.802"/>
	<rect x="657.094" y="963.793" opacity="0.36" fill="#101010" width="266.81" height="40.36"/>
	<rect x="657.094" y="908.978" opacity="0.36" fill="#101010" width="362.883" height="38.965"/>
	
		<text transform="matrix(1 0 0 1 82.6831 1003.8955)" fill="#FFFFFF" font-family="'Blender-BOOK'" font-size="72" letter-spacing="3">ROSENKRANTZ</text>
	
		<text transform="matrix(1 0 0 1 85.2456 940.7158)" fill="#FFFFFF" font-family="'Blender-THIN'" font-size="52" letter-spacing="2">JESSICA</text>
	<text transform="matrix(1 0 0 1 668.2261 991.0605)"><tspan x="0" y="0" fill="#97D7FB" font-family="'Blender-BOOK'" font-size="23.7751" letter-spacing="1">SOMMERVILLE,</tspan><tspan x="154.012" y="0" fill="#97D7FB" font-family="'Blender-BOOK'" font-size="23.7751"> </tspan><tspan x="160.55" y="0" fill="#439CED" font-family="'Blender-BOOK'" font-size="23.7751" letter-spacing="1">MA </tspan></text>
	<text transform="matrix(1 0 0 1 669.7837 936.5479)"><tspan x="0" y="0" fill="#FFFFFF" font-family="'Blender-BOOK'" font-size="23.7751" letter-spacing="1">DESIGNER </tspan><tspan x="110.861" y="0" fill="#DD4B39" font-family="'Blender-BOOK'" font-size="23.7751" letter-spacing="1">+</tspan><tspan x="124.365" y="0" fill="#FFFFFF" font-family="'Blender-BOOK'" font-size="23.7751" letter-spacing="1"> CREATIVE DIRECTOR</tspan></text>
	<rect x="1099.309" y="908.869" fill="none" width="770.138" height="122.107"/>
	<text transform="matrix(1 0 0 1 1099.3091 921.6323)"><tspan x="0" y="0" fill="#FFFFFF" font-family="'Blender-BOOK'" font-size="21.1334">Jessica is Creative Director of Nervous System, a generative design studio that </tspan><tspan x="0" y="30.379" fill="#FFFFFF" font-family="'Blender-BOOK'" font-size="21.1334">works at the intersection of science, art, and technology.</tspan></text>
	<rect x="46.402" y="880.134" opacity="0.69" fill="#FFFFFF" width="2.802" height="2.802"/>
	<rect x="46.402" y="1030.108" opacity="0.69" fill="#FFFFFF" width="2.802" height="2.802"/>
	<rect x="1870.461" y="879.982" opacity="0.69" fill="#FFFFFF" width="2.802" height="2.802"/>
	<rect x="1870.461" y="1029.97" opacity="0.69" fill="#FFFFFF" width="2.802" height="2.802"/>
	<line opacity="0.26" fill="none" stroke="#FFFFFF" stroke-miterlimit="10" x1="47.813" y1="881" x2="47.813" y2="1032"/>
	<line opacity="0.49" fill="none" stroke="#FFFFFF" stroke-miterlimit="10" x1="1871.813" y1="881" x2="1871.813" y2="1032"/>
	<line opacity="0.49" fill="none" stroke="#FFFFFF" stroke-miterlimit="10" x1="1872.313" y1="881.5" x2="47.313" y2="881.5"/>
	<path opacity="0.26" fill="none" stroke="#FFFFFF" stroke-miterlimit="10" d="M1494.092,1052.289"/>
	<line opacity="0.49" fill="none" stroke="#FFFFFF" stroke-miterlimit="10" x1="47.313" y1="1031.5" x2="1872.313" y2="1031.5"/>
	<path opacity="0.26" fill="none" stroke="#FFFFFF" stroke-miterlimit="10" d="M1569.38,1052.289"/>
	<line opacity="0.26" fill="none" stroke="#FFFFFF" stroke-miterlimit="10" x1="47.813" y1="47" x2="47.813" y2="207"/>
	<line opacity="0.49" fill="none" stroke="#FFFFFF" stroke-miterlimit="10" x1="683.313" y1="47.5" x2="47.313" y2="47.5"/>
	<line opacity="0.49" fill="none" stroke="#FFFFFF" stroke-miterlimit="10" x1="47.313" y1="206.5" x2="683.313" y2="206.5"/>
	<line opacity="0.26" fill="none" stroke="#FFFFFF" stroke-miterlimit="10" x1="682.813" y1="207" x2="682.813" y2="47"/>
	<rect x="83.61" y="64.971" fill="none" width="557.394" height="129.697"/>
	<text transform="matrix(1 0 0 1 83.6104 87.9229)"><tspan x="0" y="0" fill="#FFFFFF" font-family="'Blender-BOOK'" font-size="38" letter-spacing="1">HAS TECHNOLOGY HELPED BREAK </tspan><tspan x="0" y="45.6" fill="#FFFFFF" font-family="'Blender-BOOK'" font-size="38" letter-spacing="1">DOWN BARRIERS BETWEEN THE </tspan><tspan x="0" y="91.2" fill="#FFFFFF" font-family="'Blender-BOOK'" font-size="38" letter-spacing="1">CREATIVE DISCLIPINES?</tspan></text>
	
		<rect x="668.778" y="918.464" opacity="0.36" fill="none" stroke="#101010" stroke-miterlimit="10" width="340.299" height="19.881"/>
</g>
<g id="BOX_x5F_LOC" display="none">
	
		<rect x="657.685" y="962.793" display="inline" opacity="0.36" fill="none" stroke="#101010" stroke-miterlimit="10" width="266.81" height="40.36"/>
</g>
<g id="TEXTBOX_x5F_LOC" display="none">
</g>
<g id="TEXTBOX_x5F_BIO" display="none">
	
		<rect x="1098.91" y="907.498" display="inline" fill="none" stroke="#FFFFFF" stroke-miterlimit="10" width="748.881" height="96.774"/>
</g>
<g id="BOX_x5F_QUESTION_x5F_DETAILS" display="none">
	<rect x="47.039" y="45.183" display="inline" opacity="0.69" fill="#FFFFFF" width="2.802" height="2.802"/>
	<rect x="46.965" y="204.139" display="inline" opacity="0.69" fill="#FFFFFF" width="2.802" height="2.802"/>
	<rect x="681.856" y="45.183" display="inline" opacity="0.69" fill="#FFFFFF" width="2.802" height="2.802"/>
	<rect x="681.782" y="204.139" display="inline" opacity="0.69" fill="#FFFFFF" width="2.802" height="2.802"/>
	
		<line display="inline" opacity="0.26" fill="none" stroke="#FFFFFF" stroke-miterlimit="10" x1="48.813" y1="46" x2="48.813" y2="206"/>
	
		<line display="inline" opacity="0.49" fill="none" stroke="#FFFFFF" stroke-miterlimit="10" x1="684.313" y1="46.5" x2="48.313" y2="46.5"/>
	
		<line display="inline" opacity="0.49" fill="none" stroke="#FFFFFF" stroke-miterlimit="10" x1="48.313" y1="205.5" x2="684.313" y2="205.5"/>
	
		<line display="inline" opacity="0.26" fill="none" stroke="#FFFFFF" stroke-miterlimit="10" x1="683.813" y1="206" x2="683.813" y2="46"/>
</g>
<g id="TEXTBOX_x5F_QUESTION" display="none">
	
		<rect x="83.104" y="64.842" display="inline" fill="none" stroke="#FFFFFF" stroke-miterlimit="10" width="555.255" height="115.841"/>
</g>
</svg>
