<?xml version="1.0" encoding="utf-8"?>
<!-- Generator: Adobe Illustrator 16.0.4, SVG Export Plug-In . SVG Version: 6.00 Build 0)  -->
<!DOCTYPE svg PUBLIC "-//W3C//DTD SVG 1.1 Basic//EN" "http://www.w3.org/Graphics/SVG/1.1/DTD/svg11-basic.dtd">
<svg version="1.1" baseProfile="basic" xmlns="http://www.w3.org/2000/svg" xmlns:xlink="http://www.w3.org/1999/xlink" x="0px"
	 y="0px" width="1920px" height="1080px" viewBox="0 0 1920 1080" xml:space="preserve">
<g id="BOX_x5F_INFO">
	<rect x="47.875" y="882.528" opacity="0.16" width="1824.875" height="150"/>
</g>
<g id="BOX_x5F_DETAILS">
	<rect x="46.438" y="881.228" fill="#FFFFFF" width="2.801" height="2.802"/>
	<rect x="46.438" y="1030.804" fill="#FFFFFF" width="2.801" height="2.802"/>
	<rect x="1871.164" y="881.228" fill="#FFFFFF" width="2.802" height="2.802"/>
	<rect x="1871.164" y="1031.068" fill="#FFFFFF" width="2.802" height="2.802"/>
	<line fill="none" stroke="#FFFFFF" stroke-miterlimit="10" x1="47.812" y1="882" x2="47.812" y2="1033"/>
	<line fill="none" stroke="#FFFFFF" stroke-miterlimit="10" x1="1872.812" y1="882" x2="1872.812" y2="1033"/>
	<line fill="none" stroke="#FFFFFF" stroke-miterlimit="10" x1="1873.312" y1="882.5" x2="48.312" y2="882.5"/>
	<path fill="none" stroke="#FFFFFF" stroke-miterlimit="10" d="M1494.683,1051.289"/>
	<line fill="none" stroke="#FFFFFF" stroke-miterlimit="10" x1="48.312" y1="1032.5" x2="1873.312" y2="1032.5"/>
</g>
<g id="TEXTBOX_x5F_FIRSTNAME">
	<rect x="83.123" y="904.264" opacity="0" fill="none" width="544.069" height="40.965"/>
</g>
<g id="TEXTBOX_x5F_LASTNAME">
	<rect x="83.123" y="956.75" opacity="0" fill="none" width="544.069" height="53.767"/>
</g>
<g id="BOX_x5F_TITLE">
	<rect x="657.685" y="908.92" opacity="0.36" fill="#101010" width="362.883" height="38.965"/>
</g>
<g id="TEXTBOX_x5F_TITLE">
	<path fill="none" stroke="#FFFFFF" stroke-miterlimit="10" d="M1569.971,1051.289"/>
	<rect x="668.382" y="918.462" opacity="0" fill="none" width="340.299" height="19.881"/>
</g>
<g id="BOX_x5F_LOC">
	<rect x="657.685" y="962.848" opacity="0.36" fill="#101010" width="266.81" height="40.36"/>
</g>
<g id="TEXTBOX_x5F_LOC">
	<rect x="668.382" y="973.087" opacity="0" fill="none" width="246.201" height="19.881"/>
</g>
<g id="TEXTBOX_x5F_BIO">
	<rect x="1098.91" y="907.498" opacity="0" fill="none" width="748.881" height="96.774"/>
</g>
<g id="BOX_x5F_QUESTION">
	<rect x="48.979" y="48.333" opacity="0.16" width="634.818" height="159"/>
</g>
<g id="BOX_x5F_QUESTION_x5F_DETAILS">
	<rect x="47.33" y="47.032" fill="#FFFFFF" width="2.802" height="2.802"/>
	<rect x="47.33" y="206.173" fill="#FFFFFF" width="2.802" height="2.802"/>
	<rect x="682.248" y="47.032" fill="#FFFFFF" width="2.802" height="2.802"/>
	<rect x="682.248" y="206.173" fill="#FFFFFF" width="2.802" height="2.802"/>
	<line fill="none" stroke="#FFFFFF" stroke-miterlimit="10" x1="48.812" y1="48" x2="48.812" y2="208"/>
	<line fill="none" stroke="#FFFFFF" stroke-miterlimit="10" x1="684.312" y1="48.5" x2="48.312" y2="48.5"/>
	<line fill="none" stroke="#FFFFFF" stroke-miterlimit="10" x1="48.312" y1="207.5" x2="684.312" y2="207.5"/>
	<line fill="none" stroke="#FFFFFF" stroke-miterlimit="10" x1="683.812" y1="208" x2="683.812" y2="48"/>
</g>
<g id="TEXTBOX_x5F_QUESTION">
	<rect x="83.104" y="64.842" opacity="0" fill="none" width="565.9" height="115.841"/>
</g>
</svg>
