<?xml version="1.0" encoding="utf-8"?>
<!-- Generator: Adobe Illustrator 16.0.4, SVG Export Plug-In . SVG Version: 6.00 Build 0)  -->
<!DOCTYPE svg PUBLIC "-//W3C//DTD SVG 1.1 Basic//EN" "http://www.w3.org/Graphics/SVG/1.1/DTD/svg11-basic.dtd">
<svg version="1.1" baseProfile="basic" id="Layer_1"
	 xmlns="http://www.w3.org/2000/svg" xmlns:xlink="http://www.w3.org/1999/xlink" x="0px" y="0px" width="1920px" height="1080px"
	 viewBox="0 0 1920 1080" xml:space="preserve">
<g id="BOX_x5F_INFO">
	<rect x="47.875" y="882.528" opacity="0.16" width="1824.875" height="150"/>
</g>
<g id="BOX_x5F_DETAILS">
	<rect x="46.438" y="881.229" fill="#FFFFFF" width="2.801" height="2.802"/>
	<rect x="46.438" y="1030.804" fill="#FFFFFF" width="2.801" height="2.802"/>
	<rect x="1871.164" y="881.229" fill="#FFFFFF" width="2.802" height="2.802"/>
	<rect x="1871.164" y="1031.068" fill="#FFFFFF" width="2.802" height="2.802"/>
	<line fill="none" stroke="#FFFFFF" stroke-miterlimit="10" x1="47.812" y1="882" x2="47.812" y2="1033"/>
	<line fill="none" stroke="#FFFFFF" stroke-miterlimit="10" x1="1872.812" y1="882" x2="1872.812" y2="1033"/>
	<line fill="none" stroke="#FFFFFF" stroke-miterlimit="10" x1="1873.312" y1="882.5" x2="48.312" y2="882.5"/>
	<path fill="none" stroke="#FFFFFF" stroke-miterlimit="10" d="M1494.683,1051.289"/>
	<line fill="none" stroke="#FFFFFF" stroke-miterlimit="10" x1="48.312" y1="1032.5" x2="1873.312" y2="1032.5"/>
</g>
<g id="BOX_x5F_TITLE">
	<rect x="657.685" y="908.92" opacity="0.36" fill="#101010" width="362.884" height="38.965"/>
</g>
<g id="BOX_x5F_LOC">
	<rect x="657.685" y="962.848" opacity="0.36" fill="#101010" width="266.811" height="40.36"/>
</g>
<rect x="670.495" y="922.297" opacity="0" fill="none" width="336.064" height="14.25"/>
<rect x="670.479" y="976.807" opacity="0" fill="none" width="238.189" height="14.25"/>
<rect x="1099.164" y="908.967" opacity="0" fill="none" width="740.35" height="16.311"/>
<rect x="85.249" y="909.656" opacity="0" fill="none" width="541.944" height="31.452"/>
<rect x="84.749" y="960.74" opacity="0" fill="none" width="541.777" height="43.201"/>
</svg>
