# This file uses centimeters as units for non-parametric coordinates.

mtllib sphere.mtl
g default
v 0.934172 -0.356822 -0.000000
v 0.934172 0.356822 -0.000000
v 0.356822 -0.000000 -0.934172
v 0.577350 0.577350 -0.577350
v 0.577350 -0.577350 -0.577350
v 0.356822 -0.000000 0.934172
v 0.577350 -0.577350 0.577350
v 0.577350 0.577350 0.577350
v -0.934172 -0.356822 -0.000000
v -0.934172 0.356822 0.000000
v -0.356822 -0.000000 0.934172
v -0.577350 -0.577350 0.577350
v -0.577350 0.577350 0.577350
v -0.356822 0.000000 -0.934172
v -0.577350 0.577350 -0.577350
v -0.577350 -0.577350 -0.577350
v -0.000000 -0.934172 0.356822
v 0.000000 0.934172 0.356822
v -0.000000 0.934172 -0.356822
v 0.000000 -0.934172 -0.356822
v 0.809017 -0.500000 -0.309017
v 0.500000 -0.309017 -0.809017
v 0.500000 0.309017 -0.809017
v 0.809017 0.500000 -0.309017
v 1.000000 -0.000000 0.000000
v 0.500000 0.309017 0.809017
v 0.500000 -0.309017 0.809017
v 0.809017 -0.500000 0.309017
v 0.809017 0.500000 0.309017
v 0.309017 -0.809017 0.500000
v 0.000000 -1.000000 -0.000000
v 0.309017 -0.809017 -0.500000
v -0.000000 -0.000000 1.000000
v -0.500000 -0.309017 0.809017
v -0.309017 -0.809017 0.500000
v -0.809017 -0.500000 0.309017
v -0.809017 -0.500000 -0.309017
v -0.309017 -0.809017 -0.500000
v -0.500000 -0.309017 -0.809017
v 0.000000 0.000000 -1.000000
v -0.500000 0.309017 -0.809017
v -0.309017 0.809017 -0.500000
v 0.309017 0.809017 -0.500000
v -0.000000 1.000000 0.000000
v 0.309017 0.809017 0.500000
v -0.309017 0.809017 0.500000
v -0.500000 0.309017 0.809017
v -0.809017 0.500000 0.309017
v -1.000000 -0.000000 -0.000000
v -0.809017 0.500000 -0.309017
v 0.850651 -0.000000 -0.525731
v 0.850651 -0.000000 0.525731
v 0.525731 -0.850651 0.000000
v -0.000000 -0.525731 0.850651
v -0.525731 -0.850651 -0.000000
v 0.000000 -0.525731 -0.850651
v -0.000000 0.525731 -0.850651
v 0.525731 0.850651 -0.000000
v -0.000000 0.525731 0.850651
v -0.850651 -0.000000 0.525731
v -0.525731 0.850651 0.000000
v -0.850651 0.000000 -0.525731
vt 0.109687 0.264754
vt 0.211028 0.264754
vt 0.259464 0.338526
vt 0.132656 0.431864
vt 0.078371 0.362398
vt 0.048436 0.455737
vt 0.181093 0.582890
vt 0.099106 0.613729
vt 0.017120 0.553381
vt 0.337835 0.582890
vt 0.341450 0.671415
vt 0.259464 0.731763
vt 0.177478 0.671415
vt 0.386271 0.431864
vt 0.478148 0.431864
vt 0.521852 0.568136
vt 0.419821 0.613729
vt 0.307900 0.264754
vt 0.409240 0.264754
vt 0.440556 0.362398
vt 0.740536 0.268237
vt 0.822522 0.328585
vt 0.818907 0.417110
vt 0.662165 0.417110
vt 0.658550 0.328585
vt 0.580179 0.386271
vt 0.613729 0.568136
vt 0.740536 0.661474
vt 0.692100 0.735246
vt 0.590760 0.735246
vt 0.559444 0.637602
vt 0.867344 0.568136
vt 0.921629 0.637602
vt 0.890313 0.735246
vt 0.788972 0.735246
vt 0.900894 0.386271
vt 0.982880 0.446619
vt 0.951564 0.544263
vt 0.099106 0.526393
vt 0.259464 0.473607
vt 0.259464 0.644427
vt 0.419821 0.526393
vt 0.641430 0.664590
vt 0.839643 0.664590
vt 0.900894 0.473607
vt 0.160357 0.335410
vt 0.358570 0.335410
vt 0.580179 0.473607
vt 0.740536 0.355573
vt 0.740536 0.526393
vt 0.148660 0.595492
vt 0.049553 0.595492
vt 0.018928 0.500000
vt 0.099106 0.440983
vt 0.179285 0.500000
vt 0.309017 0.404509
vt 0.339643 0.500000
vt 0.259464 0.559017
vt 0.209911 0.404508
vt 0.339643 0.618034
vt 0.309017 0.713526
vt 0.209911 0.713526
vt 0.179285 0.618034
vt 0.419821 0.440983
vt 0.500000 0.500000
vt 0.469374 0.595492
vt 0.370268 0.595492
vt 0.561251 0.690983
vt 0.591877 0.595492
vt 0.690983 0.595492
vt 0.721609 0.690983
vt 0.641430 0.750000
vt 0.839643 0.750000
vt 0.759464 0.690983
vt 0.790089 0.595492
vt 0.889196 0.595492
vt 0.919821 0.690983
vt 0.900894 0.559017
vt 0.820715 0.500000
vt 0.851340 0.404508
vt 0.950447 0.404508
vt 0.981072 0.500000
vt 0.110804 0.404509
vt 0.080179 0.309017
vt 0.160357 0.250000
vt 0.240536 0.309017
vt 0.278391 0.309017
vt 0.358570 0.250000
vt 0.438749 0.309017
vt 0.408123 0.404508
vt 0.580179 0.559017
vt 0.530626 0.404509
vt 0.629732 0.404509
vt 0.660357 0.500000
vt 0.660357 0.381966
vt 0.690983 0.286475
vt 0.790089 0.286475
vt 0.820715 0.381966
vt 0.740536 0.440983
vn 0.577350 -0.577350 -0.577350
vn 0.500000 -0.309017 -0.809017
vn 0.809017 -0.500000 -0.309017
vn 0.850651 -0.000000 -0.525731
vn 0.356822 0.000000 -0.934172
vn 0.500000 0.309017 -0.809017
vn 0.577350 0.577350 -0.577350
vn 0.809017 0.500000 -0.309017
vn 0.934172 0.356822 0.000000
vn 1.000000 0.000000 0.000000
vn 0.934172 -0.356822 0.000000
vn 0.356822 0.000000 0.934172
vn 0.500000 -0.309017 0.809017
vn 0.500000 0.309017 0.809017
vn 0.850651 0.000000 0.525731
vn 0.577350 -0.577350 0.577350
vn 0.809017 -0.500000 0.309017
vn 0.809017 0.500000 0.309017
vn 0.577350 0.577350 0.577350
vn 0.309017 -0.809017 0.500000
vn 0.525731 -0.850651 0.000000
vn -0.000000 -0.934172 0.356822
vn 0.000000 -1.000000 0.000000
vn -0.000000 -0.934172 -0.356822
vn 0.309017 -0.809017 -0.500000
vn -0.356822 0.000000 0.934172
vn -0.500000 -0.309017 0.809017
vn -0.000000 0.000000 1.000000
vn -0.000000 -0.525731 0.850651
vn -0.577350 -0.577350 0.577350
vn -0.309017 -0.809017 0.500000
vn -0.809017 -0.500000 0.309017
vn -0.525731 -0.850651 -0.000000
vn -0.934172 -0.356822 -0.000000
vn -0.809017 -0.500000 -0.309017
vn -0.577350 -0.577350 -0.577350
vn -0.309017 -0.809017 -0.500000
vn 0.000000 -0.525731 -0.850651
vn -0.500000 -0.309017 -0.809017
vn -0.356822 -0.000000 -0.934172
vn 0.000000 0.000000 -1.000000
vn -0.500000 0.309017 -0.809017
vn -0.000000 0.525731 -0.850651
vn -0.577350 0.577350 -0.577350
vn -0.309017 0.809017 -0.500000
vn 0.000000 0.934172 -0.356822
vn 0.309017 0.809017 -0.500000
vn 0.525731 0.850651 0.000000
vn 0.000000 1.000000 0.000000
vn 0.000000 0.934172 0.356822
vn 0.309017 0.809017 0.500000
vn -0.309017 0.809017 0.500000
vn 0.000000 0.525731 0.850651
vn -0.577350 0.577350 0.577350
vn -0.500000 0.309017 0.809017
vn -0.850651 0.000000 0.525731
vn -0.809017 0.500000 0.309017
vn -0.934172 0.356822 0.000000
vn -1.000000 -0.000000 0.000000
vn -0.525731 0.850651 -0.000000
vn -0.809017 0.500000 -0.309017
vn -0.850651 0.000000 -0.525731
g pSolid1
usemtl initialShadingGroup
f 5/8/1 22/52/2 21/51/3
f 21/51/3 22/52/2 51/39/4
f 3/9/5 23/53/6 22/52/2
f 22/52/2 23/53/6 51/39/4
f 4/6/7 24/54/8 23/53/6
f 23/53/6 24/54/8 51/39/4
f 2/4/9 25/55/10 24/54/8
f 24/54/8 25/55/10 51/39/4
f 1/7/11 21/51/3 25/55/10
f 25/55/10 21/51/3 51/39/4
f 6/14/12 27/57/13 26/56/14
f 26/56/14 27/57/13 52/40/15
f 7/10/16 28/58/17 27/57/13
f 27/57/13 28/58/17 52/40/15
f 1/7/11 25/55/10 28/58/17
f 28/58/17 25/55/10 52/40/15
f 2/4/9 29/59/18 25/55/10
f 25/55/10 29/59/18 52/40/15
f 8/3/19 26/56/14 29/59/18
f 29/59/18 26/56/14 52/40/15
f 7/10/16 30/60/20 28/58/17
f 28/58/17 30/60/20 53/41/21
f 17/11/22 31/61/23 30/60/20
f 30/60/20 31/61/23 53/41/21
f 20/12/24 32/62/25 31/61/23
f 31/61/23 32/62/25 53/41/21
f 5/13/1 21/63/3 32/62/25
f 32/62/25 21/63/3 53/41/21
f 1/7/11 28/58/17 21/63/3
f 21/63/3 28/58/17 53/41/21
f 11/15/26 34/65/27 33/64/28
f 33/64/28 34/65/27 54/42/29
f 12/16/30 35/66/31 34/65/27
f 34/65/27 35/66/31 54/42/29
f 17/17/22 30/67/20 35/66/31
f 35/66/31 30/67/20 54/42/29
f 7/10/16 27/57/13 30/67/20
f 30/67/20 27/57/13 54/42/29
f 6/14/12 33/64/28 27/57/13
f 27/57/13 33/64/28 54/42/29
f 12/31/30 36/69/32 35/68/31
f 35/68/31 36/69/32 55/43/33
f 9/27/34 37/70/35 36/69/32
f 36/69/32 37/70/35 55/43/33
f 16/28/36 38/71/37 37/70/35
f 37/70/35 38/71/37 55/43/33
f 20/29/24 31/72/23 38/71/37
f 38/71/37 31/72/23 55/43/33
f 17/30/22 35/68/31 31/72/23
f 31/72/23 35/68/31 55/43/33
f 20/35/24 38/74/37 32/73/25
f 32/73/25 38/74/37 56/44/38
f 16/28/36 39/75/39 38/74/37
f 38/74/37 39/75/39 56/44/38
f 14/32/40 40/76/41 39/75/39
f 39/75/39 40/76/41 56/44/38
f 3/33/5 22/77/2 40/76/41
f 40/76/41 22/77/2 56/44/38
f 5/34/1 32/73/25 22/77/2
f 22/77/2 32/73/25 56/44/38
f 14/32/40 41/79/42 40/78/41
f 40/78/41 41/79/42 57/45/43
f 15/23/44 42/80/45 41/79/42
f 41/79/42 42/80/45 57/45/43
f 19/36/46 43/81/47 42/80/45
f 42/80/45 43/81/47 57/45/43
f 4/37/7 23/82/6 43/81/47
f 43/81/47 23/82/6 57/45/43
f 3/38/5 40/78/41 23/82/6
f 23/82/6 40/78/41 57/45/43
f 4/5/7 43/84/47 24/83/8
f 24/83/8 43/84/47 58/46/48
f 19/1/46 44/85/49 43/84/47
f 43/84/47 44/85/49 58/46/48
f 18/2/50 45/86/51 44/85/49
f 44/85/49 45/86/51 58/46/48
f 8/3/19 29/59/18 45/86/51
f 45/86/51 29/59/18 58/46/48
f 2/4/9 24/83/8 29/59/18
f 29/59/18 24/83/8 58/46/48
f 18/18/50 46/88/52 45/87/51
f 45/87/51 46/88/52 59/47/53
f 13/19/54 47/89/55 46/88/52
f 46/88/52 47/89/55 59/47/53
f 11/20/26 33/90/28 47/89/55
f 47/89/55 33/90/28 59/47/53
f 6/14/12 26/56/14 33/90/28
f 33/90/28 26/56/14 59/47/53
f 8/3/19 45/87/51 26/56/14
f 26/56/14 45/87/51 59/47/53
f 12/16/30 34/65/27 36/91/32
f 36/91/32 34/65/27 60/48/56
f 11/15/26 47/92/55 34/65/27
f 34/65/27 47/92/55 60/48/56
f 13/26/54 48/93/57 47/92/55
f 47/92/55 48/93/57 60/48/56
f 10/24/58 49/94/59 48/93/57
f 48/93/57 49/94/59 60/48/56
f 9/27/34 36/91/32 49/94/59
f 49/94/59 36/91/32 60/48/56
f 13/25/54 46/96/52 48/95/57
f 48/95/57 46/96/52 61/49/60
f 18/21/50 44/97/49 46/96/52
f 46/96/52 44/97/49 61/49/60
f 19/22/46 42/98/45 44/97/49
f 44/97/49 42/98/45 61/49/60
f 15/23/44 50/99/61 42/98/45
f 42/98/45 50/99/61 61/49/60
f 10/24/58 48/95/57 50/99/61
f 50/99/61 48/95/57 61/49/60
f 15/23/44 41/79/42 50/99/61
f 50/99/61 41/79/42 62/50/62
f 14/32/40 39/75/39 41/79/42
f 41/79/42 39/75/39 62/50/62
f 16/28/36 37/70/35 39/75/39
f 39/75/39 37/70/35 62/50/62
f 9/27/34 49/94/59 37/70/35
f 37/70/35 49/94/59 62/50/62
f 10/24/58 50/99/61 49/94/59
f 49/94/59 50/99/61 62/50/62
