<?xml version="1.0" encoding="utf-8" ?>
<!-- Generator: Adobe Illustrator 16.0.0, SVG Export Plug-In . SVG Version: 6.00 Build 0)  -->
<!DOCTYPE svg PUBLIC "-//W3C//DTD SVG 1.1//EN" "http://www.w3.org/Graphics/SVG/1.1/DTD/svg11.dtd">
<svg version="1.1" xmlns="http://www.w3.org/2000/svg" xmlns:xlink="http://www.w3.org/1999/xlink" x="0px" y="0px" width="1440px" height="900px" viewBox="0 0 1440 900" enable-background="new 0 0 1440 900" xml:space="preserve">
    <g id="TopicMapGrid">
        <rect x="519.813" y="144.5" opacity="0.02" fill="none" stroke="#FFFFFF" stroke-miterlimit="10" width="29" height="18" />
        <rect x="548.813" y="144.5" opacity="0.02" fill="none" stroke="#FFFFFF" stroke-miterlimit="10" width="28" height="18" />
        <rect x="576.813" y="144.5" opacity="0.02" fill="none" stroke="#FFFFFF" stroke-miterlimit="10" width="29" height="18" />
        <rect x="605.813" y="144.5" opacity="0.02" fill="none" stroke="#FFFFFF" stroke-miterlimit="10" width="29" height="18" />
        <rect x="634.813" y="144.5" opacity="0.02" fill="none" stroke="#FFFFFF" stroke-miterlimit="10" width="29" height="18" />
        <rect x="663.813" y="144.5" opacity="0.02" fill="none" stroke="#FFFFFF" stroke-miterlimit="10" width="29" height="18" />
        <rect x="692.813" y="144.5" opacity="0.02" fill="none" stroke="#FFFFFF" stroke-miterlimit="10" width="28" height="18" />
        <rect x="519.813" y="162.5" opacity="0.02" fill="none" stroke="#FFFFFF" stroke-miterlimit="10" width="29" height="18" />
        <rect x="548.813" y="162.5" opacity="0.02" fill="none" stroke="#FFFFFF" stroke-miterlimit="10" width="28" height="18" />
        <rect x="576.813" y="162.5" opacity="0.02" fill="none" stroke="#FFFFFF" stroke-miterlimit="10" width="29" height="18" />
        <rect x="605.813" y="162.5" opacity="0.02" fill="none" stroke="#FFFFFF" stroke-miterlimit="10" width="29" height="18" />
        <rect x="634.813" y="162.5" opacity="0.02" fill="none" stroke="#FFFFFF" stroke-miterlimit="10" width="29" height="18" />
        <rect x="663.813" y="162.5" opacity="0.02" fill="none" stroke="#FFFFFF" stroke-miterlimit="10" width="29" height="18" />
        <rect x="692.813" y="162.5" opacity="0.02" fill="none" stroke="#FFFFFF" stroke-miterlimit="10" width="28" height="18" />
        <rect x="519.813" y="180.5" opacity="0.02" fill="none" stroke="#FFFFFF" stroke-miterlimit="10" width="29" height="18" />
        <rect x="548.813" y="180.5" opacity="0.02" fill="none" stroke="#FFFFFF" stroke-miterlimit="10" width="28" height="18" />
        <rect x="576.813" y="180.5" opacity="0.02" fill="none" stroke="#FFFFFF" stroke-miterlimit="10" width="29" height="18" />
        <rect x="605.813" y="180.5" opacity="0.02" fill="none" stroke="#FFFFFF" stroke-miterlimit="10" width="29" height="18" />
        <rect x="634.813" y="180.5" opacity="0.02" fill="none" stroke="#FFFFFF" stroke-miterlimit="10" width="29" height="18" />
        <rect x="663.813" y="180.5" opacity="0.02" fill="none" stroke="#FFFFFF" stroke-miterlimit="10" width="29" height="18" />
        <rect x="692.813" y="180.5" opacity="0.02" fill="none" stroke="#FFFFFF" stroke-miterlimit="10" width="28" height="18" />
        <rect x="519.813" y="198.5" opacity="0.02" fill="none" stroke="#FFFFFF" stroke-miterlimit="10" width="29" height="18" />
        <rect x="548.813" y="198.5" opacity="0.02" fill="none" stroke="#FFFFFF" stroke-miterlimit="10" width="28" height="18" />
        <rect x="576.813" y="198.5" opacity="0.02" fill="none" stroke="#FFFFFF" stroke-miterlimit="10" width="29" height="18" />
        <rect x="605.813" y="198.5" opacity="0.02" fill="none" stroke="#FFFFFF" stroke-miterlimit="10" width="29" height="18" />
        <rect x="634.813" y="198.5" opacity="0.02" fill="none" stroke="#FFFFFF" stroke-miterlimit="10" width="29" height="18" />
        <rect x="663.813" y="198.5" opacity="0.02" fill="none" stroke="#FFFFFF" stroke-miterlimit="10" width="29" height="18" />
        <rect x="692.813" y="198.5" opacity="0.02" fill="none" stroke="#FFFFFF" stroke-miterlimit="10" width="28" height="18" />
        <rect x="519.813" y="216.5" opacity="0.02" fill="none" stroke="#FFFFFF" stroke-miterlimit="10" width="29" height="18" />
        <rect x="548.813" y="216.5" opacity="0.02" fill="none" stroke="#FFFFFF" stroke-miterlimit="10" width="28" height="18" />
        <rect x="576.813" y="216.5" opacity="0.02" fill="none" stroke="#FFFFFF" stroke-miterlimit="10" width="29" height="18" />
        <rect x="605.813" y="216.5" opacity="0.02" fill="none" stroke="#FFFFFF" stroke-miterlimit="10" width="29" height="18" />
        <rect x="634.813" y="216.5" opacity="0.02" fill="none" stroke="#FFFFFF" stroke-miterlimit="10" width="29" height="18" />
        <rect x="663.813" y="216.5" opacity="0.02" fill="none" stroke="#FFFFFF" stroke-miterlimit="10" width="29" height="18" />
        <rect x="692.813" y="216.5" opacity="0.02" fill="none" stroke="#FFFFFF" stroke-miterlimit="10" width="28" height="18" />
        <rect x="519.813" y="234.5" opacity="0.02" fill="none" stroke="#FFFFFF" stroke-miterlimit="10" width="29" height="18" />
        <rect x="548.813" y="234.5" opacity="0.02" fill="none" stroke="#FFFFFF" stroke-miterlimit="10" width="28" height="18" />
        <rect x="576.813" y="234.5" opacity="0.02" fill="none" stroke="#FFFFFF" stroke-miterlimit="10" width="29" height="18" />
        <rect x="605.813" y="234.5" opacity="0.02" fill="none" stroke="#FFFFFF" stroke-miterlimit="10" width="29" height="18" />
        <rect x="634.813" y="234.5" opacity="0.02" fill="none" stroke="#FFFFFF" stroke-miterlimit="10" width="29" height="18" />
        <rect x="663.813" y="234.5" opacity="0.02" fill="none" stroke="#FFFFFF" stroke-miterlimit="10" width="29" height="18" />
        <rect x="692.813" y="234.5" opacity="0.02" fill="none" stroke="#FFFFFF" stroke-miterlimit="10" width="28" height="18" />
        <rect x="519.813" y="252.5" opacity="0.02" fill="none" stroke="#FFFFFF" stroke-miterlimit="10" width="29" height="18" />
        <rect x="548.813" y="252.5" opacity="0.02" fill="none" stroke="#FFFFFF" stroke-miterlimit="10" width="28" height="18" />
        <rect x="576.813" y="252.5" opacity="0.02" fill="none" stroke="#FFFFFF" stroke-miterlimit="10" width="29" height="18" />
        <rect x="605.813" y="252.5" opacity="0.02" fill="none" stroke="#FFFFFF" stroke-miterlimit="10" width="29" height="18" />
        <rect x="634.813" y="252.5" opacity="0.02" fill="none" stroke="#FFFFFF" stroke-miterlimit="10" width="29" height="18" />
        <rect x="663.813" y="252.5" opacity="0.02" fill="none" stroke="#FFFFFF" stroke-miterlimit="10" width="29" height="18" />
        <rect x="692.813" y="252.5" opacity="0.02" fill="none" stroke="#FFFFFF" stroke-miterlimit="10" width="28" height="18" />
        <rect x="519.813" y="270.5" opacity="0.02" fill="none" stroke="#FFFFFF" stroke-miterlimit="10" width="29" height="18" />
        <rect x="548.813" y="270.5" opacity="0.02" fill="none" stroke="#FFFFFF" stroke-miterlimit="10" width="28" height="18" />
        <rect x="576.813" y="270.5" opacity="0.02" fill="none" stroke="#FFFFFF" stroke-miterlimit="10" width="29" height="18" />
        <rect x="605.813" y="270.5" opacity="0.02" fill="none" stroke="#FFFFFF" stroke-miterlimit="10" width="29" height="18" />
        <rect x="634.813" y="270.5" opacity="0.02" fill="none" stroke="#FFFFFF" stroke-miterlimit="10" width="29" height="18" />
        <rect x="663.813" y="270.5" opacity="0.02" fill="none" stroke="#FFFFFF" stroke-miterlimit="10" width="29" height="18" />
        <rect x="692.813" y="270.5" opacity="0.02" fill="none" stroke="#FFFFFF" stroke-miterlimit="10" width="28" height="18" />
        <rect x="519.813" y="288.5" opacity="0.02" fill="none" stroke="#FFFFFF" stroke-miterlimit="10" width="29" height="18" />
        <rect x="548.813" y="288.5" opacity="0.02" fill="none" stroke="#FFFFFF" stroke-miterlimit="10" width="28" height="18" />
        <rect x="576.813" y="288.5" opacity="0.02" fill="none" stroke="#FFFFFF" stroke-miterlimit="10" width="29" height="18" />
        <rect x="605.813" y="288.5" opacity="0.02" fill="none" stroke="#FFFFFF" stroke-miterlimit="10" width="29" height="18" />
        <rect x="634.813" y="288.5" opacity="0.02" fill="none" stroke="#FFFFFF" stroke-miterlimit="10" width="29" height="18" />
        <rect x="663.813" y="288.5" opacity="0.02" fill="none" stroke="#FFFFFF" stroke-miterlimit="10" width="29" height="18" />
        <rect x="692.813" y="288.5" opacity="0.02" fill="none" stroke="#FFFFFF" stroke-miterlimit="10" width="28" height="18" />
        <rect x="519.813" y="306.5" opacity="0.02" fill="none" stroke="#FFFFFF" stroke-miterlimit="10" width="29" height="18" />
        <rect x="548.813" y="306.5" opacity="0.02" fill="none" stroke="#FFFFFF" stroke-miterlimit="10" width="28" height="18" />
        <rect x="576.813" y="306.5" opacity="0.02" fill="none" stroke="#FFFFFF" stroke-miterlimit="10" width="29" height="18" />
        <rect x="605.813" y="306.5" opacity="0.02" fill="none" stroke="#FFFFFF" stroke-miterlimit="10" width="29" height="18" />
        <rect x="634.813" y="306.5" opacity="0.02" fill="none" stroke="#FFFFFF" stroke-miterlimit="10" width="29" height="18" />
        <rect x="663.813" y="306.5" opacity="0.02" fill="none" stroke="#FFFFFF" stroke-miterlimit="10" width="29" height="18" />
        <rect x="692.813" y="306.5" opacity="0.02" fill="none" stroke="#FFFFFF" stroke-miterlimit="10" width="28" height="18" />
        <rect x="519.813" y="324.5" opacity="0.02" fill="none" stroke="#FFFFFF" stroke-miterlimit="10" width="29" height="18" />
        <rect x="548.813" y="324.5" opacity="0.02" fill="none" stroke="#FFFFFF" stroke-miterlimit="10" width="28" height="18" />
        <rect x="576.813" y="324.5" opacity="0.02" fill="none" stroke="#FFFFFF" stroke-miterlimit="10" width="29" height="18" />
        <rect x="605.813" y="324.5" opacity="0.02" fill="none" stroke="#FFFFFF" stroke-miterlimit="10" width="29" height="18" />
        <rect x="634.813" y="324.5" opacity="0.02" fill="none" stroke="#FFFFFF" stroke-miterlimit="10" width="29" height="18" />
        <rect x="663.813" y="324.5" opacity="0.02" fill="none" stroke="#FFFFFF" stroke-miterlimit="10" width="29" height="18" />
        <rect x="692.813" y="324.5" opacity="0.02" fill="none" stroke="#FFFFFF" stroke-miterlimit="10" width="28" height="18" />
        <rect x="519.813" y="342.5" opacity="0.02" fill="none" stroke="#FFFFFF" stroke-miterlimit="10" width="29" height="18" />
        <rect x="548.813" y="342.5" opacity="0.02" fill="none" stroke="#FFFFFF" stroke-miterlimit="10" width="28" height="18" />
        <rect x="576.813" y="342.5" opacity="0.02" fill="none" stroke="#FFFFFF" stroke-miterlimit="10" width="29" height="18" />
        <rect x="605.813" y="342.5" opacity="0.02" fill="none" stroke="#FFFFFF" stroke-miterlimit="10" width="29" height="18" />
        <rect x="634.813" y="342.5" opacity="0.02" fill="none" stroke="#FFFFFF" stroke-miterlimit="10" width="29" height="18" />
        <rect x="663.813" y="342.5" opacity="0.02" fill="none" stroke="#FFFFFF" stroke-miterlimit="10" width="29" height="18" />
        <rect x="692.813" y="342.5" opacity="0.02" fill="none" stroke="#FFFFFF" stroke-miterlimit="10" width="28" height="18" />
        <rect x="519.813" y="360.5" opacity="0.02" fill="none" stroke="#FFFFFF" stroke-miterlimit="10" width="29" height="18" />
        <rect x="548.813" y="360.5" opacity="0.02" fill="none" stroke="#FFFFFF" stroke-miterlimit="10" width="28" height="18" />
        <rect x="576.813" y="360.5" opacity="0.02" fill="none" stroke="#FFFFFF" stroke-miterlimit="10" width="29" height="18" />
        <rect x="605.813" y="360.5" opacity="0.02" fill="none" stroke="#FFFFFF" stroke-miterlimit="10" width="29" height="18" />
        <rect x="634.813" y="360.5" opacity="0.02" fill="none" stroke="#FFFFFF" stroke-miterlimit="10" width="29" height="18" />
        <rect x="663.813" y="360.5" opacity="0.02" fill="none" stroke="#FFFFFF" stroke-miterlimit="10" width="29" height="18" />
        <rect x="692.813" y="360.5" opacity="0.02" fill="none" stroke="#FFFFFF" stroke-miterlimit="10" width="28" height="18" />
        <rect x="519.813" y="378.5" opacity="0.02" fill="none" stroke="#FFFFFF" stroke-miterlimit="10" width="29" height="18" />
        <rect x="548.813" y="378.5" opacity="0.02" fill="none" stroke="#FFFFFF" stroke-miterlimit="10" width="28" height="18" />
        <rect x="576.813" y="378.5" opacity="0.02" fill="none" stroke="#FFFFFF" stroke-miterlimit="10" width="29" height="18" />
        <rect x="605.813" y="378.5" opacity="0.02" fill="none" stroke="#FFFFFF" stroke-miterlimit="10" width="29" height="18" />
        <rect x="634.813" y="378.5" opacity="0.02" fill="none" stroke="#FFFFFF" stroke-miterlimit="10" width="29" height="18" />
        <rect x="663.813" y="378.5" opacity="0.02" fill="none" stroke="#FFFFFF" stroke-miterlimit="10" width="29" height="18" />
        <rect x="692.813" y="378.5" opacity="0.02" fill="none" stroke="#FFFFFF" stroke-miterlimit="10" width="28" height="18" />
        <rect x="519.813" y="396.5" opacity="0.02" fill="none" stroke="#FFFFFF" stroke-miterlimit="10" width="29" height="18" />
        <rect x="548.813" y="396.5" opacity="0.02" fill="none" stroke="#FFFFFF" stroke-miterlimit="10" width="28" height="18" />
        <rect x="576.813" y="396.5" opacity="0.02" fill="none" stroke="#FFFFFF" stroke-miterlimit="10" width="29" height="18" />
        <rect x="605.813" y="396.5" opacity="0.02" fill="none" stroke="#FFFFFF" stroke-miterlimit="10" width="29" height="18" />
        <rect x="634.813" y="396.5" opacity="0.02" fill="none" stroke="#FFFFFF" stroke-miterlimit="10" width="29" height="18" />
        <rect x="663.813" y="396.5" opacity="0.02" fill="none" stroke="#FFFFFF" stroke-miterlimit="10" width="29" height="18" />
        <rect x="692.813" y="396.5" opacity="0.02" fill="none" stroke="#FFFFFF" stroke-miterlimit="10" width="28" height="18" />
        <rect x="519.813" y="414.5" opacity="0.02" fill="none" stroke="#FFFFFF" stroke-miterlimit="10" width="29" height="18" />
        <rect x="548.813" y="414.5" opacity="0.02" fill="none" stroke="#FFFFFF" stroke-miterlimit="10" width="28" height="18" />
        <rect x="576.813" y="414.5" opacity="0.02" fill="none" stroke="#FFFFFF" stroke-miterlimit="10" width="29" height="18" />
        <rect x="605.813" y="414.5" opacity="0.02" fill="none" stroke="#FFFFFF" stroke-miterlimit="10" width="29" height="18" />
        <rect x="634.813" y="414.5" opacity="0.02" fill="none" stroke="#FFFFFF" stroke-miterlimit="10" width="29" height="18" />
        <rect x="663.813" y="414.5" opacity="0.02" fill="none" stroke="#FFFFFF" stroke-miterlimit="10" width="29" height="18" />
        <rect x="692.813" y="414.5" opacity="0.02" fill="none" stroke="#FFFFFF" stroke-miterlimit="10" width="28" height="18" />
        <rect x="95.813" y="432.5" opacity="0.02" fill="none" stroke="#FFFFFF" stroke-miterlimit="10" width="21" height="18" />
        <rect x="116.813" y="432.5" opacity="0.02" fill="none" stroke="#FFFFFF" stroke-miterlimit="10" width="28" height="18" />
        <rect x="144.813" y="432.5" opacity="0.02" fill="none" stroke="#FFFFFF" stroke-miterlimit="10" width="29" height="18" />
        <rect x="173.813" y="432.5" opacity="0.02" fill="none" stroke="#FFFFFF" stroke-miterlimit="10" width="29" height="18" />
        <rect x="202.813" y="432.5" opacity="0.02" fill="none" stroke="#FFFFFF" stroke-miterlimit="10" width="29" height="18" />
        <rect x="231.813" y="432.5" opacity="0.02" fill="none" stroke="#FFFFFF" stroke-miterlimit="10" width="29" height="18" />
        <rect x="260.813" y="432.5" opacity="0.02" fill="none" stroke="#FFFFFF" stroke-miterlimit="10" width="28" height="18" />
        <rect x="288.813" y="432.5" opacity="0.02" fill="none" stroke="#FFFFFF" stroke-miterlimit="10" width="29" height="18" />
        <rect x="317.813" y="432.5" opacity="0.02" fill="none" stroke="#FFFFFF" stroke-miterlimit="10" width="29" height="18" />
        <rect x="346.813" y="432.5" opacity="0.02" fill="none" stroke="#FFFFFF" stroke-miterlimit="10" width="29" height="18" />
        <rect x="375.813" y="432.5" opacity="0.02" fill="none" stroke="#FFFFFF" stroke-miterlimit="10" width="29" height="18" />
        <rect x="404.813" y="432.5" opacity="0.02" fill="none" stroke="#FFFFFF" stroke-miterlimit="10" width="28" height="18" />
        <rect x="432.813" y="432.5" opacity="0.02" fill="none" stroke="#FFFFFF" stroke-miterlimit="10" width="29" height="18" />
        <rect x="461.813" y="432.5" opacity="0.02" fill="none" stroke="#FFFFFF" stroke-miterlimit="10" width="29" height="18" />
        <rect x="490.813" y="432.5" opacity="0.02" fill="none" stroke="#FFFFFF" stroke-miterlimit="10" width="29" height="18" />
        <rect x="519.813" y="432.5" opacity="0.02" fill="none" stroke="#FFFFFF" stroke-miterlimit="10" width="29" height="18" />
        <rect x="548.813" y="432.5" opacity="0.02" fill="none" stroke="#FFFFFF" stroke-miterlimit="10" width="28" height="18" />
        <rect x="576.813" y="432.5" opacity="0.02" fill="none" stroke="#FFFFFF" stroke-miterlimit="10" width="29" height="18" />
        <rect x="605.813" y="432.5" opacity="0.02" fill="none" stroke="#FFFFFF" stroke-miterlimit="10" width="29" height="18" />
        <rect x="634.813" y="432.5" opacity="0.02" fill="none" stroke="#FFFFFF" stroke-miterlimit="10" width="29" height="18" />
        <rect x="663.813" y="432.5" opacity="0.02" fill="none" stroke="#FFFFFF" stroke-miterlimit="10" width="29" height="18" />
        <rect x="692.813" y="432.5" opacity="0.02" fill="none" stroke="#FFFFFF" stroke-miterlimit="10" width="28" height="18" />
        <rect x="95.813" y="450.5" opacity="0.02" fill="none" stroke="#FFFFFF" stroke-miterlimit="10" width="21" height="18" />
        <rect x="116.813" y="450.5" opacity="0.02" fill="none" stroke="#FFFFFF" stroke-miterlimit="10" width="28" height="18" />
        <rect x="144.813" y="450.5" opacity="0.02" fill="none" stroke="#FFFFFF" stroke-miterlimit="10" width="29" height="18" />
        <rect x="173.813" y="450.5" opacity="0.02" fill="none" stroke="#FFFFFF" stroke-miterlimit="10" width="29" height="18" />
        <rect x="202.813" y="450.5" opacity="0.02" fill="none" stroke="#FFFFFF" stroke-miterlimit="10" width="29" height="18" />
        <rect x="231.813" y="450.5" opacity="0.02" fill="none" stroke="#FFFFFF" stroke-miterlimit="10" width="29" height="18" />
        <rect x="260.813" y="450.5" opacity="0.02" fill="none" stroke="#FFFFFF" stroke-miterlimit="10" width="28" height="18" />
        <rect x="288.813" y="450.5" opacity="0.02" fill="none" stroke="#FFFFFF" stroke-miterlimit="10" width="29" height="18" />
        <rect x="317.813" y="450.5" opacity="0.02" fill="none" stroke="#FFFFFF" stroke-miterlimit="10" width="29" height="18" />
        <rect x="346.813" y="450.5" opacity="0.02" fill="none" stroke="#FFFFFF" stroke-miterlimit="10" width="29" height="18" />
        <rect x="375.813" y="450.5" opacity="0.02" fill="none" stroke="#FFFFFF" stroke-miterlimit="10" width="29" height="18" />
        <rect x="404.813" y="450.5" opacity="0.02" fill="none" stroke="#FFFFFF" stroke-miterlimit="10" width="28" height="18" />
        <rect x="432.813" y="450.5" opacity="0.02" fill="none" stroke="#FFFFFF" stroke-miterlimit="10" width="29" height="18" />
        <rect x="461.813" y="450.5" opacity="0.02" fill="none" stroke="#FFFFFF" stroke-miterlimit="10" width="29" height="18" />
        <rect x="490.813" y="450.5" opacity="0.02" fill="none" stroke="#FFFFFF" stroke-miterlimit="10" width="29" height="18" />
        <rect x="519.813" y="450.5" opacity="0.02" fill="none" stroke="#FFFFFF" stroke-miterlimit="10" width="29" height="18" />
        <rect x="548.813" y="450.5" opacity="0.02" fill="none" stroke="#FFFFFF" stroke-miterlimit="10" width="28" height="18" />
        <rect x="576.813" y="450.5" opacity="0.02" fill="none" stroke="#FFFFFF" stroke-miterlimit="10" width="29" height="18" />
        <rect x="605.813" y="450.5" opacity="0.02" fill="none" stroke="#FFFFFF" stroke-miterlimit="10" width="29" height="18" />
        <rect x="634.813" y="450.5" opacity="0.02" fill="none" stroke="#FFFFFF" stroke-miterlimit="10" width="29" height="18" />
        <rect x="663.813" y="450.5" opacity="0.02" fill="none" stroke="#FFFFFF" stroke-miterlimit="10" width="29" height="18" />
        <rect x="692.813" y="450.5" opacity="0.02" fill="none" stroke="#FFFFFF" stroke-miterlimit="10" width="28" height="18" />
        <rect x="95.813" y="468.5" opacity="0.02" fill="none" stroke="#FFFFFF" stroke-miterlimit="10" width="21" height="18" />
        <rect x="116.813" y="468.5" opacity="0.02" fill="none" stroke="#FFFFFF" stroke-miterlimit="10" width="28" height="18" />
        <rect x="144.813" y="468.5" opacity="0.02" fill="none" stroke="#FFFFFF" stroke-miterlimit="10" width="29" height="18" />
        <rect x="173.813" y="468.5" opacity="0.02" fill="none" stroke="#FFFFFF" stroke-miterlimit="10" width="29" height="18" />
        <rect x="202.813" y="468.5" opacity="0.02" fill="none" stroke="#FFFFFF" stroke-miterlimit="10" width="29" height="18" />
        <rect x="231.813" y="468.5" opacity="0.02" fill="none" stroke="#FFFFFF" stroke-miterlimit="10" width="29" height="18" />
        <rect x="260.813" y="468.5" opacity="0.02" fill="none" stroke="#FFFFFF" stroke-miterlimit="10" width="28" height="18" />
        <rect x="288.813" y="468.5" opacity="0.02" fill="none" stroke="#FFFFFF" stroke-miterlimit="10" width="29" height="18" />
        <rect x="317.813" y="468.5" opacity="0.02" fill="none" stroke="#FFFFFF" stroke-miterlimit="10" width="29" height="18" />
        <rect x="346.813" y="468.5" opacity="0.02" fill="none" stroke="#FFFFFF" stroke-miterlimit="10" width="29" height="18" />
        <rect x="375.813" y="468.5" opacity="0.02" fill="none" stroke="#FFFFFF" stroke-miterlimit="10" width="29" height="18" />
        <rect x="404.813" y="468.5" opacity="0.02" fill="none" stroke="#FFFFFF" stroke-miterlimit="10" width="28" height="18" />
        <rect x="432.813" y="468.5" opacity="0.02" fill="none" stroke="#FFFFFF" stroke-miterlimit="10" width="29" height="18" />
        <rect x="461.813" y="468.5" opacity="0.02" fill="none" stroke="#FFFFFF" stroke-miterlimit="10" width="29" height="18" />
        <rect x="490.813" y="468.5" opacity="0.02" fill="none" stroke="#FFFFFF" stroke-miterlimit="10" width="29" height="18" />
        <rect x="519.813" y="468.5" opacity="0.02" fill="none" stroke="#FFFFFF" stroke-miterlimit="10" width="29" height="18" />
        <rect x="548.813" y="468.5" opacity="0.02" fill="none" stroke="#FFFFFF" stroke-miterlimit="10" width="28" height="18" />
        <rect x="576.813" y="468.5" opacity="0.02" fill="none" stroke="#FFFFFF" stroke-miterlimit="10" width="29" height="18" />
        <rect x="605.813" y="468.5" opacity="0.02" fill="none" stroke="#FFFFFF" stroke-miterlimit="10" width="29" height="18" />
        <rect x="634.813" y="468.5" opacity="0.02" fill="none" stroke="#FFFFFF" stroke-miterlimit="10" width="29" height="18" />
        <rect x="663.813" y="468.5" opacity="0.02" fill="none" stroke="#FFFFFF" stroke-miterlimit="10" width="29" height="18" />
        <rect x="692.813" y="468.5" opacity="0.02" fill="none" stroke="#FFFFFF" stroke-miterlimit="10" width="28" height="18" />
        <rect x="95.813" y="486.5" opacity="0.02" fill="none" stroke="#FFFFFF" stroke-miterlimit="10" width="21" height="18" />
        <rect x="116.813" y="486.5" opacity="0.02" fill="none" stroke="#FFFFFF" stroke-miterlimit="10" width="28" height="18" />
        <rect x="144.813" y="486.5" opacity="0.02" fill="none" stroke="#FFFFFF" stroke-miterlimit="10" width="29" height="18" />
        <rect x="173.813" y="486.5" opacity="0.02" fill="none" stroke="#FFFFFF" stroke-miterlimit="10" width="29" height="18" />
        <rect x="202.813" y="486.5" opacity="0.02" fill="none" stroke="#FFFFFF" stroke-miterlimit="10" width="29" height="18" />
        <rect x="231.813" y="486.5" opacity="0.02" fill="none" stroke="#FFFFFF" stroke-miterlimit="10" width="29" height="18" />
        <rect x="260.813" y="486.5" opacity="0.02" fill="none" stroke="#FFFFFF" stroke-miterlimit="10" width="28" height="18" />
        <rect x="288.813" y="486.5" opacity="0.02" fill="none" stroke="#FFFFFF" stroke-miterlimit="10" width="29" height="18" />
        <rect x="317.813" y="486.5" opacity="0.02" fill="none" stroke="#FFFFFF" stroke-miterlimit="10" width="29" height="18" />
        <rect x="346.813" y="486.5" opacity="0.02" fill="none" stroke="#FFFFFF" stroke-miterlimit="10" width="29" height="18" />
        <rect x="375.813" y="486.5" opacity="0.02" fill="none" stroke="#FFFFFF" stroke-miterlimit="10" width="29" height="18" />
        <rect x="404.813" y="486.5" opacity="0.02" fill="none" stroke="#FFFFFF" stroke-miterlimit="10" width="28" height="18" />
        <rect x="432.813" y="486.5" opacity="0.02" fill="none" stroke="#FFFFFF" stroke-miterlimit="10" width="29" height="18" />
        <rect x="461.813" y="486.5" opacity="0.02" fill="none" stroke="#FFFFFF" stroke-miterlimit="10" width="29" height="18" />
        <rect x="490.813" y="486.5" opacity="0.02" fill="none" stroke="#FFFFFF" stroke-miterlimit="10" width="29" height="18" />
        <rect x="519.813" y="486.5" opacity="0.02" fill="none" stroke="#FFFFFF" stroke-miterlimit="10" width="29" height="18" />
        <rect x="548.813" y="486.5" opacity="0.02" fill="none" stroke="#FFFFFF" stroke-miterlimit="10" width="28" height="18" />
        <rect x="576.813" y="486.5" opacity="0.02" fill="none" stroke="#FFFFFF" stroke-miterlimit="10" width="29" height="18" />
        <rect x="605.813" y="486.5" opacity="0.02" fill="none" stroke="#FFFFFF" stroke-miterlimit="10" width="29" height="18" />
        <rect x="634.813" y="486.5" opacity="0.02" fill="none" stroke="#FFFFFF" stroke-miterlimit="10" width="29" height="18" />
        <rect x="663.813" y="486.5" opacity="0.02" fill="none" stroke="#FFFFFF" stroke-miterlimit="10" width="29" height="18" />
        <rect x="692.813" y="486.5" opacity="0.02" fill="none" stroke="#FFFFFF" stroke-miterlimit="10" width="28" height="18" />
        <rect x="95.813" y="504.5" opacity="0.02" fill="none" stroke="#FFFFFF" stroke-miterlimit="10" width="21" height="18" />
        <rect x="116.813" y="504.5" opacity="0.02" fill="none" stroke="#FFFFFF" stroke-miterlimit="10" width="28" height="18" />
        <rect x="144.813" y="504.5" opacity="0.02" fill="none" stroke="#FFFFFF" stroke-miterlimit="10" width="29" height="18" />
        <rect x="173.813" y="504.5" opacity="0.02" fill="none" stroke="#FFFFFF" stroke-miterlimit="10" width="29" height="18" />
        <rect x="202.813" y="504.5" opacity="0.02" fill="none" stroke="#FFFFFF" stroke-miterlimit="10" width="29" height="18" />
        <rect x="231.813" y="504.5" opacity="0.02" fill="none" stroke="#FFFFFF" stroke-miterlimit="10" width="29" height="18" />
        <rect x="260.813" y="504.5" opacity="0.02" fill="none" stroke="#FFFFFF" stroke-miterlimit="10" width="28" height="18" />
        <rect x="288.813" y="504.5" opacity="0.02" fill="none" stroke="#FFFFFF" stroke-miterlimit="10" width="29" height="18" />
        <rect x="317.813" y="504.5" opacity="0.02" fill="none" stroke="#FFFFFF" stroke-miterlimit="10" width="29" height="18" />
        <rect x="346.813" y="504.5" opacity="0.02" fill="none" stroke="#FFFFFF" stroke-miterlimit="10" width="29" height="18" />
        <rect x="375.813" y="504.5" opacity="0.02" fill="none" stroke="#FFFFFF" stroke-miterlimit="10" width="29" height="18" />
        <rect x="404.813" y="504.5" opacity="0.02" fill="none" stroke="#FFFFFF" stroke-miterlimit="10" width="28" height="18" />
        <rect x="432.813" y="504.5" opacity="0.02" fill="none" stroke="#FFFFFF" stroke-miterlimit="10" width="29" height="18" />
        <rect x="461.813" y="504.5" opacity="0.02" fill="none" stroke="#FFFFFF" stroke-miterlimit="10" width="29" height="18" />
        <rect x="490.813" y="504.5" opacity="0.02" fill="none" stroke="#FFFFFF" stroke-miterlimit="10" width="29" height="18" />
        <rect x="519.813" y="504.5" opacity="0.02" fill="none" stroke="#FFFFFF" stroke-miterlimit="10" width="29" height="18" />
        <rect x="548.813" y="504.5" opacity="0.02" fill="none" stroke="#FFFFFF" stroke-miterlimit="10" width="28" height="18" />
        <rect x="576.813" y="504.5" opacity="0.02" fill="none" stroke="#FFFFFF" stroke-miterlimit="10" width="29" height="18" />
        <rect x="605.813" y="504.5" opacity="0.02" fill="none" stroke="#FFFFFF" stroke-miterlimit="10" width="29" height="18" />
        <rect x="634.813" y="504.5" opacity="0.02" fill="none" stroke="#FFFFFF" stroke-miterlimit="10" width="29" height="18" />
        <rect x="663.813" y="504.5" opacity="0.02" fill="none" stroke="#FFFFFF" stroke-miterlimit="10" width="29" height="18" />
        <rect x="692.813" y="504.5" opacity="0.02" fill="none" stroke="#FFFFFF" stroke-miterlimit="10" width="28" height="18" />
        <rect x="95.813" y="522.5" opacity="0.02" fill="none" stroke="#FFFFFF" stroke-miterlimit="10" width="21" height="18" />
        <rect x="116.813" y="522.5" opacity="0.02" fill="none" stroke="#FFFFFF" stroke-miterlimit="10" width="28" height="18" />
        <rect x="144.813" y="522.5" opacity="0.02" fill="none" stroke="#FFFFFF" stroke-miterlimit="10" width="29" height="18" />
        <rect x="173.813" y="522.5" opacity="0.02" fill="none" stroke="#FFFFFF" stroke-miterlimit="10" width="29" height="18" />
        <rect x="202.813" y="522.5" opacity="0.02" fill="none" stroke="#FFFFFF" stroke-miterlimit="10" width="29" height="18" />
        <rect x="231.813" y="522.5" opacity="0.02" fill="none" stroke="#FFFFFF" stroke-miterlimit="10" width="29" height="18" />
        <rect x="260.813" y="522.5" opacity="0.02" fill="none" stroke="#FFFFFF" stroke-miterlimit="10" width="28" height="18" />
        <rect x="288.813" y="522.5" opacity="0.02" fill="none" stroke="#FFFFFF" stroke-miterlimit="10" width="29" height="18" />
        <rect x="317.813" y="522.5" opacity="0.02" fill="none" stroke="#FFFFFF" stroke-miterlimit="10" width="29" height="18" />
        <rect x="346.813" y="522.5" opacity="0.02" fill="none" stroke="#FFFFFF" stroke-miterlimit="10" width="29" height="18" />
        <rect x="375.813" y="522.5" opacity="0.02" fill="none" stroke="#FFFFFF" stroke-miterlimit="10" width="29" height="18" />
        <rect x="404.813" y="522.5" opacity="0.02" fill="none" stroke="#FFFFFF" stroke-miterlimit="10" width="28" height="18" />
        <rect x="432.813" y="522.5" opacity="0.02" fill="none" stroke="#FFFFFF" stroke-miterlimit="10" width="29" height="18" />
        <rect x="461.813" y="522.5" opacity="0.02" fill="none" stroke="#FFFFFF" stroke-miterlimit="10" width="29" height="18" />
        <rect x="490.813" y="522.5" opacity="0.02" fill="none" stroke="#FFFFFF" stroke-miterlimit="10" width="29" height="18" />
        <rect x="519.813" y="522.5" opacity="0.02" fill="none" stroke="#FFFFFF" stroke-miterlimit="10" width="29" height="18" />
        <rect x="548.813" y="522.5" opacity="0.02" fill="none" stroke="#FFFFFF" stroke-miterlimit="10" width="28" height="18" />
        <rect x="576.813" y="522.5" opacity="0.02" fill="none" stroke="#FFFFFF" stroke-miterlimit="10" width="29" height="18" />
        <rect x="605.813" y="522.5" opacity="0.02" fill="none" stroke="#FFFFFF" stroke-miterlimit="10" width="29" height="18" />
        <rect x="634.813" y="522.5" opacity="0.02" fill="none" stroke="#FFFFFF" stroke-miterlimit="10" width="29" height="18" />
        <rect x="663.813" y="522.5" opacity="0.02" fill="none" stroke="#FFFFFF" stroke-miterlimit="10" width="29" height="18" />
        <rect x="692.813" y="522.5" opacity="0.02" fill="none" stroke="#FFFFFF" stroke-miterlimit="10" width="28" height="18" />
        <rect x="95.813" y="540.5" opacity="0.02" fill="none" stroke="#FFFFFF" stroke-miterlimit="10" width="21" height="18" />
        <rect x="116.813" y="540.5" opacity="0.02" fill="none" stroke="#FFFFFF" stroke-miterlimit="10" width="28" height="18" />
        <rect x="144.813" y="540.5" opacity="0.02" fill="none" stroke="#FFFFFF" stroke-miterlimit="10" width="29" height="18" />
        <rect x="173.813" y="540.5" opacity="0.02" fill="none" stroke="#FFFFFF" stroke-miterlimit="10" width="29" height="18" />
        <rect x="202.813" y="540.5" opacity="0.02" fill="none" stroke="#FFFFFF" stroke-miterlimit="10" width="29" height="18" />
        <rect x="231.813" y="540.5" opacity="0.02" fill="none" stroke="#FFFFFF" stroke-miterlimit="10" width="29" height="18" />
        <rect x="260.813" y="540.5" opacity="0.02" fill="none" stroke="#FFFFFF" stroke-miterlimit="10" width="28" height="18" />
        <rect x="288.813" y="540.5" opacity="0.02" fill="none" stroke="#FFFFFF" stroke-miterlimit="10" width="29" height="18" />
        <rect x="317.813" y="540.5" opacity="0.02" fill="none" stroke="#FFFFFF" stroke-miterlimit="10" width="29" height="18" />
        <rect x="346.813" y="540.5" opacity="0.02" fill="none" stroke="#FFFFFF" stroke-miterlimit="10" width="29" height="18" />
        <rect x="375.813" y="540.5" opacity="0.02" fill="none" stroke="#FFFFFF" stroke-miterlimit="10" width="29" height="18" />
        <rect x="404.813" y="540.5" opacity="0.02" fill="none" stroke="#FFFFFF" stroke-miterlimit="10" width="28" height="18" />
        <rect x="432.813" y="540.5" opacity="0.02" fill="none" stroke="#FFFFFF" stroke-miterlimit="10" width="29" height="18" />
        <rect x="461.813" y="540.5" opacity="0.02" fill="none" stroke="#FFFFFF" stroke-miterlimit="10" width="29" height="18" />
        <rect x="490.813" y="540.5" opacity="0.02" fill="none" stroke="#FFFFFF" stroke-miterlimit="10" width="29" height="18" />
        <rect x="519.813" y="540.5" opacity="0.02" fill="none" stroke="#FFFFFF" stroke-miterlimit="10" width="29" height="18" />
        <rect x="548.813" y="540.5" opacity="0.02" fill="none" stroke="#FFFFFF" stroke-miterlimit="10" width="28" height="18" />
        <rect x="576.813" y="540.5" opacity="0.02" fill="none" stroke="#FFFFFF" stroke-miterlimit="10" width="29" height="18" />
        <rect x="605.813" y="540.5" opacity="0.02" fill="none" stroke="#FFFFFF" stroke-miterlimit="10" width="29" height="18" />
        <rect x="634.813" y="540.5" opacity="0.02" fill="none" stroke="#FFFFFF" stroke-miterlimit="10" width="29" height="18" />
        <rect x="663.813" y="540.5" opacity="0.02" fill="none" stroke="#FFFFFF" stroke-miterlimit="10" width="29" height="18" />
        <rect x="692.813" y="540.5" opacity="0.02" fill="none" stroke="#FFFFFF" stroke-miterlimit="10" width="28" height="18" />
        <rect x="95.813" y="558.5" opacity="0.02" fill="none" stroke="#FFFFFF" stroke-miterlimit="10" width="21" height="18" />
        <rect x="116.813" y="558.5" opacity="0.02" fill="none" stroke="#FFFFFF" stroke-miterlimit="10" width="28" height="18" />
        <rect x="144.813" y="558.5" opacity="0.02" fill="none" stroke="#FFFFFF" stroke-miterlimit="10" width="29" height="18" />
        <rect x="173.813" y="558.5" opacity="0.02" fill="none" stroke="#FFFFFF" stroke-miterlimit="10" width="29" height="18" />
        <rect x="202.813" y="558.5" opacity="0.02" fill="none" stroke="#FFFFFF" stroke-miterlimit="10" width="29" height="18" />
        <rect x="231.813" y="558.5" opacity="0.02" fill="none" stroke="#FFFFFF" stroke-miterlimit="10" width="29" height="18" />
        <rect x="260.813" y="558.5" opacity="0.02" fill="none" stroke="#FFFFFF" stroke-miterlimit="10" width="28" height="18" />
        <rect x="288.813" y="558.5" opacity="0.02" fill="none" stroke="#FFFFFF" stroke-miterlimit="10" width="29" height="18" />
        <rect x="317.813" y="558.5" opacity="0.02" fill="none" stroke="#FFFFFF" stroke-miterlimit="10" width="29" height="18" />
        <rect x="346.813" y="558.5" opacity="0.02" fill="none" stroke="#FFFFFF" stroke-miterlimit="10" width="29" height="18" />
        <rect x="375.813" y="558.5" opacity="0.02" fill="none" stroke="#FFFFFF" stroke-miterlimit="10" width="29" height="18" />
        <rect x="404.813" y="558.5" opacity="0.02" fill="none" stroke="#FFFFFF" stroke-miterlimit="10" width="28" height="18" />
        <rect x="432.813" y="558.5" opacity="0.02" fill="none" stroke="#FFFFFF" stroke-miterlimit="10" width="29" height="18" />
        <rect x="461.813" y="558.5" opacity="0.02" fill="none" stroke="#FFFFFF" stroke-miterlimit="10" width="29" height="18" />
        <rect x="490.813" y="558.5" opacity="0.02" fill="none" stroke="#FFFFFF" stroke-miterlimit="10" width="29" height="18" />
        <rect x="519.813" y="558.5" opacity="0.02" fill="none" stroke="#FFFFFF" stroke-miterlimit="10" width="29" height="18" />
        <rect x="548.813" y="558.5" opacity="0.02" fill="none" stroke="#FFFFFF" stroke-miterlimit="10" width="28" height="18" />
        <rect x="576.813" y="558.5" opacity="0.02" fill="none" stroke="#FFFFFF" stroke-miterlimit="10" width="29" height="18" />
        <rect x="605.813" y="558.5" opacity="0.02" fill="none" stroke="#FFFFFF" stroke-miterlimit="10" width="29" height="18" />
        <rect x="634.813" y="558.5" opacity="0.02" fill="none" stroke="#FFFFFF" stroke-miterlimit="10" width="29" height="18" />
        <rect x="663.813" y="558.5" opacity="0.02" fill="none" stroke="#FFFFFF" stroke-miterlimit="10" width="29" height="18" />
        <rect x="692.813" y="558.5" opacity="0.02" fill="none" stroke="#FFFFFF" stroke-miterlimit="10" width="28" height="18" />
        <rect x="95.813" y="576.5" opacity="0.02" fill="none" stroke="#FFFFFF" stroke-miterlimit="10" width="21" height="18" />
        <rect x="116.813" y="576.5" opacity="0.02" fill="none" stroke="#FFFFFF" stroke-miterlimit="10" width="28" height="18" />
        <rect x="144.813" y="576.5" opacity="0.02" fill="none" stroke="#FFFFFF" stroke-miterlimit="10" width="29" height="18" />
        <rect x="173.813" y="576.5" opacity="0.02" fill="none" stroke="#FFFFFF" stroke-miterlimit="10" width="29" height="18" />
        <rect x="202.813" y="576.5" opacity="0.02" fill="none" stroke="#FFFFFF" stroke-miterlimit="10" width="29" height="18" />
        <rect x="231.813" y="576.5" opacity="0.02" fill="none" stroke="#FFFFFF" stroke-miterlimit="10" width="29" height="18" />
        <rect x="260.813" y="576.5" opacity="0.02" fill="none" stroke="#FFFFFF" stroke-miterlimit="10" width="28" height="18" />
        <rect x="288.813" y="576.5" opacity="0.02" fill="none" stroke="#FFFFFF" stroke-miterlimit="10" width="29" height="18" />
        <rect x="317.813" y="576.5" opacity="0.02" fill="none" stroke="#FFFFFF" stroke-miterlimit="10" width="29" height="18" />
        <rect x="346.813" y="576.5" opacity="0.02" fill="none" stroke="#FFFFFF" stroke-miterlimit="10" width="29" height="18" />
        <rect x="375.813" y="576.5" opacity="0.02" fill="none" stroke="#FFFFFF" stroke-miterlimit="10" width="29" height="18" />
        <rect x="404.813" y="576.5" opacity="0.02" fill="none" stroke="#FFFFFF" stroke-miterlimit="10" width="28" height="18" />
        <rect x="432.813" y="576.5" opacity="0.02" fill="none" stroke="#FFFFFF" stroke-miterlimit="10" width="29" height="18" />
        <rect x="461.813" y="576.5" opacity="0.02" fill="none" stroke="#FFFFFF" stroke-miterlimit="10" width="29" height="18" />
        <rect x="490.813" y="576.5" opacity="0.02" fill="none" stroke="#FFFFFF" stroke-miterlimit="10" width="29" height="18" />
        <rect x="519.813" y="576.5" opacity="0.02" fill="none" stroke="#FFFFFF" stroke-miterlimit="10" width="29" height="18" />
        <rect x="548.813" y="576.5" opacity="0.02" fill="none" stroke="#FFFFFF" stroke-miterlimit="10" width="28" height="18" />
        <rect x="576.813" y="576.5" opacity="0.02" fill="none" stroke="#FFFFFF" stroke-miterlimit="10" width="29" height="18" />
        <rect x="605.813" y="576.5" opacity="0.02" fill="none" stroke="#FFFFFF" stroke-miterlimit="10" width="29" height="18" />
        <rect x="634.813" y="576.5" opacity="0.02" fill="none" stroke="#FFFFFF" stroke-miterlimit="10" width="29" height="18" />
        <rect x="663.813" y="576.5" opacity="0.02" fill="none" stroke="#FFFFFF" stroke-miterlimit="10" width="29" height="18" />
        <rect x="692.813" y="576.5" opacity="0.02" fill="none" stroke="#FFFFFF" stroke-miterlimit="10" width="28" height="18" />
        <rect x="720.813" y="162.5" opacity="0.02" fill="none" stroke="#FFFFFF" stroke-miterlimit="10" width="21" height="18" />
        <rect x="720.813" y="180.5" opacity="0.02" fill="none" stroke="#FFFFFF" stroke-miterlimit="10" width="21" height="18" />
        <rect x="720.813" y="198.5" opacity="0.02" fill="none" stroke="#FFFFFF" stroke-miterlimit="10" width="21" height="18" />
        <rect x="720.813" y="216.5" opacity="0.02" fill="none" stroke="#FFFFFF" stroke-miterlimit="10" width="21" height="18" />
        <rect x="720.813" y="234.5" opacity="0.02" fill="none" stroke="#FFFFFF" stroke-miterlimit="10" width="21" height="18" />
        <rect x="720.813" y="252.5" opacity="0.02" fill="none" stroke="#FFFFFF" stroke-miterlimit="10" width="21" height="18" />
        <rect x="720.813" y="270.5" opacity="0.02" fill="none" stroke="#FFFFFF" stroke-miterlimit="10" width="21" height="18" />
        <rect x="720.813" y="288.5" opacity="0.02" fill="none" stroke="#FFFFFF" stroke-miterlimit="10" width="21" height="18" />
        <rect x="720.813" y="306.5" opacity="0.02" fill="none" stroke="#FFFFFF" stroke-miterlimit="10" width="21" height="18" />
        <rect x="720.813" y="324.5" opacity="0.02" fill="none" stroke="#FFFFFF" stroke-miterlimit="10" width="21" height="18" />
        <rect x="720.813" y="342.5" opacity="0.02" fill="none" stroke="#FFFFFF" stroke-miterlimit="10" width="21" height="18" />
        <rect x="720.813" y="360.5" opacity="0.02" fill="none" stroke="#FFFFFF" stroke-miterlimit="10" width="21" height="18" />
        <rect x="720.813" y="378.5" opacity="0.02" fill="none" stroke="#FFFFFF" stroke-miterlimit="10" width="21" height="18" />
        <rect x="720.813" y="396.5" opacity="0.02" fill="none" stroke="#FFFFFF" stroke-miterlimit="10" width="21" height="18" />
        <rect x="720.813" y="414.5" opacity="0.02" fill="none" stroke="#FFFFFF" stroke-miterlimit="10" width="21" height="18" />
        <rect x="720.813" y="432.5" opacity="0.02" fill="none" stroke="#FFFFFF" stroke-miterlimit="10" width="21" height="18" />
        <rect x="720.813" y="450.5" opacity="0.02" fill="none" stroke="#FFFFFF" stroke-miterlimit="10" width="21" height="18" />
        <rect x="720.813" y="468.5" opacity="0.02" fill="none" stroke="#FFFFFF" stroke-miterlimit="10" width="21" height="18" />
        <rect x="720.813" y="486.5" opacity="0.02" fill="none" stroke="#FFFFFF" stroke-miterlimit="10" width="21" height="18" />
        <rect x="720.813" y="504.5" opacity="0.02" fill="none" stroke="#FFFFFF" stroke-miterlimit="10" width="21" height="18" />
        <rect x="720.813" y="522.5" opacity="0.02" fill="none" stroke="#FFFFFF" stroke-miterlimit="10" width="21" height="18" />
        <rect x="720.813" y="540.5" opacity="0.02" fill="none" stroke="#FFFFFF" stroke-miterlimit="10" width="21" height="18" />
        <rect x="720.813" y="558.5" opacity="0.02" fill="none" stroke="#FFFFFF" stroke-miterlimit="10" width="21" height="18" />
        <rect x="720.813" y="576.5" opacity="0.02" fill="none" stroke="#FFFFFF" stroke-miterlimit="10" width="21" height="18" />
        <rect x="95.813" y="594.5" opacity="0.02" fill="none" stroke="#FFFFFF" stroke-miterlimit="10" width="21" height="9" />
        <rect x="116.813" y="594.5" opacity="0.02" fill="none" stroke="#FFFFFF" stroke-miterlimit="10" width="28" height="9" />
        <rect x="144.813" y="594.5" opacity="0.02" fill="none" stroke="#FFFFFF" stroke-miterlimit="10" width="29" height="9" />
        <rect x="173.813" y="594.5" opacity="0.02" fill="none" stroke="#FFFFFF" stroke-miterlimit="10" width="29" height="9" />
        <rect x="202.813" y="594.5" opacity="0.02" fill="none" stroke="#FFFFFF" stroke-miterlimit="10" width="29" height="9" />
        <rect x="231.813" y="594.5" opacity="0.02" fill="none" stroke="#FFFFFF" stroke-miterlimit="10" width="29" height="9" />
        <rect x="260.813" y="594.5" opacity="0.02" fill="none" stroke="#FFFFFF" stroke-miterlimit="10" width="28" height="9" />
        <rect x="288.813" y="594.5" opacity="0.02" fill="none" stroke="#FFFFFF" stroke-miterlimit="10" width="29" height="9" />
        <rect x="317.813" y="594.5" opacity="0.02" fill="none" stroke="#FFFFFF" stroke-miterlimit="10" width="29" height="9" />
        <rect x="346.813" y="594.5" opacity="0.02" fill="none" stroke="#FFFFFF" stroke-miterlimit="10" width="29" height="9" />
        <rect x="375.813" y="594.5" opacity="0.02" fill="none" stroke="#FFFFFF" stroke-miterlimit="10" width="29" height="9" />
        <rect x="404.813" y="594.5" opacity="0.02" fill="none" stroke="#FFFFFF" stroke-miterlimit="10" width="28" height="9" />
        <rect x="432.813" y="594.5" opacity="0.02" fill="none" stroke="#FFFFFF" stroke-miterlimit="10" width="29" height="9" />
        <rect x="461.813" y="594.5" opacity="0.02" fill="none" stroke="#FFFFFF" stroke-miterlimit="10" width="29" height="9" />
        <rect x="490.813" y="594.5" opacity="0.02" fill="none" stroke="#FFFFFF" stroke-miterlimit="10" width="29" height="9" />
        <rect x="519.813" y="594.5" opacity="0.02" fill="none" stroke="#FFFFFF" stroke-miterlimit="10" width="29" height="9" />
        <rect x="548.813" y="594.5" opacity="0.02" fill="none" stroke="#FFFFFF" stroke-miterlimit="10" width="28" height="9" />
        <rect x="576.813" y="594.5" opacity="0.02" fill="none" stroke="#FFFFFF" stroke-miterlimit="10" width="29" height="9" />
        <rect x="605.813" y="594.5" opacity="0.02" fill="none" stroke="#FFFFFF" stroke-miterlimit="10" width="29" height="9" />
        <rect x="634.813" y="594.5" opacity="0.02" fill="none" stroke="#FFFFFF" stroke-miterlimit="10" width="29" height="9" />
        <rect x="663.813" y="594.5" opacity="0.02" fill="none" stroke="#FFFFFF" stroke-miterlimit="10" width="29" height="9" />
        <rect x="692.813" y="594.5" opacity="0.02" fill="none" stroke="#FFFFFF" stroke-miterlimit="10" width="28" height="9" />
        <rect x="720.813" y="594.5" opacity="0.02" fill="none" stroke="#FFFFFF" stroke-miterlimit="10" width="21" height="9" />
        <rect x="720.813" y="144.5" opacity="0.02" fill="none" stroke="#FFFFFF" stroke-miterlimit="10" width="21" height="18" />
    </g>
</svg>
