<?xml version="1.0" encoding="UTF-8"?>
<!DOCTYPE xmeml>
<xmeml version="5">
<sequence id="Binx 004 synced">
	<uuid>3CEE106C-BE65-464C-B151-40D1653469BB</uuid>
	<updatebehavior>add</updatebehavior>
	<name>Binx 004 synced</name>
	<duration>61081</duration>
	<rate>
		<ntsc>TRUE</ntsc>
		<timebase>24</timebase>
	</rate>
	<timecode>
		<rate>
			<ntsc>TRUE</ntsc>
			<timebase>24</timebase>
		</rate>
		<string>01:00:00:00</string>
		<frame>86400</frame>
		<source>source</source>
		<displayformat>NDF</displayformat>
	</timecode>
	<in>-1</in>
	<out>61082</out>
	<media>
		<video>
			<format>
				<samplecharacteristics>
					<width>1920</width>
					<height>1080</height>
					<anamorphic>FALSE</anamorphic>
					<pixelaspectratio>Square</pixelaspectratio>
					<fielddominance>none</fielddominance>
					<rate>
						<ntsc>TRUE</ntsc>
						<timebase>24</timebase>
					</rate>
					<colordepth>24</colordepth>
					<codec>
						<name>Apple ProRes 422</name>
						<appspecificdata>
							<appname>Final Cut Pro</appname>
							<appmanufacturer>Apple Inc.</appmanufacturer>
							<appversion>7.0</appversion>
							<data>
								<qtcodec>
									<codecname>Apple ProRes 422</codecname>
									<codectypename>Apple ProRes 422</codectypename>
									<codectypecode>apcn</codectypecode>
									<codecvendorcode>appl</codecvendorcode>
									<spatialquality>1024</spatialquality>
									<temporalquality>0</temporalquality>
									<keyframerate>0</keyframerate>
									<datarate>0</datarate>
								</qtcodec>
							</data>
						</appspecificdata>
					</codec>
				</samplecharacteristics>
				<appspecificdata>
					<appname>Final Cut Pro</appname>
					<appmanufacturer>Apple Inc.</appmanufacturer>
					<appversion>7.0</appversion>
					<data>
						<fcpimageprocessing>
							<useyuv>TRUE</useyuv>
							<usesuperwhite>FALSE</usesuperwhite>
							<rendermode>Float10BPP</rendermode>
						</fcpimageprocessing>
					</data>
				</appspecificdata>
			</format>
			<track>
				<clipitem id="MVI_3814 ">
					<name>MVI_3814</name>
					<duration>13333</duration>
					<rate>
						<ntsc>TRUE</ntsc>
						<timebase>24</timebase>
					</rate>
					<in>0</in>
					<out>13333</out>
					<start>0</start>
					<end>13333</end>
					<pixelaspectratio>Square</pixelaspectratio>
					<anamorphic>FALSE</anamorphic>
					<alphatype>none</alphatype>
					<logginginfo>
						<scene/>
						<shottake/>
						<lognote/>
						<good>FALSE</good>
					</logginginfo>
					<labels>
						<label2/>
					</labels>
					<comments>
						<mastercomment1/>
						<mastercomment2/>
						<mastercomment3/>
						<mastercomment4/>
					</comments>
					<file id="MVI_3814 1">
						<name>MVI_3814.mov</name>
						<pathurl>file://localhost/Volumes/Nebula/MediaPackages/Binx/Binx_v2_1/color/MVI_3814.mov</pathurl>
						<rate>
							<timebase>24</timebase>
							<ntsc>TRUE</ntsc>
						</rate>
						<duration>13333</duration>
						<media>
							<video>
								<duration>13333</duration>
								<samplecharacteristics>
									<width>1920</width>
									<height>1080</height>
								</samplecharacteristics>
							</video>
							<audio>
								<samplecharacteristics>
									<samplerate>48000</samplerate>
									<depth>16</depth>
								</samplecharacteristics>
								<channelcount>2</channelcount>
							</audio>
						</media>
					</file>
					<marker>
						<name>actually interesting</name>
						<comment>data, data visualization,data,surprise,revelation,visualization</comment>
						<color>
							<alpha>0</alpha>
							<red>255</red>
							<green>0</green>
							<blue>0</blue>
						</color>
						<in>2269</in>
						<out>2746</out>
					</marker>
					<marker>
						<name>tool for others</name>
						<comment>participation,tools,social engagment,gift,people</comment>
						<color>
							<alpha>0</alpha>
							<red>255</red>
							<green>0</green>
							<blue>0</blue>
						</color>
						<in>3009</in>
						<out>3406</out>
					</marker>
					<marker>
						<name>trips</name>
						<comment>memory,data visualization,data ownership,souvenir, travel, personal, emotion, nostalgia</comment>
						<color>
							<alpha>0</alpha>
							<red>255</red>
							<green>0</green>
							<blue>0</blue>
						</color>
						<in>3443</in>
						<out>3989</out>
					</marker>
					<marker>
						<name>making things</name>
						<comment>physicality,3d printing,making things</comment>
						<color>
							<alpha>0</alpha>
							<red>255</red>
							<green>0</green>
							<blue>0</blue>
						</color>
						<in>4294</in>
						<out>5122</out>
					</marker>
					<marker>
						<name>frustrated about visualization</name>
						<comment>visualization,crisis,frustration,communication,complexity, career</comment>
						<color>
							<alpha>0</alpha>
							<red>255</red>
							<green>0</green>
							<blue>0</blue>
						</color>
						<in>6929</in>
						<out>7549</out>
					</marker>
					<marker>
						<name>digestibility</name>
						<comment>complexity,confusion,visualization,visual storytelling,communication,education,social engagment,society,public</comment>
						<color>
							<alpha>0</alpha>
							<red>255</red>
							<green>0</green>
							<blue>0</blue>
						</color>
						<in>9803</in>
						<out>10118</out>
					</marker>
					<marker>
						<name>tools for storytelling</name>
						<comment>people,storytelling,participation,social engagment,gift,tools</comment>
						<color>
							<alpha>0</alpha>
							<red>255</red>
							<green>0</green>
							<blue>0</blue>
						</color>
						<in>11403</in>
						<out>12363</out>
					</marker>
					<filter>
						<enabled>TRUE</enabled>
						<start>-1</start>
						<end>-1</end>
						<effect>
							<name>RGB Balance</name>
							<effectid>RGB Balance</effectid>
							<effectcategory>Color Correction</effectcategory>
							<effecttype>filter</effecttype>
							<mediatype>video</mediatype>
							<parameter>
								<parameterid>label1</parameterid>
								<name>Reds</name>
								<value/>
							</parameter>
							<parameter>
								<parameterid>rhighlights</parameterid>
								<name>Highlights</name>
								<valuemin>64</valuemin>
								<valuemax>509</valuemax>
								<value>226</value>
							</parameter>
							<parameter>
								<parameterid>rgamma</parameterid>
								<name>Midtones</name>
								<valuemin>0</valuemin>
								<valuemax>200</valuemax>
								<value>94</value>
							</parameter>
							<parameter>
								<parameterid>rblacklevel</parameterid>
								<name>Blacks</name>
								<valuemin>-196</valuemin>
								<valuemax>254</valuemax>
								<value>0</value>
							</parameter>
							<parameter>
								<parameterid>label2</parameterid>
								<name>Greens</name>
								<value/>
							</parameter>
							<parameter>
								<parameterid>ghighlights</parameterid>
								<name>Highlights</name>
								<valuemin>64</valuemin>
								<valuemax>509</valuemax>
								<value>260</value>
							</parameter>
							<parameter>
								<parameterid>ggamma</parameterid>
								<name>Midtones</name>
								<valuemin>0</valuemin>
								<valuemax>200</valuemax>
								<value>100</value>
							</parameter>
							<parameter>
								<parameterid>gblacklevel</parameterid>
								<name>Blacks</name>
								<valuemin>-196</valuemin>
								<valuemax>254</valuemax>
								<value>0</value>
							</parameter>
							<parameter>
								<parameterid>label3</parameterid>
								<name>Blues</name>
								<value/>
							</parameter>
							<parameter>
								<parameterid>bhighlights</parameterid>
								<name>Highlights</name>
								<valuemin>64</valuemin>
								<valuemax>509</valuemax>
								<value>255</value>
							</parameter>
							<parameter>
								<parameterid>bgamma</parameterid>
								<name>Midtones</name>
								<valuemin>0</valuemin>
								<valuemax>200</valuemax>
								<value>104</value>
							</parameter>
							<parameter>
								<parameterid>bblacklevel</parameterid>
								<name>Blacks</name>
								<valuemin>-196</valuemin>
								<valuemax>254</valuemax>
								<value>0</value>
							</parameter>
						</effect>
					</filter>
					<filter>
						<enabled>TRUE</enabled>
						<start>-1</start>
						<end>-1</end>
						<effect>
							<name>Color Corrector</name>
							<effectid>Color Corrector</effectid>
							<effectcategory>Color Correction</effectcategory>
							<effecttype>filter</effecttype>
							<mediatype>video</mediatype>
							<parameter>
								<parameterid>dispmode</parameterid>
								<name>Display Mode</name>
								<valuemin>1</valuemin>
								<valuemax>3</valuemax>
								<valuelist>
									<valueentry>
										<name>Final</name>
										<value>1</value>
									</valueentry>
									<valueentry>
										<name>Matte</name>
										<value>2</value>
									</valueentry>
									<valueentry>
										<name>Source</name>
										<value>3</value>
									</valueentry>
								</valuelist>
								<value>1</value>
							</parameter>
							<parameter>
								<parameterid>label1</parameterid>
								<name>Level Controls</name>
								<value/>
							</parameter>
							<parameter>
								<parameterid>highlights</parameterid>
								<name>Highlights</name>
								<valuemin>64</valuemin>
								<valuemax>509</valuemax>
								<value>257</value>
							</parameter>
							<parameter>
								<parameterid>mids</parameterid>
								<name>Mids</name>
								<valuemin>0</valuemin>
								<valuemax>200</valuemax>
								<value>104</value>
							</parameter>
							<parameter>
								<parameterid>blacklevel</parameterid>
								<name>Blacks</name>
								<valuemin>-196</valuemin>
								<valuemax>254</valuemax>
								<value>-6</value>
							</parameter>
							<parameter>
								<parameterid>label2</parameterid>
								<name>Color Balance</name>
								<value/>
							</parameter>
							<parameter>
								<parameterid>hue</parameterid>
								<name>Angle</name>
								<valuemin>-180</valuemin>
								<valuemax>180</valuemax>
								<value>-33</value>
							</parameter>
							<parameter>
								<parameterid>mag</parameterid>
								<name>Magnitude</name>
								<valuemin>0</valuemin>
								<valuemax>200</valuemax>
								<value>0</value>
							</parameter>
							<parameter>
								<parameterid>label4</parameterid>
								<name>Color Controls</name>
								<value/>
							</parameter>
							<parameter>
								<parameterid>chroma</parameterid>
								<name>Saturation</name>
								<valuemin>0</valuemin>
								<valuemax>200</valuemax>
								<value>100</value>
							</parameter>
							<parameter>
								<parameterid>phase</parameterid>
								<name>Phase shift</name>
								<valuemin>-180</valuemin>
								<valuemax>180</valuemax>
								<value>0</value>
							</parameter>
							<parameter>
								<parameterid>label5</parameterid>
								<name>Limit Effect Controls</name>
								<value/>
							</parameter>
							<parameter>
								<parameterid>dochroma</parameterid>
								<name>Limit on Chroma</name>
								<value>FALSE</value>
							</parameter>
							<parameter>
								<parameterid>centerang</parameterid>
								<name>Chroma Center</name>
								<valuemin>-760</valuemin>
								<valuemax>760</valuemax>
								<value>-110</value>
							</parameter>
							<parameter>
								<parameterid>chromawidth</parameterid>
								<name>Chroma Width</name>
								<valuemin>0</valuemin>
								<valuemax>360</valuemax>
								<value>15</value>
							</parameter>
							<parameter>
								<parameterid>chromasoft</parameterid>
								<name>Chroma Softness</name>
								<valuemin>0</valuemin>
								<valuemax>180</valuemax>
								<value>10</value>
							</parameter>
							<parameter>
								<parameterid>dosat</parameterid>
								<name>Limit on Saturation</name>
								<value>FALSE</value>
							</parameter>
							<parameter>
								<parameterid>satmin</parameterid>
								<name>Sat. Minimum</name>
								<valuemin>0</valuemin>
								<valuemax>125</valuemax>
								<value>35</value>
							</parameter>
							<parameter>
								<parameterid>satwidth</parameterid>
								<name>Sat. Width</name>
								<valuemin>0</valuemin>
								<valuemax>125</valuemax>
								<value>40</value>
							</parameter>
							<parameter>
								<parameterid>satsoft</parameterid>
								<name>Sat. Softness</name>
								<valuemin>0</valuemin>
								<valuemax>125</valuemax>
								<value>20</value>
							</parameter>
							<parameter>
								<parameterid>doluma</parameterid>
								<name>Limit on Luma</name>
								<value>FALSE</value>
							</parameter>
							<parameter>
								<parameterid>lumamin</parameterid>
								<name>Luma Minimum</name>
								<valuemin>0</valuemin>
								<valuemax>120</valuemax>
								<value>0</value>
							</parameter>
							<parameter>
								<parameterid>lumawidth</parameterid>
								<name>Luma Width</name>
								<valuemin>0</valuemin>
								<valuemax>120</valuemax>
								<value>40</value>
							</parameter>
							<parameter>
								<parameterid>lumasoft</parameterid>
								<name>Luma Softness</name>
								<valuemin>0</valuemin>
								<valuemax>120</valuemax>
								<value>20</value>
							</parameter>
							<parameter>
								<parameterid>label6</parameterid>
								<name>Edge Control</name>
								<value/>
							</parameter>
							<parameter>
								<parameterid>edgethin</parameterid>
								<name>Thin/Spread</name>
								<valuemin>-100</valuemin>
								<valuemax>100</valuemax>
								<value>0</value>
							</parameter>
							<parameter>
								<parameterid>edgefeather</parameterid>
								<name>Softening</name>
								<valuemin>0</valuemin>
								<valuemax>100</valuemax>
								<value>0</value>
							</parameter>
							<parameter>
								<parameterid>label7</parameterid>
								<name>Mask Control</name>
								<value/>
							</parameter>
							<parameter>
								<parameterid>invertsel</parameterid>
								<name>Invert</name>
								<value>FALSE</value>
							</parameter>
							<parameter>
								<parameterid>debugshow</parameterid>
								<name>Show Stats</name>
								<value>FALSE</value>
							</parameter>
						</effect>
					</filter>
					<sourcetrack>
						<mediatype>video</mediatype>
					</sourcetrack>
					<link>
						<linkclipref>MVI_3814 </linkclipref>
						<mediatype>video</mediatype>
						<trackindex>1</trackindex>
						<clipindex>1</clipindex>
					</link>
					<link>
						<linkclipref>MVI_3814 2</linkclipref>
						<mediatype>audio</mediatype>
						<trackindex>1</trackindex>
						<clipindex>1</clipindex>
						<groupindex>1</groupindex>
					</link>
					<link>
						<linkclipref>MVI_3814 3</linkclipref>
						<mediatype>audio</mediatype>
						<trackindex>2</trackindex>
						<clipindex>1</clipindex>
						<groupindex>1</groupindex>
					</link>
					<fielddominance>none</fielddominance>
					<itemhistory>
						<uuid>E97419DC-5B1A-4C23-8EDE-31D37C068DCF</uuid>
						<uuid>7B8C16B4-9FA1-45E1-8715-43E5D9EDC00C</uuid>
					</itemhistory>
				</clipitem>
				<clipitem id="MVI_3815 ">
					<name>MVI_3815</name>
					<duration>17472</duration>
					<rate>
						<ntsc>TRUE</ntsc>
						<timebase>24</timebase>
					</rate>
					<in>0</in>
					<out>17472</out>
					<start>13333</start>
					<end>30805</end>
					<pixelaspectratio>Square</pixelaspectratio>
					<enabled>TRUE</enabled>
					<anamorphic>FALSE</anamorphic>
					<alphatype>none</alphatype>
					<logginginfo>
						<scene/>
						<shottake/>
						<lognote/>
						<good>FALSE</good>
					</logginginfo>
					<labels>
						<label2/>
					</labels>
					<comments>
						<mastercomment1/>
						<mastercomment2/>
						<mastercomment3/>
						<mastercomment4/>
					</comments>
					<file id="MVI_3815 1">
						<name>MVI_3815.mov</name>
						<pathurl>file://localhost/Volumes/Nebula/MediaPackages/Binx/Binx_v2_2/color/MVI_3815.mov</pathurl>
						<rate>
							<timebase>24</timebase>
							<ntsc>TRUE</ntsc>
						</rate>
						<duration>17472</duration>
						<media>
							<video>
								<duration>17472</duration>
								<samplecharacteristics>
									<width>1920</width>
									<height>1080</height>
								</samplecharacteristics>
							</video>
							<audio>
								<samplecharacteristics>
									<samplerate>48000</samplerate>
									<depth>16</depth>
								</samplecharacteristics>
								<channelcount>2</channelcount>
							</audio>
						</media>
					</file>
					<marker>
						<name>women in tech</name>
						<comment>gender gap, women, </comment>
						<color>
							<alpha>0</alpha>
							<red>255</red>
							<green>0</green>
							<blue>0</blue>
						</color>
						<in>15422</in>
						<out>15979</out>
					</marker>
					<marker>
						<name>glass ceiling</name>
						<comment>women,gender gap</comment>
						<color>
							<alpha>0</alpha>
							<red>255</red>
							<green>0</green>
							<blue>0</blue>
						</color>
						<in>16248</in>
						<out>16774</out>
					</marker>
					<marker>
						<name>creative coding is more diverse</name>
						<comment>women,gender gap</comment>
						<color>
							<alpha>0</alpha>
							<red>255</red>
							<green>0</green>
							<blue>0</blue>
						</color>
						<in>17106</in>
						<out>17421</out>
					</marker>
					<filter>
						<enabled>TRUE</enabled>
						<start>-1</start>
						<end>-1</end>
						<effect>
							<name>RGB Balance</name>
							<effectid>RGB Balance</effectid>
							<effectcategory>Color Correction</effectcategory>
							<effecttype>filter</effecttype>
							<mediatype>video</mediatype>
							<parameter>
								<parameterid>label1</parameterid>
								<name>Reds</name>
								<value/>
							</parameter>
							<parameter>
								<parameterid>rhighlights</parameterid>
								<name>Highlights</name>
								<valuemin>64</valuemin>
								<valuemax>509</valuemax>
								<value>226</value>
							</parameter>
							<parameter>
								<parameterid>rgamma</parameterid>
								<name>Midtones</name>
								<valuemin>0</valuemin>
								<valuemax>200</valuemax>
								<value>94</value>
							</parameter>
							<parameter>
								<parameterid>rblacklevel</parameterid>
								<name>Blacks</name>
								<valuemin>-196</valuemin>
								<valuemax>254</valuemax>
								<value>0</value>
							</parameter>
							<parameter>
								<parameterid>label2</parameterid>
								<name>Greens</name>
								<value/>
							</parameter>
							<parameter>
								<parameterid>ghighlights</parameterid>
								<name>Highlights</name>
								<valuemin>64</valuemin>
								<valuemax>509</valuemax>
								<value>260</value>
							</parameter>
							<parameter>
								<parameterid>ggamma</parameterid>
								<name>Midtones</name>
								<valuemin>0</valuemin>
								<valuemax>200</valuemax>
								<value>100</value>
							</parameter>
							<parameter>
								<parameterid>gblacklevel</parameterid>
								<name>Blacks</name>
								<valuemin>-196</valuemin>
								<valuemax>254</valuemax>
								<value>0</value>
							</parameter>
							<parameter>
								<parameterid>label3</parameterid>
								<name>Blues</name>
								<value/>
							</parameter>
							<parameter>
								<parameterid>bhighlights</parameterid>
								<name>Highlights</name>
								<valuemin>64</valuemin>
								<valuemax>509</valuemax>
								<value>255</value>
							</parameter>
							<parameter>
								<parameterid>bgamma</parameterid>
								<name>Midtones</name>
								<valuemin>0</valuemin>
								<valuemax>200</valuemax>
								<value>104</value>
							</parameter>
							<parameter>
								<parameterid>bblacklevel</parameterid>
								<name>Blacks</name>
								<valuemin>-196</valuemin>
								<valuemax>254</valuemax>
								<value>0</value>
							</parameter>
						</effect>
					</filter>
					<filter>
						<enabled>TRUE</enabled>
						<start>-1</start>
						<end>-1</end>
						<effect>
							<name>Color Corrector</name>
							<effectid>Color Corrector</effectid>
							<effectcategory>Color Correction</effectcategory>
							<effecttype>filter</effecttype>
							<mediatype>video</mediatype>
							<parameter>
								<parameterid>dispmode</parameterid>
								<name>Display Mode</name>
								<valuemin>1</valuemin>
								<valuemax>3</valuemax>
								<valuelist>
									<valueentry>
										<name>Final</name>
										<value>1</value>
									</valueentry>
									<valueentry>
										<name>Matte</name>
										<value>2</value>
									</valueentry>
									<valueentry>
										<name>Source</name>
										<value>3</value>
									</valueentry>
								</valuelist>
								<value>1</value>
							</parameter>
							<parameter>
								<parameterid>label1</parameterid>
								<name>Level Controls</name>
								<value/>
							</parameter>
							<parameter>
								<parameterid>highlights</parameterid>
								<name>Highlights</name>
								<valuemin>64</valuemin>
								<valuemax>509</valuemax>
								<value>257</value>
							</parameter>
							<parameter>
								<parameterid>mids</parameterid>
								<name>Mids</name>
								<valuemin>0</valuemin>
								<valuemax>200</valuemax>
								<value>104</value>
							</parameter>
							<parameter>
								<parameterid>blacklevel</parameterid>
								<name>Blacks</name>
								<valuemin>-196</valuemin>
								<valuemax>254</valuemax>
								<value>-6</value>
							</parameter>
							<parameter>
								<parameterid>label2</parameterid>
								<name>Color Balance</name>
								<value/>
							</parameter>
							<parameter>
								<parameterid>hue</parameterid>
								<name>Angle</name>
								<valuemin>-180</valuemin>
								<valuemax>180</valuemax>
								<value>-33</value>
							</parameter>
							<parameter>
								<parameterid>mag</parameterid>
								<name>Magnitude</name>
								<valuemin>0</valuemin>
								<valuemax>200</valuemax>
								<value>0</value>
							</parameter>
							<parameter>
								<parameterid>label4</parameterid>
								<name>Color Controls</name>
								<value/>
							</parameter>
							<parameter>
								<parameterid>chroma</parameterid>
								<name>Saturation</name>
								<valuemin>0</valuemin>
								<valuemax>200</valuemax>
								<value>100</value>
							</parameter>
							<parameter>
								<parameterid>phase</parameterid>
								<name>Phase shift</name>
								<valuemin>-180</valuemin>
								<valuemax>180</valuemax>
								<value>0</value>
							</parameter>
							<parameter>
								<parameterid>label5</parameterid>
								<name>Limit Effect Controls</name>
								<value/>
							</parameter>
							<parameter>
								<parameterid>dochroma</parameterid>
								<name>Limit on Chroma</name>
								<value>FALSE</value>
							</parameter>
							<parameter>
								<parameterid>centerang</parameterid>
								<name>Chroma Center</name>
								<valuemin>-760</valuemin>
								<valuemax>760</valuemax>
								<value>-110</value>
							</parameter>
							<parameter>
								<parameterid>chromawidth</parameterid>
								<name>Chroma Width</name>
								<valuemin>0</valuemin>
								<valuemax>360</valuemax>
								<value>15</value>
							</parameter>
							<parameter>
								<parameterid>chromasoft</parameterid>
								<name>Chroma Softness</name>
								<valuemin>0</valuemin>
								<valuemax>180</valuemax>
								<value>10</value>
							</parameter>
							<parameter>
								<parameterid>dosat</parameterid>
								<name>Limit on Saturation</name>
								<value>FALSE</value>
							</parameter>
							<parameter>
								<parameterid>satmin</parameterid>
								<name>Sat. Minimum</name>
								<valuemin>0</valuemin>
								<valuemax>125</valuemax>
								<value>35</value>
							</parameter>
							<parameter>
								<parameterid>satwidth</parameterid>
								<name>Sat. Width</name>
								<valuemin>0</valuemin>
								<valuemax>125</valuemax>
								<value>40</value>
							</parameter>
							<parameter>
								<parameterid>satsoft</parameterid>
								<name>Sat. Softness</name>
								<valuemin>0</valuemin>
								<valuemax>125</valuemax>
								<value>20</value>
							</parameter>
							<parameter>
								<parameterid>doluma</parameterid>
								<name>Limit on Luma</name>
								<value>FALSE</value>
							</parameter>
							<parameter>
								<parameterid>lumamin</parameterid>
								<name>Luma Minimum</name>
								<valuemin>0</valuemin>
								<valuemax>120</valuemax>
								<value>0</value>
							</parameter>
							<parameter>
								<parameterid>lumawidth</parameterid>
								<name>Luma Width</name>
								<valuemin>0</valuemin>
								<valuemax>120</valuemax>
								<value>40</value>
							</parameter>
							<parameter>
								<parameterid>lumasoft</parameterid>
								<name>Luma Softness</name>
								<valuemin>0</valuemin>
								<valuemax>120</valuemax>
								<value>20</value>
							</parameter>
							<parameter>
								<parameterid>label6</parameterid>
								<name>Edge Control</name>
								<value/>
							</parameter>
							<parameter>
								<parameterid>edgethin</parameterid>
								<name>Thin/Spread</name>
								<valuemin>-100</valuemin>
								<valuemax>100</valuemax>
								<value>0</value>
							</parameter>
							<parameter>
								<parameterid>edgefeather</parameterid>
								<name>Softening</name>
								<valuemin>0</valuemin>
								<valuemax>100</valuemax>
								<value>0</value>
							</parameter>
							<parameter>
								<parameterid>label7</parameterid>
								<name>Mask Control</name>
								<value/>
							</parameter>
							<parameter>
								<parameterid>invertsel</parameterid>
								<name>Invert</name>
								<value>FALSE</value>
							</parameter>
							<parameter>
								<parameterid>debugshow</parameterid>
								<name>Show Stats</name>
								<value>FALSE</value>
							</parameter>
						</effect>
					</filter>
					<sourcetrack>
						<mediatype>video</mediatype>
					</sourcetrack>
					<link>
						<linkclipref>MVI_3815 </linkclipref>
						<mediatype>video</mediatype>
						<trackindex>1</trackindex>
						<clipindex>2</clipindex>
					</link>
					<link>
						<linkclipref>MVI_3815 2</linkclipref>
						<mediatype>audio</mediatype>
						<trackindex>1</trackindex>
						<clipindex>2</clipindex>
						<groupindex>1</groupindex>
					</link>
					<link>
						<linkclipref>MVI_3815 3</linkclipref>
						<mediatype>audio</mediatype>
						<trackindex>2</trackindex>
						<clipindex>2</clipindex>
						<groupindex>1</groupindex>
					</link>
					<fielddominance>none</fielddominance>
					<itemhistory>
						<uuid>5F8F548B-15B6-465C-9FF8-C0B9BFEB7B64</uuid>
						<uuid>4644A619-3EEC-445E-8D1F-D8C834B4FE2F</uuid>
					</itemhistory>
				</clipitem>
				<clipitem id="MVI_3816 ">
					<name>MVI_3816</name>
					<duration>8880</duration>
					<rate>
						<ntsc>TRUE</ntsc>
						<timebase>24</timebase>
					</rate>
					<in>0</in>
					<out>8880</out>
					<start>30805</start>
					<end>39685</end>
					<pixelaspectratio>Square</pixelaspectratio>
					<anamorphic>FALSE</anamorphic>
					<alphatype>none</alphatype>
					<logginginfo>
						<scene/>
						<shottake/>
						<lognote/>
						<good>FALSE</good>
					</logginginfo>
					<labels>
						<label2/>
					</labels>
					<comments>
						<mastercomment1/>
						<mastercomment2/>
						<mastercomment3/>
						<mastercomment4/>
					</comments>
					<file id="MVI_3816 1">
						<name>MVI_3816.mov</name>
						<pathurl>file://localhost/Volumes/Nebula/MediaPackages/Binx/Binx_v2_3/color/MVI_3816.mov</pathurl>
						<rate>
							<timebase>24</timebase>
							<ntsc>TRUE</ntsc>
						</rate>
						<duration>8880</duration>
						<media>
							<video>
								<duration>8880</duration>
								<samplecharacteristics>
									<width>1920</width>
									<height>1080</height>
								</samplecharacteristics>
							</video>
							<audio>
								<samplecharacteristics>
									<samplerate>48000</samplerate>
									<depth>16</depth>
								</samplecharacteristics>
								<channelcount>2</channelcount>
							</audio>
						</media>
					</file>
					<marker>
						<name>Significant othered</name>
						<comment>gender gap, women</comment>
						<color>
							<alpha>0</alpha>
							<red>255</red>
							<green>0</green>
							<blue>0</blue>
						</color>
						<in>1141</in>
						<out>1911</out>
					</marker>
					<marker>
						<name>Marker 2</name>
						<comment/>
						<color>
							<alpha>0</alpha>
							<red>255</red>
							<green>0</green>
							<blue>0</blue>
						</color>
						<in>3340</in>
						<out>4348</out>
					</marker>
					<marker>
						<name>programming is a superpower</name>
						<comment>programming, power, creativity, invention</comment>
						<color>
							<alpha>0</alpha>
							<red>255</red>
							<green>0</green>
							<blue>0</blue>
						</color>
						<in>7170</in>
						<out>7276</out>
					</marker>
					<filter>
						<enabled>TRUE</enabled>
						<start>-1</start>
						<end>-1</end>
						<effect>
							<name>RGB Balance</name>
							<effectid>RGB Balance</effectid>
							<effectcategory>Color Correction</effectcategory>
							<effecttype>filter</effecttype>
							<mediatype>video</mediatype>
							<parameter>
								<parameterid>label1</parameterid>
								<name>Reds</name>
								<value/>
							</parameter>
							<parameter>
								<parameterid>rhighlights</parameterid>
								<name>Highlights</name>
								<valuemin>64</valuemin>
								<valuemax>509</valuemax>
								<value>226</value>
							</parameter>
							<parameter>
								<parameterid>rgamma</parameterid>
								<name>Midtones</name>
								<valuemin>0</valuemin>
								<valuemax>200</valuemax>
								<value>94</value>
							</parameter>
							<parameter>
								<parameterid>rblacklevel</parameterid>
								<name>Blacks</name>
								<valuemin>-196</valuemin>
								<valuemax>254</valuemax>
								<value>0</value>
							</parameter>
							<parameter>
								<parameterid>label2</parameterid>
								<name>Greens</name>
								<value/>
							</parameter>
							<parameter>
								<parameterid>ghighlights</parameterid>
								<name>Highlights</name>
								<valuemin>64</valuemin>
								<valuemax>509</valuemax>
								<value>260</value>
							</parameter>
							<parameter>
								<parameterid>ggamma</parameterid>
								<name>Midtones</name>
								<valuemin>0</valuemin>
								<valuemax>200</valuemax>
								<value>100</value>
							</parameter>
							<parameter>
								<parameterid>gblacklevel</parameterid>
								<name>Blacks</name>
								<valuemin>-196</valuemin>
								<valuemax>254</valuemax>
								<value>0</value>
							</parameter>
							<parameter>
								<parameterid>label3</parameterid>
								<name>Blues</name>
								<value/>
							</parameter>
							<parameter>
								<parameterid>bhighlights</parameterid>
								<name>Highlights</name>
								<valuemin>64</valuemin>
								<valuemax>509</valuemax>
								<value>255</value>
							</parameter>
							<parameter>
								<parameterid>bgamma</parameterid>
								<name>Midtones</name>
								<valuemin>0</valuemin>
								<valuemax>200</valuemax>
								<value>104</value>
							</parameter>
							<parameter>
								<parameterid>bblacklevel</parameterid>
								<name>Blacks</name>
								<valuemin>-196</valuemin>
								<valuemax>254</valuemax>
								<value>0</value>
							</parameter>
						</effect>
					</filter>
					<filter>
						<enabled>TRUE</enabled>
						<start>-1</start>
						<end>-1</end>
						<effect>
							<name>Color Corrector</name>
							<effectid>Color Corrector</effectid>
							<effectcategory>Color Correction</effectcategory>
							<effecttype>filter</effecttype>
							<mediatype>video</mediatype>
							<parameter>
								<parameterid>dispmode</parameterid>
								<name>Display Mode</name>
								<valuemin>1</valuemin>
								<valuemax>3</valuemax>
								<valuelist>
									<valueentry>
										<name>Final</name>
										<value>1</value>
									</valueentry>
									<valueentry>
										<name>Matte</name>
										<value>2</value>
									</valueentry>
									<valueentry>
										<name>Source</name>
										<value>3</value>
									</valueentry>
								</valuelist>
								<value>1</value>
							</parameter>
							<parameter>
								<parameterid>label1</parameterid>
								<name>Level Controls</name>
								<value/>
							</parameter>
							<parameter>
								<parameterid>highlights</parameterid>
								<name>Highlights</name>
								<valuemin>64</valuemin>
								<valuemax>509</valuemax>
								<value>257</value>
							</parameter>
							<parameter>
								<parameterid>mids</parameterid>
								<name>Mids</name>
								<valuemin>0</valuemin>
								<valuemax>200</valuemax>
								<value>104</value>
							</parameter>
							<parameter>
								<parameterid>blacklevel</parameterid>
								<name>Blacks</name>
								<valuemin>-196</valuemin>
								<valuemax>254</valuemax>
								<value>-6</value>
							</parameter>
							<parameter>
								<parameterid>label2</parameterid>
								<name>Color Balance</name>
								<value/>
							</parameter>
							<parameter>
								<parameterid>hue</parameterid>
								<name>Angle</name>
								<valuemin>-180</valuemin>
								<valuemax>180</valuemax>
								<value>-33</value>
							</parameter>
							<parameter>
								<parameterid>mag</parameterid>
								<name>Magnitude</name>
								<valuemin>0</valuemin>
								<valuemax>200</valuemax>
								<value>0</value>
							</parameter>
							<parameter>
								<parameterid>label4</parameterid>
								<name>Color Controls</name>
								<value/>
							</parameter>
							<parameter>
								<parameterid>chroma</parameterid>
								<name>Saturation</name>
								<valuemin>0</valuemin>
								<valuemax>200</valuemax>
								<value>100</value>
							</parameter>
							<parameter>
								<parameterid>phase</parameterid>
								<name>Phase shift</name>
								<valuemin>-180</valuemin>
								<valuemax>180</valuemax>
								<value>0</value>
							</parameter>
							<parameter>
								<parameterid>label5</parameterid>
								<name>Limit Effect Controls</name>
								<value/>
							</parameter>
							<parameter>
								<parameterid>dochroma</parameterid>
								<name>Limit on Chroma</name>
								<value>FALSE</value>
							</parameter>
							<parameter>
								<parameterid>centerang</parameterid>
								<name>Chroma Center</name>
								<valuemin>-760</valuemin>
								<valuemax>760</valuemax>
								<value>-110</value>
							</parameter>
							<parameter>
								<parameterid>chromawidth</parameterid>
								<name>Chroma Width</name>
								<valuemin>0</valuemin>
								<valuemax>360</valuemax>
								<value>15</value>
							</parameter>
							<parameter>
								<parameterid>chromasoft</parameterid>
								<name>Chroma Softness</name>
								<valuemin>0</valuemin>
								<valuemax>180</valuemax>
								<value>10</value>
							</parameter>
							<parameter>
								<parameterid>dosat</parameterid>
								<name>Limit on Saturation</name>
								<value>FALSE</value>
							</parameter>
							<parameter>
								<parameterid>satmin</parameterid>
								<name>Sat. Minimum</name>
								<valuemin>0</valuemin>
								<valuemax>125</valuemax>
								<value>35</value>
							</parameter>
							<parameter>
								<parameterid>satwidth</parameterid>
								<name>Sat. Width</name>
								<valuemin>0</valuemin>
								<valuemax>125</valuemax>
								<value>40</value>
							</parameter>
							<parameter>
								<parameterid>satsoft</parameterid>
								<name>Sat. Softness</name>
								<valuemin>0</valuemin>
								<valuemax>125</valuemax>
								<value>20</value>
							</parameter>
							<parameter>
								<parameterid>doluma</parameterid>
								<name>Limit on Luma</name>
								<value>FALSE</value>
							</parameter>
							<parameter>
								<parameterid>lumamin</parameterid>
								<name>Luma Minimum</name>
								<valuemin>0</valuemin>
								<valuemax>120</valuemax>
								<value>0</value>
							</parameter>
							<parameter>
								<parameterid>lumawidth</parameterid>
								<name>Luma Width</name>
								<valuemin>0</valuemin>
								<valuemax>120</valuemax>
								<value>40</value>
							</parameter>
							<parameter>
								<parameterid>lumasoft</parameterid>
								<name>Luma Softness</name>
								<valuemin>0</valuemin>
								<valuemax>120</valuemax>
								<value>20</value>
							</parameter>
							<parameter>
								<parameterid>label6</parameterid>
								<name>Edge Control</name>
								<value/>
							</parameter>
							<parameter>
								<parameterid>edgethin</parameterid>
								<name>Thin/Spread</name>
								<valuemin>-100</valuemin>
								<valuemax>100</valuemax>
								<value>0</value>
							</parameter>
							<parameter>
								<parameterid>edgefeather</parameterid>
								<name>Softening</name>
								<valuemin>0</valuemin>
								<valuemax>100</valuemax>
								<value>0</value>
							</parameter>
							<parameter>
								<parameterid>label7</parameterid>
								<name>Mask Control</name>
								<value/>
							</parameter>
							<parameter>
								<parameterid>invertsel</parameterid>
								<name>Invert</name>
								<value>FALSE</value>
							</parameter>
							<parameter>
								<parameterid>debugshow</parameterid>
								<name>Show Stats</name>
								<value>FALSE</value>
							</parameter>
						</effect>
					</filter>
					<sourcetrack>
						<mediatype>video</mediatype>
					</sourcetrack>
					<link>
						<linkclipref>MVI_3816 </linkclipref>
						<mediatype>video</mediatype>
						<trackindex>1</trackindex>
						<clipindex>3</clipindex>
					</link>
					<link>
						<linkclipref>MVI_3816 2</linkclipref>
						<mediatype>audio</mediatype>
						<trackindex>1</trackindex>
						<clipindex>3</clipindex>
						<groupindex>1</groupindex>
					</link>
					<link>
						<linkclipref>MVI_3816 3</linkclipref>
						<mediatype>audio</mediatype>
						<trackindex>2</trackindex>
						<clipindex>3</clipindex>
						<groupindex>1</groupindex>
					</link>
					<fielddominance>none</fielddominance>
					<itemhistory>
						<uuid>B5C2735A-208B-4D1C-9F9D-6535753B6552</uuid>
					</itemhistory>
				</clipitem>
				<clipitem id="MVI_3817 ">
					<name>MVI_3817</name>
					<duration>15636</duration>
					<rate>
						<ntsc>TRUE</ntsc>
						<timebase>24</timebase>
					</rate>
					<in>0</in>
					<out>15636</out>
					<start>39685</start>
					<end>55321</end>
					<pixelaspectratio>Square</pixelaspectratio>
					<anamorphic>FALSE</anamorphic>
					<alphatype>none</alphatype>
					<logginginfo>
						<scene/>
						<shottake/>
						<lognote/>
						<good>FALSE</good>
					</logginginfo>
					<labels>
						<label2/>
					</labels>
					<comments>
						<mastercomment1/>
						<mastercomment2/>
						<mastercomment3/>
						<mastercomment4/>
					</comments>
					<file id="MVI_3817 1">
						<name>MVI_3817.mov</name>
						<pathurl>file://localhost/Volumes/Nebula/MediaPackages/Binx/Binx_v2_4/color/MVI_3817.mov</pathurl>
						<rate>
							<timebase>24</timebase>
							<ntsc>TRUE</ntsc>
						</rate>
						<duration>15636</duration>
						<media>
							<video>
								<duration>15636</duration>
								<samplecharacteristics>
									<width>1920</width>
									<height>1080</height>
								</samplecharacteristics>
							</video>
							<audio>
								<samplecharacteristics>
									<samplerate>48000</samplerate>
									<depth>16</depth>
								</samplecharacteristics>
								<channelcount>2</channelcount>
							</audio>
						</media>
					</file>
					<marker>
						<name>tech fracturing</name>
						<comment>specialization, programming, learning, technological progress</comment>
						<color>
							<alpha>0</alpha>
							<red>255</red>
							<green>0</green>
							<blue>0</blue>
						</color>
						<in>277</in>
						<out>628</out>
					</marker>
					<marker>
						<name>skillshare</name>
						<comment>learning, community, sharing, </comment>
						<color>
							<alpha>0</alpha>
							<red>255</red>
							<green>0</green>
							<blue>0</blue>
						</color>
						<in>2088</in>
						<out>2469</out>
					</marker>
					<marker>
						<name>learning</name>
						<comment>learning, community, sharing, </comment>
						<color>
							<alpha>0</alpha>
							<red>255</red>
							<green>0</green>
							<blue>0</blue>
						</color>
						<in>2748</in>
						<out>3830</out>
					</marker>
					<marker>
						<name>learning with others</name>
						<comment>learning, community, sharing,</comment>
						<color>
							<alpha>0</alpha>
							<red>255</red>
							<green>0</green>
							<blue>0</blue>
						</color>
						<in>4261</in>
						<out>4364</out>
					</marker>
					<marker>
						<name>big data</name>
						<comment>data visualization,data ownership,big data</comment>
						<color>
							<alpha>0</alpha>
							<red>255</red>
							<green>0</green>
							<blue>0</blue>
						</color>
						<in>5147</in>
						<out>5764</out>
					</marker>
					<marker>
						<name>field of data vis</name>
						<comment>data visualization, communication, visualization, </comment>
						<color>
							<alpha>0</alpha>
							<red>255</red>
							<green>0</green>
							<blue>0</blue>
						</color>
						<in>6587</in>
						<out>7258</out>
					</marker>
					<marker>
						<name>technoutopian</name>
						<comment>technological progress,technoptimism,utopia</comment>
						<color>
							<alpha>0</alpha>
							<red>255</red>
							<green>0</green>
							<blue>0</blue>
						</color>
						<in>9307</in>
						<out>9613</out>
					</marker>
					<marker>
						<name>changing the world</name>
						<comment>technological progress,technoptimism,utopia, progress,&#13;society, problem-solving, change, hope</comment>
						<color>
							<alpha>0</alpha>
							<red>255</red>
							<green>0</green>
							<blue>0</blue>
						</color>
						<in>10570</in>
						<out>10834</out>
					</marker>
					<marker>
						<name>art and culture </name>
						<comment>society, culture, art, progress, </comment>
						<color>
							<alpha>0</alpha>
							<red>255</red>
							<green>0</green>
							<blue>0</blue>
						</color>
						<in>12386</in>
						<out>13224</out>
					</marker>
					<marker>
						<name>art for money</name>
						<comment>commercialism,&#13;art,life and work,art versus engineering, business, passion&#13;</comment>
						<color>
							<alpha>0</alpha>
							<red>255</red>
							<green>0</green>
							<blue>0</blue>
						</color>
						<in>13239</in>
						<out>14194</out>
					</marker>
					<filter>
						<enabled>TRUE</enabled>
						<start>-1</start>
						<end>-1</end>
						<effect>
							<name>RGB Balance</name>
							<effectid>RGB Balance</effectid>
							<effectcategory>Color Correction</effectcategory>
							<effecttype>filter</effecttype>
							<mediatype>video</mediatype>
							<parameter>
								<parameterid>label1</parameterid>
								<name>Reds</name>
								<value/>
							</parameter>
							<parameter>
								<parameterid>rhighlights</parameterid>
								<name>Highlights</name>
								<valuemin>64</valuemin>
								<valuemax>509</valuemax>
								<value>226</value>
							</parameter>
							<parameter>
								<parameterid>rgamma</parameterid>
								<name>Midtones</name>
								<valuemin>0</valuemin>
								<valuemax>200</valuemax>
								<value>94</value>
							</parameter>
							<parameter>
								<parameterid>rblacklevel</parameterid>
								<name>Blacks</name>
								<valuemin>-196</valuemin>
								<valuemax>254</valuemax>
								<value>0</value>
							</parameter>
							<parameter>
								<parameterid>label2</parameterid>
								<name>Greens</name>
								<value/>
							</parameter>
							<parameter>
								<parameterid>ghighlights</parameterid>
								<name>Highlights</name>
								<valuemin>64</valuemin>
								<valuemax>509</valuemax>
								<value>260</value>
							</parameter>
							<parameter>
								<parameterid>ggamma</parameterid>
								<name>Midtones</name>
								<valuemin>0</valuemin>
								<valuemax>200</valuemax>
								<value>100</value>
							</parameter>
							<parameter>
								<parameterid>gblacklevel</parameterid>
								<name>Blacks</name>
								<valuemin>-196</valuemin>
								<valuemax>254</valuemax>
								<value>0</value>
							</parameter>
							<parameter>
								<parameterid>label3</parameterid>
								<name>Blues</name>
								<value/>
							</parameter>
							<parameter>
								<parameterid>bhighlights</parameterid>
								<name>Highlights</name>
								<valuemin>64</valuemin>
								<valuemax>509</valuemax>
								<value>255</value>
							</parameter>
							<parameter>
								<parameterid>bgamma</parameterid>
								<name>Midtones</name>
								<valuemin>0</valuemin>
								<valuemax>200</valuemax>
								<value>104</value>
							</parameter>
							<parameter>
								<parameterid>bblacklevel</parameterid>
								<name>Blacks</name>
								<valuemin>-196</valuemin>
								<valuemax>254</valuemax>
								<value>0</value>
							</parameter>
						</effect>
					</filter>
					<filter>
						<enabled>TRUE</enabled>
						<start>-1</start>
						<end>-1</end>
						<effect>
							<name>Color Corrector</name>
							<effectid>Color Corrector</effectid>
							<effectcategory>Color Correction</effectcategory>
							<effecttype>filter</effecttype>
							<mediatype>video</mediatype>
							<parameter>
								<parameterid>dispmode</parameterid>
								<name>Display Mode</name>
								<valuemin>1</valuemin>
								<valuemax>3</valuemax>
								<valuelist>
									<valueentry>
										<name>Final</name>
										<value>1</value>
									</valueentry>
									<valueentry>
										<name>Matte</name>
										<value>2</value>
									</valueentry>
									<valueentry>
										<name>Source</name>
										<value>3</value>
									</valueentry>
								</valuelist>
								<value>1</value>
							</parameter>
							<parameter>
								<parameterid>label1</parameterid>
								<name>Level Controls</name>
								<value/>
							</parameter>
							<parameter>
								<parameterid>highlights</parameterid>
								<name>Highlights</name>
								<valuemin>64</valuemin>
								<valuemax>509</valuemax>
								<value>257</value>
							</parameter>
							<parameter>
								<parameterid>mids</parameterid>
								<name>Mids</name>
								<valuemin>0</valuemin>
								<valuemax>200</valuemax>
								<value>104</value>
							</parameter>
							<parameter>
								<parameterid>blacklevel</parameterid>
								<name>Blacks</name>
								<valuemin>-196</valuemin>
								<valuemax>254</valuemax>
								<value>-6</value>
							</parameter>
							<parameter>
								<parameterid>label2</parameterid>
								<name>Color Balance</name>
								<value/>
							</parameter>
							<parameter>
								<parameterid>hue</parameterid>
								<name>Angle</name>
								<valuemin>-180</valuemin>
								<valuemax>180</valuemax>
								<value>-33</value>
							</parameter>
							<parameter>
								<parameterid>mag</parameterid>
								<name>Magnitude</name>
								<valuemin>0</valuemin>
								<valuemax>200</valuemax>
								<value>0</value>
							</parameter>
							<parameter>
								<parameterid>label4</parameterid>
								<name>Color Controls</name>
								<value/>
							</parameter>
							<parameter>
								<parameterid>chroma</parameterid>
								<name>Saturation</name>
								<valuemin>0</valuemin>
								<valuemax>200</valuemax>
								<value>100</value>
							</parameter>
							<parameter>
								<parameterid>phase</parameterid>
								<name>Phase shift</name>
								<valuemin>-180</valuemin>
								<valuemax>180</valuemax>
								<value>0</value>
							</parameter>
							<parameter>
								<parameterid>label5</parameterid>
								<name>Limit Effect Controls</name>
								<value/>
							</parameter>
							<parameter>
								<parameterid>dochroma</parameterid>
								<name>Limit on Chroma</name>
								<value>FALSE</value>
							</parameter>
							<parameter>
								<parameterid>centerang</parameterid>
								<name>Chroma Center</name>
								<valuemin>-760</valuemin>
								<valuemax>760</valuemax>
								<value>-110</value>
							</parameter>
							<parameter>
								<parameterid>chromawidth</parameterid>
								<name>Chroma Width</name>
								<valuemin>0</valuemin>
								<valuemax>360</valuemax>
								<value>15</value>
							</parameter>
							<parameter>
								<parameterid>chromasoft</parameterid>
								<name>Chroma Softness</name>
								<valuemin>0</valuemin>
								<valuemax>180</valuemax>
								<value>10</value>
							</parameter>
							<parameter>
								<parameterid>dosat</parameterid>
								<name>Limit on Saturation</name>
								<value>FALSE</value>
							</parameter>
							<parameter>
								<parameterid>satmin</parameterid>
								<name>Sat. Minimum</name>
								<valuemin>0</valuemin>
								<valuemax>125</valuemax>
								<value>35</value>
							</parameter>
							<parameter>
								<parameterid>satwidth</parameterid>
								<name>Sat. Width</name>
								<valuemin>0</valuemin>
								<valuemax>125</valuemax>
								<value>40</value>
							</parameter>
							<parameter>
								<parameterid>satsoft</parameterid>
								<name>Sat. Softness</name>
								<valuemin>0</valuemin>
								<valuemax>125</valuemax>
								<value>20</value>
							</parameter>
							<parameter>
								<parameterid>doluma</parameterid>
								<name>Limit on Luma</name>
								<value>FALSE</value>
							</parameter>
							<parameter>
								<parameterid>lumamin</parameterid>
								<name>Luma Minimum</name>
								<valuemin>0</valuemin>
								<valuemax>120</valuemax>
								<value>0</value>
							</parameter>
							<parameter>
								<parameterid>lumawidth</parameterid>
								<name>Luma Width</name>
								<valuemin>0</valuemin>
								<valuemax>120</valuemax>
								<value>40</value>
							</parameter>
							<parameter>
								<parameterid>lumasoft</parameterid>
								<name>Luma Softness</name>
								<valuemin>0</valuemin>
								<valuemax>120</valuemax>
								<value>20</value>
							</parameter>
							<parameter>
								<parameterid>label6</parameterid>
								<name>Edge Control</name>
								<value/>
							</parameter>
							<parameter>
								<parameterid>edgethin</parameterid>
								<name>Thin/Spread</name>
								<valuemin>-100</valuemin>
								<valuemax>100</valuemax>
								<value>0</value>
							</parameter>
							<parameter>
								<parameterid>edgefeather</parameterid>
								<name>Softening</name>
								<valuemin>0</valuemin>
								<valuemax>100</valuemax>
								<value>0</value>
							</parameter>
							<parameter>
								<parameterid>label7</parameterid>
								<name>Mask Control</name>
								<value/>
							</parameter>
							<parameter>
								<parameterid>invertsel</parameterid>
								<name>Invert</name>
								<value>FALSE</value>
							</parameter>
							<parameter>
								<parameterid>debugshow</parameterid>
								<name>Show Stats</name>
								<value>FALSE</value>
							</parameter>
						</effect>
					</filter>
					<sourcetrack>
						<mediatype>video</mediatype>
					</sourcetrack>
					<link>
						<linkclipref>MVI_3817 </linkclipref>
						<mediatype>video</mediatype>
						<trackindex>1</trackindex>
						<clipindex>4</clipindex>
					</link>
					<link>
						<linkclipref>MVI_3817 2</linkclipref>
						<mediatype>audio</mediatype>
						<trackindex>1</trackindex>
						<clipindex>4</clipindex>
						<groupindex>1</groupindex>
					</link>
					<link>
						<linkclipref>MVI_3817 3</linkclipref>
						<mediatype>audio</mediatype>
						<trackindex>2</trackindex>
						<clipindex>4</clipindex>
						<groupindex>1</groupindex>
					</link>
					<fielddominance>none</fielddominance>
					<itemhistory>
						<uuid>4BA5BBC8-47D6-4AE1-B614-D4956D6B9D2F</uuid>
						<uuid>7F38132E-6747-441B-89C5-D954574753E8</uuid>
					</itemhistory>
				</clipitem>
				<clipitem id="MVI_3818 ">
					<name>MVI_3818</name>
					<duration>5760</duration>
					<rate>
						<ntsc>TRUE</ntsc>
						<timebase>24</timebase>
					</rate>
					<in>0</in>
					<out>5760</out>
					<start>55321</start>
					<end>61081</end>
					<pixelaspectratio>Square</pixelaspectratio>
					<anamorphic>FALSE</anamorphic>
					<alphatype>none</alphatype>
					<logginginfo>
						<scene/>
						<shottake/>
						<lognote/>
						<good>FALSE</good>
					</logginginfo>
					<labels>
						<label2/>
					</labels>
					<comments>
						<mastercomment1/>
						<mastercomment2/>
						<mastercomment3/>
						<mastercomment4/>
					</comments>
					<file id="MVI_3818 1">
						<name>MVI_3818.mov</name>
						<pathurl>file://localhost/Volumes/Nebula/MediaPackages/Binx/Binx_v2_5/color/MVI_3818.mov</pathurl>
						<rate>
							<timebase>24</timebase>
							<ntsc>TRUE</ntsc>
						</rate>
						<duration>5760</duration>
						<media>
							<video>
								<duration>5760</duration>
								<samplecharacteristics>
									<width>1920</width>
									<height>1080</height>
								</samplecharacteristics>
							</video>
							<audio>
								<samplecharacteristics>
									<samplerate>48000</samplerate>
									<depth>16</depth>
								</samplecharacteristics>
								<channelcount>2</channelcount>
							</audio>
						</media>
					</file>
					<marker>
						<name>hybridity</name>
						<comment>hybridity,interdisciplinary,knowledge,learning</comment>
						<color>
							<alpha>0</alpha>
							<red>255</red>
							<green>0</green>
							<blue>0</blue>
						</color>
						<in>236</in>
						<out>733</out>
					</marker>
					<marker>
						<name>Background</name>
						<comment>hybridity,interdisciplinary,knowledge,learning, beginnings, tribe, creative coders&#13;</comment>
						<color>
							<alpha>0</alpha>
							<red>255</red>
							<green>0</green>
							<blue>0</blue>
						</color>
						<in>773</in>
						<out>1134</out>
					</marker>
					<marker>
						<name>there was no degree</name>
						<comment>hybridity,interdisciplinary,knowledge,learning, education, architecture, creative coding, creative coders&#13;</comment>
						<color>
							<alpha>0</alpha>
							<red>255</red>
							<green>0</green>
							<blue>0</blue>
						</color>
						<in>1924</in>
						<out>2309</out>
					</marker>
					<marker>
						<name>geodata</name>
						<comment>maps, GPS, big data</comment>
						<color>
							<alpha>0</alpha>
							<red>255</red>
							<green>0</green>
							<blue>0</blue>
						</color>
						<in>3882</in>
						<out>4455</out>
					</marker>
					<filter>
						<enabled>TRUE</enabled>
						<start>-1</start>
						<end>-1</end>
						<effect>
							<name>RGB Balance</name>
							<effectid>RGB Balance</effectid>
							<effectcategory>Color Correction</effectcategory>
							<effecttype>filter</effecttype>
							<mediatype>video</mediatype>
							<parameter>
								<parameterid>label1</parameterid>
								<name>Reds</name>
								<value/>
							</parameter>
							<parameter>
								<parameterid>rhighlights</parameterid>
								<name>Highlights</name>
								<valuemin>64</valuemin>
								<valuemax>509</valuemax>
								<value>226</value>
							</parameter>
							<parameter>
								<parameterid>rgamma</parameterid>
								<name>Midtones</name>
								<valuemin>0</valuemin>
								<valuemax>200</valuemax>
								<value>94</value>
							</parameter>
							<parameter>
								<parameterid>rblacklevel</parameterid>
								<name>Blacks</name>
								<valuemin>-196</valuemin>
								<valuemax>254</valuemax>
								<value>0</value>
							</parameter>
							<parameter>
								<parameterid>label2</parameterid>
								<name>Greens</name>
								<value/>
							</parameter>
							<parameter>
								<parameterid>ghighlights</parameterid>
								<name>Highlights</name>
								<valuemin>64</valuemin>
								<valuemax>509</valuemax>
								<value>260</value>
							</parameter>
							<parameter>
								<parameterid>ggamma</parameterid>
								<name>Midtones</name>
								<valuemin>0</valuemin>
								<valuemax>200</valuemax>
								<value>100</value>
							</parameter>
							<parameter>
								<parameterid>gblacklevel</parameterid>
								<name>Blacks</name>
								<valuemin>-196</valuemin>
								<valuemax>254</valuemax>
								<value>0</value>
							</parameter>
							<parameter>
								<parameterid>label3</parameterid>
								<name>Blues</name>
								<value/>
							</parameter>
							<parameter>
								<parameterid>bhighlights</parameterid>
								<name>Highlights</name>
								<valuemin>64</valuemin>
								<valuemax>509</valuemax>
								<value>255</value>
							</parameter>
							<parameter>
								<parameterid>bgamma</parameterid>
								<name>Midtones</name>
								<valuemin>0</valuemin>
								<valuemax>200</valuemax>
								<value>104</value>
							</parameter>
							<parameter>
								<parameterid>bblacklevel</parameterid>
								<name>Blacks</name>
								<valuemin>-196</valuemin>
								<valuemax>254</valuemax>
								<value>0</value>
							</parameter>
						</effect>
					</filter>
					<filter>
						<enabled>TRUE</enabled>
						<start>-1</start>
						<end>-1</end>
						<effect>
							<name>Color Corrector</name>
							<effectid>Color Corrector</effectid>
							<effectcategory>Color Correction</effectcategory>
							<effecttype>filter</effecttype>
							<mediatype>video</mediatype>
							<parameter>
								<parameterid>dispmode</parameterid>
								<name>Display Mode</name>
								<valuemin>1</valuemin>
								<valuemax>3</valuemax>
								<valuelist>
									<valueentry>
										<name>Final</name>
										<value>1</value>
									</valueentry>
									<valueentry>
										<name>Matte</name>
										<value>2</value>
									</valueentry>
									<valueentry>
										<name>Source</name>
										<value>3</value>
									</valueentry>
								</valuelist>
								<value>1</value>
							</parameter>
							<parameter>
								<parameterid>label1</parameterid>
								<name>Level Controls</name>
								<value/>
							</parameter>
							<parameter>
								<parameterid>highlights</parameterid>
								<name>Highlights</name>
								<valuemin>64</valuemin>
								<valuemax>509</valuemax>
								<value>257</value>
							</parameter>
							<parameter>
								<parameterid>mids</parameterid>
								<name>Mids</name>
								<valuemin>0</valuemin>
								<valuemax>200</valuemax>
								<value>104</value>
							</parameter>
							<parameter>
								<parameterid>blacklevel</parameterid>
								<name>Blacks</name>
								<valuemin>-196</valuemin>
								<valuemax>254</valuemax>
								<value>-6</value>
							</parameter>
							<parameter>
								<parameterid>label2</parameterid>
								<name>Color Balance</name>
								<value/>
							</parameter>
							<parameter>
								<parameterid>hue</parameterid>
								<name>Angle</name>
								<valuemin>-180</valuemin>
								<valuemax>180</valuemax>
								<value>-33</value>
							</parameter>
							<parameter>
								<parameterid>mag</parameterid>
								<name>Magnitude</name>
								<valuemin>0</valuemin>
								<valuemax>200</valuemax>
								<value>0</value>
							</parameter>
							<parameter>
								<parameterid>label4</parameterid>
								<name>Color Controls</name>
								<value/>
							</parameter>
							<parameter>
								<parameterid>chroma</parameterid>
								<name>Saturation</name>
								<valuemin>0</valuemin>
								<valuemax>200</valuemax>
								<value>100</value>
							</parameter>
							<parameter>
								<parameterid>phase</parameterid>
								<name>Phase shift</name>
								<valuemin>-180</valuemin>
								<valuemax>180</valuemax>
								<value>0</value>
							</parameter>
							<parameter>
								<parameterid>label5</parameterid>
								<name>Limit Effect Controls</name>
								<value/>
							</parameter>
							<parameter>
								<parameterid>dochroma</parameterid>
								<name>Limit on Chroma</name>
								<value>FALSE</value>
							</parameter>
							<parameter>
								<parameterid>centerang</parameterid>
								<name>Chroma Center</name>
								<valuemin>-760</valuemin>
								<valuemax>760</valuemax>
								<value>-110</value>
							</parameter>
							<parameter>
								<parameterid>chromawidth</parameterid>
								<name>Chroma Width</name>
								<valuemin>0</valuemin>
								<valuemax>360</valuemax>
								<value>15</value>
							</parameter>
							<parameter>
								<parameterid>chromasoft</parameterid>
								<name>Chroma Softness</name>
								<valuemin>0</valuemin>
								<valuemax>180</valuemax>
								<value>10</value>
							</parameter>
							<parameter>
								<parameterid>dosat</parameterid>
								<name>Limit on Saturation</name>
								<value>FALSE</value>
							</parameter>
							<parameter>
								<parameterid>satmin</parameterid>
								<name>Sat. Minimum</name>
								<valuemin>0</valuemin>
								<valuemax>125</valuemax>
								<value>35</value>
							</parameter>
							<parameter>
								<parameterid>satwidth</parameterid>
								<name>Sat. Width</name>
								<valuemin>0</valuemin>
								<valuemax>125</valuemax>
								<value>40</value>
							</parameter>
							<parameter>
								<parameterid>satsoft</parameterid>
								<name>Sat. Softness</name>
								<valuemin>0</valuemin>
								<valuemax>125</valuemax>
								<value>20</value>
							</parameter>
							<parameter>
								<parameterid>doluma</parameterid>
								<name>Limit on Luma</name>
								<value>FALSE</value>
							</parameter>
							<parameter>
								<parameterid>lumamin</parameterid>
								<name>Luma Minimum</name>
								<valuemin>0</valuemin>
								<valuemax>120</valuemax>
								<value>0</value>
							</parameter>
							<parameter>
								<parameterid>lumawidth</parameterid>
								<name>Luma Width</name>
								<valuemin>0</valuemin>
								<valuemax>120</valuemax>
								<value>40</value>
							</parameter>
							<parameter>
								<parameterid>lumasoft</parameterid>
								<name>Luma Softness</name>
								<valuemin>0</valuemin>
								<valuemax>120</valuemax>
								<value>20</value>
							</parameter>
							<parameter>
								<parameterid>label6</parameterid>
								<name>Edge Control</name>
								<value/>
							</parameter>
							<parameter>
								<parameterid>edgethin</parameterid>
								<name>Thin/Spread</name>
								<valuemin>-100</valuemin>
								<valuemax>100</valuemax>
								<value>0</value>
							</parameter>
							<parameter>
								<parameterid>edgefeather</parameterid>
								<name>Softening</name>
								<valuemin>0</valuemin>
								<valuemax>100</valuemax>
								<value>0</value>
							</parameter>
							<parameter>
								<parameterid>label7</parameterid>
								<name>Mask Control</name>
								<value/>
							</parameter>
							<parameter>
								<parameterid>invertsel</parameterid>
								<name>Invert</name>
								<value>FALSE</value>
							</parameter>
							<parameter>
								<parameterid>debugshow</parameterid>
								<name>Show Stats</name>
								<value>FALSE</value>
							</parameter>
						</effect>
					</filter>
					<sourcetrack>
						<mediatype>video</mediatype>
					</sourcetrack>
					<link>
						<linkclipref>MVI_3818 </linkclipref>
						<mediatype>video</mediatype>
						<trackindex>1</trackindex>
						<clipindex>5</clipindex>
					</link>
					<link>
						<linkclipref>MVI_3818 2</linkclipref>
						<mediatype>audio</mediatype>
						<trackindex>1</trackindex>
						<clipindex>5</clipindex>
						<groupindex>1</groupindex>
					</link>
					<link>
						<linkclipref>MVI_3818 3</linkclipref>
						<mediatype>audio</mediatype>
						<trackindex>2</trackindex>
						<clipindex>5</clipindex>
						<groupindex>1</groupindex>
					</link>
					<fielddominance>none</fielddominance>
					<itemhistory>
						<uuid>D7E4C944-FB17-43BB-9E24-BA4C371171C8</uuid>
					</itemhistory>
				</clipitem>
				<enabled>TRUE</enabled>
				<locked>FALSE</locked>
			</track>
			<track>
				<enabled>TRUE</enabled>
				<locked>FALSE</locked>
			</track>
		</video>
		<audio>
			<format>
				<samplecharacteristics>
					<depth>16</depth>
					<samplerate>48000</samplerate>
				</samplecharacteristics>
			</format>
			<outputs>
				<group>
					<index>1</index>
					<numchannels>2</numchannels>
					<downmix>0</downmix>
					<channel>
						<index>1</index>
					</channel>
					<channel>
						<index>2</index>
					</channel>
				</group>
			</outputs>
			<in>-1</in>
			<out>61082</out>
			<track>
				<clipitem id="MVI_3814 2">
					<name>MVI_3814</name>
					<duration>13333</duration>
					<rate>
						<ntsc>TRUE</ntsc>
						<timebase>24</timebase>
					</rate>
					<in>0</in>
					<out>13333</out>
					<start>0</start>
					<end>13333</end>
					<logginginfo>
						<scene/>
						<shottake/>
						<lognote/>
						<good>FALSE</good>
					</logginginfo>
					<labels>
						<label2/>
					</labels>
					<comments>
						<mastercomment1/>
						<mastercomment2/>
						<mastercomment3/>
						<mastercomment4/>
					</comments>
					<file id="MVI_3814 1"/>
					<marker>
						<name>actually interesting</name>
						<comment>data, data visualization,data,surprise,revelation,visualization</comment>
						<color>
							<alpha>0</alpha>
							<red>255</red>
							<green>0</green>
							<blue>0</blue>
						</color>
						<in>2269</in>
						<out>2746</out>
					</marker>
					<marker>
						<name>tool for others</name>
						<comment>participation,tools,social engagment,gift,people</comment>
						<color>
							<alpha>0</alpha>
							<red>255</red>
							<green>0</green>
							<blue>0</blue>
						</color>
						<in>3009</in>
						<out>3406</out>
					</marker>
					<marker>
						<name>trips</name>
						<comment>memory,data visualization,data ownership,souvenir, travel, personal, emotion, nostalgia</comment>
						<color>
							<alpha>0</alpha>
							<red>255</red>
							<green>0</green>
							<blue>0</blue>
						</color>
						<in>3443</in>
						<out>3989</out>
					</marker>
					<marker>
						<name>making things</name>
						<comment>physicality,3d printing,making things</comment>
						<color>
							<alpha>0</alpha>
							<red>255</red>
							<green>0</green>
							<blue>0</blue>
						</color>
						<in>4294</in>
						<out>5122</out>
					</marker>
					<marker>
						<name>frustrated about visualization</name>
						<comment>visualization,crisis,frustration,communication,complexity, career</comment>
						<color>
							<alpha>0</alpha>
							<red>255</red>
							<green>0</green>
							<blue>0</blue>
						</color>
						<in>6929</in>
						<out>7549</out>
					</marker>
					<marker>
						<name>digestibility</name>
						<comment>complexity,confusion,visualization,visual storytelling,communication,education,social engagment,society,public</comment>
						<color>
							<alpha>0</alpha>
							<red>255</red>
							<green>0</green>
							<blue>0</blue>
						</color>
						<in>9803</in>
						<out>10118</out>
					</marker>
					<marker>
						<name>tools for storytelling</name>
						<comment>people,storytelling,participation,social engagment,gift,tools</comment>
						<color>
							<alpha>0</alpha>
							<red>255</red>
							<green>0</green>
							<blue>0</blue>
						</color>
						<in>11403</in>
						<out>12363</out>
					</marker>
					<filter>
						<effect>
							<name>Audio Levels</name>
							<effectid>audiolevels</effectid>
							<effectcategory>audiolevels</effectcategory>
							<effecttype>audiolevels</effecttype>
							<mediatype>audio</mediatype>
							<parameter>
								<name>Level</name>
								<parameterid>level</parameterid>
								<valuemin>0</valuemin>
								<valuemax>3.98109</valuemax>
								<value>1</value>
							</parameter>
						</effect>
					</filter>
					<filter>
						<effect>
							<name>Audio Pan</name>
							<effectid>audiopan</effectid>
							<effectcategory>audiopan</effectcategory>
							<effecttype>audiopan</effecttype>
							<mediatype>audio</mediatype>
							<parameter>
								<name>Pan</name>
								<parameterid>pan</parameterid>
								<valuemin>-1</valuemin>
								<valuemax>1</valuemax>
								<value>-1</value>
							</parameter>
						</effect>
					</filter>
					<sourcetrack>
						<mediatype>audio</mediatype>
						<trackindex>1</trackindex>
					</sourcetrack>
					<link>
						<linkclipref>MVI_3814 </linkclipref>
						<mediatype>video</mediatype>
						<trackindex>1</trackindex>
						<clipindex>1</clipindex>
					</link>
					<link>
						<linkclipref>MVI_3814 2</linkclipref>
						<mediatype>audio</mediatype>
						<trackindex>1</trackindex>
						<clipindex>1</clipindex>
						<groupindex>1</groupindex>
					</link>
					<link>
						<linkclipref>MVI_3814 3</linkclipref>
						<mediatype>audio</mediatype>
						<trackindex>2</trackindex>
						<clipindex>1</clipindex>
						<groupindex>1</groupindex>
					</link>
					<itemhistory>
						<uuid>846F47E0-4187-4147-963B-59B9664DA5CD</uuid>
						<uuid>432FDBF7-15E9-49BF-A672-FE062068B802</uuid>
					</itemhistory>
				</clipitem>
				<clipitem id="MVI_3815 2">
					<name>MVI_3815</name>
					<duration>17472</duration>
					<rate>
						<ntsc>TRUE</ntsc>
						<timebase>24</timebase>
					</rate>
					<in>0</in>
					<out>17472</out>
					<start>13333</start>
					<end>30805</end>
					<enabled>TRUE</enabled>
					<logginginfo>
						<scene/>
						<shottake/>
						<lognote/>
						<good>FALSE</good>
					</logginginfo>
					<labels>
						<label2/>
					</labels>
					<comments>
						<mastercomment1/>
						<mastercomment2/>
						<mastercomment3/>
						<mastercomment4/>
					</comments>
					<file id="MVI_3815 1"/>
					<marker>
						<name>women in tech</name>
						<comment>gender gap, women, </comment>
						<color>
							<alpha>0</alpha>
							<red>255</red>
							<green>0</green>
							<blue>0</blue>
						</color>
						<in>15422</in>
						<out>15979</out>
					</marker>
					<marker>
						<name>glass ceiling</name>
						<comment>women,gender gap</comment>
						<color>
							<alpha>0</alpha>
							<red>255</red>
							<green>0</green>
							<blue>0</blue>
						</color>
						<in>16248</in>
						<out>16774</out>
					</marker>
					<marker>
						<name>creative coding is more diverse</name>
						<comment>women,gender gap</comment>
						<color>
							<alpha>0</alpha>
							<red>255</red>
							<green>0</green>
							<blue>0</blue>
						</color>
						<in>17106</in>
						<out>17421</out>
					</marker>
					<filter>
						<effect>
							<name>Audio Levels</name>
							<effectid>audiolevels</effectid>
							<effectcategory>audiolevels</effectcategory>
							<effecttype>audiolevels</effecttype>
							<mediatype>audio</mediatype>
							<parameter>
								<name>Level</name>
								<parameterid>level</parameterid>
								<valuemin>0</valuemin>
								<valuemax>3.98109</valuemax>
								<value>1</value>
							</parameter>
						</effect>
					</filter>
					<filter>
						<effect>
							<name>Audio Pan</name>
							<effectid>audiopan</effectid>
							<effectcategory>audiopan</effectcategory>
							<effecttype>audiopan</effecttype>
							<mediatype>audio</mediatype>
							<parameter>
								<name>Pan</name>
								<parameterid>pan</parameterid>
								<valuemin>-1</valuemin>
								<valuemax>1</valuemax>
								<value>-1</value>
							</parameter>
						</effect>
					</filter>
					<sourcetrack>
						<mediatype>audio</mediatype>
						<trackindex>1</trackindex>
					</sourcetrack>
					<link>
						<linkclipref>MVI_3815 </linkclipref>
						<mediatype>video</mediatype>
						<trackindex>1</trackindex>
						<clipindex>2</clipindex>
					</link>
					<link>
						<linkclipref>MVI_3815 2</linkclipref>
						<mediatype>audio</mediatype>
						<trackindex>1</trackindex>
						<clipindex>2</clipindex>
						<groupindex>1</groupindex>
					</link>
					<link>
						<linkclipref>MVI_3815 3</linkclipref>
						<mediatype>audio</mediatype>
						<trackindex>2</trackindex>
						<clipindex>2</clipindex>
						<groupindex>1</groupindex>
					</link>
					<itemhistory>
						<uuid>99E52E82-01CC-4FA3-9044-D020B59A7334</uuid>
						<uuid>FF284EAC-276B-4052-9538-68809B2E1AD4</uuid>
					</itemhistory>
				</clipitem>
				<clipitem id="MVI_3816 2">
					<name>MVI_3816</name>
					<duration>8880</duration>
					<rate>
						<ntsc>TRUE</ntsc>
						<timebase>24</timebase>
					</rate>
					<in>0</in>
					<out>8880</out>
					<start>30805</start>
					<end>39685</end>
					<logginginfo>
						<scene/>
						<shottake/>
						<lognote/>
						<good>FALSE</good>
					</logginginfo>
					<labels>
						<label2/>
					</labels>
					<comments>
						<mastercomment1/>
						<mastercomment2/>
						<mastercomment3/>
						<mastercomment4/>
					</comments>
					<file id="MVI_3816 1"/>
					<marker>
						<name>Marker 1</name>
						<comment/>
						<color>
							<alpha>0</alpha>
							<red>255</red>
							<green>0</green>
							<blue>0</blue>
						</color>
						<in>1141</in>
						<out>1911</out>
					</marker>
					<marker>
						<name>Marker 2</name>
						<comment/>
						<color>
							<alpha>0</alpha>
							<red>255</red>
							<green>0</green>
							<blue>0</blue>
						</color>
						<in>3340</in>
						<out>4348</out>
					</marker>
					<marker>
						<name>programming is a superpower</name>
						<comment>programming, power, creativity, invention</comment>
						<color>
							<alpha>0</alpha>
							<red>255</red>
							<green>0</green>
							<blue>0</blue>
						</color>
						<in>7170</in>
						<out>7276</out>
					</marker>
					<filter>
						<effect>
							<name>Audio Levels</name>
							<effectid>audiolevels</effectid>
							<effectcategory>audiolevels</effectcategory>
							<effecttype>audiolevels</effecttype>
							<mediatype>audio</mediatype>
							<parameter>
								<name>Level</name>
								<parameterid>level</parameterid>
								<valuemin>0</valuemin>
								<valuemax>3.98109</valuemax>
								<value>1</value>
							</parameter>
						</effect>
					</filter>
					<filter>
						<effect>
							<name>Audio Pan</name>
							<effectid>audiopan</effectid>
							<effectcategory>audiopan</effectcategory>
							<effecttype>audiopan</effecttype>
							<mediatype>audio</mediatype>
							<parameter>
								<name>Pan</name>
								<parameterid>pan</parameterid>
								<valuemin>-1</valuemin>
								<valuemax>1</valuemax>
								<value>-1</value>
							</parameter>
						</effect>
					</filter>
					<sourcetrack>
						<mediatype>audio</mediatype>
						<trackindex>1</trackindex>
					</sourcetrack>
					<link>
						<linkclipref>MVI_3816 </linkclipref>
						<mediatype>video</mediatype>
						<trackindex>1</trackindex>
						<clipindex>3</clipindex>
					</link>
					<link>
						<linkclipref>MVI_3816 2</linkclipref>
						<mediatype>audio</mediatype>
						<trackindex>1</trackindex>
						<clipindex>3</clipindex>
						<groupindex>1</groupindex>
					</link>
					<link>
						<linkclipref>MVI_3816 3</linkclipref>
						<mediatype>audio</mediatype>
						<trackindex>2</trackindex>
						<clipindex>3</clipindex>
						<groupindex>1</groupindex>
					</link>
					<itemhistory>
						<uuid>BCF3AFF8-0A1F-46E0-96C5-C6473547F603</uuid>
					</itemhistory>
				</clipitem>
				<clipitem id="MVI_3817 2">
					<name>MVI_3817</name>
					<duration>15636</duration>
					<rate>
						<ntsc>TRUE</ntsc>
						<timebase>24</timebase>
					</rate>
					<in>0</in>
					<out>15636</out>
					<start>39685</start>
					<end>55321</end>
					<logginginfo>
						<scene/>
						<shottake/>
						<lognote/>
						<good>FALSE</good>
					</logginginfo>
					<labels>
						<label2/>
					</labels>
					<comments>
						<mastercomment1/>
						<mastercomment2/>
						<mastercomment3/>
						<mastercomment4/>
					</comments>
					<file id="MVI_3817 1"/>
					<marker>
						<name>tech fracturing</name>
						<comment>specialization, programming, learning, technological progress</comment>
						<color>
							<alpha>0</alpha>
							<red>255</red>
							<green>0</green>
							<blue>0</blue>
						</color>
						<in>277</in>
						<out>628</out>
					</marker>
					<marker>
						<name>skillshare</name>
						<comment>learning, community, sharing, </comment>
						<color>
							<alpha>0</alpha>
							<red>255</red>
							<green>0</green>
							<blue>0</blue>
						</color>
						<in>2088</in>
						<out>2469</out>
					</marker>
					<marker>
						<name>learning</name>
						<comment>learning, community, sharing, </comment>
						<color>
							<alpha>0</alpha>
							<red>255</red>
							<green>0</green>
							<blue>0</blue>
						</color>
						<in>2748</in>
						<out>3830</out>
					</marker>
					<marker>
						<name>learning with others</name>
						<comment>learning, community, sharing,</comment>
						<color>
							<alpha>0</alpha>
							<red>255</red>
							<green>0</green>
							<blue>0</blue>
						</color>
						<in>4261</in>
						<out>4364</out>
					</marker>
					<marker>
						<name>big data</name>
						<comment>data visualization,data ownership,big data</comment>
						<color>
							<alpha>0</alpha>
							<red>255</red>
							<green>0</green>
							<blue>0</blue>
						</color>
						<in>5147</in>
						<out>5764</out>
					</marker>
					<marker>
						<name>field of data vis</name>
						<comment>data visualization, communication, visualization, </comment>
						<color>
							<alpha>0</alpha>
							<red>255</red>
							<green>0</green>
							<blue>0</blue>
						</color>
						<in>6587</in>
						<out>7258</out>
					</marker>
					<marker>
						<name>technoutopian</name>
						<comment>technological progress,technoptimism,utopia</comment>
						<color>
							<alpha>0</alpha>
							<red>255</red>
							<green>0</green>
							<blue>0</blue>
						</color>
						<in>9307</in>
						<out>9613</out>
					</marker>
					<marker>
						<name>changing the world</name>
						<comment>technological progress,technoptimism,utopia, progress,&#13;society, problem-solving, change, hope</comment>
						<color>
							<alpha>0</alpha>
							<red>255</red>
							<green>0</green>
							<blue>0</blue>
						</color>
						<in>10570</in>
						<out>10834</out>
					</marker>
					<marker>
						<name>art and culture </name>
						<comment>society, culture, art, progress, </comment>
						<color>
							<alpha>0</alpha>
							<red>255</red>
							<green>0</green>
							<blue>0</blue>
						</color>
						<in>12386</in>
						<out>13224</out>
					</marker>
					<marker>
						<name>art for money</name>
						<comment>commercialism,&#13;art,life and work,art versus engineering, business, passion&#13;</comment>
						<color>
							<alpha>0</alpha>
							<red>255</red>
							<green>0</green>
							<blue>0</blue>
						</color>
						<in>13239</in>
						<out>14194</out>
					</marker>
					<filter>
						<effect>
							<name>Audio Levels</name>
							<effectid>audiolevels</effectid>
							<effectcategory>audiolevels</effectcategory>
							<effecttype>audiolevels</effecttype>
							<mediatype>audio</mediatype>
							<parameter>
								<name>Level</name>
								<parameterid>level</parameterid>
								<valuemin>0</valuemin>
								<valuemax>3.98109</valuemax>
								<value>1</value>
							</parameter>
						</effect>
					</filter>
					<filter>
						<effect>
							<name>Audio Pan</name>
							<effectid>audiopan</effectid>
							<effectcategory>audiopan</effectcategory>
							<effecttype>audiopan</effecttype>
							<mediatype>audio</mediatype>
							<parameter>
								<name>Pan</name>
								<parameterid>pan</parameterid>
								<valuemin>-1</valuemin>
								<valuemax>1</valuemax>
								<value>-1</value>
							</parameter>
						</effect>
					</filter>
					<sourcetrack>
						<mediatype>audio</mediatype>
						<trackindex>1</trackindex>
					</sourcetrack>
					<link>
						<linkclipref>MVI_3817 </linkclipref>
						<mediatype>video</mediatype>
						<trackindex>1</trackindex>
						<clipindex>4</clipindex>
					</link>
					<link>
						<linkclipref>MVI_3817 2</linkclipref>
						<mediatype>audio</mediatype>
						<trackindex>1</trackindex>
						<clipindex>4</clipindex>
						<groupindex>1</groupindex>
					</link>
					<link>
						<linkclipref>MVI_3817 3</linkclipref>
						<mediatype>audio</mediatype>
						<trackindex>2</trackindex>
						<clipindex>4</clipindex>
						<groupindex>1</groupindex>
					</link>
					<itemhistory>
						<uuid>379F96EB-4686-4242-A997-661263AB9763</uuid>
						<uuid>3365CB9B-4889-4CEB-9C66-17D736C7F631</uuid>
					</itemhistory>
				</clipitem>
				<clipitem id="MVI_3818 2">
					<name>MVI_3818</name>
					<duration>5760</duration>
					<rate>
						<ntsc>TRUE</ntsc>
						<timebase>24</timebase>
					</rate>
					<in>0</in>
					<out>5760</out>
					<start>55321</start>
					<end>61081</end>
					<logginginfo>
						<scene/>
						<shottake/>
						<lognote/>
						<good>FALSE</good>
					</logginginfo>
					<labels>
						<label2/>
					</labels>
					<comments>
						<mastercomment1/>
						<mastercomment2/>
						<mastercomment3/>
						<mastercomment4/>
					</comments>
					<file id="MVI_3818 1"/>
					<marker>
						<name>hybridity</name>
						<comment>hybridity,interdisciplinary,knowledge,learning</comment>
						<color>
							<alpha>0</alpha>
							<red>255</red>
							<green>0</green>
							<blue>0</blue>
						</color>
						<in>236</in>
						<out>733</out>
					</marker>
					<marker>
						<name>Background</name>
						<comment>hybridity,interdisciplinary,knowledge,learning, beginnings, tribe, creative coders&#13;</comment>
						<color>
							<alpha>0</alpha>
							<red>255</red>
							<green>0</green>
							<blue>0</blue>
						</color>
						<in>773</in>
						<out>1134</out>
					</marker>
					<marker>
						<name>there was no degree</name>
						<comment>hybridity,interdisciplinary,knowledge,learning, education, architecture, creative coding, creative coders&#13;</comment>
						<color>
							<alpha>0</alpha>
							<red>255</red>
							<green>0</green>
							<blue>0</blue>
						</color>
						<in>1924</in>
						<out>2309</out>
					</marker>
					<marker>
						<name>geodata</name>
						<comment>maps, GPS, big data</comment>
						<color>
							<alpha>0</alpha>
							<red>255</red>
							<green>0</green>
							<blue>0</blue>
						</color>
						<in>3882</in>
						<out>4455</out>
					</marker>
					<filter>
						<effect>
							<name>Audio Levels</name>
							<effectid>audiolevels</effectid>
							<effectcategory>audiolevels</effectcategory>
							<effecttype>audiolevels</effecttype>
							<mediatype>audio</mediatype>
							<parameter>
								<name>Level</name>
								<parameterid>level</parameterid>
								<valuemin>0</valuemin>
								<valuemax>3.98109</valuemax>
								<value>1</value>
							</parameter>
						</effect>
					</filter>
					<filter>
						<effect>
							<name>Audio Pan</name>
							<effectid>audiopan</effectid>
							<effectcategory>audiopan</effectcategory>
							<effecttype>audiopan</effecttype>
							<mediatype>audio</mediatype>
							<parameter>
								<name>Pan</name>
								<parameterid>pan</parameterid>
								<valuemin>-1</valuemin>
								<valuemax>1</valuemax>
								<value>-1</value>
							</parameter>
						</effect>
					</filter>
					<sourcetrack>
						<mediatype>audio</mediatype>
						<trackindex>1</trackindex>
					</sourcetrack>
					<link>
						<linkclipref>MVI_3818 </linkclipref>
						<mediatype>video</mediatype>
						<trackindex>1</trackindex>
						<clipindex>5</clipindex>
					</link>
					<link>
						<linkclipref>MVI_3818 2</linkclipref>
						<mediatype>audio</mediatype>
						<trackindex>1</trackindex>
						<clipindex>5</clipindex>
						<groupindex>1</groupindex>
					</link>
					<link>
						<linkclipref>MVI_3818 3</linkclipref>
						<mediatype>audio</mediatype>
						<trackindex>2</trackindex>
						<clipindex>5</clipindex>
						<groupindex>1</groupindex>
					</link>
					<itemhistory>
						<uuid>34DEB783-B154-4BB4-AD3E-169FD2F2175A</uuid>
					</itemhistory>
				</clipitem>
				<enabled>FALSE</enabled>
				<locked>FALSE</locked>
				<outputchannelindex>1</outputchannelindex>
			</track>
			<track>
				<clipitem id="MVI_3814 3">
					<name>MVI_3814</name>
					<duration>13333</duration>
					<rate>
						<ntsc>TRUE</ntsc>
						<timebase>24</timebase>
					</rate>
					<in>0</in>
					<out>13333</out>
					<start>0</start>
					<end>13333</end>
					<logginginfo>
						<scene/>
						<shottake/>
						<lognote/>
						<good>FALSE</good>
					</logginginfo>
					<labels>
						<label2/>
					</labels>
					<comments>
						<mastercomment1/>
						<mastercomment2/>
						<mastercomment3/>
						<mastercomment4/>
					</comments>
					<file id="MVI_3814 1"/>
					<marker>
						<name>actually interesting</name>
						<comment>data, data visualization,data,surprise,revelation,visualization</comment>
						<color>
							<alpha>0</alpha>
							<red>255</red>
							<green>0</green>
							<blue>0</blue>
						</color>
						<in>2269</in>
						<out>2746</out>
					</marker>
					<marker>
						<name>tool for others</name>
						<comment>participation,tools,social engagment,gift,people</comment>
						<color>
							<alpha>0</alpha>
							<red>255</red>
							<green>0</green>
							<blue>0</blue>
						</color>
						<in>3009</in>
						<out>3406</out>
					</marker>
					<marker>
						<name>trips</name>
						<comment>memory,data visualization,data ownership,souvenir, travel, personal, emotion, nostalgia</comment>
						<color>
							<alpha>0</alpha>
							<red>255</red>
							<green>0</green>
							<blue>0</blue>
						</color>
						<in>3443</in>
						<out>3989</out>
					</marker>
					<marker>
						<name>making things</name>
						<comment>physicality,3d printing,making things</comment>
						<color>
							<alpha>0</alpha>
							<red>255</red>
							<green>0</green>
							<blue>0</blue>
						</color>
						<in>4294</in>
						<out>5122</out>
					</marker>
					<marker>
						<name>frustrated about visualization</name>
						<comment>visualization,crisis,frustration,communication,complexity, career</comment>
						<color>
							<alpha>0</alpha>
							<red>255</red>
							<green>0</green>
							<blue>0</blue>
						</color>
						<in>6929</in>
						<out>7549</out>
					</marker>
					<marker>
						<name>digestibility</name>
						<comment>complexity,confusion,visualization,visual storytelling,communication,education,social engagment,society,public</comment>
						<color>
							<alpha>0</alpha>
							<red>255</red>
							<green>0</green>
							<blue>0</blue>
						</color>
						<in>9803</in>
						<out>10118</out>
					</marker>
					<marker>
						<name>tools for storytelling</name>
						<comment>people,storytelling,participation,social engagment,gift,tools</comment>
						<color>
							<alpha>0</alpha>
							<red>255</red>
							<green>0</green>
							<blue>0</blue>
						</color>
						<in>11403</in>
						<out>12363</out>
					</marker>
					<filter>
						<effect>
							<name>Audio Levels</name>
							<effectid>audiolevels</effectid>
							<effectcategory>audiolevels</effectcategory>
							<effecttype>audiolevels</effecttype>
							<mediatype>audio</mediatype>
							<parameter>
								<name>Level</name>
								<parameterid>level</parameterid>
								<valuemin>0</valuemin>
								<valuemax>3.98109</valuemax>
								<value>1</value>
							</parameter>
						</effect>
					</filter>
					<filter>
						<effect>
							<name>Audio Pan</name>
							<effectid>audiopan</effectid>
							<effectcategory>audiopan</effectcategory>
							<effecttype>audiopan</effecttype>
							<mediatype>audio</mediatype>
							<parameter>
								<name>Pan</name>
								<parameterid>pan</parameterid>
								<valuemin>-1</valuemin>
								<valuemax>1</valuemax>
								<value>1</value>
							</parameter>
						</effect>
					</filter>
					<sourcetrack>
						<mediatype>audio</mediatype>
						<trackindex>2</trackindex>
					</sourcetrack>
					<link>
						<linkclipref>MVI_3814 </linkclipref>
						<mediatype>video</mediatype>
						<trackindex>1</trackindex>
						<clipindex>1</clipindex>
					</link>
					<link>
						<linkclipref>MVI_3814 2</linkclipref>
						<mediatype>audio</mediatype>
						<trackindex>1</trackindex>
						<clipindex>1</clipindex>
						<groupindex>1</groupindex>
					</link>
					<link>
						<linkclipref>MVI_3814 3</linkclipref>
						<mediatype>audio</mediatype>
						<trackindex>2</trackindex>
						<clipindex>1</clipindex>
						<groupindex>1</groupindex>
					</link>
					<itemhistory>
						<uuid>946F6ECD-1FCD-4B24-A10A-3DB2070F8C70</uuid>
						<uuid>6896CA57-B3FE-4A23-9046-BE15CA0A2D4A</uuid>
					</itemhistory>
				</clipitem>
				<clipitem id="MVI_3815 3">
					<name>MVI_3815</name>
					<duration>17472</duration>
					<rate>
						<ntsc>TRUE</ntsc>
						<timebase>24</timebase>
					</rate>
					<in>0</in>
					<out>17472</out>
					<start>13333</start>
					<end>30805</end>
					<enabled>TRUE</enabled>
					<logginginfo>
						<scene/>
						<shottake/>
						<lognote/>
						<good>FALSE</good>
					</logginginfo>
					<labels>
						<label2/>
					</labels>
					<comments>
						<mastercomment1/>
						<mastercomment2/>
						<mastercomment3/>
						<mastercomment4/>
					</comments>
					<file id="MVI_3815 1"/>
					<marker>
						<name>women in tech</name>
						<comment>gender gap, women, </comment>
						<color>
							<alpha>0</alpha>
							<red>255</red>
							<green>0</green>
							<blue>0</blue>
						</color>
						<in>15422</in>
						<out>15979</out>
					</marker>
					<marker>
						<name>glass ceiling</name>
						<comment>women,gender gap</comment>
						<color>
							<alpha>0</alpha>
							<red>255</red>
							<green>0</green>
							<blue>0</blue>
						</color>
						<in>16248</in>
						<out>16774</out>
					</marker>
					<marker>
						<name>creative coding is more diverse</name>
						<comment>women,gender gap</comment>
						<color>
							<alpha>0</alpha>
							<red>255</red>
							<green>0</green>
							<blue>0</blue>
						</color>
						<in>17106</in>
						<out>17421</out>
					</marker>
					<filter>
						<effect>
							<name>Audio Levels</name>
							<effectid>audiolevels</effectid>
							<effectcategory>audiolevels</effectcategory>
							<effecttype>audiolevels</effecttype>
							<mediatype>audio</mediatype>
							<parameter>
								<name>Level</name>
								<parameterid>level</parameterid>
								<valuemin>0</valuemin>
								<valuemax>3.98109</valuemax>
								<value>1</value>
							</parameter>
						</effect>
					</filter>
					<filter>
						<effect>
							<name>Audio Pan</name>
							<effectid>audiopan</effectid>
							<effectcategory>audiopan</effectcategory>
							<effecttype>audiopan</effecttype>
							<mediatype>audio</mediatype>
							<parameter>
								<name>Pan</name>
								<parameterid>pan</parameterid>
								<valuemin>-1</valuemin>
								<valuemax>1</valuemax>
								<value>1</value>
							</parameter>
						</effect>
					</filter>
					<sourcetrack>
						<mediatype>audio</mediatype>
						<trackindex>2</trackindex>
					</sourcetrack>
					<link>
						<linkclipref>MVI_3815 </linkclipref>
						<mediatype>video</mediatype>
						<trackindex>1</trackindex>
						<clipindex>2</clipindex>
					</link>
					<link>
						<linkclipref>MVI_3815 2</linkclipref>
						<mediatype>audio</mediatype>
						<trackindex>1</trackindex>
						<clipindex>2</clipindex>
						<groupindex>1</groupindex>
					</link>
					<link>
						<linkclipref>MVI_3815 3</linkclipref>
						<mediatype>audio</mediatype>
						<trackindex>2</trackindex>
						<clipindex>2</clipindex>
						<groupindex>1</groupindex>
					</link>
					<itemhistory>
						<uuid>A030BC87-16C7-4BF4-9DA5-60841C18A03C</uuid>
						<uuid>6FBF75F7-DA22-45E2-8446-72B2022A3EF8</uuid>
					</itemhistory>
				</clipitem>
				<clipitem id="MVI_3816 3">
					<name>MVI_3816</name>
					<duration>8880</duration>
					<rate>
						<ntsc>TRUE</ntsc>
						<timebase>24</timebase>
					</rate>
					<in>0</in>
					<out>8880</out>
					<start>30805</start>
					<end>39685</end>
					<logginginfo>
						<scene/>
						<shottake/>
						<lognote/>
						<good>FALSE</good>
					</logginginfo>
					<labels>
						<label2/>
					</labels>
					<comments>
						<mastercomment1/>
						<mastercomment2/>
						<mastercomment3/>
						<mastercomment4/>
					</comments>
					<file id="MVI_3816 1"/>
					<marker>
						<name>Marker 1</name>
						<comment/>
						<color>
							<alpha>0</alpha>
							<red>255</red>
							<green>0</green>
							<blue>0</blue>
						</color>
						<in>1141</in>
						<out>1911</out>
					</marker>
					<marker>
						<name>Marker 2</name>
						<comment/>
						<color>
							<alpha>0</alpha>
							<red>255</red>
							<green>0</green>
							<blue>0</blue>
						</color>
						<in>3340</in>
						<out>4348</out>
					</marker>
					<marker>
						<name>programming is a superpower</name>
						<comment>programming, power, creativity, invention</comment>
						<color>
							<alpha>0</alpha>
							<red>255</red>
							<green>0</green>
							<blue>0</blue>
						</color>
						<in>7170</in>
						<out>7276</out>
					</marker>
					<filter>
						<effect>
							<name>Audio Levels</name>
							<effectid>audiolevels</effectid>
							<effectcategory>audiolevels</effectcategory>
							<effecttype>audiolevels</effecttype>
							<mediatype>audio</mediatype>
							<parameter>
								<name>Level</name>
								<parameterid>level</parameterid>
								<valuemin>0</valuemin>
								<valuemax>3.98109</valuemax>
								<value>1</value>
							</parameter>
						</effect>
					</filter>
					<filter>
						<effect>
							<name>Audio Pan</name>
							<effectid>audiopan</effectid>
							<effectcategory>audiopan</effectcategory>
							<effecttype>audiopan</effecttype>
							<mediatype>audio</mediatype>
							<parameter>
								<name>Pan</name>
								<parameterid>pan</parameterid>
								<valuemin>-1</valuemin>
								<valuemax>1</valuemax>
								<value>1</value>
							</parameter>
						</effect>
					</filter>
					<sourcetrack>
						<mediatype>audio</mediatype>
						<trackindex>2</trackindex>
					</sourcetrack>
					<link>
						<linkclipref>MVI_3816 </linkclipref>
						<mediatype>video</mediatype>
						<trackindex>1</trackindex>
						<clipindex>3</clipindex>
					</link>
					<link>
						<linkclipref>MVI_3816 2</linkclipref>
						<mediatype>audio</mediatype>
						<trackindex>1</trackindex>
						<clipindex>3</clipindex>
						<groupindex>1</groupindex>
					</link>
					<link>
						<linkclipref>MVI_3816 3</linkclipref>
						<mediatype>audio</mediatype>
						<trackindex>2</trackindex>
						<clipindex>3</clipindex>
						<groupindex>1</groupindex>
					</link>
					<itemhistory>
						<uuid>397939AF-8E51-4E89-AEAC-08B15ED96F1A</uuid>
					</itemhistory>
				</clipitem>
				<clipitem id="MVI_3817 3">
					<name>MVI_3817</name>
					<duration>15636</duration>
					<rate>
						<ntsc>TRUE</ntsc>
						<timebase>24</timebase>
					</rate>
					<in>0</in>
					<out>15636</out>
					<start>39685</start>
					<end>55321</end>
					<logginginfo>
						<scene/>
						<shottake/>
						<lognote/>
						<good>FALSE</good>
					</logginginfo>
					<labels>
						<label2/>
					</labels>
					<comments>
						<mastercomment1/>
						<mastercomment2/>
						<mastercomment3/>
						<mastercomment4/>
					</comments>
					<file id="MVI_3817 1"/>
					<marker>
						<name>tech fracturing</name>
						<comment>specialization, programming, learning, technological progress</comment>
						<color>
							<alpha>0</alpha>
							<red>255</red>
							<green>0</green>
							<blue>0</blue>
						</color>
						<in>277</in>
						<out>628</out>
					</marker>
					<marker>
						<name>skillshare</name>
						<comment>learning, community, sharing, </comment>
						<color>
							<alpha>0</alpha>
							<red>255</red>
							<green>0</green>
							<blue>0</blue>
						</color>
						<in>2088</in>
						<out>2469</out>
					</marker>
					<marker>
						<name>learning</name>
						<comment>learning, community, sharing, </comment>
						<color>
							<alpha>0</alpha>
							<red>255</red>
							<green>0</green>
							<blue>0</blue>
						</color>
						<in>2748</in>
						<out>3830</out>
					</marker>
					<marker>
						<name>learning with others</name>
						<comment>learning, community, sharing,</comment>
						<color>
							<alpha>0</alpha>
							<red>255</red>
							<green>0</green>
							<blue>0</blue>
						</color>
						<in>4261</in>
						<out>4364</out>
					</marker>
					<marker>
						<name>big data</name>
						<comment>data visualization,data ownership,big data</comment>
						<color>
							<alpha>0</alpha>
							<red>255</red>
							<green>0</green>
							<blue>0</blue>
						</color>
						<in>5147</in>
						<out>5764</out>
					</marker>
					<marker>
						<name>field of data vis</name>
						<comment>data visualization, communication, visualization, </comment>
						<color>
							<alpha>0</alpha>
							<red>255</red>
							<green>0</green>
							<blue>0</blue>
						</color>
						<in>6587</in>
						<out>7258</out>
					</marker>
					<marker>
						<name>technoutopian</name>
						<comment>technological progress,technoptimism,utopia</comment>
						<color>
							<alpha>0</alpha>
							<red>255</red>
							<green>0</green>
							<blue>0</blue>
						</color>
						<in>9307</in>
						<out>9613</out>
					</marker>
					<marker>
						<name>changing the world</name>
						<comment>technological progress,technoptimism,utopia, progress,&#13;society, problem-solving, change, hope</comment>
						<color>
							<alpha>0</alpha>
							<red>255</red>
							<green>0</green>
							<blue>0</blue>
						</color>
						<in>10570</in>
						<out>10834</out>
					</marker>
					<marker>
						<name>art and culture </name>
						<comment>society, culture, art, progress, </comment>
						<color>
							<alpha>0</alpha>
							<red>255</red>
							<green>0</green>
							<blue>0</blue>
						</color>
						<in>12386</in>
						<out>13224</out>
					</marker>
					<marker>
						<name>art for money</name>
						<comment>commercialism,&#13;art,life and work,art versus engineering, business, passion&#13;</comment>
						<color>
							<alpha>0</alpha>
							<red>255</red>
							<green>0</green>
							<blue>0</blue>
						</color>
						<in>13239</in>
						<out>14194</out>
					</marker>
					<filter>
						<effect>
							<name>Audio Levels</name>
							<effectid>audiolevels</effectid>
							<effectcategory>audiolevels</effectcategory>
							<effecttype>audiolevels</effecttype>
							<mediatype>audio</mediatype>
							<parameter>
								<name>Level</name>
								<parameterid>level</parameterid>
								<valuemin>0</valuemin>
								<valuemax>3.98109</valuemax>
								<value>1</value>
							</parameter>
						</effect>
					</filter>
					<filter>
						<effect>
							<name>Audio Pan</name>
							<effectid>audiopan</effectid>
							<effectcategory>audiopan</effectcategory>
							<effecttype>audiopan</effecttype>
							<mediatype>audio</mediatype>
							<parameter>
								<name>Pan</name>
								<parameterid>pan</parameterid>
								<valuemin>-1</valuemin>
								<valuemax>1</valuemax>
								<value>1</value>
							</parameter>
						</effect>
					</filter>
					<sourcetrack>
						<mediatype>audio</mediatype>
						<trackindex>2</trackindex>
					</sourcetrack>
					<link>
						<linkclipref>MVI_3817 </linkclipref>
						<mediatype>video</mediatype>
						<trackindex>1</trackindex>
						<clipindex>4</clipindex>
					</link>
					<link>
						<linkclipref>MVI_3817 2</linkclipref>
						<mediatype>audio</mediatype>
						<trackindex>1</trackindex>
						<clipindex>4</clipindex>
						<groupindex>1</groupindex>
					</link>
					<link>
						<linkclipref>MVI_3817 3</linkclipref>
						<mediatype>audio</mediatype>
						<trackindex>2</trackindex>
						<clipindex>4</clipindex>
						<groupindex>1</groupindex>
					</link>
					<itemhistory>
						<uuid>27ABC286-C16E-4280-950C-2AFE5E242CC8</uuid>
						<uuid>94FB785F-41FB-46A5-BBA8-984510C0661F</uuid>
					</itemhistory>
				</clipitem>
				<clipitem id="MVI_3818 3">
					<name>MVI_3818</name>
					<duration>5760</duration>
					<rate>
						<ntsc>TRUE</ntsc>
						<timebase>24</timebase>
					</rate>
					<in>0</in>
					<out>5760</out>
					<start>55321</start>
					<end>61081</end>
					<logginginfo>
						<scene/>
						<shottake/>
						<lognote/>
						<good>FALSE</good>
					</logginginfo>
					<labels>
						<label2/>
					</labels>
					<comments>
						<mastercomment1/>
						<mastercomment2/>
						<mastercomment3/>
						<mastercomment4/>
					</comments>
					<file id="MVI_3818 1"/>
					<marker>
						<name>hybridity</name>
						<comment>hybridity,interdisciplinary,knowledge,learning</comment>
						<color>
							<alpha>0</alpha>
							<red>255</red>
							<green>0</green>
							<blue>0</blue>
						</color>
						<in>236</in>
						<out>733</out>
					</marker>
					<marker>
						<name>Background</name>
						<comment>hybridity,interdisciplinary,knowledge,learning, beginnings, tribe, creative coders&#13;</comment>
						<color>
							<alpha>0</alpha>
							<red>255</red>
							<green>0</green>
							<blue>0</blue>
						</color>
						<in>773</in>
						<out>1134</out>
					</marker>
					<marker>
						<name>there was no degree</name>
						<comment>hybridity,interdisciplinary,knowledge,learning, education, architecture, creative coding, creative coders&#13;</comment>
						<color>
							<alpha>0</alpha>
							<red>255</red>
							<green>0</green>
							<blue>0</blue>
						</color>
						<in>1924</in>
						<out>2309</out>
					</marker>
					<marker>
						<name>geodata</name>
						<comment>maps, GPS, big data</comment>
						<color>
							<alpha>0</alpha>
							<red>255</red>
							<green>0</green>
							<blue>0</blue>
						</color>
						<in>3882</in>
						<out>4455</out>
					</marker>
					<filter>
						<effect>
							<name>Audio Levels</name>
							<effectid>audiolevels</effectid>
							<effectcategory>audiolevels</effectcategory>
							<effecttype>audiolevels</effecttype>
							<mediatype>audio</mediatype>
							<parameter>
								<name>Level</name>
								<parameterid>level</parameterid>
								<valuemin>0</valuemin>
								<valuemax>3.98109</valuemax>
								<value>1</value>
							</parameter>
						</effect>
					</filter>
					<filter>
						<effect>
							<name>Audio Pan</name>
							<effectid>audiopan</effectid>
							<effectcategory>audiopan</effectcategory>
							<effecttype>audiopan</effecttype>
							<mediatype>audio</mediatype>
							<parameter>
								<name>Pan</name>
								<parameterid>pan</parameterid>
								<valuemin>-1</valuemin>
								<valuemax>1</valuemax>
								<value>1</value>
							</parameter>
						</effect>
					</filter>
					<sourcetrack>
						<mediatype>audio</mediatype>
						<trackindex>2</trackindex>
					</sourcetrack>
					<link>
						<linkclipref>MVI_3818 </linkclipref>
						<mediatype>video</mediatype>
						<trackindex>1</trackindex>
						<clipindex>5</clipindex>
					</link>
					<link>
						<linkclipref>MVI_3818 2</linkclipref>
						<mediatype>audio</mediatype>
						<trackindex>1</trackindex>
						<clipindex>5</clipindex>
						<groupindex>1</groupindex>
					</link>
					<link>
						<linkclipref>MVI_3818 3</linkclipref>
						<mediatype>audio</mediatype>
						<trackindex>2</trackindex>
						<clipindex>5</clipindex>
						<groupindex>1</groupindex>
					</link>
					<itemhistory>
						<uuid>737264E8-184C-4CD2-9EB8-FCE6DA347A46</uuid>
					</itemhistory>
				</clipitem>
				<enabled>FALSE</enabled>
				<locked>FALSE</locked>
				<outputchannelindex>2</outputchannelindex>
			</track>
			<track>
				<enabled>TRUE</enabled>
				<locked>FALSE</locked>
				<outputchannelindex>1</outputchannelindex>
			</track>
			<track>
				<enabled>TRUE</enabled>
				<locked>FALSE</locked>
				<outputchannelindex>2</outputchannelindex>
			</track>
			<track>
				<clipitem id="Binx.wav">
					<name>Binx.wav</name>
					<duration>68492</duration>
					<rate>
						<ntsc>TRUE</ntsc>
						<timebase>24</timebase>
					</rate>
					<in>0</in>
					<out>13301</out>
					<start>32</start>
					<end>13333</end>
					<logginginfo>
						<scene/>
						<shottake/>
						<lognote/>
						<good>FALSE</good>
					</logginginfo>
					<labels>
						<label2/>
					</labels>
					<comments>
						<mastercomment1/>
						<mastercomment2/>
						<mastercomment3/>
						<mastercomment4/>
					</comments>
					<file id="Binx">
						<name>Binx.wav</name>
						<pathurl>file://localhost/Volumes/Nebula/MediaPackages/CLOUDS_OUTPUTS/Ready/Binx.wav</pathurl>
						<rate>
							<timebase>30</timebase>
							<ntsc>TRUE</ntsc>
						</rate>
						<duration>85615</duration>
						<timecode>
							<rate>
								<timebase>30</timebase>
								<ntsc>TRUE</ntsc>
							</rate>
							<string>00:00:00:00</string>
							<frame>0</frame>
							<displayformat>NDF</displayformat>
							<source>source</source>
						</timecode>
						<media>
							<audio>
								<samplecharacteristics>
									<samplerate>48000</samplerate>
									<depth>24</depth>
								</samplecharacteristics>
								<channelcount>1</channelcount>
							</audio>
						</media>
					</file>
					<filter>
						<effect>
							<name>Audio Levels</name>
							<effectid>audiolevels</effectid>
							<effectcategory>audiolevels</effectcategory>
							<effecttype>audiolevels</effecttype>
							<mediatype>audio</mediatype>
							<parameter>
								<name>Level</name>
								<parameterid>level</parameterid>
								<valuemin>0</valuemin>
								<valuemax>3.98109</valuemax>
								<value>1</value>
							</parameter>
						</effect>
					</filter>
					<filter>
						<effect>
							<name>Audio Pan</name>
							<effectid>audiopan</effectid>
							<effectcategory>audiopan</effectcategory>
							<effecttype>audiopan</effecttype>
							<mediatype>audio</mediatype>
							<parameter>
								<name>Pan</name>
								<parameterid>pan</parameterid>
								<valuemin>-1</valuemin>
								<valuemax>1</valuemax>
								<value>0</value>
							</parameter>
						</effect>
					</filter>
					<sourcetrack>
						<mediatype>audio</mediatype>
						<trackindex>1</trackindex>
					</sourcetrack>
					<itemhistory>
						<uuid>A7F2052D-F872-4557-A8DA-B5DF51EDB5AC</uuid>
						<uuid>2610FB5F-31F3-4EC9-B2A0-F0F1DBCE7D9E</uuid>
					</itemhistory>
				</clipitem>
				<clipitem id="Binx.wav1">
					<name>Binx.wav</name>
					<duration>68492</duration>
					<rate>
						<ntsc>TRUE</ntsc>
						<timebase>24</timebase>
					</rate>
					<in>14903</in>
					<out>32375</out>
					<start>13333</start>
					<end>30805</end>
					<logginginfo>
						<scene/>
						<shottake/>
						<lognote/>
						<good>FALSE</good>
					</logginginfo>
					<labels>
						<label2/>
					</labels>
					<comments>
						<mastercomment1/>
						<mastercomment2/>
						<mastercomment3/>
						<mastercomment4/>
					</comments>
					<file id="Binx"/>
					<filter>
						<effect>
							<name>Audio Levels</name>
							<effectid>audiolevels</effectid>
							<effectcategory>audiolevels</effectcategory>
							<effecttype>audiolevels</effecttype>
							<mediatype>audio</mediatype>
							<parameter>
								<name>Level</name>
								<parameterid>level</parameterid>
								<valuemin>0</valuemin>
								<valuemax>3.98109</valuemax>
								<value>1</value>
							</parameter>
						</effect>
					</filter>
					<filter>
						<effect>
							<name>Audio Pan</name>
							<effectid>audiopan</effectid>
							<effectcategory>audiopan</effectcategory>
							<effecttype>audiopan</effecttype>
							<mediatype>audio</mediatype>
							<parameter>
								<name>Pan</name>
								<parameterid>pan</parameterid>
								<valuemin>-1</valuemin>
								<valuemax>1</valuemax>
								<value>0</value>
							</parameter>
						</effect>
					</filter>
					<sourcetrack>
						<mediatype>audio</mediatype>
						<trackindex>1</trackindex>
					</sourcetrack>
					<itemhistory>
						<uuid>B4404C96-26DC-43F3-BCD4-E570C11EFD09</uuid>
						<uuid>2610FB5F-31F3-4EC9-B2A0-F0F1DBCE7D9E</uuid>
					</itemhistory>
				</clipitem>
				<clipitem id="Binx.wav2">
					<name>Binx.wav</name>
					<duration>68492</duration>
					<rate>
						<ntsc>TRUE</ntsc>
						<timebase>24</timebase>
					</rate>
					<in>33519</in>
					<out>42399</out>
					<start>30805</start>
					<end>39685</end>
					<logginginfo>
						<scene/>
						<shottake/>
						<lognote/>
						<good>FALSE</good>
					</logginginfo>
					<labels>
						<label2/>
					</labels>
					<comments>
						<mastercomment1/>
						<mastercomment2/>
						<mastercomment3/>
						<mastercomment4/>
					</comments>
					<file id="Binx"/>
					<filter>
						<effect>
							<name>Audio Levels</name>
							<effectid>audiolevels</effectid>
							<effectcategory>audiolevels</effectcategory>
							<effecttype>audiolevels</effecttype>
							<mediatype>audio</mediatype>
							<parameter>
								<name>Level</name>
								<parameterid>level</parameterid>
								<valuemin>0</valuemin>
								<valuemax>3.98109</valuemax>
								<value>1</value>
							</parameter>
						</effect>
					</filter>
					<filter>
						<effect>
							<name>Audio Pan</name>
							<effectid>audiopan</effectid>
							<effectcategory>audiopan</effectcategory>
							<effecttype>audiopan</effecttype>
							<mediatype>audio</mediatype>
							<parameter>
								<name>Pan</name>
								<parameterid>pan</parameterid>
								<valuemin>-1</valuemin>
								<valuemax>1</valuemax>
								<value>0</value>
							</parameter>
						</effect>
					</filter>
					<sourcetrack>
						<mediatype>audio</mediatype>
						<trackindex>1</trackindex>
					</sourcetrack>
					<itemhistory>
						<uuid>4C3638AC-A7E7-496E-9F8C-ADB618E0AFBB</uuid>
						<uuid>2610FB5F-31F3-4EC9-B2A0-F0F1DBCE7D9E</uuid>
					</itemhistory>
				</clipitem>
				<clipitem id="Binx.wav3">
					<name>Binx.wav</name>
					<duration>68492</duration>
					<rate>
						<ntsc>TRUE</ntsc>
						<timebase>24</timebase>
					</rate>
					<in>44525</in>
					<out>60161</out>
					<start>39685</start>
					<end>55321</end>
					<logginginfo>
						<scene/>
						<shottake/>
						<lognote/>
						<good>FALSE</good>
					</logginginfo>
					<labels>
						<label2/>
					</labels>
					<comments>
						<mastercomment1/>
						<mastercomment2/>
						<mastercomment3/>
						<mastercomment4/>
					</comments>
					<file id="Binx"/>
					<filter>
						<effect>
							<name>Audio Levels</name>
							<effectid>audiolevels</effectid>
							<effectcategory>audiolevels</effectcategory>
							<effecttype>audiolevels</effecttype>
							<mediatype>audio</mediatype>
							<parameter>
								<name>Level</name>
								<parameterid>level</parameterid>
								<valuemin>0</valuemin>
								<valuemax>3.98109</valuemax>
								<value>1</value>
							</parameter>
						</effect>
					</filter>
					<filter>
						<effect>
							<name>Audio Pan</name>
							<effectid>audiopan</effectid>
							<effectcategory>audiopan</effectcategory>
							<effecttype>audiopan</effecttype>
							<mediatype>audio</mediatype>
							<parameter>
								<name>Pan</name>
								<parameterid>pan</parameterid>
								<valuemin>-1</valuemin>
								<valuemax>1</valuemax>
								<value>0</value>
							</parameter>
						</effect>
					</filter>
					<sourcetrack>
						<mediatype>audio</mediatype>
						<trackindex>1</trackindex>
					</sourcetrack>
					<itemhistory>
						<uuid>E47C0AD4-CBCC-4333-B002-C63FEF3DE815</uuid>
						<uuid>2610FB5F-31F3-4EC9-B2A0-F0F1DBCE7D9E</uuid>
					</itemhistory>
				</clipitem>
				<clipitem id="Binx.wav4">
					<name>Binx.wav</name>
					<duration>68492</duration>
					<rate>
						<ntsc>TRUE</ntsc>
						<timebase>24</timebase>
					</rate>
					<in>62739</in>
					<out>68492</out>
					<start>55321</start>
					<end>61074</end>
					<logginginfo>
						<scene/>
						<shottake/>
						<lognote/>
						<good>FALSE</good>
					</logginginfo>
					<labels>
						<label2/>
					</labels>
					<comments>
						<mastercomment1/>
						<mastercomment2/>
						<mastercomment3/>
						<mastercomment4/>
					</comments>
					<file id="Binx"/>
					<filter>
						<effect>
							<name>Audio Levels</name>
							<effectid>audiolevels</effectid>
							<effectcategory>audiolevels</effectcategory>
							<effecttype>audiolevels</effecttype>
							<mediatype>audio</mediatype>
							<parameter>
								<name>Level</name>
								<parameterid>level</parameterid>
								<valuemin>0</valuemin>
								<valuemax>3.98109</valuemax>
								<value>1</value>
							</parameter>
						</effect>
					</filter>
					<filter>
						<effect>
							<name>Audio Pan</name>
							<effectid>audiopan</effectid>
							<effectcategory>audiopan</effectcategory>
							<effecttype>audiopan</effecttype>
							<mediatype>audio</mediatype>
							<parameter>
								<name>Pan</name>
								<parameterid>pan</parameterid>
								<valuemin>-1</valuemin>
								<valuemax>1</valuemax>
								<value>0</value>
							</parameter>
						</effect>
					</filter>
					<sourcetrack>
						<mediatype>audio</mediatype>
						<trackindex>1</trackindex>
					</sourcetrack>
					<itemhistory>
						<uuid>7893443F-AD6C-4802-8B65-B9FF498B4A0A</uuid>
						<uuid>2610FB5F-31F3-4EC9-B2A0-F0F1DBCE7D9E</uuid>
					</itemhistory>
				</clipitem>
				<enabled>TRUE</enabled>
				<locked>FALSE</locked>
				<outputchannelindex>1</outputchannelindex>
			</track>
			<filter>
				<effect>
					<name>Audio Levels</name>
					<effectid>audiolevels</effectid>
					<effectcategory>audiolevels</effectcategory>
					<effecttype>audiolevels</effecttype>
					<mediatype>audio</mediatype>
					<parameter>
						<name>Level</name>
						<parameterid>level</parameterid>
						<valuemin>0</valuemin>
						<valuemax>3.98109</valuemax>
						<value>1</value>
					</parameter>
				</effect>
			</filter>
		</audio>
	</media>
	<labels>
		<label>B Roll</label>
	</labels>
</sequence>
</xmeml>


