<?xml version="1.0" encoding="UTF-8"?>
<!DOCTYPE xmeml>
<xmeml version="5">
<sequence id="Binx">
	<uuid>5D61E495-7BFC-41C3-8FDB-DD8C9A9E377F</uuid>
	<updatebehavior>add</updatebehavior>
	<name>Binx</name>
	<duration>61081</duration>
	<rate>
		<ntsc>TRUE</ntsc>
		<timebase>24</timebase>
	</rate>
	<timecode>
		<rate>
			<ntsc>TRUE</ntsc>
			<timebase>24</timebase>
		</rate>
		<string>01:00:00:00</string>
		<frame>86400</frame>
		<source>source</source>
		<displayformat>NDF</displayformat>
	</timecode>
	<in>-1</in>
	<out>-1</out>
	<media>
		<video>
			<format>
				<samplecharacteristics>
					<width>1920</width>
					<height>1080</height>
					<anamorphic>FALSE</anamorphic>
					<pixelaspectratio>Square</pixelaspectratio>
					<fielddominance>none</fielddominance>
					<rate>
						<ntsc>TRUE</ntsc>
						<timebase>24</timebase>
					</rate>
					<colordepth>24</colordepth>
					<codec>
						<name>Apple ProRes 422</name>
						<appspecificdata>
							<appname>Final Cut Pro</appname>
							<appmanufacturer>Apple Inc.</appmanufacturer>
							<appversion>7.0</appversion>
							<data>
								<qtcodec>
									<codecname>Apple ProRes 422</codecname>
									<codectypename>Apple ProRes 422</codectypename>
									<codectypecode>apcn</codectypecode>
									<codecvendorcode>appl</codecvendorcode>
									<spatialquality>1024</spatialquality>
									<temporalquality>0</temporalquality>
									<keyframerate>0</keyframerate>
									<datarate>0</datarate>
								</qtcodec>
							</data>
						</appspecificdata>
					</codec>
				</samplecharacteristics>
				<appspecificdata>
					<appname>Final Cut Pro</appname>
					<appmanufacturer>Apple Inc.</appmanufacturer>
					<appversion>7.0</appversion>
					<data>
						<fcpimageprocessing>
							<useyuv>TRUE</useyuv>
							<usesuperwhite>FALSE</usesuperwhite>
							<rendermode>Float10BPP</rendermode>
						</fcpimageprocessing>
					</data>
				</appspecificdata>
			</format>
			<track>
				<clipitem id="MVI_3814 ">
					<name>MVI_3814</name>
					<duration>13333</duration>
					<rate>
						<ntsc>TRUE</ntsc>
						<timebase>24</timebase>
					</rate>
					<in>0</in>
					<out>13333</out>
					<start>0</start>
					<end>13333</end>
					<pixelaspectratio>Square</pixelaspectratio>
					<anamorphic>FALSE</anamorphic>
					<alphatype>none</alphatype>
					<masterclipid>MVI_3814 1</masterclipid>
					<logginginfo>
						<scene/>
						<shottake/>
						<lognote/>
						<good>FALSE</good>
					</logginginfo>
					<labels>
						<label2/>
					</labels>
					<comments>
						<mastercomment1/>
						<mastercomment2/>
						<mastercomment3/>
						<mastercomment4/>
					</comments>
					<file id="MVI_3814 2">
						<name>MVI_3814.mov</name>
						<pathurl>file://localhost/Volumes/Nebula/MediaPackages/Binx/Binx_v2_1/color/MVI_3814.mov</pathurl>
						<rate>
							<timebase>24</timebase>
							<ntsc>TRUE</ntsc>
						</rate>
						<duration>13333</duration>
						<media>
							<video>
								<duration>13333</duration>
								<samplecharacteristics>
									<width>1920</width>
									<height>1080</height>
								</samplecharacteristics>
							</video>
							<audio>
								<samplecharacteristics>
									<samplerate>48000</samplerate>
									<depth>16</depth>
								</samplecharacteristics>
								<channelcount>2</channelcount>
							</audio>
						</media>
					</file>
					<marker>
						<name>actually interesting</name>
						<comment>data, data visualization,data,surprise,revelation,visualization</comment>
						<color>
							<alpha>0</alpha>
							<red>255</red>
							<green>0</green>
							<blue>0</blue>
						</color>
						<in>2269</in>
						<out>2746</out>
					</marker>
					<marker>
						<name>tool for others</name>
						<comment>participation,tools,social engagment,gift,people</comment>
						<color>
							<alpha>0</alpha>
							<red>255</red>
							<green>0</green>
							<blue>0</blue>
						</color>
						<in>3009</in>
						<out>3406</out>
					</marker>
					<marker>
						<name>trips</name>
						<comment>memory,data visualization,data ownership,souvenir, travel, personal, emotion, nostalgia</comment>
						<color>
							<alpha>0</alpha>
							<red>255</red>
							<green>0</green>
							<blue>0</blue>
						</color>
						<in>3443</in>
						<out>3989</out>
					</marker>
					<marker>
						<name>making things</name>
						<comment>physicality,3d printing,making things</comment>
						<color>
							<alpha>0</alpha>
							<red>255</red>
							<green>0</green>
							<blue>0</blue>
						</color>
						<in>4294</in>
						<out>5122</out>
					</marker>
					<marker>
						<name>frustrated about visualization</name>
						<comment>visualization,crisis,frustration,communication,complexity, career</comment>
						<color>
							<alpha>0</alpha>
							<red>255</red>
							<green>0</green>
							<blue>0</blue>
						</color>
						<in>6929</in>
						<out>7549</out>
					</marker>
					<marker>
						<name>digestibility</name>
						<comment>complexity,confusion,visualization,visual storytelling,communication,education,social engagment,society,public</comment>
						<color>
							<alpha>0</alpha>
							<red>255</red>
							<green>0</green>
							<blue>0</blue>
						</color>
						<in>9803</in>
						<out>10118</out>
					</marker>
					<marker>
						<name>tools for storytelling</name>
						<comment>people,storytelling,participation,social engagment,gift,tools</comment>
						<color>
							<alpha>0</alpha>
							<red>255</red>
							<green>0</green>
							<blue>0</blue>
						</color>
						<in>11403</in>
						<out>12363</out>
					</marker>
					<sourcetrack>
						<mediatype>video</mediatype>
					</sourcetrack>
					<link>
						<linkclipref>MVI_3814 </linkclipref>
						<mediatype>video</mediatype>
						<trackindex>1</trackindex>
						<clipindex>1</clipindex>
					</link>
					<link>
						<linkclipref>MVI_3814 3</linkclipref>
						<mediatype>audio</mediatype>
						<trackindex>1</trackindex>
						<clipindex>1</clipindex>
						<groupindex>1</groupindex>
					</link>
					<link>
						<linkclipref>MVI_3814 4</linkclipref>
						<mediatype>audio</mediatype>
						<trackindex>2</trackindex>
						<clipindex>1</clipindex>
						<groupindex>1</groupindex>
					</link>
					<fielddominance>none</fielddominance>
					<itemhistory>
						<uuid>7B8C16B4-9FA1-45E1-8715-43E5D9EDC00C</uuid>
					</itemhistory>
				</clipitem>
				<clipitem id="MVI_3815 ">
					<name>MVI_3815</name>
					<duration>17472</duration>
					<rate>
						<ntsc>TRUE</ntsc>
						<timebase>24</timebase>
					</rate>
					<in>0</in>
					<out>4369</out>
					<start>13333</start>
					<end>17702</end>
					<pixelaspectratio>Square</pixelaspectratio>
					<anamorphic>FALSE</anamorphic>
					<alphatype>none</alphatype>
					<masterclipid>MVI_3815 1</masterclipid>
					<logginginfo>
						<scene/>
						<shottake/>
						<lognote/>
						<good>FALSE</good>
					</logginginfo>
					<labels>
						<label2/>
					</labels>
					<comments>
						<mastercomment1/>
						<mastercomment2/>
						<mastercomment3/>
						<mastercomment4/>
					</comments>
					<file id="MVI_3815 2">
						<name>MVI_3815.mov</name>
						<pathurl>file://localhost/Volumes/Nebula/MediaPackages/Binx/Binx_v2_2/color/MVI_3815.mov</pathurl>
						<rate>
							<timebase>24</timebase>
							<ntsc>TRUE</ntsc>
						</rate>
						<duration>17472</duration>
						<media>
							<video>
								<duration>17472</duration>
								<samplecharacteristics>
									<width>1920</width>
									<height>1080</height>
								</samplecharacteristics>
							</video>
							<audio>
								<samplecharacteristics>
									<samplerate>48000</samplerate>
									<depth>16</depth>
								</samplecharacteristics>
								<channelcount>2</channelcount>
							</audio>
						</media>
					</file>
					<marker>
						<name>Mesh-U business</name>
						<comment>design,product,jewelry,cultural value,business</comment>
						<color>
							<alpha>0</alpha>
							<red>255</red>
							<green>0</green>
							<blue>0</blue>
						</color>
						<in>484</in>
						<out>1158</out>
					</marker>
					<marker>
						<name>Marker 2</name>
						<comment/>
						<color>
							<alpha>0</alpha>
							<red>255</red>
							<green>0</green>
							<blue>0</blue>
						</color>
						<in>1674</in>
						<out>-1</out>
					</marker>
					<marker>
						<name>Marker 3</name>
						<comment/>
						<color>
							<alpha>0</alpha>
							<red>255</red>
							<green>0</green>
							<blue>0</blue>
						</color>
						<in>2893</in>
						<out>-1</out>
					</marker>
					<marker>
						<name>maps</name>
						<comment>maps,gps,data visualization,data,trace of your life</comment>
						<color>
							<alpha>0</alpha>
							<red>255</red>
							<green>0</green>
							<blue>0</blue>
						</color>
						<in>3339</in>
						<out>4071</out>
					</marker>
					<marker>
						<name>meaningful shape1</name>
						<comment>maps,gps,data visualization,data,trace of your life</comment>
						<color>
							<alpha>0</alpha>
							<red>255</red>
							<green>0</green>
							<blue>0</blue>
						</color>
						<in>4370</in>
						<out>4593</out>
					</marker>
					<marker>
						<name>Marker 6</name>
						<comment/>
						<color>
							<alpha>0</alpha>
							<red>255</red>
							<green>0</green>
							<blue>0</blue>
						</color>
						<in>4817</in>
						<out>5059</out>
					</marker>
					<marker>
						<name>making a map</name>
						<comment>maps,gps,data visualization,data,trace of your life</comment>
						<color>
							<alpha>0</alpha>
							<red>255</red>
							<green>0</green>
							<blue>0</blue>
						</color>
						<in>6036</in>
						<out>6480</out>
					</marker>
					<marker>
						<name>face data</name>
						<comment>Clouds,future of cinema,face tracking</comment>
						<color>
							<alpha>0</alpha>
							<red>255</red>
							<green>0</green>
							<blue>0</blue>
						</color>
						<in>7661</in>
						<out>8518</out>
					</marker>
					<marker>
						<name>hackathon</name>
						<comment>collaboration,hackathon,thinking by doing,improvization,process,creativity,creative process</comment>
						<color>
							<alpha>0</alpha>
							<red>255</red>
							<green>0</green>
							<blue>0</blue>
						</color>
						<in>11306</in>
						<out>11656</out>
					</marker>
					<marker>
						<name>ar&amp;&amp;code</name>
						<comment>collaboration,hackathon,thinking by doing,improvization,process,creativity,creative process, sharing</comment>
						<color>
							<alpha>0</alpha>
							<red>255</red>
							<green>0</green>
							<blue>0</blue>
						</color>
						<in>12407</in>
						<out>13235</out>
					</marker>
					<marker>
						<name>women in tech</name>
						<comment>gender gap, women, </comment>
						<color>
							<alpha>0</alpha>
							<red>255</red>
							<green>0</green>
							<blue>0</blue>
						</color>
						<in>15422</in>
						<out>15979</out>
					</marker>
					<marker>
						<name>glass ceiling</name>
						<comment>women,gender gap</comment>
						<color>
							<alpha>0</alpha>
							<red>255</red>
							<green>0</green>
							<blue>0</blue>
						</color>
						<in>16248</in>
						<out>16774</out>
					</marker>
					<marker>
						<name>creative coding is more diverse</name>
						<comment>women,gender gap</comment>
						<color>
							<alpha>0</alpha>
							<red>255</red>
							<green>0</green>
							<blue>0</blue>
						</color>
						<in>17106</in>
						<out>17421</out>
					</marker>
					<sourcetrack>
						<mediatype>video</mediatype>
					</sourcetrack>
					<link>
						<linkclipref>MVI_3815 </linkclipref>
						<mediatype>video</mediatype>
						<trackindex>1</trackindex>
						<clipindex>2</clipindex>
					</link>
					<link>
						<linkclipref>MVI_3815 3</linkclipref>
						<mediatype>audio</mediatype>
						<trackindex>1</trackindex>
						<clipindex>2</clipindex>
						<groupindex>1</groupindex>
					</link>
					<link>
						<linkclipref>MVI_3815 4</linkclipref>
						<mediatype>audio</mediatype>
						<trackindex>2</trackindex>
						<clipindex>2</clipindex>
						<groupindex>1</groupindex>
					</link>
					<fielddominance>none</fielddominance>
					<itemhistory>
						<uuid>CF7D2A64-2B52-485E-9066-CCD0DFDFBFAD</uuid>
						<uuid>4644A619-3EEC-445E-8D1F-D8C834B4FE2F</uuid>
					</itemhistory>
				</clipitem>
				<clipitem id="MVI_3815 5">
					<name>MVI_3815</name>
					<duration>17472</duration>
					<rate>
						<ntsc>TRUE</ntsc>
						<timebase>24</timebase>
					</rate>
					<in>4369</in>
					<out>4593</out>
					<start>17702</start>
					<end>17926</end>
					<pixelaspectratio>Square</pixelaspectratio>
					<anamorphic>FALSE</anamorphic>
					<alphatype>none</alphatype>
					<masterclipid>MVI_3815 1</masterclipid>
					<logginginfo>
						<scene/>
						<shottake/>
						<lognote/>
						<good>FALSE</good>
					</logginginfo>
					<labels>
						<label2/>
					</labels>
					<comments>
						<mastercomment1/>
						<mastercomment2/>
						<mastercomment3/>
						<mastercomment4/>
					</comments>
					<file id="MVI_3815 2"/>
					<marker>
						<name>Mesh-U business</name>
						<comment>design,product,jewelry,cultural value,business</comment>
						<color>
							<alpha>0</alpha>
							<red>255</red>
							<green>0</green>
							<blue>0</blue>
						</color>
						<in>484</in>
						<out>1158</out>
					</marker>
					<marker>
						<name>Marker 2</name>
						<comment/>
						<color>
							<alpha>0</alpha>
							<red>255</red>
							<green>0</green>
							<blue>0</blue>
						</color>
						<in>1674</in>
						<out>-1</out>
					</marker>
					<marker>
						<name>Marker 3</name>
						<comment/>
						<color>
							<alpha>0</alpha>
							<red>255</red>
							<green>0</green>
							<blue>0</blue>
						</color>
						<in>2893</in>
						<out>-1</out>
					</marker>
					<marker>
						<name>maps</name>
						<comment>maps,gps,data visualization,data,trace of your life</comment>
						<color>
							<alpha>0</alpha>
							<red>255</red>
							<green>0</green>
							<blue>0</blue>
						</color>
						<in>3339</in>
						<out>4071</out>
					</marker>
					<marker>
						<name>meaningful shape1</name>
						<comment>maps,gps,data visualization,data,trace of your life</comment>
						<color>
							<alpha>0</alpha>
							<red>255</red>
							<green>0</green>
							<blue>0</blue>
						</color>
						<in>4370</in>
						<out>4593</out>
					</marker>
					<marker>
						<name>Marker 6</name>
						<comment/>
						<color>
							<alpha>0</alpha>
							<red>255</red>
							<green>0</green>
							<blue>0</blue>
						</color>
						<in>4817</in>
						<out>5059</out>
					</marker>
					<marker>
						<name>making a map</name>
						<comment>maps,gps,data visualization,data,trace of your life</comment>
						<color>
							<alpha>0</alpha>
							<red>255</red>
							<green>0</green>
							<blue>0</blue>
						</color>
						<in>6036</in>
						<out>6480</out>
					</marker>
					<marker>
						<name>face data</name>
						<comment>Clouds,future of cinema,face tracking</comment>
						<color>
							<alpha>0</alpha>
							<red>255</red>
							<green>0</green>
							<blue>0</blue>
						</color>
						<in>7661</in>
						<out>8518</out>
					</marker>
					<marker>
						<name>hackathon</name>
						<comment>collaboration,hackathon,thinking by doing,improvization,process,creativity,creative process</comment>
						<color>
							<alpha>0</alpha>
							<red>255</red>
							<green>0</green>
							<blue>0</blue>
						</color>
						<in>11306</in>
						<out>11656</out>
					</marker>
					<marker>
						<name>ar&amp;&amp;code</name>
						<comment>collaboration,hackathon,thinking by doing,improvization,process,creativity,creative process, sharing</comment>
						<color>
							<alpha>0</alpha>
							<red>255</red>
							<green>0</green>
							<blue>0</blue>
						</color>
						<in>12407</in>
						<out>13235</out>
					</marker>
					<marker>
						<name>women in tech</name>
						<comment>gender gap, women, </comment>
						<color>
							<alpha>0</alpha>
							<red>255</red>
							<green>0</green>
							<blue>0</blue>
						</color>
						<in>15422</in>
						<out>15979</out>
					</marker>
					<marker>
						<name>glass ceiling</name>
						<comment>women,gender gap</comment>
						<color>
							<alpha>0</alpha>
							<red>255</red>
							<green>0</green>
							<blue>0</blue>
						</color>
						<in>16248</in>
						<out>16774</out>
					</marker>
					<marker>
						<name>creative coding is more diverse</name>
						<comment>women,gender gap</comment>
						<color>
							<alpha>0</alpha>
							<red>255</red>
							<green>0</green>
							<blue>0</blue>
						</color>
						<in>17106</in>
						<out>17421</out>
					</marker>
					<sourcetrack>
						<mediatype>video</mediatype>
					</sourcetrack>
					<link>
						<linkclipref>MVI_3815 5</linkclipref>
						<mediatype>video</mediatype>
						<trackindex>1</trackindex>
						<clipindex>3</clipindex>
					</link>
					<link>
						<linkclipref>MVI_3815 6</linkclipref>
						<mediatype>audio</mediatype>
						<trackindex>1</trackindex>
						<clipindex>3</clipindex>
						<groupindex>1</groupindex>
					</link>
					<link>
						<linkclipref>MVI_3815 7</linkclipref>
						<mediatype>audio</mediatype>
						<trackindex>2</trackindex>
						<clipindex>3</clipindex>
						<groupindex>1</groupindex>
					</link>
					<fielddominance>none</fielddominance>
					<itemhistory>
						<uuid>D1035D5D-E5CC-4C97-979B-A0AE8F45A0A7</uuid>
						<uuid>4644A619-3EEC-445E-8D1F-D8C834B4FE2F</uuid>
					</itemhistory>
				</clipitem>
				<clipitem id="MVI_3815 8">
					<name>MVI_3815</name>
					<duration>17472</duration>
					<rate>
						<ntsc>TRUE</ntsc>
						<timebase>24</timebase>
					</rate>
					<in>4593</in>
					<out>12344</out>
					<start>17926</start>
					<end>25677</end>
					<pixelaspectratio>Square</pixelaspectratio>
					<anamorphic>FALSE</anamorphic>
					<alphatype>none</alphatype>
					<masterclipid>MVI_3815 1</masterclipid>
					<logginginfo>
						<scene/>
						<shottake/>
						<lognote/>
						<good>FALSE</good>
					</logginginfo>
					<labels>
						<label2/>
					</labels>
					<comments>
						<mastercomment1/>
						<mastercomment2/>
						<mastercomment3/>
						<mastercomment4/>
					</comments>
					<file id="MVI_3815 2"/>
					<marker>
						<name>Mesh-U business</name>
						<comment>design,product,jewelry,cultural value,business</comment>
						<color>
							<alpha>0</alpha>
							<red>255</red>
							<green>0</green>
							<blue>0</blue>
						</color>
						<in>484</in>
						<out>1158</out>
					</marker>
					<marker>
						<name>Marker 2</name>
						<comment/>
						<color>
							<alpha>0</alpha>
							<red>255</red>
							<green>0</green>
							<blue>0</blue>
						</color>
						<in>1674</in>
						<out>-1</out>
					</marker>
					<marker>
						<name>Marker 3</name>
						<comment/>
						<color>
							<alpha>0</alpha>
							<red>255</red>
							<green>0</green>
							<blue>0</blue>
						</color>
						<in>2893</in>
						<out>-1</out>
					</marker>
					<marker>
						<name>maps</name>
						<comment>maps,gps,data visualization,data,trace of your life</comment>
						<color>
							<alpha>0</alpha>
							<red>255</red>
							<green>0</green>
							<blue>0</blue>
						</color>
						<in>3339</in>
						<out>4071</out>
					</marker>
					<marker>
						<name>meaningful shape1</name>
						<comment>maps,gps,data visualization,data,trace of your life</comment>
						<color>
							<alpha>0</alpha>
							<red>255</red>
							<green>0</green>
							<blue>0</blue>
						</color>
						<in>4370</in>
						<out>4593</out>
					</marker>
					<marker>
						<name>Marker 6</name>
						<comment/>
						<color>
							<alpha>0</alpha>
							<red>255</red>
							<green>0</green>
							<blue>0</blue>
						</color>
						<in>4817</in>
						<out>5059</out>
					</marker>
					<marker>
						<name>making a map</name>
						<comment>maps,gps,data visualization,data,trace of your life</comment>
						<color>
							<alpha>0</alpha>
							<red>255</red>
							<green>0</green>
							<blue>0</blue>
						</color>
						<in>6036</in>
						<out>6480</out>
					</marker>
					<marker>
						<name>face data</name>
						<comment>Clouds,future of cinema,face tracking</comment>
						<color>
							<alpha>0</alpha>
							<red>255</red>
							<green>0</green>
							<blue>0</blue>
						</color>
						<in>7661</in>
						<out>8518</out>
					</marker>
					<marker>
						<name>hackathon</name>
						<comment>collaboration,hackathon,thinking by doing,improvization,process,creativity,creative process</comment>
						<color>
							<alpha>0</alpha>
							<red>255</red>
							<green>0</green>
							<blue>0</blue>
						</color>
						<in>11306</in>
						<out>11656</out>
					</marker>
					<marker>
						<name>ar&amp;&amp;code</name>
						<comment>collaboration,hackathon,thinking by doing,improvization,process,creativity,creative process, sharing</comment>
						<color>
							<alpha>0</alpha>
							<red>255</red>
							<green>0</green>
							<blue>0</blue>
						</color>
						<in>12407</in>
						<out>13235</out>
					</marker>
					<marker>
						<name>women in tech</name>
						<comment>gender gap, women, </comment>
						<color>
							<alpha>0</alpha>
							<red>255</red>
							<green>0</green>
							<blue>0</blue>
						</color>
						<in>15422</in>
						<out>15979</out>
					</marker>
					<marker>
						<name>glass ceiling</name>
						<comment>women,gender gap</comment>
						<color>
							<alpha>0</alpha>
							<red>255</red>
							<green>0</green>
							<blue>0</blue>
						</color>
						<in>16248</in>
						<out>16774</out>
					</marker>
					<marker>
						<name>creative coding is more diverse</name>
						<comment>women,gender gap</comment>
						<color>
							<alpha>0</alpha>
							<red>255</red>
							<green>0</green>
							<blue>0</blue>
						</color>
						<in>17106</in>
						<out>17421</out>
					</marker>
					<sourcetrack>
						<mediatype>video</mediatype>
					</sourcetrack>
					<link>
						<linkclipref>MVI_3815 8</linkclipref>
						<mediatype>video</mediatype>
						<trackindex>1</trackindex>
						<clipindex>4</clipindex>
					</link>
					<link>
						<linkclipref>MVI_3815 9</linkclipref>
						<mediatype>audio</mediatype>
						<trackindex>1</trackindex>
						<clipindex>4</clipindex>
						<groupindex>1</groupindex>
					</link>
					<link>
						<linkclipref>MVI_3815 10</linkclipref>
						<mediatype>audio</mediatype>
						<trackindex>2</trackindex>
						<clipindex>4</clipindex>
						<groupindex>1</groupindex>
					</link>
					<fielddominance>none</fielddominance>
					<itemhistory>
						<uuid>795A31EF-D77A-475B-8E24-5940D750C0EE</uuid>
						<uuid>4644A619-3EEC-445E-8D1F-D8C834B4FE2F</uuid>
					</itemhistory>
				</clipitem>
				<clipitem id="MVI_3815 11">
					<name>MVI_3815</name>
					<duration>17472</duration>
					<rate>
						<ntsc>TRUE</ntsc>
						<timebase>24</timebase>
					</rate>
					<in>12344</in>
					<out>13222</out>
					<start>25677</start>
					<end>26555</end>
					<pixelaspectratio>Square</pixelaspectratio>
					<anamorphic>FALSE</anamorphic>
					<alphatype>none</alphatype>
					<masterclipid>MVI_3815 1</masterclipid>
					<logginginfo>
						<scene/>
						<shottake/>
						<lognote/>
						<good>FALSE</good>
					</logginginfo>
					<labels>
						<label2/>
					</labels>
					<comments>
						<mastercomment1/>
						<mastercomment2/>
						<mastercomment3/>
						<mastercomment4/>
					</comments>
					<file id="MVI_3815 2"/>
					<marker>
						<name>Mesh-U business</name>
						<comment>design,product,jewelry,cultural value,business</comment>
						<color>
							<alpha>0</alpha>
							<red>255</red>
							<green>0</green>
							<blue>0</blue>
						</color>
						<in>484</in>
						<out>1158</out>
					</marker>
					<marker>
						<name>Marker 2</name>
						<comment/>
						<color>
							<alpha>0</alpha>
							<red>255</red>
							<green>0</green>
							<blue>0</blue>
						</color>
						<in>1674</in>
						<out>-1</out>
					</marker>
					<marker>
						<name>Marker 3</name>
						<comment/>
						<color>
							<alpha>0</alpha>
							<red>255</red>
							<green>0</green>
							<blue>0</blue>
						</color>
						<in>2893</in>
						<out>-1</out>
					</marker>
					<marker>
						<name>maps</name>
						<comment>maps,gps,data visualization,data,trace of your life</comment>
						<color>
							<alpha>0</alpha>
							<red>255</red>
							<green>0</green>
							<blue>0</blue>
						</color>
						<in>3339</in>
						<out>4071</out>
					</marker>
					<marker>
						<name>meaningful shape1</name>
						<comment>maps,gps,data visualization,data,trace of your life</comment>
						<color>
							<alpha>0</alpha>
							<red>255</red>
							<green>0</green>
							<blue>0</blue>
						</color>
						<in>4370</in>
						<out>4593</out>
					</marker>
					<marker>
						<name>Marker 6</name>
						<comment/>
						<color>
							<alpha>0</alpha>
							<red>255</red>
							<green>0</green>
							<blue>0</blue>
						</color>
						<in>4817</in>
						<out>5059</out>
					</marker>
					<marker>
						<name>making a map</name>
						<comment>maps,gps,data visualization,data,trace of your life</comment>
						<color>
							<alpha>0</alpha>
							<red>255</red>
							<green>0</green>
							<blue>0</blue>
						</color>
						<in>6036</in>
						<out>6480</out>
					</marker>
					<marker>
						<name>face data</name>
						<comment>Clouds,future of cinema,face tracking</comment>
						<color>
							<alpha>0</alpha>
							<red>255</red>
							<green>0</green>
							<blue>0</blue>
						</color>
						<in>7661</in>
						<out>8518</out>
					</marker>
					<marker>
						<name>hackathon</name>
						<comment>collaboration,hackathon,thinking by doing,improvization,process,creativity,creative process</comment>
						<color>
							<alpha>0</alpha>
							<red>255</red>
							<green>0</green>
							<blue>0</blue>
						</color>
						<in>11306</in>
						<out>11656</out>
					</marker>
					<marker>
						<name>ar&amp;&amp;code</name>
						<comment>collaboration,hackathon,thinking by doing,improvization,process,creativity,creative process, sharing</comment>
						<color>
							<alpha>0</alpha>
							<red>255</red>
							<green>0</green>
							<blue>0</blue>
						</color>
						<in>12407</in>
						<out>13235</out>
					</marker>
					<marker>
						<name>women in tech</name>
						<comment>gender gap, women, </comment>
						<color>
							<alpha>0</alpha>
							<red>255</red>
							<green>0</green>
							<blue>0</blue>
						</color>
						<in>15422</in>
						<out>15979</out>
					</marker>
					<marker>
						<name>glass ceiling</name>
						<comment>women,gender gap</comment>
						<color>
							<alpha>0</alpha>
							<red>255</red>
							<green>0</green>
							<blue>0</blue>
						</color>
						<in>16248</in>
						<out>16774</out>
					</marker>
					<marker>
						<name>creative coding is more diverse</name>
						<comment>women,gender gap</comment>
						<color>
							<alpha>0</alpha>
							<red>255</red>
							<green>0</green>
							<blue>0</blue>
						</color>
						<in>17106</in>
						<out>17421</out>
					</marker>
					<sourcetrack>
						<mediatype>video</mediatype>
					</sourcetrack>
					<link>
						<linkclipref>MVI_3815 11</linkclipref>
						<mediatype>video</mediatype>
						<trackindex>1</trackindex>
						<clipindex>5</clipindex>
					</link>
					<link>
						<linkclipref>MVI_3815 12</linkclipref>
						<mediatype>audio</mediatype>
						<trackindex>1</trackindex>
						<clipindex>5</clipindex>
						<groupindex>1</groupindex>
					</link>
					<link>
						<linkclipref>MVI_3815 13</linkclipref>
						<mediatype>audio</mediatype>
						<trackindex>2</trackindex>
						<clipindex>5</clipindex>
						<groupindex>1</groupindex>
					</link>
					<fielddominance>none</fielddominance>
					<itemhistory>
						<uuid>F4998337-A7DB-41B4-8411-D7819092603A</uuid>
						<uuid>4644A619-3EEC-445E-8D1F-D8C834B4FE2F</uuid>
					</itemhistory>
				</clipitem>
				<clipitem id="MVI_3815 14">
					<name>MVI_3815</name>
					<duration>17472</duration>
					<rate>
						<ntsc>TRUE</ntsc>
						<timebase>24</timebase>
					</rate>
					<in>13222</in>
					<out>17472</out>
					<start>26555</start>
					<end>30805</end>
					<pixelaspectratio>Square</pixelaspectratio>
					<anamorphic>FALSE</anamorphic>
					<alphatype>none</alphatype>
					<masterclipid>MVI_3815 1</masterclipid>
					<logginginfo>
						<scene/>
						<shottake/>
						<lognote/>
						<good>FALSE</good>
					</logginginfo>
					<labels>
						<label2/>
					</labels>
					<comments>
						<mastercomment1/>
						<mastercomment2/>
						<mastercomment3/>
						<mastercomment4/>
					</comments>
					<file id="MVI_3815 2"/>
					<marker>
						<name>Mesh-U business</name>
						<comment>design,product,jewelry,cultural value,business</comment>
						<color>
							<alpha>0</alpha>
							<red>255</red>
							<green>0</green>
							<blue>0</blue>
						</color>
						<in>484</in>
						<out>1158</out>
					</marker>
					<marker>
						<name>Marker 2</name>
						<comment/>
						<color>
							<alpha>0</alpha>
							<red>255</red>
							<green>0</green>
							<blue>0</blue>
						</color>
						<in>1674</in>
						<out>-1</out>
					</marker>
					<marker>
						<name>Marker 3</name>
						<comment/>
						<color>
							<alpha>0</alpha>
							<red>255</red>
							<green>0</green>
							<blue>0</blue>
						</color>
						<in>2893</in>
						<out>-1</out>
					</marker>
					<marker>
						<name>maps</name>
						<comment>maps,gps,data visualization,data,trace of your life</comment>
						<color>
							<alpha>0</alpha>
							<red>255</red>
							<green>0</green>
							<blue>0</blue>
						</color>
						<in>3339</in>
						<out>4071</out>
					</marker>
					<marker>
						<name>meaningful shape1</name>
						<comment>maps,gps,data visualization,data,trace of your life</comment>
						<color>
							<alpha>0</alpha>
							<red>255</red>
							<green>0</green>
							<blue>0</blue>
						</color>
						<in>4370</in>
						<out>4593</out>
					</marker>
					<marker>
						<name>Marker 6</name>
						<comment/>
						<color>
							<alpha>0</alpha>
							<red>255</red>
							<green>0</green>
							<blue>0</blue>
						</color>
						<in>4817</in>
						<out>5059</out>
					</marker>
					<marker>
						<name>making a map</name>
						<comment>maps,gps,data visualization,data,trace of your life</comment>
						<color>
							<alpha>0</alpha>
							<red>255</red>
							<green>0</green>
							<blue>0</blue>
						</color>
						<in>6036</in>
						<out>6480</out>
					</marker>
					<marker>
						<name>face data</name>
						<comment>Clouds,future of cinema,face tracking</comment>
						<color>
							<alpha>0</alpha>
							<red>255</red>
							<green>0</green>
							<blue>0</blue>
						</color>
						<in>7661</in>
						<out>8518</out>
					</marker>
					<marker>
						<name>hackathon</name>
						<comment>collaboration,hackathon,thinking by doing,improvization,process,creativity,creative process</comment>
						<color>
							<alpha>0</alpha>
							<red>255</red>
							<green>0</green>
							<blue>0</blue>
						</color>
						<in>11306</in>
						<out>11656</out>
					</marker>
					<marker>
						<name>ar&amp;&amp;code</name>
						<comment>collaboration,hackathon,thinking by doing,improvization,process,creativity,creative process, sharing</comment>
						<color>
							<alpha>0</alpha>
							<red>255</red>
							<green>0</green>
							<blue>0</blue>
						</color>
						<in>12407</in>
						<out>13235</out>
					</marker>
					<marker>
						<name>women in tech</name>
						<comment>gender gap, women, </comment>
						<color>
							<alpha>0</alpha>
							<red>255</red>
							<green>0</green>
							<blue>0</blue>
						</color>
						<in>15422</in>
						<out>15979</out>
					</marker>
					<marker>
						<name>glass ceiling</name>
						<comment>women,gender gap</comment>
						<color>
							<alpha>0</alpha>
							<red>255</red>
							<green>0</green>
							<blue>0</blue>
						</color>
						<in>16248</in>
						<out>16774</out>
					</marker>
					<marker>
						<name>creative coding is more diverse</name>
						<comment>women,gender gap</comment>
						<color>
							<alpha>0</alpha>
							<red>255</red>
							<green>0</green>
							<blue>0</blue>
						</color>
						<in>17106</in>
						<out>17421</out>
					</marker>
					<sourcetrack>
						<mediatype>video</mediatype>
					</sourcetrack>
					<link>
						<linkclipref>MVI_3815 14</linkclipref>
						<mediatype>video</mediatype>
						<trackindex>1</trackindex>
						<clipindex>6</clipindex>
					</link>
					<link>
						<linkclipref>MVI_3815 15</linkclipref>
						<mediatype>audio</mediatype>
						<trackindex>1</trackindex>
						<clipindex>6</clipindex>
						<groupindex>1</groupindex>
					</link>
					<link>
						<linkclipref>MVI_3815 16</linkclipref>
						<mediatype>audio</mediatype>
						<trackindex>2</trackindex>
						<clipindex>6</clipindex>
						<groupindex>1</groupindex>
					</link>
					<fielddominance>none</fielddominance>
					<itemhistory>
						<uuid>5F8F548B-15B6-465C-9FF8-C0B9BFEB7B64</uuid>
						<uuid>4644A619-3EEC-445E-8D1F-D8C834B4FE2F</uuid>
					</itemhistory>
				</clipitem>
				<clipitem id="MVI_3816 ">
					<name>MVI_3816</name>
					<duration>8880</duration>
					<rate>
						<ntsc>TRUE</ntsc>
						<timebase>24</timebase>
					</rate>
					<in>0</in>
					<out>8880</out>
					<start>30805</start>
					<end>39685</end>
					<pixelaspectratio>Square</pixelaspectratio>
					<anamorphic>FALSE</anamorphic>
					<alphatype>none</alphatype>
					<masterclipid>MVI_3816 1</masterclipid>
					<logginginfo>
						<scene/>
						<shottake/>
						<lognote/>
						<good>FALSE</good>
					</logginginfo>
					<labels>
						<label2/>
					</labels>
					<comments>
						<mastercomment1/>
						<mastercomment2/>
						<mastercomment3/>
						<mastercomment4/>
					</comments>
					<file id="MVI_3816 2">
						<name>MVI_3816.mov</name>
						<pathurl>file://localhost/Volumes/Nebula/MediaPackages/Binx/Binx_v2_3/color/MVI_3816.mov</pathurl>
						<rate>
							<timebase>24</timebase>
							<ntsc>TRUE</ntsc>
						</rate>
						<duration>8880</duration>
						<media>
							<video>
								<duration>8880</duration>
								<samplecharacteristics>
									<width>1920</width>
									<height>1080</height>
								</samplecharacteristics>
							</video>
							<audio>
								<samplecharacteristics>
									<samplerate>48000</samplerate>
									<depth>16</depth>
								</samplecharacteristics>
								<channelcount>2</channelcount>
							</audio>
						</media>
					</file>
					<marker>
						<name>Marker 1</name>
						<comment/>
						<color>
							<alpha>0</alpha>
							<red>255</red>
							<green>0</green>
							<blue>0</blue>
						</color>
						<in>1141</in>
						<out>1911</out>
					</marker>
					<marker>
						<name>Marker 2</name>
						<comment/>
						<color>
							<alpha>0</alpha>
							<red>255</red>
							<green>0</green>
							<blue>0</blue>
						</color>
						<in>3340</in>
						<out>4348</out>
					</marker>
					<marker>
						<name>programming is a superpower</name>
						<comment>programming, power, creativity, invention</comment>
						<color>
							<alpha>0</alpha>
							<red>255</red>
							<green>0</green>
							<blue>0</blue>
						</color>
						<in>7170</in>
						<out>7276</out>
					</marker>
					<sourcetrack>
						<mediatype>video</mediatype>
					</sourcetrack>
					<link>
						<linkclipref>MVI_3816 </linkclipref>
						<mediatype>video</mediatype>
						<trackindex>1</trackindex>
						<clipindex>7</clipindex>
					</link>
					<link>
						<linkclipref>MVI_3816 3</linkclipref>
						<mediatype>audio</mediatype>
						<trackindex>1</trackindex>
						<clipindex>7</clipindex>
						<groupindex>1</groupindex>
					</link>
					<link>
						<linkclipref>MVI_3816 4</linkclipref>
						<mediatype>audio</mediatype>
						<trackindex>2</trackindex>
						<clipindex>7</clipindex>
						<groupindex>1</groupindex>
					</link>
					<fielddominance>none</fielddominance>
					<itemhistory>
						<uuid>B5C2735A-208B-4D1C-9F9D-6535753B6552</uuid>
					</itemhistory>
				</clipitem>
				<clipitem id="MVI_3817 ">
					<name>MVI_3817</name>
					<duration>15636</duration>
					<rate>
						<ntsc>TRUE</ntsc>
						<timebase>24</timebase>
					</rate>
					<in>0</in>
					<out>15636</out>
					<start>39685</start>
					<end>55321</end>
					<pixelaspectratio>Square</pixelaspectratio>
					<enabled>TRUE</enabled>
					<anamorphic>FALSE</anamorphic>
					<alphatype>none</alphatype>
					<masterclipid>MVI_3817 1</masterclipid>
					<logginginfo>
						<scene/>
						<shottake/>
						<lognote/>
						<good>FALSE</good>
					</logginginfo>
					<labels>
						<label2/>
					</labels>
					<comments>
						<mastercomment1/>
						<mastercomment2/>
						<mastercomment3/>
						<mastercomment4/>
					</comments>
					<file id="MVI_3817 2">
						<name>MVI_3817.mov</name>
						<pathurl>file://localhost/Volumes/Nebula/MediaPackages/Binx/Binx_v2_4/color/MVI_3817.mov</pathurl>
						<rate>
							<timebase>24</timebase>
							<ntsc>TRUE</ntsc>
						</rate>
						<duration>15636</duration>
						<media>
							<video>
								<duration>15636</duration>
								<samplecharacteristics>
									<width>1920</width>
									<height>1080</height>
								</samplecharacteristics>
							</video>
							<audio>
								<samplecharacteristics>
									<samplerate>48000</samplerate>
									<depth>16</depth>
								</samplecharacteristics>
								<channelcount>2</channelcount>
							</audio>
						</media>
					</file>
					<marker>
						<name>tech fracturing</name>
						<comment>specialization, programming, learning, technological progress</comment>
						<color>
							<alpha>0</alpha>
							<red>255</red>
							<green>0</green>
							<blue>0</blue>
						</color>
						<in>277</in>
						<out>628</out>
					</marker>
					<marker>
						<name>skillshare</name>
						<comment>learning, community, sharing, </comment>
						<color>
							<alpha>0</alpha>
							<red>255</red>
							<green>0</green>
							<blue>0</blue>
						</color>
						<in>2088</in>
						<out>2469</out>
					</marker>
					<marker>
						<name>learning</name>
						<comment>learning, community, sharing, </comment>
						<color>
							<alpha>0</alpha>
							<red>255</red>
							<green>0</green>
							<blue>0</blue>
						</color>
						<in>2748</in>
						<out>3830</out>
					</marker>
					<marker>
						<name>learning with others</name>
						<comment>learning, community, sharing,</comment>
						<color>
							<alpha>0</alpha>
							<red>255</red>
							<green>0</green>
							<blue>0</blue>
						</color>
						<in>4261</in>
						<out>4364</out>
					</marker>
					<marker>
						<name>big data</name>
						<comment>data visualization,data ownership,big data</comment>
						<color>
							<alpha>0</alpha>
							<red>255</red>
							<green>0</green>
							<blue>0</blue>
						</color>
						<in>5147</in>
						<out>5764</out>
					</marker>
					<marker>
						<name>field of data vis</name>
						<comment>data visualization, data art, communication, visualization, </comment>
						<color>
							<alpha>0</alpha>
							<red>255</red>
							<green>0</green>
							<blue>0</blue>
						</color>
						<in>6587</in>
						<out>7258</out>
					</marker>
					<marker>
						<name>technoutopian</name>
						<comment>technological progress,technoptimism,utopia</comment>
						<color>
							<alpha>0</alpha>
							<red>255</red>
							<green>0</green>
							<blue>0</blue>
						</color>
						<in>9307</in>
						<out>9613</out>
					</marker>
					<marker>
						<name>changing the world</name>
						<comment>technological progress,technoptimism,utopia, progress,&#13;society, problem-solving, change, hope</comment>
						<color>
							<alpha>0</alpha>
							<red>255</red>
							<green>0</green>
							<blue>0</blue>
						</color>
						<in>10438</in>
						<out>10843</out>
					</marker>
					<marker>
						<name>art and culture </name>
						<comment>society, culture, art, progress, </comment>
						<color>
							<alpha>0</alpha>
							<red>255</red>
							<green>0</green>
							<blue>0</blue>
						</color>
						<in>12386</in>
						<out>13224</out>
					</marker>
					<marker>
						<name>art for money</name>
						<comment>commercialism,&#13;art,life and work,art versus engineering, business, passion&#13;</comment>
						<color>
							<alpha>0</alpha>
							<red>255</red>
							<green>0</green>
							<blue>0</blue>
						</color>
						<in>13239</in>
						<out>14194</out>
					</marker>
					<sourcetrack>
						<mediatype>video</mediatype>
					</sourcetrack>
					<link>
						<linkclipref>MVI_3817 </linkclipref>
						<mediatype>video</mediatype>
						<trackindex>1</trackindex>
						<clipindex>8</clipindex>
					</link>
					<link>
						<linkclipref>MVI_3817 3</linkclipref>
						<mediatype>audio</mediatype>
						<trackindex>1</trackindex>
						<clipindex>8</clipindex>
						<groupindex>1</groupindex>
					</link>
					<link>
						<linkclipref>MVI_3817 4</linkclipref>
						<mediatype>audio</mediatype>
						<trackindex>2</trackindex>
						<clipindex>8</clipindex>
						<groupindex>1</groupindex>
					</link>
					<fielddominance>none</fielddominance>
					<itemhistory>
						<uuid>7F38132E-6747-441B-89C5-D954574753E8</uuid>
					</itemhistory>
				</clipitem>
				<clipitem id="MVI_3818 ">
					<name>MVI_3818</name>
					<duration>5760</duration>
					<rate>
						<ntsc>TRUE</ntsc>
						<timebase>24</timebase>
					</rate>
					<in>0</in>
					<out>5760</out>
					<start>55321</start>
					<end>61081</end>
					<pixelaspectratio>Square</pixelaspectratio>
					<enabled>TRUE</enabled>
					<anamorphic>FALSE</anamorphic>
					<alphatype>none</alphatype>
					<masterclipid>MVI_3818 1</masterclipid>
					<logginginfo>
						<scene/>
						<shottake/>
						<lognote/>
						<good>FALSE</good>
					</logginginfo>
					<labels>
						<label2/>
					</labels>
					<comments>
						<mastercomment1/>
						<mastercomment2/>
						<mastercomment3/>
						<mastercomment4/>
					</comments>
					<file id="MVI_3818 2">
						<name>MVI_3818.mov</name>
						<pathurl>file://localhost/Volumes/Nebula/MediaPackages/Binx/Binx_v2_5/color/MVI_3818.mov</pathurl>
						<rate>
							<timebase>24</timebase>
							<ntsc>TRUE</ntsc>
						</rate>
						<duration>5760</duration>
						<media>
							<video>
								<duration>5760</duration>
								<samplecharacteristics>
									<width>1920</width>
									<height>1080</height>
								</samplecharacteristics>
							</video>
							<audio>
								<samplecharacteristics>
									<samplerate>48000</samplerate>
									<depth>16</depth>
								</samplecharacteristics>
								<channelcount>2</channelcount>
							</audio>
						</media>
					</file>
					<marker>
						<name>hybridity</name>
						<comment>hybridity,interdisciplinary,knowledge,learning</comment>
						<color>
							<alpha>0</alpha>
							<red>255</red>
							<green>0</green>
							<blue>0</blue>
						</color>
						<in>236</in>
						<out>733</out>
					</marker>
					<marker>
						<name>Background</name>
						<comment>hybridity,interdisciplinary,knowledge,learning, beginnings, tribe, creative coders&#13;</comment>
						<color>
							<alpha>0</alpha>
							<red>255</red>
							<green>0</green>
							<blue>0</blue>
						</color>
						<in>773</in>
						<out>1134</out>
					</marker>
					<marker>
						<name>there was no degree</name>
						<comment>hybridity,interdisciplinary,knowledge,learning, education, architecture, creative coding, creative coders&#13;</comment>
						<color>
							<alpha>0</alpha>
							<red>255</red>
							<green>0</green>
							<blue>0</blue>
						</color>
						<in>1924</in>
						<out>2309</out>
					</marker>
					<marker>
						<name>geodata</name>
						<comment>maps, GPS, big data</comment>
						<color>
							<alpha>0</alpha>
							<red>255</red>
							<green>0</green>
							<blue>0</blue>
						</color>
						<in>3882</in>
						<out>4455</out>
					</marker>
					<sourcetrack>
						<mediatype>video</mediatype>
					</sourcetrack>
					<link>
						<linkclipref>MVI_3818 </linkclipref>
						<mediatype>video</mediatype>
						<trackindex>1</trackindex>
						<clipindex>9</clipindex>
					</link>
					<link>
						<linkclipref>MVI_3818 3</linkclipref>
						<mediatype>audio</mediatype>
						<trackindex>1</trackindex>
						<clipindex>9</clipindex>
						<groupindex>1</groupindex>
					</link>
					<link>
						<linkclipref>MVI_3818 4</linkclipref>
						<mediatype>audio</mediatype>
						<trackindex>2</trackindex>
						<clipindex>9</clipindex>
						<groupindex>1</groupindex>
					</link>
					<fielddominance>none</fielddominance>
					<itemhistory>
						<uuid>D7E4C944-FB17-43BB-9E24-BA4C371171C8</uuid>
					</itemhistory>
				</clipitem>
				<enabled>TRUE</enabled>
				<locked>FALSE</locked>
			</track>
			<track>
				<clipitem id="MVI_3814 5">
					<name>MVI_3814</name>
					<duration>13333</duration>
					<rate>
						<ntsc>TRUE</ntsc>
						<timebase>24</timebase>
					</rate>
					<in>0</in>
					<out>13333</out>
					<start>0</start>
					<end>13333</end>
					<pixelaspectratio>Square</pixelaspectratio>
					<enabled>TRUE</enabled>
					<anamorphic>FALSE</anamorphic>
					<alphatype>none</alphatype>
					<masterclipid>MVI_3814 1</masterclipid>
					<logginginfo>
						<scene/>
						<shottake/>
						<lognote/>
						<good>FALSE</good>
					</logginginfo>
					<labels>
						<label2/>
					</labels>
					<comments>
						<mastercomment1/>
						<mastercomment2/>
						<mastercomment3/>
						<mastercomment4/>
					</comments>
					<file id="MVI_3814 2"/>
					<marker>
						<name>actually interesting</name>
						<comment>data, data visualization,data,surprise,revelation,visualization</comment>
						<color>
							<alpha>0</alpha>
							<red>255</red>
							<green>0</green>
							<blue>0</blue>
						</color>
						<in>2269</in>
						<out>2746</out>
					</marker>
					<marker>
						<name>tools for storytelling2</name>
						<comment>people,storytelling,participation,social engagment,gift,tools</comment>
						<color>
							<alpha>0</alpha>
							<red>255</red>
							<green>0</green>
							<blue>0</blue>
						</color>
						<in>11891</in>
						<out>12364</out>
					</marker>
					<marker>
						<name>work for hire</name>
						<comment>commercial art,money,exploration,clients,struggle,work and life</comment>
						<color>
							<alpha>0</alpha>
							<red>255</red>
							<green>0</green>
							<blue>0</blue>
						</color>
						<in>12842</in>
						<out>13218</out>
					</marker>
					<sourcetrack>
						<mediatype>video</mediatype>
					</sourcetrack>
					<fielddominance>none</fielddominance>
					<itemhistory>
						<uuid>23F23900-A4C0-41F6-A4B8-5B2C309B03AB</uuid>
					</itemhistory>
				</clipitem>
				<clipitem id="MVI_3816 5">
					<name>MVI_3816</name>
					<duration>8880</duration>
					<rate>
						<ntsc>TRUE</ntsc>
						<timebase>24</timebase>
					</rate>
					<in>0</in>
					<out>8880</out>
					<start>30805</start>
					<end>39685</end>
					<pixelaspectratio>Square</pixelaspectratio>
					<anamorphic>FALSE</anamorphic>
					<alphatype>none</alphatype>
					<masterclipid>MVI_3816 1</masterclipid>
					<logginginfo>
						<scene/>
						<shottake/>
						<lognote/>
						<good>FALSE</good>
					</logginginfo>
					<labels>
						<label2/>
					</labels>
					<comments>
						<mastercomment1/>
						<mastercomment2/>
						<mastercomment3/>
						<mastercomment4/>
					</comments>
					<file id="MVI_3816 2"/>
					<marker>
						<name>brogrammers</name>
						<comment>brogrammers, nerd, gender gap, power</comment>
						<color>
							<alpha>0</alpha>
							<red>255</red>
							<green>0</green>
							<blue>0</blue>
						</color>
						<in>3617</in>
						<out>4347</out>
					</marker>
					<marker>
						<name>chicken/egg gender</name>
						<comment>women,gender gap, conferences</comment>
						<color>
							<alpha>0</alpha>
							<red>255</red>
							<green>0</green>
							<blue>0</blue>
						</color>
						<in>5375</in>
						<out>6174</out>
					</marker>
					<marker>
						<name>Programming is a superpower</name>
						<comment>programming, fun, motivational, power</comment>
						<color>
							<alpha>0</alpha>
							<red>255</red>
							<green>0</green>
							<blue>0</blue>
						</color>
						<in>7170</in>
						<out>8254</out>
					</marker>
					<sourcetrack>
						<mediatype>video</mediatype>
					</sourcetrack>
					<fielddominance>none</fielddominance>
					<itemhistory>
						<uuid>0F21EEFA-F0D6-44AD-8488-EE40B816613A</uuid>
					</itemhistory>
				</clipitem>
				<enabled>TRUE</enabled>
				<locked>FALSE</locked>
			</track>
		</video>
		<audio>
			<format>
				<samplecharacteristics>
					<depth>16</depth>
					<samplerate>48000</samplerate>
				</samplecharacteristics>
			</format>
			<outputs>
				<group>
					<index>1</index>
					<numchannels>2</numchannels>
					<downmix>0</downmix>
					<channel>
						<index>1</index>
					</channel>
					<channel>
						<index>2</index>
					</channel>
				</group>
			</outputs>
			<in>-1</in>
			<out>-1</out>
			<track>
				<clipitem id="MVI_3814 3">
					<name>MVI_3814</name>
					<duration>13333</duration>
					<rate>
						<ntsc>TRUE</ntsc>
						<timebase>24</timebase>
					</rate>
					<in>0</in>
					<out>13333</out>
					<start>0</start>
					<end>13333</end>
					<masterclipid>MVI_3814 1</masterclipid>
					<logginginfo>
						<scene/>
						<shottake/>
						<lognote/>
						<good>FALSE</good>
					</logginginfo>
					<labels>
						<label2/>
					</labels>
					<comments>
						<mastercomment1/>
						<mastercomment2/>
						<mastercomment3/>
						<mastercomment4/>
					</comments>
					<file id="MVI_3814 2"/>
					<marker>
						<name>actually interesting</name>
						<comment>data, data visualization,data,surprise,revelation,visualization</comment>
						<color>
							<alpha>0</alpha>
							<red>255</red>
							<green>0</green>
							<blue>0</blue>
						</color>
						<in>2269</in>
						<out>2746</out>
					</marker>
					<marker>
						<name>tool for others</name>
						<comment>participation,tools,social engagment,gift,people</comment>
						<color>
							<alpha>0</alpha>
							<red>255</red>
							<green>0</green>
							<blue>0</blue>
						</color>
						<in>3009</in>
						<out>3406</out>
					</marker>
					<marker>
						<name>trips</name>
						<comment>memory,data visualization,data ownership,souvenir, travel, personal, emotion, nostalgia</comment>
						<color>
							<alpha>0</alpha>
							<red>255</red>
							<green>0</green>
							<blue>0</blue>
						</color>
						<in>3443</in>
						<out>3989</out>
					</marker>
					<marker>
						<name>making things</name>
						<comment>physicality,3d printing,making things</comment>
						<color>
							<alpha>0</alpha>
							<red>255</red>
							<green>0</green>
							<blue>0</blue>
						</color>
						<in>4294</in>
						<out>5122</out>
					</marker>
					<marker>
						<name>frustrated about visualization</name>
						<comment>visualization,crisis,frustration,communication,complexity, career</comment>
						<color>
							<alpha>0</alpha>
							<red>255</red>
							<green>0</green>
							<blue>0</blue>
						</color>
						<in>6929</in>
						<out>7549</out>
					</marker>
					<marker>
						<name>digestibility</name>
						<comment>complexity,confusion,visualization,visual storytelling,communication,education,social engagment,society,public</comment>
						<color>
							<alpha>0</alpha>
							<red>255</red>
							<green>0</green>
							<blue>0</blue>
						</color>
						<in>9803</in>
						<out>10118</out>
					</marker>
					<marker>
						<name>tools for storytelling</name>
						<comment>people,storytelling,participation,social engagment,gift,tools</comment>
						<color>
							<alpha>0</alpha>
							<red>255</red>
							<green>0</green>
							<blue>0</blue>
						</color>
						<in>11403</in>
						<out>12363</out>
					</marker>
					<filter>
						<effect>
							<name>Audio Levels</name>
							<effectid>audiolevels</effectid>
							<effectcategory>audiolevels</effectcategory>
							<effecttype>audiolevels</effecttype>
							<mediatype>audio</mediatype>
							<parameter>
								<name>Level</name>
								<parameterid>level</parameterid>
								<valuemin>0</valuemin>
								<valuemax>3.98109</valuemax>
								<value>1</value>
							</parameter>
						</effect>
					</filter>
					<filter>
						<effect>
							<name>Audio Pan</name>
							<effectid>audiopan</effectid>
							<effectcategory>audiopan</effectcategory>
							<effecttype>audiopan</effecttype>
							<mediatype>audio</mediatype>
							<parameter>
								<name>Pan</name>
								<parameterid>pan</parameterid>
								<valuemin>-1</valuemin>
								<valuemax>1</valuemax>
								<value>-1</value>
							</parameter>
						</effect>
					</filter>
					<sourcetrack>
						<mediatype>audio</mediatype>
						<trackindex>1</trackindex>
					</sourcetrack>
					<link>
						<linkclipref>MVI_3814 </linkclipref>
						<mediatype>video</mediatype>
						<trackindex>1</trackindex>
						<clipindex>1</clipindex>
					</link>
					<link>
						<linkclipref>MVI_3814 3</linkclipref>
						<mediatype>audio</mediatype>
						<trackindex>1</trackindex>
						<clipindex>1</clipindex>
						<groupindex>1</groupindex>
					</link>
					<link>
						<linkclipref>MVI_3814 4</linkclipref>
						<mediatype>audio</mediatype>
						<trackindex>2</trackindex>
						<clipindex>1</clipindex>
						<groupindex>1</groupindex>
					</link>
					<itemhistory>
						<uuid>432FDBF7-15E9-49BF-A672-FE062068B802</uuid>
					</itemhistory>
				</clipitem>
				<clipitem id="MVI_3815 3">
					<name>MVI_3815</name>
					<duration>17472</duration>
					<rate>
						<ntsc>TRUE</ntsc>
						<timebase>24</timebase>
					</rate>
					<in>0</in>
					<out>4369</out>
					<start>13333</start>
					<end>17702</end>
					<masterclipid>MVI_3815 1</masterclipid>
					<logginginfo>
						<scene/>
						<shottake/>
						<lognote/>
						<good>FALSE</good>
					</logginginfo>
					<labels>
						<label2/>
					</labels>
					<comments>
						<mastercomment1/>
						<mastercomment2/>
						<mastercomment3/>
						<mastercomment4/>
					</comments>
					<file id="MVI_3815 2"/>
					<marker>
						<name>Mesh-U business</name>
						<comment>design,product,jewelry,cultural value,business</comment>
						<color>
							<alpha>0</alpha>
							<red>255</red>
							<green>0</green>
							<blue>0</blue>
						</color>
						<in>484</in>
						<out>1158</out>
					</marker>
					<marker>
						<name>Marker 2</name>
						<comment/>
						<color>
							<alpha>0</alpha>
							<red>255</red>
							<green>0</green>
							<blue>0</blue>
						</color>
						<in>1674</in>
						<out>-1</out>
					</marker>
					<marker>
						<name>Marker 3</name>
						<comment/>
						<color>
							<alpha>0</alpha>
							<red>255</red>
							<green>0</green>
							<blue>0</blue>
						</color>
						<in>2893</in>
						<out>-1</out>
					</marker>
					<marker>
						<name>maps</name>
						<comment>maps,gps,data visualization,data,trace of your life</comment>
						<color>
							<alpha>0</alpha>
							<red>255</red>
							<green>0</green>
							<blue>0</blue>
						</color>
						<in>3339</in>
						<out>4071</out>
					</marker>
					<marker>
						<name>meaningful shape1</name>
						<comment>maps,gps,data visualization,data,trace of your life</comment>
						<color>
							<alpha>0</alpha>
							<red>255</red>
							<green>0</green>
							<blue>0</blue>
						</color>
						<in>4370</in>
						<out>4593</out>
					</marker>
					<marker>
						<name>Marker 6</name>
						<comment/>
						<color>
							<alpha>0</alpha>
							<red>255</red>
							<green>0</green>
							<blue>0</blue>
						</color>
						<in>4817</in>
						<out>5059</out>
					</marker>
					<marker>
						<name>making a map</name>
						<comment>maps,gps,data visualization,data,trace of your life</comment>
						<color>
							<alpha>0</alpha>
							<red>255</red>
							<green>0</green>
							<blue>0</blue>
						</color>
						<in>6036</in>
						<out>6480</out>
					</marker>
					<marker>
						<name>face data</name>
						<comment>Clouds,future of cinema,face tracking</comment>
						<color>
							<alpha>0</alpha>
							<red>255</red>
							<green>0</green>
							<blue>0</blue>
						</color>
						<in>7661</in>
						<out>8518</out>
					</marker>
					<marker>
						<name>hackathon</name>
						<comment>collaboration,hackathon,thinking by doing,improvization,process,creativity,creative process</comment>
						<color>
							<alpha>0</alpha>
							<red>255</red>
							<green>0</green>
							<blue>0</blue>
						</color>
						<in>11306</in>
						<out>11656</out>
					</marker>
					<marker>
						<name>ar&amp;&amp;code</name>
						<comment>collaboration,hackathon,thinking by doing,improvization,process,creativity,creative process, sharing</comment>
						<color>
							<alpha>0</alpha>
							<red>255</red>
							<green>0</green>
							<blue>0</blue>
						</color>
						<in>12407</in>
						<out>13235</out>
					</marker>
					<marker>
						<name>women in tech</name>
						<comment>gender gap, women, </comment>
						<color>
							<alpha>0</alpha>
							<red>255</red>
							<green>0</green>
							<blue>0</blue>
						</color>
						<in>15422</in>
						<out>15979</out>
					</marker>
					<marker>
						<name>glass ceiling</name>
						<comment>women,gender gap</comment>
						<color>
							<alpha>0</alpha>
							<red>255</red>
							<green>0</green>
							<blue>0</blue>
						</color>
						<in>16248</in>
						<out>16774</out>
					</marker>
					<marker>
						<name>creative coding is more diverse</name>
						<comment>women,gender gap</comment>
						<color>
							<alpha>0</alpha>
							<red>255</red>
							<green>0</green>
							<blue>0</blue>
						</color>
						<in>17106</in>
						<out>17421</out>
					</marker>
					<filter>
						<effect>
							<name>Audio Levels</name>
							<effectid>audiolevels</effectid>
							<effectcategory>audiolevels</effectcategory>
							<effecttype>audiolevels</effecttype>
							<mediatype>audio</mediatype>
							<parameter>
								<name>Level</name>
								<parameterid>level</parameterid>
								<valuemin>0</valuemin>
								<valuemax>3.98109</valuemax>
								<value>1</value>
							</parameter>
						</effect>
					</filter>
					<filter>
						<effect>
							<name>Audio Pan</name>
							<effectid>audiopan</effectid>
							<effectcategory>audiopan</effectcategory>
							<effecttype>audiopan</effecttype>
							<mediatype>audio</mediatype>
							<parameter>
								<name>Pan</name>
								<parameterid>pan</parameterid>
								<valuemin>-1</valuemin>
								<valuemax>1</valuemax>
								<value>-1</value>
							</parameter>
						</effect>
					</filter>
					<sourcetrack>
						<mediatype>audio</mediatype>
						<trackindex>1</trackindex>
					</sourcetrack>
					<link>
						<linkclipref>MVI_3815 </linkclipref>
						<mediatype>video</mediatype>
						<trackindex>1</trackindex>
						<clipindex>2</clipindex>
					</link>
					<link>
						<linkclipref>MVI_3815 3</linkclipref>
						<mediatype>audio</mediatype>
						<trackindex>1</trackindex>
						<clipindex>2</clipindex>
						<groupindex>1</groupindex>
					</link>
					<link>
						<linkclipref>MVI_3815 4</linkclipref>
						<mediatype>audio</mediatype>
						<trackindex>2</trackindex>
						<clipindex>2</clipindex>
						<groupindex>1</groupindex>
					</link>
					<itemhistory>
						<uuid>C502C30C-C796-4F64-AE5F-858B8897CAEA</uuid>
						<uuid>FF284EAC-276B-4052-9538-68809B2E1AD4</uuid>
					</itemhistory>
				</clipitem>
				<clipitem id="MVI_3815 6">
					<name>MVI_3815</name>
					<duration>17472</duration>
					<rate>
						<ntsc>TRUE</ntsc>
						<timebase>24</timebase>
					</rate>
					<in>4369</in>
					<out>4593</out>
					<start>17702</start>
					<end>17926</end>
					<masterclipid>MVI_3815 1</masterclipid>
					<logginginfo>
						<scene/>
						<shottake/>
						<lognote/>
						<good>FALSE</good>
					</logginginfo>
					<labels>
						<label2/>
					</labels>
					<comments>
						<mastercomment1/>
						<mastercomment2/>
						<mastercomment3/>
						<mastercomment4/>
					</comments>
					<file id="MVI_3815 2"/>
					<marker>
						<name>Mesh-U business</name>
						<comment>design,product,jewelry,cultural value,business</comment>
						<color>
							<alpha>0</alpha>
							<red>255</red>
							<green>0</green>
							<blue>0</blue>
						</color>
						<in>484</in>
						<out>1158</out>
					</marker>
					<marker>
						<name>Marker 2</name>
						<comment/>
						<color>
							<alpha>0</alpha>
							<red>255</red>
							<green>0</green>
							<blue>0</blue>
						</color>
						<in>1674</in>
						<out>-1</out>
					</marker>
					<marker>
						<name>Marker 3</name>
						<comment/>
						<color>
							<alpha>0</alpha>
							<red>255</red>
							<green>0</green>
							<blue>0</blue>
						</color>
						<in>2893</in>
						<out>-1</out>
					</marker>
					<marker>
						<name>maps</name>
						<comment>maps,gps,data visualization,data,trace of your life</comment>
						<color>
							<alpha>0</alpha>
							<red>255</red>
							<green>0</green>
							<blue>0</blue>
						</color>
						<in>3339</in>
						<out>4071</out>
					</marker>
					<marker>
						<name>meaningful shape1</name>
						<comment>maps,gps,data visualization,data,trace of your life</comment>
						<color>
							<alpha>0</alpha>
							<red>255</red>
							<green>0</green>
							<blue>0</blue>
						</color>
						<in>4370</in>
						<out>4593</out>
					</marker>
					<marker>
						<name>Marker 6</name>
						<comment/>
						<color>
							<alpha>0</alpha>
							<red>255</red>
							<green>0</green>
							<blue>0</blue>
						</color>
						<in>4817</in>
						<out>5059</out>
					</marker>
					<marker>
						<name>making a map</name>
						<comment>maps,gps,data visualization,data,trace of your life</comment>
						<color>
							<alpha>0</alpha>
							<red>255</red>
							<green>0</green>
							<blue>0</blue>
						</color>
						<in>6036</in>
						<out>6480</out>
					</marker>
					<marker>
						<name>face data</name>
						<comment>Clouds,future of cinema,face tracking</comment>
						<color>
							<alpha>0</alpha>
							<red>255</red>
							<green>0</green>
							<blue>0</blue>
						</color>
						<in>7661</in>
						<out>8518</out>
					</marker>
					<marker>
						<name>hackathon</name>
						<comment>collaboration,hackathon,thinking by doing,improvization,process,creativity,creative process</comment>
						<color>
							<alpha>0</alpha>
							<red>255</red>
							<green>0</green>
							<blue>0</blue>
						</color>
						<in>11306</in>
						<out>11656</out>
					</marker>
					<marker>
						<name>ar&amp;&amp;code</name>
						<comment>collaboration,hackathon,thinking by doing,improvization,process,creativity,creative process, sharing</comment>
						<color>
							<alpha>0</alpha>
							<red>255</red>
							<green>0</green>
							<blue>0</blue>
						</color>
						<in>12407</in>
						<out>13235</out>
					</marker>
					<marker>
						<name>women in tech</name>
						<comment>gender gap, women, </comment>
						<color>
							<alpha>0</alpha>
							<red>255</red>
							<green>0</green>
							<blue>0</blue>
						</color>
						<in>15422</in>
						<out>15979</out>
					</marker>
					<marker>
						<name>glass ceiling</name>
						<comment>women,gender gap</comment>
						<color>
							<alpha>0</alpha>
							<red>255</red>
							<green>0</green>
							<blue>0</blue>
						</color>
						<in>16248</in>
						<out>16774</out>
					</marker>
					<marker>
						<name>creative coding is more diverse</name>
						<comment>women,gender gap</comment>
						<color>
							<alpha>0</alpha>
							<red>255</red>
							<green>0</green>
							<blue>0</blue>
						</color>
						<in>17106</in>
						<out>17421</out>
					</marker>
					<filter>
						<effect>
							<name>Audio Levels</name>
							<effectid>audiolevels</effectid>
							<effectcategory>audiolevels</effectcategory>
							<effecttype>audiolevels</effecttype>
							<mediatype>audio</mediatype>
							<parameter>
								<name>Level</name>
								<parameterid>level</parameterid>
								<valuemin>0</valuemin>
								<valuemax>3.98109</valuemax>
								<value>1</value>
							</parameter>
						</effect>
					</filter>
					<filter>
						<effect>
							<name>Audio Pan</name>
							<effectid>audiopan</effectid>
							<effectcategory>audiopan</effectcategory>
							<effecttype>audiopan</effecttype>
							<mediatype>audio</mediatype>
							<parameter>
								<name>Pan</name>
								<parameterid>pan</parameterid>
								<valuemin>-1</valuemin>
								<valuemax>1</valuemax>
								<value>-1</value>
							</parameter>
						</effect>
					</filter>
					<sourcetrack>
						<mediatype>audio</mediatype>
						<trackindex>1</trackindex>
					</sourcetrack>
					<link>
						<linkclipref>MVI_3815 5</linkclipref>
						<mediatype>video</mediatype>
						<trackindex>1</trackindex>
						<clipindex>3</clipindex>
					</link>
					<link>
						<linkclipref>MVI_3815 6</linkclipref>
						<mediatype>audio</mediatype>
						<trackindex>1</trackindex>
						<clipindex>3</clipindex>
						<groupindex>1</groupindex>
					</link>
					<link>
						<linkclipref>MVI_3815 7</linkclipref>
						<mediatype>audio</mediatype>
						<trackindex>2</trackindex>
						<clipindex>3</clipindex>
						<groupindex>1</groupindex>
					</link>
					<itemhistory>
						<uuid>B1382E4C-9FC9-4F00-9299-1F7671C33A5D</uuid>
						<uuid>FF284EAC-276B-4052-9538-68809B2E1AD4</uuid>
					</itemhistory>
				</clipitem>
				<clipitem id="MVI_3815 9">
					<name>MVI_3815</name>
					<duration>17472</duration>
					<rate>
						<ntsc>TRUE</ntsc>
						<timebase>24</timebase>
					</rate>
					<in>4593</in>
					<out>12344</out>
					<start>17926</start>
					<end>25677</end>
					<masterclipid>MVI_3815 1</masterclipid>
					<logginginfo>
						<scene/>
						<shottake/>
						<lognote/>
						<good>FALSE</good>
					</logginginfo>
					<labels>
						<label2/>
					</labels>
					<comments>
						<mastercomment1/>
						<mastercomment2/>
						<mastercomment3/>
						<mastercomment4/>
					</comments>
					<file id="MVI_3815 2"/>
					<marker>
						<name>Mesh-U business</name>
						<comment>design,product,jewelry,cultural value,business</comment>
						<color>
							<alpha>0</alpha>
							<red>255</red>
							<green>0</green>
							<blue>0</blue>
						</color>
						<in>484</in>
						<out>1158</out>
					</marker>
					<marker>
						<name>Marker 2</name>
						<comment/>
						<color>
							<alpha>0</alpha>
							<red>255</red>
							<green>0</green>
							<blue>0</blue>
						</color>
						<in>1674</in>
						<out>-1</out>
					</marker>
					<marker>
						<name>Marker 3</name>
						<comment/>
						<color>
							<alpha>0</alpha>
							<red>255</red>
							<green>0</green>
							<blue>0</blue>
						</color>
						<in>2893</in>
						<out>-1</out>
					</marker>
					<marker>
						<name>maps</name>
						<comment>maps,gps,data visualization,data,trace of your life</comment>
						<color>
							<alpha>0</alpha>
							<red>255</red>
							<green>0</green>
							<blue>0</blue>
						</color>
						<in>3339</in>
						<out>4071</out>
					</marker>
					<marker>
						<name>meaningful shape1</name>
						<comment>maps,gps,data visualization,data,trace of your life</comment>
						<color>
							<alpha>0</alpha>
							<red>255</red>
							<green>0</green>
							<blue>0</blue>
						</color>
						<in>4370</in>
						<out>4593</out>
					</marker>
					<marker>
						<name>Marker 6</name>
						<comment/>
						<color>
							<alpha>0</alpha>
							<red>255</red>
							<green>0</green>
							<blue>0</blue>
						</color>
						<in>4817</in>
						<out>5059</out>
					</marker>
					<marker>
						<name>making a map</name>
						<comment>maps,gps,data visualization,data,trace of your life</comment>
						<color>
							<alpha>0</alpha>
							<red>255</red>
							<green>0</green>
							<blue>0</blue>
						</color>
						<in>6036</in>
						<out>6480</out>
					</marker>
					<marker>
						<name>face data</name>
						<comment>Clouds,future of cinema,face tracking</comment>
						<color>
							<alpha>0</alpha>
							<red>255</red>
							<green>0</green>
							<blue>0</blue>
						</color>
						<in>7661</in>
						<out>8518</out>
					</marker>
					<marker>
						<name>hackathon</name>
						<comment>collaboration,hackathon,thinking by doing,improvization,process,creativity,creative process</comment>
						<color>
							<alpha>0</alpha>
							<red>255</red>
							<green>0</green>
							<blue>0</blue>
						</color>
						<in>11306</in>
						<out>11656</out>
					</marker>
					<marker>
						<name>ar&amp;&amp;code</name>
						<comment>collaboration,hackathon,thinking by doing,improvization,process,creativity,creative process, sharing</comment>
						<color>
							<alpha>0</alpha>
							<red>255</red>
							<green>0</green>
							<blue>0</blue>
						</color>
						<in>12407</in>
						<out>13235</out>
					</marker>
					<marker>
						<name>women in tech</name>
						<comment>gender gap, women, </comment>
						<color>
							<alpha>0</alpha>
							<red>255</red>
							<green>0</green>
							<blue>0</blue>
						</color>
						<in>15422</in>
						<out>15979</out>
					</marker>
					<marker>
						<name>glass ceiling</name>
						<comment>women,gender gap</comment>
						<color>
							<alpha>0</alpha>
							<red>255</red>
							<green>0</green>
							<blue>0</blue>
						</color>
						<in>16248</in>
						<out>16774</out>
					</marker>
					<marker>
						<name>creative coding is more diverse</name>
						<comment>women,gender gap</comment>
						<color>
							<alpha>0</alpha>
							<red>255</red>
							<green>0</green>
							<blue>0</blue>
						</color>
						<in>17106</in>
						<out>17421</out>
					</marker>
					<filter>
						<effect>
							<name>Audio Levels</name>
							<effectid>audiolevels</effectid>
							<effectcategory>audiolevels</effectcategory>
							<effecttype>audiolevels</effecttype>
							<mediatype>audio</mediatype>
							<parameter>
								<name>Level</name>
								<parameterid>level</parameterid>
								<valuemin>0</valuemin>
								<valuemax>3.98109</valuemax>
								<value>1</value>
							</parameter>
						</effect>
					</filter>
					<filter>
						<effect>
							<name>Audio Pan</name>
							<effectid>audiopan</effectid>
							<effectcategory>audiopan</effectcategory>
							<effecttype>audiopan</effecttype>
							<mediatype>audio</mediatype>
							<parameter>
								<name>Pan</name>
								<parameterid>pan</parameterid>
								<valuemin>-1</valuemin>
								<valuemax>1</valuemax>
								<value>-1</value>
							</parameter>
						</effect>
					</filter>
					<sourcetrack>
						<mediatype>audio</mediatype>
						<trackindex>1</trackindex>
					</sourcetrack>
					<link>
						<linkclipref>MVI_3815 8</linkclipref>
						<mediatype>video</mediatype>
						<trackindex>1</trackindex>
						<clipindex>4</clipindex>
					</link>
					<link>
						<linkclipref>MVI_3815 9</linkclipref>
						<mediatype>audio</mediatype>
						<trackindex>1</trackindex>
						<clipindex>4</clipindex>
						<groupindex>1</groupindex>
					</link>
					<link>
						<linkclipref>MVI_3815 10</linkclipref>
						<mediatype>audio</mediatype>
						<trackindex>2</trackindex>
						<clipindex>4</clipindex>
						<groupindex>1</groupindex>
					</link>
					<itemhistory>
						<uuid>22C8BD38-194C-4F9E-AE40-67366ACA04C4</uuid>
						<uuid>FF284EAC-276B-4052-9538-68809B2E1AD4</uuid>
					</itemhistory>
				</clipitem>
				<clipitem id="MVI_3815 12">
					<name>MVI_3815</name>
					<duration>17472</duration>
					<rate>
						<ntsc>TRUE</ntsc>
						<timebase>24</timebase>
					</rate>
					<in>12344</in>
					<out>13222</out>
					<start>25677</start>
					<end>26555</end>
					<masterclipid>MVI_3815 1</masterclipid>
					<logginginfo>
						<scene/>
						<shottake/>
						<lognote/>
						<good>FALSE</good>
					</logginginfo>
					<labels>
						<label2/>
					</labels>
					<comments>
						<mastercomment1/>
						<mastercomment2/>
						<mastercomment3/>
						<mastercomment4/>
					</comments>
					<file id="MVI_3815 2"/>
					<marker>
						<name>Mesh-U business</name>
						<comment>design,product,jewelry,cultural value,business</comment>
						<color>
							<alpha>0</alpha>
							<red>255</red>
							<green>0</green>
							<blue>0</blue>
						</color>
						<in>484</in>
						<out>1158</out>
					</marker>
					<marker>
						<name>Marker 2</name>
						<comment/>
						<color>
							<alpha>0</alpha>
							<red>255</red>
							<green>0</green>
							<blue>0</blue>
						</color>
						<in>1674</in>
						<out>-1</out>
					</marker>
					<marker>
						<name>Marker 3</name>
						<comment/>
						<color>
							<alpha>0</alpha>
							<red>255</red>
							<green>0</green>
							<blue>0</blue>
						</color>
						<in>2893</in>
						<out>-1</out>
					</marker>
					<marker>
						<name>maps</name>
						<comment>maps,gps,data visualization,data,trace of your life</comment>
						<color>
							<alpha>0</alpha>
							<red>255</red>
							<green>0</green>
							<blue>0</blue>
						</color>
						<in>3339</in>
						<out>4071</out>
					</marker>
					<marker>
						<name>meaningful shape1</name>
						<comment>maps,gps,data visualization,data,trace of your life</comment>
						<color>
							<alpha>0</alpha>
							<red>255</red>
							<green>0</green>
							<blue>0</blue>
						</color>
						<in>4370</in>
						<out>4593</out>
					</marker>
					<marker>
						<name>Marker 6</name>
						<comment/>
						<color>
							<alpha>0</alpha>
							<red>255</red>
							<green>0</green>
							<blue>0</blue>
						</color>
						<in>4817</in>
						<out>5059</out>
					</marker>
					<marker>
						<name>making a map</name>
						<comment>maps,gps,data visualization,data,trace of your life</comment>
						<color>
							<alpha>0</alpha>
							<red>255</red>
							<green>0</green>
							<blue>0</blue>
						</color>
						<in>6036</in>
						<out>6480</out>
					</marker>
					<marker>
						<name>face data</name>
						<comment>Clouds,future of cinema,face tracking</comment>
						<color>
							<alpha>0</alpha>
							<red>255</red>
							<green>0</green>
							<blue>0</blue>
						</color>
						<in>7661</in>
						<out>8518</out>
					</marker>
					<marker>
						<name>hackathon</name>
						<comment>collaboration,hackathon,thinking by doing,improvization,process,creativity,creative process</comment>
						<color>
							<alpha>0</alpha>
							<red>255</red>
							<green>0</green>
							<blue>0</blue>
						</color>
						<in>11306</in>
						<out>11656</out>
					</marker>
					<marker>
						<name>ar&amp;&amp;code</name>
						<comment>collaboration,hackathon,thinking by doing,improvization,process,creativity,creative process, sharing</comment>
						<color>
							<alpha>0</alpha>
							<red>255</red>
							<green>0</green>
							<blue>0</blue>
						</color>
						<in>12407</in>
						<out>13235</out>
					</marker>
					<marker>
						<name>women in tech</name>
						<comment>gender gap, women, </comment>
						<color>
							<alpha>0</alpha>
							<red>255</red>
							<green>0</green>
							<blue>0</blue>
						</color>
						<in>15422</in>
						<out>15979</out>
					</marker>
					<marker>
						<name>glass ceiling</name>
						<comment>women,gender gap</comment>
						<color>
							<alpha>0</alpha>
							<red>255</red>
							<green>0</green>
							<blue>0</blue>
						</color>
						<in>16248</in>
						<out>16774</out>
					</marker>
					<marker>
						<name>creative coding is more diverse</name>
						<comment>women,gender gap</comment>
						<color>
							<alpha>0</alpha>
							<red>255</red>
							<green>0</green>
							<blue>0</blue>
						</color>
						<in>17106</in>
						<out>17421</out>
					</marker>
					<filter>
						<effect>
							<name>Audio Levels</name>
							<effectid>audiolevels</effectid>
							<effectcategory>audiolevels</effectcategory>
							<effecttype>audiolevels</effecttype>
							<mediatype>audio</mediatype>
							<parameter>
								<name>Level</name>
								<parameterid>level</parameterid>
								<valuemin>0</valuemin>
								<valuemax>3.98109</valuemax>
								<value>1</value>
							</parameter>
						</effect>
					</filter>
					<filter>
						<effect>
							<name>Audio Pan</name>
							<effectid>audiopan</effectid>
							<effectcategory>audiopan</effectcategory>
							<effecttype>audiopan</effecttype>
							<mediatype>audio</mediatype>
							<parameter>
								<name>Pan</name>
								<parameterid>pan</parameterid>
								<valuemin>-1</valuemin>
								<valuemax>1</valuemax>
								<value>-1</value>
							</parameter>
						</effect>
					</filter>
					<sourcetrack>
						<mediatype>audio</mediatype>
						<trackindex>1</trackindex>
					</sourcetrack>
					<link>
						<linkclipref>MVI_3815 11</linkclipref>
						<mediatype>video</mediatype>
						<trackindex>1</trackindex>
						<clipindex>5</clipindex>
					</link>
					<link>
						<linkclipref>MVI_3815 12</linkclipref>
						<mediatype>audio</mediatype>
						<trackindex>1</trackindex>
						<clipindex>5</clipindex>
						<groupindex>1</groupindex>
					</link>
					<link>
						<linkclipref>MVI_3815 13</linkclipref>
						<mediatype>audio</mediatype>
						<trackindex>2</trackindex>
						<clipindex>5</clipindex>
						<groupindex>1</groupindex>
					</link>
					<itemhistory>
						<uuid>C8B4C89E-3B4C-41BD-A644-9C33D543B3A9</uuid>
						<uuid>FF284EAC-276B-4052-9538-68809B2E1AD4</uuid>
					</itemhistory>
				</clipitem>
				<clipitem id="MVI_3815 15">
					<name>MVI_3815</name>
					<duration>17472</duration>
					<rate>
						<ntsc>TRUE</ntsc>
						<timebase>24</timebase>
					</rate>
					<in>13222</in>
					<out>17472</out>
					<start>26555</start>
					<end>30805</end>
					<masterclipid>MVI_3815 1</masterclipid>
					<logginginfo>
						<scene/>
						<shottake/>
						<lognote/>
						<good>FALSE</good>
					</logginginfo>
					<labels>
						<label2/>
					</labels>
					<comments>
						<mastercomment1/>
						<mastercomment2/>
						<mastercomment3/>
						<mastercomment4/>
					</comments>
					<file id="MVI_3815 2"/>
					<marker>
						<name>Mesh-U business</name>
						<comment>design,product,jewelry,cultural value,business</comment>
						<color>
							<alpha>0</alpha>
							<red>255</red>
							<green>0</green>
							<blue>0</blue>
						</color>
						<in>484</in>
						<out>1158</out>
					</marker>
					<marker>
						<name>Marker 2</name>
						<comment/>
						<color>
							<alpha>0</alpha>
							<red>255</red>
							<green>0</green>
							<blue>0</blue>
						</color>
						<in>1674</in>
						<out>-1</out>
					</marker>
					<marker>
						<name>Marker 3</name>
						<comment/>
						<color>
							<alpha>0</alpha>
							<red>255</red>
							<green>0</green>
							<blue>0</blue>
						</color>
						<in>2893</in>
						<out>-1</out>
					</marker>
					<marker>
						<name>maps</name>
						<comment>maps,gps,data visualization,data,trace of your life</comment>
						<color>
							<alpha>0</alpha>
							<red>255</red>
							<green>0</green>
							<blue>0</blue>
						</color>
						<in>3339</in>
						<out>4071</out>
					</marker>
					<marker>
						<name>meaningful shape1</name>
						<comment>maps,gps,data visualization,data,trace of your life</comment>
						<color>
							<alpha>0</alpha>
							<red>255</red>
							<green>0</green>
							<blue>0</blue>
						</color>
						<in>4370</in>
						<out>4593</out>
					</marker>
					<marker>
						<name>Marker 6</name>
						<comment/>
						<color>
							<alpha>0</alpha>
							<red>255</red>
							<green>0</green>
							<blue>0</blue>
						</color>
						<in>4817</in>
						<out>5059</out>
					</marker>
					<marker>
						<name>making a map</name>
						<comment>maps,gps,data visualization,data,trace of your life</comment>
						<color>
							<alpha>0</alpha>
							<red>255</red>
							<green>0</green>
							<blue>0</blue>
						</color>
						<in>6036</in>
						<out>6480</out>
					</marker>
					<marker>
						<name>face data</name>
						<comment>Clouds,future of cinema,face tracking</comment>
						<color>
							<alpha>0</alpha>
							<red>255</red>
							<green>0</green>
							<blue>0</blue>
						</color>
						<in>7661</in>
						<out>8518</out>
					</marker>
					<marker>
						<name>hackathon</name>
						<comment>collaboration,hackathon,thinking by doing,improvization,process,creativity,creative process</comment>
						<color>
							<alpha>0</alpha>
							<red>255</red>
							<green>0</green>
							<blue>0</blue>
						</color>
						<in>11306</in>
						<out>11656</out>
					</marker>
					<marker>
						<name>ar&amp;&amp;code</name>
						<comment>collaboration,hackathon,thinking by doing,improvization,process,creativity,creative process, sharing</comment>
						<color>
							<alpha>0</alpha>
							<red>255</red>
							<green>0</green>
							<blue>0</blue>
						</color>
						<in>12407</in>
						<out>13235</out>
					</marker>
					<marker>
						<name>women in tech</name>
						<comment>gender gap, women, </comment>
						<color>
							<alpha>0</alpha>
							<red>255</red>
							<green>0</green>
							<blue>0</blue>
						</color>
						<in>15422</in>
						<out>15979</out>
					</marker>
					<marker>
						<name>glass ceiling</name>
						<comment>women,gender gap</comment>
						<color>
							<alpha>0</alpha>
							<red>255</red>
							<green>0</green>
							<blue>0</blue>
						</color>
						<in>16248</in>
						<out>16774</out>
					</marker>
					<marker>
						<name>creative coding is more diverse</name>
						<comment>women,gender gap</comment>
						<color>
							<alpha>0</alpha>
							<red>255</red>
							<green>0</green>
							<blue>0</blue>
						</color>
						<in>17106</in>
						<out>17421</out>
					</marker>
					<filter>
						<effect>
							<name>Audio Levels</name>
							<effectid>audiolevels</effectid>
							<effectcategory>audiolevels</effectcategory>
							<effecttype>audiolevels</effecttype>
							<mediatype>audio</mediatype>
							<parameter>
								<name>Level</name>
								<parameterid>level</parameterid>
								<valuemin>0</valuemin>
								<valuemax>3.98109</valuemax>
								<value>1</value>
							</parameter>
						</effect>
					</filter>
					<filter>
						<effect>
							<name>Audio Pan</name>
							<effectid>audiopan</effectid>
							<effectcategory>audiopan</effectcategory>
							<effecttype>audiopan</effecttype>
							<mediatype>audio</mediatype>
							<parameter>
								<name>Pan</name>
								<parameterid>pan</parameterid>
								<valuemin>-1</valuemin>
								<valuemax>1</valuemax>
								<value>-1</value>
							</parameter>
						</effect>
					</filter>
					<sourcetrack>
						<mediatype>audio</mediatype>
						<trackindex>1</trackindex>
					</sourcetrack>
					<link>
						<linkclipref>MVI_3815 14</linkclipref>
						<mediatype>video</mediatype>
						<trackindex>1</trackindex>
						<clipindex>6</clipindex>
					</link>
					<link>
						<linkclipref>MVI_3815 15</linkclipref>
						<mediatype>audio</mediatype>
						<trackindex>1</trackindex>
						<clipindex>6</clipindex>
						<groupindex>1</groupindex>
					</link>
					<link>
						<linkclipref>MVI_3815 16</linkclipref>
						<mediatype>audio</mediatype>
						<trackindex>2</trackindex>
						<clipindex>6</clipindex>
						<groupindex>1</groupindex>
					</link>
					<itemhistory>
						<uuid>99E52E82-01CC-4FA3-9044-D020B59A7334</uuid>
						<uuid>FF284EAC-276B-4052-9538-68809B2E1AD4</uuid>
					</itemhistory>
				</clipitem>
				<clipitem id="MVI_3816 3">
					<name>MVI_3816</name>
					<duration>8880</duration>
					<rate>
						<ntsc>TRUE</ntsc>
						<timebase>24</timebase>
					</rate>
					<in>0</in>
					<out>8880</out>
					<start>30805</start>
					<end>39685</end>
					<masterclipid>MVI_3816 1</masterclipid>
					<logginginfo>
						<scene/>
						<shottake/>
						<lognote/>
						<good>FALSE</good>
					</logginginfo>
					<labels>
						<label2/>
					</labels>
					<comments>
						<mastercomment1/>
						<mastercomment2/>
						<mastercomment3/>
						<mastercomment4/>
					</comments>
					<file id="MVI_3816 2"/>
					<marker>
						<name>Marker 1</name>
						<comment/>
						<color>
							<alpha>0</alpha>
							<red>255</red>
							<green>0</green>
							<blue>0</blue>
						</color>
						<in>1141</in>
						<out>1911</out>
					</marker>
					<marker>
						<name>Marker 2</name>
						<comment/>
						<color>
							<alpha>0</alpha>
							<red>255</red>
							<green>0</green>
							<blue>0</blue>
						</color>
						<in>3340</in>
						<out>4348</out>
					</marker>
					<marker>
						<name>programming is a superpower</name>
						<comment>programming, power, creativity, invention</comment>
						<color>
							<alpha>0</alpha>
							<red>255</red>
							<green>0</green>
							<blue>0</blue>
						</color>
						<in>7170</in>
						<out>7276</out>
					</marker>
					<filter>
						<effect>
							<name>Audio Levels</name>
							<effectid>audiolevels</effectid>
							<effectcategory>audiolevels</effectcategory>
							<effecttype>audiolevels</effecttype>
							<mediatype>audio</mediatype>
							<parameter>
								<name>Level</name>
								<parameterid>level</parameterid>
								<valuemin>0</valuemin>
								<valuemax>3.98109</valuemax>
								<value>1</value>
							</parameter>
						</effect>
					</filter>
					<filter>
						<effect>
							<name>Audio Pan</name>
							<effectid>audiopan</effectid>
							<effectcategory>audiopan</effectcategory>
							<effecttype>audiopan</effecttype>
							<mediatype>audio</mediatype>
							<parameter>
								<name>Pan</name>
								<parameterid>pan</parameterid>
								<valuemin>-1</valuemin>
								<valuemax>1</valuemax>
								<value>-1</value>
							</parameter>
						</effect>
					</filter>
					<sourcetrack>
						<mediatype>audio</mediatype>
						<trackindex>1</trackindex>
					</sourcetrack>
					<link>
						<linkclipref>MVI_3816 </linkclipref>
						<mediatype>video</mediatype>
						<trackindex>1</trackindex>
						<clipindex>7</clipindex>
					</link>
					<link>
						<linkclipref>MVI_3816 3</linkclipref>
						<mediatype>audio</mediatype>
						<trackindex>1</trackindex>
						<clipindex>7</clipindex>
						<groupindex>1</groupindex>
					</link>
					<link>
						<linkclipref>MVI_3816 4</linkclipref>
						<mediatype>audio</mediatype>
						<trackindex>2</trackindex>
						<clipindex>7</clipindex>
						<groupindex>1</groupindex>
					</link>
					<itemhistory>
						<uuid>BCF3AFF8-0A1F-46E0-96C5-C6473547F603</uuid>
					</itemhistory>
				</clipitem>
				<clipitem id="MVI_3817 3">
					<name>MVI_3817</name>
					<duration>15636</duration>
					<rate>
						<ntsc>TRUE</ntsc>
						<timebase>24</timebase>
					</rate>
					<in>0</in>
					<out>15636</out>
					<start>39685</start>
					<end>55321</end>
					<masterclipid>MVI_3817 1</masterclipid>
					<logginginfo>
						<scene/>
						<shottake/>
						<lognote/>
						<good>FALSE</good>
					</logginginfo>
					<labels>
						<label2/>
					</labels>
					<comments>
						<mastercomment1/>
						<mastercomment2/>
						<mastercomment3/>
						<mastercomment4/>
					</comments>
					<file id="MVI_3817 2"/>
					<marker>
						<name>tech fracturing</name>
						<comment>specialization, programming, learning, technological progress</comment>
						<color>
							<alpha>0</alpha>
							<red>255</red>
							<green>0</green>
							<blue>0</blue>
						</color>
						<in>277</in>
						<out>628</out>
					</marker>
					<marker>
						<name>skillshare</name>
						<comment>learning, community, sharing, </comment>
						<color>
							<alpha>0</alpha>
							<red>255</red>
							<green>0</green>
							<blue>0</blue>
						</color>
						<in>2088</in>
						<out>2469</out>
					</marker>
					<marker>
						<name>learning</name>
						<comment>learning, community, sharing, </comment>
						<color>
							<alpha>0</alpha>
							<red>255</red>
							<green>0</green>
							<blue>0</blue>
						</color>
						<in>2748</in>
						<out>3830</out>
					</marker>
					<marker>
						<name>learning with others</name>
						<comment>learning, community, sharing,</comment>
						<color>
							<alpha>0</alpha>
							<red>255</red>
							<green>0</green>
							<blue>0</blue>
						</color>
						<in>4261</in>
						<out>4364</out>
					</marker>
					<marker>
						<name>big data</name>
						<comment>data visualization,data ownership,big data</comment>
						<color>
							<alpha>0</alpha>
							<red>255</red>
							<green>0</green>
							<blue>0</blue>
						</color>
						<in>5147</in>
						<out>5764</out>
					</marker>
					<marker>
						<name>field of data vis</name>
						<comment>data visualization, data art, communication, visualization, </comment>
						<color>
							<alpha>0</alpha>
							<red>255</red>
							<green>0</green>
							<blue>0</blue>
						</color>
						<in>6587</in>
						<out>7258</out>
					</marker>
					<marker>
						<name>technoutopian</name>
						<comment>technological progress,technoptimism,utopia</comment>
						<color>
							<alpha>0</alpha>
							<red>255</red>
							<green>0</green>
							<blue>0</blue>
						</color>
						<in>9307</in>
						<out>9613</out>
					</marker>
					<marker>
						<name>changing the world</name>
						<comment>technological progress,technoptimism,utopia, progress,&#13;society, problem-solving, change, hope</comment>
						<color>
							<alpha>0</alpha>
							<red>255</red>
							<green>0</green>
							<blue>0</blue>
						</color>
						<in>10438</in>
						<out>10843</out>
					</marker>
					<marker>
						<name>art and culture </name>
						<comment>society, culture, art, progress, </comment>
						<color>
							<alpha>0</alpha>
							<red>255</red>
							<green>0</green>
							<blue>0</blue>
						</color>
						<in>12386</in>
						<out>13224</out>
					</marker>
					<marker>
						<name>art for money</name>
						<comment>commercialism,&#13;art,life and work,art versus engineering, business, passion&#13;</comment>
						<color>
							<alpha>0</alpha>
							<red>255</red>
							<green>0</green>
							<blue>0</blue>
						</color>
						<in>13239</in>
						<out>14194</out>
					</marker>
					<filter>
						<effect>
							<name>Audio Levels</name>
							<effectid>audiolevels</effectid>
							<effectcategory>audiolevels</effectcategory>
							<effecttype>audiolevels</effecttype>
							<mediatype>audio</mediatype>
							<parameter>
								<name>Level</name>
								<parameterid>level</parameterid>
								<valuemin>0</valuemin>
								<valuemax>3.98109</valuemax>
								<value>1</value>
							</parameter>
						</effect>
					</filter>
					<filter>
						<effect>
							<name>Audio Pan</name>
							<effectid>audiopan</effectid>
							<effectcategory>audiopan</effectcategory>
							<effecttype>audiopan</effecttype>
							<mediatype>audio</mediatype>
							<parameter>
								<name>Pan</name>
								<parameterid>pan</parameterid>
								<valuemin>-1</valuemin>
								<valuemax>1</valuemax>
								<value>-1</value>
							</parameter>
						</effect>
					</filter>
					<sourcetrack>
						<mediatype>audio</mediatype>
						<trackindex>1</trackindex>
					</sourcetrack>
					<link>
						<linkclipref>MVI_3817 </linkclipref>
						<mediatype>video</mediatype>
						<trackindex>1</trackindex>
						<clipindex>8</clipindex>
					</link>
					<link>
						<linkclipref>MVI_3817 3</linkclipref>
						<mediatype>audio</mediatype>
						<trackindex>1</trackindex>
						<clipindex>8</clipindex>
						<groupindex>1</groupindex>
					</link>
					<link>
						<linkclipref>MVI_3817 4</linkclipref>
						<mediatype>audio</mediatype>
						<trackindex>2</trackindex>
						<clipindex>8</clipindex>
						<groupindex>1</groupindex>
					</link>
					<itemhistory>
						<uuid>3365CB9B-4889-4CEB-9C66-17D736C7F631</uuid>
					</itemhistory>
				</clipitem>
				<clipitem id="MVI_3818 3">
					<name>MVI_3818</name>
					<duration>5760</duration>
					<rate>
						<ntsc>TRUE</ntsc>
						<timebase>24</timebase>
					</rate>
					<in>0</in>
					<out>5760</out>
					<start>55321</start>
					<end>61081</end>
					<masterclipid>MVI_3818 1</masterclipid>
					<logginginfo>
						<scene/>
						<shottake/>
						<lognote/>
						<good>FALSE</good>
					</logginginfo>
					<labels>
						<label2/>
					</labels>
					<comments>
						<mastercomment1/>
						<mastercomment2/>
						<mastercomment3/>
						<mastercomment4/>
					</comments>
					<file id="MVI_3818 2"/>
					<marker>
						<name>hybridity</name>
						<comment>hybridity,interdisciplinary,knowledge,learning</comment>
						<color>
							<alpha>0</alpha>
							<red>255</red>
							<green>0</green>
							<blue>0</blue>
						</color>
						<in>236</in>
						<out>733</out>
					</marker>
					<marker>
						<name>Background</name>
						<comment>hybridity,interdisciplinary,knowledge,learning, beginnings, tribe, creative coders&#13;</comment>
						<color>
							<alpha>0</alpha>
							<red>255</red>
							<green>0</green>
							<blue>0</blue>
						</color>
						<in>773</in>
						<out>1134</out>
					</marker>
					<marker>
						<name>there was no degree</name>
						<comment>hybridity,interdisciplinary,knowledge,learning, education, architecture, creative coding, creative coders&#13;</comment>
						<color>
							<alpha>0</alpha>
							<red>255</red>
							<green>0</green>
							<blue>0</blue>
						</color>
						<in>1924</in>
						<out>2309</out>
					</marker>
					<marker>
						<name>geodata</name>
						<comment>maps, GPS, big data</comment>
						<color>
							<alpha>0</alpha>
							<red>255</red>
							<green>0</green>
							<blue>0</blue>
						</color>
						<in>3882</in>
						<out>4455</out>
					</marker>
					<filter>
						<effect>
							<name>Audio Levels</name>
							<effectid>audiolevels</effectid>
							<effectcategory>audiolevels</effectcategory>
							<effecttype>audiolevels</effecttype>
							<mediatype>audio</mediatype>
							<parameter>
								<name>Level</name>
								<parameterid>level</parameterid>
								<valuemin>0</valuemin>
								<valuemax>3.98109</valuemax>
								<value>1</value>
							</parameter>
						</effect>
					</filter>
					<filter>
						<effect>
							<name>Audio Pan</name>
							<effectid>audiopan</effectid>
							<effectcategory>audiopan</effectcategory>
							<effecttype>audiopan</effecttype>
							<mediatype>audio</mediatype>
							<parameter>
								<name>Pan</name>
								<parameterid>pan</parameterid>
								<valuemin>-1</valuemin>
								<valuemax>1</valuemax>
								<value>-1</value>
							</parameter>
						</effect>
					</filter>
					<sourcetrack>
						<mediatype>audio</mediatype>
						<trackindex>1</trackindex>
					</sourcetrack>
					<link>
						<linkclipref>MVI_3818 </linkclipref>
						<mediatype>video</mediatype>
						<trackindex>1</trackindex>
						<clipindex>9</clipindex>
					</link>
					<link>
						<linkclipref>MVI_3818 3</linkclipref>
						<mediatype>audio</mediatype>
						<trackindex>1</trackindex>
						<clipindex>9</clipindex>
						<groupindex>1</groupindex>
					</link>
					<link>
						<linkclipref>MVI_3818 4</linkclipref>
						<mediatype>audio</mediatype>
						<trackindex>2</trackindex>
						<clipindex>9</clipindex>
						<groupindex>1</groupindex>
					</link>
					<itemhistory>
						<uuid>34DEB783-B154-4BB4-AD3E-169FD2F2175A</uuid>
					</itemhistory>
				</clipitem>
				<enabled>TRUE</enabled>
				<locked>FALSE</locked>
				<outputchannelindex>1</outputchannelindex>
			</track>
			<track>
				<clipitem id="MVI_3814 4">
					<name>MVI_3814</name>
					<duration>13333</duration>
					<rate>
						<ntsc>TRUE</ntsc>
						<timebase>24</timebase>
					</rate>
					<in>0</in>
					<out>13333</out>
					<start>0</start>
					<end>13333</end>
					<masterclipid>MVI_3814 1</masterclipid>
					<logginginfo>
						<scene/>
						<shottake/>
						<lognote/>
						<good>FALSE</good>
					</logginginfo>
					<labels>
						<label2/>
					</labels>
					<comments>
						<mastercomment1/>
						<mastercomment2/>
						<mastercomment3/>
						<mastercomment4/>
					</comments>
					<file id="MVI_3814 2"/>
					<marker>
						<name>actually interesting</name>
						<comment>data, data visualization,data,surprise,revelation,visualization</comment>
						<color>
							<alpha>0</alpha>
							<red>255</red>
							<green>0</green>
							<blue>0</blue>
						</color>
						<in>2269</in>
						<out>2746</out>
					</marker>
					<marker>
						<name>tool for others</name>
						<comment>participation,tools,social engagment,gift,people</comment>
						<color>
							<alpha>0</alpha>
							<red>255</red>
							<green>0</green>
							<blue>0</blue>
						</color>
						<in>3009</in>
						<out>3406</out>
					</marker>
					<marker>
						<name>trips</name>
						<comment>memory,data visualization,data ownership,souvenir, travel, personal, emotion, nostalgia</comment>
						<color>
							<alpha>0</alpha>
							<red>255</red>
							<green>0</green>
							<blue>0</blue>
						</color>
						<in>3443</in>
						<out>3989</out>
					</marker>
					<marker>
						<name>making things</name>
						<comment>physicality,3d printing,making things</comment>
						<color>
							<alpha>0</alpha>
							<red>255</red>
							<green>0</green>
							<blue>0</blue>
						</color>
						<in>4294</in>
						<out>5122</out>
					</marker>
					<marker>
						<name>frustrated about visualization</name>
						<comment>visualization,crisis,frustration,communication,complexity, career</comment>
						<color>
							<alpha>0</alpha>
							<red>255</red>
							<green>0</green>
							<blue>0</blue>
						</color>
						<in>6929</in>
						<out>7549</out>
					</marker>
					<marker>
						<name>digestibility</name>
						<comment>complexity,confusion,visualization,visual storytelling,communication,education,social engagment,society,public</comment>
						<color>
							<alpha>0</alpha>
							<red>255</red>
							<green>0</green>
							<blue>0</blue>
						</color>
						<in>9803</in>
						<out>10118</out>
					</marker>
					<marker>
						<name>tools for storytelling</name>
						<comment>people,storytelling,participation,social engagment,gift,tools</comment>
						<color>
							<alpha>0</alpha>
							<red>255</red>
							<green>0</green>
							<blue>0</blue>
						</color>
						<in>11403</in>
						<out>12363</out>
					</marker>
					<filter>
						<effect>
							<name>Audio Levels</name>
							<effectid>audiolevels</effectid>
							<effectcategory>audiolevels</effectcategory>
							<effecttype>audiolevels</effecttype>
							<mediatype>audio</mediatype>
							<parameter>
								<name>Level</name>
								<parameterid>level</parameterid>
								<valuemin>0</valuemin>
								<valuemax>3.98109</valuemax>
								<value>1</value>
							</parameter>
						</effect>
					</filter>
					<filter>
						<effect>
							<name>Audio Pan</name>
							<effectid>audiopan</effectid>
							<effectcategory>audiopan</effectcategory>
							<effecttype>audiopan</effecttype>
							<mediatype>audio</mediatype>
							<parameter>
								<name>Pan</name>
								<parameterid>pan</parameterid>
								<valuemin>-1</valuemin>
								<valuemax>1</valuemax>
								<value>1</value>
							</parameter>
						</effect>
					</filter>
					<sourcetrack>
						<mediatype>audio</mediatype>
						<trackindex>2</trackindex>
					</sourcetrack>
					<link>
						<linkclipref>MVI_3814 </linkclipref>
						<mediatype>video</mediatype>
						<trackindex>1</trackindex>
						<clipindex>1</clipindex>
					</link>
					<link>
						<linkclipref>MVI_3814 3</linkclipref>
						<mediatype>audio</mediatype>
						<trackindex>1</trackindex>
						<clipindex>1</clipindex>
						<groupindex>1</groupindex>
					</link>
					<link>
						<linkclipref>MVI_3814 4</linkclipref>
						<mediatype>audio</mediatype>
						<trackindex>2</trackindex>
						<clipindex>1</clipindex>
						<groupindex>1</groupindex>
					</link>
					<itemhistory>
						<uuid>6896CA57-B3FE-4A23-9046-BE15CA0A2D4A</uuid>
					</itemhistory>
				</clipitem>
				<clipitem id="MVI_3815 4">
					<name>MVI_3815</name>
					<duration>17472</duration>
					<rate>
						<ntsc>TRUE</ntsc>
						<timebase>24</timebase>
					</rate>
					<in>0</in>
					<out>4369</out>
					<start>13333</start>
					<end>17702</end>
					<masterclipid>MVI_3815 1</masterclipid>
					<logginginfo>
						<scene/>
						<shottake/>
						<lognote/>
						<good>FALSE</good>
					</logginginfo>
					<labels>
						<label2/>
					</labels>
					<comments>
						<mastercomment1/>
						<mastercomment2/>
						<mastercomment3/>
						<mastercomment4/>
					</comments>
					<file id="MVI_3815 2"/>
					<marker>
						<name>Mesh-U business</name>
						<comment>design,product,jewelry,cultural value,business</comment>
						<color>
							<alpha>0</alpha>
							<red>255</red>
							<green>0</green>
							<blue>0</blue>
						</color>
						<in>484</in>
						<out>1158</out>
					</marker>
					<marker>
						<name>Marker 2</name>
						<comment/>
						<color>
							<alpha>0</alpha>
							<red>255</red>
							<green>0</green>
							<blue>0</blue>
						</color>
						<in>1674</in>
						<out>-1</out>
					</marker>
					<marker>
						<name>Marker 3</name>
						<comment/>
						<color>
							<alpha>0</alpha>
							<red>255</red>
							<green>0</green>
							<blue>0</blue>
						</color>
						<in>2893</in>
						<out>-1</out>
					</marker>
					<marker>
						<name>maps</name>
						<comment>maps,gps,data visualization,data,trace of your life</comment>
						<color>
							<alpha>0</alpha>
							<red>255</red>
							<green>0</green>
							<blue>0</blue>
						</color>
						<in>3339</in>
						<out>4071</out>
					</marker>
					<marker>
						<name>meaningful shape1</name>
						<comment>maps,gps,data visualization,data,trace of your life</comment>
						<color>
							<alpha>0</alpha>
							<red>255</red>
							<green>0</green>
							<blue>0</blue>
						</color>
						<in>4370</in>
						<out>4593</out>
					</marker>
					<marker>
						<name>Marker 6</name>
						<comment/>
						<color>
							<alpha>0</alpha>
							<red>255</red>
							<green>0</green>
							<blue>0</blue>
						</color>
						<in>4817</in>
						<out>5059</out>
					</marker>
					<marker>
						<name>making a map</name>
						<comment>maps,gps,data visualization,data,trace of your life</comment>
						<color>
							<alpha>0</alpha>
							<red>255</red>
							<green>0</green>
							<blue>0</blue>
						</color>
						<in>6036</in>
						<out>6480</out>
					</marker>
					<marker>
						<name>face data</name>
						<comment>Clouds,future of cinema,face tracking</comment>
						<color>
							<alpha>0</alpha>
							<red>255</red>
							<green>0</green>
							<blue>0</blue>
						</color>
						<in>7661</in>
						<out>8518</out>
					</marker>
					<marker>
						<name>hackathon</name>
						<comment>collaboration,hackathon,thinking by doing,improvization,process,creativity,creative process</comment>
						<color>
							<alpha>0</alpha>
							<red>255</red>
							<green>0</green>
							<blue>0</blue>
						</color>
						<in>11306</in>
						<out>11656</out>
					</marker>
					<marker>
						<name>ar&amp;&amp;code</name>
						<comment>collaboration,hackathon,thinking by doing,improvization,process,creativity,creative process, sharing</comment>
						<color>
							<alpha>0</alpha>
							<red>255</red>
							<green>0</green>
							<blue>0</blue>
						</color>
						<in>12407</in>
						<out>13235</out>
					</marker>
					<marker>
						<name>women in tech</name>
						<comment>gender gap, women, </comment>
						<color>
							<alpha>0</alpha>
							<red>255</red>
							<green>0</green>
							<blue>0</blue>
						</color>
						<in>15422</in>
						<out>15979</out>
					</marker>
					<marker>
						<name>glass ceiling</name>
						<comment>women,gender gap</comment>
						<color>
							<alpha>0</alpha>
							<red>255</red>
							<green>0</green>
							<blue>0</blue>
						</color>
						<in>16248</in>
						<out>16774</out>
					</marker>
					<marker>
						<name>creative coding is more diverse</name>
						<comment>women,gender gap</comment>
						<color>
							<alpha>0</alpha>
							<red>255</red>
							<green>0</green>
							<blue>0</blue>
						</color>
						<in>17106</in>
						<out>17421</out>
					</marker>
					<filter>
						<effect>
							<name>Audio Levels</name>
							<effectid>audiolevels</effectid>
							<effectcategory>audiolevels</effectcategory>
							<effecttype>audiolevels</effecttype>
							<mediatype>audio</mediatype>
							<parameter>
								<name>Level</name>
								<parameterid>level</parameterid>
								<valuemin>0</valuemin>
								<valuemax>3.98109</valuemax>
								<value>1</value>
							</parameter>
						</effect>
					</filter>
					<filter>
						<effect>
							<name>Audio Pan</name>
							<effectid>audiopan</effectid>
							<effectcategory>audiopan</effectcategory>
							<effecttype>audiopan</effecttype>
							<mediatype>audio</mediatype>
							<parameter>
								<name>Pan</name>
								<parameterid>pan</parameterid>
								<valuemin>-1</valuemin>
								<valuemax>1</valuemax>
								<value>1</value>
							</parameter>
						</effect>
					</filter>
					<sourcetrack>
						<mediatype>audio</mediatype>
						<trackindex>2</trackindex>
					</sourcetrack>
					<link>
						<linkclipref>MVI_3815 </linkclipref>
						<mediatype>video</mediatype>
						<trackindex>1</trackindex>
						<clipindex>2</clipindex>
					</link>
					<link>
						<linkclipref>MVI_3815 3</linkclipref>
						<mediatype>audio</mediatype>
						<trackindex>1</trackindex>
						<clipindex>2</clipindex>
						<groupindex>1</groupindex>
					</link>
					<link>
						<linkclipref>MVI_3815 4</linkclipref>
						<mediatype>audio</mediatype>
						<trackindex>2</trackindex>
						<clipindex>2</clipindex>
						<groupindex>1</groupindex>
					</link>
					<itemhistory>
						<uuid>F73CEFF1-F088-4F80-94A2-C3D22C95191D</uuid>
						<uuid>6FBF75F7-DA22-45E2-8446-72B2022A3EF8</uuid>
					</itemhistory>
				</clipitem>
				<clipitem id="MVI_3815 7">
					<name>MVI_3815</name>
					<duration>17472</duration>
					<rate>
						<ntsc>TRUE</ntsc>
						<timebase>24</timebase>
					</rate>
					<in>4369</in>
					<out>4593</out>
					<start>17702</start>
					<end>17926</end>
					<masterclipid>MVI_3815 1</masterclipid>
					<logginginfo>
						<scene/>
						<shottake/>
						<lognote/>
						<good>FALSE</good>
					</logginginfo>
					<labels>
						<label2/>
					</labels>
					<comments>
						<mastercomment1/>
						<mastercomment2/>
						<mastercomment3/>
						<mastercomment4/>
					</comments>
					<file id="MVI_3815 2"/>
					<marker>
						<name>Mesh-U business</name>
						<comment>design,product,jewelry,cultural value,business</comment>
						<color>
							<alpha>0</alpha>
							<red>255</red>
							<green>0</green>
							<blue>0</blue>
						</color>
						<in>484</in>
						<out>1158</out>
					</marker>
					<marker>
						<name>Marker 2</name>
						<comment/>
						<color>
							<alpha>0</alpha>
							<red>255</red>
							<green>0</green>
							<blue>0</blue>
						</color>
						<in>1674</in>
						<out>-1</out>
					</marker>
					<marker>
						<name>Marker 3</name>
						<comment/>
						<color>
							<alpha>0</alpha>
							<red>255</red>
							<green>0</green>
							<blue>0</blue>
						</color>
						<in>2893</in>
						<out>-1</out>
					</marker>
					<marker>
						<name>maps</name>
						<comment>maps,gps,data visualization,data,trace of your life</comment>
						<color>
							<alpha>0</alpha>
							<red>255</red>
							<green>0</green>
							<blue>0</blue>
						</color>
						<in>3339</in>
						<out>4071</out>
					</marker>
					<marker>
						<name>meaningful shape1</name>
						<comment>maps,gps,data visualization,data,trace of your life</comment>
						<color>
							<alpha>0</alpha>
							<red>255</red>
							<green>0</green>
							<blue>0</blue>
						</color>
						<in>4370</in>
						<out>4593</out>
					</marker>
					<marker>
						<name>Marker 6</name>
						<comment/>
						<color>
							<alpha>0</alpha>
							<red>255</red>
							<green>0</green>
							<blue>0</blue>
						</color>
						<in>4817</in>
						<out>5059</out>
					</marker>
					<marker>
						<name>making a map</name>
						<comment>maps,gps,data visualization,data,trace of your life</comment>
						<color>
							<alpha>0</alpha>
							<red>255</red>
							<green>0</green>
							<blue>0</blue>
						</color>
						<in>6036</in>
						<out>6480</out>
					</marker>
					<marker>
						<name>face data</name>
						<comment>Clouds,future of cinema,face tracking</comment>
						<color>
							<alpha>0</alpha>
							<red>255</red>
							<green>0</green>
							<blue>0</blue>
						</color>
						<in>7661</in>
						<out>8518</out>
					</marker>
					<marker>
						<name>hackathon</name>
						<comment>collaboration,hackathon,thinking by doing,improvization,process,creativity,creative process</comment>
						<color>
							<alpha>0</alpha>
							<red>255</red>
							<green>0</green>
							<blue>0</blue>
						</color>
						<in>11306</in>
						<out>11656</out>
					</marker>
					<marker>
						<name>ar&amp;&amp;code</name>
						<comment>collaboration,hackathon,thinking by doing,improvization,process,creativity,creative process, sharing</comment>
						<color>
							<alpha>0</alpha>
							<red>255</red>
							<green>0</green>
							<blue>0</blue>
						</color>
						<in>12407</in>
						<out>13235</out>
					</marker>
					<marker>
						<name>women in tech</name>
						<comment>gender gap, women, </comment>
						<color>
							<alpha>0</alpha>
							<red>255</red>
							<green>0</green>
							<blue>0</blue>
						</color>
						<in>15422</in>
						<out>15979</out>
					</marker>
					<marker>
						<name>glass ceiling</name>
						<comment>women,gender gap</comment>
						<color>
							<alpha>0</alpha>
							<red>255</red>
							<green>0</green>
							<blue>0</blue>
						</color>
						<in>16248</in>
						<out>16774</out>
					</marker>
					<marker>
						<name>creative coding is more diverse</name>
						<comment>women,gender gap</comment>
						<color>
							<alpha>0</alpha>
							<red>255</red>
							<green>0</green>
							<blue>0</blue>
						</color>
						<in>17106</in>
						<out>17421</out>
					</marker>
					<filter>
						<effect>
							<name>Audio Levels</name>
							<effectid>audiolevels</effectid>
							<effectcategory>audiolevels</effectcategory>
							<effecttype>audiolevels</effecttype>
							<mediatype>audio</mediatype>
							<parameter>
								<name>Level</name>
								<parameterid>level</parameterid>
								<valuemin>0</valuemin>
								<valuemax>3.98109</valuemax>
								<value>1</value>
							</parameter>
						</effect>
					</filter>
					<filter>
						<effect>
							<name>Audio Pan</name>
							<effectid>audiopan</effectid>
							<effectcategory>audiopan</effectcategory>
							<effecttype>audiopan</effecttype>
							<mediatype>audio</mediatype>
							<parameter>
								<name>Pan</name>
								<parameterid>pan</parameterid>
								<valuemin>-1</valuemin>
								<valuemax>1</valuemax>
								<value>1</value>
							</parameter>
						</effect>
					</filter>
					<sourcetrack>
						<mediatype>audio</mediatype>
						<trackindex>2</trackindex>
					</sourcetrack>
					<link>
						<linkclipref>MVI_3815 5</linkclipref>
						<mediatype>video</mediatype>
						<trackindex>1</trackindex>
						<clipindex>3</clipindex>
					</link>
					<link>
						<linkclipref>MVI_3815 6</linkclipref>
						<mediatype>audio</mediatype>
						<trackindex>1</trackindex>
						<clipindex>3</clipindex>
						<groupindex>1</groupindex>
					</link>
					<link>
						<linkclipref>MVI_3815 7</linkclipref>
						<mediatype>audio</mediatype>
						<trackindex>2</trackindex>
						<clipindex>3</clipindex>
						<groupindex>1</groupindex>
					</link>
					<itemhistory>
						<uuid>2EBB38A0-5064-4057-AD3E-6555629A623E</uuid>
						<uuid>6FBF75F7-DA22-45E2-8446-72B2022A3EF8</uuid>
					</itemhistory>
				</clipitem>
				<clipitem id="MVI_3815 10">
					<name>MVI_3815</name>
					<duration>17472</duration>
					<rate>
						<ntsc>TRUE</ntsc>
						<timebase>24</timebase>
					</rate>
					<in>4593</in>
					<out>12344</out>
					<start>17926</start>
					<end>25677</end>
					<masterclipid>MVI_3815 1</masterclipid>
					<logginginfo>
						<scene/>
						<shottake/>
						<lognote/>
						<good>FALSE</good>
					</logginginfo>
					<labels>
						<label2/>
					</labels>
					<comments>
						<mastercomment1/>
						<mastercomment2/>
						<mastercomment3/>
						<mastercomment4/>
					</comments>
					<file id="MVI_3815 2"/>
					<marker>
						<name>Mesh-U business</name>
						<comment>design,product,jewelry,cultural value,business</comment>
						<color>
							<alpha>0</alpha>
							<red>255</red>
							<green>0</green>
							<blue>0</blue>
						</color>
						<in>484</in>
						<out>1158</out>
					</marker>
					<marker>
						<name>Marker 2</name>
						<comment/>
						<color>
							<alpha>0</alpha>
							<red>255</red>
							<green>0</green>
							<blue>0</blue>
						</color>
						<in>1674</in>
						<out>-1</out>
					</marker>
					<marker>
						<name>Marker 3</name>
						<comment/>
						<color>
							<alpha>0</alpha>
							<red>255</red>
							<green>0</green>
							<blue>0</blue>
						</color>
						<in>2893</in>
						<out>-1</out>
					</marker>
					<marker>
						<name>maps</name>
						<comment>maps,gps,data visualization,data,trace of your life</comment>
						<color>
							<alpha>0</alpha>
							<red>255</red>
							<green>0</green>
							<blue>0</blue>
						</color>
						<in>3339</in>
						<out>4071</out>
					</marker>
					<marker>
						<name>meaningful shape1</name>
						<comment>maps,gps,data visualization,data,trace of your life</comment>
						<color>
							<alpha>0</alpha>
							<red>255</red>
							<green>0</green>
							<blue>0</blue>
						</color>
						<in>4370</in>
						<out>4593</out>
					</marker>
					<marker>
						<name>Marker 6</name>
						<comment/>
						<color>
							<alpha>0</alpha>
							<red>255</red>
							<green>0</green>
							<blue>0</blue>
						</color>
						<in>4817</in>
						<out>5059</out>
					</marker>
					<marker>
						<name>making a map</name>
						<comment>maps,gps,data visualization,data,trace of your life</comment>
						<color>
							<alpha>0</alpha>
							<red>255</red>
							<green>0</green>
							<blue>0</blue>
						</color>
						<in>6036</in>
						<out>6480</out>
					</marker>
					<marker>
						<name>face data</name>
						<comment>Clouds,future of cinema,face tracking</comment>
						<color>
							<alpha>0</alpha>
							<red>255</red>
							<green>0</green>
							<blue>0</blue>
						</color>
						<in>7661</in>
						<out>8518</out>
					</marker>
					<marker>
						<name>hackathon</name>
						<comment>collaboration,hackathon,thinking by doing,improvization,process,creativity,creative process</comment>
						<color>
							<alpha>0</alpha>
							<red>255</red>
							<green>0</green>
							<blue>0</blue>
						</color>
						<in>11306</in>
						<out>11656</out>
					</marker>
					<marker>
						<name>ar&amp;&amp;code</name>
						<comment>collaboration,hackathon,thinking by doing,improvization,process,creativity,creative process, sharing</comment>
						<color>
							<alpha>0</alpha>
							<red>255</red>
							<green>0</green>
							<blue>0</blue>
						</color>
						<in>12407</in>
						<out>13235</out>
					</marker>
					<marker>
						<name>women in tech</name>
						<comment>gender gap, women, </comment>
						<color>
							<alpha>0</alpha>
							<red>255</red>
							<green>0</green>
							<blue>0</blue>
						</color>
						<in>15422</in>
						<out>15979</out>
					</marker>
					<marker>
						<name>glass ceiling</name>
						<comment>women,gender gap</comment>
						<color>
							<alpha>0</alpha>
							<red>255</red>
							<green>0</green>
							<blue>0</blue>
						</color>
						<in>16248</in>
						<out>16774</out>
					</marker>
					<marker>
						<name>creative coding is more diverse</name>
						<comment>women,gender gap</comment>
						<color>
							<alpha>0</alpha>
							<red>255</red>
							<green>0</green>
							<blue>0</blue>
						</color>
						<in>17106</in>
						<out>17421</out>
					</marker>
					<filter>
						<effect>
							<name>Audio Levels</name>
							<effectid>audiolevels</effectid>
							<effectcategory>audiolevels</effectcategory>
							<effecttype>audiolevels</effecttype>
							<mediatype>audio</mediatype>
							<parameter>
								<name>Level</name>
								<parameterid>level</parameterid>
								<valuemin>0</valuemin>
								<valuemax>3.98109</valuemax>
								<value>1</value>
							</parameter>
						</effect>
					</filter>
					<filter>
						<effect>
							<name>Audio Pan</name>
							<effectid>audiopan</effectid>
							<effectcategory>audiopan</effectcategory>
							<effecttype>audiopan</effecttype>
							<mediatype>audio</mediatype>
							<parameter>
								<name>Pan</name>
								<parameterid>pan</parameterid>
								<valuemin>-1</valuemin>
								<valuemax>1</valuemax>
								<value>1</value>
							</parameter>
						</effect>
					</filter>
					<sourcetrack>
						<mediatype>audio</mediatype>
						<trackindex>2</trackindex>
					</sourcetrack>
					<link>
						<linkclipref>MVI_3815 8</linkclipref>
						<mediatype>video</mediatype>
						<trackindex>1</trackindex>
						<clipindex>4</clipindex>
					</link>
					<link>
						<linkclipref>MVI_3815 9</linkclipref>
						<mediatype>audio</mediatype>
						<trackindex>1</trackindex>
						<clipindex>4</clipindex>
						<groupindex>1</groupindex>
					</link>
					<link>
						<linkclipref>MVI_3815 10</linkclipref>
						<mediatype>audio</mediatype>
						<trackindex>2</trackindex>
						<clipindex>4</clipindex>
						<groupindex>1</groupindex>
					</link>
					<itemhistory>
						<uuid>45064BAA-865B-44E6-8D7B-CEB6C5F256E1</uuid>
						<uuid>6FBF75F7-DA22-45E2-8446-72B2022A3EF8</uuid>
					</itemhistory>
				</clipitem>
				<clipitem id="MVI_3815 13">
					<name>MVI_3815</name>
					<duration>17472</duration>
					<rate>
						<ntsc>TRUE</ntsc>
						<timebase>24</timebase>
					</rate>
					<in>12344</in>
					<out>13222</out>
					<start>25677</start>
					<end>26555</end>
					<masterclipid>MVI_3815 1</masterclipid>
					<logginginfo>
						<scene/>
						<shottake/>
						<lognote/>
						<good>FALSE</good>
					</logginginfo>
					<labels>
						<label2/>
					</labels>
					<comments>
						<mastercomment1/>
						<mastercomment2/>
						<mastercomment3/>
						<mastercomment4/>
					</comments>
					<file id="MVI_3815 2"/>
					<marker>
						<name>Mesh-U business</name>
						<comment>design,product,jewelry,cultural value,business</comment>
						<color>
							<alpha>0</alpha>
							<red>255</red>
							<green>0</green>
							<blue>0</blue>
						</color>
						<in>484</in>
						<out>1158</out>
					</marker>
					<marker>
						<name>Marker 2</name>
						<comment/>
						<color>
							<alpha>0</alpha>
							<red>255</red>
							<green>0</green>
							<blue>0</blue>
						</color>
						<in>1674</in>
						<out>-1</out>
					</marker>
					<marker>
						<name>Marker 3</name>
						<comment/>
						<color>
							<alpha>0</alpha>
							<red>255</red>
							<green>0</green>
							<blue>0</blue>
						</color>
						<in>2893</in>
						<out>-1</out>
					</marker>
					<marker>
						<name>maps</name>
						<comment>maps,gps,data visualization,data,trace of your life</comment>
						<color>
							<alpha>0</alpha>
							<red>255</red>
							<green>0</green>
							<blue>0</blue>
						</color>
						<in>3339</in>
						<out>4071</out>
					</marker>
					<marker>
						<name>meaningful shape1</name>
						<comment>maps,gps,data visualization,data,trace of your life</comment>
						<color>
							<alpha>0</alpha>
							<red>255</red>
							<green>0</green>
							<blue>0</blue>
						</color>
						<in>4370</in>
						<out>4593</out>
					</marker>
					<marker>
						<name>Marker 6</name>
						<comment/>
						<color>
							<alpha>0</alpha>
							<red>255</red>
							<green>0</green>
							<blue>0</blue>
						</color>
						<in>4817</in>
						<out>5059</out>
					</marker>
					<marker>
						<name>making a map</name>
						<comment>maps,gps,data visualization,data,trace of your life</comment>
						<color>
							<alpha>0</alpha>
							<red>255</red>
							<green>0</green>
							<blue>0</blue>
						</color>
						<in>6036</in>
						<out>6480</out>
					</marker>
					<marker>
						<name>face data</name>
						<comment>Clouds,future of cinema,face tracking</comment>
						<color>
							<alpha>0</alpha>
							<red>255</red>
							<green>0</green>
							<blue>0</blue>
						</color>
						<in>7661</in>
						<out>8518</out>
					</marker>
					<marker>
						<name>hackathon</name>
						<comment>collaboration,hackathon,thinking by doing,improvization,process,creativity,creative process</comment>
						<color>
							<alpha>0</alpha>
							<red>255</red>
							<green>0</green>
							<blue>0</blue>
						</color>
						<in>11306</in>
						<out>11656</out>
					</marker>
					<marker>
						<name>ar&amp;&amp;code</name>
						<comment>collaboration,hackathon,thinking by doing,improvization,process,creativity,creative process, sharing</comment>
						<color>
							<alpha>0</alpha>
							<red>255</red>
							<green>0</green>
							<blue>0</blue>
						</color>
						<in>12407</in>
						<out>13235</out>
					</marker>
					<marker>
						<name>women in tech</name>
						<comment>gender gap, women, </comment>
						<color>
							<alpha>0</alpha>
							<red>255</red>
							<green>0</green>
							<blue>0</blue>
						</color>
						<in>15422</in>
						<out>15979</out>
					</marker>
					<marker>
						<name>glass ceiling</name>
						<comment>women,gender gap</comment>
						<color>
							<alpha>0</alpha>
							<red>255</red>
							<green>0</green>
							<blue>0</blue>
						</color>
						<in>16248</in>
						<out>16774</out>
					</marker>
					<marker>
						<name>creative coding is more diverse</name>
						<comment>women,gender gap</comment>
						<color>
							<alpha>0</alpha>
							<red>255</red>
							<green>0</green>
							<blue>0</blue>
						</color>
						<in>17106</in>
						<out>17421</out>
					</marker>
					<filter>
						<effect>
							<name>Audio Levels</name>
							<effectid>audiolevels</effectid>
							<effectcategory>audiolevels</effectcategory>
							<effecttype>audiolevels</effecttype>
							<mediatype>audio</mediatype>
							<parameter>
								<name>Level</name>
								<parameterid>level</parameterid>
								<valuemin>0</valuemin>
								<valuemax>3.98109</valuemax>
								<value>1</value>
							</parameter>
						</effect>
					</filter>
					<filter>
						<effect>
							<name>Audio Pan</name>
							<effectid>audiopan</effectid>
							<effectcategory>audiopan</effectcategory>
							<effecttype>audiopan</effecttype>
							<mediatype>audio</mediatype>
							<parameter>
								<name>Pan</name>
								<parameterid>pan</parameterid>
								<valuemin>-1</valuemin>
								<valuemax>1</valuemax>
								<value>1</value>
							</parameter>
						</effect>
					</filter>
					<sourcetrack>
						<mediatype>audio</mediatype>
						<trackindex>2</trackindex>
					</sourcetrack>
					<link>
						<linkclipref>MVI_3815 11</linkclipref>
						<mediatype>video</mediatype>
						<trackindex>1</trackindex>
						<clipindex>5</clipindex>
					</link>
					<link>
						<linkclipref>MVI_3815 12</linkclipref>
						<mediatype>audio</mediatype>
						<trackindex>1</trackindex>
						<clipindex>5</clipindex>
						<groupindex>1</groupindex>
					</link>
					<link>
						<linkclipref>MVI_3815 13</linkclipref>
						<mediatype>audio</mediatype>
						<trackindex>2</trackindex>
						<clipindex>5</clipindex>
						<groupindex>1</groupindex>
					</link>
					<itemhistory>
						<uuid>FA709F64-CE39-4129-A3D4-E77986AACBD5</uuid>
						<uuid>6FBF75F7-DA22-45E2-8446-72B2022A3EF8</uuid>
					</itemhistory>
				</clipitem>
				<clipitem id="MVI_3815 16">
					<name>MVI_3815</name>
					<duration>17472</duration>
					<rate>
						<ntsc>TRUE</ntsc>
						<timebase>24</timebase>
					</rate>
					<in>13222</in>
					<out>17472</out>
					<start>26555</start>
					<end>30805</end>
					<masterclipid>MVI_3815 1</masterclipid>
					<logginginfo>
						<scene/>
						<shottake/>
						<lognote/>
						<good>FALSE</good>
					</logginginfo>
					<labels>
						<label2/>
					</labels>
					<comments>
						<mastercomment1/>
						<mastercomment2/>
						<mastercomment3/>
						<mastercomment4/>
					</comments>
					<file id="MVI_3815 2"/>
					<marker>
						<name>Mesh-U business</name>
						<comment>design,product,jewelry,cultural value,business</comment>
						<color>
							<alpha>0</alpha>
							<red>255</red>
							<green>0</green>
							<blue>0</blue>
						</color>
						<in>484</in>
						<out>1158</out>
					</marker>
					<marker>
						<name>Marker 2</name>
						<comment/>
						<color>
							<alpha>0</alpha>
							<red>255</red>
							<green>0</green>
							<blue>0</blue>
						</color>
						<in>1674</in>
						<out>-1</out>
					</marker>
					<marker>
						<name>Marker 3</name>
						<comment/>
						<color>
							<alpha>0</alpha>
							<red>255</red>
							<green>0</green>
							<blue>0</blue>
						</color>
						<in>2893</in>
						<out>-1</out>
					</marker>
					<marker>
						<name>maps</name>
						<comment>maps,gps,data visualization,data,trace of your life</comment>
						<color>
							<alpha>0</alpha>
							<red>255</red>
							<green>0</green>
							<blue>0</blue>
						</color>
						<in>3339</in>
						<out>4071</out>
					</marker>
					<marker>
						<name>meaningful shape1</name>
						<comment>maps,gps,data visualization,data,trace of your life</comment>
						<color>
							<alpha>0</alpha>
							<red>255</red>
							<green>0</green>
							<blue>0</blue>
						</color>
						<in>4370</in>
						<out>4593</out>
					</marker>
					<marker>
						<name>Marker 6</name>
						<comment/>
						<color>
							<alpha>0</alpha>
							<red>255</red>
							<green>0</green>
							<blue>0</blue>
						</color>
						<in>4817</in>
						<out>5059</out>
					</marker>
					<marker>
						<name>making a map</name>
						<comment>maps,gps,data visualization,data,trace of your life</comment>
						<color>
							<alpha>0</alpha>
							<red>255</red>
							<green>0</green>
							<blue>0</blue>
						</color>
						<in>6036</in>
						<out>6480</out>
					</marker>
					<marker>
						<name>face data</name>
						<comment>Clouds,future of cinema,face tracking</comment>
						<color>
							<alpha>0</alpha>
							<red>255</red>
							<green>0</green>
							<blue>0</blue>
						</color>
						<in>7661</in>
						<out>8518</out>
					</marker>
					<marker>
						<name>hackathon</name>
						<comment>collaboration,hackathon,thinking by doing,improvization,process,creativity,creative process</comment>
						<color>
							<alpha>0</alpha>
							<red>255</red>
							<green>0</green>
							<blue>0</blue>
						</color>
						<in>11306</in>
						<out>11656</out>
					</marker>
					<marker>
						<name>ar&amp;&amp;code</name>
						<comment>collaboration,hackathon,thinking by doing,improvization,process,creativity,creative process, sharing</comment>
						<color>
							<alpha>0</alpha>
							<red>255</red>
							<green>0</green>
							<blue>0</blue>
						</color>
						<in>12407</in>
						<out>13235</out>
					</marker>
					<marker>
						<name>women in tech</name>
						<comment>gender gap, women, </comment>
						<color>
							<alpha>0</alpha>
							<red>255</red>
							<green>0</green>
							<blue>0</blue>
						</color>
						<in>15422</in>
						<out>15979</out>
					</marker>
					<marker>
						<name>glass ceiling</name>
						<comment>women,gender gap</comment>
						<color>
							<alpha>0</alpha>
							<red>255</red>
							<green>0</green>
							<blue>0</blue>
						</color>
						<in>16248</in>
						<out>16774</out>
					</marker>
					<marker>
						<name>creative coding is more diverse</name>
						<comment>women,gender gap</comment>
						<color>
							<alpha>0</alpha>
							<red>255</red>
							<green>0</green>
							<blue>0</blue>
						</color>
						<in>17106</in>
						<out>17421</out>
					</marker>
					<filter>
						<effect>
							<name>Audio Levels</name>
							<effectid>audiolevels</effectid>
							<effectcategory>audiolevels</effectcategory>
							<effecttype>audiolevels</effecttype>
							<mediatype>audio</mediatype>
							<parameter>
								<name>Level</name>
								<parameterid>level</parameterid>
								<valuemin>0</valuemin>
								<valuemax>3.98109</valuemax>
								<value>1</value>
							</parameter>
						</effect>
					</filter>
					<filter>
						<effect>
							<name>Audio Pan</name>
							<effectid>audiopan</effectid>
							<effectcategory>audiopan</effectcategory>
							<effecttype>audiopan</effecttype>
							<mediatype>audio</mediatype>
							<parameter>
								<name>Pan</name>
								<parameterid>pan</parameterid>
								<valuemin>-1</valuemin>
								<valuemax>1</valuemax>
								<value>1</value>
							</parameter>
						</effect>
					</filter>
					<sourcetrack>
						<mediatype>audio</mediatype>
						<trackindex>2</trackindex>
					</sourcetrack>
					<link>
						<linkclipref>MVI_3815 14</linkclipref>
						<mediatype>video</mediatype>
						<trackindex>1</trackindex>
						<clipindex>6</clipindex>
					</link>
					<link>
						<linkclipref>MVI_3815 15</linkclipref>
						<mediatype>audio</mediatype>
						<trackindex>1</trackindex>
						<clipindex>6</clipindex>
						<groupindex>1</groupindex>
					</link>
					<link>
						<linkclipref>MVI_3815 16</linkclipref>
						<mediatype>audio</mediatype>
						<trackindex>2</trackindex>
						<clipindex>6</clipindex>
						<groupindex>1</groupindex>
					</link>
					<itemhistory>
						<uuid>A030BC87-16C7-4BF4-9DA5-60841C18A03C</uuid>
						<uuid>6FBF75F7-DA22-45E2-8446-72B2022A3EF8</uuid>
					</itemhistory>
				</clipitem>
				<clipitem id="MVI_3816 4">
					<name>MVI_3816</name>
					<duration>8880</duration>
					<rate>
						<ntsc>TRUE</ntsc>
						<timebase>24</timebase>
					</rate>
					<in>0</in>
					<out>8880</out>
					<start>30805</start>
					<end>39685</end>
					<masterclipid>MVI_3816 1</masterclipid>
					<logginginfo>
						<scene/>
						<shottake/>
						<lognote/>
						<good>FALSE</good>
					</logginginfo>
					<labels>
						<label2/>
					</labels>
					<comments>
						<mastercomment1/>
						<mastercomment2/>
						<mastercomment3/>
						<mastercomment4/>
					</comments>
					<file id="MVI_3816 2"/>
					<marker>
						<name>Marker 1</name>
						<comment/>
						<color>
							<alpha>0</alpha>
							<red>255</red>
							<green>0</green>
							<blue>0</blue>
						</color>
						<in>1141</in>
						<out>1911</out>
					</marker>
					<marker>
						<name>Marker 2</name>
						<comment/>
						<color>
							<alpha>0</alpha>
							<red>255</red>
							<green>0</green>
							<blue>0</blue>
						</color>
						<in>3340</in>
						<out>4348</out>
					</marker>
					<marker>
						<name>programming is a superpower</name>
						<comment>programming, power, creativity, invention</comment>
						<color>
							<alpha>0</alpha>
							<red>255</red>
							<green>0</green>
							<blue>0</blue>
						</color>
						<in>7170</in>
						<out>7276</out>
					</marker>
					<filter>
						<effect>
							<name>Audio Levels</name>
							<effectid>audiolevels</effectid>
							<effectcategory>audiolevels</effectcategory>
							<effecttype>audiolevels</effecttype>
							<mediatype>audio</mediatype>
							<parameter>
								<name>Level</name>
								<parameterid>level</parameterid>
								<valuemin>0</valuemin>
								<valuemax>3.98109</valuemax>
								<value>1</value>
							</parameter>
						</effect>
					</filter>
					<filter>
						<effect>
							<name>Audio Pan</name>
							<effectid>audiopan</effectid>
							<effectcategory>audiopan</effectcategory>
							<effecttype>audiopan</effecttype>
							<mediatype>audio</mediatype>
							<parameter>
								<name>Pan</name>
								<parameterid>pan</parameterid>
								<valuemin>-1</valuemin>
								<valuemax>1</valuemax>
								<value>1</value>
							</parameter>
						</effect>
					</filter>
					<sourcetrack>
						<mediatype>audio</mediatype>
						<trackindex>2</trackindex>
					</sourcetrack>
					<link>
						<linkclipref>MVI_3816 </linkclipref>
						<mediatype>video</mediatype>
						<trackindex>1</trackindex>
						<clipindex>7</clipindex>
					</link>
					<link>
						<linkclipref>MVI_3816 3</linkclipref>
						<mediatype>audio</mediatype>
						<trackindex>1</trackindex>
						<clipindex>7</clipindex>
						<groupindex>1</groupindex>
					</link>
					<link>
						<linkclipref>MVI_3816 4</linkclipref>
						<mediatype>audio</mediatype>
						<trackindex>2</trackindex>
						<clipindex>7</clipindex>
						<groupindex>1</groupindex>
					</link>
					<itemhistory>
						<uuid>397939AF-8E51-4E89-AEAC-08B15ED96F1A</uuid>
					</itemhistory>
				</clipitem>
				<clipitem id="MVI_3817 4">
					<name>MVI_3817</name>
					<duration>15636</duration>
					<rate>
						<ntsc>TRUE</ntsc>
						<timebase>24</timebase>
					</rate>
					<in>0</in>
					<out>15636</out>
					<start>39685</start>
					<end>55321</end>
					<masterclipid>MVI_3817 1</masterclipid>
					<logginginfo>
						<scene/>
						<shottake/>
						<lognote/>
						<good>FALSE</good>
					</logginginfo>
					<labels>
						<label2/>
					</labels>
					<comments>
						<mastercomment1/>
						<mastercomment2/>
						<mastercomment3/>
						<mastercomment4/>
					</comments>
					<file id="MVI_3817 2"/>
					<marker>
						<name>tech fracturing</name>
						<comment>specialization, programming, learning, technological progress</comment>
						<color>
							<alpha>0</alpha>
							<red>255</red>
							<green>0</green>
							<blue>0</blue>
						</color>
						<in>277</in>
						<out>628</out>
					</marker>
					<marker>
						<name>skillshare</name>
						<comment>learning, community, sharing, </comment>
						<color>
							<alpha>0</alpha>
							<red>255</red>
							<green>0</green>
							<blue>0</blue>
						</color>
						<in>2088</in>
						<out>2469</out>
					</marker>
					<marker>
						<name>learning</name>
						<comment>learning, community, sharing, </comment>
						<color>
							<alpha>0</alpha>
							<red>255</red>
							<green>0</green>
							<blue>0</blue>
						</color>
						<in>2748</in>
						<out>3830</out>
					</marker>
					<marker>
						<name>learning with others</name>
						<comment>learning, community, sharing,</comment>
						<color>
							<alpha>0</alpha>
							<red>255</red>
							<green>0</green>
							<blue>0</blue>
						</color>
						<in>4261</in>
						<out>4364</out>
					</marker>
					<marker>
						<name>big data</name>
						<comment>data visualization,data ownership,big data</comment>
						<color>
							<alpha>0</alpha>
							<red>255</red>
							<green>0</green>
							<blue>0</blue>
						</color>
						<in>5147</in>
						<out>5764</out>
					</marker>
					<marker>
						<name>field of data vis</name>
						<comment>data visualization, data art, communication, visualization, </comment>
						<color>
							<alpha>0</alpha>
							<red>255</red>
							<green>0</green>
							<blue>0</blue>
						</color>
						<in>6587</in>
						<out>7258</out>
					</marker>
					<marker>
						<name>technoutopian</name>
						<comment>technological progress,technoptimism,utopia</comment>
						<color>
							<alpha>0</alpha>
							<red>255</red>
							<green>0</green>
							<blue>0</blue>
						</color>
						<in>9307</in>
						<out>9613</out>
					</marker>
					<marker>
						<name>changing the world</name>
						<comment>technological progress,technoptimism,utopia, progress,&#13;society, problem-solving, change, hope</comment>
						<color>
							<alpha>0</alpha>
							<red>255</red>
							<green>0</green>
							<blue>0</blue>
						</color>
						<in>10438</in>
						<out>10843</out>
					</marker>
					<marker>
						<name>art and culture </name>
						<comment>society, culture, art, progress, </comment>
						<color>
							<alpha>0</alpha>
							<red>255</red>
							<green>0</green>
							<blue>0</blue>
						</color>
						<in>12386</in>
						<out>13224</out>
					</marker>
					<marker>
						<name>art for money</name>
						<comment>commercialism,&#13;art,life and work,art versus engineering, business, passion&#13;</comment>
						<color>
							<alpha>0</alpha>
							<red>255</red>
							<green>0</green>
							<blue>0</blue>
						</color>
						<in>13239</in>
						<out>14194</out>
					</marker>
					<filter>
						<effect>
							<name>Audio Levels</name>
							<effectid>audiolevels</effectid>
							<effectcategory>audiolevels</effectcategory>
							<effecttype>audiolevels</effecttype>
							<mediatype>audio</mediatype>
							<parameter>
								<name>Level</name>
								<parameterid>level</parameterid>
								<valuemin>0</valuemin>
								<valuemax>3.98109</valuemax>
								<value>1</value>
							</parameter>
						</effect>
					</filter>
					<filter>
						<effect>
							<name>Audio Pan</name>
							<effectid>audiopan</effectid>
							<effectcategory>audiopan</effectcategory>
							<effecttype>audiopan</effecttype>
							<mediatype>audio</mediatype>
							<parameter>
								<name>Pan</name>
								<parameterid>pan</parameterid>
								<valuemin>-1</valuemin>
								<valuemax>1</valuemax>
								<value>1</value>
							</parameter>
						</effect>
					</filter>
					<sourcetrack>
						<mediatype>audio</mediatype>
						<trackindex>2</trackindex>
					</sourcetrack>
					<link>
						<linkclipref>MVI_3817 </linkclipref>
						<mediatype>video</mediatype>
						<trackindex>1</trackindex>
						<clipindex>8</clipindex>
					</link>
					<link>
						<linkclipref>MVI_3817 3</linkclipref>
						<mediatype>audio</mediatype>
						<trackindex>1</trackindex>
						<clipindex>8</clipindex>
						<groupindex>1</groupindex>
					</link>
					<link>
						<linkclipref>MVI_3817 4</linkclipref>
						<mediatype>audio</mediatype>
						<trackindex>2</trackindex>
						<clipindex>8</clipindex>
						<groupindex>1</groupindex>
					</link>
					<itemhistory>
						<uuid>94FB785F-41FB-46A5-BBA8-984510C0661F</uuid>
					</itemhistory>
				</clipitem>
				<clipitem id="MVI_3818 4">
					<name>MVI_3818</name>
					<duration>5760</duration>
					<rate>
						<ntsc>TRUE</ntsc>
						<timebase>24</timebase>
					</rate>
					<in>0</in>
					<out>5760</out>
					<start>55321</start>
					<end>61081</end>
					<masterclipid>MVI_3818 1</masterclipid>
					<logginginfo>
						<scene/>
						<shottake/>
						<lognote/>
						<good>FALSE</good>
					</logginginfo>
					<labels>
						<label2/>
					</labels>
					<comments>
						<mastercomment1/>
						<mastercomment2/>
						<mastercomment3/>
						<mastercomment4/>
					</comments>
					<file id="MVI_3818 2"/>
					<marker>
						<name>hybridity</name>
						<comment>hybridity,interdisciplinary,knowledge,learning</comment>
						<color>
							<alpha>0</alpha>
							<red>255</red>
							<green>0</green>
							<blue>0</blue>
						</color>
						<in>236</in>
						<out>733</out>
					</marker>
					<marker>
						<name>Background</name>
						<comment>hybridity,interdisciplinary,knowledge,learning, beginnings, tribe, creative coders&#13;</comment>
						<color>
							<alpha>0</alpha>
							<red>255</red>
							<green>0</green>
							<blue>0</blue>
						</color>
						<in>773</in>
						<out>1134</out>
					</marker>
					<marker>
						<name>there was no degree</name>
						<comment>hybridity,interdisciplinary,knowledge,learning, education, architecture, creative coding, creative coders&#13;</comment>
						<color>
							<alpha>0</alpha>
							<red>255</red>
							<green>0</green>
							<blue>0</blue>
						</color>
						<in>1924</in>
						<out>2309</out>
					</marker>
					<marker>
						<name>geodata</name>
						<comment>maps, GPS, big data</comment>
						<color>
							<alpha>0</alpha>
							<red>255</red>
							<green>0</green>
							<blue>0</blue>
						</color>
						<in>3882</in>
						<out>4455</out>
					</marker>
					<filter>
						<effect>
							<name>Audio Levels</name>
							<effectid>audiolevels</effectid>
							<effectcategory>audiolevels</effectcategory>
							<effecttype>audiolevels</effecttype>
							<mediatype>audio</mediatype>
							<parameter>
								<name>Level</name>
								<parameterid>level</parameterid>
								<valuemin>0</valuemin>
								<valuemax>3.98109</valuemax>
								<value>1</value>
							</parameter>
						</effect>
					</filter>
					<filter>
						<effect>
							<name>Audio Pan</name>
							<effectid>audiopan</effectid>
							<effectcategory>audiopan</effectcategory>
							<effecttype>audiopan</effecttype>
							<mediatype>audio</mediatype>
							<parameter>
								<name>Pan</name>
								<parameterid>pan</parameterid>
								<valuemin>-1</valuemin>
								<valuemax>1</valuemax>
								<value>1</value>
							</parameter>
						</effect>
					</filter>
					<sourcetrack>
						<mediatype>audio</mediatype>
						<trackindex>2</trackindex>
					</sourcetrack>
					<link>
						<linkclipref>MVI_3818 </linkclipref>
						<mediatype>video</mediatype>
						<trackindex>1</trackindex>
						<clipindex>9</clipindex>
					</link>
					<link>
						<linkclipref>MVI_3818 3</linkclipref>
						<mediatype>audio</mediatype>
						<trackindex>1</trackindex>
						<clipindex>9</clipindex>
						<groupindex>1</groupindex>
					</link>
					<link>
						<linkclipref>MVI_3818 4</linkclipref>
						<mediatype>audio</mediatype>
						<trackindex>2</trackindex>
						<clipindex>9</clipindex>
						<groupindex>1</groupindex>
					</link>
					<itemhistory>
						<uuid>737264E8-184C-4CD2-9EB8-FCE6DA347A46</uuid>
					</itemhistory>
				</clipitem>
				<enabled>TRUE</enabled>
				<locked>FALSE</locked>
				<outputchannelindex>2</outputchannelindex>
			</track>
			<track>
				<enabled>TRUE</enabled>
				<locked>FALSE</locked>
				<outputchannelindex>1</outputchannelindex>
			</track>
			<track>
				<enabled>TRUE</enabled>
				<locked>FALSE</locked>
				<outputchannelindex>2</outputchannelindex>
			</track>
			<filter>
				<effect>
					<name>Audio Levels</name>
					<effectid>audiolevels</effectid>
					<effectcategory>audiolevels</effectcategory>
					<effecttype>audiolevels</effecttype>
					<mediatype>audio</mediatype>
					<parameter>
						<name>Level</name>
						<parameterid>level</parameterid>
						<valuemin>0</valuemin>
						<valuemax>3.98109</valuemax>
						<value>1</value>
					</parameter>
				</effect>
			</filter>
		</audio>
	</media>
	<ismasterclip>FALSE</ismasterclip>
</sequence>
<sequence id="Casey">
	<uuid>2649343D-1104-48FE-9DE9-44AC2B5D98F1</uuid>
	<updatebehavior>add</updatebehavior>
	<name>Casey</name>
	<duration>49534</duration>
	<rate>
		<ntsc>TRUE</ntsc>
		<timebase>24</timebase>
	</rate>
	<timecode>
		<rate>
			<ntsc>TRUE</ntsc>
			<timebase>24</timebase>
		</rate>
		<string>01:00:00:00</string>
		<frame>86400</frame>
		<source>source</source>
		<displayformat>NDF</displayformat>
	</timecode>
	<in>-1</in>
	<out>49270</out>
	<media>
		<video>
			<format>
				<samplecharacteristics>
					<width>1920</width>
					<height>1080</height>
					<anamorphic>FALSE</anamorphic>
					<pixelaspectratio>Square</pixelaspectratio>
					<fielddominance>none</fielddominance>
					<rate>
						<ntsc>TRUE</ntsc>
						<timebase>24</timebase>
					</rate>
					<colordepth>24</colordepth>
					<codec>
						<name>Apple ProRes 422</name>
						<appspecificdata>
							<appname>Final Cut Pro</appname>
							<appmanufacturer>Apple Inc.</appmanufacturer>
							<appversion>7.0</appversion>
							<data>
								<qtcodec>
									<codecname>Apple ProRes 422</codecname>
									<codectypename>Apple ProRes 422 (HQ)</codectypename>
									<codectypecode>apch</codectypecode>
									<codecvendorcode>appl</codecvendorcode>
									<spatialquality>1024</spatialquality>
									<temporalquality>0</temporalquality>
									<keyframerate>0</keyframerate>
									<datarate>0</datarate>
								</qtcodec>
							</data>
						</appspecificdata>
					</codec>
				</samplecharacteristics>
				<appspecificdata>
					<appname>Final Cut Pro</appname>
					<appmanufacturer>Apple Inc.</appmanufacturer>
					<appversion>7.0</appversion>
					<data>
						<fcpimageprocessing>
							<useyuv>TRUE</useyuv>
							<usesuperwhite>FALSE</usesuperwhite>
							<rendermode>Float10BPP</rendermode>
						</fcpimageprocessing>
					</data>
				</appspecificdata>
			</format>
			<track>
				<clipitem id="MVI_0968 ">
					<name>MVI_0968</name>
					<duration>15802</duration>
					<rate>
						<ntsc>TRUE</ntsc>
						<timebase>24</timebase>
					</rate>
					<in>0</in>
					<out>15802</out>
					<start>0</start>
					<end>15802</end>
					<pixelaspectratio>Square</pixelaspectratio>
					<enabled>TRUE</enabled>
					<anamorphic>FALSE</anamorphic>
					<alphatype>none</alphatype>
					<masterclipid>MVI_0968 1</masterclipid>
					<logginginfo>
						<scene/>
						<shottake/>
						<lognote/>
						<good>FALSE</good>
					</logginginfo>
					<labels>
						<label2/>
					</labels>
					<comments>
						<mastercomment1/>
						<mastercomment2/>
						<mastercomment3/>
						<mastercomment4/>
					</comments>
					<file id="MVI_0968 2">
						<name>MVI_0968.mov</name>
						<pathurl>file://localhost/Volumes/Nebula/MediaPackages/EyeoMediaBin/Casey01/color/MVI_0968.mov</pathurl>
						<rate>
							<timebase>24</timebase>
							<ntsc>TRUE</ntsc>
						</rate>
						<duration>15802</duration>
						<media>
							<video>
								<duration>15802</duration>
								<samplecharacteristics>
									<width>1920</width>
									<height>1080</height>
								</samplecharacteristics>
							</video>
							<audio>
								<samplecharacteristics>
									<samplerate>48000</samplerate>
									<depth>16</depth>
								</samplecharacteristics>
								<channelcount>2</channelcount>
							</audio>
						</media>
					</file>
					<marker>
						<name>beginnings</name>
						<comment>beginnings,&#13;design,&#13;john maeda,&#13;media lab,&#13;web,&#13;print,&#13;career,&#13;</comment>
						<color>
							<alpha>0</alpha>
							<red>255</red>
							<green>127</green>
							<blue>0</blue>
						</color>
						<in>2672</in>
						<out>3456</out>
					</marker>
					<marker>
						<name>Processing, what is it?</name>
						<comment>Processing,&#13;toolkit,&#13;process,&#13;</comment>
						<color>
							<alpha>0</alpha>
							<red>255</red>
							<green>0</green>
							<blue>0</blue>
						</color>
						<in>4177</in>
						<out>4583</out>
					</marker>
					<marker>
						<name>Sketching with code</name>
						<comment>art versus engineering,&#13;methodology,&#13;process, &#13;thinking by doing,&#13;design,&#13;thinking and making,</comment>
						<color>
							<alpha>0</alpha>
							<red>255</red>
							<green>0</green>
							<blue>0</blue>
						</color>
						<in>4716</in>
						<out>5160</out>
					</marker>
					<marker>
						<name>tangle</name>
						<comment>code is messy,thinking by doing,thinking with code,exploration,uncertainty</comment>
						<color>
							<alpha>0</alpha>
							<red>255</red>
							<green>0</green>
							<blue>0</blue>
						</color>
						<in>5576</in>
						<out>6379</out>
					</marker>
					<marker>
						<name>Borrowing from culture</name>
						<comment>Where does the creative process begin?&#13;influences,&#13;interdisciplinary,&#13;culture,&#13;</comment>
						<color>
							<alpha>0</alpha>
							<red>255</red>
							<green>0</green>
							<blue>0</blue>
						</color>
						<in>6423</in>
						<out>6859</out>
					</marker>
					<marker>
						<name>Systems theory</name>
						<comment>How do you build serendipity into your systems?&#13;emergence,&#13;artificial life,&#13;complexity,&#13;systems,&#13;</comment>
						<color>
							<alpha>0</alpha>
							<red>255</red>
							<green>0</green>
							<blue>0</blue>
						</color>
						<in>7031</in>
						<out>8092</out>
					</marker>
					<marker>
						<name>emergence</name>
						<comment>What is emergence?,&#13;emergence,&#13;process,&#13;nature,</comment>
						<color>
							<alpha>0</alpha>
							<red>255</red>
							<green>0</green>
							<blue>0</blue>
						</color>
						<in>9430</in>
						<out>10760</out>
					</marker>
					<marker>
						<name>thinking about science</name>
						<comment>How do you think about these systems?,&#13;science,&#13;</comment>
						<color>
							<alpha>0</alpha>
							<red>255</red>
							<green>0</green>
							<blue>0</blue>
						</color>
						<in>11904</in>
						<out>12342</out>
					</marker>
					<marker>
						<name>I try not to be a futurist</name>
						<comment>How does computer code translate to the code of life and synthetic biology? &#13;&#13;Science Fiction,&#13;Futurism,&#13;synthetic biology,&#13;Life,&#13;</comment>
						<color>
							<alpha>0</alpha>
							<red>255</red>
							<green>0</green>
							<blue>0</blue>
						</color>
						<in>13444</in>
						<out>13743</out>
					</marker>
					<marker>
						<name>Understanding the past/insight into the future</name>
						<comment>How does computer code translate to the code of life and synthetic biology? &#13;technological progress,&#13;Futurism</comment>
						<color>
							<alpha>0</alpha>
							<red>255</red>
							<green>0</green>
							<blue>0</blue>
						</color>
						<in>14139</in>
						<out>14668</out>
					</marker>
					<marker>
						<name>synthetic biology</name>
						<comment>How does computer code translate to the code of life and synthetic biology? &#13;&#13;Science Fiction,&#13;Futurism,&#13;synthetic biology,&#13;Life,&#13;</comment>
						<color>
							<alpha>0</alpha>
							<red>255</red>
							<green>0</green>
							<blue>0</blue>
						</color>
						<in>15056</in>
						<out>15624</out>
					</marker>
					<filter>
						<effect>
							<name>Basic Motion</name>
							<effectid>basic</effectid>
							<effectcategory>motion</effectcategory>
							<effecttype>motion</effecttype>
							<mediatype>video</mediatype>
							<parameter>
								<parameterid>center</parameterid>
								<name>Center</name>
								<value>
									<horiz>0</horiz>
									<vert>-0.00185185</vert>
								</value>
							</parameter>
						</effect>
					</filter>
					<sourcetrack>
						<mediatype>video</mediatype>
					</sourcetrack>
					<link>
						<linkclipref>MVI_0968 </linkclipref>
						<mediatype>video</mediatype>
						<trackindex>1</trackindex>
						<clipindex>1</clipindex>
					</link>
					<link>
						<linkclipref>MVI_0968 3</linkclipref>
						<mediatype>audio</mediatype>
						<trackindex>1</trackindex>
						<clipindex>1</clipindex>
						<groupindex>1</groupindex>
					</link>
					<link>
						<linkclipref>MVI_0968 4</linkclipref>
						<mediatype>audio</mediatype>
						<trackindex>2</trackindex>
						<clipindex>1</clipindex>
						<groupindex>1</groupindex>
					</link>
					<fielddominance>none</fielddominance>
					<itemhistory>
						<uuid>55561696-C86F-4135-911B-2C3700458B6B</uuid>
					</itemhistory>
				</clipitem>
				<clipitem id="MVI_0969 ">
					<name>MVI_0969</name>
					<duration>14777</duration>
					<rate>
						<ntsc>TRUE</ntsc>
						<timebase>24</timebase>
					</rate>
					<in>0</in>
					<out>14777</out>
					<start>15802</start>
					<end>30579</end>
					<pixelaspectratio>Square</pixelaspectratio>
					<enabled>TRUE</enabled>
					<anamorphic>FALSE</anamorphic>
					<alphatype>none</alphatype>
					<masterclipid>MVI_0969 1</masterclipid>
					<logginginfo>
						<scene/>
						<shottake/>
						<lognote/>
						<good>FALSE</good>
					</logginginfo>
					<labels>
						<label2/>
					</labels>
					<comments>
						<mastercomment1/>
						<mastercomment2/>
						<mastercomment3/>
						<mastercomment4/>
					</comments>
					<file id="MVI_0969 2">
						<name>MVI_0969.mov</name>
						<pathurl>file://localhost/Volumes/Nebula/MediaPackages/EyeoMediaBin/Casey02/color/MVI_0969.mov</pathurl>
						<rate>
							<timebase>24</timebase>
							<ntsc>TRUE</ntsc>
						</rate>
						<duration>14777</duration>
						<media>
							<video>
								<duration>14777</duration>
								<samplecharacteristics>
									<width>1920</width>
									<height>1080</height>
								</samplecharacteristics>
							</video>
							<audio>
								<samplecharacteristics>
									<samplerate>48000</samplerate>
									<depth>16</depth>
								</samplecharacteristics>
								<channelcount>2</channelcount>
							</audio>
						</media>
					</file>
					<marker>
						<name>Craig Venter</name>
						<comment>How does computer code translate to the code of life and synthetic biology? &#13;synthetic biology,&#13;Life,&#13;metaphors,&#13;life and code,&#13;</comment>
						<color>
							<alpha>0</alpha>
							<red>255</red>
							<green>0</green>
							<blue>0</blue>
						</color>
						<in>939</in>
						<out>1508</out>
					</marker>
					<marker>
						<name>Birth of processing</name>
						<comment>What was the impetus behind Processing?&#13;&#13;processing,&#13;tools,&#13;education,&#13;teaching,&#13;IDE,&#13;accessibility,&#13;learning,&#13;software&#13;</comment>
						<color>
							<alpha>0</alpha>
							<red>255</red>
							<green>0</green>
							<blue>0</blue>
						</color>
						<in>1948</in>
						<out>3520</out>
					</marker>
					<marker>
						<name>Design by numbers to processing</name>
						<comment>What was the impetus behind Processing?&#13;processing,&#13;tools,&#13;education,&#13;visual language,&#13;visual thinking,&#13;</comment>
						<color>
							<alpha>0</alpha>
							<red>255</red>
							<green>0</green>
							<blue>0</blue>
						</color>
						<in>3528</in>
						<out>4265</out>
					</marker>
					<marker>
						<name>Infrastructures should be open</name>
						<comment>Why make software open source?&#13;&#13;processing,&#13;tools,&#13;education,&#13;open source,&#13;sharing,&#13;extensibility,&#13;community</comment>
						<color>
							<alpha>0</alpha>
							<red>255</red>
							<green>0</green>
							<blue>0</blue>
						</color>
						<in>4398</in>
						<out>5820</out>
					</marker>
					<marker>
						<name>pushing software beyond</name>
						<comment>What surprised you most, that people contributed?&#13;processing,&#13;community,&#13;</comment>
						<color>
							<alpha>0</alpha>
							<red>255</red>
							<green>0</green>
							<blue>0</blue>
						</color>
						<in>5952</in>
						<out>6224</out>
					</marker>
					<marker>
						<name>group teaching</name>
						<comment>What surprised you most, that people contributed?&#13;processing,&#13;community,&#13;teaching,&#13;forums,&#13;sharing,&#13;&#13;</comment>
						<color>
							<alpha>0</alpha>
							<red>255</red>
							<green>0</green>
							<blue>0</blue>
						</color>
						<in>6224</in>
						<out>6610</out>
					</marker>
					<marker>
						<name>People would pop up</name>
						<comment>What surprised you the most that people contributed?,&#13;processing,&#13;community,&#13;Robert Hodgin,</comment>
						<color>
							<alpha>0</alpha>
							<red>255</red>
							<green>0</green>
							<blue>0</blue>
						</color>
						<in>6610</in>
						<out>6897</out>
					</marker>
					<marker>
						<name>Style diffuses </name>
						<comment>How do you feel about seeing your style and code influence other artists who borrow heavily?&#13;&#13;processing,&#13;style, &#13;influence, &#13;homogeneity,&#13;visual culture</comment>
						<color>
							<alpha>0</alpha>
							<red>255</red>
							<green>0</green>
							<blue>0</blue>
						</color>
						<in>7696</in>
						<out>8247</out>
					</marker>
					<marker>
						<name>Casey</name>
						<comment>chance,&#13;randomness,&#13;algorithm</comment>
						<color>
							<alpha>0</alpha>
							<red>255</red>
							<green>0</green>
							<blue>0</blue>
						</color>
						<in>9468</in>
						<out>11148</out>
					</marker>
					<marker>
						<name>randomness</name>
						<comment>What are the different kinds of randomness?,&#13;&#13;chance&#13;randomness&#13;random&#13;algorithm&#13;numerology&#13;number&#13;math&#13;probability</comment>
						<color>
							<alpha>0</alpha>
							<red>255</red>
							<green>0</green>
							<blue>0</blue>
						</color>
						<in>12088</in>
						<out>13803</out>
					</marker>
					<sourcetrack>
						<mediatype>video</mediatype>
					</sourcetrack>
					<link>
						<linkclipref>MVI_0969 </linkclipref>
						<mediatype>video</mediatype>
						<trackindex>1</trackindex>
						<clipindex>2</clipindex>
					</link>
					<link>
						<linkclipref>MVI_0969 3</linkclipref>
						<mediatype>audio</mediatype>
						<trackindex>1</trackindex>
						<clipindex>2</clipindex>
						<groupindex>1</groupindex>
					</link>
					<link>
						<linkclipref>MVI_0969 4</linkclipref>
						<mediatype>audio</mediatype>
						<trackindex>2</trackindex>
						<clipindex>2</clipindex>
						<groupindex>1</groupindex>
					</link>
					<fielddominance>none</fielddominance>
					<itemhistory>
						<uuid>7E7E899B-ADBE-4213-8349-0C28A3FA8753</uuid>
					</itemhistory>
				</clipitem>
				<clipitem id="MVI_0970 ">
					<name>MVI_0970</name>
					<duration>13869</duration>
					<rate>
						<ntsc>TRUE</ntsc>
						<timebase>24</timebase>
					</rate>
					<in>0</in>
					<out>3728</out>
					<start>30579</start>
					<end>34307</end>
					<pixelaspectratio>Square</pixelaspectratio>
					<enabled>TRUE</enabled>
					<anamorphic>FALSE</anamorphic>
					<alphatype>none</alphatype>
					<masterclipid>MVI_0970 1</masterclipid>
					<logginginfo>
						<scene/>
						<shottake/>
						<lognote/>
						<good>FALSE</good>
					</logginginfo>
					<labels>
						<label2/>
					</labels>
					<comments>
						<mastercomment1/>
						<mastercomment2/>
						<mastercomment3/>
						<mastercomment4/>
					</comments>
					<file id="MVI_0970 2">
						<name>MVI_0970.mov</name>
						<pathurl>file://localhost/Volumes/Nebula/MediaPackages/EyeoMediaBin/Casey03/color/MVI_0970.mov</pathurl>
						<rate>
							<timebase>24</timebase>
							<ntsc>TRUE</ntsc>
						</rate>
						<duration>13869</duration>
						<media>
							<video>
								<duration>13869</duration>
								<samplecharacteristics>
									<width>1920</width>
									<height>1080</height>
								</samplecharacteristics>
							</video>
							<audio>
								<samplecharacteristics>
									<samplerate>48000</samplerate>
									<depth>16</depth>
								</samplecharacteristics>
								<channelcount>2</channelcount>
							</audio>
						</media>
					</file>
					<marker>
						<name>Software is what i love the most</name>
						<comment>Code and the real world were once separate. The membrane between physical and digital has opened up. How has that changed your work?&#13;software as a medium,&#13;self-knowledge,&#13;choosing</comment>
						<color>
							<alpha>0</alpha>
							<red>255</red>
							<green>0</green>
							<blue>0</blue>
						</color>
						<in>853</in>
						<out>1359</out>
					</marker>
					<marker>
						<name>teaching at UCLA</name>
						<comment>Code and the real world were once separate. The membrane between physical and digital has opened up. How has that changed your work?&#13;digital-physical,&#13;being digital,&#13;digital natives,&#13;craft,&#13;making things,&#13;objects,&#13;</comment>
						<color>
							<alpha>0</alpha>
							<red>255</red>
							<green>0</green>
							<blue>0</blue>
						</color>
						<in>1500</in>
						<out>2025</out>
					</marker>
					<marker>
						<name>Clumsy</name>
						<comment>Code and the real world were once separate. The membrane between physical and digital has opened up. How has that changed your work?&#13;digital-physical,&#13;being digital,&#13;digital natives,&#13;craft,&#13;making things,&#13;objects,&#13;link: Nervous Jessica "can't draw"&#13;</comment>
						<color>
							<alpha>0</alpha>
							<red>255</red>
							<green>0</green>
							<blue>0</blue>
						</color>
						<in>1699</in>
						<out>-1</out>
					</marker>
					<marker>
						<name>branching off branching</name>
						<comment>How would you visualize your own data?&#13;&#13;experimentation,&#13;mind and hand,&#13;intuition,&#13;heuristics,&#13;branching,&#13;trees,&#13;experiential,&#13;art and experience,</comment>
						<color>
							<alpha>0</alpha>
							<red>255</red>
							<green>0</green>
							<blue>0</blue>
						</color>
						<in>3741</in>
						<out>4625</out>
					</marker>
					<marker>
						<name>Ideally it goes beyond my imagination</name>
						<comment>How would you visualize your own data?&#13;experimentation,&#13;mind and hand,&#13;intuition,&#13;heuristics,&#13;branching,&#13;art and experience,&#13;surprise,&#13;imagination,</comment>
						<color>
							<alpha>0</alpha>
							<red>255</red>
							<green>0</green>
							<blue>0</blue>
						</color>
						<in>5251</in>
						<out>5399</out>
					</marker>
					<marker>
						<name>Tree of Life</name>
						<comment>The line between cinema and generative art -- how can abstraction spill into narrative -- how can interactive art inform the way we tell stories?&#13;&#13;Tree of life,&#13;branches,&#13;story,&#13;narrative,&#13;emotion,&#13;abstraction,&#13;openness,&#13;cinema,&#13;games,&#13;visual storytelling,   &#13; &#13;&#13;&#13;</comment>
						<color>
							<alpha>0</alpha>
							<red>255</red>
							<green>0</green>
							<blue>0</blue>
						</color>
						<in>6685</in>
						<out>8168</out>
					</marker>
					<marker>
						<name>It's not cinema not a game</name>
						<comment>The line between cinema and generative art -- how can abstraction spill into narrative -- how can interactive art inform the way we tell stories?&#13;&#13;&#13;narrative,&#13;cinema,&#13;games,&#13;visual storytelling,   &#13; &#13;&#13;&#13;</comment>
						<color>
							<alpha>0</alpha>
							<red>255</red>
							<green>0</green>
							<blue>0</blue>
						</color>
						<in>8422</in>
						<out>9607</out>
					</marker>
					<marker>
						<name>New modes of expression</name>
						<comment>What is the story?&#13;communication,&#13;abstraction&#13;new modes of expression,&#13;demonstration,&#13;non-verbal communication,&#13;&#13; &#13;&#13;&#13;</comment>
						<color>
							<alpha>0</alpha>
							<red>255</red>
							<green>0</green>
							<blue>0</blue>
						</color>
						<in>10430</in>
						<out>11052</out>
					</marker>
					<marker>
						<name>Indie Game movement</name>
						<comment>What is the story?&#13;&#13;games,&#13;indie games,&#13;&#13;mainstreaming of experimental art,&#13;&#13;emerging media,&#13;  &#13; &#13;&#13;&#13;</comment>
						<color>
							<alpha>0</alpha>
							<red>255</red>
							<green>0</green>
							<blue>0</blue>
						</color>
						<in>11295</in>
						<out>12144</out>
					</marker>
					<sourcetrack>
						<mediatype>video</mediatype>
					</sourcetrack>
					<link>
						<linkclipref>MVI_0970 </linkclipref>
						<mediatype>video</mediatype>
						<trackindex>1</trackindex>
						<clipindex>3</clipindex>
					</link>
					<link>
						<linkclipref>MVI_0970 3</linkclipref>
						<mediatype>audio</mediatype>
						<trackindex>1</trackindex>
						<clipindex>3</clipindex>
						<groupindex>1</groupindex>
					</link>
					<link>
						<linkclipref>MVI_0970 4</linkclipref>
						<mediatype>audio</mediatype>
						<trackindex>2</trackindex>
						<clipindex>3</clipindex>
						<groupindex>1</groupindex>
					</link>
					<fielddominance>none</fielddominance>
					<itemhistory>
						<uuid>FBB6294B-6DC8-4167-AF20-77C2C05920A7</uuid>
						<uuid>487C1037-5BD9-4A57-A13F-A6164B3C0DA2</uuid>
					</itemhistory>
				</clipitem>
				<clipitem id="MVI_0970 5">
					<name>MVI_0970</name>
					<duration>13869</duration>
					<rate>
						<ntsc>TRUE</ntsc>
						<timebase>24</timebase>
					</rate>
					<in>3728</in>
					<out>4642</out>
					<start>34307</start>
					<end>35221</end>
					<pixelaspectratio>Square</pixelaspectratio>
					<enabled>TRUE</enabled>
					<anamorphic>FALSE</anamorphic>
					<alphatype>none</alphatype>
					<masterclipid>MVI_0970 1</masterclipid>
					<logginginfo>
						<scene/>
						<shottake/>
						<lognote/>
						<good>FALSE</good>
					</logginginfo>
					<labels>
						<label2/>
					</labels>
					<comments>
						<mastercomment1/>
						<mastercomment2/>
						<mastercomment3/>
						<mastercomment4/>
					</comments>
					<file id="MVI_0970 2"/>
					<marker>
						<name>Software is what i love the most</name>
						<comment>Code and the real world were once separate. The membrane between physical and digital has opened up. How has that changed your work?&#13;software as a medium,&#13;self-knowledge,&#13;choosing</comment>
						<color>
							<alpha>0</alpha>
							<red>255</red>
							<green>0</green>
							<blue>0</blue>
						</color>
						<in>853</in>
						<out>1359</out>
					</marker>
					<marker>
						<name>teaching at UCLA</name>
						<comment>Code and the real world were once separate. The membrane between physical and digital has opened up. How has that changed your work?&#13;digital-physical,&#13;being digital,&#13;digital natives,&#13;craft,&#13;making things,&#13;objects,&#13;</comment>
						<color>
							<alpha>0</alpha>
							<red>255</red>
							<green>0</green>
							<blue>0</blue>
						</color>
						<in>1500</in>
						<out>2025</out>
					</marker>
					<marker>
						<name>Clumsy</name>
						<comment>Code and the real world were once separate. The membrane between physical and digital has opened up. How has that changed your work?&#13;digital-physical,&#13;being digital,&#13;digital natives,&#13;craft,&#13;making things,&#13;objects,&#13;link: Nervous Jessica "can't draw"&#13;</comment>
						<color>
							<alpha>0</alpha>
							<red>255</red>
							<green>0</green>
							<blue>0</blue>
						</color>
						<in>1699</in>
						<out>-1</out>
					</marker>
					<marker>
						<name>branching off branching</name>
						<comment>How would you visualize your own data?&#13;&#13;experimentation,&#13;mind and hand,&#13;intuition,&#13;heuristics,&#13;branching,&#13;trees,&#13;experiential,&#13;art and experience,</comment>
						<color>
							<alpha>0</alpha>
							<red>255</red>
							<green>0</green>
							<blue>0</blue>
						</color>
						<in>3741</in>
						<out>4625</out>
					</marker>
					<marker>
						<name>Ideally it goes beyond my imagination</name>
						<comment>How would you visualize your own data?&#13;experimentation,&#13;mind and hand,&#13;intuition,&#13;heuristics,&#13;branching,&#13;art and experience,&#13;surprise,&#13;imagination,</comment>
						<color>
							<alpha>0</alpha>
							<red>255</red>
							<green>0</green>
							<blue>0</blue>
						</color>
						<in>5251</in>
						<out>5399</out>
					</marker>
					<marker>
						<name>Tree of Life</name>
						<comment>The line between cinema and generative art -- how can abstraction spill into narrative -- how can interactive art inform the way we tell stories?&#13;&#13;Tree of life,&#13;branches,&#13;story,&#13;narrative,&#13;emotion,&#13;abstraction,&#13;openness,&#13;cinema,&#13;games,&#13;visual storytelling,   &#13; &#13;&#13;&#13;</comment>
						<color>
							<alpha>0</alpha>
							<red>255</red>
							<green>0</green>
							<blue>0</blue>
						</color>
						<in>6685</in>
						<out>8168</out>
					</marker>
					<marker>
						<name>It's not cinema not a game</name>
						<comment>The line between cinema and generative art -- how can abstraction spill into narrative -- how can interactive art inform the way we tell stories?&#13;&#13;&#13;narrative,&#13;cinema,&#13;games,&#13;visual storytelling,   &#13; &#13;&#13;&#13;</comment>
						<color>
							<alpha>0</alpha>
							<red>255</red>
							<green>0</green>
							<blue>0</blue>
						</color>
						<in>8422</in>
						<out>9607</out>
					</marker>
					<marker>
						<name>New modes of expression</name>
						<comment>What is the story?&#13;communication,&#13;abstraction&#13;new modes of expression,&#13;demonstration,&#13;non-verbal communication,&#13;&#13; &#13;&#13;&#13;</comment>
						<color>
							<alpha>0</alpha>
							<red>255</red>
							<green>0</green>
							<blue>0</blue>
						</color>
						<in>10430</in>
						<out>11052</out>
					</marker>
					<marker>
						<name>Indie Game movement</name>
						<comment>What is the story?&#13;&#13;games,&#13;indie games,&#13;&#13;mainstreaming of experimental art,&#13;&#13;emerging media,&#13;  &#13; &#13;&#13;&#13;</comment>
						<color>
							<alpha>0</alpha>
							<red>255</red>
							<green>0</green>
							<blue>0</blue>
						</color>
						<in>11295</in>
						<out>12144</out>
					</marker>
					<sourcetrack>
						<mediatype>video</mediatype>
					</sourcetrack>
					<link>
						<linkclipref>MVI_0970 5</linkclipref>
						<mediatype>video</mediatype>
						<trackindex>1</trackindex>
						<clipindex>4</clipindex>
					</link>
					<link>
						<linkclipref>MVI_0970 6</linkclipref>
						<mediatype>audio</mediatype>
						<trackindex>1</trackindex>
						<clipindex>4</clipindex>
						<groupindex>1</groupindex>
					</link>
					<link>
						<linkclipref>MVI_0970 7</linkclipref>
						<mediatype>audio</mediatype>
						<trackindex>2</trackindex>
						<clipindex>4</clipindex>
						<groupindex>1</groupindex>
					</link>
					<fielddominance>none</fielddominance>
					<itemhistory>
						<uuid>E45372EB-BA67-4312-8C20-B69A098AE40F</uuid>
						<uuid>487C1037-5BD9-4A57-A13F-A6164B3C0DA2</uuid>
					</itemhistory>
				</clipitem>
				<clipitem id="MVI_0970 8">
					<name>MVI_0970</name>
					<duration>13869</duration>
					<rate>
						<ntsc>TRUE</ntsc>
						<timebase>24</timebase>
					</rate>
					<in>4642</in>
					<out>5251</out>
					<start>35221</start>
					<end>35830</end>
					<pixelaspectratio>Square</pixelaspectratio>
					<enabled>TRUE</enabled>
					<anamorphic>FALSE</anamorphic>
					<alphatype>none</alphatype>
					<masterclipid>MVI_0970 1</masterclipid>
					<logginginfo>
						<scene/>
						<shottake/>
						<lognote/>
						<good>FALSE</good>
					</logginginfo>
					<labels>
						<label2/>
					</labels>
					<comments>
						<mastercomment1/>
						<mastercomment2/>
						<mastercomment3/>
						<mastercomment4/>
					</comments>
					<file id="MVI_0970 2"/>
					<marker>
						<name>Software is what i love the most</name>
						<comment>Code and the real world were once separate. The membrane between physical and digital has opened up. How has that changed your work?&#13;software as a medium,&#13;self-knowledge,&#13;choosing</comment>
						<color>
							<alpha>0</alpha>
							<red>255</red>
							<green>0</green>
							<blue>0</blue>
						</color>
						<in>853</in>
						<out>1359</out>
					</marker>
					<marker>
						<name>teaching at UCLA</name>
						<comment>Code and the real world were once separate. The membrane between physical and digital has opened up. How has that changed your work?&#13;digital-physical,&#13;being digital,&#13;digital natives,&#13;craft,&#13;making things,&#13;objects,&#13;</comment>
						<color>
							<alpha>0</alpha>
							<red>255</red>
							<green>0</green>
							<blue>0</blue>
						</color>
						<in>1500</in>
						<out>2025</out>
					</marker>
					<marker>
						<name>Clumsy</name>
						<comment>Code and the real world were once separate. The membrane between physical and digital has opened up. How has that changed your work?&#13;digital-physical,&#13;being digital,&#13;digital natives,&#13;craft,&#13;making things,&#13;objects,&#13;link: Nervous Jessica "can't draw"&#13;</comment>
						<color>
							<alpha>0</alpha>
							<red>255</red>
							<green>0</green>
							<blue>0</blue>
						</color>
						<in>1699</in>
						<out>-1</out>
					</marker>
					<marker>
						<name>branching off branching</name>
						<comment>How would you visualize your own data?&#13;&#13;experimentation,&#13;mind and hand,&#13;intuition,&#13;heuristics,&#13;branching,&#13;trees,&#13;experiential,&#13;art and experience,</comment>
						<color>
							<alpha>0</alpha>
							<red>255</red>
							<green>0</green>
							<blue>0</blue>
						</color>
						<in>3741</in>
						<out>4625</out>
					</marker>
					<marker>
						<name>Ideally it goes beyond my imagination</name>
						<comment>How would you visualize your own data?&#13;experimentation,&#13;mind and hand,&#13;intuition,&#13;heuristics,&#13;branching,&#13;art and experience,&#13;surprise,&#13;imagination,</comment>
						<color>
							<alpha>0</alpha>
							<red>255</red>
							<green>0</green>
							<blue>0</blue>
						</color>
						<in>5251</in>
						<out>5399</out>
					</marker>
					<marker>
						<name>Tree of Life</name>
						<comment>The line between cinema and generative art -- how can abstraction spill into narrative -- how can interactive art inform the way we tell stories?&#13;&#13;Tree of life,&#13;branches,&#13;story,&#13;narrative,&#13;emotion,&#13;abstraction,&#13;openness,&#13;cinema,&#13;games,&#13;visual storytelling,   &#13; &#13;&#13;&#13;</comment>
						<color>
							<alpha>0</alpha>
							<red>255</red>
							<green>0</green>
							<blue>0</blue>
						</color>
						<in>6685</in>
						<out>8168</out>
					</marker>
					<marker>
						<name>It's not cinema not a game</name>
						<comment>The line between cinema and generative art -- how can abstraction spill into narrative -- how can interactive art inform the way we tell stories?&#13;&#13;&#13;narrative,&#13;cinema,&#13;games,&#13;visual storytelling,   &#13; &#13;&#13;&#13;</comment>
						<color>
							<alpha>0</alpha>
							<red>255</red>
							<green>0</green>
							<blue>0</blue>
						</color>
						<in>8422</in>
						<out>9607</out>
					</marker>
					<marker>
						<name>New modes of expression</name>
						<comment>What is the story?&#13;communication,&#13;abstraction&#13;new modes of expression,&#13;demonstration,&#13;non-verbal communication,&#13;&#13; &#13;&#13;&#13;</comment>
						<color>
							<alpha>0</alpha>
							<red>255</red>
							<green>0</green>
							<blue>0</blue>
						</color>
						<in>10430</in>
						<out>11052</out>
					</marker>
					<marker>
						<name>Indie Game movement</name>
						<comment>What is the story?&#13;&#13;games,&#13;indie games,&#13;&#13;mainstreaming of experimental art,&#13;&#13;emerging media,&#13;  &#13; &#13;&#13;&#13;</comment>
						<color>
							<alpha>0</alpha>
							<red>255</red>
							<green>0</green>
							<blue>0</blue>
						</color>
						<in>11295</in>
						<out>12144</out>
					</marker>
					<sourcetrack>
						<mediatype>video</mediatype>
					</sourcetrack>
					<link>
						<linkclipref>MVI_0970 8</linkclipref>
						<mediatype>video</mediatype>
						<trackindex>1</trackindex>
						<clipindex>5</clipindex>
					</link>
					<link>
						<linkclipref>MVI_0970 9</linkclipref>
						<mediatype>audio</mediatype>
						<trackindex>1</trackindex>
						<clipindex>5</clipindex>
						<groupindex>1</groupindex>
					</link>
					<link>
						<linkclipref>MVI_0970 10</linkclipref>
						<mediatype>audio</mediatype>
						<trackindex>2</trackindex>
						<clipindex>5</clipindex>
						<groupindex>1</groupindex>
					</link>
					<fielddominance>none</fielddominance>
					<itemhistory>
						<uuid>D3A41CD0-9056-4C89-B800-75C57FF51117</uuid>
						<uuid>46495287-6062-438F-8E28-BC1B0567894E</uuid>
						<uuid>487C1037-5BD9-4A57-A13F-A6164B3C0DA2</uuid>
					</itemhistory>
				</clipitem>
				<clipitem id="MVI_0970 11">
					<name>MVI_0970</name>
					<duration>13869</duration>
					<rate>
						<ntsc>TRUE</ntsc>
						<timebase>24</timebase>
					</rate>
					<in>5251</in>
					<out>5399</out>
					<start>35830</start>
					<end>35978</end>
					<pixelaspectratio>Square</pixelaspectratio>
					<enabled>TRUE</enabled>
					<anamorphic>FALSE</anamorphic>
					<alphatype>none</alphatype>
					<masterclipid>MVI_0970 1</masterclipid>
					<logginginfo>
						<scene/>
						<shottake/>
						<lognote/>
						<good>FALSE</good>
					</logginginfo>
					<labels>
						<label2/>
					</labels>
					<comments>
						<mastercomment1/>
						<mastercomment2/>
						<mastercomment3/>
						<mastercomment4/>
					</comments>
					<file id="MVI_0970 2"/>
					<marker>
						<name>Software is what i love the most</name>
						<comment>Code and the real world were once separate. The membrane between physical and digital has opened up. How has that changed your work?&#13;software as a medium,&#13;self-knowledge,&#13;choosing</comment>
						<color>
							<alpha>0</alpha>
							<red>255</red>
							<green>0</green>
							<blue>0</blue>
						</color>
						<in>853</in>
						<out>1359</out>
					</marker>
					<marker>
						<name>teaching at UCLA</name>
						<comment>Code and the real world were once separate. The membrane between physical and digital has opened up. How has that changed your work?&#13;digital-physical,&#13;being digital,&#13;digital natives,&#13;craft,&#13;making things,&#13;objects,&#13;</comment>
						<color>
							<alpha>0</alpha>
							<red>255</red>
							<green>0</green>
							<blue>0</blue>
						</color>
						<in>1500</in>
						<out>2025</out>
					</marker>
					<marker>
						<name>Clumsy</name>
						<comment>Code and the real world were once separate. The membrane between physical and digital has opened up. How has that changed your work?&#13;digital-physical,&#13;being digital,&#13;digital natives,&#13;craft,&#13;making things,&#13;objects,&#13;link: Nervous Jessica "can't draw"&#13;</comment>
						<color>
							<alpha>0</alpha>
							<red>255</red>
							<green>0</green>
							<blue>0</blue>
						</color>
						<in>1699</in>
						<out>-1</out>
					</marker>
					<marker>
						<name>branching off branching</name>
						<comment>How would you visualize your own data?&#13;&#13;experimentation,&#13;mind and hand,&#13;intuition,&#13;heuristics,&#13;branching,&#13;trees,&#13;experiential,&#13;art and experience,</comment>
						<color>
							<alpha>0</alpha>
							<red>255</red>
							<green>0</green>
							<blue>0</blue>
						</color>
						<in>3741</in>
						<out>4625</out>
					</marker>
					<marker>
						<name>Ideally it goes beyond my imagination</name>
						<comment>How would you visualize your own data?&#13;experimentation,&#13;mind and hand,&#13;intuition,&#13;heuristics,&#13;branching,&#13;art and experience,&#13;surprise,&#13;imagination,</comment>
						<color>
							<alpha>0</alpha>
							<red>255</red>
							<green>0</green>
							<blue>0</blue>
						</color>
						<in>5251</in>
						<out>5399</out>
					</marker>
					<marker>
						<name>Tree of Life</name>
						<comment>The line between cinema and generative art -- how can abstraction spill into narrative -- how can interactive art inform the way we tell stories?&#13;&#13;Tree of life,&#13;branches,&#13;story,&#13;narrative,&#13;emotion,&#13;abstraction,&#13;openness,&#13;cinema,&#13;games,&#13;visual storytelling,   &#13; &#13;&#13;&#13;</comment>
						<color>
							<alpha>0</alpha>
							<red>255</red>
							<green>0</green>
							<blue>0</blue>
						</color>
						<in>6685</in>
						<out>8168</out>
					</marker>
					<marker>
						<name>It's not cinema not a game</name>
						<comment>The line between cinema and generative art -- how can abstraction spill into narrative -- how can interactive art inform the way we tell stories?&#13;&#13;&#13;narrative,&#13;cinema,&#13;games,&#13;visual storytelling,   &#13; &#13;&#13;&#13;</comment>
						<color>
							<alpha>0</alpha>
							<red>255</red>
							<green>0</green>
							<blue>0</blue>
						</color>
						<in>8422</in>
						<out>9607</out>
					</marker>
					<marker>
						<name>New modes of expression</name>
						<comment>What is the story?&#13;communication,&#13;abstraction&#13;new modes of expression,&#13;demonstration,&#13;non-verbal communication,&#13;&#13; &#13;&#13;&#13;</comment>
						<color>
							<alpha>0</alpha>
							<red>255</red>
							<green>0</green>
							<blue>0</blue>
						</color>
						<in>10430</in>
						<out>11052</out>
					</marker>
					<marker>
						<name>Indie Game movement</name>
						<comment>What is the story?&#13;&#13;games,&#13;indie games,&#13;&#13;mainstreaming of experimental art,&#13;&#13;emerging media,&#13;  &#13; &#13;&#13;&#13;</comment>
						<color>
							<alpha>0</alpha>
							<red>255</red>
							<green>0</green>
							<blue>0</blue>
						</color>
						<in>11295</in>
						<out>12144</out>
					</marker>
					<sourcetrack>
						<mediatype>video</mediatype>
					</sourcetrack>
					<fielddominance>none</fielddominance>
					<itemhistory>
						<uuid>AE82831B-0E97-4B8E-A925-0ED9CBB89395</uuid>
						<uuid>46495287-6062-438F-8E28-BC1B0567894E</uuid>
						<uuid>487C1037-5BD9-4A57-A13F-A6164B3C0DA2</uuid>
					</itemhistory>
				</clipitem>
				<clipitem id="MVI_0970 12">
					<name>MVI_0970</name>
					<duration>13869</duration>
					<rate>
						<ntsc>TRUE</ntsc>
						<timebase>24</timebase>
					</rate>
					<in>5399</in>
					<out>13869</out>
					<start>35978</start>
					<end>44448</end>
					<pixelaspectratio>Square</pixelaspectratio>
					<enabled>TRUE</enabled>
					<anamorphic>FALSE</anamorphic>
					<alphatype>none</alphatype>
					<masterclipid>MVI_0970 1</masterclipid>
					<logginginfo>
						<scene/>
						<shottake/>
						<lognote/>
						<good>FALSE</good>
					</logginginfo>
					<labels>
						<label2/>
					</labels>
					<comments>
						<mastercomment1/>
						<mastercomment2/>
						<mastercomment3/>
						<mastercomment4/>
					</comments>
					<file id="MVI_0970 2"/>
					<marker>
						<name>Software is what i love the most</name>
						<comment>Code and the real world were once separate. The membrane between physical and digital has opened up. How has that changed your work?&#13;software as a medium,&#13;self-knowledge,&#13;choosing</comment>
						<color>
							<alpha>0</alpha>
							<red>255</red>
							<green>0</green>
							<blue>0</blue>
						</color>
						<in>853</in>
						<out>1359</out>
					</marker>
					<marker>
						<name>teaching at UCLA</name>
						<comment>Code and the real world were once separate. The membrane between physical and digital has opened up. How has that changed your work?&#13;digital-physical,&#13;being digital,&#13;digital natives,&#13;craft,&#13;making things,&#13;objects,&#13;</comment>
						<color>
							<alpha>0</alpha>
							<red>255</red>
							<green>0</green>
							<blue>0</blue>
						</color>
						<in>1500</in>
						<out>2025</out>
					</marker>
					<marker>
						<name>Clumsy</name>
						<comment>Code and the real world were once separate. The membrane between physical and digital has opened up. How has that changed your work?&#13;digital-physical,&#13;being digital,&#13;digital natives,&#13;craft,&#13;making things,&#13;objects,&#13;link: Nervous Jessica "can't draw"&#13;</comment>
						<color>
							<alpha>0</alpha>
							<red>255</red>
							<green>0</green>
							<blue>0</blue>
						</color>
						<in>1699</in>
						<out>-1</out>
					</marker>
					<marker>
						<name>branching off branching</name>
						<comment>How would you visualize your own data?&#13;&#13;experimentation,&#13;mind and hand,&#13;intuition,&#13;heuristics,&#13;branching,&#13;trees,&#13;experiential,&#13;art and experience,</comment>
						<color>
							<alpha>0</alpha>
							<red>255</red>
							<green>0</green>
							<blue>0</blue>
						</color>
						<in>3741</in>
						<out>4625</out>
					</marker>
					<marker>
						<name>Ideally it goes beyond my imagination</name>
						<comment>How would you visualize your own data?&#13;experimentation,&#13;mind and hand,&#13;intuition,&#13;heuristics,&#13;branching,&#13;art and experience,&#13;surprise,&#13;imagination,</comment>
						<color>
							<alpha>0</alpha>
							<red>255</red>
							<green>0</green>
							<blue>0</blue>
						</color>
						<in>5251</in>
						<out>5399</out>
					</marker>
					<marker>
						<name>Tree of Life</name>
						<comment>The line between cinema and generative art -- how can abstraction spill into narrative -- how can interactive art inform the way we tell stories?&#13;&#13;Tree of life,&#13;branches,&#13;story,&#13;narrative,&#13;emotion,&#13;abstraction,&#13;openness,&#13;cinema,&#13;games,&#13;visual storytelling,   &#13; &#13;&#13;&#13;</comment>
						<color>
							<alpha>0</alpha>
							<red>255</red>
							<green>0</green>
							<blue>0</blue>
						</color>
						<in>6685</in>
						<out>8168</out>
					</marker>
					<marker>
						<name>It's not cinema not a game</name>
						<comment>The line between cinema and generative art -- how can abstraction spill into narrative -- how can interactive art inform the way we tell stories?&#13;&#13;&#13;narrative,&#13;cinema,&#13;games,&#13;visual storytelling,   &#13; &#13;&#13;&#13;</comment>
						<color>
							<alpha>0</alpha>
							<red>255</red>
							<green>0</green>
							<blue>0</blue>
						</color>
						<in>8422</in>
						<out>9607</out>
					</marker>
					<marker>
						<name>New modes of expression</name>
						<comment>What is the story?&#13;communication,&#13;abstraction&#13;new modes of expression,&#13;demonstration,&#13;non-verbal communication,&#13;&#13; &#13;&#13;&#13;</comment>
						<color>
							<alpha>0</alpha>
							<red>255</red>
							<green>0</green>
							<blue>0</blue>
						</color>
						<in>10430</in>
						<out>11052</out>
					</marker>
					<marker>
						<name>Indie Game movement</name>
						<comment>What is the story?&#13;&#13;games,&#13;indie games,&#13;&#13;mainstreaming of experimental art,&#13;&#13;emerging media,&#13;  &#13; &#13;&#13;&#13;</comment>
						<color>
							<alpha>0</alpha>
							<red>255</red>
							<green>0</green>
							<blue>0</blue>
						</color>
						<in>11295</in>
						<out>12144</out>
					</marker>
					<sourcetrack>
						<mediatype>video</mediatype>
					</sourcetrack>
					<fielddominance>none</fielddominance>
					<itemhistory>
						<uuid>8375EE79-723F-4C93-B758-8974CD414370</uuid>
						<uuid>46495287-6062-438F-8E28-BC1B0567894E</uuid>
						<uuid>487C1037-5BD9-4A57-A13F-A6164B3C0DA2</uuid>
					</itemhistory>
				</clipitem>
				<clipitem id="MVI_0972 ">
					<name>MVI_0972</name>
					<duration>5086</duration>
					<rate>
						<ntsc>TRUE</ntsc>
						<timebase>24</timebase>
					</rate>
					<in>0</in>
					<out>5086</out>
					<start>44448</start>
					<end>49534</end>
					<pixelaspectratio>Square</pixelaspectratio>
					<enabled>TRUE</enabled>
					<anamorphic>FALSE</anamorphic>
					<alphatype>none</alphatype>
					<masterclipid>MVI_0972 1</masterclipid>
					<logginginfo>
						<scene/>
						<shottake/>
						<lognote/>
						<good>FALSE</good>
					</logginginfo>
					<labels>
						<label2/>
					</labels>
					<comments>
						<mastercomment1/>
						<mastercomment2/>
						<mastercomment3/>
						<mastercomment4/>
					</comments>
					<file id="MVI_0972 2">
						<name>MVI_0972.mov</name>
						<pathurl>file://localhost/Volumes/Nebula/MediaPackages/EyeoMediaBin/Casey04/color/MVI_0972.mov</pathurl>
						<rate>
							<timebase>24</timebase>
							<ntsc>TRUE</ntsc>
						</rate>
						<duration>5086</duration>
						<media>
							<video>
								<duration>5086</duration>
								<samplecharacteristics>
									<width>1920</width>
									<height>1080</height>
								</samplecharacteristics>
							</video>
							<audio>
								<samplecharacteristics>
									<samplerate>48000</samplerate>
									<depth>16</depth>
								</samplecharacteristics>
								<channelcount>2</channelcount>
							</audio>
						</media>
					</file>
					<marker>
						<name>Started small</name>
						<comment>What is the story?&#13;&#13;games,&#13;indie games,&#13;&#13;mainstreaming of experimental art,&#13;&#13;emerging media,&#13; growth,&#13;print,&#13;graphics,&#13;design,&#13;&#13;&#13;</comment>
						<color>
							<alpha>0</alpha>
							<red>255</red>
							<green>0</green>
							<blue>0</blue>
						</color>
						<in>374</in>
						<out>1999</out>
					</marker>
					<marker>
						<name>Undiscovered history</name>
						<comment>What's the influence of art history?&#13;&#13;Art history,&#13;Pioneers,&#13;origins of digital art,&#13;precurors,&#13;&#13; &#13;&#13;&#13;</comment>
						<color>
							<alpha>0</alpha>
							<red>255</red>
							<green>0</green>
							<blue>0</blue>
						</color>
						<in>3058</in>
						<out>3765</out>
					</marker>
					<marker>
						<name>art history</name>
						<comment>Wha's the influence of art history?.&#13;Art history,&#13;innovation,&#13;evolution,</comment>
						<color>
							<alpha>0</alpha>
							<red>255</red>
							<green>0</green>
							<blue>0</blue>
						</color>
						<in>3896</in>
						<out>4413</out>
					</marker>
					<marker>
						<name>understanding ideas of art history</name>
						<comment>What's the influence of art history?&#13;&#13;Art history,&#13;abstraction,&#13;emotion,&#13;modernism&#13;&#13;&#13; &#13;&#13;&#13;</comment>
						<color>
							<alpha>0</alpha>
							<red>255</red>
							<green>0</green>
							<blue>0</blue>
						</color>
						<in>4424</in>
						<out>4821</out>
					</marker>
					<sourcetrack>
						<mediatype>video</mediatype>
					</sourcetrack>
					<link>
						<linkclipref>MVI_0972 </linkclipref>
						<mediatype>video</mediatype>
						<trackindex>1</trackindex>
						<clipindex>8</clipindex>
					</link>
					<link>
						<linkclipref>MVI_0972 3</linkclipref>
						<mediatype>audio</mediatype>
						<trackindex>1</trackindex>
						<clipindex>8</clipindex>
						<groupindex>1</groupindex>
					</link>
					<link>
						<linkclipref>MVI_0972 4</linkclipref>
						<mediatype>audio</mediatype>
						<trackindex>2</trackindex>
						<clipindex>8</clipindex>
						<groupindex>1</groupindex>
					</link>
					<fielddominance>none</fielddominance>
					<itemhistory>
						<uuid>FD5A0EE7-1B2F-4136-8A44-CECCFB2F1243</uuid>
					</itemhistory>
				</clipitem>
				<enabled>TRUE</enabled>
				<locked>FALSE</locked>
			</track>
			<track>
				<clipitem id="MVI_0968 5">
					<name>MVI_0968</name>
					<duration>15802</duration>
					<rate>
						<ntsc>TRUE</ntsc>
						<timebase>24</timebase>
					</rate>
					<in>0</in>
					<out>15802</out>
					<start>0</start>
					<end>15802</end>
					<pixelaspectratio>Square</pixelaspectratio>
					<enabled>TRUE</enabled>
					<anamorphic>FALSE</anamorphic>
					<alphatype>none</alphatype>
					<masterclipid>MVI_0968 1</masterclipid>
					<logginginfo>
						<scene/>
						<shottake/>
						<lognote/>
						<good>FALSE</good>
					</logginginfo>
					<labels>
						<label2/>
					</labels>
					<comments>
						<mastercomment1/>
						<mastercomment2/>
						<mastercomment3/>
						<mastercomment4/>
					</comments>
					<file id="MVI_0968 2"/>
					<marker>
						<name>Programming at 26</name>
						<comment>beginnngs,&#13;learning,&#13;programming, &#13;working with others,&#13;Media Lab, aesthetics and computation,</comment>
						<color>
							<alpha>0</alpha>
							<red>255</red>
							<green>0</green>
							<blue>0</blue>
						</color>
						<in>3457</in>
						<out>3816</out>
					</marker>
					<marker>
						<name>desire to build</name>
						<comment/>
						<color>
							<alpha>0</alpha>
							<red>48</red>
							<green>191</green>
							<blue>72</blue>
						</color>
						<in>6188</in>
						<out>6251</out>
					</marker>
					<marker>
						<name>Computer as collaborator</name>
						<comment>How do you build serendipity into your systems?&#13;emergence,&#13;artificial life,&#13;complexity,&#13;systems,</comment>
						<color>
							<alpha>0</alpha>
							<red>255</red>
							<green>0</green>
							<blue>0</blue>
						</color>
						<in>8092</in>
						<out>8301</out>
					</marker>
					<marker>
						<name>What is emergence?</name>
						<comment>emergence,&#13;artificial life,&#13;complexity,&#13;flocking,</comment>
						<color>
							<alpha>0</alpha>
							<red>255</red>
							<green>0</green>
							<blue>0</blue>
						</color>
						<in>10078</in>
						<out>10758</out>
					</marker>
					<marker>
						<name>Developing a microworld</name>
						<comment>Nature,&#13;Simulation,&#13;Creation,&#13;playing god,&#13;world building,&#13;abstraction</comment>
						<color>
							<alpha>0</alpha>
							<red>255</red>
							<green>0</green>
							<blue>0</blue>
						</color>
						<in>12342</in>
						<out>12730</out>
					</marker>
					<marker>
						<name>Massive parallel systems</name>
						<comment>How does computer code translate to the code of life and synthetic biology? &#13;&#13;parallel computing,&#13;computational power,&#13;progress,&#13;acceleration&#13;</comment>
						<color>
							<alpha>0</alpha>
							<red>255</red>
							<green>0</green>
							<blue>0</blue>
						</color>
						<in>13743</in>
						<out>14111</out>
					</marker>
					<filter>
						<effect>
							<name>Basic Motion</name>
							<effectid>basic</effectid>
							<effectcategory>motion</effectcategory>
							<effecttype>motion</effecttype>
							<mediatype>video</mediatype>
							<parameter>
								<parameterid>center</parameterid>
								<name>Center</name>
								<value>
									<horiz>0</horiz>
									<vert>-0.00185185</vert>
								</value>
							</parameter>
						</effect>
					</filter>
					<sourcetrack>
						<mediatype>video</mediatype>
					</sourcetrack>
					<link>
						<linkclipref>MVI_0968 5</linkclipref>
						<mediatype>video</mediatype>
						<trackindex>2</trackindex>
						<clipindex>1</clipindex>
					</link>
					<link>
						<linkclipref>MVI_0968 6</linkclipref>
						<mediatype>audio</mediatype>
						<trackindex>5</trackindex>
						<clipindex>1</clipindex>
						<groupindex>1</groupindex>
					</link>
					<link>
						<linkclipref>MVI_0968 7</linkclipref>
						<mediatype>audio</mediatype>
						<trackindex>6</trackindex>
						<clipindex>1</clipindex>
						<groupindex>1</groupindex>
					</link>
					<fielddominance>none</fielddominance>
					<itemhistory>
						<uuid>2F1EFD6C-4C25-47D8-B2B8-AEC56FC20A53</uuid>
					</itemhistory>
				</clipitem>
				<clipitem id="MVI_0969 5">
					<name>MVI_0969</name>
					<duration>14777</duration>
					<rate>
						<ntsc>TRUE</ntsc>
						<timebase>24</timebase>
					</rate>
					<in>0</in>
					<out>14777</out>
					<start>15802</start>
					<end>30579</end>
					<pixelaspectratio>Square</pixelaspectratio>
					<enabled>TRUE</enabled>
					<anamorphic>FALSE</anamorphic>
					<alphatype>none</alphatype>
					<masterclipid>MVI_0969 1</masterclipid>
					<logginginfo>
						<scene/>
						<shottake/>
						<lognote/>
						<good>FALSE</good>
					</logginginfo>
					<labels>
						<label2/>
					</labels>
					<comments>
						<mastercomment1/>
						<mastercomment2/>
						<mastercomment3/>
						<mastercomment4/>
					</comments>
					<file id="MVI_0969 2"/>
					<marker>
						<name>You need noise</name>
						<comment>How do chance and luck play a role in your work and life?&#13;chance,&#13;randomness,&#13;emergence,&#13;noise,&#13;organic,&#13;simulation</comment>
						<color>
							<alpha>0</alpha>
							<red>255</red>
							<green>0</green>
							<blue>0</blue>
						</color>
						<in>10334</in>
						<out>11148</out>
					</marker>
					<marker>
						<name>Tron</name>
						<comment>What are the different kinds of randomness?&#13;Tron,&#13;simulation,&#13;aesthetics,</comment>
						<color>
							<alpha>0</alpha>
							<red>255</red>
							<green>0</green>
							<blue>0</blue>
						</color>
						<in>13803</in>
						<out>14633</out>
					</marker>
					<sourcetrack>
						<mediatype>video</mediatype>
					</sourcetrack>
					<fielddominance>none</fielddominance>
					<itemhistory>
						<uuid>7823E25D-2E70-4699-834F-523F356E5919</uuid>
					</itemhistory>
				</clipitem>
				<clipitem id="MVI_0970 13">
					<name>MVI_0970</name>
					<duration>13869</duration>
					<rate>
						<ntsc>TRUE</ntsc>
						<timebase>24</timebase>
					</rate>
					<in>0</in>
					<out>13869</out>
					<start>30579</start>
					<end>44448</end>
					<pixelaspectratio>Square</pixelaspectratio>
					<anamorphic>FALSE</anamorphic>
					<alphatype>none</alphatype>
					<masterclipid>MVI_0970 1</masterclipid>
					<logginginfo>
						<scene/>
						<shottake/>
						<lognote/>
						<good>FALSE</good>
					</logginginfo>
					<labels>
						<label2/>
					</labels>
					<comments>
						<mastercomment1/>
						<mastercomment2/>
						<mastercomment3/>
						<mastercomment4/>
					</comments>
					<file id="MVI_0970 2"/>
					<marker>
						<name>Something new, totally engrossing</name>
						<comment>The line between cinema and generative art -- how can abstraction spill into narrative -- how can interactive art inform the way we tell stories?&#13;&#13;&#13;narrative,&#13;cinema,&#13;games,&#13;visual storytelling,   &#13; &#13;&#13;&#13;</comment>
						<color>
							<alpha>0</alpha>
							<red>255</red>
							<green>0</green>
							<blue>0</blue>
						</color>
						<in>8891</in>
						<out>9216</out>
					</marker>
					<sourcetrack>
						<mediatype>video</mediatype>
					</sourcetrack>
					<fielddominance>none</fielddominance>
					<itemhistory>
						<uuid>555C2DAF-8116-45F1-98F5-E16678F5FCA0</uuid>
					</itemhistory>
				</clipitem>
				<enabled>TRUE</enabled>
				<locked>FALSE</locked>
			</track>
			<track>
				<enabled>TRUE</enabled>
				<locked>FALSE</locked>
			</track>
			<track>
				<enabled>TRUE</enabled>
				<locked>FALSE</locked>
			</track>
			<track>
				<enabled>TRUE</enabled>
				<locked>FALSE</locked>
			</track>
		</video>
		<audio>
			<format>
				<samplecharacteristics>
					<depth>16</depth>
					<samplerate>48000</samplerate>
				</samplecharacteristics>
			</format>
			<outputs>
				<group>
					<index>1</index>
					<numchannels>2</numchannels>
					<downmix>0</downmix>
					<channel>
						<index>1</index>
					</channel>
					<channel>
						<index>2</index>
					</channel>
				</group>
			</outputs>
			<in>-1</in>
			<out>49270</out>
			<track>
				<clipitem id="MVI_0968 3">
					<name>MVI_0968</name>
					<duration>15802</duration>
					<rate>
						<ntsc>TRUE</ntsc>
						<timebase>24</timebase>
					</rate>
					<in>0</in>
					<out>15802</out>
					<start>0</start>
					<end>15802</end>
					<enabled>TRUE</enabled>
					<masterclipid>MVI_0968 1</masterclipid>
					<logginginfo>
						<scene/>
						<shottake/>
						<lognote/>
						<good>FALSE</good>
					</logginginfo>
					<labels>
						<label2/>
					</labels>
					<comments>
						<mastercomment1/>
						<mastercomment2/>
						<mastercomment3/>
						<mastercomment4/>
					</comments>
					<file id="MVI_0968 2"/>
					<marker>
						<name>beginnings</name>
						<comment>beginnings,&#13;design,&#13;john maeda,&#13;media lab,&#13;web,&#13;print,&#13;career,&#13;</comment>
						<color>
							<alpha>0</alpha>
							<red>255</red>
							<green>127</green>
							<blue>0</blue>
						</color>
						<in>2672</in>
						<out>3456</out>
					</marker>
					<marker>
						<name>Processing, what is it?</name>
						<comment>Processing,&#13;toolkit,&#13;process,&#13;</comment>
						<color>
							<alpha>0</alpha>
							<red>255</red>
							<green>0</green>
							<blue>0</blue>
						</color>
						<in>4177</in>
						<out>4583</out>
					</marker>
					<marker>
						<name>Sketching with code</name>
						<comment>art versus engineering,&#13;methodology,&#13;process, &#13;thinking by doing,&#13;design,&#13;thinking and making,</comment>
						<color>
							<alpha>0</alpha>
							<red>255</red>
							<green>0</green>
							<blue>0</blue>
						</color>
						<in>4716</in>
						<out>5160</out>
					</marker>
					<marker>
						<name>tangle</name>
						<comment>code is messy,thinking by doing,thinking with code,exploration,uncertainty</comment>
						<color>
							<alpha>0</alpha>
							<red>255</red>
							<green>0</green>
							<blue>0</blue>
						</color>
						<in>5576</in>
						<out>6379</out>
					</marker>
					<marker>
						<name>Borrowing from culture</name>
						<comment>Where does the creative process begin?&#13;influences,&#13;interdisciplinary,&#13;culture,&#13;</comment>
						<color>
							<alpha>0</alpha>
							<red>255</red>
							<green>0</green>
							<blue>0</blue>
						</color>
						<in>6423</in>
						<out>6859</out>
					</marker>
					<marker>
						<name>Systems theory</name>
						<comment>How do you build serendipity into your systems?&#13;emergence,&#13;artificial life,&#13;complexity,&#13;systems,&#13;</comment>
						<color>
							<alpha>0</alpha>
							<red>255</red>
							<green>0</green>
							<blue>0</blue>
						</color>
						<in>7031</in>
						<out>8092</out>
					</marker>
					<marker>
						<name>emergence</name>
						<comment>What is emergence?,&#13;emergence,&#13;process,&#13;nature,</comment>
						<color>
							<alpha>0</alpha>
							<red>255</red>
							<green>0</green>
							<blue>0</blue>
						</color>
						<in>9430</in>
						<out>10760</out>
					</marker>
					<marker>
						<name>thinking about science</name>
						<comment>How do you think about these systems?,&#13;science,&#13;</comment>
						<color>
							<alpha>0</alpha>
							<red>255</red>
							<green>0</green>
							<blue>0</blue>
						</color>
						<in>11904</in>
						<out>12342</out>
					</marker>
					<marker>
						<name>I try not to be a futurist</name>
						<comment>How does computer code translate to the code of life and synthetic biology? &#13;&#13;Science Fiction,&#13;Futurism,&#13;synthetic biology,&#13;Life,&#13;</comment>
						<color>
							<alpha>0</alpha>
							<red>255</red>
							<green>0</green>
							<blue>0</blue>
						</color>
						<in>13444</in>
						<out>13743</out>
					</marker>
					<marker>
						<name>Understanding the past/insight into the future</name>
						<comment>How does computer code translate to the code of life and synthetic biology? &#13;technological progress,&#13;Futurism</comment>
						<color>
							<alpha>0</alpha>
							<red>255</red>
							<green>0</green>
							<blue>0</blue>
						</color>
						<in>14139</in>
						<out>14668</out>
					</marker>
					<marker>
						<name>synthetic biology</name>
						<comment>How does computer code translate to the code of life and synthetic biology? &#13;&#13;Science Fiction,&#13;Futurism,&#13;synthetic biology,&#13;Life,&#13;</comment>
						<color>
							<alpha>0</alpha>
							<red>255</red>
							<green>0</green>
							<blue>0</blue>
						</color>
						<in>15056</in>
						<out>15624</out>
					</marker>
					<filter>
						<effect>
							<name>Audio Levels</name>
							<effectid>audiolevels</effectid>
							<effectcategory>audiolevels</effectcategory>
							<effecttype>audiolevels</effecttype>
							<mediatype>audio</mediatype>
							<parameter>
								<name>Level</name>
								<parameterid>level</parameterid>
								<valuemin>0</valuemin>
								<valuemax>3.98109</valuemax>
								<value>1</value>
							</parameter>
						</effect>
					</filter>
					<filter>
						<effect>
							<name>Audio Pan</name>
							<effectid>audiopan</effectid>
							<effectcategory>audiopan</effectcategory>
							<effecttype>audiopan</effecttype>
							<mediatype>audio</mediatype>
							<parameter>
								<name>Pan</name>
								<parameterid>pan</parameterid>
								<valuemin>-1</valuemin>
								<valuemax>1</valuemax>
								<value>-1</value>
							</parameter>
						</effect>
					</filter>
					<sourcetrack>
						<mediatype>audio</mediatype>
						<trackindex>1</trackindex>
					</sourcetrack>
					<link>
						<linkclipref>MVI_0968 </linkclipref>
						<mediatype>video</mediatype>
						<trackindex>1</trackindex>
						<clipindex>1</clipindex>
					</link>
					<link>
						<linkclipref>MVI_0968 3</linkclipref>
						<mediatype>audio</mediatype>
						<trackindex>1</trackindex>
						<clipindex>1</clipindex>
						<groupindex>1</groupindex>
					</link>
					<link>
						<linkclipref>MVI_0968 4</linkclipref>
						<mediatype>audio</mediatype>
						<trackindex>2</trackindex>
						<clipindex>1</clipindex>
						<groupindex>1</groupindex>
					</link>
					<itemhistory>
						<uuid>D7D2DB63-AE75-481F-9138-C19E6DD65EFD</uuid>
					</itemhistory>
				</clipitem>
				<clipitem id="MVI_0969 3">
					<name>MVI_0969</name>
					<duration>14777</duration>
					<rate>
						<ntsc>TRUE</ntsc>
						<timebase>24</timebase>
					</rate>
					<in>0</in>
					<out>14777</out>
					<start>15802</start>
					<end>30579</end>
					<masterclipid>MVI_0969 1</masterclipid>
					<logginginfo>
						<scene/>
						<shottake/>
						<lognote/>
						<good>FALSE</good>
					</logginginfo>
					<labels>
						<label2/>
					</labels>
					<comments>
						<mastercomment1/>
						<mastercomment2/>
						<mastercomment3/>
						<mastercomment4/>
					</comments>
					<file id="MVI_0969 2"/>
					<marker>
						<name>Craig Venter</name>
						<comment>How does computer code translate to the code of life and synthetic biology? &#13;synthetic biology,&#13;Life,&#13;metaphors,&#13;life and code,&#13;</comment>
						<color>
							<alpha>0</alpha>
							<red>255</red>
							<green>0</green>
							<blue>0</blue>
						</color>
						<in>939</in>
						<out>1508</out>
					</marker>
					<marker>
						<name>Birth of processing</name>
						<comment>What was the impetus behind Processing?&#13;&#13;processing,&#13;tools,&#13;education,&#13;teaching,&#13;IDE,&#13;accessibility,&#13;learning,&#13;software&#13;</comment>
						<color>
							<alpha>0</alpha>
							<red>255</red>
							<green>0</green>
							<blue>0</blue>
						</color>
						<in>1948</in>
						<out>3520</out>
					</marker>
					<marker>
						<name>Design by numbers to processing</name>
						<comment>What was the impetus behind Processing?&#13;processing,&#13;tools,&#13;education,&#13;visual language,&#13;visual thinking,&#13;</comment>
						<color>
							<alpha>0</alpha>
							<red>255</red>
							<green>0</green>
							<blue>0</blue>
						</color>
						<in>3528</in>
						<out>4265</out>
					</marker>
					<marker>
						<name>Infrastructures should be open</name>
						<comment>Why make software open source?&#13;&#13;processing,&#13;tools,&#13;education,&#13;open source,&#13;sharing,&#13;extensibility,&#13;community</comment>
						<color>
							<alpha>0</alpha>
							<red>255</red>
							<green>0</green>
							<blue>0</blue>
						</color>
						<in>4398</in>
						<out>5820</out>
					</marker>
					<marker>
						<name>pushing software beyond</name>
						<comment>What surprised you most, that people contributed?&#13;processing,&#13;community,&#13;</comment>
						<color>
							<alpha>0</alpha>
							<red>255</red>
							<green>0</green>
							<blue>0</blue>
						</color>
						<in>5952</in>
						<out>6224</out>
					</marker>
					<marker>
						<name>group teaching</name>
						<comment>What surprised you most, that people contributed?&#13;processing,&#13;community,&#13;teaching,&#13;forums,&#13;sharing,&#13;&#13;</comment>
						<color>
							<alpha>0</alpha>
							<red>255</red>
							<green>0</green>
							<blue>0</blue>
						</color>
						<in>6224</in>
						<out>6610</out>
					</marker>
					<marker>
						<name>People would pop up</name>
						<comment>What surprised you the most that people contributed?,&#13;processing,&#13;community,&#13;Robert Hodgin,</comment>
						<color>
							<alpha>0</alpha>
							<red>255</red>
							<green>0</green>
							<blue>0</blue>
						</color>
						<in>6610</in>
						<out>6897</out>
					</marker>
					<marker>
						<name>Style diffuses </name>
						<comment>How do you feel about seeing your style and code influence other artists who borrow heavily?&#13;&#13;processing,&#13;style, &#13;influence, &#13;homogeneity,&#13;visual culture</comment>
						<color>
							<alpha>0</alpha>
							<red>255</red>
							<green>0</green>
							<blue>0</blue>
						</color>
						<in>7696</in>
						<out>8247</out>
					</marker>
					<marker>
						<name>Casey</name>
						<comment>chance,&#13;randomness,&#13;algorithm</comment>
						<color>
							<alpha>0</alpha>
							<red>255</red>
							<green>0</green>
							<blue>0</blue>
						</color>
						<in>9468</in>
						<out>11148</out>
					</marker>
					<marker>
						<name>randomness</name>
						<comment>What are the different kinds of randomness?,&#13;&#13;chance&#13;randomness&#13;random&#13;algorithm&#13;numerology&#13;number&#13;math&#13;probability</comment>
						<color>
							<alpha>0</alpha>
							<red>255</red>
							<green>0</green>
							<blue>0</blue>
						</color>
						<in>12088</in>
						<out>13803</out>
					</marker>
					<filter>
						<effect>
							<name>Audio Levels</name>
							<effectid>audiolevels</effectid>
							<effectcategory>audiolevels</effectcategory>
							<effecttype>audiolevels</effecttype>
							<mediatype>audio</mediatype>
							<parameter>
								<name>Level</name>
								<parameterid>level</parameterid>
								<valuemin>0</valuemin>
								<valuemax>3.98109</valuemax>
								<value>1</value>
							</parameter>
						</effect>
					</filter>
					<filter>
						<effect>
							<name>Audio Pan</name>
							<effectid>audiopan</effectid>
							<effectcategory>audiopan</effectcategory>
							<effecttype>audiopan</effecttype>
							<mediatype>audio</mediatype>
							<parameter>
								<name>Pan</name>
								<parameterid>pan</parameterid>
								<valuemin>-1</valuemin>
								<valuemax>1</valuemax>
								<value>-1</value>
							</parameter>
						</effect>
					</filter>
					<sourcetrack>
						<mediatype>audio</mediatype>
						<trackindex>1</trackindex>
					</sourcetrack>
					<link>
						<linkclipref>MVI_0969 </linkclipref>
						<mediatype>video</mediatype>
						<trackindex>1</trackindex>
						<clipindex>2</clipindex>
					</link>
					<link>
						<linkclipref>MVI_0969 3</linkclipref>
						<mediatype>audio</mediatype>
						<trackindex>1</trackindex>
						<clipindex>2</clipindex>
						<groupindex>1</groupindex>
					</link>
					<link>
						<linkclipref>MVI_0969 4</linkclipref>
						<mediatype>audio</mediatype>
						<trackindex>2</trackindex>
						<clipindex>2</clipindex>
						<groupindex>1</groupindex>
					</link>
					<itemhistory>
						<uuid>C861B1EE-C0D9-49DA-8A52-DE2E1D145BDC</uuid>
					</itemhistory>
				</clipitem>
				<clipitem id="MVI_0970 3">
					<name>MVI_0970</name>
					<duration>13869</duration>
					<rate>
						<ntsc>TRUE</ntsc>
						<timebase>24</timebase>
					</rate>
					<in>0</in>
					<out>3728</out>
					<start>30579</start>
					<end>34307</end>
					<masterclipid>MVI_0970 1</masterclipid>
					<logginginfo>
						<scene/>
						<shottake/>
						<lognote/>
						<good>FALSE</good>
					</logginginfo>
					<labels>
						<label2/>
					</labels>
					<comments>
						<mastercomment1/>
						<mastercomment2/>
						<mastercomment3/>
						<mastercomment4/>
					</comments>
					<file id="MVI_0970 2"/>
					<marker>
						<name>Software is what i love the most</name>
						<comment>Code and the real world were once separate. The membrane between physical and digital has opened up. How has that changed your work?&#13;software as a medium,&#13;self-knowledge,&#13;choosing</comment>
						<color>
							<alpha>0</alpha>
							<red>255</red>
							<green>0</green>
							<blue>0</blue>
						</color>
						<in>853</in>
						<out>1359</out>
					</marker>
					<marker>
						<name>teaching at UCLA</name>
						<comment>Code and the real world were once separate. The membrane between physical and digital has opened up. How has that changed your work?&#13;digital-physical,&#13;being digital,&#13;digital natives,&#13;craft,&#13;making things,&#13;objects,&#13;</comment>
						<color>
							<alpha>0</alpha>
							<red>255</red>
							<green>0</green>
							<blue>0</blue>
						</color>
						<in>1500</in>
						<out>2025</out>
					</marker>
					<marker>
						<name>Clumsy</name>
						<comment>Code and the real world were once separate. The membrane between physical and digital has opened up. How has that changed your work?&#13;digital-physical,&#13;being digital,&#13;digital natives,&#13;craft,&#13;making things,&#13;objects,&#13;link: Nervous Jessica "can't draw"&#13;</comment>
						<color>
							<alpha>0</alpha>
							<red>255</red>
							<green>0</green>
							<blue>0</blue>
						</color>
						<in>1699</in>
						<out>-1</out>
					</marker>
					<marker>
						<name>branching off branching</name>
						<comment>How would you visualize your own data?&#13;&#13;experimentation,&#13;mind and hand,&#13;intuition,&#13;heuristics,&#13;branching,&#13;trees,&#13;experiential,&#13;art and experience,</comment>
						<color>
							<alpha>0</alpha>
							<red>255</red>
							<green>0</green>
							<blue>0</blue>
						</color>
						<in>3741</in>
						<out>4625</out>
					</marker>
					<marker>
						<name>Ideally it goes beyond my imagination</name>
						<comment>How would you visualize your own data?&#13;experimentation,&#13;mind and hand,&#13;intuition,&#13;heuristics,&#13;branching,&#13;art and experience,&#13;surprise,&#13;imagination,</comment>
						<color>
							<alpha>0</alpha>
							<red>255</red>
							<green>0</green>
							<blue>0</blue>
						</color>
						<in>5251</in>
						<out>5399</out>
					</marker>
					<marker>
						<name>Tree of Life</name>
						<comment>The line between cinema and generative art -- how can abstraction spill into narrative -- how can interactive art inform the way we tell stories?&#13;&#13;Tree of life,&#13;branches,&#13;story,&#13;narrative,&#13;emotion,&#13;abstraction,&#13;openness,&#13;cinema,&#13;games,&#13;visual storytelling,   &#13; &#13;&#13;&#13;</comment>
						<color>
							<alpha>0</alpha>
							<red>255</red>
							<green>0</green>
							<blue>0</blue>
						</color>
						<in>6685</in>
						<out>8168</out>
					</marker>
					<marker>
						<name>It's not cinema not a game</name>
						<comment>The line between cinema and generative art -- how can abstraction spill into narrative -- how can interactive art inform the way we tell stories?&#13;&#13;&#13;narrative,&#13;cinema,&#13;games,&#13;visual storytelling,   &#13; &#13;&#13;&#13;</comment>
						<color>
							<alpha>0</alpha>
							<red>255</red>
							<green>0</green>
							<blue>0</blue>
						</color>
						<in>8422</in>
						<out>9607</out>
					</marker>
					<marker>
						<name>New modes of expression</name>
						<comment>What is the story?&#13;communication,&#13;abstraction&#13;new modes of expression,&#13;demonstration,&#13;non-verbal communication,&#13;&#13; &#13;&#13;&#13;</comment>
						<color>
							<alpha>0</alpha>
							<red>255</red>
							<green>0</green>
							<blue>0</blue>
						</color>
						<in>10430</in>
						<out>11052</out>
					</marker>
					<marker>
						<name>Indie Game movement</name>
						<comment>What is the story?&#13;&#13;games,&#13;indie games,&#13;&#13;mainstreaming of experimental art,&#13;&#13;emerging media,&#13;  &#13; &#13;&#13;&#13;</comment>
						<color>
							<alpha>0</alpha>
							<red>255</red>
							<green>0</green>
							<blue>0</blue>
						</color>
						<in>11295</in>
						<out>12144</out>
					</marker>
					<filter>
						<effect>
							<name>Audio Levels</name>
							<effectid>audiolevels</effectid>
							<effectcategory>audiolevels</effectcategory>
							<effecttype>audiolevels</effecttype>
							<mediatype>audio</mediatype>
							<parameter>
								<name>Level</name>
								<parameterid>level</parameterid>
								<valuemin>0</valuemin>
								<valuemax>3.98109</valuemax>
								<value>1</value>
							</parameter>
						</effect>
					</filter>
					<filter>
						<effect>
							<name>Audio Pan</name>
							<effectid>audiopan</effectid>
							<effectcategory>audiopan</effectcategory>
							<effecttype>audiopan</effecttype>
							<mediatype>audio</mediatype>
							<parameter>
								<name>Pan</name>
								<parameterid>pan</parameterid>
								<valuemin>-1</valuemin>
								<valuemax>1</valuemax>
								<value>-1</value>
							</parameter>
						</effect>
					</filter>
					<sourcetrack>
						<mediatype>audio</mediatype>
						<trackindex>1</trackindex>
					</sourcetrack>
					<link>
						<linkclipref>MVI_0970 </linkclipref>
						<mediatype>video</mediatype>
						<trackindex>1</trackindex>
						<clipindex>3</clipindex>
					</link>
					<link>
						<linkclipref>MVI_0970 3</linkclipref>
						<mediatype>audio</mediatype>
						<trackindex>1</trackindex>
						<clipindex>3</clipindex>
						<groupindex>1</groupindex>
					</link>
					<link>
						<linkclipref>MVI_0970 4</linkclipref>
						<mediatype>audio</mediatype>
						<trackindex>2</trackindex>
						<clipindex>3</clipindex>
						<groupindex>1</groupindex>
					</link>
					<itemhistory>
						<uuid>05BBDD3C-26C9-4C12-AF88-2759B49C54CB</uuid>
						<uuid>0148AB40-35B8-4E4D-8B01-B993F272618F</uuid>
					</itemhistory>
				</clipitem>
				<clipitem id="MVI_0970 6">
					<name>MVI_0970</name>
					<duration>13869</duration>
					<rate>
						<ntsc>TRUE</ntsc>
						<timebase>24</timebase>
					</rate>
					<in>3728</in>
					<out>4642</out>
					<start>34307</start>
					<end>35221</end>
					<masterclipid>MVI_0970 1</masterclipid>
					<logginginfo>
						<scene/>
						<shottake/>
						<lognote/>
						<good>FALSE</good>
					</logginginfo>
					<labels>
						<label2/>
					</labels>
					<comments>
						<mastercomment1/>
						<mastercomment2/>
						<mastercomment3/>
						<mastercomment4/>
					</comments>
					<file id="MVI_0970 2"/>
					<marker>
						<name>Software is what i love the most</name>
						<comment>Code and the real world were once separate. The membrane between physical and digital has opened up. How has that changed your work?&#13;software as a medium,&#13;self-knowledge,&#13;choosing</comment>
						<color>
							<alpha>0</alpha>
							<red>255</red>
							<green>0</green>
							<blue>0</blue>
						</color>
						<in>853</in>
						<out>1359</out>
					</marker>
					<marker>
						<name>teaching at UCLA</name>
						<comment>Code and the real world were once separate. The membrane between physical and digital has opened up. How has that changed your work?&#13;digital-physical,&#13;being digital,&#13;digital natives,&#13;craft,&#13;making things,&#13;objects,&#13;</comment>
						<color>
							<alpha>0</alpha>
							<red>255</red>
							<green>0</green>
							<blue>0</blue>
						</color>
						<in>1500</in>
						<out>2025</out>
					</marker>
					<marker>
						<name>Clumsy</name>
						<comment>Code and the real world were once separate. The membrane between physical and digital has opened up. How has that changed your work?&#13;digital-physical,&#13;being digital,&#13;digital natives,&#13;craft,&#13;making things,&#13;objects,&#13;link: Nervous Jessica "can't draw"&#13;</comment>
						<color>
							<alpha>0</alpha>
							<red>255</red>
							<green>0</green>
							<blue>0</blue>
						</color>
						<in>1699</in>
						<out>-1</out>
					</marker>
					<marker>
						<name>branching off branching</name>
						<comment>How would you visualize your own data?&#13;&#13;experimentation,&#13;mind and hand,&#13;intuition,&#13;heuristics,&#13;branching,&#13;trees,&#13;experiential,&#13;art and experience,</comment>
						<color>
							<alpha>0</alpha>
							<red>255</red>
							<green>0</green>
							<blue>0</blue>
						</color>
						<in>3741</in>
						<out>4625</out>
					</marker>
					<marker>
						<name>Ideally it goes beyond my imagination</name>
						<comment>How would you visualize your own data?&#13;experimentation,&#13;mind and hand,&#13;intuition,&#13;heuristics,&#13;branching,&#13;art and experience,&#13;surprise,&#13;imagination,</comment>
						<color>
							<alpha>0</alpha>
							<red>255</red>
							<green>0</green>
							<blue>0</blue>
						</color>
						<in>5251</in>
						<out>5399</out>
					</marker>
					<marker>
						<name>Tree of Life</name>
						<comment>The line between cinema and generative art -- how can abstraction spill into narrative -- how can interactive art inform the way we tell stories?&#13;&#13;Tree of life,&#13;branches,&#13;story,&#13;narrative,&#13;emotion,&#13;abstraction,&#13;openness,&#13;cinema,&#13;games,&#13;visual storytelling,   &#13; &#13;&#13;&#13;</comment>
						<color>
							<alpha>0</alpha>
							<red>255</red>
							<green>0</green>
							<blue>0</blue>
						</color>
						<in>6685</in>
						<out>8168</out>
					</marker>
					<marker>
						<name>It's not cinema not a game</name>
						<comment>The line between cinema and generative art -- how can abstraction spill into narrative -- how can interactive art inform the way we tell stories?&#13;&#13;&#13;narrative,&#13;cinema,&#13;games,&#13;visual storytelling,   &#13; &#13;&#13;&#13;</comment>
						<color>
							<alpha>0</alpha>
							<red>255</red>
							<green>0</green>
							<blue>0</blue>
						</color>
						<in>8422</in>
						<out>9607</out>
					</marker>
					<marker>
						<name>New modes of expression</name>
						<comment>What is the story?&#13;communication,&#13;abstraction&#13;new modes of expression,&#13;demonstration,&#13;non-verbal communication,&#13;&#13; &#13;&#13;&#13;</comment>
						<color>
							<alpha>0</alpha>
							<red>255</red>
							<green>0</green>
							<blue>0</blue>
						</color>
						<in>10430</in>
						<out>11052</out>
					</marker>
					<marker>
						<name>Indie Game movement</name>
						<comment>What is the story?&#13;&#13;games,&#13;indie games,&#13;&#13;mainstreaming of experimental art,&#13;&#13;emerging media,&#13;  &#13; &#13;&#13;&#13;</comment>
						<color>
							<alpha>0</alpha>
							<red>255</red>
							<green>0</green>
							<blue>0</blue>
						</color>
						<in>11295</in>
						<out>12144</out>
					</marker>
					<filter>
						<effect>
							<name>Audio Levels</name>
							<effectid>audiolevels</effectid>
							<effectcategory>audiolevels</effectcategory>
							<effecttype>audiolevels</effecttype>
							<mediatype>audio</mediatype>
							<parameter>
								<name>Level</name>
								<parameterid>level</parameterid>
								<valuemin>0</valuemin>
								<valuemax>3.98109</valuemax>
								<value>1</value>
							</parameter>
						</effect>
					</filter>
					<filter>
						<effect>
							<name>Audio Pan</name>
							<effectid>audiopan</effectid>
							<effectcategory>audiopan</effectcategory>
							<effecttype>audiopan</effecttype>
							<mediatype>audio</mediatype>
							<parameter>
								<name>Pan</name>
								<parameterid>pan</parameterid>
								<valuemin>-1</valuemin>
								<valuemax>1</valuemax>
								<value>-1</value>
							</parameter>
						</effect>
					</filter>
					<sourcetrack>
						<mediatype>audio</mediatype>
						<trackindex>1</trackindex>
					</sourcetrack>
					<link>
						<linkclipref>MVI_0970 5</linkclipref>
						<mediatype>video</mediatype>
						<trackindex>1</trackindex>
						<clipindex>4</clipindex>
					</link>
					<link>
						<linkclipref>MVI_0970 6</linkclipref>
						<mediatype>audio</mediatype>
						<trackindex>1</trackindex>
						<clipindex>4</clipindex>
						<groupindex>1</groupindex>
					</link>
					<link>
						<linkclipref>MVI_0970 7</linkclipref>
						<mediatype>audio</mediatype>
						<trackindex>2</trackindex>
						<clipindex>4</clipindex>
						<groupindex>1</groupindex>
					</link>
					<itemhistory>
						<uuid>0D04A080-1175-4E94-81A9-1C567D06F991</uuid>
						<uuid>0148AB40-35B8-4E4D-8B01-B993F272618F</uuid>
					</itemhistory>
				</clipitem>
				<clipitem id="MVI_0970 9">
					<name>MVI_0970</name>
					<duration>13869</duration>
					<rate>
						<ntsc>TRUE</ntsc>
						<timebase>24</timebase>
					</rate>
					<in>4642</in>
					<out>5251</out>
					<start>35221</start>
					<end>35830</end>
					<masterclipid>MVI_0970 1</masterclipid>
					<logginginfo>
						<scene/>
						<shottake/>
						<lognote/>
						<good>FALSE</good>
					</logginginfo>
					<labels>
						<label2/>
					</labels>
					<comments>
						<mastercomment1/>
						<mastercomment2/>
						<mastercomment3/>
						<mastercomment4/>
					</comments>
					<file id="MVI_0970 2"/>
					<marker>
						<name>Software is what i love the most</name>
						<comment>Code and the real world were once separate. The membrane between physical and digital has opened up. How has that changed your work?&#13;software as a medium,&#13;self-knowledge,&#13;choosing</comment>
						<color>
							<alpha>0</alpha>
							<red>255</red>
							<green>0</green>
							<blue>0</blue>
						</color>
						<in>853</in>
						<out>1359</out>
					</marker>
					<marker>
						<name>teaching at UCLA</name>
						<comment>Code and the real world were once separate. The membrane between physical and digital has opened up. How has that changed your work?&#13;digital-physical,&#13;being digital,&#13;digital natives,&#13;craft,&#13;making things,&#13;objects,&#13;</comment>
						<color>
							<alpha>0</alpha>
							<red>255</red>
							<green>0</green>
							<blue>0</blue>
						</color>
						<in>1500</in>
						<out>2025</out>
					</marker>
					<marker>
						<name>Clumsy</name>
						<comment>Code and the real world were once separate. The membrane between physical and digital has opened up. How has that changed your work?&#13;digital-physical,&#13;being digital,&#13;digital natives,&#13;craft,&#13;making things,&#13;objects,&#13;link: Nervous Jessica "can't draw"&#13;</comment>
						<color>
							<alpha>0</alpha>
							<red>255</red>
							<green>0</green>
							<blue>0</blue>
						</color>
						<in>1699</in>
						<out>-1</out>
					</marker>
					<marker>
						<name>branching off branching</name>
						<comment>How would you visualize your own data?&#13;&#13;experimentation,&#13;mind and hand,&#13;intuition,&#13;heuristics,&#13;branching,&#13;trees,&#13;experiential,&#13;art and experience,</comment>
						<color>
							<alpha>0</alpha>
							<red>255</red>
							<green>0</green>
							<blue>0</blue>
						</color>
						<in>3741</in>
						<out>4625</out>
					</marker>
					<marker>
						<name>Ideally it goes beyond my imagination</name>
						<comment>How would you visualize your own data?&#13;experimentation,&#13;mind and hand,&#13;intuition,&#13;heuristics,&#13;branching,&#13;art and experience,&#13;surprise,&#13;imagination,</comment>
						<color>
							<alpha>0</alpha>
							<red>255</red>
							<green>0</green>
							<blue>0</blue>
						</color>
						<in>5251</in>
						<out>5399</out>
					</marker>
					<marker>
						<name>Tree of Life</name>
						<comment>The line between cinema and generative art -- how can abstraction spill into narrative -- how can interactive art inform the way we tell stories?&#13;&#13;Tree of life,&#13;branches,&#13;story,&#13;narrative,&#13;emotion,&#13;abstraction,&#13;openness,&#13;cinema,&#13;games,&#13;visual storytelling,   &#13; &#13;&#13;&#13;</comment>
						<color>
							<alpha>0</alpha>
							<red>255</red>
							<green>0</green>
							<blue>0</blue>
						</color>
						<in>6685</in>
						<out>8168</out>
					</marker>
					<marker>
						<name>It's not cinema not a game</name>
						<comment>The line between cinema and generative art -- how can abstraction spill into narrative -- how can interactive art inform the way we tell stories?&#13;&#13;&#13;narrative,&#13;cinema,&#13;games,&#13;visual storytelling,   &#13; &#13;&#13;&#13;</comment>
						<color>
							<alpha>0</alpha>
							<red>255</red>
							<green>0</green>
							<blue>0</blue>
						</color>
						<in>8422</in>
						<out>9607</out>
					</marker>
					<marker>
						<name>New modes of expression</name>
						<comment>What is the story?&#13;communication,&#13;abstraction&#13;new modes of expression,&#13;demonstration,&#13;non-verbal communication,&#13;&#13; &#13;&#13;&#13;</comment>
						<color>
							<alpha>0</alpha>
							<red>255</red>
							<green>0</green>
							<blue>0</blue>
						</color>
						<in>10430</in>
						<out>11052</out>
					</marker>
					<marker>
						<name>Indie Game movement</name>
						<comment>What is the story?&#13;&#13;games,&#13;indie games,&#13;&#13;mainstreaming of experimental art,&#13;&#13;emerging media,&#13;  &#13; &#13;&#13;&#13;</comment>
						<color>
							<alpha>0</alpha>
							<red>255</red>
							<green>0</green>
							<blue>0</blue>
						</color>
						<in>11295</in>
						<out>12144</out>
					</marker>
					<filter>
						<effect>
							<name>Audio Levels</name>
							<effectid>audiolevels</effectid>
							<effectcategory>audiolevels</effectcategory>
							<effecttype>audiolevels</effecttype>
							<mediatype>audio</mediatype>
							<parameter>
								<name>Level</name>
								<parameterid>level</parameterid>
								<valuemin>0</valuemin>
								<valuemax>3.98109</valuemax>
								<value>1</value>
							</parameter>
						</effect>
					</filter>
					<filter>
						<effect>
							<name>Audio Pan</name>
							<effectid>audiopan</effectid>
							<effectcategory>audiopan</effectcategory>
							<effecttype>audiopan</effecttype>
							<mediatype>audio</mediatype>
							<parameter>
								<name>Pan</name>
								<parameterid>pan</parameterid>
								<valuemin>-1</valuemin>
								<valuemax>1</valuemax>
								<value>-1</value>
							</parameter>
						</effect>
					</filter>
					<sourcetrack>
						<mediatype>audio</mediatype>
						<trackindex>1</trackindex>
					</sourcetrack>
					<link>
						<linkclipref>MVI_0970 8</linkclipref>
						<mediatype>video</mediatype>
						<trackindex>1</trackindex>
						<clipindex>5</clipindex>
					</link>
					<link>
						<linkclipref>MVI_0970 9</linkclipref>
						<mediatype>audio</mediatype>
						<trackindex>1</trackindex>
						<clipindex>5</clipindex>
						<groupindex>1</groupindex>
					</link>
					<link>
						<linkclipref>MVI_0970 10</linkclipref>
						<mediatype>audio</mediatype>
						<trackindex>2</trackindex>
						<clipindex>5</clipindex>
						<groupindex>1</groupindex>
					</link>
					<itemhistory>
						<uuid>16334682-2B38-4985-8175-2DACEC593948</uuid>
						<uuid>86C214DD-1CD3-400D-9D3F-29BAA923B13A</uuid>
						<uuid>0148AB40-35B8-4E4D-8B01-B993F272618F</uuid>
					</itemhistory>
				</clipitem>
				<clipitem id="MVI_0970 14">
					<name>MVI_0970</name>
					<duration>13869</duration>
					<rate>
						<ntsc>TRUE</ntsc>
						<timebase>24</timebase>
					</rate>
					<in>5251</in>
					<out>5399</out>
					<start>35830</start>
					<end>35978</end>
					<masterclipid>MVI_0970 1</masterclipid>
					<logginginfo>
						<scene/>
						<shottake/>
						<lognote/>
						<good>FALSE</good>
					</logginginfo>
					<labels>
						<label2/>
					</labels>
					<comments>
						<mastercomment1/>
						<mastercomment2/>
						<mastercomment3/>
						<mastercomment4/>
					</comments>
					<file id="MVI_0970 2"/>
					<marker>
						<name>Software is what i love the most</name>
						<comment>Code and the real world were once separate. The membrane between physical and digital has opened up. How has that changed your work?&#13;software as a medium,&#13;self-knowledge,&#13;choosing</comment>
						<color>
							<alpha>0</alpha>
							<red>255</red>
							<green>0</green>
							<blue>0</blue>
						</color>
						<in>853</in>
						<out>1359</out>
					</marker>
					<marker>
						<name>teaching at UCLA</name>
						<comment>Code and the real world were once separate. The membrane between physical and digital has opened up. How has that changed your work?&#13;digital-physical,&#13;being digital,&#13;digital natives,&#13;craft,&#13;making things,&#13;objects,&#13;</comment>
						<color>
							<alpha>0</alpha>
							<red>255</red>
							<green>0</green>
							<blue>0</blue>
						</color>
						<in>1500</in>
						<out>2025</out>
					</marker>
					<marker>
						<name>Clumsy</name>
						<comment>Code and the real world were once separate. The membrane between physical and digital has opened up. How has that changed your work?&#13;digital-physical,&#13;being digital,&#13;digital natives,&#13;craft,&#13;making things,&#13;objects,&#13;link: Nervous Jessica "can't draw"&#13;</comment>
						<color>
							<alpha>0</alpha>
							<red>255</red>
							<green>0</green>
							<blue>0</blue>
						</color>
						<in>1699</in>
						<out>-1</out>
					</marker>
					<marker>
						<name>branching off branching</name>
						<comment>How would you visualize your own data?&#13;&#13;experimentation,&#13;mind and hand,&#13;intuition,&#13;heuristics,&#13;branching,&#13;trees,&#13;experiential,&#13;art and experience,</comment>
						<color>
							<alpha>0</alpha>
							<red>255</red>
							<green>0</green>
							<blue>0</blue>
						</color>
						<in>3741</in>
						<out>4625</out>
					</marker>
					<marker>
						<name>Ideally it goes beyond my imagination</name>
						<comment>How would you visualize your own data?&#13;experimentation,&#13;mind and hand,&#13;intuition,&#13;heuristics,&#13;branching,&#13;art and experience,&#13;surprise,&#13;imagination,</comment>
						<color>
							<alpha>0</alpha>
							<red>255</red>
							<green>0</green>
							<blue>0</blue>
						</color>
						<in>5251</in>
						<out>5399</out>
					</marker>
					<marker>
						<name>Tree of Life</name>
						<comment>The line between cinema and generative art -- how can abstraction spill into narrative -- how can interactive art inform the way we tell stories?&#13;&#13;Tree of life,&#13;branches,&#13;story,&#13;narrative,&#13;emotion,&#13;abstraction,&#13;openness,&#13;cinema,&#13;games,&#13;visual storytelling,   &#13; &#13;&#13;&#13;</comment>
						<color>
							<alpha>0</alpha>
							<red>255</red>
							<green>0</green>
							<blue>0</blue>
						</color>
						<in>6685</in>
						<out>8168</out>
					</marker>
					<marker>
						<name>It's not cinema not a game</name>
						<comment>The line between cinema and generative art -- how can abstraction spill into narrative -- how can interactive art inform the way we tell stories?&#13;&#13;&#13;narrative,&#13;cinema,&#13;games,&#13;visual storytelling,   &#13; &#13;&#13;&#13;</comment>
						<color>
							<alpha>0</alpha>
							<red>255</red>
							<green>0</green>
							<blue>0</blue>
						</color>
						<in>8422</in>
						<out>9607</out>
					</marker>
					<marker>
						<name>New modes of expression</name>
						<comment>What is the story?&#13;communication,&#13;abstraction&#13;new modes of expression,&#13;demonstration,&#13;non-verbal communication,&#13;&#13; &#13;&#13;&#13;</comment>
						<color>
							<alpha>0</alpha>
							<red>255</red>
							<green>0</green>
							<blue>0</blue>
						</color>
						<in>10430</in>
						<out>11052</out>
					</marker>
					<marker>
						<name>Indie Game movement</name>
						<comment>What is the story?&#13;&#13;games,&#13;indie games,&#13;&#13;mainstreaming of experimental art,&#13;&#13;emerging media,&#13;  &#13; &#13;&#13;&#13;</comment>
						<color>
							<alpha>0</alpha>
							<red>255</red>
							<green>0</green>
							<blue>0</blue>
						</color>
						<in>11295</in>
						<out>12144</out>
					</marker>
					<filter>
						<effect>
							<name>Audio Levels</name>
							<effectid>audiolevels</effectid>
							<effectcategory>audiolevels</effectcategory>
							<effecttype>audiolevels</effecttype>
							<mediatype>audio</mediatype>
							<parameter>
								<name>Level</name>
								<parameterid>level</parameterid>
								<valuemin>0</valuemin>
								<valuemax>3.98109</valuemax>
								<value>1</value>
							</parameter>
						</effect>
					</filter>
					<filter>
						<effect>
							<name>Audio Pan</name>
							<effectid>audiopan</effectid>
							<effectcategory>audiopan</effectcategory>
							<effecttype>audiopan</effecttype>
							<mediatype>audio</mediatype>
							<parameter>
								<name>Pan</name>
								<parameterid>pan</parameterid>
								<valuemin>-1</valuemin>
								<valuemax>1</valuemax>
								<value>-1</value>
							</parameter>
						</effect>
					</filter>
					<sourcetrack>
						<mediatype>audio</mediatype>
						<trackindex>1</trackindex>
					</sourcetrack>
					<link>
						<linkclipref>MVI_0970 14</linkclipref>
						<mediatype>audio</mediatype>
						<trackindex>1</trackindex>
						<clipindex>6</clipindex>
						<groupindex>1</groupindex>
					</link>
					<link>
						<linkclipref>MVI_0970 15</linkclipref>
						<mediatype>audio</mediatype>
						<trackindex>2</trackindex>
						<clipindex>6</clipindex>
						<groupindex>1</groupindex>
					</link>
					<itemhistory>
						<uuid>1EB34C0F-80AD-4B88-882C-074C7EC10103</uuid>
						<uuid>86C214DD-1CD3-400D-9D3F-29BAA923B13A</uuid>
						<uuid>0148AB40-35B8-4E4D-8B01-B993F272618F</uuid>
					</itemhistory>
				</clipitem>
				<clipitem id="MVI_0970 16">
					<name>MVI_0970</name>
					<duration>13869</duration>
					<rate>
						<ntsc>TRUE</ntsc>
						<timebase>24</timebase>
					</rate>
					<in>5399</in>
					<out>13869</out>
					<start>35978</start>
					<end>44448</end>
					<masterclipid>MVI_0970 1</masterclipid>
					<logginginfo>
						<scene/>
						<shottake/>
						<lognote/>
						<good>FALSE</good>
					</logginginfo>
					<labels>
						<label2/>
					</labels>
					<comments>
						<mastercomment1/>
						<mastercomment2/>
						<mastercomment3/>
						<mastercomment4/>
					</comments>
					<file id="MVI_0970 2"/>
					<marker>
						<name>Software is what i love the most</name>
						<comment>Code and the real world were once separate. The membrane between physical and digital has opened up. How has that changed your work?&#13;software as a medium,&#13;self-knowledge,&#13;choosing</comment>
						<color>
							<alpha>0</alpha>
							<red>255</red>
							<green>0</green>
							<blue>0</blue>
						</color>
						<in>853</in>
						<out>1359</out>
					</marker>
					<marker>
						<name>teaching at UCLA</name>
						<comment>Code and the real world were once separate. The membrane between physical and digital has opened up. How has that changed your work?&#13;digital-physical,&#13;being digital,&#13;digital natives,&#13;craft,&#13;making things,&#13;objects,&#13;</comment>
						<color>
							<alpha>0</alpha>
							<red>255</red>
							<green>0</green>
							<blue>0</blue>
						</color>
						<in>1500</in>
						<out>2025</out>
					</marker>
					<marker>
						<name>Clumsy</name>
						<comment>Code and the real world were once separate. The membrane between physical and digital has opened up. How has that changed your work?&#13;digital-physical,&#13;being digital,&#13;digital natives,&#13;craft,&#13;making things,&#13;objects,&#13;link: Nervous Jessica "can't draw"&#13;</comment>
						<color>
							<alpha>0</alpha>
							<red>255</red>
							<green>0</green>
							<blue>0</blue>
						</color>
						<in>1699</in>
						<out>-1</out>
					</marker>
					<marker>
						<name>branching off branching</name>
						<comment>How would you visualize your own data?&#13;&#13;experimentation,&#13;mind and hand,&#13;intuition,&#13;heuristics,&#13;branching,&#13;trees,&#13;experiential,&#13;art and experience,</comment>
						<color>
							<alpha>0</alpha>
							<red>255</red>
							<green>0</green>
							<blue>0</blue>
						</color>
						<in>3741</in>
						<out>4625</out>
					</marker>
					<marker>
						<name>Ideally it goes beyond my imagination</name>
						<comment>How would you visualize your own data?&#13;experimentation,&#13;mind and hand,&#13;intuition,&#13;heuristics,&#13;branching,&#13;art and experience,&#13;surprise,&#13;imagination,</comment>
						<color>
							<alpha>0</alpha>
							<red>255</red>
							<green>0</green>
							<blue>0</blue>
						</color>
						<in>5251</in>
						<out>5399</out>
					</marker>
					<marker>
						<name>Tree of Life</name>
						<comment>The line between cinema and generative art -- how can abstraction spill into narrative -- how can interactive art inform the way we tell stories?&#13;&#13;Tree of life,&#13;branches,&#13;story,&#13;narrative,&#13;emotion,&#13;abstraction,&#13;openness,&#13;cinema,&#13;games,&#13;visual storytelling,   &#13; &#13;&#13;&#13;</comment>
						<color>
							<alpha>0</alpha>
							<red>255</red>
							<green>0</green>
							<blue>0</blue>
						</color>
						<in>6685</in>
						<out>8168</out>
					</marker>
					<marker>
						<name>It's not cinema not a game</name>
						<comment>The line between cinema and generative art -- how can abstraction spill into narrative -- how can interactive art inform the way we tell stories?&#13;&#13;&#13;narrative,&#13;cinema,&#13;games,&#13;visual storytelling,   &#13; &#13;&#13;&#13;</comment>
						<color>
							<alpha>0</alpha>
							<red>255</red>
							<green>0</green>
							<blue>0</blue>
						</color>
						<in>8422</in>
						<out>9607</out>
					</marker>
					<marker>
						<name>New modes of expression</name>
						<comment>What is the story?&#13;communication,&#13;abstraction&#13;new modes of expression,&#13;demonstration,&#13;non-verbal communication,&#13;&#13; &#13;&#13;&#13;</comment>
						<color>
							<alpha>0</alpha>
							<red>255</red>
							<green>0</green>
							<blue>0</blue>
						</color>
						<in>10430</in>
						<out>11052</out>
					</marker>
					<marker>
						<name>Indie Game movement</name>
						<comment>What is the story?&#13;&#13;games,&#13;indie games,&#13;&#13;mainstreaming of experimental art,&#13;&#13;emerging media,&#13;  &#13; &#13;&#13;&#13;</comment>
						<color>
							<alpha>0</alpha>
							<red>255</red>
							<green>0</green>
							<blue>0</blue>
						</color>
						<in>11295</in>
						<out>12144</out>
					</marker>
					<filter>
						<effect>
							<name>Audio Levels</name>
							<effectid>audiolevels</effectid>
							<effectcategory>audiolevels</effectcategory>
							<effecttype>audiolevels</effecttype>
							<mediatype>audio</mediatype>
							<parameter>
								<name>Level</name>
								<parameterid>level</parameterid>
								<valuemin>0</valuemin>
								<valuemax>3.98109</valuemax>
								<value>1</value>
							</parameter>
						</effect>
					</filter>
					<filter>
						<effect>
							<name>Audio Pan</name>
							<effectid>audiopan</effectid>
							<effectcategory>audiopan</effectcategory>
							<effecttype>audiopan</effecttype>
							<mediatype>audio</mediatype>
							<parameter>
								<name>Pan</name>
								<parameterid>pan</parameterid>
								<valuemin>-1</valuemin>
								<valuemax>1</valuemax>
								<value>-1</value>
							</parameter>
						</effect>
					</filter>
					<sourcetrack>
						<mediatype>audio</mediatype>
						<trackindex>1</trackindex>
					</sourcetrack>
					<link>
						<linkclipref>MVI_0970 16</linkclipref>
						<mediatype>audio</mediatype>
						<trackindex>1</trackindex>
						<clipindex>7</clipindex>
						<groupindex>1</groupindex>
					</link>
					<link>
						<linkclipref>MVI_0970 17</linkclipref>
						<mediatype>audio</mediatype>
						<trackindex>2</trackindex>
						<clipindex>7</clipindex>
						<groupindex>1</groupindex>
					</link>
					<itemhistory>
						<uuid>2153C3BF-BD33-42BC-AACD-0A4327BDC9EB</uuid>
						<uuid>86C214DD-1CD3-400D-9D3F-29BAA923B13A</uuid>
						<uuid>0148AB40-35B8-4E4D-8B01-B993F272618F</uuid>
					</itemhistory>
				</clipitem>
				<clipitem id="MVI_0972 3">
					<name>MVI_0972</name>
					<duration>5086</duration>
					<rate>
						<ntsc>TRUE</ntsc>
						<timebase>24</timebase>
					</rate>
					<in>0</in>
					<out>5086</out>
					<start>44448</start>
					<end>49534</end>
					<masterclipid>MVI_0972 1</masterclipid>
					<logginginfo>
						<scene/>
						<shottake/>
						<lognote/>
						<good>FALSE</good>
					</logginginfo>
					<labels>
						<label2/>
					</labels>
					<comments>
						<mastercomment1/>
						<mastercomment2/>
						<mastercomment3/>
						<mastercomment4/>
					</comments>
					<file id="MVI_0972 2"/>
					<marker>
						<name>Started small</name>
						<comment>What is the story?&#13;&#13;games,&#13;indie games,&#13;&#13;mainstreaming of experimental art,&#13;&#13;emerging media,&#13; growth,&#13;print,&#13;graphics,&#13;design,&#13;&#13;&#13;</comment>
						<color>
							<alpha>0</alpha>
							<red>255</red>
							<green>0</green>
							<blue>0</blue>
						</color>
						<in>374</in>
						<out>1999</out>
					</marker>
					<marker>
						<name>Undiscovered history</name>
						<comment>What's the influence of art history?&#13;&#13;Art history,&#13;Pioneers,&#13;origins of digital art,&#13;precurors,&#13;&#13; &#13;&#13;&#13;</comment>
						<color>
							<alpha>0</alpha>
							<red>255</red>
							<green>0</green>
							<blue>0</blue>
						</color>
						<in>3058</in>
						<out>3765</out>
					</marker>
					<marker>
						<name>art history</name>
						<comment>Wha's the influence of art history?.&#13;Art history,&#13;innovation,&#13;evolution,</comment>
						<color>
							<alpha>0</alpha>
							<red>255</red>
							<green>0</green>
							<blue>0</blue>
						</color>
						<in>3896</in>
						<out>4413</out>
					</marker>
					<marker>
						<name>understanding ideas of art history</name>
						<comment>What's the influence of art history?&#13;&#13;Art history,&#13;abstraction,&#13;emotion,&#13;modernism&#13;&#13;&#13; &#13;&#13;&#13;</comment>
						<color>
							<alpha>0</alpha>
							<red>255</red>
							<green>0</green>
							<blue>0</blue>
						</color>
						<in>4424</in>
						<out>4821</out>
					</marker>
					<filter>
						<effect>
							<name>Audio Levels</name>
							<effectid>audiolevels</effectid>
							<effectcategory>audiolevels</effectcategory>
							<effecttype>audiolevels</effecttype>
							<mediatype>audio</mediatype>
							<parameter>
								<name>Level</name>
								<parameterid>level</parameterid>
								<valuemin>0</valuemin>
								<valuemax>3.98109</valuemax>
								<value>1</value>
							</parameter>
						</effect>
					</filter>
					<filter>
						<effect>
							<name>Audio Pan</name>
							<effectid>audiopan</effectid>
							<effectcategory>audiopan</effectcategory>
							<effecttype>audiopan</effecttype>
							<mediatype>audio</mediatype>
							<parameter>
								<name>Pan</name>
								<parameterid>pan</parameterid>
								<valuemin>-1</valuemin>
								<valuemax>1</valuemax>
								<value>-1</value>
							</parameter>
						</effect>
					</filter>
					<sourcetrack>
						<mediatype>audio</mediatype>
						<trackindex>1</trackindex>
					</sourcetrack>
					<link>
						<linkclipref>MVI_0972 </linkclipref>
						<mediatype>video</mediatype>
						<trackindex>1</trackindex>
						<clipindex>8</clipindex>
					</link>
					<link>
						<linkclipref>MVI_0972 3</linkclipref>
						<mediatype>audio</mediatype>
						<trackindex>1</trackindex>
						<clipindex>8</clipindex>
						<groupindex>1</groupindex>
					</link>
					<link>
						<linkclipref>MVI_0972 4</linkclipref>
						<mediatype>audio</mediatype>
						<trackindex>2</trackindex>
						<clipindex>8</clipindex>
						<groupindex>1</groupindex>
					</link>
					<itemhistory>
						<uuid>7999BDE4-357A-404D-AB60-CC47D72EF3CC</uuid>
					</itemhistory>
				</clipitem>
				<enabled>TRUE</enabled>
				<locked>FALSE</locked>
				<outputchannelindex>1</outputchannelindex>
			</track>
			<track>
				<clipitem id="MVI_0968 4">
					<name>MVI_0968</name>
					<duration>15802</duration>
					<rate>
						<ntsc>TRUE</ntsc>
						<timebase>24</timebase>
					</rate>
					<in>0</in>
					<out>15802</out>
					<start>0</start>
					<end>15802</end>
					<enabled>TRUE</enabled>
					<masterclipid>MVI_0968 1</masterclipid>
					<logginginfo>
						<scene/>
						<shottake/>
						<lognote/>
						<good>FALSE</good>
					</logginginfo>
					<labels>
						<label2/>
					</labels>
					<comments>
						<mastercomment1/>
						<mastercomment2/>
						<mastercomment3/>
						<mastercomment4/>
					</comments>
					<file id="MVI_0968 2"/>
					<marker>
						<name>beginnings</name>
						<comment>beginnings,&#13;design,&#13;john maeda,&#13;media lab,&#13;web,&#13;print,&#13;career,&#13;</comment>
						<color>
							<alpha>0</alpha>
							<red>255</red>
							<green>127</green>
							<blue>0</blue>
						</color>
						<in>2672</in>
						<out>3456</out>
					</marker>
					<marker>
						<name>Processing, what is it?</name>
						<comment>Processing,&#13;toolkit,&#13;process,&#13;</comment>
						<color>
							<alpha>0</alpha>
							<red>255</red>
							<green>0</green>
							<blue>0</blue>
						</color>
						<in>4177</in>
						<out>4583</out>
					</marker>
					<marker>
						<name>Sketching with code</name>
						<comment>art versus engineering,&#13;methodology,&#13;process, &#13;thinking by doing,&#13;design,&#13;thinking and making,</comment>
						<color>
							<alpha>0</alpha>
							<red>255</red>
							<green>0</green>
							<blue>0</blue>
						</color>
						<in>4716</in>
						<out>5160</out>
					</marker>
					<marker>
						<name>tangle</name>
						<comment>code is messy,thinking by doing,thinking with code,exploration,uncertainty</comment>
						<color>
							<alpha>0</alpha>
							<red>255</red>
							<green>0</green>
							<blue>0</blue>
						</color>
						<in>5576</in>
						<out>6379</out>
					</marker>
					<marker>
						<name>Borrowing from culture</name>
						<comment>Where does the creative process begin?&#13;influences,&#13;interdisciplinary,&#13;culture,&#13;</comment>
						<color>
							<alpha>0</alpha>
							<red>255</red>
							<green>0</green>
							<blue>0</blue>
						</color>
						<in>6423</in>
						<out>6859</out>
					</marker>
					<marker>
						<name>Systems theory</name>
						<comment>How do you build serendipity into your systems?&#13;emergence,&#13;artificial life,&#13;complexity,&#13;systems,&#13;</comment>
						<color>
							<alpha>0</alpha>
							<red>255</red>
							<green>0</green>
							<blue>0</blue>
						</color>
						<in>7031</in>
						<out>8092</out>
					</marker>
					<marker>
						<name>emergence</name>
						<comment>What is emergence?,&#13;emergence,&#13;process,&#13;nature,</comment>
						<color>
							<alpha>0</alpha>
							<red>255</red>
							<green>0</green>
							<blue>0</blue>
						</color>
						<in>9430</in>
						<out>10760</out>
					</marker>
					<marker>
						<name>thinking about science</name>
						<comment>How do you think about these systems?,&#13;science,&#13;</comment>
						<color>
							<alpha>0</alpha>
							<red>255</red>
							<green>0</green>
							<blue>0</blue>
						</color>
						<in>11904</in>
						<out>12342</out>
					</marker>
					<marker>
						<name>I try not to be a futurist</name>
						<comment>How does computer code translate to the code of life and synthetic biology? &#13;&#13;Science Fiction,&#13;Futurism,&#13;synthetic biology,&#13;Life,&#13;</comment>
						<color>
							<alpha>0</alpha>
							<red>255</red>
							<green>0</green>
							<blue>0</blue>
						</color>
						<in>13444</in>
						<out>13743</out>
					</marker>
					<marker>
						<name>Understanding the past/insight into the future</name>
						<comment>How does computer code translate to the code of life and synthetic biology? &#13;technological progress,&#13;Futurism</comment>
						<color>
							<alpha>0</alpha>
							<red>255</red>
							<green>0</green>
							<blue>0</blue>
						</color>
						<in>14139</in>
						<out>14668</out>
					</marker>
					<marker>
						<name>synthetic biology</name>
						<comment>How does computer code translate to the code of life and synthetic biology? &#13;&#13;Science Fiction,&#13;Futurism,&#13;synthetic biology,&#13;Life,&#13;</comment>
						<color>
							<alpha>0</alpha>
							<red>255</red>
							<green>0</green>
							<blue>0</blue>
						</color>
						<in>15056</in>
						<out>15624</out>
					</marker>
					<filter>
						<effect>
							<name>Audio Levels</name>
							<effectid>audiolevels</effectid>
							<effectcategory>audiolevels</effectcategory>
							<effecttype>audiolevels</effecttype>
							<mediatype>audio</mediatype>
							<parameter>
								<name>Level</name>
								<parameterid>level</parameterid>
								<valuemin>0</valuemin>
								<valuemax>3.98109</valuemax>
								<value>1</value>
							</parameter>
						</effect>
					</filter>
					<filter>
						<effect>
							<name>Audio Pan</name>
							<effectid>audiopan</effectid>
							<effectcategory>audiopan</effectcategory>
							<effecttype>audiopan</effecttype>
							<mediatype>audio</mediatype>
							<parameter>
								<name>Pan</name>
								<parameterid>pan</parameterid>
								<valuemin>-1</valuemin>
								<valuemax>1</valuemax>
								<value>1</value>
							</parameter>
						</effect>
					</filter>
					<sourcetrack>
						<mediatype>audio</mediatype>
						<trackindex>2</trackindex>
					</sourcetrack>
					<link>
						<linkclipref>MVI_0968 </linkclipref>
						<mediatype>video</mediatype>
						<trackindex>1</trackindex>
						<clipindex>1</clipindex>
					</link>
					<link>
						<linkclipref>MVI_0968 3</linkclipref>
						<mediatype>audio</mediatype>
						<trackindex>1</trackindex>
						<clipindex>1</clipindex>
						<groupindex>1</groupindex>
					</link>
					<link>
						<linkclipref>MVI_0968 4</linkclipref>
						<mediatype>audio</mediatype>
						<trackindex>2</trackindex>
						<clipindex>1</clipindex>
						<groupindex>1</groupindex>
					</link>
					<itemhistory>
						<uuid>869A6D5F-E4D3-4744-B778-CBD63F42EBBD</uuid>
					</itemhistory>
				</clipitem>
				<clipitem id="MVI_0969 4">
					<name>MVI_0969</name>
					<duration>14777</duration>
					<rate>
						<ntsc>TRUE</ntsc>
						<timebase>24</timebase>
					</rate>
					<in>0</in>
					<out>14777</out>
					<start>15802</start>
					<end>30579</end>
					<masterclipid>MVI_0969 1</masterclipid>
					<logginginfo>
						<scene/>
						<shottake/>
						<lognote/>
						<good>FALSE</good>
					</logginginfo>
					<labels>
						<label2/>
					</labels>
					<comments>
						<mastercomment1/>
						<mastercomment2/>
						<mastercomment3/>
						<mastercomment4/>
					</comments>
					<file id="MVI_0969 2"/>
					<marker>
						<name>Craig Venter</name>
						<comment>How does computer code translate to the code of life and synthetic biology? &#13;synthetic biology,&#13;Life,&#13;metaphors,&#13;life and code,&#13;</comment>
						<color>
							<alpha>0</alpha>
							<red>255</red>
							<green>0</green>
							<blue>0</blue>
						</color>
						<in>939</in>
						<out>1508</out>
					</marker>
					<marker>
						<name>Birth of processing</name>
						<comment>What was the impetus behind Processing?&#13;&#13;processing,&#13;tools,&#13;education,&#13;teaching,&#13;IDE,&#13;accessibility,&#13;learning,&#13;software&#13;</comment>
						<color>
							<alpha>0</alpha>
							<red>255</red>
							<green>0</green>
							<blue>0</blue>
						</color>
						<in>1948</in>
						<out>3520</out>
					</marker>
					<marker>
						<name>Design by numbers to processing</name>
						<comment>What was the impetus behind Processing?&#13;processing,&#13;tools,&#13;education,&#13;visual language,&#13;visual thinking,&#13;</comment>
						<color>
							<alpha>0</alpha>
							<red>255</red>
							<green>0</green>
							<blue>0</blue>
						</color>
						<in>3528</in>
						<out>4265</out>
					</marker>
					<marker>
						<name>Infrastructures should be open</name>
						<comment>Why make software open source?&#13;&#13;processing,&#13;tools,&#13;education,&#13;open source,&#13;sharing,&#13;extensibility,&#13;community</comment>
						<color>
							<alpha>0</alpha>
							<red>255</red>
							<green>0</green>
							<blue>0</blue>
						</color>
						<in>4398</in>
						<out>5820</out>
					</marker>
					<marker>
						<name>pushing software beyond</name>
						<comment>What surprised you most, that people contributed?&#13;processing,&#13;community,&#13;</comment>
						<color>
							<alpha>0</alpha>
							<red>255</red>
							<green>0</green>
							<blue>0</blue>
						</color>
						<in>5952</in>
						<out>6224</out>
					</marker>
					<marker>
						<name>group teaching</name>
						<comment>What surprised you most, that people contributed?&#13;processing,&#13;community,&#13;teaching,&#13;forums,&#13;sharing,&#13;&#13;</comment>
						<color>
							<alpha>0</alpha>
							<red>255</red>
							<green>0</green>
							<blue>0</blue>
						</color>
						<in>6224</in>
						<out>6610</out>
					</marker>
					<marker>
						<name>People would pop up</name>
						<comment>What surprised you the most that people contributed?,&#13;processing,&#13;community,&#13;Robert Hodgin,</comment>
						<color>
							<alpha>0</alpha>
							<red>255</red>
							<green>0</green>
							<blue>0</blue>
						</color>
						<in>6610</in>
						<out>6897</out>
					</marker>
					<marker>
						<name>Style diffuses </name>
						<comment>How do you feel about seeing your style and code influence other artists who borrow heavily?&#13;&#13;processing,&#13;style, &#13;influence, &#13;homogeneity,&#13;visual culture</comment>
						<color>
							<alpha>0</alpha>
							<red>255</red>
							<green>0</green>
							<blue>0</blue>
						</color>
						<in>7696</in>
						<out>8247</out>
					</marker>
					<marker>
						<name>Casey</name>
						<comment>chance,&#13;randomness,&#13;algorithm</comment>
						<color>
							<alpha>0</alpha>
							<red>255</red>
							<green>0</green>
							<blue>0</blue>
						</color>
						<in>9468</in>
						<out>11148</out>
					</marker>
					<marker>
						<name>randomness</name>
						<comment>What are the different kinds of randomness?,&#13;&#13;chance&#13;randomness&#13;random&#13;algorithm&#13;numerology&#13;number&#13;math&#13;probability</comment>
						<color>
							<alpha>0</alpha>
							<red>255</red>
							<green>0</green>
							<blue>0</blue>
						</color>
						<in>12088</in>
						<out>13803</out>
					</marker>
					<filter>
						<effect>
							<name>Audio Levels</name>
							<effectid>audiolevels</effectid>
							<effectcategory>audiolevels</effectcategory>
							<effecttype>audiolevels</effecttype>
							<mediatype>audio</mediatype>
							<parameter>
								<name>Level</name>
								<parameterid>level</parameterid>
								<valuemin>0</valuemin>
								<valuemax>3.98109</valuemax>
								<value>1</value>
							</parameter>
						</effect>
					</filter>
					<filter>
						<effect>
							<name>Audio Pan</name>
							<effectid>audiopan</effectid>
							<effectcategory>audiopan</effectcategory>
							<effecttype>audiopan</effecttype>
							<mediatype>audio</mediatype>
							<parameter>
								<name>Pan</name>
								<parameterid>pan</parameterid>
								<valuemin>-1</valuemin>
								<valuemax>1</valuemax>
								<value>1</value>
							</parameter>
						</effect>
					</filter>
					<sourcetrack>
						<mediatype>audio</mediatype>
						<trackindex>2</trackindex>
					</sourcetrack>
					<link>
						<linkclipref>MVI_0969 </linkclipref>
						<mediatype>video</mediatype>
						<trackindex>1</trackindex>
						<clipindex>2</clipindex>
					</link>
					<link>
						<linkclipref>MVI_0969 3</linkclipref>
						<mediatype>audio</mediatype>
						<trackindex>1</trackindex>
						<clipindex>2</clipindex>
						<groupindex>1</groupindex>
					</link>
					<link>
						<linkclipref>MVI_0969 4</linkclipref>
						<mediatype>audio</mediatype>
						<trackindex>2</trackindex>
						<clipindex>2</clipindex>
						<groupindex>1</groupindex>
					</link>
					<itemhistory>
						<uuid>24DF0035-2354-49FF-A55E-F67E078816B4</uuid>
					</itemhistory>
				</clipitem>
				<clipitem id="MVI_0970 4">
					<name>MVI_0970</name>
					<duration>13869</duration>
					<rate>
						<ntsc>TRUE</ntsc>
						<timebase>24</timebase>
					</rate>
					<in>0</in>
					<out>3728</out>
					<start>30579</start>
					<end>34307</end>
					<masterclipid>MVI_0970 1</masterclipid>
					<logginginfo>
						<scene/>
						<shottake/>
						<lognote/>
						<good>FALSE</good>
					</logginginfo>
					<labels>
						<label2/>
					</labels>
					<comments>
						<mastercomment1/>
						<mastercomment2/>
						<mastercomment3/>
						<mastercomment4/>
					</comments>
					<file id="MVI_0970 2"/>
					<marker>
						<name>Software is what i love the most</name>
						<comment>Code and the real world were once separate. The membrane between physical and digital has opened up. How has that changed your work?&#13;software as a medium,&#13;self-knowledge,&#13;choosing</comment>
						<color>
							<alpha>0</alpha>
							<red>255</red>
							<green>0</green>
							<blue>0</blue>
						</color>
						<in>853</in>
						<out>1359</out>
					</marker>
					<marker>
						<name>teaching at UCLA</name>
						<comment>Code and the real world were once separate. The membrane between physical and digital has opened up. How has that changed your work?&#13;digital-physical,&#13;being digital,&#13;digital natives,&#13;craft,&#13;making things,&#13;objects,&#13;</comment>
						<color>
							<alpha>0</alpha>
							<red>255</red>
							<green>0</green>
							<blue>0</blue>
						</color>
						<in>1500</in>
						<out>2025</out>
					</marker>
					<marker>
						<name>Clumsy</name>
						<comment>Code and the real world were once separate. The membrane between physical and digital has opened up. How has that changed your work?&#13;digital-physical,&#13;being digital,&#13;digital natives,&#13;craft,&#13;making things,&#13;objects,&#13;link: Nervous Jessica "can't draw"&#13;</comment>
						<color>
							<alpha>0</alpha>
							<red>255</red>
							<green>0</green>
							<blue>0</blue>
						</color>
						<in>1699</in>
						<out>-1</out>
					</marker>
					<marker>
						<name>branching off branching</name>
						<comment>How would you visualize your own data?&#13;&#13;experimentation,&#13;mind and hand,&#13;intuition,&#13;heuristics,&#13;branching,&#13;trees,&#13;experiential,&#13;art and experience,</comment>
						<color>
							<alpha>0</alpha>
							<red>255</red>
							<green>0</green>
							<blue>0</blue>
						</color>
						<in>3741</in>
						<out>4625</out>
					</marker>
					<marker>
						<name>Ideally it goes beyond my imagination</name>
						<comment>How would you visualize your own data?&#13;experimentation,&#13;mind and hand,&#13;intuition,&#13;heuristics,&#13;branching,&#13;art and experience,&#13;surprise,&#13;imagination,</comment>
						<color>
							<alpha>0</alpha>
							<red>255</red>
							<green>0</green>
							<blue>0</blue>
						</color>
						<in>5251</in>
						<out>5399</out>
					</marker>
					<marker>
						<name>Tree of Life</name>
						<comment>The line between cinema and generative art -- how can abstraction spill into narrative -- how can interactive art inform the way we tell stories?&#13;&#13;Tree of life,&#13;branches,&#13;story,&#13;narrative,&#13;emotion,&#13;abstraction,&#13;openness,&#13;cinema,&#13;games,&#13;visual storytelling,   &#13; &#13;&#13;&#13;</comment>
						<color>
							<alpha>0</alpha>
							<red>255</red>
							<green>0</green>
							<blue>0</blue>
						</color>
						<in>6685</in>
						<out>8168</out>
					</marker>
					<marker>
						<name>It's not cinema not a game</name>
						<comment>The line between cinema and generative art -- how can abstraction spill into narrative -- how can interactive art inform the way we tell stories?&#13;&#13;&#13;narrative,&#13;cinema,&#13;games,&#13;visual storytelling,   &#13; &#13;&#13;&#13;</comment>
						<color>
							<alpha>0</alpha>
							<red>255</red>
							<green>0</green>
							<blue>0</blue>
						</color>
						<in>8422</in>
						<out>9607</out>
					</marker>
					<marker>
						<name>New modes of expression</name>
						<comment>What is the story?&#13;communication,&#13;abstraction&#13;new modes of expression,&#13;demonstration,&#13;non-verbal communication,&#13;&#13; &#13;&#13;&#13;</comment>
						<color>
							<alpha>0</alpha>
							<red>255</red>
							<green>0</green>
							<blue>0</blue>
						</color>
						<in>10430</in>
						<out>11052</out>
					</marker>
					<marker>
						<name>Indie Game movement</name>
						<comment>What is the story?&#13;&#13;games,&#13;indie games,&#13;&#13;mainstreaming of experimental art,&#13;&#13;emerging media,&#13;  &#13; &#13;&#13;&#13;</comment>
						<color>
							<alpha>0</alpha>
							<red>255</red>
							<green>0</green>
							<blue>0</blue>
						</color>
						<in>11295</in>
						<out>12144</out>
					</marker>
					<filter>
						<effect>
							<name>Audio Levels</name>
							<effectid>audiolevels</effectid>
							<effectcategory>audiolevels</effectcategory>
							<effecttype>audiolevels</effecttype>
							<mediatype>audio</mediatype>
							<parameter>
								<name>Level</name>
								<parameterid>level</parameterid>
								<valuemin>0</valuemin>
								<valuemax>3.98109</valuemax>
								<value>1</value>
							</parameter>
						</effect>
					</filter>
					<filter>
						<effect>
							<name>Audio Pan</name>
							<effectid>audiopan</effectid>
							<effectcategory>audiopan</effectcategory>
							<effecttype>audiopan</effecttype>
							<mediatype>audio</mediatype>
							<parameter>
								<name>Pan</name>
								<parameterid>pan</parameterid>
								<valuemin>-1</valuemin>
								<valuemax>1</valuemax>
								<value>1</value>
							</parameter>
						</effect>
					</filter>
					<sourcetrack>
						<mediatype>audio</mediatype>
						<trackindex>2</trackindex>
					</sourcetrack>
					<link>
						<linkclipref>MVI_0970 </linkclipref>
						<mediatype>video</mediatype>
						<trackindex>1</trackindex>
						<clipindex>3</clipindex>
					</link>
					<link>
						<linkclipref>MVI_0970 3</linkclipref>
						<mediatype>audio</mediatype>
						<trackindex>1</trackindex>
						<clipindex>3</clipindex>
						<groupindex>1</groupindex>
					</link>
					<link>
						<linkclipref>MVI_0970 4</linkclipref>
						<mediatype>audio</mediatype>
						<trackindex>2</trackindex>
						<clipindex>3</clipindex>
						<groupindex>1</groupindex>
					</link>
					<itemhistory>
						<uuid>91DEB412-6F8D-4D25-A560-604068B93A4C</uuid>
						<uuid>EABCA94F-806D-414F-9D88-56EAF7174AF2</uuid>
					</itemhistory>
				</clipitem>
				<clipitem id="MVI_0970 7">
					<name>MVI_0970</name>
					<duration>13869</duration>
					<rate>
						<ntsc>TRUE</ntsc>
						<timebase>24</timebase>
					</rate>
					<in>3728</in>
					<out>4642</out>
					<start>34307</start>
					<end>35221</end>
					<masterclipid>MVI_0970 1</masterclipid>
					<logginginfo>
						<scene/>
						<shottake/>
						<lognote/>
						<good>FALSE</good>
					</logginginfo>
					<labels>
						<label2/>
					</labels>
					<comments>
						<mastercomment1/>
						<mastercomment2/>
						<mastercomment3/>
						<mastercomment4/>
					</comments>
					<file id="MVI_0970 2"/>
					<marker>
						<name>Software is what i love the most</name>
						<comment>Code and the real world were once separate. The membrane between physical and digital has opened up. How has that changed your work?&#13;software as a medium,&#13;self-knowledge,&#13;choosing</comment>
						<color>
							<alpha>0</alpha>
							<red>255</red>
							<green>0</green>
							<blue>0</blue>
						</color>
						<in>853</in>
						<out>1359</out>
					</marker>
					<marker>
						<name>teaching at UCLA</name>
						<comment>Code and the real world were once separate. The membrane between physical and digital has opened up. How has that changed your work?&#13;digital-physical,&#13;being digital,&#13;digital natives,&#13;craft,&#13;making things,&#13;objects,&#13;</comment>
						<color>
							<alpha>0</alpha>
							<red>255</red>
							<green>0</green>
							<blue>0</blue>
						</color>
						<in>1500</in>
						<out>2025</out>
					</marker>
					<marker>
						<name>Clumsy</name>
						<comment>Code and the real world were once separate. The membrane between physical and digital has opened up. How has that changed your work?&#13;digital-physical,&#13;being digital,&#13;digital natives,&#13;craft,&#13;making things,&#13;objects,&#13;link: Nervous Jessica "can't draw"&#13;</comment>
						<color>
							<alpha>0</alpha>
							<red>255</red>
							<green>0</green>
							<blue>0</blue>
						</color>
						<in>1699</in>
						<out>-1</out>
					</marker>
					<marker>
						<name>branching off branching</name>
						<comment>How would you visualize your own data?&#13;&#13;experimentation,&#13;mind and hand,&#13;intuition,&#13;heuristics,&#13;branching,&#13;trees,&#13;experiential,&#13;art and experience,</comment>
						<color>
							<alpha>0</alpha>
							<red>255</red>
							<green>0</green>
							<blue>0</blue>
						</color>
						<in>3741</in>
						<out>4625</out>
					</marker>
					<marker>
						<name>Ideally it goes beyond my imagination</name>
						<comment>How would you visualize your own data?&#13;experimentation,&#13;mind and hand,&#13;intuition,&#13;heuristics,&#13;branching,&#13;art and experience,&#13;surprise,&#13;imagination,</comment>
						<color>
							<alpha>0</alpha>
							<red>255</red>
							<green>0</green>
							<blue>0</blue>
						</color>
						<in>5251</in>
						<out>5399</out>
					</marker>
					<marker>
						<name>Tree of Life</name>
						<comment>The line between cinema and generative art -- how can abstraction spill into narrative -- how can interactive art inform the way we tell stories?&#13;&#13;Tree of life,&#13;branches,&#13;story,&#13;narrative,&#13;emotion,&#13;abstraction,&#13;openness,&#13;cinema,&#13;games,&#13;visual storytelling,   &#13; &#13;&#13;&#13;</comment>
						<color>
							<alpha>0</alpha>
							<red>255</red>
							<green>0</green>
							<blue>0</blue>
						</color>
						<in>6685</in>
						<out>8168</out>
					</marker>
					<marker>
						<name>It's not cinema not a game</name>
						<comment>The line between cinema and generative art -- how can abstraction spill into narrative -- how can interactive art inform the way we tell stories?&#13;&#13;&#13;narrative,&#13;cinema,&#13;games,&#13;visual storytelling,   &#13; &#13;&#13;&#13;</comment>
						<color>
							<alpha>0</alpha>
							<red>255</red>
							<green>0</green>
							<blue>0</blue>
						</color>
						<in>8422</in>
						<out>9607</out>
					</marker>
					<marker>
						<name>New modes of expression</name>
						<comment>What is the story?&#13;communication,&#13;abstraction&#13;new modes of expression,&#13;demonstration,&#13;non-verbal communication,&#13;&#13; &#13;&#13;&#13;</comment>
						<color>
							<alpha>0</alpha>
							<red>255</red>
							<green>0</green>
							<blue>0</blue>
						</color>
						<in>10430</in>
						<out>11052</out>
					</marker>
					<marker>
						<name>Indie Game movement</name>
						<comment>What is the story?&#13;&#13;games,&#13;indie games,&#13;&#13;mainstreaming of experimental art,&#13;&#13;emerging media,&#13;  &#13; &#13;&#13;&#13;</comment>
						<color>
							<alpha>0</alpha>
							<red>255</red>
							<green>0</green>
							<blue>0</blue>
						</color>
						<in>11295</in>
						<out>12144</out>
					</marker>
					<filter>
						<effect>
							<name>Audio Levels</name>
							<effectid>audiolevels</effectid>
							<effectcategory>audiolevels</effectcategory>
							<effecttype>audiolevels</effecttype>
							<mediatype>audio</mediatype>
							<parameter>
								<name>Level</name>
								<parameterid>level</parameterid>
								<valuemin>0</valuemin>
								<valuemax>3.98109</valuemax>
								<value>1</value>
							</parameter>
						</effect>
					</filter>
					<filter>
						<effect>
							<name>Audio Pan</name>
							<effectid>audiopan</effectid>
							<effectcategory>audiopan</effectcategory>
							<effecttype>audiopan</effecttype>
							<mediatype>audio</mediatype>
							<parameter>
								<name>Pan</name>
								<parameterid>pan</parameterid>
								<valuemin>-1</valuemin>
								<valuemax>1</valuemax>
								<value>1</value>
							</parameter>
						</effect>
					</filter>
					<sourcetrack>
						<mediatype>audio</mediatype>
						<trackindex>2</trackindex>
					</sourcetrack>
					<link>
						<linkclipref>MVI_0970 5</linkclipref>
						<mediatype>video</mediatype>
						<trackindex>1</trackindex>
						<clipindex>4</clipindex>
					</link>
					<link>
						<linkclipref>MVI_0970 6</linkclipref>
						<mediatype>audio</mediatype>
						<trackindex>1</trackindex>
						<clipindex>4</clipindex>
						<groupindex>1</groupindex>
					</link>
					<link>
						<linkclipref>MVI_0970 7</linkclipref>
						<mediatype>audio</mediatype>
						<trackindex>2</trackindex>
						<clipindex>4</clipindex>
						<groupindex>1</groupindex>
					</link>
					<itemhistory>
						<uuid>D04FE5B3-7993-436A-84C7-252126316A4F</uuid>
						<uuid>EABCA94F-806D-414F-9D88-56EAF7174AF2</uuid>
					</itemhistory>
				</clipitem>
				<clipitem id="MVI_0970 10">
					<name>MVI_0970</name>
					<duration>13869</duration>
					<rate>
						<ntsc>TRUE</ntsc>
						<timebase>24</timebase>
					</rate>
					<in>4642</in>
					<out>5251</out>
					<start>35221</start>
					<end>35830</end>
					<masterclipid>MVI_0970 1</masterclipid>
					<logginginfo>
						<scene/>
						<shottake/>
						<lognote/>
						<good>FALSE</good>
					</logginginfo>
					<labels>
						<label2/>
					</labels>
					<comments>
						<mastercomment1/>
						<mastercomment2/>
						<mastercomment3/>
						<mastercomment4/>
					</comments>
					<file id="MVI_0970 2"/>
					<marker>
						<name>Software is what i love the most</name>
						<comment>Code and the real world were once separate. The membrane between physical and digital has opened up. How has that changed your work?&#13;software as a medium,&#13;self-knowledge,&#13;choosing</comment>
						<color>
							<alpha>0</alpha>
							<red>255</red>
							<green>0</green>
							<blue>0</blue>
						</color>
						<in>853</in>
						<out>1359</out>
					</marker>
					<marker>
						<name>teaching at UCLA</name>
						<comment>Code and the real world were once separate. The membrane between physical and digital has opened up. How has that changed your work?&#13;digital-physical,&#13;being digital,&#13;digital natives,&#13;craft,&#13;making things,&#13;objects,&#13;</comment>
						<color>
							<alpha>0</alpha>
							<red>255</red>
							<green>0</green>
							<blue>0</blue>
						</color>
						<in>1500</in>
						<out>2025</out>
					</marker>
					<marker>
						<name>Clumsy</name>
						<comment>Code and the real world were once separate. The membrane between physical and digital has opened up. How has that changed your work?&#13;digital-physical,&#13;being digital,&#13;digital natives,&#13;craft,&#13;making things,&#13;objects,&#13;link: Nervous Jessica "can't draw"&#13;</comment>
						<color>
							<alpha>0</alpha>
							<red>255</red>
							<green>0</green>
							<blue>0</blue>
						</color>
						<in>1699</in>
						<out>-1</out>
					</marker>
					<marker>
						<name>branching off branching</name>
						<comment>How would you visualize your own data?&#13;&#13;experimentation,&#13;mind and hand,&#13;intuition,&#13;heuristics,&#13;branching,&#13;trees,&#13;experiential,&#13;art and experience,</comment>
						<color>
							<alpha>0</alpha>
							<red>255</red>
							<green>0</green>
							<blue>0</blue>
						</color>
						<in>3741</in>
						<out>4625</out>
					</marker>
					<marker>
						<name>Ideally it goes beyond my imagination</name>
						<comment>How would you visualize your own data?&#13;experimentation,&#13;mind and hand,&#13;intuition,&#13;heuristics,&#13;branching,&#13;art and experience,&#13;surprise,&#13;imagination,</comment>
						<color>
							<alpha>0</alpha>
							<red>255</red>
							<green>0</green>
							<blue>0</blue>
						</color>
						<in>5251</in>
						<out>5399</out>
					</marker>
					<marker>
						<name>Tree of Life</name>
						<comment>The line between cinema and generative art -- how can abstraction spill into narrative -- how can interactive art inform the way we tell stories?&#13;&#13;Tree of life,&#13;branches,&#13;story,&#13;narrative,&#13;emotion,&#13;abstraction,&#13;openness,&#13;cinema,&#13;games,&#13;visual storytelling,   &#13; &#13;&#13;&#13;</comment>
						<color>
							<alpha>0</alpha>
							<red>255</red>
							<green>0</green>
							<blue>0</blue>
						</color>
						<in>6685</in>
						<out>8168</out>
					</marker>
					<marker>
						<name>It's not cinema not a game</name>
						<comment>The line between cinema and generative art -- how can abstraction spill into narrative -- how can interactive art inform the way we tell stories?&#13;&#13;&#13;narrative,&#13;cinema,&#13;games,&#13;visual storytelling,   &#13; &#13;&#13;&#13;</comment>
						<color>
							<alpha>0</alpha>
							<red>255</red>
							<green>0</green>
							<blue>0</blue>
						</color>
						<in>8422</in>
						<out>9607</out>
					</marker>
					<marker>
						<name>New modes of expression</name>
						<comment>What is the story?&#13;communication,&#13;abstraction&#13;new modes of expression,&#13;demonstration,&#13;non-verbal communication,&#13;&#13; &#13;&#13;&#13;</comment>
						<color>
							<alpha>0</alpha>
							<red>255</red>
							<green>0</green>
							<blue>0</blue>
						</color>
						<in>10430</in>
						<out>11052</out>
					</marker>
					<marker>
						<name>Indie Game movement</name>
						<comment>What is the story?&#13;&#13;games,&#13;indie games,&#13;&#13;mainstreaming of experimental art,&#13;&#13;emerging media,&#13;  &#13; &#13;&#13;&#13;</comment>
						<color>
							<alpha>0</alpha>
							<red>255</red>
							<green>0</green>
							<blue>0</blue>
						</color>
						<in>11295</in>
						<out>12144</out>
					</marker>
					<filter>
						<effect>
							<name>Audio Levels</name>
							<effectid>audiolevels</effectid>
							<effectcategory>audiolevels</effectcategory>
							<effecttype>audiolevels</effecttype>
							<mediatype>audio</mediatype>
							<parameter>
								<name>Level</name>
								<parameterid>level</parameterid>
								<valuemin>0</valuemin>
								<valuemax>3.98109</valuemax>
								<value>1</value>
							</parameter>
						</effect>
					</filter>
					<filter>
						<effect>
							<name>Audio Pan</name>
							<effectid>audiopan</effectid>
							<effectcategory>audiopan</effectcategory>
							<effecttype>audiopan</effecttype>
							<mediatype>audio</mediatype>
							<parameter>
								<name>Pan</name>
								<parameterid>pan</parameterid>
								<valuemin>-1</valuemin>
								<valuemax>1</valuemax>
								<value>1</value>
							</parameter>
						</effect>
					</filter>
					<sourcetrack>
						<mediatype>audio</mediatype>
						<trackindex>2</trackindex>
					</sourcetrack>
					<link>
						<linkclipref>MVI_0970 8</linkclipref>
						<mediatype>video</mediatype>
						<trackindex>1</trackindex>
						<clipindex>5</clipindex>
					</link>
					<link>
						<linkclipref>MVI_0970 9</linkclipref>
						<mediatype>audio</mediatype>
						<trackindex>1</trackindex>
						<clipindex>5</clipindex>
						<groupindex>1</groupindex>
					</link>
					<link>
						<linkclipref>MVI_0970 10</linkclipref>
						<mediatype>audio</mediatype>
						<trackindex>2</trackindex>
						<clipindex>5</clipindex>
						<groupindex>1</groupindex>
					</link>
					<itemhistory>
						<uuid>FB1AFB65-EE1F-46A4-B2EE-D6969E620A71</uuid>
						<uuid>2665E895-CD54-4850-816D-EB164D36F831</uuid>
						<uuid>EABCA94F-806D-414F-9D88-56EAF7174AF2</uuid>
					</itemhistory>
				</clipitem>
				<clipitem id="MVI_0970 15">
					<name>MVI_0970</name>
					<duration>13869</duration>
					<rate>
						<ntsc>TRUE</ntsc>
						<timebase>24</timebase>
					</rate>
					<in>5251</in>
					<out>5399</out>
					<start>35830</start>
					<end>35978</end>
					<masterclipid>MVI_0970 1</masterclipid>
					<logginginfo>
						<scene/>
						<shottake/>
						<lognote/>
						<good>FALSE</good>
					</logginginfo>
					<labels>
						<label2/>
					</labels>
					<comments>
						<mastercomment1/>
						<mastercomment2/>
						<mastercomment3/>
						<mastercomment4/>
					</comments>
					<file id="MVI_0970 2"/>
					<marker>
						<name>Software is what i love the most</name>
						<comment>Code and the real world were once separate. The membrane between physical and digital has opened up. How has that changed your work?&#13;software as a medium,&#13;self-knowledge,&#13;choosing</comment>
						<color>
							<alpha>0</alpha>
							<red>255</red>
							<green>0</green>
							<blue>0</blue>
						</color>
						<in>853</in>
						<out>1359</out>
					</marker>
					<marker>
						<name>teaching at UCLA</name>
						<comment>Code and the real world were once separate. The membrane between physical and digital has opened up. How has that changed your work?&#13;digital-physical,&#13;being digital,&#13;digital natives,&#13;craft,&#13;making things,&#13;objects,&#13;</comment>
						<color>
							<alpha>0</alpha>
							<red>255</red>
							<green>0</green>
							<blue>0</blue>
						</color>
						<in>1500</in>
						<out>2025</out>
					</marker>
					<marker>
						<name>Clumsy</name>
						<comment>Code and the real world were once separate. The membrane between physical and digital has opened up. How has that changed your work?&#13;digital-physical,&#13;being digital,&#13;digital natives,&#13;craft,&#13;making things,&#13;objects,&#13;link: Nervous Jessica "can't draw"&#13;</comment>
						<color>
							<alpha>0</alpha>
							<red>255</red>
							<green>0</green>
							<blue>0</blue>
						</color>
						<in>1699</in>
						<out>-1</out>
					</marker>
					<marker>
						<name>branching off branching</name>
						<comment>How would you visualize your own data?&#13;&#13;experimentation,&#13;mind and hand,&#13;intuition,&#13;heuristics,&#13;branching,&#13;trees,&#13;experiential,&#13;art and experience,</comment>
						<color>
							<alpha>0</alpha>
							<red>255</red>
							<green>0</green>
							<blue>0</blue>
						</color>
						<in>3741</in>
						<out>4625</out>
					</marker>
					<marker>
						<name>Ideally it goes beyond my imagination</name>
						<comment>How would you visualize your own data?&#13;experimentation,&#13;mind and hand,&#13;intuition,&#13;heuristics,&#13;branching,&#13;art and experience,&#13;surprise,&#13;imagination,</comment>
						<color>
							<alpha>0</alpha>
							<red>255</red>
							<green>0</green>
							<blue>0</blue>
						</color>
						<in>5251</in>
						<out>5399</out>
					</marker>
					<marker>
						<name>Tree of Life</name>
						<comment>The line between cinema and generative art -- how can abstraction spill into narrative -- how can interactive art inform the way we tell stories?&#13;&#13;Tree of life,&#13;branches,&#13;story,&#13;narrative,&#13;emotion,&#13;abstraction,&#13;openness,&#13;cinema,&#13;games,&#13;visual storytelling,   &#13; &#13;&#13;&#13;</comment>
						<color>
							<alpha>0</alpha>
							<red>255</red>
							<green>0</green>
							<blue>0</blue>
						</color>
						<in>6685</in>
						<out>8168</out>
					</marker>
					<marker>
						<name>It's not cinema not a game</name>
						<comment>The line between cinema and generative art -- how can abstraction spill into narrative -- how can interactive art inform the way we tell stories?&#13;&#13;&#13;narrative,&#13;cinema,&#13;games,&#13;visual storytelling,   &#13; &#13;&#13;&#13;</comment>
						<color>
							<alpha>0</alpha>
							<red>255</red>
							<green>0</green>
							<blue>0</blue>
						</color>
						<in>8422</in>
						<out>9607</out>
					</marker>
					<marker>
						<name>New modes of expression</name>
						<comment>What is the story?&#13;communication,&#13;abstraction&#13;new modes of expression,&#13;demonstration,&#13;non-verbal communication,&#13;&#13; &#13;&#13;&#13;</comment>
						<color>
							<alpha>0</alpha>
							<red>255</red>
							<green>0</green>
							<blue>0</blue>
						</color>
						<in>10430</in>
						<out>11052</out>
					</marker>
					<marker>
						<name>Indie Game movement</name>
						<comment>What is the story?&#13;&#13;games,&#13;indie games,&#13;&#13;mainstreaming of experimental art,&#13;&#13;emerging media,&#13;  &#13; &#13;&#13;&#13;</comment>
						<color>
							<alpha>0</alpha>
							<red>255</red>
							<green>0</green>
							<blue>0</blue>
						</color>
						<in>11295</in>
						<out>12144</out>
					</marker>
					<filter>
						<effect>
							<name>Audio Levels</name>
							<effectid>audiolevels</effectid>
							<effectcategory>audiolevels</effectcategory>
							<effecttype>audiolevels</effecttype>
							<mediatype>audio</mediatype>
							<parameter>
								<name>Level</name>
								<parameterid>level</parameterid>
								<valuemin>0</valuemin>
								<valuemax>3.98109</valuemax>
								<value>1</value>
							</parameter>
						</effect>
					</filter>
					<filter>
						<effect>
							<name>Audio Pan</name>
							<effectid>audiopan</effectid>
							<effectcategory>audiopan</effectcategory>
							<effecttype>audiopan</effecttype>
							<mediatype>audio</mediatype>
							<parameter>
								<name>Pan</name>
								<parameterid>pan</parameterid>
								<valuemin>-1</valuemin>
								<valuemax>1</valuemax>
								<value>1</value>
							</parameter>
						</effect>
					</filter>
					<sourcetrack>
						<mediatype>audio</mediatype>
						<trackindex>2</trackindex>
					</sourcetrack>
					<link>
						<linkclipref>MVI_0970 14</linkclipref>
						<mediatype>audio</mediatype>
						<trackindex>1</trackindex>
						<clipindex>6</clipindex>
						<groupindex>1</groupindex>
					</link>
					<link>
						<linkclipref>MVI_0970 15</linkclipref>
						<mediatype>audio</mediatype>
						<trackindex>2</trackindex>
						<clipindex>6</clipindex>
						<groupindex>1</groupindex>
					</link>
					<itemhistory>
						<uuid>577FD7B9-20F7-4E8E-A179-47A1A141C8BC</uuid>
						<uuid>2665E895-CD54-4850-816D-EB164D36F831</uuid>
						<uuid>EABCA94F-806D-414F-9D88-56EAF7174AF2</uuid>
					</itemhistory>
				</clipitem>
				<clipitem id="MVI_0970 17">
					<name>MVI_0970</name>
					<duration>13869</duration>
					<rate>
						<ntsc>TRUE</ntsc>
						<timebase>24</timebase>
					</rate>
					<in>5399</in>
					<out>13869</out>
					<start>35978</start>
					<end>44448</end>
					<masterclipid>MVI_0970 1</masterclipid>
					<logginginfo>
						<scene/>
						<shottake/>
						<lognote/>
						<good>FALSE</good>
					</logginginfo>
					<labels>
						<label2/>
					</labels>
					<comments>
						<mastercomment1/>
						<mastercomment2/>
						<mastercomment3/>
						<mastercomment4/>
					</comments>
					<file id="MVI_0970 2"/>
					<marker>
						<name>Software is what i love the most</name>
						<comment>Code and the real world were once separate. The membrane between physical and digital has opened up. How has that changed your work?&#13;software as a medium,&#13;self-knowledge,&#13;choosing</comment>
						<color>
							<alpha>0</alpha>
							<red>255</red>
							<green>0</green>
							<blue>0</blue>
						</color>
						<in>853</in>
						<out>1359</out>
					</marker>
					<marker>
						<name>teaching at UCLA</name>
						<comment>Code and the real world were once separate. The membrane between physical and digital has opened up. How has that changed your work?&#13;digital-physical,&#13;being digital,&#13;digital natives,&#13;craft,&#13;making things,&#13;objects,&#13;</comment>
						<color>
							<alpha>0</alpha>
							<red>255</red>
							<green>0</green>
							<blue>0</blue>
						</color>
						<in>1500</in>
						<out>2025</out>
					</marker>
					<marker>
						<name>Clumsy</name>
						<comment>Code and the real world were once separate. The membrane between physical and digital has opened up. How has that changed your work?&#13;digital-physical,&#13;being digital,&#13;digital natives,&#13;craft,&#13;making things,&#13;objects,&#13;link: Nervous Jessica "can't draw"&#13;</comment>
						<color>
							<alpha>0</alpha>
							<red>255</red>
							<green>0</green>
							<blue>0</blue>
						</color>
						<in>1699</in>
						<out>-1</out>
					</marker>
					<marker>
						<name>branching off branching</name>
						<comment>How would you visualize your own data?&#13;&#13;experimentation,&#13;mind and hand,&#13;intuition,&#13;heuristics,&#13;branching,&#13;trees,&#13;experiential,&#13;art and experience,</comment>
						<color>
							<alpha>0</alpha>
							<red>255</red>
							<green>0</green>
							<blue>0</blue>
						</color>
						<in>3741</in>
						<out>4625</out>
					</marker>
					<marker>
						<name>Ideally it goes beyond my imagination</name>
						<comment>How would you visualize your own data?&#13;experimentation,&#13;mind and hand,&#13;intuition,&#13;heuristics,&#13;branching,&#13;art and experience,&#13;surprise,&#13;imagination,</comment>
						<color>
							<alpha>0</alpha>
							<red>255</red>
							<green>0</green>
							<blue>0</blue>
						</color>
						<in>5251</in>
						<out>5399</out>
					</marker>
					<marker>
						<name>Tree of Life</name>
						<comment>The line between cinema and generative art -- how can abstraction spill into narrative -- how can interactive art inform the way we tell stories?&#13;&#13;Tree of life,&#13;branches,&#13;story,&#13;narrative,&#13;emotion,&#13;abstraction,&#13;openness,&#13;cinema,&#13;games,&#13;visual storytelling,   &#13; &#13;&#13;&#13;</comment>
						<color>
							<alpha>0</alpha>
							<red>255</red>
							<green>0</green>
							<blue>0</blue>
						</color>
						<in>6685</in>
						<out>8168</out>
					</marker>
					<marker>
						<name>It's not cinema not a game</name>
						<comment>The line between cinema and generative art -- how can abstraction spill into narrative -- how can interactive art inform the way we tell stories?&#13;&#13;&#13;narrative,&#13;cinema,&#13;games,&#13;visual storytelling,   &#13; &#13;&#13;&#13;</comment>
						<color>
							<alpha>0</alpha>
							<red>255</red>
							<green>0</green>
							<blue>0</blue>
						</color>
						<in>8422</in>
						<out>9607</out>
					</marker>
					<marker>
						<name>New modes of expression</name>
						<comment>What is the story?&#13;communication,&#13;abstraction&#13;new modes of expression,&#13;demonstration,&#13;non-verbal communication,&#13;&#13; &#13;&#13;&#13;</comment>
						<color>
							<alpha>0</alpha>
							<red>255</red>
							<green>0</green>
							<blue>0</blue>
						</color>
						<in>10430</in>
						<out>11052</out>
					</marker>
					<marker>
						<name>Indie Game movement</name>
						<comment>What is the story?&#13;&#13;games,&#13;indie games,&#13;&#13;mainstreaming of experimental art,&#13;&#13;emerging media,&#13;  &#13; &#13;&#13;&#13;</comment>
						<color>
							<alpha>0</alpha>
							<red>255</red>
							<green>0</green>
							<blue>0</blue>
						</color>
						<in>11295</in>
						<out>12144</out>
					</marker>
					<filter>
						<effect>
							<name>Audio Levels</name>
							<effectid>audiolevels</effectid>
							<effectcategory>audiolevels</effectcategory>
							<effecttype>audiolevels</effecttype>
							<mediatype>audio</mediatype>
							<parameter>
								<name>Level</name>
								<parameterid>level</parameterid>
								<valuemin>0</valuemin>
								<valuemax>3.98109</valuemax>
								<value>1</value>
							</parameter>
						</effect>
					</filter>
					<filter>
						<effect>
							<name>Audio Pan</name>
							<effectid>audiopan</effectid>
							<effectcategory>audiopan</effectcategory>
							<effecttype>audiopan</effecttype>
							<mediatype>audio</mediatype>
							<parameter>
								<name>Pan</name>
								<parameterid>pan</parameterid>
								<valuemin>-1</valuemin>
								<valuemax>1</valuemax>
								<value>1</value>
							</parameter>
						</effect>
					</filter>
					<sourcetrack>
						<mediatype>audio</mediatype>
						<trackindex>2</trackindex>
					</sourcetrack>
					<link>
						<linkclipref>MVI_0970 16</linkclipref>
						<mediatype>audio</mediatype>
						<trackindex>1</trackindex>
						<clipindex>7</clipindex>
						<groupindex>1</groupindex>
					</link>
					<link>
						<linkclipref>MVI_0970 17</linkclipref>
						<mediatype>audio</mediatype>
						<trackindex>2</trackindex>
						<clipindex>7</clipindex>
						<groupindex>1</groupindex>
					</link>
					<itemhistory>
						<uuid>B4702DC2-2313-413B-A751-84A54989D1DB</uuid>
						<uuid>2665E895-CD54-4850-816D-EB164D36F831</uuid>
						<uuid>EABCA94F-806D-414F-9D88-56EAF7174AF2</uuid>
					</itemhistory>
				</clipitem>
				<clipitem id="MVI_0972 4">
					<name>MVI_0972</name>
					<duration>5086</duration>
					<rate>
						<ntsc>TRUE</ntsc>
						<timebase>24</timebase>
					</rate>
					<in>0</in>
					<out>5086</out>
					<start>44448</start>
					<end>49534</end>
					<masterclipid>MVI_0972 1</masterclipid>
					<logginginfo>
						<scene/>
						<shottake/>
						<lognote/>
						<good>FALSE</good>
					</logginginfo>
					<labels>
						<label2/>
					</labels>
					<comments>
						<mastercomment1/>
						<mastercomment2/>
						<mastercomment3/>
						<mastercomment4/>
					</comments>
					<file id="MVI_0972 2"/>
					<marker>
						<name>Started small</name>
						<comment>What is the story?&#13;&#13;games,&#13;indie games,&#13;&#13;mainstreaming of experimental art,&#13;&#13;emerging media,&#13; growth,&#13;print,&#13;graphics,&#13;design,&#13;&#13;&#13;</comment>
						<color>
							<alpha>0</alpha>
							<red>255</red>
							<green>0</green>
							<blue>0</blue>
						</color>
						<in>374</in>
						<out>1999</out>
					</marker>
					<marker>
						<name>Undiscovered history</name>
						<comment>What's the influence of art history?&#13;&#13;Art history,&#13;Pioneers,&#13;origins of digital art,&#13;precurors,&#13;&#13; &#13;&#13;&#13;</comment>
						<color>
							<alpha>0</alpha>
							<red>255</red>
							<green>0</green>
							<blue>0</blue>
						</color>
						<in>3058</in>
						<out>3765</out>
					</marker>
					<marker>
						<name>art history</name>
						<comment>Wha's the influence of art history?.&#13;Art history,&#13;innovation,&#13;evolution,</comment>
						<color>
							<alpha>0</alpha>
							<red>255</red>
							<green>0</green>
							<blue>0</blue>
						</color>
						<in>3896</in>
						<out>4413</out>
					</marker>
					<marker>
						<name>understanding ideas of art history</name>
						<comment>What's the influence of art history?&#13;&#13;Art history,&#13;abstraction,&#13;emotion,&#13;modernism&#13;&#13;&#13; &#13;&#13;&#13;</comment>
						<color>
							<alpha>0</alpha>
							<red>255</red>
							<green>0</green>
							<blue>0</blue>
						</color>
						<in>4424</in>
						<out>4821</out>
					</marker>
					<filter>
						<effect>
							<name>Audio Levels</name>
							<effectid>audiolevels</effectid>
							<effectcategory>audiolevels</effectcategory>
							<effecttype>audiolevels</effecttype>
							<mediatype>audio</mediatype>
							<parameter>
								<name>Level</name>
								<parameterid>level</parameterid>
								<valuemin>0</valuemin>
								<valuemax>3.98109</valuemax>
								<value>1</value>
							</parameter>
						</effect>
					</filter>
					<filter>
						<effect>
							<name>Audio Pan</name>
							<effectid>audiopan</effectid>
							<effectcategory>audiopan</effectcategory>
							<effecttype>audiopan</effecttype>
							<mediatype>audio</mediatype>
							<parameter>
								<name>Pan</name>
								<parameterid>pan</parameterid>
								<valuemin>-1</valuemin>
								<valuemax>1</valuemax>
								<value>1</value>
							</parameter>
						</effect>
					</filter>
					<sourcetrack>
						<mediatype>audio</mediatype>
						<trackindex>2</trackindex>
					</sourcetrack>
					<link>
						<linkclipref>MVI_0972 </linkclipref>
						<mediatype>video</mediatype>
						<trackindex>1</trackindex>
						<clipindex>8</clipindex>
					</link>
					<link>
						<linkclipref>MVI_0972 3</linkclipref>
						<mediatype>audio</mediatype>
						<trackindex>1</trackindex>
						<clipindex>8</clipindex>
						<groupindex>1</groupindex>
					</link>
					<link>
						<linkclipref>MVI_0972 4</linkclipref>
						<mediatype>audio</mediatype>
						<trackindex>2</trackindex>
						<clipindex>8</clipindex>
						<groupindex>1</groupindex>
					</link>
					<itemhistory>
						<uuid>EF753B2B-39EF-40E6-9110-7844BFF34EE9</uuid>
					</itemhistory>
				</clipitem>
				<enabled>TRUE</enabled>
				<locked>FALSE</locked>
				<outputchannelindex>2</outputchannelindex>
			</track>
			<track>
				<enabled>TRUE</enabled>
				<locked>FALSE</locked>
				<outputchannelindex>1</outputchannelindex>
			</track>
			<track>
				<enabled>TRUE</enabled>
				<locked>FALSE</locked>
				<outputchannelindex>2</outputchannelindex>
			</track>
			<track>
				<clipitem id="MVI_0968 6">
					<name>MVI_0968</name>
					<duration>15802</duration>
					<rate>
						<ntsc>TRUE</ntsc>
						<timebase>24</timebase>
					</rate>
					<in>0</in>
					<out>15802</out>
					<start>0</start>
					<end>15802</end>
					<enabled>TRUE</enabled>
					<masterclipid>MVI_0968 1</masterclipid>
					<logginginfo>
						<scene/>
						<shottake/>
						<lognote/>
						<good>FALSE</good>
					</logginginfo>
					<labels>
						<label2/>
					</labels>
					<comments>
						<mastercomment1/>
						<mastercomment2/>
						<mastercomment3/>
						<mastercomment4/>
					</comments>
					<file id="MVI_0968 2"/>
					<marker>
						<name>Programming at 26</name>
						<comment>beginnngs,&#13;learning,&#13;programming, &#13;working with others,&#13;Media Lab, aesthetics and computation,</comment>
						<color>
							<alpha>0</alpha>
							<red>255</red>
							<green>0</green>
							<blue>0</blue>
						</color>
						<in>3457</in>
						<out>3816</out>
					</marker>
					<marker>
						<name>desire to build</name>
						<comment/>
						<color>
							<alpha>0</alpha>
							<red>48</red>
							<green>191</green>
							<blue>72</blue>
						</color>
						<in>6188</in>
						<out>6251</out>
					</marker>
					<marker>
						<name>Computer as collaborator</name>
						<comment>How do you build serendipity into your systems?&#13;emergence,&#13;artificial life,&#13;complexity,&#13;systems,</comment>
						<color>
							<alpha>0</alpha>
							<red>255</red>
							<green>0</green>
							<blue>0</blue>
						</color>
						<in>8092</in>
						<out>8301</out>
					</marker>
					<marker>
						<name>What is emergence?</name>
						<comment>emergence,&#13;artificial life,&#13;complexity,&#13;flocking,</comment>
						<color>
							<alpha>0</alpha>
							<red>255</red>
							<green>0</green>
							<blue>0</blue>
						</color>
						<in>10078</in>
						<out>10758</out>
					</marker>
					<marker>
						<name>Developing a microworld</name>
						<comment>Nature,&#13;Simulation,&#13;Creation,&#13;playing god,&#13;world building,&#13;abstraction</comment>
						<color>
							<alpha>0</alpha>
							<red>255</red>
							<green>0</green>
							<blue>0</blue>
						</color>
						<in>12342</in>
						<out>12730</out>
					</marker>
					<marker>
						<name>Massive parallel systems</name>
						<comment>How does computer code translate to the code of life and synthetic biology? &#13;&#13;parallel computing,&#13;computational power,&#13;progress,&#13;acceleration&#13;</comment>
						<color>
							<alpha>0</alpha>
							<red>255</red>
							<green>0</green>
							<blue>0</blue>
						</color>
						<in>13743</in>
						<out>14111</out>
					</marker>
					<filter>
						<effect>
							<name>Audio Levels</name>
							<effectid>audiolevels</effectid>
							<effectcategory>audiolevels</effectcategory>
							<effecttype>audiolevels</effecttype>
							<mediatype>audio</mediatype>
							<parameter>
								<name>Level</name>
								<parameterid>level</parameterid>
								<valuemin>0</valuemin>
								<valuemax>3.98109</valuemax>
								<value>1</value>
							</parameter>
						</effect>
					</filter>
					<filter>
						<effect>
							<name>Audio Pan</name>
							<effectid>audiopan</effectid>
							<effectcategory>audiopan</effectcategory>
							<effecttype>audiopan</effecttype>
							<mediatype>audio</mediatype>
							<parameter>
								<name>Pan</name>
								<parameterid>pan</parameterid>
								<valuemin>-1</valuemin>
								<valuemax>1</valuemax>
								<value>-1</value>
							</parameter>
						</effect>
					</filter>
					<sourcetrack>
						<mediatype>audio</mediatype>
						<trackindex>1</trackindex>
					</sourcetrack>
					<link>
						<linkclipref>MVI_0968 5</linkclipref>
						<mediatype>video</mediatype>
						<trackindex>2</trackindex>
						<clipindex>1</clipindex>
					</link>
					<link>
						<linkclipref>MVI_0968 6</linkclipref>
						<mediatype>audio</mediatype>
						<trackindex>5</trackindex>
						<clipindex>1</clipindex>
						<groupindex>1</groupindex>
					</link>
					<link>
						<linkclipref>MVI_0968 7</linkclipref>
						<mediatype>audio</mediatype>
						<trackindex>6</trackindex>
						<clipindex>1</clipindex>
						<groupindex>1</groupindex>
					</link>
					<itemhistory>
						<uuid>76E10B8A-2CF4-4718-BF8A-7FD80BD90138</uuid>
					</itemhistory>
				</clipitem>
				<enabled>TRUE</enabled>
				<locked>FALSE</locked>
				<outputchannelindex>1</outputchannelindex>
			</track>
			<track>
				<clipitem id="MVI_0968 7">
					<name>MVI_0968</name>
					<duration>15802</duration>
					<rate>
						<ntsc>TRUE</ntsc>
						<timebase>24</timebase>
					</rate>
					<in>0</in>
					<out>15802</out>
					<start>0</start>
					<end>15802</end>
					<enabled>TRUE</enabled>
					<masterclipid>MVI_0968 1</masterclipid>
					<logginginfo>
						<scene/>
						<shottake/>
						<lognote/>
						<good>FALSE</good>
					</logginginfo>
					<labels>
						<label2/>
					</labels>
					<comments>
						<mastercomment1/>
						<mastercomment2/>
						<mastercomment3/>
						<mastercomment4/>
					</comments>
					<file id="MVI_0968 2"/>
					<marker>
						<name>Programming at 26</name>
						<comment>beginnngs,&#13;learning,&#13;programming, &#13;working with others,&#13;Media Lab, aesthetics and computation,</comment>
						<color>
							<alpha>0</alpha>
							<red>255</red>
							<green>0</green>
							<blue>0</blue>
						</color>
						<in>3457</in>
						<out>3816</out>
					</marker>
					<marker>
						<name>desire to build</name>
						<comment/>
						<color>
							<alpha>0</alpha>
							<red>48</red>
							<green>191</green>
							<blue>72</blue>
						</color>
						<in>6188</in>
						<out>6251</out>
					</marker>
					<marker>
						<name>Computer as collaborator</name>
						<comment>How do you build serendipity into your systems?&#13;emergence,&#13;artificial life,&#13;complexity,&#13;systems,</comment>
						<color>
							<alpha>0</alpha>
							<red>255</red>
							<green>0</green>
							<blue>0</blue>
						</color>
						<in>8092</in>
						<out>8301</out>
					</marker>
					<marker>
						<name>What is emergence?</name>
						<comment>emergence,&#13;artificial life,&#13;complexity,&#13;flocking,</comment>
						<color>
							<alpha>0</alpha>
							<red>255</red>
							<green>0</green>
							<blue>0</blue>
						</color>
						<in>10078</in>
						<out>10758</out>
					</marker>
					<marker>
						<name>Developing a microworld</name>
						<comment>Nature,&#13;Simulation,&#13;Creation,&#13;playing god,&#13;world building,&#13;abstraction</comment>
						<color>
							<alpha>0</alpha>
							<red>255</red>
							<green>0</green>
							<blue>0</blue>
						</color>
						<in>12342</in>
						<out>12730</out>
					</marker>
					<marker>
						<name>Massive parallel systems</name>
						<comment>How does computer code translate to the code of life and synthetic biology? &#13;&#13;parallel computing,&#13;computational power,&#13;progress,&#13;acceleration&#13;</comment>
						<color>
							<alpha>0</alpha>
							<red>255</red>
							<green>0</green>
							<blue>0</blue>
						</color>
						<in>13743</in>
						<out>14111</out>
					</marker>
					<filter>
						<effect>
							<name>Audio Levels</name>
							<effectid>audiolevels</effectid>
							<effectcategory>audiolevels</effectcategory>
							<effecttype>audiolevels</effecttype>
							<mediatype>audio</mediatype>
							<parameter>
								<name>Level</name>
								<parameterid>level</parameterid>
								<valuemin>0</valuemin>
								<valuemax>3.98109</valuemax>
								<value>1</value>
							</parameter>
						</effect>
					</filter>
					<filter>
						<effect>
							<name>Audio Pan</name>
							<effectid>audiopan</effectid>
							<effectcategory>audiopan</effectcategory>
							<effecttype>audiopan</effecttype>
							<mediatype>audio</mediatype>
							<parameter>
								<name>Pan</name>
								<parameterid>pan</parameterid>
								<valuemin>-1</valuemin>
								<valuemax>1</valuemax>
								<value>1</value>
							</parameter>
						</effect>
					</filter>
					<sourcetrack>
						<mediatype>audio</mediatype>
						<trackindex>2</trackindex>
					</sourcetrack>
					<link>
						<linkclipref>MVI_0968 5</linkclipref>
						<mediatype>video</mediatype>
						<trackindex>2</trackindex>
						<clipindex>1</clipindex>
					</link>
					<link>
						<linkclipref>MVI_0968 6</linkclipref>
						<mediatype>audio</mediatype>
						<trackindex>5</trackindex>
						<clipindex>1</clipindex>
						<groupindex>1</groupindex>
					</link>
					<link>
						<linkclipref>MVI_0968 7</linkclipref>
						<mediatype>audio</mediatype>
						<trackindex>6</trackindex>
						<clipindex>1</clipindex>
						<groupindex>1</groupindex>
					</link>
					<itemhistory>
						<uuid>F1DC6E97-6D5B-42A0-85D8-834F10A3D49C</uuid>
					</itemhistory>
				</clipitem>
				<enabled>TRUE</enabled>
				<locked>FALSE</locked>
				<outputchannelindex>2</outputchannelindex>
			</track>
			<filter>
				<effect>
					<name>Audio Levels</name>
					<effectid>audiolevels</effectid>
					<effectcategory>audiolevels</effectcategory>
					<effecttype>audiolevels</effecttype>
					<mediatype>audio</mediatype>
					<parameter>
						<name>Level</name>
						<parameterid>level</parameterid>
						<valuemin>0</valuemin>
						<valuemax>3.98109</valuemax>
						<value>1</value>
					</parameter>
				</effect>
			</filter>
		</audio>
	</media>
	<ismasterclip>FALSE</ismasterclip>
</sequence>
<sequence id="Golan">
	<uuid>82CA7BC2-A9B9-4C45-9658-3DDBAE1160A7</uuid>
	<updatebehavior>add</updatebehavior>
	<name>Golan</name>
	<duration>99832</duration>
	<rate>
		<ntsc>TRUE</ntsc>
		<timebase>24</timebase>
	</rate>
	<timecode>
		<rate>
			<ntsc>TRUE</ntsc>
			<timebase>24</timebase>
		</rate>
		<string>01:00:00:00</string>
		<frame>86400</frame>
		<source>source</source>
		<displayformat>NDF</displayformat>
	</timecode>
	<in>1547</in>
	<out>-1</out>
	<media>
		<video>
			<format>
				<samplecharacteristics>
					<width>1920</width>
					<height>1080</height>
					<anamorphic>FALSE</anamorphic>
					<pixelaspectratio>Square</pixelaspectratio>
					<fielddominance>none</fielddominance>
					<rate>
						<ntsc>TRUE</ntsc>
						<timebase>24</timebase>
					</rate>
					<colordepth>24</colordepth>
					<codec>
						<name>Apple ProRes 422</name>
						<appspecificdata>
							<appname>Final Cut Pro</appname>
							<appmanufacturer>Apple Inc.</appmanufacturer>
							<appversion>7.0</appversion>
							<data>
								<qtcodec>
									<codecname>Apple ProRes 422</codecname>
									<codectypename>Apple ProRes 422</codectypename>
									<codectypecode>apcn</codectypecode>
									<codecvendorcode>appl</codecvendorcode>
									<spatialquality>1024</spatialquality>
									<temporalquality>0</temporalquality>
									<keyframerate>0</keyframerate>
									<datarate>0</datarate>
								</qtcodec>
							</data>
						</appspecificdata>
					</codec>
				</samplecharacteristics>
				<appspecificdata>
					<appname>Final Cut Pro</appname>
					<appmanufacturer>Apple Inc.</appmanufacturer>
					<appversion>7.0</appversion>
					<data>
						<fcpimageprocessing>
							<useyuv>TRUE</useyuv>
							<usesuperwhite>FALSE</usesuperwhite>
							<rendermode>Float10BPP</rendermode>
						</fcpimageprocessing>
					</data>
				</appspecificdata>
			</format>
			<track>
				<clipitem id="MVI_7378 ">
					<name>MVI_7378</name>
					<duration>14401</duration>
					<rate>
						<ntsc>TRUE</ntsc>
						<timebase>24</timebase>
					</rate>
					<in>0</in>
					<out>14401</out>
					<start>0</start>
					<end>14401</end>
					<pixelaspectratio>Square</pixelaspectratio>
					<anamorphic>FALSE</anamorphic>
					<alphatype>none</alphatype>
					<masterclipid>MVI_7378 1</masterclipid>
					<logginginfo>
						<scene/>
						<shottake/>
						<lognote/>
						<good>FALSE</good>
					</logginginfo>
					<labels>
						<label2/>
					</labels>
					<comments>
						<mastercomment1/>
						<mastercomment2/>
						<mastercomment3/>
						<mastercomment4/>
					</comments>
					<file id="MVI_7378 2">
						<name>MVI_7378.mov</name>
						<pathurl>file://localhost/Volumes/Nebula/MediaPackages/Golan/Color_prores/MVI_7378.mov</pathurl>
						<rate>
							<timebase>24</timebase>
							<ntsc>TRUE</ntsc>
						</rate>
						<duration>14401</duration>
						<media>
							<video>
								<duration>14401</duration>
								<samplecharacteristics>
									<width>1920</width>
									<height>1080</height>
								</samplecharacteristics>
							</video>
							<audio>
								<samplecharacteristics>
									<samplerate>48000</samplerate>
									<depth>16</depth>
								</samplecharacteristics>
								<channelcount>2</channelcount>
							</audio>
						</media>
					</file>
					<marker>
						<name>useless, whimsical</name>
						<comment>weird,career,art versus engineering</comment>
						<color>
							<alpha>0</alpha>
							<red>255</red>
							<green>0</green>
							<blue>0</blue>
						</color>
						<in>756</in>
						<out>1150</out>
					</marker>
					<marker>
						<name>wide open field</name>
						<comment>money, career, useless, </comment>
						<color>
							<alpha>0</alpha>
							<red>255</red>
							<green>0</green>
							<blue>0</blue>
						</color>
						<in>1547</in>
						<out>2013</out>
					</marker>
					<marker>
						<name>my mother the abstract painter</name>
						<comment>beginnings,children,art,painting, gesture,</comment>
						<color>
							<alpha>0</alpha>
							<red>255</red>
							<green>0</green>
							<blue>0</blue>
						</color>
						<in>2509</in>
						<out>3073</out>
					</marker>
					<marker>
						<name>yellow tail</name>
						<comment>project example, gesture, interactivity, drawing</comment>
						<color>
							<alpha>0</alpha>
							<red>255</red>
							<green>0</green>
							<blue>0</blue>
						</color>
						<in>4538</in>
						<out>5585</out>
					</marker>
					<marker>
						<name>playable image</name>
						<comment>performance, gesture, interactivity, audiovisualization, project example, play</comment>
						<color>
							<alpha>0</alpha>
							<red>255</red>
							<green>0</green>
							<blue>0</blue>
						</color>
						<in>6756</in>
						<out>7895</out>
					</marker>
					<marker>
						<name>eno</name>
						<comment>music, hybridity, </comment>
						<color>
							<alpha>0</alpha>
							<red>255</red>
							<green>0</green>
							<blue>0</blue>
						</color>
						<in>8621</in>
						<out>9762</out>
					</marker>
					<marker>
						<name> </name>
						<comment>beginnings,new media,career</comment>
						<color>
							<alpha>0</alpha>
							<red>255</red>
							<green>0</green>
							<blue>0</blue>
						</color>
						<in>10856</in>
						<out>11514</out>
					</marker>
					<marker>
						<name>instruments</name>
						<comment>Tools,interactivity,play,instrument,expression,exploration</comment>
						<color>
							<alpha>0</alpha>
							<red>255</red>
							<green>0</green>
							<blue>0</blue>
						</color>
						<in>12125</in>
						<out>13712</out>
					</marker>
					<marker>
						<name>piano and pencil,</name>
						<comment>instrument,gesture,mastery, tools&#13;</comment>
						<color>
							<alpha>0</alpha>
							<red>255</red>
							<green>0</green>
							<blue>0</blue>
						</color>
						<in>13786</in>
						<out>14334</out>
					</marker>
					<sourcetrack>
						<mediatype>video</mediatype>
					</sourcetrack>
					<link>
						<linkclipref>MVI_7378 </linkclipref>
						<mediatype>video</mediatype>
						<trackindex>1</trackindex>
						<clipindex>1</clipindex>
					</link>
					<link>
						<linkclipref>MVI_7378 3</linkclipref>
						<mediatype>audio</mediatype>
						<trackindex>1</trackindex>
						<clipindex>1</clipindex>
						<groupindex>1</groupindex>
					</link>
					<link>
						<linkclipref>MVI_7378 4</linkclipref>
						<mediatype>audio</mediatype>
						<trackindex>2</trackindex>
						<clipindex>1</clipindex>
						<groupindex>1</groupindex>
					</link>
					<fielddominance>none</fielddominance>
					<itemhistory>
						<uuid>9A5C4B24-624F-4B30-A113-AF25585D9CC0</uuid>
					</itemhistory>
				</clipitem>
				<clipitem id="MVI_7379 ">
					<name>MVI_7379</name>
					<duration>13382</duration>
					<rate>
						<ntsc>TRUE</ntsc>
						<timebase>24</timebase>
					</rate>
					<in>0</in>
					<out>13382</out>
					<start>14401</start>
					<end>27783</end>
					<pixelaspectratio>Square</pixelaspectratio>
					<enabled>TRUE</enabled>
					<anamorphic>FALSE</anamorphic>
					<alphatype>none</alphatype>
					<masterclipid>MVI_7379 1</masterclipid>
					<logginginfo>
						<scene/>
						<shottake/>
						<lognote/>
						<good>FALSE</good>
					</logginginfo>
					<labels>
						<label2/>
					</labels>
					<comments>
						<mastercomment1/>
						<mastercomment2/>
						<mastercomment3/>
						<mastercomment4/>
					</comments>
					<file id="MVI_7379 2">
						<name>MVI_7379.mov</name>
						<pathurl>file://localhost/Volumes/Nebula/MediaPackages/Golan/Color_prores/MVI_7379.mov</pathurl>
						<rate>
							<timebase>24</timebase>
							<ntsc>TRUE</ntsc>
						</rate>
						<duration>13382</duration>
						<media>
							<video>
								<duration>13382</duration>
								<samplecharacteristics>
									<width>1920</width>
									<height>1080</height>
								</samplecharacteristics>
							</video>
							<audio>
								<samplecharacteristics>
									<samplerate>48000</samplerate>
									<depth>16</depth>
								</samplecharacteristics>
								<channelcount>2</channelcount>
							</audio>
						</media>
					</file>
					<marker>
						<name>observation of users</name>
						<comment>interactivity,users</comment>
						<color>
							<alpha>0</alpha>
							<red>255</red>
							<green>0</green>
							<blue>0</blue>
						</color>
						<in>1029</in>
						<out>1506</out>
					</marker>
					<marker>
						<name>twitching in a room</name>
						<comment>interactivity, gesture, performance, mastery</comment>
						<color>
							<alpha>0</alpha>
							<red>255</red>
							<green>0</green>
							<blue>0</blue>
						</color>
						<in>2934</in>
						<out>5307</out>
					</marker>
					<marker>
						<name>what's an instrument?</name>
						<comment>instrument, play, thinking by doing,mind and hand</comment>
						<color>
							<alpha>0</alpha>
							<red>255</red>
							<green>0</green>
							<blue>0</blue>
						</color>
						<in>5894</in>
						<out>6689</out>
					</marker>
					<marker>
						<name>project example</name>
						<comment>magic, surprise, interactivity, project example, </comment>
						<color>
							<alpha>0</alpha>
							<red>255</red>
							<green>0</green>
							<blue>0</blue>
						</color>
						<in>6745</in>
						<out>8162</out>
					</marker>
					<marker>
						<name>Play</name>
						<comment>play, children,</comment>
						<color>
							<alpha>0</alpha>
							<red>255</red>
							<green>0</green>
							<blue>0</blue>
						</color>
						<in>12053</in>
						<out>12843</out>
					</marker>
					<sourcetrack>
						<mediatype>video</mediatype>
					</sourcetrack>
					<link>
						<linkclipref>MVI_7379 </linkclipref>
						<mediatype>video</mediatype>
						<trackindex>1</trackindex>
						<clipindex>2</clipindex>
					</link>
					<link>
						<linkclipref>MVI_7379 3</linkclipref>
						<mediatype>audio</mediatype>
						<trackindex>1</trackindex>
						<clipindex>2</clipindex>
						<groupindex>1</groupindex>
					</link>
					<link>
						<linkclipref>MVI_7379 4</linkclipref>
						<mediatype>audio</mediatype>
						<trackindex>2</trackindex>
						<clipindex>2</clipindex>
						<groupindex>1</groupindex>
					</link>
					<fielddominance>none</fielddominance>
					<itemhistory>
						<uuid>6D130AA6-5EB7-4E98-8F68-21D1B631FAC7</uuid>
					</itemhistory>
				</clipitem>
				<clipitem id="MVI_7380 ">
					<name>MVI_7380</name>
					<duration>18833</duration>
					<rate>
						<ntsc>TRUE</ntsc>
						<timebase>24</timebase>
					</rate>
					<in>0</in>
					<out>18833</out>
					<start>27783</start>
					<end>46616</end>
					<pixelaspectratio>Square</pixelaspectratio>
					<enabled>TRUE</enabled>
					<anamorphic>FALSE</anamorphic>
					<alphatype>none</alphatype>
					<masterclipid>MVI_7380 1</masterclipid>
					<logginginfo>
						<scene/>
						<shottake/>
						<lognote/>
						<good>FALSE</good>
					</logginginfo>
					<labels>
						<label2/>
					</labels>
					<comments>
						<mastercomment1/>
						<mastercomment2/>
						<mastercomment3/>
						<mastercomment4/>
					</comments>
					<file id="MVI_7380 2">
						<name>MVI_7380.mov</name>
						<pathurl>file://localhost/Volumes/Nebula/MediaPackages/Golan/Color_prores/MVI_7380.mov</pathurl>
						<rate>
							<timebase>24</timebase>
							<ntsc>TRUE</ntsc>
						</rate>
						<duration>18833</duration>
						<media>
							<video>
								<duration>18833</duration>
								<samplecharacteristics>
									<width>1920</width>
									<height>1080</height>
								</samplecharacteristics>
							</video>
							<audio>
								<samplecharacteristics>
									<samplerate>48000</samplerate>
									<depth>16</depth>
								</samplecharacteristics>
								<channelcount>2</channelcount>
							</audio>
						</media>
					</file>
					<marker>
						<name>why major in art</name>
						<comment>art versus engineering,career,money</comment>
						<color>
							<alpha>0</alpha>
							<red>255</red>
							<green>0</green>
							<blue>0</blue>
						</color>
						<in>1787</in>
						<out>2586</out>
					</marker>
					<marker>
						<name>Marker 2</name>
						<comment>art versus engineering,work</comment>
						<color>
							<alpha>0</alpha>
							<red>255</red>
							<green>0</green>
							<blue>0</blue>
						</color>
						<in>3307</in>
						<out>3811</out>
					</marker>
					<marker>
						<name>make a mark</name>
						<comment>improvization,thinking by doing,painting,processing, drawing, sketching&#13;</comment>
						<color>
							<alpha>0</alpha>
							<red>255</red>
							<green>0</green>
							<blue>0</blue>
						</color>
						<in>6009</in>
						<out>6498</out>
					</marker>
					<marker>
						<name>woah</name>
						<comment>systems,improvization,randomness,surprise</comment>
						<color>
							<alpha>0</alpha>
							<red>255</red>
							<green>0</green>
							<blue>0</blue>
						</color>
						<in>8454</in>
						<out>9013</out>
					</marker>
					<marker>
						<name>woah2</name>
						<comment>systems,improvization,randomness,surprise</comment>
						<color>
							<alpha>0</alpha>
							<red>255</red>
							<green>0</green>
							<blue>0</blue>
						</color>
						<in>9827</in>
						<out>10423</out>
					</marker>
					<marker>
						<name>would be boring</name>
						<comment>surprise, serendipity</comment>
						<color>
							<alpha>0</alpha>
							<red>255</red>
							<green>0</green>
							<blue>0</blue>
						</color>
						<in>10758</in>
						<out>11024</out>
					</marker>
					<marker>
						<name>this to that</name>
						<comment>new media,critique,feedback</comment>
						<color>
							<alpha>0</alpha>
							<red>255</red>
							<green>0</green>
							<blue>0</blue>
						</color>
						<in>11234</in>
						<out>12548</out>
					</marker>
					<marker>
						<name>emotion</name>
						<comment>emotion, new media, project examples, data visualization,</comment>
						<color>
							<alpha>0</alpha>
							<red>255</red>
							<green>0</green>
							<blue>0</blue>
						</color>
						<in>13798</in>
						<out>14399</out>
					</marker>
					<marker>
						<name>listening post</name>
						<comment>people,emotion,data visualization,data,storytelling</comment>
						<color>
							<alpha>0</alpha>
							<red>255</red>
							<green>0</green>
							<blue>0</blue>
						</color>
						<in>17212</in>
						<out>18566</out>
					</marker>
					<sourcetrack>
						<mediatype>video</mediatype>
					</sourcetrack>
					<link>
						<linkclipref>MVI_7380 </linkclipref>
						<mediatype>video</mediatype>
						<trackindex>1</trackindex>
						<clipindex>3</clipindex>
					</link>
					<link>
						<linkclipref>MVI_7380 3</linkclipref>
						<mediatype>audio</mediatype>
						<trackindex>1</trackindex>
						<clipindex>3</clipindex>
						<groupindex>1</groupindex>
					</link>
					<link>
						<linkclipref>MVI_7380 4</linkclipref>
						<mediatype>audio</mediatype>
						<trackindex>2</trackindex>
						<clipindex>3</clipindex>
						<groupindex>1</groupindex>
					</link>
					<fielddominance>none</fielddominance>
					<itemhistory>
						<uuid>4D4FB332-9A71-4C61-8178-EA48F0C1652B</uuid>
					</itemhistory>
				</clipitem>
				<clipitem id="MVI_7381 ">
					<name>MVI_7381</name>
					<duration>17840</duration>
					<rate>
						<ntsc>TRUE</ntsc>
						<timebase>24</timebase>
					</rate>
					<in>0</in>
					<out>17840</out>
					<start>46616</start>
					<end>64456</end>
					<pixelaspectratio>Square</pixelaspectratio>
					<anamorphic>FALSE</anamorphic>
					<alphatype>none</alphatype>
					<masterclipid>MVI_7381 1</masterclipid>
					<logginginfo>
						<scene/>
						<shottake/>
						<lognote/>
						<good>FALSE</good>
					</logginginfo>
					<labels>
						<label2/>
					</labels>
					<comments>
						<mastercomment1/>
						<mastercomment2/>
						<mastercomment3/>
						<mastercomment4/>
					</comments>
					<file id="MVI_7381 2">
						<name>MVI_7381.mov</name>
						<pathurl>file://localhost/Volumes/Nebula/MediaPackages/Golan/Color_prores/MVI_7381.mov</pathurl>
						<rate>
							<timebase>24</timebase>
							<ntsc>TRUE</ntsc>
						</rate>
						<duration>17840</duration>
						<media>
							<video>
								<duration>17840</duration>
								<samplecharacteristics>
									<width>1920</width>
									<height>1080</height>
								</samplecharacteristics>
							</video>
							<audio>
								<samplecharacteristics>
									<samplerate>48000</samplerate>
									<depth>16</depth>
								</samplecharacteristics>
								<channelcount>2</channelcount>
							</audio>
						</media>
					</file>
					<marker>
						<name>hybridity</name>
						<comment>hybridity</comment>
						<color>
							<alpha>0</alpha>
							<red>255</red>
							<green>0</green>
							<blue>0</blue>
						</color>
						<in>893</in>
						<out>1288</out>
					</marker>
					<marker>
						<name>hybridity2</name>
						<comment>hybridity, before the internet,</comment>
						<color>
							<alpha>0</alpha>
							<red>255</red>
							<green>0</green>
							<blue>0</blue>
						</color>
						<in>1588</in>
						<out>2318</out>
					</marker>
					<marker>
						<name>people like myself</name>
						<comment>hybridity, nerd, tribe</comment>
						<color>
							<alpha>0</alpha>
							<red>255</red>
							<green>0</green>
							<blue>0</blue>
						</color>
						<in>2468</in>
						<out>2842</out>
					</marker>
					<marker>
						<name>people like myself</name>
						<comment>hybridity, nerd, tribe</comment>
						<color>
							<alpha>0</alpha>
							<red>255</red>
							<green>0</green>
							<blue>0</blue>
						</color>
						<in>3584</in>
						<out>3771</out>
					</marker>
					<marker>
						<name>MIT</name>
						<comment>john maeda,aesthetics and computation,beginnings, media lab</comment>
						<color>
							<alpha>0</alpha>
							<red>255</red>
							<green>0</green>
							<blue>0</blue>
						</color>
						<in>4162</in>
						<out>5523</out>
					</marker>
					<marker>
						<name>ACG</name>
						<comment>john maeda,aesthetics and computation,hybridity,art and code, new media, media lab</comment>
						<color>
							<alpha>0</alpha>
							<red>255</red>
							<green>0</green>
							<blue>0</blue>
						</color>
						<in>5531</in>
						<out>6203</out>
					</marker>
					<marker>
						<name>people at MIT</name>
						<comment>media lab,aesthetics and computation</comment>
						<color>
							<alpha>0</alpha>
							<red>255</red>
							<green>0</green>
							<blue>0</blue>
						</color>
						<in>6694</in>
						<out>7282</out>
					</marker>
					<marker>
						<name>ACG3</name>
						<comment>media lab,aesthetics and computation,design and art</comment>
						<color>
							<alpha>0</alpha>
							<red>255</red>
							<green>0</green>
							<blue>0</blue>
						</color>
						<in>7495</in>
						<out>7924</out>
					</marker>
					<marker>
						<name>Kyle</name>
						<comment>open source,sharing,kill the master,heroes,community,gift,teachers,teachers and mentors</comment>
						<color>
							<alpha>0</alpha>
							<red>255</red>
							<green>0</green>
							<blue>0</blue>
						</color>
						<in>9182</in>
						<out>10700</out>
					</marker>
					<marker>
						<name>closed source mistake</name>
						<comment>open source,sharing</comment>
						<color>
							<alpha>0</alpha>
							<red>255</red>
							<green>0</green>
							<blue>0</blue>
						</color>
						<in>11174</in>
						<out>12914</out>
					</marker>
					<marker>
						<name>pedagogical impulse</name>
						<comment>sharing, education, media lab, &#13;aesthetics and computation,</comment>
						<color>
							<alpha>0</alpha>
							<red>255</red>
							<green>0</green>
							<blue>0</blue>
						</color>
						<in>13038</in>
						<out>13865</out>
					</marker>
					<marker>
						<name>limits to sharing</name>
						<comment>sharing, open source, tools,toolkit</comment>
						<color>
							<alpha>0</alpha>
							<red>255</red>
							<green>0</green>
							<blue>0</blue>
						</color>
						<in>13865</in>
						<out>15498</out>
					</marker>
					<marker>
						<name>damn</name>
						<comment>sharing&#13;</comment>
						<color>
							<alpha>0</alpha>
							<red>255</red>
							<green>0</green>
							<blue>0</blue>
						</color>
						<in>15815</in>
						<out>16025</out>
					</marker>
					<marker>
						<name>keeping you stuff working</name>
						<comment>archiving,preservation,newness,new media old media</comment>
						<color>
							<alpha>0</alpha>
							<red>255</red>
							<green>0</green>
							<blue>0</blue>
						</color>
						<in>16365</in>
						<out>17405</out>
					</marker>
					<filter>
						<effect>
							<name>Basic Motion</name>
							<effectid>basic</effectid>
							<effectcategory>motion</effectcategory>
							<effecttype>motion</effecttype>
							<mediatype>video</mediatype>
							<parameter>
								<parameterid>center</parameterid>
								<name>Center</name>
								<value>
									<horiz>0.00104167</horiz>
									<vert>0</vert>
								</value>
							</parameter>
						</effect>
					</filter>
					<sourcetrack>
						<mediatype>video</mediatype>
					</sourcetrack>
					<link>
						<linkclipref>MVI_7381 </linkclipref>
						<mediatype>video</mediatype>
						<trackindex>1</trackindex>
						<clipindex>4</clipindex>
					</link>
					<link>
						<linkclipref>MVI_7381 3</linkclipref>
						<mediatype>audio</mediatype>
						<trackindex>1</trackindex>
						<clipindex>4</clipindex>
						<groupindex>1</groupindex>
					</link>
					<link>
						<linkclipref>MVI_7381 4</linkclipref>
						<mediatype>audio</mediatype>
						<trackindex>2</trackindex>
						<clipindex>4</clipindex>
						<groupindex>1</groupindex>
					</link>
					<fielddominance>none</fielddominance>
					<itemhistory>
						<uuid>59303959-F59A-4BA2-ABFA-4D0D59A65351</uuid>
					</itemhistory>
				</clipitem>
				<clipitem id="MVI_7383 ">
					<name>MVI_7383</name>
					<duration>13565</duration>
					<rate>
						<ntsc>TRUE</ntsc>
						<timebase>24</timebase>
					</rate>
					<in>0</in>
					<out>13565</out>
					<start>64456</start>
					<end>78021</end>
					<pixelaspectratio>Square</pixelaspectratio>
					<anamorphic>FALSE</anamorphic>
					<alphatype>none</alphatype>
					<masterclipid>MVI_7383 1</masterclipid>
					<logginginfo>
						<scene/>
						<shottake/>
						<lognote/>
						<good>FALSE</good>
					</logginginfo>
					<labels>
						<label2/>
					</labels>
					<comments>
						<mastercomment1/>
						<mastercomment2/>
						<mastercomment3/>
						<mastercomment4/>
					</comments>
					<file id="MVI_7383 2">
						<name>MVI_7383.mov</name>
						<pathurl>file://localhost/Volumes/Nebula/MediaPackages/Golan/Color_prores/MVI_7383.mov</pathurl>
						<rate>
							<timebase>24</timebase>
							<ntsc>TRUE</ntsc>
						</rate>
						<duration>13565</duration>
						<media>
							<video>
								<duration>13565</duration>
								<samplecharacteristics>
									<width>1920</width>
									<height>1080</height>
								</samplecharacteristics>
							</video>
							<audio>
								<samplecharacteristics>
									<samplerate>48000</samplerate>
									<depth>16</depth>
								</samplecharacteristics>
								<channelcount>2</channelcount>
							</audio>
						</media>
					</file>
					<marker>
						<name>sad not to be making</name>
						<comment>responsibility,career</comment>
						<color>
							<alpha>0</alpha>
							<red>255</red>
							<green>0</green>
							<blue>0</blue>
						</color>
						<in>1651</in>
						<out>2239</out>
					</marker>
					<marker>
						<name>administrating versus making</name>
						<comment>teaching, education, career</comment>
						<color>
							<alpha>0</alpha>
							<red>255</red>
							<green>0</green>
							<blue>0</blue>
						</color>
						<in>2302</in>
						<out>3714</out>
					</marker>
					<marker>
						<name>STUDIO art and code</name>
						<comment>STUDIO,art and code, kinect&#13;</comment>
						<color>
							<alpha>0</alpha>
							<red>255</red>
							<green>0</green>
							<blue>0</blue>
						</color>
						<in>3884</in>
						<out>4868</out>
					</marker>
					<marker>
						<name>open data</name>
						<comment>data,data ownership,data visualization</comment>
						<color>
							<alpha>0</alpha>
							<red>255</red>
							<green>0</green>
							<blue>0</blue>
						</color>
						<in>6776</in>
						<out>8263</out>
					</marker>
					<marker>
						<name>hackathon</name>
						<comment>collaboration, hackathon</comment>
						<color>
							<alpha>0</alpha>
							<red>255</red>
							<green>0</green>
							<blue>0</blue>
						</color>
						<in>8271</in>
						<out>9157</out>
					</marker>
					<marker>
						<name>hackathons2</name>
						<comment>open source, hackathon, collaboration</comment>
						<color>
							<alpha>0</alpha>
							<red>255</red>
							<green>0</green>
							<blue>0</blue>
						</color>
						<in>9380</in>
						<out>10798</out>
					</marker>
					<sourcetrack>
						<mediatype>video</mediatype>
					</sourcetrack>
					<link>
						<linkclipref>MVI_7383 </linkclipref>
						<mediatype>video</mediatype>
						<trackindex>1</trackindex>
						<clipindex>5</clipindex>
					</link>
					<link>
						<linkclipref>MVI_7383 3</linkclipref>
						<mediatype>audio</mediatype>
						<trackindex>1</trackindex>
						<clipindex>5</clipindex>
						<groupindex>1</groupindex>
					</link>
					<link>
						<linkclipref>MVI_7383 4</linkclipref>
						<mediatype>audio</mediatype>
						<trackindex>2</trackindex>
						<clipindex>5</clipindex>
						<groupindex>1</groupindex>
					</link>
					<fielddominance>none</fielddominance>
					<itemhistory>
						<uuid>7E68D7D3-95E8-4FC0-A972-2AC486C6F1BD</uuid>
					</itemhistory>
				</clipitem>
				<clipitem id="MVI_7385 ">
					<name>MVI_7385</name>
					<duration>6979</duration>
					<rate>
						<ntsc>TRUE</ntsc>
						<timebase>24</timebase>
					</rate>
					<in>0</in>
					<out>6979</out>
					<start>78021</start>
					<end>85000</end>
					<pixelaspectratio>Square</pixelaspectratio>
					<anamorphic>FALSE</anamorphic>
					<alphatype>none</alphatype>
					<masterclipid>MVI_7385 1</masterclipid>
					<logginginfo>
						<scene/>
						<shottake/>
						<lognote/>
						<good>FALSE</good>
					</logginginfo>
					<labels>
						<label2/>
					</labels>
					<comments>
						<mastercomment1/>
						<mastercomment2/>
						<mastercomment3/>
						<mastercomment4/>
					</comments>
					<file id="MVI_7385 2">
						<name>MVI_7385.mov</name>
						<pathurl>file://localhost/Volumes/Nebula/MediaPackages/Golan/Color_prores/MVI_7385.mov</pathurl>
						<rate>
							<timebase>24</timebase>
							<ntsc>TRUE</ntsc>
						</rate>
						<duration>6979</duration>
						<media>
							<video>
								<duration>6979</duration>
								<samplecharacteristics>
									<width>1920</width>
									<height>1080</height>
								</samplecharacteristics>
							</video>
							<audio>
								<samplecharacteristics>
									<samplerate>48000</samplerate>
									<depth>16</depth>
								</samplecharacteristics>
								<channelcount>2</channelcount>
							</audio>
						</media>
					</file>
					<marker>
						<name>Anxious about the future</name>
						<comment>solutions,coding for humanity,survival,future</comment>
						<color>
							<alpha>0</alpha>
							<red>255</red>
							<green>0</green>
							<blue>0</blue>
						</color>
						<in>1817</in>
						<out>3418</out>
					</marker>
					<marker>
						<name>staring down the barrel</name>
						<comment>solutions,coding for humanity,survival,future, technological progress, dystopia&#13;</comment>
						<color>
							<alpha>0</alpha>
							<red>255</red>
							<green>0</green>
							<blue>0</blue>
						</color>
						<in>4215</in>
						<out>5336</out>
					</marker>
					<sourcetrack>
						<mediatype>video</mediatype>
					</sourcetrack>
					<link>
						<linkclipref>MVI_7385 </linkclipref>
						<mediatype>video</mediatype>
						<trackindex>1</trackindex>
						<clipindex>6</clipindex>
					</link>
					<link>
						<linkclipref>MVI_7385 3</linkclipref>
						<mediatype>audio</mediatype>
						<trackindex>1</trackindex>
						<clipindex>6</clipindex>
						<groupindex>1</groupindex>
					</link>
					<link>
						<linkclipref>MVI_7385 4</linkclipref>
						<mediatype>audio</mediatype>
						<trackindex>2</trackindex>
						<clipindex>6</clipindex>
						<groupindex>1</groupindex>
					</link>
					<fielddominance>none</fielddominance>
					<itemhistory>
						<uuid>CBF07B3E-0EF7-406C-A36E-DF48ED5E00D0</uuid>
					</itemhistory>
				</clipitem>
				<clipitem id="MVI_7386 ">
					<name>MVI_7386</name>
					<duration>10419</duration>
					<rate>
						<ntsc>TRUE</ntsc>
						<timebase>24</timebase>
					</rate>
					<in>0</in>
					<out>10419</out>
					<start>85000</start>
					<end>95419</end>
					<pixelaspectratio>Square</pixelaspectratio>
					<anamorphic>FALSE</anamorphic>
					<alphatype>none</alphatype>
					<masterclipid>MVI_7386 1</masterclipid>
					<logginginfo>
						<scene/>
						<shottake/>
						<lognote/>
						<good>FALSE</good>
					</logginginfo>
					<labels>
						<label2/>
					</labels>
					<comments>
						<mastercomment1/>
						<mastercomment2/>
						<mastercomment3/>
						<mastercomment4/>
					</comments>
					<file id="MVI_7386 2">
						<name>MVI_7386.mov</name>
						<pathurl>file://localhost/Volumes/Nebula/MediaPackages/Golan/Color_prores/MVI_7386.mov</pathurl>
						<rate>
							<timebase>24</timebase>
							<ntsc>TRUE</ntsc>
						</rate>
						<duration>10419</duration>
						<media>
							<video>
								<duration>10419</duration>
								<samplecharacteristics>
									<width>1920</width>
									<height>1080</height>
								</samplecharacteristics>
							</video>
							<audio>
								<samplecharacteristics>
									<samplerate>48000</samplerate>
									<depth>16</depth>
								</samplecharacteristics>
								<channelcount>2</channelcount>
							</audio>
						</media>
					</file>
					<marker>
						<name>why make art</name>
						<comment>why,useless,art</comment>
						<color>
							<alpha>0</alpha>
							<red>255</red>
							<green>0</green>
							<blue>0</blue>
						</color>
						<in>96</in>
						<out>1402</out>
					</marker>
					<marker>
						<name>formalism</name>
						<comment>formalism,math,beauty,beautiful exhuberance</comment>
						<color>
							<alpha>0</alpha>
							<red>255</red>
							<green>0</green>
							<blue>0</blue>
						</color>
						<in>2579</in>
						<out>4190</out>
					</marker>
					<marker>
						<name>audiovisual concept</name>
						<comment>audiovisualization,beauty,systems,synesthesia,behavior</comment>
						<color>
							<alpha>0</alpha>
							<red>255</red>
							<green>0</green>
							<blue>0</blue>
						</color>
						<in>4235</in>
						<out>4880</out>
					</marker>
					<marker>
						<name>easy beauty</name>
						<comment>beauty,aesthetics,critique</comment>
						<color>
							<alpha>0</alpha>
							<red>255</red>
							<green>0</green>
							<blue>0</blue>
						</color>
						<in>5015</in>
						<out>5542</out>
					</marker>
					<marker>
						<name>raytraced spheres</name>
						<comment>newness,new media old media,nostalgia, history&#13;</comment>
						<color>
							<alpha>0</alpha>
							<red>255</red>
							<green>0</green>
							<blue>0</blue>
						</color>
						<in>6592</in>
						<out>7078</out>
					</marker>
					<marker>
						<name>laughter</name>
						<comment>laughter,emotion, weird&#13;</comment>
						<color>
							<alpha>0</alpha>
							<red>255</red>
							<green>0</green>
							<blue>0</blue>
						</color>
						<in>8613</in>
						<out>9370</out>
					</marker>
					<marker>
						<name>laughter2</name>
						<comment>laughter,emotion</comment>
						<color>
							<alpha>0</alpha>
							<red>255</red>
							<green>0</green>
							<blue>0</blue>
						</color>
						<in>9370</in>
						<out>9959</out>
					</marker>
					<sourcetrack>
						<mediatype>video</mediatype>
					</sourcetrack>
					<link>
						<linkclipref>MVI_7386 </linkclipref>
						<mediatype>video</mediatype>
						<trackindex>1</trackindex>
						<clipindex>7</clipindex>
					</link>
					<link>
						<linkclipref>MVI_7386 3</linkclipref>
						<mediatype>audio</mediatype>
						<trackindex>1</trackindex>
						<clipindex>7</clipindex>
						<groupindex>1</groupindex>
					</link>
					<link>
						<linkclipref>MVI_7386 4</linkclipref>
						<mediatype>audio</mediatype>
						<trackindex>2</trackindex>
						<clipindex>7</clipindex>
						<groupindex>1</groupindex>
					</link>
					<fielddominance>none</fielddominance>
					<itemhistory>
						<uuid>FD4D954F-F21F-4856-A0DA-70CDB7F08952</uuid>
					</itemhistory>
				</clipitem>
				<clipitem id="MVI_7387 ">
					<name>MVI_7387</name>
					<duration>4413</duration>
					<rate>
						<ntsc>TRUE</ntsc>
						<timebase>24</timebase>
					</rate>
					<in>0</in>
					<out>4413</out>
					<start>95419</start>
					<end>99832</end>
					<pixelaspectratio>Square</pixelaspectratio>
					<enabled>TRUE</enabled>
					<anamorphic>FALSE</anamorphic>
					<alphatype>none</alphatype>
					<masterclipid>MVI_7387 1</masterclipid>
					<logginginfo>
						<scene/>
						<shottake/>
						<lognote/>
						<good>FALSE</good>
					</logginginfo>
					<labels>
						<label2/>
					</labels>
					<comments>
						<mastercomment1/>
						<mastercomment2/>
						<mastercomment3/>
						<mastercomment4/>
					</comments>
					<file id="MVI_7387 2">
						<name>MVI_7387.mov</name>
						<pathurl>file://localhost/Volumes/Nebula/MediaPackages/Golan/Color_prores/MVI_7387.mov</pathurl>
						<rate>
							<timebase>24</timebase>
							<ntsc>TRUE</ntsc>
						</rate>
						<duration>4413</duration>
						<media>
							<video>
								<duration>4413</duration>
								<samplecharacteristics>
									<width>1920</width>
									<height>1080</height>
								</samplecharacteristics>
							</video>
							<audio>
								<samplecharacteristics>
									<samplerate>48000</samplerate>
									<depth>16</depth>
								</samplecharacteristics>
								<channelcount>2</channelcount>
							</audio>
						</media>
					</file>
					<marker>
						<name>kerrington</name>
						<comment>apocalypse,survival,future, weird&#13;&#13;&#13;</comment>
						<color>
							<alpha>0</alpha>
							<red>255</red>
							<green>0</green>
							<blue>0</blue>
						</color>
						<in>334</in>
						<out>1365</out>
					</marker>
					<marker>
						<name>kessler</name>
						<comment>apocalypse,survival,future, weird&#13;&#13;</comment>
						<color>
							<alpha>0</alpha>
							<red>255</red>
							<green>0</green>
							<blue>0</blue>
						</color>
						<in>1365</in>
						<out>3011</out>
					</marker>
					<marker>
						<name>apocalypse3</name>
						<comment>apocalypse,survival,future,</comment>
						<color>
							<alpha>0</alpha>
							<red>255</red>
							<green>0</green>
							<blue>0</blue>
						</color>
						<in>3044</in>
						<out>4359</out>
					</marker>
					<sourcetrack>
						<mediatype>video</mediatype>
					</sourcetrack>
					<link>
						<linkclipref>MVI_7387 </linkclipref>
						<mediatype>video</mediatype>
						<trackindex>1</trackindex>
						<clipindex>8</clipindex>
					</link>
					<link>
						<linkclipref>MVI_7387 3</linkclipref>
						<mediatype>audio</mediatype>
						<trackindex>1</trackindex>
						<clipindex>8</clipindex>
						<groupindex>1</groupindex>
					</link>
					<link>
						<linkclipref>MVI_7387 4</linkclipref>
						<mediatype>audio</mediatype>
						<trackindex>2</trackindex>
						<clipindex>8</clipindex>
						<groupindex>1</groupindex>
					</link>
					<fielddominance>none</fielddominance>
					<itemhistory>
						<uuid>DAE2D2DA-F7AF-4ECD-8EFC-5CAAF3675B37</uuid>
					</itemhistory>
				</clipitem>
				<enabled>TRUE</enabled>
				<locked>FALSE</locked>
			</track>
			<track>
				<clipitem id="MVI_7379 5">
					<name>MVI_7379</name>
					<duration>13382</duration>
					<rate>
						<ntsc>TRUE</ntsc>
						<timebase>24</timebase>
					</rate>
					<in>0</in>
					<out>13382</out>
					<start>14401</start>
					<end>27783</end>
					<pixelaspectratio>Square</pixelaspectratio>
					<enabled>TRUE</enabled>
					<anamorphic>FALSE</anamorphic>
					<alphatype>none</alphatype>
					<masterclipid>MVI_7379 1</masterclipid>
					<logginginfo>
						<scene/>
						<shottake/>
						<lognote/>
						<good>FALSE</good>
					</logginginfo>
					<labels>
						<label2/>
					</labels>
					<comments>
						<mastercomment1/>
						<mastercomment2/>
						<mastercomment3/>
						<mastercomment4/>
					</comments>
					<file id="MVI_7379 2"/>
					<marker>
						<name>jolted into the NOW</name>
						<comment>zen, interactivity, experience, time</comment>
						<color>
							<alpha>0</alpha>
							<red>255</red>
							<green>0</green>
							<blue>0</blue>
						</color>
						<in>8014</in>
						<out>8948</out>
					</marker>
					<sourcetrack>
						<mediatype>video</mediatype>
					</sourcetrack>
					<link>
						<linkclipref>MVI_7379 5</linkclipref>
						<mediatype>video</mediatype>
						<trackindex>2</trackindex>
						<clipindex>1</clipindex>
					</link>
					<fielddominance>none</fielddominance>
					<itemhistory>
						<uuid>1B3F9B44-1F0E-45F5-831D-E257FEB40766</uuid>
					</itemhistory>
				</clipitem>
				<enabled>TRUE</enabled>
				<locked>FALSE</locked>
			</track>
		</video>
		<audio>
			<format>
				<samplecharacteristics>
					<depth>16</depth>
					<samplerate>48000</samplerate>
				</samplecharacteristics>
			</format>
			<outputs>
				<group>
					<index>1</index>
					<numchannels>2</numchannels>
					<downmix>0</downmix>
					<channel>
						<index>1</index>
					</channel>
					<channel>
						<index>2</index>
					</channel>
				</group>
			</outputs>
			<in>1547</in>
			<out>-1</out>
			<track>
				<clipitem id="MVI_7378 3">
					<name>MVI_7378</name>
					<duration>14401</duration>
					<rate>
						<ntsc>TRUE</ntsc>
						<timebase>24</timebase>
					</rate>
					<in>0</in>
					<out>14401</out>
					<start>0</start>
					<end>14401</end>
					<masterclipid>MVI_7378 1</masterclipid>
					<logginginfo>
						<scene/>
						<shottake/>
						<lognote/>
						<good>FALSE</good>
					</logginginfo>
					<labels>
						<label2/>
					</labels>
					<comments>
						<mastercomment1/>
						<mastercomment2/>
						<mastercomment3/>
						<mastercomment4/>
					</comments>
					<file id="MVI_7378 2"/>
					<marker>
						<name>useless, whimsical</name>
						<comment>weird,career,art versus engineering</comment>
						<color>
							<alpha>0</alpha>
							<red>255</red>
							<green>0</green>
							<blue>0</blue>
						</color>
						<in>756</in>
						<out>1150</out>
					</marker>
					<marker>
						<name>wide open field</name>
						<comment>money, career, useless, </comment>
						<color>
							<alpha>0</alpha>
							<red>255</red>
							<green>0</green>
							<blue>0</blue>
						</color>
						<in>1547</in>
						<out>2013</out>
					</marker>
					<marker>
						<name>my mother the abstract painter</name>
						<comment>beginnings,children,art,painting, gesture,</comment>
						<color>
							<alpha>0</alpha>
							<red>255</red>
							<green>0</green>
							<blue>0</blue>
						</color>
						<in>2509</in>
						<out>3073</out>
					</marker>
					<marker>
						<name>yellow tail</name>
						<comment>project example, gesture, interactivity, drawing</comment>
						<color>
							<alpha>0</alpha>
							<red>255</red>
							<green>0</green>
							<blue>0</blue>
						</color>
						<in>4538</in>
						<out>5585</out>
					</marker>
					<marker>
						<name>playable image</name>
						<comment>performance, gesture, interactivity, audiovisualization, project example, play</comment>
						<color>
							<alpha>0</alpha>
							<red>255</red>
							<green>0</green>
							<blue>0</blue>
						</color>
						<in>6756</in>
						<out>7895</out>
					</marker>
					<marker>
						<name>eno</name>
						<comment>music, hybridity, </comment>
						<color>
							<alpha>0</alpha>
							<red>255</red>
							<green>0</green>
							<blue>0</blue>
						</color>
						<in>8621</in>
						<out>9762</out>
					</marker>
					<marker>
						<name> </name>
						<comment>beginnings,new media,career</comment>
						<color>
							<alpha>0</alpha>
							<red>255</red>
							<green>0</green>
							<blue>0</blue>
						</color>
						<in>10856</in>
						<out>11514</out>
					</marker>
					<marker>
						<name>instruments</name>
						<comment>Tools,interactivity,play,instrument,expression,exploration</comment>
						<color>
							<alpha>0</alpha>
							<red>255</red>
							<green>0</green>
							<blue>0</blue>
						</color>
						<in>12125</in>
						<out>13712</out>
					</marker>
					<marker>
						<name>piano and pencil,</name>
						<comment>instrument,gesture,mastery, tools&#13;</comment>
						<color>
							<alpha>0</alpha>
							<red>255</red>
							<green>0</green>
							<blue>0</blue>
						</color>
						<in>13786</in>
						<out>14334</out>
					</marker>
					<filter>
						<effect>
							<name>Audio Levels</name>
							<effectid>audiolevels</effectid>
							<effectcategory>audiolevels</effectcategory>
							<effecttype>audiolevels</effecttype>
							<mediatype>audio</mediatype>
							<parameter>
								<name>Level</name>
								<parameterid>level</parameterid>
								<valuemin>0</valuemin>
								<valuemax>3.98109</valuemax>
								<value>1</value>
							</parameter>
						</effect>
					</filter>
					<filter>
						<effect>
							<name>Audio Pan</name>
							<effectid>audiopan</effectid>
							<effectcategory>audiopan</effectcategory>
							<effecttype>audiopan</effecttype>
							<mediatype>audio</mediatype>
							<parameter>
								<name>Pan</name>
								<parameterid>pan</parameterid>
								<valuemin>-1</valuemin>
								<valuemax>1</valuemax>
								<value>-1</value>
							</parameter>
						</effect>
					</filter>
					<sourcetrack>
						<mediatype>audio</mediatype>
						<trackindex>1</trackindex>
					</sourcetrack>
					<link>
						<linkclipref>MVI_7378 </linkclipref>
						<mediatype>video</mediatype>
						<trackindex>1</trackindex>
						<clipindex>1</clipindex>
					</link>
					<link>
						<linkclipref>MVI_7378 3</linkclipref>
						<mediatype>audio</mediatype>
						<trackindex>1</trackindex>
						<clipindex>1</clipindex>
						<groupindex>1</groupindex>
					</link>
					<link>
						<linkclipref>MVI_7378 4</linkclipref>
						<mediatype>audio</mediatype>
						<trackindex>2</trackindex>
						<clipindex>1</clipindex>
						<groupindex>1</groupindex>
					</link>
					<itemhistory>
						<uuid>527179D4-DD0A-4D3D-8192-4225136BFF6F</uuid>
					</itemhistory>
				</clipitem>
				<clipitem id="MVI_7379 3">
					<name>MVI_7379</name>
					<duration>13382</duration>
					<rate>
						<ntsc>TRUE</ntsc>
						<timebase>24</timebase>
					</rate>
					<in>0</in>
					<out>13382</out>
					<start>14401</start>
					<end>27783</end>
					<masterclipid>MVI_7379 1</masterclipid>
					<logginginfo>
						<scene/>
						<shottake/>
						<lognote/>
						<good>FALSE</good>
					</logginginfo>
					<labels>
						<label2/>
					</labels>
					<comments>
						<mastercomment1/>
						<mastercomment2/>
						<mastercomment3/>
						<mastercomment4/>
					</comments>
					<file id="MVI_7379 2"/>
					<marker>
						<name>observation of users</name>
						<comment>interactivity,users</comment>
						<color>
							<alpha>0</alpha>
							<red>255</red>
							<green>0</green>
							<blue>0</blue>
						</color>
						<in>1029</in>
						<out>1506</out>
					</marker>
					<marker>
						<name>twitching in a room</name>
						<comment>interactivity, gesture, performance, mastery</comment>
						<color>
							<alpha>0</alpha>
							<red>255</red>
							<green>0</green>
							<blue>0</blue>
						</color>
						<in>2934</in>
						<out>5307</out>
					</marker>
					<marker>
						<name>what's an instrument?</name>
						<comment>instrument, play, thinking by doing,mind and hand</comment>
						<color>
							<alpha>0</alpha>
							<red>255</red>
							<green>0</green>
							<blue>0</blue>
						</color>
						<in>5894</in>
						<out>6689</out>
					</marker>
					<marker>
						<name>project example</name>
						<comment>magic, surprise, interactivity, project example, </comment>
						<color>
							<alpha>0</alpha>
							<red>255</red>
							<green>0</green>
							<blue>0</blue>
						</color>
						<in>6745</in>
						<out>8162</out>
					</marker>
					<marker>
						<name>Play</name>
						<comment>play, children,</comment>
						<color>
							<alpha>0</alpha>
							<red>255</red>
							<green>0</green>
							<blue>0</blue>
						</color>
						<in>12053</in>
						<out>12843</out>
					</marker>
					<filter>
						<effect>
							<name>Audio Levels</name>
							<effectid>audiolevels</effectid>
							<effectcategory>audiolevels</effectcategory>
							<effecttype>audiolevels</effecttype>
							<mediatype>audio</mediatype>
							<parameter>
								<name>Level</name>
								<parameterid>level</parameterid>
								<valuemin>0</valuemin>
								<valuemax>3.98109</valuemax>
								<value>1</value>
							</parameter>
						</effect>
					</filter>
					<filter>
						<effect>
							<name>Audio Pan</name>
							<effectid>audiopan</effectid>
							<effectcategory>audiopan</effectcategory>
							<effecttype>audiopan</effecttype>
							<mediatype>audio</mediatype>
							<parameter>
								<name>Pan</name>
								<parameterid>pan</parameterid>
								<valuemin>-1</valuemin>
								<valuemax>1</valuemax>
								<value>-1</value>
							</parameter>
						</effect>
					</filter>
					<sourcetrack>
						<mediatype>audio</mediatype>
						<trackindex>1</trackindex>
					</sourcetrack>
					<link>
						<linkclipref>MVI_7379 </linkclipref>
						<mediatype>video</mediatype>
						<trackindex>1</trackindex>
						<clipindex>2</clipindex>
					</link>
					<link>
						<linkclipref>MVI_7379 3</linkclipref>
						<mediatype>audio</mediatype>
						<trackindex>1</trackindex>
						<clipindex>2</clipindex>
						<groupindex>1</groupindex>
					</link>
					<link>
						<linkclipref>MVI_7379 4</linkclipref>
						<mediatype>audio</mediatype>
						<trackindex>2</trackindex>
						<clipindex>2</clipindex>
						<groupindex>1</groupindex>
					</link>
					<itemhistory>
						<uuid>C1AFF47C-4C4B-4F27-9D36-E1A28C407285</uuid>
					</itemhistory>
				</clipitem>
				<clipitem id="MVI_7380 3">
					<name>MVI_7380</name>
					<duration>18833</duration>
					<rate>
						<ntsc>TRUE</ntsc>
						<timebase>24</timebase>
					</rate>
					<in>0</in>
					<out>18833</out>
					<start>27783</start>
					<end>46616</end>
					<masterclipid>MVI_7380 1</masterclipid>
					<logginginfo>
						<scene/>
						<shottake/>
						<lognote/>
						<good>FALSE</good>
					</logginginfo>
					<labels>
						<label2/>
					</labels>
					<comments>
						<mastercomment1/>
						<mastercomment2/>
						<mastercomment3/>
						<mastercomment4/>
					</comments>
					<file id="MVI_7380 2"/>
					<marker>
						<name>why major in art</name>
						<comment>art versus engineering,career,money</comment>
						<color>
							<alpha>0</alpha>
							<red>255</red>
							<green>0</green>
							<blue>0</blue>
						</color>
						<in>1787</in>
						<out>2586</out>
					</marker>
					<marker>
						<name>Marker 2</name>
						<comment>art versus engineering,work</comment>
						<color>
							<alpha>0</alpha>
							<red>255</red>
							<green>0</green>
							<blue>0</blue>
						</color>
						<in>3307</in>
						<out>3811</out>
					</marker>
					<marker>
						<name>make a mark</name>
						<comment>improvization,thinking by doing,painting,processing, drawing, sketching&#13;</comment>
						<color>
							<alpha>0</alpha>
							<red>255</red>
							<green>0</green>
							<blue>0</blue>
						</color>
						<in>6009</in>
						<out>6498</out>
					</marker>
					<marker>
						<name>woah</name>
						<comment>systems,improvization,randomness,surprise</comment>
						<color>
							<alpha>0</alpha>
							<red>255</red>
							<green>0</green>
							<blue>0</blue>
						</color>
						<in>8454</in>
						<out>9013</out>
					</marker>
					<marker>
						<name>woah2</name>
						<comment>systems,improvization,randomness,surprise</comment>
						<color>
							<alpha>0</alpha>
							<red>255</red>
							<green>0</green>
							<blue>0</blue>
						</color>
						<in>9827</in>
						<out>10423</out>
					</marker>
					<marker>
						<name>would be boring</name>
						<comment>surprise, serendipity</comment>
						<color>
							<alpha>0</alpha>
							<red>255</red>
							<green>0</green>
							<blue>0</blue>
						</color>
						<in>10758</in>
						<out>11024</out>
					</marker>
					<marker>
						<name>this to that</name>
						<comment>new media,critique,feedback</comment>
						<color>
							<alpha>0</alpha>
							<red>255</red>
							<green>0</green>
							<blue>0</blue>
						</color>
						<in>11234</in>
						<out>12548</out>
					</marker>
					<marker>
						<name>emotion</name>
						<comment>emotion, new media, project examples, data visualization,</comment>
						<color>
							<alpha>0</alpha>
							<red>255</red>
							<green>0</green>
							<blue>0</blue>
						</color>
						<in>13798</in>
						<out>14399</out>
					</marker>
					<marker>
						<name>listening post</name>
						<comment>people,emotion,data visualization,data,storytelling</comment>
						<color>
							<alpha>0</alpha>
							<red>255</red>
							<green>0</green>
							<blue>0</blue>
						</color>
						<in>17212</in>
						<out>18566</out>
					</marker>
					<filter>
						<effect>
							<name>Audio Levels</name>
							<effectid>audiolevels</effectid>
							<effectcategory>audiolevels</effectcategory>
							<effecttype>audiolevels</effecttype>
							<mediatype>audio</mediatype>
							<parameter>
								<name>Level</name>
								<parameterid>level</parameterid>
								<valuemin>0</valuemin>
								<valuemax>3.98109</valuemax>
								<value>1</value>
							</parameter>
						</effect>
					</filter>
					<filter>
						<effect>
							<name>Audio Pan</name>
							<effectid>audiopan</effectid>
							<effectcategory>audiopan</effectcategory>
							<effecttype>audiopan</effecttype>
							<mediatype>audio</mediatype>
							<parameter>
								<name>Pan</name>
								<parameterid>pan</parameterid>
								<valuemin>-1</valuemin>
								<valuemax>1</valuemax>
								<value>-1</value>
							</parameter>
						</effect>
					</filter>
					<sourcetrack>
						<mediatype>audio</mediatype>
						<trackindex>1</trackindex>
					</sourcetrack>
					<link>
						<linkclipref>MVI_7380 </linkclipref>
						<mediatype>video</mediatype>
						<trackindex>1</trackindex>
						<clipindex>3</clipindex>
					</link>
					<link>
						<linkclipref>MVI_7380 3</linkclipref>
						<mediatype>audio</mediatype>
						<trackindex>1</trackindex>
						<clipindex>3</clipindex>
						<groupindex>1</groupindex>
					</link>
					<link>
						<linkclipref>MVI_7380 4</linkclipref>
						<mediatype>audio</mediatype>
						<trackindex>2</trackindex>
						<clipindex>3</clipindex>
						<groupindex>1</groupindex>
					</link>
					<itemhistory>
						<uuid>70FCC445-E5AA-4441-AB32-E272E533FD84</uuid>
					</itemhistory>
				</clipitem>
				<clipitem id="MVI_7381 3">
					<name>MVI_7381</name>
					<duration>17840</duration>
					<rate>
						<ntsc>TRUE</ntsc>
						<timebase>24</timebase>
					</rate>
					<in>0</in>
					<out>17840</out>
					<start>46616</start>
					<end>64456</end>
					<masterclipid>MVI_7381 1</masterclipid>
					<logginginfo>
						<scene/>
						<shottake/>
						<lognote/>
						<good>FALSE</good>
					</logginginfo>
					<labels>
						<label2/>
					</labels>
					<comments>
						<mastercomment1/>
						<mastercomment2/>
						<mastercomment3/>
						<mastercomment4/>
					</comments>
					<file id="MVI_7381 2"/>
					<marker>
						<name>hybridity</name>
						<comment>hybridity</comment>
						<color>
							<alpha>0</alpha>
							<red>255</red>
							<green>0</green>
							<blue>0</blue>
						</color>
						<in>893</in>
						<out>1288</out>
					</marker>
					<marker>
						<name>hybridity2</name>
						<comment>hybridity, before the internet,</comment>
						<color>
							<alpha>0</alpha>
							<red>255</red>
							<green>0</green>
							<blue>0</blue>
						</color>
						<in>1588</in>
						<out>2318</out>
					</marker>
					<marker>
						<name>people like myself</name>
						<comment>hybridity, nerd, tribe</comment>
						<color>
							<alpha>0</alpha>
							<red>255</red>
							<green>0</green>
							<blue>0</blue>
						</color>
						<in>2468</in>
						<out>2842</out>
					</marker>
					<marker>
						<name>people like myself</name>
						<comment>hybridity, nerd, tribe</comment>
						<color>
							<alpha>0</alpha>
							<red>255</red>
							<green>0</green>
							<blue>0</blue>
						</color>
						<in>3584</in>
						<out>3771</out>
					</marker>
					<marker>
						<name>MIT</name>
						<comment>john maeda,aesthetics and computation,beginnings, media lab</comment>
						<color>
							<alpha>0</alpha>
							<red>255</red>
							<green>0</green>
							<blue>0</blue>
						</color>
						<in>4162</in>
						<out>5523</out>
					</marker>
					<marker>
						<name>ACG</name>
						<comment>john maeda,aesthetics and computation,hybridity,art and code, new media, media lab</comment>
						<color>
							<alpha>0</alpha>
							<red>255</red>
							<green>0</green>
							<blue>0</blue>
						</color>
						<in>5531</in>
						<out>6203</out>
					</marker>
					<marker>
						<name>people at MIT</name>
						<comment>media lab,aesthetics and computation</comment>
						<color>
							<alpha>0</alpha>
							<red>255</red>
							<green>0</green>
							<blue>0</blue>
						</color>
						<in>6694</in>
						<out>7282</out>
					</marker>
					<marker>
						<name>ACG3</name>
						<comment>media lab,aesthetics and computation,design and art</comment>
						<color>
							<alpha>0</alpha>
							<red>255</red>
							<green>0</green>
							<blue>0</blue>
						</color>
						<in>7495</in>
						<out>7924</out>
					</marker>
					<marker>
						<name>Kyle</name>
						<comment>open source,sharing,kill the master,heroes,community,gift,teachers,teachers and mentors</comment>
						<color>
							<alpha>0</alpha>
							<red>255</red>
							<green>0</green>
							<blue>0</blue>
						</color>
						<in>9182</in>
						<out>10700</out>
					</marker>
					<marker>
						<name>closed source mistake</name>
						<comment>open source,sharing</comment>
						<color>
							<alpha>0</alpha>
							<red>255</red>
							<green>0</green>
							<blue>0</blue>
						</color>
						<in>11174</in>
						<out>12914</out>
					</marker>
					<marker>
						<name>pedagogical impulse</name>
						<comment>sharing, education, media lab, &#13;aesthetics and computation,</comment>
						<color>
							<alpha>0</alpha>
							<red>255</red>
							<green>0</green>
							<blue>0</blue>
						</color>
						<in>13038</in>
						<out>13865</out>
					</marker>
					<marker>
						<name>limits to sharing</name>
						<comment>sharing, open source, tools,toolkit</comment>
						<color>
							<alpha>0</alpha>
							<red>255</red>
							<green>0</green>
							<blue>0</blue>
						</color>
						<in>13865</in>
						<out>15498</out>
					</marker>
					<marker>
						<name>damn</name>
						<comment>sharing&#13;</comment>
						<color>
							<alpha>0</alpha>
							<red>255</red>
							<green>0</green>
							<blue>0</blue>
						</color>
						<in>15815</in>
						<out>16025</out>
					</marker>
					<marker>
						<name>keeping you stuff working</name>
						<comment>archiving,preservation,newness,new media old media</comment>
						<color>
							<alpha>0</alpha>
							<red>255</red>
							<green>0</green>
							<blue>0</blue>
						</color>
						<in>16365</in>
						<out>17405</out>
					</marker>
					<filter>
						<effect>
							<name>Audio Levels</name>
							<effectid>audiolevels</effectid>
							<effectcategory>audiolevels</effectcategory>
							<effecttype>audiolevels</effecttype>
							<mediatype>audio</mediatype>
							<parameter>
								<name>Level</name>
								<parameterid>level</parameterid>
								<valuemin>0</valuemin>
								<valuemax>3.98109</valuemax>
								<value>1</value>
							</parameter>
						</effect>
					</filter>
					<filter>
						<effect>
							<name>Audio Pan</name>
							<effectid>audiopan</effectid>
							<effectcategory>audiopan</effectcategory>
							<effecttype>audiopan</effecttype>
							<mediatype>audio</mediatype>
							<parameter>
								<name>Pan</name>
								<parameterid>pan</parameterid>
								<valuemin>-1</valuemin>
								<valuemax>1</valuemax>
								<value>-1</value>
							</parameter>
						</effect>
					</filter>
					<sourcetrack>
						<mediatype>audio</mediatype>
						<trackindex>1</trackindex>
					</sourcetrack>
					<link>
						<linkclipref>MVI_7381 </linkclipref>
						<mediatype>video</mediatype>
						<trackindex>1</trackindex>
						<clipindex>4</clipindex>
					</link>
					<link>
						<linkclipref>MVI_7381 3</linkclipref>
						<mediatype>audio</mediatype>
						<trackindex>1</trackindex>
						<clipindex>4</clipindex>
						<groupindex>1</groupindex>
					</link>
					<link>
						<linkclipref>MVI_7381 4</linkclipref>
						<mediatype>audio</mediatype>
						<trackindex>2</trackindex>
						<clipindex>4</clipindex>
						<groupindex>1</groupindex>
					</link>
					<itemhistory>
						<uuid>0BCA9005-3ADF-492E-8F9C-A55E8833401D</uuid>
					</itemhistory>
				</clipitem>
				<clipitem id="MVI_7383 3">
					<name>MVI_7383</name>
					<duration>13565</duration>
					<rate>
						<ntsc>TRUE</ntsc>
						<timebase>24</timebase>
					</rate>
					<in>0</in>
					<out>13565</out>
					<start>64456</start>
					<end>78021</end>
					<masterclipid>MVI_7383 1</masterclipid>
					<logginginfo>
						<scene/>
						<shottake/>
						<lognote/>
						<good>FALSE</good>
					</logginginfo>
					<labels>
						<label2/>
					</labels>
					<comments>
						<mastercomment1/>
						<mastercomment2/>
						<mastercomment3/>
						<mastercomment4/>
					</comments>
					<file id="MVI_7383 2"/>
					<marker>
						<name>sad not to be making</name>
						<comment>responsibility,career</comment>
						<color>
							<alpha>0</alpha>
							<red>255</red>
							<green>0</green>
							<blue>0</blue>
						</color>
						<in>1651</in>
						<out>2239</out>
					</marker>
					<marker>
						<name>administrating versus making</name>
						<comment>teaching, education, career</comment>
						<color>
							<alpha>0</alpha>
							<red>255</red>
							<green>0</green>
							<blue>0</blue>
						</color>
						<in>2302</in>
						<out>3714</out>
					</marker>
					<marker>
						<name>STUDIO art and code</name>
						<comment>STUDIO,art and code, kinect&#13;</comment>
						<color>
							<alpha>0</alpha>
							<red>255</red>
							<green>0</green>
							<blue>0</blue>
						</color>
						<in>3884</in>
						<out>4868</out>
					</marker>
					<marker>
						<name>open data</name>
						<comment>data,data ownership,data visualization</comment>
						<color>
							<alpha>0</alpha>
							<red>255</red>
							<green>0</green>
							<blue>0</blue>
						</color>
						<in>6776</in>
						<out>8263</out>
					</marker>
					<marker>
						<name>hackathon</name>
						<comment>collaboration, hackathon</comment>
						<color>
							<alpha>0</alpha>
							<red>255</red>
							<green>0</green>
							<blue>0</blue>
						</color>
						<in>8271</in>
						<out>9157</out>
					</marker>
					<marker>
						<name>hackathons2</name>
						<comment>open source, hackathon, collaboration</comment>
						<color>
							<alpha>0</alpha>
							<red>255</red>
							<green>0</green>
							<blue>0</blue>
						</color>
						<in>9380</in>
						<out>10798</out>
					</marker>
					<filter>
						<effect>
							<name>Audio Levels</name>
							<effectid>audiolevels</effectid>
							<effectcategory>audiolevels</effectcategory>
							<effecttype>audiolevels</effecttype>
							<mediatype>audio</mediatype>
							<parameter>
								<name>Level</name>
								<parameterid>level</parameterid>
								<valuemin>0</valuemin>
								<valuemax>3.98109</valuemax>
								<value>1</value>
							</parameter>
						</effect>
					</filter>
					<filter>
						<effect>
							<name>Audio Pan</name>
							<effectid>audiopan</effectid>
							<effectcategory>audiopan</effectcategory>
							<effecttype>audiopan</effecttype>
							<mediatype>audio</mediatype>
							<parameter>
								<name>Pan</name>
								<parameterid>pan</parameterid>
								<valuemin>-1</valuemin>
								<valuemax>1</valuemax>
								<value>-1</value>
							</parameter>
						</effect>
					</filter>
					<sourcetrack>
						<mediatype>audio</mediatype>
						<trackindex>1</trackindex>
					</sourcetrack>
					<link>
						<linkclipref>MVI_7383 </linkclipref>
						<mediatype>video</mediatype>
						<trackindex>1</trackindex>
						<clipindex>5</clipindex>
					</link>
					<link>
						<linkclipref>MVI_7383 3</linkclipref>
						<mediatype>audio</mediatype>
						<trackindex>1</trackindex>
						<clipindex>5</clipindex>
						<groupindex>1</groupindex>
					</link>
					<link>
						<linkclipref>MVI_7383 4</linkclipref>
						<mediatype>audio</mediatype>
						<trackindex>2</trackindex>
						<clipindex>5</clipindex>
						<groupindex>1</groupindex>
					</link>
					<itemhistory>
						<uuid>DB8FBB11-6447-455B-B6B0-33F11934E260</uuid>
					</itemhistory>
				</clipitem>
				<clipitem id="MVI_7385 3">
					<name>MVI_7385</name>
					<duration>6979</duration>
					<rate>
						<ntsc>TRUE</ntsc>
						<timebase>24</timebase>
					</rate>
					<in>0</in>
					<out>6979</out>
					<start>78021</start>
					<end>85000</end>
					<masterclipid>MVI_7385 1</masterclipid>
					<logginginfo>
						<scene/>
						<shottake/>
						<lognote/>
						<good>FALSE</good>
					</logginginfo>
					<labels>
						<label2/>
					</labels>
					<comments>
						<mastercomment1/>
						<mastercomment2/>
						<mastercomment3/>
						<mastercomment4/>
					</comments>
					<file id="MVI_7385 2"/>
					<marker>
						<name>Anxious about the future</name>
						<comment>solutions,coding for humanity,survival,future</comment>
						<color>
							<alpha>0</alpha>
							<red>255</red>
							<green>0</green>
							<blue>0</blue>
						</color>
						<in>1817</in>
						<out>3418</out>
					</marker>
					<marker>
						<name>staring down the barrel</name>
						<comment>solutions,coding for humanity,survival,future, technological progress, dystopia&#13;</comment>
						<color>
							<alpha>0</alpha>
							<red>255</red>
							<green>0</green>
							<blue>0</blue>
						</color>
						<in>4215</in>
						<out>5336</out>
					</marker>
					<filter>
						<effect>
							<name>Audio Levels</name>
							<effectid>audiolevels</effectid>
							<effectcategory>audiolevels</effectcategory>
							<effecttype>audiolevels</effecttype>
							<mediatype>audio</mediatype>
							<parameter>
								<name>Level</name>
								<parameterid>level</parameterid>
								<valuemin>0</valuemin>
								<valuemax>3.98109</valuemax>
								<value>1</value>
							</parameter>
						</effect>
					</filter>
					<filter>
						<effect>
							<name>Audio Pan</name>
							<effectid>audiopan</effectid>
							<effectcategory>audiopan</effectcategory>
							<effecttype>audiopan</effecttype>
							<mediatype>audio</mediatype>
							<parameter>
								<name>Pan</name>
								<parameterid>pan</parameterid>
								<valuemin>-1</valuemin>
								<valuemax>1</valuemax>
								<value>-1</value>
							</parameter>
						</effect>
					</filter>
					<sourcetrack>
						<mediatype>audio</mediatype>
						<trackindex>1</trackindex>
					</sourcetrack>
					<link>
						<linkclipref>MVI_7385 </linkclipref>
						<mediatype>video</mediatype>
						<trackindex>1</trackindex>
						<clipindex>6</clipindex>
					</link>
					<link>
						<linkclipref>MVI_7385 3</linkclipref>
						<mediatype>audio</mediatype>
						<trackindex>1</trackindex>
						<clipindex>6</clipindex>
						<groupindex>1</groupindex>
					</link>
					<link>
						<linkclipref>MVI_7385 4</linkclipref>
						<mediatype>audio</mediatype>
						<trackindex>2</trackindex>
						<clipindex>6</clipindex>
						<groupindex>1</groupindex>
					</link>
					<itemhistory>
						<uuid>B294E9AB-22E9-48C0-898C-CB4A18BB4FBD</uuid>
					</itemhistory>
				</clipitem>
				<clipitem id="MVI_7386 3">
					<name>MVI_7386</name>
					<duration>10419</duration>
					<rate>
						<ntsc>TRUE</ntsc>
						<timebase>24</timebase>
					</rate>
					<in>0</in>
					<out>10419</out>
					<start>85000</start>
					<end>95419</end>
					<masterclipid>MVI_7386 1</masterclipid>
					<logginginfo>
						<scene/>
						<shottake/>
						<lognote/>
						<good>FALSE</good>
					</logginginfo>
					<labels>
						<label2/>
					</labels>
					<comments>
						<mastercomment1/>
						<mastercomment2/>
						<mastercomment3/>
						<mastercomment4/>
					</comments>
					<file id="MVI_7386 2"/>
					<marker>
						<name>why make art</name>
						<comment>why,useless,art</comment>
						<color>
							<alpha>0</alpha>
							<red>255</red>
							<green>0</green>
							<blue>0</blue>
						</color>
						<in>96</in>
						<out>1402</out>
					</marker>
					<marker>
						<name>formalism</name>
						<comment>formalism,math,beauty,beautiful exhuberance</comment>
						<color>
							<alpha>0</alpha>
							<red>255</red>
							<green>0</green>
							<blue>0</blue>
						</color>
						<in>2579</in>
						<out>4190</out>
					</marker>
					<marker>
						<name>audiovisual concept</name>
						<comment>audiovisualization,beauty,systems,synesthesia,behavior</comment>
						<color>
							<alpha>0</alpha>
							<red>255</red>
							<green>0</green>
							<blue>0</blue>
						</color>
						<in>4235</in>
						<out>4880</out>
					</marker>
					<marker>
						<name>easy beauty</name>
						<comment>beauty,aesthetics,critique</comment>
						<color>
							<alpha>0</alpha>
							<red>255</red>
							<green>0</green>
							<blue>0</blue>
						</color>
						<in>5015</in>
						<out>5542</out>
					</marker>
					<marker>
						<name>raytraced spheres</name>
						<comment>newness,new media old media,nostalgia, history&#13;</comment>
						<color>
							<alpha>0</alpha>
							<red>255</red>
							<green>0</green>
							<blue>0</blue>
						</color>
						<in>6592</in>
						<out>7078</out>
					</marker>
					<marker>
						<name>laughter</name>
						<comment>laughter,emotion, weird&#13;</comment>
						<color>
							<alpha>0</alpha>
							<red>255</red>
							<green>0</green>
							<blue>0</blue>
						</color>
						<in>8613</in>
						<out>9370</out>
					</marker>
					<marker>
						<name>laughter2</name>
						<comment>laughter,emotion</comment>
						<color>
							<alpha>0</alpha>
							<red>255</red>
							<green>0</green>
							<blue>0</blue>
						</color>
						<in>9370</in>
						<out>9959</out>
					</marker>
					<filter>
						<effect>
							<name>Audio Levels</name>
							<effectid>audiolevels</effectid>
							<effectcategory>audiolevels</effectcategory>
							<effecttype>audiolevels</effecttype>
							<mediatype>audio</mediatype>
							<parameter>
								<name>Level</name>
								<parameterid>level</parameterid>
								<valuemin>0</valuemin>
								<valuemax>3.98109</valuemax>
								<value>1</value>
							</parameter>
						</effect>
					</filter>
					<filter>
						<effect>
							<name>Audio Pan</name>
							<effectid>audiopan</effectid>
							<effectcategory>audiopan</effectcategory>
							<effecttype>audiopan</effecttype>
							<mediatype>audio</mediatype>
							<parameter>
								<name>Pan</name>
								<parameterid>pan</parameterid>
								<valuemin>-1</valuemin>
								<valuemax>1</valuemax>
								<value>-1</value>
							</parameter>
						</effect>
					</filter>
					<sourcetrack>
						<mediatype>audio</mediatype>
						<trackindex>1</trackindex>
					</sourcetrack>
					<link>
						<linkclipref>MVI_7386 </linkclipref>
						<mediatype>video</mediatype>
						<trackindex>1</trackindex>
						<clipindex>7</clipindex>
					</link>
					<link>
						<linkclipref>MVI_7386 3</linkclipref>
						<mediatype>audio</mediatype>
						<trackindex>1</trackindex>
						<clipindex>7</clipindex>
						<groupindex>1</groupindex>
					</link>
					<link>
						<linkclipref>MVI_7386 4</linkclipref>
						<mediatype>audio</mediatype>
						<trackindex>2</trackindex>
						<clipindex>7</clipindex>
						<groupindex>1</groupindex>
					</link>
					<itemhistory>
						<uuid>3B48FDFF-DD1B-47B5-A18F-1D8877BFC8A5</uuid>
					</itemhistory>
				</clipitem>
				<clipitem id="MVI_7387 3">
					<name>MVI_7387</name>
					<duration>4413</duration>
					<rate>
						<ntsc>TRUE</ntsc>
						<timebase>24</timebase>
					</rate>
					<in>0</in>
					<out>4413</out>
					<start>95419</start>
					<end>99832</end>
					<masterclipid>MVI_7387 1</masterclipid>
					<logginginfo>
						<scene/>
						<shottake/>
						<lognote/>
						<good>FALSE</good>
					</logginginfo>
					<labels>
						<label2/>
					</labels>
					<comments>
						<mastercomment1/>
						<mastercomment2/>
						<mastercomment3/>
						<mastercomment4/>
					</comments>
					<file id="MVI_7387 2"/>
					<marker>
						<name>kerrington</name>
						<comment>apocalypse,survival,future, weird&#13;&#13;&#13;</comment>
						<color>
							<alpha>0</alpha>
							<red>255</red>
							<green>0</green>
							<blue>0</blue>
						</color>
						<in>334</in>
						<out>1365</out>
					</marker>
					<marker>
						<name>kessler</name>
						<comment>apocalypse,survival,future, weird&#13;&#13;</comment>
						<color>
							<alpha>0</alpha>
							<red>255</red>
							<green>0</green>
							<blue>0</blue>
						</color>
						<in>1365</in>
						<out>3011</out>
					</marker>
					<marker>
						<name>apocalypse3</name>
						<comment>apocalypse,survival,future,</comment>
						<color>
							<alpha>0</alpha>
							<red>255</red>
							<green>0</green>
							<blue>0</blue>
						</color>
						<in>3044</in>
						<out>4359</out>
					</marker>
					<filter>
						<effect>
							<name>Audio Levels</name>
							<effectid>audiolevels</effectid>
							<effectcategory>audiolevels</effectcategory>
							<effecttype>audiolevels</effecttype>
							<mediatype>audio</mediatype>
							<parameter>
								<name>Level</name>
								<parameterid>level</parameterid>
								<valuemin>0</valuemin>
								<valuemax>3.98109</valuemax>
								<value>1</value>
							</parameter>
						</effect>
					</filter>
					<filter>
						<effect>
							<name>Audio Pan</name>
							<effectid>audiopan</effectid>
							<effectcategory>audiopan</effectcategory>
							<effecttype>audiopan</effecttype>
							<mediatype>audio</mediatype>
							<parameter>
								<name>Pan</name>
								<parameterid>pan</parameterid>
								<valuemin>-1</valuemin>
								<valuemax>1</valuemax>
								<value>-1</value>
							</parameter>
						</effect>
					</filter>
					<sourcetrack>
						<mediatype>audio</mediatype>
						<trackindex>1</trackindex>
					</sourcetrack>
					<link>
						<linkclipref>MVI_7387 </linkclipref>
						<mediatype>video</mediatype>
						<trackindex>1</trackindex>
						<clipindex>8</clipindex>
					</link>
					<link>
						<linkclipref>MVI_7387 3</linkclipref>
						<mediatype>audio</mediatype>
						<trackindex>1</trackindex>
						<clipindex>8</clipindex>
						<groupindex>1</groupindex>
					</link>
					<link>
						<linkclipref>MVI_7387 4</linkclipref>
						<mediatype>audio</mediatype>
						<trackindex>2</trackindex>
						<clipindex>8</clipindex>
						<groupindex>1</groupindex>
					</link>
					<itemhistory>
						<uuid>218B33D9-B901-47A9-8B2A-CAA36B42D3D6</uuid>
					</itemhistory>
				</clipitem>
				<enabled>TRUE</enabled>
				<locked>FALSE</locked>
				<outputchannelindex>1</outputchannelindex>
			</track>
			<track>
				<clipitem id="MVI_7378 4">
					<name>MVI_7378</name>
					<duration>14401</duration>
					<rate>
						<ntsc>TRUE</ntsc>
						<timebase>24</timebase>
					</rate>
					<in>0</in>
					<out>14401</out>
					<start>0</start>
					<end>14401</end>
					<masterclipid>MVI_7378 1</masterclipid>
					<logginginfo>
						<scene/>
						<shottake/>
						<lognote/>
						<good>FALSE</good>
					</logginginfo>
					<labels>
						<label2/>
					</labels>
					<comments>
						<mastercomment1/>
						<mastercomment2/>
						<mastercomment3/>
						<mastercomment4/>
					</comments>
					<file id="MVI_7378 2"/>
					<marker>
						<name>useless, whimsical</name>
						<comment>weird,career,art versus engineering</comment>
						<color>
							<alpha>0</alpha>
							<red>255</red>
							<green>0</green>
							<blue>0</blue>
						</color>
						<in>756</in>
						<out>1150</out>
					</marker>
					<marker>
						<name>wide open field</name>
						<comment>money, career, useless, </comment>
						<color>
							<alpha>0</alpha>
							<red>255</red>
							<green>0</green>
							<blue>0</blue>
						</color>
						<in>1547</in>
						<out>2013</out>
					</marker>
					<marker>
						<name>my mother the abstract painter</name>
						<comment>beginnings,children,art,painting, gesture,</comment>
						<color>
							<alpha>0</alpha>
							<red>255</red>
							<green>0</green>
							<blue>0</blue>
						</color>
						<in>2509</in>
						<out>3073</out>
					</marker>
					<marker>
						<name>yellow tail</name>
						<comment>project example, gesture, interactivity, drawing</comment>
						<color>
							<alpha>0</alpha>
							<red>255</red>
							<green>0</green>
							<blue>0</blue>
						</color>
						<in>4538</in>
						<out>5585</out>
					</marker>
					<marker>
						<name>playable image</name>
						<comment>performance, gesture, interactivity, audiovisualization, project example, play</comment>
						<color>
							<alpha>0</alpha>
							<red>255</red>
							<green>0</green>
							<blue>0</blue>
						</color>
						<in>6756</in>
						<out>7895</out>
					</marker>
					<marker>
						<name>eno</name>
						<comment>music, hybridity, </comment>
						<color>
							<alpha>0</alpha>
							<red>255</red>
							<green>0</green>
							<blue>0</blue>
						</color>
						<in>8621</in>
						<out>9762</out>
					</marker>
					<marker>
						<name> </name>
						<comment>beginnings,new media,career</comment>
						<color>
							<alpha>0</alpha>
							<red>255</red>
							<green>0</green>
							<blue>0</blue>
						</color>
						<in>10856</in>
						<out>11514</out>
					</marker>
					<marker>
						<name>instruments</name>
						<comment>Tools,interactivity,play,instrument,expression,exploration</comment>
						<color>
							<alpha>0</alpha>
							<red>255</red>
							<green>0</green>
							<blue>0</blue>
						</color>
						<in>12125</in>
						<out>13712</out>
					</marker>
					<marker>
						<name>piano and pencil,</name>
						<comment>instrument,gesture,mastery, tools&#13;</comment>
						<color>
							<alpha>0</alpha>
							<red>255</red>
							<green>0</green>
							<blue>0</blue>
						</color>
						<in>13786</in>
						<out>14334</out>
					</marker>
					<filter>
						<effect>
							<name>Audio Levels</name>
							<effectid>audiolevels</effectid>
							<effectcategory>audiolevels</effectcategory>
							<effecttype>audiolevels</effecttype>
							<mediatype>audio</mediatype>
							<parameter>
								<name>Level</name>
								<parameterid>level</parameterid>
								<valuemin>0</valuemin>
								<valuemax>3.98109</valuemax>
								<value>1</value>
							</parameter>
						</effect>
					</filter>
					<filter>
						<effect>
							<name>Audio Pan</name>
							<effectid>audiopan</effectid>
							<effectcategory>audiopan</effectcategory>
							<effecttype>audiopan</effecttype>
							<mediatype>audio</mediatype>
							<parameter>
								<name>Pan</name>
								<parameterid>pan</parameterid>
								<valuemin>-1</valuemin>
								<valuemax>1</valuemax>
								<value>1</value>
							</parameter>
						</effect>
					</filter>
					<sourcetrack>
						<mediatype>audio</mediatype>
						<trackindex>2</trackindex>
					</sourcetrack>
					<link>
						<linkclipref>MVI_7378 </linkclipref>
						<mediatype>video</mediatype>
						<trackindex>1</trackindex>
						<clipindex>1</clipindex>
					</link>
					<link>
						<linkclipref>MVI_7378 3</linkclipref>
						<mediatype>audio</mediatype>
						<trackindex>1</trackindex>
						<clipindex>1</clipindex>
						<groupindex>1</groupindex>
					</link>
					<link>
						<linkclipref>MVI_7378 4</linkclipref>
						<mediatype>audio</mediatype>
						<trackindex>2</trackindex>
						<clipindex>1</clipindex>
						<groupindex>1</groupindex>
					</link>
					<itemhistory>
						<uuid>5F51E5A4-E265-4CA4-97A2-567B75F32229</uuid>
					</itemhistory>
				</clipitem>
				<clipitem id="MVI_7379 4">
					<name>MVI_7379</name>
					<duration>13382</duration>
					<rate>
						<ntsc>TRUE</ntsc>
						<timebase>24</timebase>
					</rate>
					<in>0</in>
					<out>13382</out>
					<start>14401</start>
					<end>27783</end>
					<masterclipid>MVI_7379 1</masterclipid>
					<logginginfo>
						<scene/>
						<shottake/>
						<lognote/>
						<good>FALSE</good>
					</logginginfo>
					<labels>
						<label2/>
					</labels>
					<comments>
						<mastercomment1/>
						<mastercomment2/>
						<mastercomment3/>
						<mastercomment4/>
					</comments>
					<file id="MVI_7379 2"/>
					<marker>
						<name>observation of users</name>
						<comment>interactivity,users</comment>
						<color>
							<alpha>0</alpha>
							<red>255</red>
							<green>0</green>
							<blue>0</blue>
						</color>
						<in>1029</in>
						<out>1506</out>
					</marker>
					<marker>
						<name>twitching in a room</name>
						<comment>interactivity, gesture, performance, mastery</comment>
						<color>
							<alpha>0</alpha>
							<red>255</red>
							<green>0</green>
							<blue>0</blue>
						</color>
						<in>2934</in>
						<out>5307</out>
					</marker>
					<marker>
						<name>what's an instrument?</name>
						<comment>instrument, play, thinking by doing,mind and hand</comment>
						<color>
							<alpha>0</alpha>
							<red>255</red>
							<green>0</green>
							<blue>0</blue>
						</color>
						<in>5894</in>
						<out>6689</out>
					</marker>
					<marker>
						<name>project example</name>
						<comment>magic, surprise, interactivity, project example, </comment>
						<color>
							<alpha>0</alpha>
							<red>255</red>
							<green>0</green>
							<blue>0</blue>
						</color>
						<in>6745</in>
						<out>8162</out>
					</marker>
					<marker>
						<name>Play</name>
						<comment>play, children,</comment>
						<color>
							<alpha>0</alpha>
							<red>255</red>
							<green>0</green>
							<blue>0</blue>
						</color>
						<in>12053</in>
						<out>12843</out>
					</marker>
					<filter>
						<effect>
							<name>Audio Levels</name>
							<effectid>audiolevels</effectid>
							<effectcategory>audiolevels</effectcategory>
							<effecttype>audiolevels</effecttype>
							<mediatype>audio</mediatype>
							<parameter>
								<name>Level</name>
								<parameterid>level</parameterid>
								<valuemin>0</valuemin>
								<valuemax>3.98109</valuemax>
								<value>1</value>
							</parameter>
						</effect>
					</filter>
					<filter>
						<effect>
							<name>Audio Pan</name>
							<effectid>audiopan</effectid>
							<effectcategory>audiopan</effectcategory>
							<effecttype>audiopan</effecttype>
							<mediatype>audio</mediatype>
							<parameter>
								<name>Pan</name>
								<parameterid>pan</parameterid>
								<valuemin>-1</valuemin>
								<valuemax>1</valuemax>
								<value>1</value>
							</parameter>
						</effect>
					</filter>
					<sourcetrack>
						<mediatype>audio</mediatype>
						<trackindex>2</trackindex>
					</sourcetrack>
					<link>
						<linkclipref>MVI_7379 </linkclipref>
						<mediatype>video</mediatype>
						<trackindex>1</trackindex>
						<clipindex>2</clipindex>
					</link>
					<link>
						<linkclipref>MVI_7379 3</linkclipref>
						<mediatype>audio</mediatype>
						<trackindex>1</trackindex>
						<clipindex>2</clipindex>
						<groupindex>1</groupindex>
					</link>
					<link>
						<linkclipref>MVI_7379 4</linkclipref>
						<mediatype>audio</mediatype>
						<trackindex>2</trackindex>
						<clipindex>2</clipindex>
						<groupindex>1</groupindex>
					</link>
					<itemhistory>
						<uuid>730782DE-BEAD-4A06-91CB-051691C4688A</uuid>
					</itemhistory>
				</clipitem>
				<clipitem id="MVI_7380 4">
					<name>MVI_7380</name>
					<duration>18833</duration>
					<rate>
						<ntsc>TRUE</ntsc>
						<timebase>24</timebase>
					</rate>
					<in>0</in>
					<out>18833</out>
					<start>27783</start>
					<end>46616</end>
					<masterclipid>MVI_7380 1</masterclipid>
					<logginginfo>
						<scene/>
						<shottake/>
						<lognote/>
						<good>FALSE</good>
					</logginginfo>
					<labels>
						<label2/>
					</labels>
					<comments>
						<mastercomment1/>
						<mastercomment2/>
						<mastercomment3/>
						<mastercomment4/>
					</comments>
					<file id="MVI_7380 2"/>
					<marker>
						<name>why major in art</name>
						<comment>art versus engineering,career,money</comment>
						<color>
							<alpha>0</alpha>
							<red>255</red>
							<green>0</green>
							<blue>0</blue>
						</color>
						<in>1787</in>
						<out>2586</out>
					</marker>
					<marker>
						<name>Marker 2</name>
						<comment>art versus engineering,work</comment>
						<color>
							<alpha>0</alpha>
							<red>255</red>
							<green>0</green>
							<blue>0</blue>
						</color>
						<in>3307</in>
						<out>3811</out>
					</marker>
					<marker>
						<name>make a mark</name>
						<comment>improvization,thinking by doing,painting,processing, drawing, sketching&#13;</comment>
						<color>
							<alpha>0</alpha>
							<red>255</red>
							<green>0</green>
							<blue>0</blue>
						</color>
						<in>6009</in>
						<out>6498</out>
					</marker>
					<marker>
						<name>woah</name>
						<comment>systems,improvization,randomness,surprise</comment>
						<color>
							<alpha>0</alpha>
							<red>255</red>
							<green>0</green>
							<blue>0</blue>
						</color>
						<in>8454</in>
						<out>9013</out>
					</marker>
					<marker>
						<name>woah2</name>
						<comment>systems,improvization,randomness,surprise</comment>
						<color>
							<alpha>0</alpha>
							<red>255</red>
							<green>0</green>
							<blue>0</blue>
						</color>
						<in>9827</in>
						<out>10423</out>
					</marker>
					<marker>
						<name>would be boring</name>
						<comment>surprise, serendipity</comment>
						<color>
							<alpha>0</alpha>
							<red>255</red>
							<green>0</green>
							<blue>0</blue>
						</color>
						<in>10758</in>
						<out>11024</out>
					</marker>
					<marker>
						<name>this to that</name>
						<comment>new media,critique,feedback</comment>
						<color>
							<alpha>0</alpha>
							<red>255</red>
							<green>0</green>
							<blue>0</blue>
						</color>
						<in>11234</in>
						<out>12548</out>
					</marker>
					<marker>
						<name>emotion</name>
						<comment>emotion, new media, project examples, data visualization,</comment>
						<color>
							<alpha>0</alpha>
							<red>255</red>
							<green>0</green>
							<blue>0</blue>
						</color>
						<in>13798</in>
						<out>14399</out>
					</marker>
					<marker>
						<name>listening post</name>
						<comment>people,emotion,data visualization,data,storytelling</comment>
						<color>
							<alpha>0</alpha>
							<red>255</red>
							<green>0</green>
							<blue>0</blue>
						</color>
						<in>17212</in>
						<out>18566</out>
					</marker>
					<filter>
						<effect>
							<name>Audio Levels</name>
							<effectid>audiolevels</effectid>
							<effectcategory>audiolevels</effectcategory>
							<effecttype>audiolevels</effecttype>
							<mediatype>audio</mediatype>
							<parameter>
								<name>Level</name>
								<parameterid>level</parameterid>
								<valuemin>0</valuemin>
								<valuemax>3.98109</valuemax>
								<value>1</value>
							</parameter>
						</effect>
					</filter>
					<filter>
						<effect>
							<name>Audio Pan</name>
							<effectid>audiopan</effectid>
							<effectcategory>audiopan</effectcategory>
							<effecttype>audiopan</effecttype>
							<mediatype>audio</mediatype>
							<parameter>
								<name>Pan</name>
								<parameterid>pan</parameterid>
								<valuemin>-1</valuemin>
								<valuemax>1</valuemax>
								<value>1</value>
							</parameter>
						</effect>
					</filter>
					<sourcetrack>
						<mediatype>audio</mediatype>
						<trackindex>2</trackindex>
					</sourcetrack>
					<link>
						<linkclipref>MVI_7380 </linkclipref>
						<mediatype>video</mediatype>
						<trackindex>1</trackindex>
						<clipindex>3</clipindex>
					</link>
					<link>
						<linkclipref>MVI_7380 3</linkclipref>
						<mediatype>audio</mediatype>
						<trackindex>1</trackindex>
						<clipindex>3</clipindex>
						<groupindex>1</groupindex>
					</link>
					<link>
						<linkclipref>MVI_7380 4</linkclipref>
						<mediatype>audio</mediatype>
						<trackindex>2</trackindex>
						<clipindex>3</clipindex>
						<groupindex>1</groupindex>
					</link>
					<itemhistory>
						<uuid>FB6B96A7-99C5-448B-945E-8899809A550D</uuid>
					</itemhistory>
				</clipitem>
				<clipitem id="MVI_7381 4">
					<name>MVI_7381</name>
					<duration>17840</duration>
					<rate>
						<ntsc>TRUE</ntsc>
						<timebase>24</timebase>
					</rate>
					<in>0</in>
					<out>17840</out>
					<start>46616</start>
					<end>64456</end>
					<masterclipid>MVI_7381 1</masterclipid>
					<logginginfo>
						<scene/>
						<shottake/>
						<lognote/>
						<good>FALSE</good>
					</logginginfo>
					<labels>
						<label2/>
					</labels>
					<comments>
						<mastercomment1/>
						<mastercomment2/>
						<mastercomment3/>
						<mastercomment4/>
					</comments>
					<file id="MVI_7381 2"/>
					<marker>
						<name>hybridity</name>
						<comment>hybridity</comment>
						<color>
							<alpha>0</alpha>
							<red>255</red>
							<green>0</green>
							<blue>0</blue>
						</color>
						<in>893</in>
						<out>1288</out>
					</marker>
					<marker>
						<name>hybridity2</name>
						<comment>hybridity, before the internet,</comment>
						<color>
							<alpha>0</alpha>
							<red>255</red>
							<green>0</green>
							<blue>0</blue>
						</color>
						<in>1588</in>
						<out>2318</out>
					</marker>
					<marker>
						<name>people like myself</name>
						<comment>hybridity, nerd, tribe</comment>
						<color>
							<alpha>0</alpha>
							<red>255</red>
							<green>0</green>
							<blue>0</blue>
						</color>
						<in>2468</in>
						<out>2842</out>
					</marker>
					<marker>
						<name>people like myself</name>
						<comment>hybridity, nerd, tribe</comment>
						<color>
							<alpha>0</alpha>
							<red>255</red>
							<green>0</green>
							<blue>0</blue>
						</color>
						<in>3584</in>
						<out>3771</out>
					</marker>
					<marker>
						<name>MIT</name>
						<comment>john maeda,aesthetics and computation,beginnings, media lab</comment>
						<color>
							<alpha>0</alpha>
							<red>255</red>
							<green>0</green>
							<blue>0</blue>
						</color>
						<in>4162</in>
						<out>5523</out>
					</marker>
					<marker>
						<name>ACG</name>
						<comment>john maeda,aesthetics and computation,hybridity,art and code, new media, media lab</comment>
						<color>
							<alpha>0</alpha>
							<red>255</red>
							<green>0</green>
							<blue>0</blue>
						</color>
						<in>5531</in>
						<out>6203</out>
					</marker>
					<marker>
						<name>people at MIT</name>
						<comment>media lab,aesthetics and computation</comment>
						<color>
							<alpha>0</alpha>
							<red>255</red>
							<green>0</green>
							<blue>0</blue>
						</color>
						<in>6694</in>
						<out>7282</out>
					</marker>
					<marker>
						<name>ACG3</name>
						<comment>media lab,aesthetics and computation,design and art</comment>
						<color>
							<alpha>0</alpha>
							<red>255</red>
							<green>0</green>
							<blue>0</blue>
						</color>
						<in>7495</in>
						<out>7924</out>
					</marker>
					<marker>
						<name>Kyle</name>
						<comment>open source,sharing,kill the master,heroes,community,gift,teachers,teachers and mentors</comment>
						<color>
							<alpha>0</alpha>
							<red>255</red>
							<green>0</green>
							<blue>0</blue>
						</color>
						<in>9182</in>
						<out>10700</out>
					</marker>
					<marker>
						<name>closed source mistake</name>
						<comment>open source,sharing</comment>
						<color>
							<alpha>0</alpha>
							<red>255</red>
							<green>0</green>
							<blue>0</blue>
						</color>
						<in>11174</in>
						<out>12914</out>
					</marker>
					<marker>
						<name>pedagogical impulse</name>
						<comment>sharing, education, media lab, &#13;aesthetics and computation,</comment>
						<color>
							<alpha>0</alpha>
							<red>255</red>
							<green>0</green>
							<blue>0</blue>
						</color>
						<in>13038</in>
						<out>13865</out>
					</marker>
					<marker>
						<name>limits to sharing</name>
						<comment>sharing, open source, tools,toolkit</comment>
						<color>
							<alpha>0</alpha>
							<red>255</red>
							<green>0</green>
							<blue>0</blue>
						</color>
						<in>13865</in>
						<out>15498</out>
					</marker>
					<marker>
						<name>damn</name>
						<comment>sharing&#13;</comment>
						<color>
							<alpha>0</alpha>
							<red>255</red>
							<green>0</green>
							<blue>0</blue>
						</color>
						<in>15815</in>
						<out>16025</out>
					</marker>
					<marker>
						<name>keeping you stuff working</name>
						<comment>archiving,preservation,newness,new media old media</comment>
						<color>
							<alpha>0</alpha>
							<red>255</red>
							<green>0</green>
							<blue>0</blue>
						</color>
						<in>16365</in>
						<out>17405</out>
					</marker>
					<filter>
						<effect>
							<name>Audio Levels</name>
							<effectid>audiolevels</effectid>
							<effectcategory>audiolevels</effectcategory>
							<effecttype>audiolevels</effecttype>
							<mediatype>audio</mediatype>
							<parameter>
								<name>Level</name>
								<parameterid>level</parameterid>
								<valuemin>0</valuemin>
								<valuemax>3.98109</valuemax>
								<value>1</value>
							</parameter>
						</effect>
					</filter>
					<filter>
						<effect>
							<name>Audio Pan</name>
							<effectid>audiopan</effectid>
							<effectcategory>audiopan</effectcategory>
							<effecttype>audiopan</effecttype>
							<mediatype>audio</mediatype>
							<parameter>
								<name>Pan</name>
								<parameterid>pan</parameterid>
								<valuemin>-1</valuemin>
								<valuemax>1</valuemax>
								<value>1</value>
							</parameter>
						</effect>
					</filter>
					<sourcetrack>
						<mediatype>audio</mediatype>
						<trackindex>2</trackindex>
					</sourcetrack>
					<link>
						<linkclipref>MVI_7381 </linkclipref>
						<mediatype>video</mediatype>
						<trackindex>1</trackindex>
						<clipindex>4</clipindex>
					</link>
					<link>
						<linkclipref>MVI_7381 3</linkclipref>
						<mediatype>audio</mediatype>
						<trackindex>1</trackindex>
						<clipindex>4</clipindex>
						<groupindex>1</groupindex>
					</link>
					<link>
						<linkclipref>MVI_7381 4</linkclipref>
						<mediatype>audio</mediatype>
						<trackindex>2</trackindex>
						<clipindex>4</clipindex>
						<groupindex>1</groupindex>
					</link>
					<itemhistory>
						<uuid>A2FA563E-7F54-4F20-8B98-A3145CA1526C</uuid>
					</itemhistory>
				</clipitem>
				<clipitem id="MVI_7383 4">
					<name>MVI_7383</name>
					<duration>13565</duration>
					<rate>
						<ntsc>TRUE</ntsc>
						<timebase>24</timebase>
					</rate>
					<in>0</in>
					<out>13565</out>
					<start>64456</start>
					<end>78021</end>
					<masterclipid>MVI_7383 1</masterclipid>
					<logginginfo>
						<scene/>
						<shottake/>
						<lognote/>
						<good>FALSE</good>
					</logginginfo>
					<labels>
						<label2/>
					</labels>
					<comments>
						<mastercomment1/>
						<mastercomment2/>
						<mastercomment3/>
						<mastercomment4/>
					</comments>
					<file id="MVI_7383 2"/>
					<marker>
						<name>sad not to be making</name>
						<comment>responsibility,career</comment>
						<color>
							<alpha>0</alpha>
							<red>255</red>
							<green>0</green>
							<blue>0</blue>
						</color>
						<in>1651</in>
						<out>2239</out>
					</marker>
					<marker>
						<name>administrating versus making</name>
						<comment>teaching, education, career</comment>
						<color>
							<alpha>0</alpha>
							<red>255</red>
							<green>0</green>
							<blue>0</blue>
						</color>
						<in>2302</in>
						<out>3714</out>
					</marker>
					<marker>
						<name>STUDIO art and code</name>
						<comment>STUDIO,art and code, kinect&#13;</comment>
						<color>
							<alpha>0</alpha>
							<red>255</red>
							<green>0</green>
							<blue>0</blue>
						</color>
						<in>3884</in>
						<out>4868</out>
					</marker>
					<marker>
						<name>open data</name>
						<comment>data,data ownership,data visualization</comment>
						<color>
							<alpha>0</alpha>
							<red>255</red>
							<green>0</green>
							<blue>0</blue>
						</color>
						<in>6776</in>
						<out>8263</out>
					</marker>
					<marker>
						<name>hackathon</name>
						<comment>collaboration, hackathon</comment>
						<color>
							<alpha>0</alpha>
							<red>255</red>
							<green>0</green>
							<blue>0</blue>
						</color>
						<in>8271</in>
						<out>9157</out>
					</marker>
					<marker>
						<name>hackathons2</name>
						<comment>open source, hackathon, collaboration</comment>
						<color>
							<alpha>0</alpha>
							<red>255</red>
							<green>0</green>
							<blue>0</blue>
						</color>
						<in>9380</in>
						<out>10798</out>
					</marker>
					<filter>
						<effect>
							<name>Audio Levels</name>
							<effectid>audiolevels</effectid>
							<effectcategory>audiolevels</effectcategory>
							<effecttype>audiolevels</effecttype>
							<mediatype>audio</mediatype>
							<parameter>
								<name>Level</name>
								<parameterid>level</parameterid>
								<valuemin>0</valuemin>
								<valuemax>3.98109</valuemax>
								<value>1</value>
							</parameter>
						</effect>
					</filter>
					<filter>
						<effect>
							<name>Audio Pan</name>
							<effectid>audiopan</effectid>
							<effectcategory>audiopan</effectcategory>
							<effecttype>audiopan</effecttype>
							<mediatype>audio</mediatype>
							<parameter>
								<name>Pan</name>
								<parameterid>pan</parameterid>
								<valuemin>-1</valuemin>
								<valuemax>1</valuemax>
								<value>1</value>
							</parameter>
						</effect>
					</filter>
					<sourcetrack>
						<mediatype>audio</mediatype>
						<trackindex>2</trackindex>
					</sourcetrack>
					<link>
						<linkclipref>MVI_7383 </linkclipref>
						<mediatype>video</mediatype>
						<trackindex>1</trackindex>
						<clipindex>5</clipindex>
					</link>
					<link>
						<linkclipref>MVI_7383 3</linkclipref>
						<mediatype>audio</mediatype>
						<trackindex>1</trackindex>
						<clipindex>5</clipindex>
						<groupindex>1</groupindex>
					</link>
					<link>
						<linkclipref>MVI_7383 4</linkclipref>
						<mediatype>audio</mediatype>
						<trackindex>2</trackindex>
						<clipindex>5</clipindex>
						<groupindex>1</groupindex>
					</link>
					<itemhistory>
						<uuid>578F42FD-BDD9-4ADE-A43B-A37DEB44DA21</uuid>
					</itemhistory>
				</clipitem>
				<clipitem id="MVI_7385 4">
					<name>MVI_7385</name>
					<duration>6979</duration>
					<rate>
						<ntsc>TRUE</ntsc>
						<timebase>24</timebase>
					</rate>
					<in>0</in>
					<out>6979</out>
					<start>78021</start>
					<end>85000</end>
					<masterclipid>MVI_7385 1</masterclipid>
					<logginginfo>
						<scene/>
						<shottake/>
						<lognote/>
						<good>FALSE</good>
					</logginginfo>
					<labels>
						<label2/>
					</labels>
					<comments>
						<mastercomment1/>
						<mastercomment2/>
						<mastercomment3/>
						<mastercomment4/>
					</comments>
					<file id="MVI_7385 2"/>
					<marker>
						<name>Anxious about the future</name>
						<comment>solutions,coding for humanity,survival,future</comment>
						<color>
							<alpha>0</alpha>
							<red>255</red>
							<green>0</green>
							<blue>0</blue>
						</color>
						<in>1817</in>
						<out>3418</out>
					</marker>
					<marker>
						<name>staring down the barrel</name>
						<comment>solutions,coding for humanity,survival,future, technological progress, dystopia&#13;</comment>
						<color>
							<alpha>0</alpha>
							<red>255</red>
							<green>0</green>
							<blue>0</blue>
						</color>
						<in>4215</in>
						<out>5336</out>
					</marker>
					<filter>
						<effect>
							<name>Audio Levels</name>
							<effectid>audiolevels</effectid>
							<effectcategory>audiolevels</effectcategory>
							<effecttype>audiolevels</effecttype>
							<mediatype>audio</mediatype>
							<parameter>
								<name>Level</name>
								<parameterid>level</parameterid>
								<valuemin>0</valuemin>
								<valuemax>3.98109</valuemax>
								<value>1</value>
							</parameter>
						</effect>
					</filter>
					<filter>
						<effect>
							<name>Audio Pan</name>
							<effectid>audiopan</effectid>
							<effectcategory>audiopan</effectcategory>
							<effecttype>audiopan</effecttype>
							<mediatype>audio</mediatype>
							<parameter>
								<name>Pan</name>
								<parameterid>pan</parameterid>
								<valuemin>-1</valuemin>
								<valuemax>1</valuemax>
								<value>1</value>
							</parameter>
						</effect>
					</filter>
					<sourcetrack>
						<mediatype>audio</mediatype>
						<trackindex>2</trackindex>
					</sourcetrack>
					<link>
						<linkclipref>MVI_7385 </linkclipref>
						<mediatype>video</mediatype>
						<trackindex>1</trackindex>
						<clipindex>6</clipindex>
					</link>
					<link>
						<linkclipref>MVI_7385 3</linkclipref>
						<mediatype>audio</mediatype>
						<trackindex>1</trackindex>
						<clipindex>6</clipindex>
						<groupindex>1</groupindex>
					</link>
					<link>
						<linkclipref>MVI_7385 4</linkclipref>
						<mediatype>audio</mediatype>
						<trackindex>2</trackindex>
						<clipindex>6</clipindex>
						<groupindex>1</groupindex>
					</link>
					<itemhistory>
						<uuid>81C4C0B5-0856-4730-A87A-E578B810504F</uuid>
					</itemhistory>
				</clipitem>
				<clipitem id="MVI_7386 4">
					<name>MVI_7386</name>
					<duration>10419</duration>
					<rate>
						<ntsc>TRUE</ntsc>
						<timebase>24</timebase>
					</rate>
					<in>0</in>
					<out>10419</out>
					<start>85000</start>
					<end>95419</end>
					<masterclipid>MVI_7386 1</masterclipid>
					<logginginfo>
						<scene/>
						<shottake/>
						<lognote/>
						<good>FALSE</good>
					</logginginfo>
					<labels>
						<label2/>
					</labels>
					<comments>
						<mastercomment1/>
						<mastercomment2/>
						<mastercomment3/>
						<mastercomment4/>
					</comments>
					<file id="MVI_7386 2"/>
					<marker>
						<name>why make art</name>
						<comment>why,useless,art</comment>
						<color>
							<alpha>0</alpha>
							<red>255</red>
							<green>0</green>
							<blue>0</blue>
						</color>
						<in>96</in>
						<out>1402</out>
					</marker>
					<marker>
						<name>formalism</name>
						<comment>formalism,math,beauty,beautiful exhuberance</comment>
						<color>
							<alpha>0</alpha>
							<red>255</red>
							<green>0</green>
							<blue>0</blue>
						</color>
						<in>2579</in>
						<out>4190</out>
					</marker>
					<marker>
						<name>audiovisual concept</name>
						<comment>audiovisualization,beauty,systems,synesthesia,behavior</comment>
						<color>
							<alpha>0</alpha>
							<red>255</red>
							<green>0</green>
							<blue>0</blue>
						</color>
						<in>4235</in>
						<out>4880</out>
					</marker>
					<marker>
						<name>easy beauty</name>
						<comment>beauty,aesthetics,critique</comment>
						<color>
							<alpha>0</alpha>
							<red>255</red>
							<green>0</green>
							<blue>0</blue>
						</color>
						<in>5015</in>
						<out>5542</out>
					</marker>
					<marker>
						<name>raytraced spheres</name>
						<comment>newness,new media old media,nostalgia, history&#13;</comment>
						<color>
							<alpha>0</alpha>
							<red>255</red>
							<green>0</green>
							<blue>0</blue>
						</color>
						<in>6592</in>
						<out>7078</out>
					</marker>
					<marker>
						<name>laughter</name>
						<comment>laughter,emotion, weird&#13;</comment>
						<color>
							<alpha>0</alpha>
							<red>255</red>
							<green>0</green>
							<blue>0</blue>
						</color>
						<in>8613</in>
						<out>9370</out>
					</marker>
					<marker>
						<name>laughter2</name>
						<comment>laughter,emotion</comment>
						<color>
							<alpha>0</alpha>
							<red>255</red>
							<green>0</green>
							<blue>0</blue>
						</color>
						<in>9370</in>
						<out>9959</out>
					</marker>
					<filter>
						<effect>
							<name>Audio Levels</name>
							<effectid>audiolevels</effectid>
							<effectcategory>audiolevels</effectcategory>
							<effecttype>audiolevels</effecttype>
							<mediatype>audio</mediatype>
							<parameter>
								<name>Level</name>
								<parameterid>level</parameterid>
								<valuemin>0</valuemin>
								<valuemax>3.98109</valuemax>
								<value>1</value>
							</parameter>
						</effect>
					</filter>
					<filter>
						<effect>
							<name>Audio Pan</name>
							<effectid>audiopan</effectid>
							<effectcategory>audiopan</effectcategory>
							<effecttype>audiopan</effecttype>
							<mediatype>audio</mediatype>
							<parameter>
								<name>Pan</name>
								<parameterid>pan</parameterid>
								<valuemin>-1</valuemin>
								<valuemax>1</valuemax>
								<value>1</value>
							</parameter>
						</effect>
					</filter>
					<sourcetrack>
						<mediatype>audio</mediatype>
						<trackindex>2</trackindex>
					</sourcetrack>
					<link>
						<linkclipref>MVI_7386 </linkclipref>
						<mediatype>video</mediatype>
						<trackindex>1</trackindex>
						<clipindex>7</clipindex>
					</link>
					<link>
						<linkclipref>MVI_7386 3</linkclipref>
						<mediatype>audio</mediatype>
						<trackindex>1</trackindex>
						<clipindex>7</clipindex>
						<groupindex>1</groupindex>
					</link>
					<link>
						<linkclipref>MVI_7386 4</linkclipref>
						<mediatype>audio</mediatype>
						<trackindex>2</trackindex>
						<clipindex>7</clipindex>
						<groupindex>1</groupindex>
					</link>
					<itemhistory>
						<uuid>24591A77-A7BE-49B6-AB29-9A48519D057D</uuid>
					</itemhistory>
				</clipitem>
				<clipitem id="MVI_7387 4">
					<name>MVI_7387</name>
					<duration>4413</duration>
					<rate>
						<ntsc>TRUE</ntsc>
						<timebase>24</timebase>
					</rate>
					<in>0</in>
					<out>4413</out>
					<start>95419</start>
					<end>99832</end>
					<masterclipid>MVI_7387 1</masterclipid>
					<logginginfo>
						<scene/>
						<shottake/>
						<lognote/>
						<good>FALSE</good>
					</logginginfo>
					<labels>
						<label2/>
					</labels>
					<comments>
						<mastercomment1/>
						<mastercomment2/>
						<mastercomment3/>
						<mastercomment4/>
					</comments>
					<file id="MVI_7387 2"/>
					<marker>
						<name>kerrington</name>
						<comment>apocalypse,survival,future, weird&#13;&#13;&#13;</comment>
						<color>
							<alpha>0</alpha>
							<red>255</red>
							<green>0</green>
							<blue>0</blue>
						</color>
						<in>334</in>
						<out>1365</out>
					</marker>
					<marker>
						<name>kessler</name>
						<comment>apocalypse,survival,future, weird&#13;&#13;</comment>
						<color>
							<alpha>0</alpha>
							<red>255</red>
							<green>0</green>
							<blue>0</blue>
						</color>
						<in>1365</in>
						<out>3011</out>
					</marker>
					<marker>
						<name>apocalypse3</name>
						<comment>apocalypse,survival,future,</comment>
						<color>
							<alpha>0</alpha>
							<red>255</red>
							<green>0</green>
							<blue>0</blue>
						</color>
						<in>3044</in>
						<out>4359</out>
					</marker>
					<filter>
						<effect>
							<name>Audio Levels</name>
							<effectid>audiolevels</effectid>
							<effectcategory>audiolevels</effectcategory>
							<effecttype>audiolevels</effecttype>
							<mediatype>audio</mediatype>
							<parameter>
								<name>Level</name>
								<parameterid>level</parameterid>
								<valuemin>0</valuemin>
								<valuemax>3.98109</valuemax>
								<value>1</value>
							</parameter>
						</effect>
					</filter>
					<filter>
						<effect>
							<name>Audio Pan</name>
							<effectid>audiopan</effectid>
							<effectcategory>audiopan</effectcategory>
							<effecttype>audiopan</effecttype>
							<mediatype>audio</mediatype>
							<parameter>
								<name>Pan</name>
								<parameterid>pan</parameterid>
								<valuemin>-1</valuemin>
								<valuemax>1</valuemax>
								<value>1</value>
							</parameter>
						</effect>
					</filter>
					<sourcetrack>
						<mediatype>audio</mediatype>
						<trackindex>2</trackindex>
					</sourcetrack>
					<link>
						<linkclipref>MVI_7387 </linkclipref>
						<mediatype>video</mediatype>
						<trackindex>1</trackindex>
						<clipindex>8</clipindex>
					</link>
					<link>
						<linkclipref>MVI_7387 3</linkclipref>
						<mediatype>audio</mediatype>
						<trackindex>1</trackindex>
						<clipindex>8</clipindex>
						<groupindex>1</groupindex>
					</link>
					<link>
						<linkclipref>MVI_7387 4</linkclipref>
						<mediatype>audio</mediatype>
						<trackindex>2</trackindex>
						<clipindex>8</clipindex>
						<groupindex>1</groupindex>
					</link>
					<itemhistory>
						<uuid>75BDA479-8BE7-444F-AD21-622BB532DFE6</uuid>
					</itemhistory>
				</clipitem>
				<enabled>TRUE</enabled>
				<locked>FALSE</locked>
				<outputchannelindex>2</outputchannelindex>
			</track>
			<track>
				<enabled>TRUE</enabled>
				<locked>FALSE</locked>
				<outputchannelindex>1</outputchannelindex>
			</track>
			<track>
				<enabled>TRUE</enabled>
				<locked>FALSE</locked>
				<outputchannelindex>2</outputchannelindex>
			</track>
			<filter>
				<effect>
					<name>Audio Levels</name>
					<effectid>audiolevels</effectid>
					<effectcategory>audiolevels</effectcategory>
					<effecttype>audiolevels</effecttype>
					<mediatype>audio</mediatype>
					<parameter>
						<name>Level</name>
						<parameterid>level</parameterid>
						<valuemin>0</valuemin>
						<valuemax>3.98109</valuemax>
						<value>1</value>
					</parameter>
				</effect>
			</filter>
		</audio>
	</media>
	<ismasterclip>FALSE</ismasterclip>
</sequence>
<sequence id="Greg">
	<uuid>62F69229-6861-4EC4-8A8D-EDDB0B2D471C</uuid>
	<updatebehavior>add</updatebehavior>
	<name>Greg</name>
	<duration>37767</duration>
	<rate>
		<ntsc>TRUE</ntsc>
		<timebase>24</timebase>
	</rate>
	<timecode>
		<rate>
			<ntsc>TRUE</ntsc>
			<timebase>24</timebase>
		</rate>
		<string>00:00:00:00</string>
		<frame>0</frame>
		<source>source</source>
		<displayformat>NDF</displayformat>
	</timecode>
	<in>-1</in>
	<out>-1</out>
	<media>
		<video>
			<format>
				<samplecharacteristics>
					<width>1920</width>
					<height>1080</height>
					<anamorphic>FALSE</anamorphic>
					<pixelaspectratio>Square</pixelaspectratio>
					<fielddominance>none</fielddominance>
					<rate>
						<ntsc>TRUE</ntsc>
						<timebase>24</timebase>
					</rate>
					<colordepth>24</colordepth>
					<codec>
						<name>Apple ProRes 422</name>
						<appspecificdata>
							<appname>Final Cut Pro</appname>
							<appmanufacturer>Apple Inc.</appmanufacturer>
							<appversion>7.0</appversion>
							<data>
								<qtcodec>
									<codecname>Apple ProRes 422</codecname>
									<codectypename>Apple ProRes 422</codectypename>
									<codectypecode>apcn</codectypecode>
									<codecvendorcode>appl</codecvendorcode>
									<spatialquality>1024</spatialquality>
									<temporalquality>0</temporalquality>
									<keyframerate>0</keyframerate>
									<datarate>0</datarate>
								</qtcodec>
							</data>
						</appspecificdata>
					</codec>
				</samplecharacteristics>
				<appspecificdata>
					<appname>Final Cut Pro</appname>
					<appmanufacturer>Apple Inc.</appmanufacturer>
					<appversion>7.0</appversion>
					<data>
						<fcpimageprocessing>
							<useyuv>TRUE</useyuv>
							<usesuperwhite>FALSE</usesuperwhite>
							<rendermode>Float10BPP</rendermode>
						</fcpimageprocessing>
					</data>
				</appspecificdata>
			</format>
			<track>
				<clipitem id="MVI_1201 ">
					<name>MVI_1201</name>
					<duration>3594</duration>
					<rate>
						<ntsc>TRUE</ntsc>
						<timebase>24</timebase>
					</rate>
					<in>0</in>
					<out>3594</out>
					<start>0</start>
					<end>3594</end>
					<pixelaspectratio>Square</pixelaspectratio>
					<anamorphic>FALSE</anamorphic>
					<alphatype>none</alphatype>
					<masterclipid>MVI_1201 1</masterclipid>
					<logginginfo>
						<scene/>
						<shottake/>
						<lognote/>
						<good>FALSE</good>
					</logginginfo>
					<labels>
						<label2/>
					</labels>
					<comments>
						<mastercomment1/>
						<mastercomment2/>
						<mastercomment3/>
						<mastercomment4/>
					</comments>
					<file id="MVI_1201 2">
						<name>MVI_1201.mov</name>
						<pathurl>file://localhost/Volumes/Nebula/MediaPackages/ITPClouds/Greg01/color/MVI_1201.mov</pathurl>
						<rate>
							<timebase>24</timebase>
							<ntsc>TRUE</ntsc>
						</rate>
						<duration>3594</duration>
						<media>
							<video>
								<duration>3594</duration>
								<samplecharacteristics>
									<width>1920</width>
									<height>1080</height>
								</samplecharacteristics>
							</video>
							<audio>
								<samplecharacteristics>
									<samplerate>48000</samplerate>
									<depth>16</depth>
								</samplecharacteristics>
								<channelcount>2</channelcount>
							</audio>
						</media>
					</file>
					<marker>
						<name>cameras getting cheaper</name>
						<comment>technological progress, camera, sensor, machine vision, ubiquitous computing</comment>
						<color>
							<alpha>0</alpha>
							<red>255</red>
							<green>0</green>
							<blue>0</blue>
						</color>
						<in>2235</in>
						<out>2599</out>
					</marker>
					<marker>
						<name>ubiquitous computing</name>
						<comment>camera, machine vision, ubiquitous computing,</comment>
						<color>
							<alpha>0</alpha>
							<red>255</red>
							<green>0</green>
							<blue>0</blue>
						</color>
						<in>3241</in>
						<out>3432</out>
					</marker>
					<sourcetrack>
						<mediatype>video</mediatype>
					</sourcetrack>
					<link>
						<linkclipref>MVI_1201 </linkclipref>
						<mediatype>video</mediatype>
						<trackindex>1</trackindex>
						<clipindex>1</clipindex>
					</link>
					<link>
						<linkclipref>MVI_1201 3</linkclipref>
						<mediatype>audio</mediatype>
						<trackindex>1</trackindex>
						<clipindex>1</clipindex>
						<groupindex>1</groupindex>
					</link>
					<link>
						<linkclipref>MVI_1201 4</linkclipref>
						<mediatype>audio</mediatype>
						<trackindex>2</trackindex>
						<clipindex>1</clipindex>
						<groupindex>1</groupindex>
					</link>
					<fielddominance>none</fielddominance>
					<itemhistory>
						<uuid>E1C5BAFD-3E08-48F4-8620-2786F3E5ED58</uuid>
					</itemhistory>
				</clipitem>
				<clipitem id="MVI_1202 ">
					<name>MVI_1202</name>
					<duration>12795</duration>
					<rate>
						<ntsc>TRUE</ntsc>
						<timebase>24</timebase>
					</rate>
					<in>0</in>
					<out>12795</out>
					<start>3594</start>
					<end>16389</end>
					<pixelaspectratio>Square</pixelaspectratio>
					<anamorphic>FALSE</anamorphic>
					<alphatype>none</alphatype>
					<masterclipid>MVI_1202 1</masterclipid>
					<logginginfo>
						<scene/>
						<shottake/>
						<lognote/>
						<good>FALSE</good>
					</logginginfo>
					<labels>
						<label2/>
					</labels>
					<comments>
						<mastercomment1/>
						<mastercomment2/>
						<mastercomment3/>
						<mastercomment4/>
					</comments>
					<file id="MVI_1202 2">
						<name>MVI_1202.mov</name>
						<pathurl>file://localhost/Volumes/Nebula/MediaPackages/ITPClouds/Greg02/color/MVI_1202.mov</pathurl>
						<rate>
							<timebase>24</timebase>
							<ntsc>TRUE</ntsc>
						</rate>
						<duration>12795</duration>
						<media>
							<video>
								<duration>12795</duration>
								<samplecharacteristics>
									<width>1920</width>
									<height>1080</height>
								</samplecharacteristics>
							</video>
							<audio>
								<samplecharacteristics>
									<samplerate>48000</samplerate>
									<depth>16</depth>
								</samplecharacteristics>
								<channelcount>2</channelcount>
							</audio>
						</media>
					</file>
					<marker>
						<name>Cameras scaling up</name>
						<comment>technological progress, camera, sensor, machine vision, ubiquitous computing, object recognition</comment>
						<color>
							<alpha>0</alpha>
							<red>255</red>
							<green>0</green>
							<blue>0</blue>
						</color>
						<in>2119</in>
						<out>3031</out>
					</marker>
					<marker>
						<name>Doug Engelbart part 1</name>
						<comment>cognition,symbiosis,man vs machine,tools</comment>
						<color>
							<alpha>0</alpha>
							<red>255</red>
							<green>0</green>
							<blue>0</blue>
						</color>
						<in>4966</in>
						<out>5236</out>
					</marker>
					<marker>
						<name>human augmentation</name>
						<comment>cognition,symbiosis,man vs machine,tools</comment>
						<color>
							<alpha>0</alpha>
							<red>255</red>
							<green>0</green>
							<blue>0</blue>
						</color>
						<in>5543</in>
						<out>6027</out>
					</marker>
					<marker>
						<name>A.I.</name>
						<comment>artificial intelligence,machine vision,cognition,technological progress,technoptimism</comment>
						<color>
							<alpha>0</alpha>
							<red>255</red>
							<green>0</green>
							<blue>0</blue>
						</color>
						<in>6046</in>
						<out>6876</out>
					</marker>
					<marker>
						<name>object oriented ontology 1</name>
						<comment>man vs machine,humanism,new aesthetic,machine aesthetics, philsophy, existence, things, internet of things, link:Greg - Object oriented ontology 2</comment>
						<color>
							<alpha>0</alpha>
							<red>255</red>
							<green>0</green>
							<blue>0</blue>
						</color>
						<in>7903</in>
						<out>8470</out>
					</marker>
					<marker>
						<name>object oriented ontology 3</name>
						<comment>weird, existence, philosophy, funny,</comment>
						<color>
							<alpha>0</alpha>
							<red>255</red>
							<green>0</green>
							<blue>0</blue>
						</color>
						<in>8709</in>
						<out>9090</out>
					</marker>
					<marker>
						<name>Object Oriented Ontology 2</name>
						<comment>man vs machine,humanism,new aesthetic,machine aesthetics, philsophy, existence, things, internet of things,link:Greg - the "Like" button cascade</comment>
						<color>
							<alpha>0</alpha>
							<red>255</red>
							<green>0</green>
							<blue>0</blue>
						</color>
						<in>9985</in>
						<out>10260</out>
					</marker>
					<marker>
						<name>the "Like" button cascade</name>
						<comment>social media,social,facebook,big data,data visualization</comment>
						<color>
							<alpha>0</alpha>
							<red>255</red>
							<green>0</green>
							<blue>0</blue>
						</color>
						<in>10758</in>
						<out>11851</out>
					</marker>
					<sourcetrack>
						<mediatype>video</mediatype>
					</sourcetrack>
					<link>
						<linkclipref>MVI_1202 </linkclipref>
						<mediatype>video</mediatype>
						<trackindex>1</trackindex>
						<clipindex>2</clipindex>
					</link>
					<link>
						<linkclipref>MVI_1202 3</linkclipref>
						<mediatype>audio</mediatype>
						<trackindex>1</trackindex>
						<clipindex>2</clipindex>
						<groupindex>1</groupindex>
					</link>
					<link>
						<linkclipref>MVI_1202 4</linkclipref>
						<mediatype>audio</mediatype>
						<trackindex>2</trackindex>
						<clipindex>2</clipindex>
						<groupindex>1</groupindex>
					</link>
					<fielddominance>none</fielddominance>
					<itemhistory>
						<uuid>57DAF2B5-5C6A-4CB3-ACBE-387366F41966</uuid>
					</itemhistory>
				</clipitem>
				<clipitem id="MVI_1203 ">
					<name>MVI_1203</name>
					<duration>16119</duration>
					<rate>
						<ntsc>TRUE</ntsc>
						<timebase>24</timebase>
					</rate>
					<in>0</in>
					<out>16119</out>
					<start>16389</start>
					<end>32508</end>
					<pixelaspectratio>Square</pixelaspectratio>
					<anamorphic>FALSE</anamorphic>
					<alphatype>none</alphatype>
					<masterclipid>MVI_1203 1</masterclipid>
					<logginginfo>
						<scene/>
						<shottake/>
						<lognote/>
						<good>FALSE</good>
					</logginginfo>
					<labels>
						<label2/>
					</labels>
					<comments>
						<mastercomment1/>
						<mastercomment2/>
						<mastercomment3/>
						<mastercomment4/>
					</comments>
					<file id="MVI_1203 2">
						<name>MVI_1203.mov</name>
						<pathurl>file://localhost/Volumes/Nebula/MediaPackages/ITPClouds/Greg03/color/MVI_1203.mov</pathurl>
						<rate>
							<timebase>24</timebase>
							<ntsc>TRUE</ntsc>
						</rate>
						<duration>16119</duration>
						<media>
							<video>
								<duration>16119</duration>
								<samplecharacteristics>
									<width>1920</width>
									<height>1080</height>
								</samplecharacteristics>
							</video>
							<audio>
								<samplecharacteristics>
									<samplerate>48000</samplerate>
									<depth>16</depth>
								</samplecharacteristics>
								<channelcount>2</channelcount>
							</audio>
						</media>
					</file>
					<marker>
						<name>Marker 1</name>
						<comment/>
						<color>
							<alpha>0</alpha>
							<red>255</red>
							<green>0</green>
							<blue>0</blue>
						</color>
						<in>659</in>
						<out>1306</out>
					</marker>
					<marker>
						<name>Trickle down</name>
						<comment>research,R&amp;D,knowledge,technological progress,technology, link:Kyle_MC - Grab them ASAP</comment>
						<color>
							<alpha>0</alpha>
							<red>255</red>
							<green>0</green>
							<blue>0</blue>
						</color>
						<in>1890</in>
						<out>3163</out>
					</marker>
					<marker>
						<name>engage with research</name>
						<comment>technological progress,research,tools,algorithm</comment>
						<color>
							<alpha>0</alpha>
							<red>255</red>
							<green>0</green>
							<blue>0</blue>
						</color>
						<in>3779</in>
						<out>4407</out>
					</marker>
					<marker>
						<name>Sharpening spears </name>
						<comment>technological progress,tribe,tools</comment>
						<color>
							<alpha>0</alpha>
							<red>255</red>
							<green>0</green>
							<blue>0</blue>
						</color>
						<in>4416</in>
						<out>4696</out>
					</marker>
					<marker>
						<name>Creative Coder</name>
						<comment>art versus engineering,art and code,art and tech, link:Greg - Creative Coder 2</comment>
						<color>
							<alpha>0</alpha>
							<red>255</red>
							<green>0</green>
							<blue>0</blue>
						</color>
						<in>13055</in>
						<out>13770</out>
					</marker>
					<marker>
						<name>Gaze tracking</name>
						<comment>privacy,security,public/private,R&amp;D,machine vision, art and security, surveillance</comment>
						<color>
							<alpha>0</alpha>
							<red>255</red>
							<green>0</green>
							<blue>0</blue>
						</color>
						<in>13899</in>
						<out>14692</out>
					</marker>
					<marker>
						<name>Creative Coder 2</name>
						<comment/>
						<color>
							<alpha>0</alpha>
							<red>255</red>
							<green>0</green>
							<blue>0</blue>
						</color>
						<in>15502</in>
						<out>15929</out>
					</marker>
					<sourcetrack>
						<mediatype>video</mediatype>
					</sourcetrack>
					<link>
						<linkclipref>MVI_1203 </linkclipref>
						<mediatype>video</mediatype>
						<trackindex>1</trackindex>
						<clipindex>3</clipindex>
					</link>
					<link>
						<linkclipref>MVI_1203 3</linkclipref>
						<mediatype>audio</mediatype>
						<trackindex>1</trackindex>
						<clipindex>4</clipindex>
						<groupindex>1</groupindex>
					</link>
					<link>
						<linkclipref>MVI_1203 4</linkclipref>
						<mediatype>audio</mediatype>
						<trackindex>2</trackindex>
						<clipindex>4</clipindex>
						<groupindex>1</groupindex>
					</link>
					<fielddominance>none</fielddominance>
					<itemhistory>
						<uuid>B4ACE8C1-F126-4CFD-B622-417B2C2DEB32</uuid>
					</itemhistory>
				</clipitem>
				<clipitem id="MVI_1204 ">
					<name>MVI_1204</name>
					<duration>5259</duration>
					<rate>
						<ntsc>TRUE</ntsc>
						<timebase>24</timebase>
					</rate>
					<in>0</in>
					<out>5259</out>
					<start>32508</start>
					<end>37767</end>
					<pixelaspectratio>Square</pixelaspectratio>
					<anamorphic>FALSE</anamorphic>
					<alphatype>none</alphatype>
					<masterclipid>MVI_1204 1</masterclipid>
					<logginginfo>
						<scene/>
						<shottake/>
						<lognote/>
						<good>FALSE</good>
					</logginginfo>
					<labels>
						<label2/>
					</labels>
					<comments>
						<mastercomment1/>
						<mastercomment2/>
						<mastercomment3/>
						<mastercomment4/>
					</comments>
					<file id="MVI_1204 2">
						<name>MVI_1204.mov</name>
						<pathurl>file://localhost/Volumes/Nebula/MediaPackages/ITPClouds/Greg04/color/MVI_1204.mov</pathurl>
						<rate>
							<timebase>24</timebase>
							<ntsc>TRUE</ntsc>
						</rate>
						<duration>5259</duration>
						<media>
							<video>
								<duration>5259</duration>
								<samplecharacteristics>
									<width>1920</width>
									<height>1080</height>
								</samplecharacteristics>
							</video>
							<audio>
								<samplecharacteristics>
									<samplerate>48000</samplerate>
									<depth>16</depth>
								</samplecharacteristics>
								<channelcount>2</channelcount>
							</audio>
						</media>
					</file>
					<marker>
						<name>community</name>
						<comment>What is a career or discipline that will exist in the future that doesn't exist yet?,&#13;community,sharing,knowledge</comment>
						<color>
							<alpha>0</alpha>
							<red>255</red>
							<green>0</green>
							<blue>0</blue>
						</color>
						<in>1096</in>
						<out>2123</out>
					</marker>
					<marker>
						<name>visual effects</name>
						<comment>visualization, storytelling, future of cinema, motivation,</comment>
						<color>
							<alpha>0</alpha>
							<red>255</red>
							<green>0</green>
							<blue>0</blue>
						</color>
						<in>4264</in>
						<out>5006</out>
					</marker>
					<filter>
						<effect>
							<name>Basic Motion</name>
							<effectid>basic</effectid>
							<effectcategory>motion</effectcategory>
							<effecttype>motion</effecttype>
							<mediatype>video</mediatype>
							<parameter>
								<parameterid>center</parameterid>
								<name>Center</name>
								<value>
									<horiz>0</horiz>
									<vert>0.000925926</vert>
								</value>
							</parameter>
						</effect>
					</filter>
					<sourcetrack>
						<mediatype>video</mediatype>
					</sourcetrack>
					<link>
						<linkclipref>MVI_1204 </linkclipref>
						<mediatype>video</mediatype>
						<trackindex>1</trackindex>
						<clipindex>4</clipindex>
					</link>
					<link>
						<linkclipref>MVI_1204 3</linkclipref>
						<mediatype>audio</mediatype>
						<trackindex>1</trackindex>
						<clipindex>5</clipindex>
						<groupindex>1</groupindex>
					</link>
					<link>
						<linkclipref>MVI_1204 4</linkclipref>
						<mediatype>audio</mediatype>
						<trackindex>2</trackindex>
						<clipindex>5</clipindex>
						<groupindex>1</groupindex>
					</link>
					<fielddominance>none</fielddominance>
					<itemhistory>
						<uuid>F5D43959-7B5D-4AB2-BB31-E4E0F9263FA6</uuid>
					</itemhistory>
				</clipitem>
				<enabled>TRUE</enabled>
				<locked>FALSE</locked>
			</track>
			<track>
				<clipitem id="MVI_1202 5">
					<name>MVI_1202</name>
					<duration>12795</duration>
					<rate>
						<ntsc>TRUE</ntsc>
						<timebase>24</timebase>
					</rate>
					<in>0</in>
					<out>10758</out>
					<start>3594</start>
					<end>14352</end>
					<pixelaspectratio>Square</pixelaspectratio>
					<enabled>TRUE</enabled>
					<anamorphic>FALSE</anamorphic>
					<alphatype>none</alphatype>
					<masterclipid>MVI_1202 1</masterclipid>
					<logginginfo>
						<scene/>
						<shottake/>
						<lognote/>
						<good>FALSE</good>
					</logginginfo>
					<labels>
						<label2/>
					</labels>
					<comments>
						<mastercomment1/>
						<mastercomment2/>
						<mastercomment3/>
						<mastercomment4/>
					</comments>
					<file id="MVI_1202 2"/>
					<marker>
						<name>Cameras scaling up</name>
						<comment>technological progress, camera, sensor, machine vision, ubiquitous computing, object recognition</comment>
						<color>
							<alpha>0</alpha>
							<red>255</red>
							<green>0</green>
							<blue>0</blue>
						</color>
						<in>2119</in>
						<out>3031</out>
					</marker>
					<marker>
						<name>Doug Engelbart part 2</name>
						<comment/>
						<color>
							<alpha>0</alpha>
							<red>255</red>
							<green>0</green>
							<blue>0</blue>
						</color>
						<in>5492</in>
						<out>6033</out>
					</marker>
					<sourcetrack>
						<mediatype>video</mediatype>
					</sourcetrack>
					<fielddominance>none</fielddominance>
					<itemhistory>
						<uuid>5BF0E889-63C4-4F3C-8F6C-C6A2B328B388</uuid>
						<uuid>A7C2B15D-C35F-45DB-98A8-F8F0260F8AD7</uuid>
					</itemhistory>
				</clipitem>
				<clipitem id="MVI_1202 6">
					<name>MVI_1202</name>
					<duration>12795</duration>
					<rate>
						<ntsc>TRUE</ntsc>
						<timebase>24</timebase>
					</rate>
					<in>10758</in>
					<out>12795</out>
					<start>14352</start>
					<end>16389</end>
					<pixelaspectratio>Square</pixelaspectratio>
					<enabled>TRUE</enabled>
					<anamorphic>FALSE</anamorphic>
					<alphatype>none</alphatype>
					<masterclipid>MVI_1202 1</masterclipid>
					<logginginfo>
						<scene/>
						<shottake/>
						<lognote/>
						<good>FALSE</good>
					</logginginfo>
					<labels>
						<label2/>
					</labels>
					<comments>
						<mastercomment1/>
						<mastercomment2/>
						<mastercomment3/>
						<mastercomment4/>
					</comments>
					<file id="MVI_1202 2"/>
					<marker>
						<name>Cameras scaling up</name>
						<comment>technological progress, camera, sensor, machine vision, ubiquitous computing, object recognition</comment>
						<color>
							<alpha>0</alpha>
							<red>255</red>
							<green>0</green>
							<blue>0</blue>
						</color>
						<in>2119</in>
						<out>3031</out>
					</marker>
					<marker>
						<name>Doug Engelbart part 2</name>
						<comment/>
						<color>
							<alpha>0</alpha>
							<red>255</red>
							<green>0</green>
							<blue>0</blue>
						</color>
						<in>5492</in>
						<out>6033</out>
					</marker>
					<sourcetrack>
						<mediatype>video</mediatype>
					</sourcetrack>
					<fielddominance>none</fielddominance>
					<itemhistory>
						<uuid>99B104B3-18F0-471B-90A7-EDA671F9F7BD</uuid>
						<uuid>A7C2B15D-C35F-45DB-98A8-F8F0260F8AD7</uuid>
					</itemhistory>
				</clipitem>
				<clipitem id="MVI_1203 5">
					<name>MVI_1203</name>
					<duration>16119</duration>
					<rate>
						<ntsc>TRUE</ntsc>
						<timebase>24</timebase>
					</rate>
					<in>0</in>
					<out>16119</out>
					<start>16389</start>
					<end>32508</end>
					<pixelaspectratio>Square</pixelaspectratio>
					<anamorphic>FALSE</anamorphic>
					<alphatype>none</alphatype>
					<masterclipid>MVI_1203 1</masterclipid>
					<logginginfo>
						<scene/>
						<shottake/>
						<lognote/>
						<good>FALSE</good>
					</logginginfo>
					<labels>
						<label2/>
					</labels>
					<comments>
						<mastercomment1/>
						<mastercomment2/>
						<mastercomment3/>
						<mastercomment4/>
					</comments>
					<file id="MVI_1203 2"/>
					<marker>
						<name>makematics1</name>
						<comment>learning,math,algorithm,R&amp;D,struggle with technology,&#13;link:Greg - makematics2</comment>
						<color>
							<alpha>0</alpha>
							<red>255</red>
							<green>0</green>
							<blue>0</blue>
						</color>
						<in>518</in>
						<out>861</out>
					</marker>
					<marker>
						<name>makematics2</name>
						<comment>learning,math,algorithm,R&amp;D,struggle with technology</comment>
						<color>
							<alpha>0</alpha>
							<red>255</red>
							<green>0</green>
							<blue>0</blue>
						</color>
						<in>1306</in>
						<out>-1</out>
					</marker>
					<marker>
						<name>Marker 2</name>
						<comment/>
						<color>
							<alpha>0</alpha>
							<red>255</red>
							<green>0</green>
							<blue>0</blue>
						</color>
						<in>1308</in>
						<out>1718</out>
					</marker>
					<sourcetrack>
						<mediatype>video</mediatype>
					</sourcetrack>
					<fielddominance>none</fielddominance>
					<itemhistory>
						<uuid>1DE5EBA8-C292-479E-8BDB-4E2948A54629</uuid>
					</itemhistory>
				</clipitem>
				<enabled>TRUE</enabled>
				<locked>FALSE</locked>
			</track>
		</video>
		<audio>
			<format>
				<samplecharacteristics>
					<depth>16</depth>
					<samplerate>48000</samplerate>
				</samplecharacteristics>
			</format>
			<outputs>
				<group>
					<index>1</index>
					<numchannels>2</numchannels>
					<downmix>0</downmix>
					<channel>
						<index>1</index>
					</channel>
					<channel>
						<index>2</index>
					</channel>
				</group>
			</outputs>
			<in>-1</in>
			<out>-1</out>
			<track>
				<clipitem id="MVI_1201 3">
					<name>MVI_1201</name>
					<duration>3594</duration>
					<rate>
						<ntsc>TRUE</ntsc>
						<timebase>24</timebase>
					</rate>
					<in>0</in>
					<out>3594</out>
					<start>0</start>
					<end>3594</end>
					<masterclipid>MVI_1201 1</masterclipid>
					<logginginfo>
						<scene/>
						<shottake/>
						<lognote/>
						<good>FALSE</good>
					</logginginfo>
					<labels>
						<label2/>
					</labels>
					<comments>
						<mastercomment1/>
						<mastercomment2/>
						<mastercomment3/>
						<mastercomment4/>
					</comments>
					<file id="MVI_1201 2"/>
					<marker>
						<name>cameras getting cheaper</name>
						<comment>technological progress, camera, sensor, machine vision, ubiquitous computing</comment>
						<color>
							<alpha>0</alpha>
							<red>255</red>
							<green>0</green>
							<blue>0</blue>
						</color>
						<in>2235</in>
						<out>2599</out>
					</marker>
					<marker>
						<name>ubiquitous computing</name>
						<comment>camera, machine vision, ubiquitous computing,</comment>
						<color>
							<alpha>0</alpha>
							<red>255</red>
							<green>0</green>
							<blue>0</blue>
						</color>
						<in>3241</in>
						<out>3432</out>
					</marker>
					<filter>
						<effect>
							<name>Audio Levels</name>
							<effectid>audiolevels</effectid>
							<effectcategory>audiolevels</effectcategory>
							<effecttype>audiolevels</effecttype>
							<mediatype>audio</mediatype>
							<parameter>
								<name>Level</name>
								<parameterid>level</parameterid>
								<valuemin>0</valuemin>
								<valuemax>3.98109</valuemax>
								<value>1</value>
							</parameter>
						</effect>
					</filter>
					<filter>
						<effect>
							<name>Audio Pan</name>
							<effectid>audiopan</effectid>
							<effectcategory>audiopan</effectcategory>
							<effecttype>audiopan</effecttype>
							<mediatype>audio</mediatype>
							<parameter>
								<name>Pan</name>
								<parameterid>pan</parameterid>
								<valuemin>-1</valuemin>
								<valuemax>1</valuemax>
								<value>-1</value>
							</parameter>
						</effect>
					</filter>
					<sourcetrack>
						<mediatype>audio</mediatype>
						<trackindex>1</trackindex>
					</sourcetrack>
					<link>
						<linkclipref>MVI_1201 </linkclipref>
						<mediatype>video</mediatype>
						<trackindex>1</trackindex>
						<clipindex>1</clipindex>
					</link>
					<link>
						<linkclipref>MVI_1201 3</linkclipref>
						<mediatype>audio</mediatype>
						<trackindex>1</trackindex>
						<clipindex>1</clipindex>
						<groupindex>1</groupindex>
					</link>
					<link>
						<linkclipref>MVI_1201 4</linkclipref>
						<mediatype>audio</mediatype>
						<trackindex>2</trackindex>
						<clipindex>1</clipindex>
						<groupindex>1</groupindex>
					</link>
					<itemhistory>
						<uuid>F582CFA9-FFEE-4318-9EB9-B792432850DC</uuid>
					</itemhistory>
				</clipitem>
				<clipitem id="MVI_1202 3">
					<name>MVI_1202</name>
					<duration>12795</duration>
					<rate>
						<ntsc>TRUE</ntsc>
						<timebase>24</timebase>
					</rate>
					<in>0</in>
					<out>10758</out>
					<start>3594</start>
					<end>14352</end>
					<masterclipid>MVI_1202 1</masterclipid>
					<logginginfo>
						<scene/>
						<shottake/>
						<lognote/>
						<good>FALSE</good>
					</logginginfo>
					<labels>
						<label2/>
					</labels>
					<comments>
						<mastercomment1/>
						<mastercomment2/>
						<mastercomment3/>
						<mastercomment4/>
					</comments>
					<file id="MVI_1202 2"/>
					<marker>
						<name>Cameras scaling up</name>
						<comment>technological progress, camera, sensor, machine vision, ubiquitous computing, object recognition</comment>
						<color>
							<alpha>0</alpha>
							<red>255</red>
							<green>0</green>
							<blue>0</blue>
						</color>
						<in>2119</in>
						<out>3031</out>
					</marker>
					<marker>
						<name>Doug Engelbart part 1</name>
						<comment>cognition,symbiosis,man vs machine,tools</comment>
						<color>
							<alpha>0</alpha>
							<red>255</red>
							<green>0</green>
							<blue>0</blue>
						</color>
						<in>4966</in>
						<out>5236</out>
					</marker>
					<marker>
						<name>human augmentation</name>
						<comment>cognition,symbiosis,man vs machine,tools</comment>
						<color>
							<alpha>0</alpha>
							<red>255</red>
							<green>0</green>
							<blue>0</blue>
						</color>
						<in>5543</in>
						<out>6027</out>
					</marker>
					<marker>
						<name>A.I.</name>
						<comment>artificial intelligence,machine vision,cognition,technological progress,technoptimism</comment>
						<color>
							<alpha>0</alpha>
							<red>255</red>
							<green>0</green>
							<blue>0</blue>
						</color>
						<in>6046</in>
						<out>6876</out>
					</marker>
					<marker>
						<name>object oriented ontology 1</name>
						<comment>man vs machine,humanism,new aesthetic,machine aesthetics, philsophy, existence, things, internet of things, link:Greg - Object oriented ontology 2</comment>
						<color>
							<alpha>0</alpha>
							<red>255</red>
							<green>0</green>
							<blue>0</blue>
						</color>
						<in>7903</in>
						<out>8470</out>
					</marker>
					<marker>
						<name>object oriented ontology 3</name>
						<comment>weird, existence, philosophy, funny,</comment>
						<color>
							<alpha>0</alpha>
							<red>255</red>
							<green>0</green>
							<blue>0</blue>
						</color>
						<in>8709</in>
						<out>9090</out>
					</marker>
					<marker>
						<name>Object Oriented Ontology 2</name>
						<comment>man vs machine,humanism,new aesthetic,machine aesthetics, philsophy, existence, things, internet of things,link:Greg - the "Like" button cascade</comment>
						<color>
							<alpha>0</alpha>
							<red>255</red>
							<green>0</green>
							<blue>0</blue>
						</color>
						<in>9985</in>
						<out>10260</out>
					</marker>
					<marker>
						<name>the "Like" button cascade</name>
						<comment>social media,social,facebook,big data,data visualization</comment>
						<color>
							<alpha>0</alpha>
							<red>255</red>
							<green>0</green>
							<blue>0</blue>
						</color>
						<in>10758</in>
						<out>11851</out>
					</marker>
					<filter>
						<effect>
							<name>Audio Levels</name>
							<effectid>audiolevels</effectid>
							<effectcategory>audiolevels</effectcategory>
							<effecttype>audiolevels</effecttype>
							<mediatype>audio</mediatype>
							<parameter>
								<name>Level</name>
								<parameterid>level</parameterid>
								<valuemin>0</valuemin>
								<valuemax>3.98109</valuemax>
								<value>1</value>
							</parameter>
						</effect>
					</filter>
					<filter>
						<effect>
							<name>Audio Pan</name>
							<effectid>audiopan</effectid>
							<effectcategory>audiopan</effectcategory>
							<effecttype>audiopan</effecttype>
							<mediatype>audio</mediatype>
							<parameter>
								<name>Pan</name>
								<parameterid>pan</parameterid>
								<valuemin>-1</valuemin>
								<valuemax>1</valuemax>
								<value>-1</value>
							</parameter>
						</effect>
					</filter>
					<sourcetrack>
						<mediatype>audio</mediatype>
						<trackindex>1</trackindex>
					</sourcetrack>
					<link>
						<linkclipref>MVI_1202 </linkclipref>
						<mediatype>video</mediatype>
						<trackindex>1</trackindex>
						<clipindex>2</clipindex>
					</link>
					<link>
						<linkclipref>MVI_1202 3</linkclipref>
						<mediatype>audio</mediatype>
						<trackindex>1</trackindex>
						<clipindex>2</clipindex>
						<groupindex>1</groupindex>
					</link>
					<link>
						<linkclipref>MVI_1202 4</linkclipref>
						<mediatype>audio</mediatype>
						<trackindex>2</trackindex>
						<clipindex>2</clipindex>
						<groupindex>1</groupindex>
					</link>
					<itemhistory>
						<uuid>E0200BC9-BB5D-4A19-967D-AB07F7552EF2</uuid>
						<uuid>F7B37F99-29DF-47BB-A674-6ABFE7EAD56E</uuid>
					</itemhistory>
				</clipitem>
				<clipitem id="MVI_1202 7">
					<name>MVI_1202</name>
					<duration>12795</duration>
					<rate>
						<ntsc>TRUE</ntsc>
						<timebase>24</timebase>
					</rate>
					<in>10758</in>
					<out>12795</out>
					<start>14352</start>
					<end>16389</end>
					<masterclipid>MVI_1202 1</masterclipid>
					<logginginfo>
						<scene/>
						<shottake/>
						<lognote/>
						<good>FALSE</good>
					</logginginfo>
					<labels>
						<label2/>
					</labels>
					<comments>
						<mastercomment1/>
						<mastercomment2/>
						<mastercomment3/>
						<mastercomment4/>
					</comments>
					<file id="MVI_1202 2"/>
					<marker>
						<name>Cameras scaling up</name>
						<comment>technological progress, camera, sensor, machine vision, ubiquitous computing, object recognition</comment>
						<color>
							<alpha>0</alpha>
							<red>255</red>
							<green>0</green>
							<blue>0</blue>
						</color>
						<in>2119</in>
						<out>3031</out>
					</marker>
					<marker>
						<name>Doug Engelbart part 1</name>
						<comment>cognition,symbiosis,man vs machine,tools</comment>
						<color>
							<alpha>0</alpha>
							<red>255</red>
							<green>0</green>
							<blue>0</blue>
						</color>
						<in>4966</in>
						<out>5236</out>
					</marker>
					<marker>
						<name>human augmentation</name>
						<comment>cognition,symbiosis,man vs machine,tools</comment>
						<color>
							<alpha>0</alpha>
							<red>255</red>
							<green>0</green>
							<blue>0</blue>
						</color>
						<in>5543</in>
						<out>6027</out>
					</marker>
					<marker>
						<name>A.I.</name>
						<comment>artificial intelligence,machine vision,cognition,technological progress,technoptimism</comment>
						<color>
							<alpha>0</alpha>
							<red>255</red>
							<green>0</green>
							<blue>0</blue>
						</color>
						<in>6046</in>
						<out>6876</out>
					</marker>
					<marker>
						<name>object oriented ontology 1</name>
						<comment>man vs machine,humanism,new aesthetic,machine aesthetics, philsophy, existence, things, internet of things, link:Greg - Object oriented ontology 2</comment>
						<color>
							<alpha>0</alpha>
							<red>255</red>
							<green>0</green>
							<blue>0</blue>
						</color>
						<in>7903</in>
						<out>8470</out>
					</marker>
					<marker>
						<name>object oriented ontology 3</name>
						<comment>weird, existence, philosophy, funny,</comment>
						<color>
							<alpha>0</alpha>
							<red>255</red>
							<green>0</green>
							<blue>0</blue>
						</color>
						<in>8709</in>
						<out>9090</out>
					</marker>
					<marker>
						<name>Object Oriented Ontology 2</name>
						<comment>man vs machine,humanism,new aesthetic,machine aesthetics, philsophy, existence, things, internet of things,link:Greg - the "Like" button cascade</comment>
						<color>
							<alpha>0</alpha>
							<red>255</red>
							<green>0</green>
							<blue>0</blue>
						</color>
						<in>9985</in>
						<out>10260</out>
					</marker>
					<marker>
						<name>the "Like" button cascade</name>
						<comment>social media,social,facebook,big data,data visualization</comment>
						<color>
							<alpha>0</alpha>
							<red>255</red>
							<green>0</green>
							<blue>0</blue>
						</color>
						<in>10758</in>
						<out>11851</out>
					</marker>
					<filter>
						<effect>
							<name>Audio Levels</name>
							<effectid>audiolevels</effectid>
							<effectcategory>audiolevels</effectcategory>
							<effecttype>audiolevels</effecttype>
							<mediatype>audio</mediatype>
							<parameter>
								<name>Level</name>
								<parameterid>level</parameterid>
								<valuemin>0</valuemin>
								<valuemax>3.98109</valuemax>
								<value>1</value>
							</parameter>
						</effect>
					</filter>
					<filter>
						<effect>
							<name>Audio Pan</name>
							<effectid>audiopan</effectid>
							<effectcategory>audiopan</effectcategory>
							<effecttype>audiopan</effecttype>
							<mediatype>audio</mediatype>
							<parameter>
								<name>Pan</name>
								<parameterid>pan</parameterid>
								<valuemin>-1</valuemin>
								<valuemax>1</valuemax>
								<value>-1</value>
							</parameter>
						</effect>
					</filter>
					<sourcetrack>
						<mediatype>audio</mediatype>
						<trackindex>1</trackindex>
					</sourcetrack>
					<link>
						<linkclipref>MVI_1202 7</linkclipref>
						<mediatype>audio</mediatype>
						<trackindex>1</trackindex>
						<clipindex>3</clipindex>
						<groupindex>1</groupindex>
					</link>
					<link>
						<linkclipref>MVI_1202 8</linkclipref>
						<mediatype>audio</mediatype>
						<trackindex>2</trackindex>
						<clipindex>3</clipindex>
						<groupindex>1</groupindex>
					</link>
					<itemhistory>
						<uuid>7EFB1300-70C0-42BF-A135-137D9556BF9A</uuid>
						<uuid>F7B37F99-29DF-47BB-A674-6ABFE7EAD56E</uuid>
					</itemhistory>
				</clipitem>
				<clipitem id="MVI_1203 3">
					<name>MVI_1203</name>
					<duration>16119</duration>
					<rate>
						<ntsc>TRUE</ntsc>
						<timebase>24</timebase>
					</rate>
					<in>0</in>
					<out>16119</out>
					<start>16389</start>
					<end>32508</end>
					<masterclipid>MVI_1203 1</masterclipid>
					<logginginfo>
						<scene/>
						<shottake/>
						<lognote/>
						<good>FALSE</good>
					</logginginfo>
					<labels>
						<label2/>
					</labels>
					<comments>
						<mastercomment1/>
						<mastercomment2/>
						<mastercomment3/>
						<mastercomment4/>
					</comments>
					<file id="MVI_1203 2"/>
					<marker>
						<name>Marker 1</name>
						<comment/>
						<color>
							<alpha>0</alpha>
							<red>255</red>
							<green>0</green>
							<blue>0</blue>
						</color>
						<in>659</in>
						<out>1306</out>
					</marker>
					<marker>
						<name>Trickle down</name>
						<comment>research,R&amp;D,knowledge,technological progress,technology, link:Kyle_MC - Grab them ASAP</comment>
						<color>
							<alpha>0</alpha>
							<red>255</red>
							<green>0</green>
							<blue>0</blue>
						</color>
						<in>1890</in>
						<out>3163</out>
					</marker>
					<marker>
						<name>engage with research</name>
						<comment>technological progress,research,tools,algorithm</comment>
						<color>
							<alpha>0</alpha>
							<red>255</red>
							<green>0</green>
							<blue>0</blue>
						</color>
						<in>3779</in>
						<out>4407</out>
					</marker>
					<marker>
						<name>Sharpening spears </name>
						<comment>technological progress,tribe,tools</comment>
						<color>
							<alpha>0</alpha>
							<red>255</red>
							<green>0</green>
							<blue>0</blue>
						</color>
						<in>4416</in>
						<out>4696</out>
					</marker>
					<marker>
						<name>Creative Coder</name>
						<comment>art versus engineering,art and code,art and tech, link:Greg - Creative Coder 2</comment>
						<color>
							<alpha>0</alpha>
							<red>255</red>
							<green>0</green>
							<blue>0</blue>
						</color>
						<in>13055</in>
						<out>13770</out>
					</marker>
					<marker>
						<name>Gaze tracking</name>
						<comment>privacy,security,public/private,R&amp;D,machine vision, art and security, surveillance</comment>
						<color>
							<alpha>0</alpha>
							<red>255</red>
							<green>0</green>
							<blue>0</blue>
						</color>
						<in>13899</in>
						<out>14692</out>
					</marker>
					<marker>
						<name>Creative Coder 2</name>
						<comment/>
						<color>
							<alpha>0</alpha>
							<red>255</red>
							<green>0</green>
							<blue>0</blue>
						</color>
						<in>15502</in>
						<out>15929</out>
					</marker>
					<filter>
						<effect>
							<name>Audio Levels</name>
							<effectid>audiolevels</effectid>
							<effectcategory>audiolevels</effectcategory>
							<effecttype>audiolevels</effecttype>
							<mediatype>audio</mediatype>
							<parameter>
								<name>Level</name>
								<parameterid>level</parameterid>
								<valuemin>0</valuemin>
								<valuemax>3.98109</valuemax>
								<value>1</value>
							</parameter>
						</effect>
					</filter>
					<filter>
						<effect>
							<name>Audio Pan</name>
							<effectid>audiopan</effectid>
							<effectcategory>audiopan</effectcategory>
							<effecttype>audiopan</effecttype>
							<mediatype>audio</mediatype>
							<parameter>
								<name>Pan</name>
								<parameterid>pan</parameterid>
								<valuemin>-1</valuemin>
								<valuemax>1</valuemax>
								<value>-1</value>
							</parameter>
						</effect>
					</filter>
					<sourcetrack>
						<mediatype>audio</mediatype>
						<trackindex>1</trackindex>
					</sourcetrack>
					<link>
						<linkclipref>MVI_1203 </linkclipref>
						<mediatype>video</mediatype>
						<trackindex>1</trackindex>
						<clipindex>3</clipindex>
					</link>
					<link>
						<linkclipref>MVI_1203 3</linkclipref>
						<mediatype>audio</mediatype>
						<trackindex>1</trackindex>
						<clipindex>4</clipindex>
						<groupindex>1</groupindex>
					</link>
					<link>
						<linkclipref>MVI_1203 4</linkclipref>
						<mediatype>audio</mediatype>
						<trackindex>2</trackindex>
						<clipindex>4</clipindex>
						<groupindex>1</groupindex>
					</link>
					<itemhistory>
						<uuid>773D5376-5E85-4370-9DA6-7CD448F00DDF</uuid>
					</itemhistory>
				</clipitem>
				<clipitem id="MVI_1204 3">
					<name>MVI_1204</name>
					<duration>5259</duration>
					<rate>
						<ntsc>TRUE</ntsc>
						<timebase>24</timebase>
					</rate>
					<in>0</in>
					<out>5259</out>
					<start>32508</start>
					<end>37767</end>
					<masterclipid>MVI_1204 1</masterclipid>
					<logginginfo>
						<scene/>
						<shottake/>
						<lognote/>
						<good>FALSE</good>
					</logginginfo>
					<labels>
						<label2/>
					</labels>
					<comments>
						<mastercomment1/>
						<mastercomment2/>
						<mastercomment3/>
						<mastercomment4/>
					</comments>
					<file id="MVI_1204 2"/>
					<marker>
						<name>community</name>
						<comment>What is a career or discipline that will exist in the future that doesn't exist yet?,&#13;community,sharing,knowledge</comment>
						<color>
							<alpha>0</alpha>
							<red>255</red>
							<green>0</green>
							<blue>0</blue>
						</color>
						<in>1096</in>
						<out>2123</out>
					</marker>
					<marker>
						<name>visual effects</name>
						<comment>visualization, storytelling, future of cinema, motivation,</comment>
						<color>
							<alpha>0</alpha>
							<red>255</red>
							<green>0</green>
							<blue>0</blue>
						</color>
						<in>4264</in>
						<out>5006</out>
					</marker>
					<filter>
						<effect>
							<name>Audio Levels</name>
							<effectid>audiolevels</effectid>
							<effectcategory>audiolevels</effectcategory>
							<effecttype>audiolevels</effecttype>
							<mediatype>audio</mediatype>
							<parameter>
								<name>Level</name>
								<parameterid>level</parameterid>
								<valuemin>0</valuemin>
								<valuemax>3.98109</valuemax>
								<value>1</value>
							</parameter>
						</effect>
					</filter>
					<filter>
						<effect>
							<name>Audio Pan</name>
							<effectid>audiopan</effectid>
							<effectcategory>audiopan</effectcategory>
							<effecttype>audiopan</effecttype>
							<mediatype>audio</mediatype>
							<parameter>
								<name>Pan</name>
								<parameterid>pan</parameterid>
								<valuemin>-1</valuemin>
								<valuemax>1</valuemax>
								<value>-1</value>
							</parameter>
						</effect>
					</filter>
					<sourcetrack>
						<mediatype>audio</mediatype>
						<trackindex>1</trackindex>
					</sourcetrack>
					<link>
						<linkclipref>MVI_1204 </linkclipref>
						<mediatype>video</mediatype>
						<trackindex>1</trackindex>
						<clipindex>4</clipindex>
					</link>
					<link>
						<linkclipref>MVI_1204 3</linkclipref>
						<mediatype>audio</mediatype>
						<trackindex>1</trackindex>
						<clipindex>5</clipindex>
						<groupindex>1</groupindex>
					</link>
					<link>
						<linkclipref>MVI_1204 4</linkclipref>
						<mediatype>audio</mediatype>
						<trackindex>2</trackindex>
						<clipindex>5</clipindex>
						<groupindex>1</groupindex>
					</link>
					<itemhistory>
						<uuid>87950099-7C4F-4DEE-ABD0-C25603B65959</uuid>
					</itemhistory>
				</clipitem>
				<enabled>TRUE</enabled>
				<locked>FALSE</locked>
				<outputchannelindex>1</outputchannelindex>
			</track>
			<track>
				<clipitem id="MVI_1201 4">
					<name>MVI_1201</name>
					<duration>3594</duration>
					<rate>
						<ntsc>TRUE</ntsc>
						<timebase>24</timebase>
					</rate>
					<in>0</in>
					<out>3594</out>
					<start>0</start>
					<end>3594</end>
					<masterclipid>MVI_1201 1</masterclipid>
					<logginginfo>
						<scene/>
						<shottake/>
						<lognote/>
						<good>FALSE</good>
					</logginginfo>
					<labels>
						<label2/>
					</labels>
					<comments>
						<mastercomment1/>
						<mastercomment2/>
						<mastercomment3/>
						<mastercomment4/>
					</comments>
					<file id="MVI_1201 2"/>
					<marker>
						<name>cameras getting cheaper</name>
						<comment>technological progress, camera, sensor, machine vision, ubiquitous computing</comment>
						<color>
							<alpha>0</alpha>
							<red>255</red>
							<green>0</green>
							<blue>0</blue>
						</color>
						<in>2235</in>
						<out>2599</out>
					</marker>
					<marker>
						<name>ubiquitous computing</name>
						<comment>camera, machine vision, ubiquitous computing,</comment>
						<color>
							<alpha>0</alpha>
							<red>255</red>
							<green>0</green>
							<blue>0</blue>
						</color>
						<in>3241</in>
						<out>3432</out>
					</marker>
					<filter>
						<effect>
							<name>Audio Levels</name>
							<effectid>audiolevels</effectid>
							<effectcategory>audiolevels</effectcategory>
							<effecttype>audiolevels</effecttype>
							<mediatype>audio</mediatype>
							<parameter>
								<name>Level</name>
								<parameterid>level</parameterid>
								<valuemin>0</valuemin>
								<valuemax>3.98109</valuemax>
								<value>1</value>
							</parameter>
						</effect>
					</filter>
					<filter>
						<effect>
							<name>Audio Pan</name>
							<effectid>audiopan</effectid>
							<effectcategory>audiopan</effectcategory>
							<effecttype>audiopan</effecttype>
							<mediatype>audio</mediatype>
							<parameter>
								<name>Pan</name>
								<parameterid>pan</parameterid>
								<valuemin>-1</valuemin>
								<valuemax>1</valuemax>
								<value>1</value>
							</parameter>
						</effect>
					</filter>
					<sourcetrack>
						<mediatype>audio</mediatype>
						<trackindex>2</trackindex>
					</sourcetrack>
					<link>
						<linkclipref>MVI_1201 </linkclipref>
						<mediatype>video</mediatype>
						<trackindex>1</trackindex>
						<clipindex>1</clipindex>
					</link>
					<link>
						<linkclipref>MVI_1201 3</linkclipref>
						<mediatype>audio</mediatype>
						<trackindex>1</trackindex>
						<clipindex>1</clipindex>
						<groupindex>1</groupindex>
					</link>
					<link>
						<linkclipref>MVI_1201 4</linkclipref>
						<mediatype>audio</mediatype>
						<trackindex>2</trackindex>
						<clipindex>1</clipindex>
						<groupindex>1</groupindex>
					</link>
					<itemhistory>
						<uuid>F1E201A4-1881-4396-BF88-1A75692C70A3</uuid>
					</itemhistory>
				</clipitem>
				<clipitem id="MVI_1202 4">
					<name>MVI_1202</name>
					<duration>12795</duration>
					<rate>
						<ntsc>TRUE</ntsc>
						<timebase>24</timebase>
					</rate>
					<in>0</in>
					<out>10758</out>
					<start>3594</start>
					<end>14352</end>
					<masterclipid>MVI_1202 1</masterclipid>
					<logginginfo>
						<scene/>
						<shottake/>
						<lognote/>
						<good>FALSE</good>
					</logginginfo>
					<labels>
						<label2/>
					</labels>
					<comments>
						<mastercomment1/>
						<mastercomment2/>
						<mastercomment3/>
						<mastercomment4/>
					</comments>
					<file id="MVI_1202 2"/>
					<marker>
						<name>Cameras scaling up</name>
						<comment>technological progress, camera, sensor, machine vision, ubiquitous computing, object recognition</comment>
						<color>
							<alpha>0</alpha>
							<red>255</red>
							<green>0</green>
							<blue>0</blue>
						</color>
						<in>2119</in>
						<out>3031</out>
					</marker>
					<marker>
						<name>Doug Engelbart part 1</name>
						<comment>cognition,symbiosis,man vs machine,tools</comment>
						<color>
							<alpha>0</alpha>
							<red>255</red>
							<green>0</green>
							<blue>0</blue>
						</color>
						<in>4966</in>
						<out>5236</out>
					</marker>
					<marker>
						<name>human augmentation</name>
						<comment>cognition,symbiosis,man vs machine,tools</comment>
						<color>
							<alpha>0</alpha>
							<red>255</red>
							<green>0</green>
							<blue>0</blue>
						</color>
						<in>5543</in>
						<out>6027</out>
					</marker>
					<marker>
						<name>A.I.</name>
						<comment>artificial intelligence,machine vision,cognition,technological progress,technoptimism</comment>
						<color>
							<alpha>0</alpha>
							<red>255</red>
							<green>0</green>
							<blue>0</blue>
						</color>
						<in>6046</in>
						<out>6876</out>
					</marker>
					<marker>
						<name>object oriented ontology 1</name>
						<comment>man vs machine,humanism,new aesthetic,machine aesthetics, philsophy, existence, things, internet of things, link:Greg - Object oriented ontology 2</comment>
						<color>
							<alpha>0</alpha>
							<red>255</red>
							<green>0</green>
							<blue>0</blue>
						</color>
						<in>7903</in>
						<out>8470</out>
					</marker>
					<marker>
						<name>object oriented ontology 3</name>
						<comment>weird, existence, philosophy, funny,</comment>
						<color>
							<alpha>0</alpha>
							<red>255</red>
							<green>0</green>
							<blue>0</blue>
						</color>
						<in>8709</in>
						<out>9090</out>
					</marker>
					<marker>
						<name>Object Oriented Ontology 2</name>
						<comment>man vs machine,humanism,new aesthetic,machine aesthetics, philsophy, existence, things, internet of things,link:Greg - the "Like" button cascade</comment>
						<color>
							<alpha>0</alpha>
							<red>255</red>
							<green>0</green>
							<blue>0</blue>
						</color>
						<in>9985</in>
						<out>10260</out>
					</marker>
					<marker>
						<name>the "Like" button cascade</name>
						<comment>social media,social,facebook,big data,data visualization</comment>
						<color>
							<alpha>0</alpha>
							<red>255</red>
							<green>0</green>
							<blue>0</blue>
						</color>
						<in>10758</in>
						<out>11851</out>
					</marker>
					<filter>
						<effect>
							<name>Audio Levels</name>
							<effectid>audiolevels</effectid>
							<effectcategory>audiolevels</effectcategory>
							<effecttype>audiolevels</effecttype>
							<mediatype>audio</mediatype>
							<parameter>
								<name>Level</name>
								<parameterid>level</parameterid>
								<valuemin>0</valuemin>
								<valuemax>3.98109</valuemax>
								<value>1</value>
							</parameter>
						</effect>
					</filter>
					<filter>
						<effect>
							<name>Audio Pan</name>
							<effectid>audiopan</effectid>
							<effectcategory>audiopan</effectcategory>
							<effecttype>audiopan</effecttype>
							<mediatype>audio</mediatype>
							<parameter>
								<name>Pan</name>
								<parameterid>pan</parameterid>
								<valuemin>-1</valuemin>
								<valuemax>1</valuemax>
								<value>1</value>
							</parameter>
						</effect>
					</filter>
					<sourcetrack>
						<mediatype>audio</mediatype>
						<trackindex>2</trackindex>
					</sourcetrack>
					<link>
						<linkclipref>MVI_1202 </linkclipref>
						<mediatype>video</mediatype>
						<trackindex>1</trackindex>
						<clipindex>2</clipindex>
					</link>
					<link>
						<linkclipref>MVI_1202 3</linkclipref>
						<mediatype>audio</mediatype>
						<trackindex>1</trackindex>
						<clipindex>2</clipindex>
						<groupindex>1</groupindex>
					</link>
					<link>
						<linkclipref>MVI_1202 4</linkclipref>
						<mediatype>audio</mediatype>
						<trackindex>2</trackindex>
						<clipindex>2</clipindex>
						<groupindex>1</groupindex>
					</link>
					<itemhistory>
						<uuid>180F87F2-19AD-4641-818A-CC9E5FF9E528</uuid>
						<uuid>D626D158-A84B-4B21-B377-AA11423A0AA2</uuid>
					</itemhistory>
				</clipitem>
				<clipitem id="MVI_1202 8">
					<name>MVI_1202</name>
					<duration>12795</duration>
					<rate>
						<ntsc>TRUE</ntsc>
						<timebase>24</timebase>
					</rate>
					<in>10758</in>
					<out>12795</out>
					<start>14352</start>
					<end>16389</end>
					<masterclipid>MVI_1202 1</masterclipid>
					<logginginfo>
						<scene/>
						<shottake/>
						<lognote/>
						<good>FALSE</good>
					</logginginfo>
					<labels>
						<label2/>
					</labels>
					<comments>
						<mastercomment1/>
						<mastercomment2/>
						<mastercomment3/>
						<mastercomment4/>
					</comments>
					<file id="MVI_1202 2"/>
					<marker>
						<name>Cameras scaling up</name>
						<comment>technological progress, camera, sensor, machine vision, ubiquitous computing, object recognition</comment>
						<color>
							<alpha>0</alpha>
							<red>255</red>
							<green>0</green>
							<blue>0</blue>
						</color>
						<in>2119</in>
						<out>3031</out>
					</marker>
					<marker>
						<name>Doug Engelbart part 1</name>
						<comment>cognition,symbiosis,man vs machine,tools</comment>
						<color>
							<alpha>0</alpha>
							<red>255</red>
							<green>0</green>
							<blue>0</blue>
						</color>
						<in>4966</in>
						<out>5236</out>
					</marker>
					<marker>
						<name>human augmentation</name>
						<comment>cognition,symbiosis,man vs machine,tools</comment>
						<color>
							<alpha>0</alpha>
							<red>255</red>
							<green>0</green>
							<blue>0</blue>
						</color>
						<in>5543</in>
						<out>6027</out>
					</marker>
					<marker>
						<name>A.I.</name>
						<comment>artificial intelligence,machine vision,cognition,technological progress,technoptimism</comment>
						<color>
							<alpha>0</alpha>
							<red>255</red>
							<green>0</green>
							<blue>0</blue>
						</color>
						<in>6046</in>
						<out>6876</out>
					</marker>
					<marker>
						<name>object oriented ontology 1</name>
						<comment>man vs machine,humanism,new aesthetic,machine aesthetics, philsophy, existence, things, internet of things, link:Greg - Object oriented ontology 2</comment>
						<color>
							<alpha>0</alpha>
							<red>255</red>
							<green>0</green>
							<blue>0</blue>
						</color>
						<in>7903</in>
						<out>8470</out>
					</marker>
					<marker>
						<name>object oriented ontology 3</name>
						<comment>weird, existence, philosophy, funny,</comment>
						<color>
							<alpha>0</alpha>
							<red>255</red>
							<green>0</green>
							<blue>0</blue>
						</color>
						<in>8709</in>
						<out>9090</out>
					</marker>
					<marker>
						<name>Object Oriented Ontology 2</name>
						<comment>man vs machine,humanism,new aesthetic,machine aesthetics, philsophy, existence, things, internet of things,link:Greg - the "Like" button cascade</comment>
						<color>
							<alpha>0</alpha>
							<red>255</red>
							<green>0</green>
							<blue>0</blue>
						</color>
						<in>9985</in>
						<out>10260</out>
					</marker>
					<marker>
						<name>the "Like" button cascade</name>
						<comment>social media,social,facebook,big data,data visualization</comment>
						<color>
							<alpha>0</alpha>
							<red>255</red>
							<green>0</green>
							<blue>0</blue>
						</color>
						<in>10758</in>
						<out>11851</out>
					</marker>
					<filter>
						<effect>
							<name>Audio Levels</name>
							<effectid>audiolevels</effectid>
							<effectcategory>audiolevels</effectcategory>
							<effecttype>audiolevels</effecttype>
							<mediatype>audio</mediatype>
							<parameter>
								<name>Level</name>
								<parameterid>level</parameterid>
								<valuemin>0</valuemin>
								<valuemax>3.98109</valuemax>
								<value>1</value>
							</parameter>
						</effect>
					</filter>
					<filter>
						<effect>
							<name>Audio Pan</name>
							<effectid>audiopan</effectid>
							<effectcategory>audiopan</effectcategory>
							<effecttype>audiopan</effecttype>
							<mediatype>audio</mediatype>
							<parameter>
								<name>Pan</name>
								<parameterid>pan</parameterid>
								<valuemin>-1</valuemin>
								<valuemax>1</valuemax>
								<value>1</value>
							</parameter>
						</effect>
					</filter>
					<sourcetrack>
						<mediatype>audio</mediatype>
						<trackindex>2</trackindex>
					</sourcetrack>
					<link>
						<linkclipref>MVI_1202 7</linkclipref>
						<mediatype>audio</mediatype>
						<trackindex>1</trackindex>
						<clipindex>3</clipindex>
						<groupindex>1</groupindex>
					</link>
					<link>
						<linkclipref>MVI_1202 8</linkclipref>
						<mediatype>audio</mediatype>
						<trackindex>2</trackindex>
						<clipindex>3</clipindex>
						<groupindex>1</groupindex>
					</link>
					<itemhistory>
						<uuid>CA45C57B-BEA0-4525-95C5-EEB3C089A705</uuid>
						<uuid>D626D158-A84B-4B21-B377-AA11423A0AA2</uuid>
					</itemhistory>
				</clipitem>
				<clipitem id="MVI_1203 4">
					<name>MVI_1203</name>
					<duration>16119</duration>
					<rate>
						<ntsc>TRUE</ntsc>
						<timebase>24</timebase>
					</rate>
					<in>0</in>
					<out>16119</out>
					<start>16389</start>
					<end>32508</end>
					<masterclipid>MVI_1203 1</masterclipid>
					<logginginfo>
						<scene/>
						<shottake/>
						<lognote/>
						<good>FALSE</good>
					</logginginfo>
					<labels>
						<label2/>
					</labels>
					<comments>
						<mastercomment1/>
						<mastercomment2/>
						<mastercomment3/>
						<mastercomment4/>
					</comments>
					<file id="MVI_1203 2"/>
					<marker>
						<name>Marker 1</name>
						<comment/>
						<color>
							<alpha>0</alpha>
							<red>255</red>
							<green>0</green>
							<blue>0</blue>
						</color>
						<in>659</in>
						<out>1306</out>
					</marker>
					<marker>
						<name>Trickle down</name>
						<comment>research,R&amp;D,knowledge,technological progress,technology, link:Kyle_MC - Grab them ASAP</comment>
						<color>
							<alpha>0</alpha>
							<red>255</red>
							<green>0</green>
							<blue>0</blue>
						</color>
						<in>1890</in>
						<out>3163</out>
					</marker>
					<marker>
						<name>engage with research</name>
						<comment>technological progress,research,tools,algorithm</comment>
						<color>
							<alpha>0</alpha>
							<red>255</red>
							<green>0</green>
							<blue>0</blue>
						</color>
						<in>3779</in>
						<out>4407</out>
					</marker>
					<marker>
						<name>Sharpening spears </name>
						<comment>technological progress,tribe,tools</comment>
						<color>
							<alpha>0</alpha>
							<red>255</red>
							<green>0</green>
							<blue>0</blue>
						</color>
						<in>4416</in>
						<out>4696</out>
					</marker>
					<marker>
						<name>Creative Coder</name>
						<comment>art versus engineering,art and code,art and tech, link:Greg - Creative Coder 2</comment>
						<color>
							<alpha>0</alpha>
							<red>255</red>
							<green>0</green>
							<blue>0</blue>
						</color>
						<in>13055</in>
						<out>13770</out>
					</marker>
					<marker>
						<name>Gaze tracking</name>
						<comment>privacy,security,public/private,R&amp;D,machine vision, art and security, surveillance</comment>
						<color>
							<alpha>0</alpha>
							<red>255</red>
							<green>0</green>
							<blue>0</blue>
						</color>
						<in>13899</in>
						<out>14692</out>
					</marker>
					<marker>
						<name>Creative Coder 2</name>
						<comment/>
						<color>
							<alpha>0</alpha>
							<red>255</red>
							<green>0</green>
							<blue>0</blue>
						</color>
						<in>15502</in>
						<out>15929</out>
					</marker>
					<filter>
						<effect>
							<name>Audio Levels</name>
							<effectid>audiolevels</effectid>
							<effectcategory>audiolevels</effectcategory>
							<effecttype>audiolevels</effecttype>
							<mediatype>audio</mediatype>
							<parameter>
								<name>Level</name>
								<parameterid>level</parameterid>
								<valuemin>0</valuemin>
								<valuemax>3.98109</valuemax>
								<value>1</value>
							</parameter>
						</effect>
					</filter>
					<filter>
						<effect>
							<name>Audio Pan</name>
							<effectid>audiopan</effectid>
							<effectcategory>audiopan</effectcategory>
							<effecttype>audiopan</effecttype>
							<mediatype>audio</mediatype>
							<parameter>
								<name>Pan</name>
								<parameterid>pan</parameterid>
								<valuemin>-1</valuemin>
								<valuemax>1</valuemax>
								<value>1</value>
							</parameter>
						</effect>
					</filter>
					<sourcetrack>
						<mediatype>audio</mediatype>
						<trackindex>2</trackindex>
					</sourcetrack>
					<link>
						<linkclipref>MVI_1203 </linkclipref>
						<mediatype>video</mediatype>
						<trackindex>1</trackindex>
						<clipindex>3</clipindex>
					</link>
					<link>
						<linkclipref>MVI_1203 3</linkclipref>
						<mediatype>audio</mediatype>
						<trackindex>1</trackindex>
						<clipindex>4</clipindex>
						<groupindex>1</groupindex>
					</link>
					<link>
						<linkclipref>MVI_1203 4</linkclipref>
						<mediatype>audio</mediatype>
						<trackindex>2</trackindex>
						<clipindex>4</clipindex>
						<groupindex>1</groupindex>
					</link>
					<itemhistory>
						<uuid>ED06AACD-3079-4DD3-AB0D-CF8AF8DD1957</uuid>
					</itemhistory>
				</clipitem>
				<clipitem id="MVI_1204 4">
					<name>MVI_1204</name>
					<duration>5259</duration>
					<rate>
						<ntsc>TRUE</ntsc>
						<timebase>24</timebase>
					</rate>
					<in>0</in>
					<out>5259</out>
					<start>32508</start>
					<end>37767</end>
					<masterclipid>MVI_1204 1</masterclipid>
					<logginginfo>
						<scene/>
						<shottake/>
						<lognote/>
						<good>FALSE</good>
					</logginginfo>
					<labels>
						<label2/>
					</labels>
					<comments>
						<mastercomment1/>
						<mastercomment2/>
						<mastercomment3/>
						<mastercomment4/>
					</comments>
					<file id="MVI_1204 2"/>
					<marker>
						<name>community</name>
						<comment>What is a career or discipline that will exist in the future that doesn't exist yet?,&#13;community,sharing,knowledge</comment>
						<color>
							<alpha>0</alpha>
							<red>255</red>
							<green>0</green>
							<blue>0</blue>
						</color>
						<in>1096</in>
						<out>2123</out>
					</marker>
					<marker>
						<name>visual effects</name>
						<comment>visualization, storytelling, future of cinema, motivation,</comment>
						<color>
							<alpha>0</alpha>
							<red>255</red>
							<green>0</green>
							<blue>0</blue>
						</color>
						<in>4264</in>
						<out>5006</out>
					</marker>
					<filter>
						<effect>
							<name>Audio Levels</name>
							<effectid>audiolevels</effectid>
							<effectcategory>audiolevels</effectcategory>
							<effecttype>audiolevels</effecttype>
							<mediatype>audio</mediatype>
							<parameter>
								<name>Level</name>
								<parameterid>level</parameterid>
								<valuemin>0</valuemin>
								<valuemax>3.98109</valuemax>
								<value>1</value>
							</parameter>
						</effect>
					</filter>
					<filter>
						<effect>
							<name>Audio Pan</name>
							<effectid>audiopan</effectid>
							<effectcategory>audiopan</effectcategory>
							<effecttype>audiopan</effecttype>
							<mediatype>audio</mediatype>
							<parameter>
								<name>Pan</name>
								<parameterid>pan</parameterid>
								<valuemin>-1</valuemin>
								<valuemax>1</valuemax>
								<value>1</value>
							</parameter>
						</effect>
					</filter>
					<sourcetrack>
						<mediatype>audio</mediatype>
						<trackindex>2</trackindex>
					</sourcetrack>
					<link>
						<linkclipref>MVI_1204 </linkclipref>
						<mediatype>video</mediatype>
						<trackindex>1</trackindex>
						<clipindex>4</clipindex>
					</link>
					<link>
						<linkclipref>MVI_1204 3</linkclipref>
						<mediatype>audio</mediatype>
						<trackindex>1</trackindex>
						<clipindex>5</clipindex>
						<groupindex>1</groupindex>
					</link>
					<link>
						<linkclipref>MVI_1204 4</linkclipref>
						<mediatype>audio</mediatype>
						<trackindex>2</trackindex>
						<clipindex>5</clipindex>
						<groupindex>1</groupindex>
					</link>
					<itemhistory>
						<uuid>29458ED2-0522-422C-BB89-194BE7D52D7A</uuid>
					</itemhistory>
				</clipitem>
				<enabled>TRUE</enabled>
				<locked>FALSE</locked>
				<outputchannelindex>2</outputchannelindex>
			</track>
			<track>
				<enabled>TRUE</enabled>
				<locked>FALSE</locked>
				<outputchannelindex>1</outputchannelindex>
			</track>
			<track>
				<enabled>TRUE</enabled>
				<locked>FALSE</locked>
				<outputchannelindex>2</outputchannelindex>
			</track>
			<filter>
				<effect>
					<name>Audio Levels</name>
					<effectid>audiolevels</effectid>
					<effectcategory>audiolevels</effectcategory>
					<effecttype>audiolevels</effecttype>
					<mediatype>audio</mediatype>
					<parameter>
						<name>Level</name>
						<parameterid>level</parameterid>
						<valuemin>0</valuemin>
						<valuemax>3.98109</valuemax>
						<value>1</value>
					</parameter>
				</effect>
			</filter>
		</audio>
	</media>
	<ismasterclip>FALSE</ismasterclip>
</sequence>
<sequence id="Jer">
	<uuid>91A624C2-41DA-4DF6-86BD-2DB183990BB7</uuid>
	<updatebehavior>add</updatebehavior>
	<name>Jer</name>
	<duration>69509</duration>
	<rate>
		<ntsc>TRUE</ntsc>
		<timebase>24</timebase>
	</rate>
	<timecode>
		<rate>
			<ntsc>TRUE</ntsc>
			<timebase>24</timebase>
		</rate>
		<string>01:00:00:00</string>
		<frame>86400</frame>
		<source>source</source>
		<displayformat>NDF</displayformat>
	</timecode>
	<in>-1</in>
	<out>69510</out>
	<media>
		<video>
			<format>
				<samplecharacteristics>
					<width>1920</width>
					<height>1080</height>
					<anamorphic>FALSE</anamorphic>
					<pixelaspectratio>Square</pixelaspectratio>
					<fielddominance>none</fielddominance>
					<rate>
						<ntsc>TRUE</ntsc>
						<timebase>24</timebase>
					</rate>
					<colordepth>24</colordepth>
					<codec>
						<name>Apple ProRes 422</name>
						<appspecificdata>
							<appname>Final Cut Pro</appname>
							<appmanufacturer>Apple Inc.</appmanufacturer>
							<appversion>7.0</appversion>
							<data>
								<qtcodec>
									<codecname>Apple ProRes 422</codecname>
									<codectypename>Apple ProRes 422 (HQ)</codectypename>
									<codectypecode>apch</codectypecode>
									<codecvendorcode>appl</codecvendorcode>
									<spatialquality>1024</spatialquality>
									<temporalquality>0</temporalquality>
									<keyframerate>0</keyframerate>
									<datarate>0</datarate>
								</qtcodec>
							</data>
						</appspecificdata>
					</codec>
				</samplecharacteristics>
				<appspecificdata>
					<appname>Final Cut Pro</appname>
					<appmanufacturer>Apple Inc.</appmanufacturer>
					<appversion>7.0</appversion>
					<data>
						<fcpimageprocessing>
							<useyuv>TRUE</useyuv>
							<usesuperwhite>FALSE</usesuperwhite>
							<rendermode>Float10BPP</rendermode>
						</fcpimageprocessing>
					</data>
				</appspecificdata>
			</format>
			<track>
				<clipitem id="MVI_0999 ">
					<name>MVI_0999</name>
					<duration>13565</duration>
					<rate>
						<ntsc>TRUE</ntsc>
						<timebase>24</timebase>
					</rate>
					<in>0</in>
					<out>13565</out>
					<start>0</start>
					<end>13565</end>
					<pixelaspectratio>Square</pixelaspectratio>
					<anamorphic>FALSE</anamorphic>
					<alphatype>none</alphatype>
					<masterclipid>MVI_0999 1</masterclipid>
					<logginginfo>
						<scene/>
						<shottake/>
						<lognote/>
						<good>FALSE</good>
					</logginginfo>
					<labels>
						<label2/>
					</labels>
					<comments>
						<mastercomment1/>
						<mastercomment2/>
						<mastercomment3/>
						<mastercomment4/>
					</comments>
					<file id="MVI_0999 2">
						<name>MVI_0999.mov</name>
						<pathurl>file://localhost/Volumes/Nebula/MediaPackages/EyeoMediaBin/Jer02/color/MVI_0999.mov</pathurl>
						<rate>
							<timebase>24</timebase>
							<ntsc>TRUE</ntsc>
						</rate>
						<duration>13565</duration>
						<media>
							<video>
								<duration>13565</duration>
								<samplecharacteristics>
									<width>1920</width>
									<height>1080</height>
								</samplecharacteristics>
							</video>
							<audio>
								<samplecharacteristics>
									<samplerate>48000</samplerate>
									<depth>16</depth>
								</samplecharacteristics>
								<channelcount>2</channelcount>
							</audio>
						</media>
					</file>
					<marker>
						<name>Making a tool</name>
						<comment>tools,&#13;sharing,&#13;open source,</comment>
						<color>
							<alpha>0</alpha>
							<red>255</red>
							<green>0</green>
							<blue>0</blue>
						</color>
						<in>3701</in>
						<out>3926</out>
					</marker>
					<marker>
						<name>everyday experience</name>
						<comment>why are artists beginning to work with code in a way that engages everday experience?,&#13;interactivity,&#13;humanism,&#13;people,&#13;participation,&#13;social,&#13;interface,</comment>
						<color>
							<alpha>0</alpha>
							<red>255</red>
							<green>0</green>
							<blue>0</blue>
						</color>
						<in>5554</in>
						<out>6821</out>
					</marker>
					<marker>
						<name>Eyewriter touchstone</name>
						<comment>Eyewriter,&#13;Zach Lieberman,&#13;people,&#13;humanism,&#13;accessibility,</comment>
						<color>
							<alpha>0</alpha>
							<red>255</red>
							<green>0</green>
							<blue>0</blue>
						</color>
						<in>6969</in>
						<out>7358</out>
					</marker>
					<marker>
						<name>Desire to get together</name>
						<comment>open source,&#13;tribe,&#13;community,&#13;</comment>
						<color>
							<alpha>0</alpha>
							<red>255</red>
							<green>0</green>
							<blue>0</blue>
						</color>
						<in>10162</in>
						<out>10836</out>
					</marker>
					<sourcetrack>
						<mediatype>video</mediatype>
					</sourcetrack>
					<link>
						<linkclipref>MVI_0999 </linkclipref>
						<mediatype>video</mediatype>
						<trackindex>1</trackindex>
						<clipindex>1</clipindex>
					</link>
					<link>
						<linkclipref>MVI_0999 3</linkclipref>
						<mediatype>audio</mediatype>
						<trackindex>1</trackindex>
						<clipindex>1</clipindex>
						<groupindex>1</groupindex>
					</link>
					<link>
						<linkclipref>MVI_0999 4</linkclipref>
						<mediatype>audio</mediatype>
						<trackindex>2</trackindex>
						<clipindex>1</clipindex>
						<groupindex>1</groupindex>
					</link>
					<fielddominance>none</fielddominance>
					<itemhistory>
						<uuid>427F2881-6B3B-4715-91AC-4577F2972A64</uuid>
					</itemhistory>
				</clipitem>
				<clipitem id="MVI_1000 ">
					<name>MVI_1000</name>
					<duration>16534</duration>
					<rate>
						<ntsc>TRUE</ntsc>
						<timebase>24</timebase>
					</rate>
					<in>0</in>
					<out>16534</out>
					<start>13565</start>
					<end>30099</end>
					<pixelaspectratio>Square</pixelaspectratio>
					<enabled>TRUE</enabled>
					<anamorphic>FALSE</anamorphic>
					<alphatype>none</alphatype>
					<masterclipid>MVI_1000 1</masterclipid>
					<logginginfo>
						<scene/>
						<shottake/>
						<lognote/>
						<good>FALSE</good>
					</logginginfo>
					<labels>
						<label2/>
					</labels>
					<comments>
						<mastercomment1/>
						<mastercomment2/>
						<mastercomment3/>
						<mastercomment4/>
					</comments>
					<file id="MVI_1000 2">
						<name>MVI_1000.mov</name>
						<pathurl>file://localhost/Volumes/Nebula/MediaPackages/EyeoMediaBin/Jer03/color/MVI_1000.mov</pathurl>
						<rate>
							<timebase>24</timebase>
							<ntsc>TRUE</ntsc>
						</rate>
						<duration>16534</duration>
						<media>
							<video>
								<duration>16534</duration>
								<samplecharacteristics>
									<width>1920</width>
									<height>1080</height>
								</samplecharacteristics>
							</video>
							<audio>
								<samplecharacteristics>
									<samplerate>48000</samplerate>
									<depth>16</depth>
								</samplecharacteristics>
								<channelcount>2</channelcount>
							</audio>
						</media>
					</file>
					<marker>
						<name>Marker 2</name>
						<comment>Describe the difference between generative art (developing work from algorithms) and data visualization,&#13;creative process,&#13;generative,&#13;beginning,&#13;formalism,&#13;</comment>
						<color>
							<alpha>0</alpha>
							<red>255</red>
							<green>0</green>
							<blue>0</blue>
						</color>
						<in>4750</in>
						<out>5327</out>
					</marker>
					<marker>
						<name>Marker 3</name>
						<comment>Pattern,&#13;complexity,&#13;emergence,&#13;data,&#13;data visualization,&#13;</comment>
						<color>
							<alpha>0</alpha>
							<red>255</red>
							<green>0</green>
							<blue>0</blue>
						</color>
						<in>6276</in>
						<out>6829</out>
					</marker>
					<marker>
						<name>data visualization</name>
						<comment>data visualization,&#13;complexity,&#13;simplicity,&#13;communication,</comment>
						<color>
							<alpha>0</alpha>
							<red>255</red>
							<green>0</green>
							<blue>0</blue>
						</color>
						<in>9468</in>
						<out>9961</out>
					</marker>
					<marker>
						<name>Good at understanding complexity</name>
						<comment>complexity,&#13;cognition,&#13;reading,&#13;understanding,&#13;simplicity,&#13;link to John Maeda,&#13;link to Rachel Binx,</comment>
						<color>
							<alpha>0</alpha>
							<red>255</red>
							<green>0</green>
							<blue>0</blue>
						</color>
						<in>9987</in>
						<out>11018</out>
					</marker>
					<marker>
						<name/>
						<comment>presentation,&#13;art,&#13;story,&#13;understanding,&#13;ambiguity,</comment>
						<color>
							<alpha>0</alpha>
							<red>255</red>
							<green>0</green>
							<blue>0</blue>
						</color>
						<in>13714</in>
						<out>14943</out>
					</marker>
					<marker>
						<name>lives being documented through data</name>
						<comment>human life,&#13;quantified self,&#13;data,&#13;narrative,&#13;documentation,&#13;archiving,</comment>
						<color>
							<alpha>0</alpha>
							<red>255</red>
							<green>0</green>
							<blue>0</blue>
						</color>
						<in>15073</in>
						<out>15337</out>
					</marker>
					<sourcetrack>
						<mediatype>video</mediatype>
					</sourcetrack>
					<link>
						<linkclipref>MVI_1000 </linkclipref>
						<mediatype>video</mediatype>
						<trackindex>1</trackindex>
						<clipindex>2</clipindex>
					</link>
					<link>
						<linkclipref>MVI_1000 3</linkclipref>
						<mediatype>audio</mediatype>
						<trackindex>1</trackindex>
						<clipindex>2</clipindex>
						<groupindex>1</groupindex>
					</link>
					<link>
						<linkclipref>MVI_1000 4</linkclipref>
						<mediatype>audio</mediatype>
						<trackindex>2</trackindex>
						<clipindex>2</clipindex>
						<groupindex>1</groupindex>
					</link>
					<fielddominance>none</fielddominance>
					<itemhistory>
						<uuid>BF51362D-4174-41A2-9358-B01CB74F3B7F</uuid>
					</itemhistory>
				</clipitem>
				<clipitem id="MVI_1001 ">
					<name>MVI_1001</name>
					<duration>14200</duration>
					<rate>
						<ntsc>TRUE</ntsc>
						<timebase>24</timebase>
					</rate>
					<in>0</in>
					<out>14200</out>
					<start>30099</start>
					<end>44299</end>
					<pixelaspectratio>Square</pixelaspectratio>
					<anamorphic>FALSE</anamorphic>
					<alphatype>none</alphatype>
					<masterclipid>MVI_1001 1</masterclipid>
					<logginginfo>
						<scene/>
						<shottake/>
						<lognote/>
						<good>FALSE</good>
					</logginginfo>
					<labels>
						<label2/>
					</labels>
					<comments>
						<mastercomment1/>
						<mastercomment2/>
						<mastercomment3/>
						<mastercomment4/>
					</comments>
					<file id="MVI_1001 2">
						<name>MVI_1001.mov</name>
						<pathurl>file://localhost/Volumes/Nebula/MediaPackages/EyeoMediaBin/Jer04/color/MVI_1001.mov</pathurl>
						<rate>
							<timebase>24</timebase>
							<ntsc>TRUE</ntsc>
						</rate>
						<duration>14200</duration>
						<media>
							<video>
								<duration>14200</duration>
								<samplecharacteristics>
									<width>1920</width>
									<height>1080</height>
								</samplecharacteristics>
							</video>
							<audio>
								<samplecharacteristics>
									<samplerate>48000</samplerate>
									<depth>16</depth>
								</samplecharacteristics>
								<channelcount>2</channelcount>
							</audio>
						</media>
					</file>
					<marker>
						<name>Marker 2</name>
						<comment>big data,&#13;facebook,&#13;privacy,&#13;security,&#13;</comment>
						<color>
							<alpha>0</alpha>
							<red>255</red>
							<green>0</green>
							<blue>0</blue>
						</color>
						<in>4449</in>
						<out>4736</out>
					</marker>
					<marker>
						<name>Marker 1</name>
						<comment>Data ownership,&#13;big data,&#13;privacy,&#13;security,&#13;facebook,</comment>
						<color>
							<alpha>0</alpha>
							<red>255</red>
							<green>0</green>
							<blue>0</blue>
						</color>
						<in>5056</in>
						<out>5782</out>
					</marker>
					<marker>
						<name>Marker 3</name>
						<comment>Data,&#13;location,&#13;GPS,&#13;Open Paths,&#13;drawing,&#13;</comment>
						<color>
							<alpha>0</alpha>
							<red>255</red>
							<green>0</green>
							<blue>0</blue>
						</color>
						<in>9375</in>
						<out>10929</out>
					</marker>
					<marker>
						<name>Marker 5</name>
						<comment>location,&#13;open paths,&#13;trace of your life,&#13;</comment>
						<color>
							<alpha>0</alpha>
							<red>255</red>
							<green>0</green>
							<blue>0</blue>
						</color>
						<in>11584</in>
						<out>12541</out>
					</marker>
					<marker>
						<name>Marker 4</name>
						<comment/>
						<color>
							<alpha>0</alpha>
							<red>255</red>
							<green>0</green>
							<blue>0</blue>
						</color>
						<in>12925</in>
						<out>14025</out>
					</marker>
					<sourcetrack>
						<mediatype>video</mediatype>
					</sourcetrack>
					<link>
						<linkclipref>MVI_1001 </linkclipref>
						<mediatype>video</mediatype>
						<trackindex>1</trackindex>
						<clipindex>3</clipindex>
					</link>
					<link>
						<linkclipref>MVI_1001 3</linkclipref>
						<mediatype>audio</mediatype>
						<trackindex>1</trackindex>
						<clipindex>3</clipindex>
						<groupindex>1</groupindex>
					</link>
					<link>
						<linkclipref>MVI_1001 4</linkclipref>
						<mediatype>audio</mediatype>
						<trackindex>2</trackindex>
						<clipindex>3</clipindex>
						<groupindex>1</groupindex>
					</link>
					<fielddominance>none</fielddominance>
					<itemhistory>
						<uuid>4AACC7D7-083C-42E5-B971-173D849C8E7E</uuid>
					</itemhistory>
				</clipitem>
				<clipitem id="MVI_1002 ">
					<name>MVI_1002</name>
					<duration>6857</duration>
					<rate>
						<ntsc>TRUE</ntsc>
						<timebase>24</timebase>
					</rate>
					<in>0</in>
					<out>6857</out>
					<start>44299</start>
					<end>51156</end>
					<pixelaspectratio>Square</pixelaspectratio>
					<anamorphic>FALSE</anamorphic>
					<alphatype>none</alphatype>
					<masterclipid>MVI_1002 1</masterclipid>
					<logginginfo>
						<scene/>
						<shottake/>
						<lognote/>
						<good>FALSE</good>
					</logginginfo>
					<labels>
						<label2/>
					</labels>
					<comments>
						<mastercomment1/>
						<mastercomment2/>
						<mastercomment3/>
						<mastercomment4/>
					</comments>
					<file id="MVI_1002 2">
						<name>MVI_1002.mov</name>
						<pathurl>file://localhost/Volumes/Nebula/MediaPackages/EyeoMediaBin/Jer05/color/MVI_1002.mov</pathurl>
						<rate>
							<timebase>24</timebase>
							<ntsc>TRUE</ntsc>
						</rate>
						<duration>6857</duration>
						<media>
							<video>
								<duration>6857</duration>
								<samplecharacteristics>
									<width>1920</width>
									<height>1080</height>
								</samplecharacteristics>
							</video>
							<audio>
								<samplecharacteristics>
									<samplerate>48000</samplerate>
									<depth>16</depth>
								</samplecharacteristics>
								<channelcount>2</channelcount>
							</audio>
						</media>
					</file>
					<marker>
						<name>Marker 2</name>
						<comment>storage,&#13;archiving,&#13;memory,&#13;history,&#13;technological progress,&#13;</comment>
						<color>
							<alpha>0</alpha>
							<red>255</red>
							<green>0</green>
							<blue>0</blue>
						</color>
						<in>2159</in>
						<out>3243</out>
					</marker>
					<marker>
						<name>Marker 1</name>
						<comment/>
						<color>
							<alpha>0</alpha>
							<red>255</red>
							<green>0</green>
							<blue>0</blue>
						</color>
						<in>4351</in>
						<out>5160</out>
					</marker>
					<sourcetrack>
						<mediatype>video</mediatype>
					</sourcetrack>
					<link>
						<linkclipref>MVI_1002 </linkclipref>
						<mediatype>video</mediatype>
						<trackindex>1</trackindex>
						<clipindex>4</clipindex>
					</link>
					<link>
						<linkclipref>MVI_1002 3</linkclipref>
						<mediatype>audio</mediatype>
						<trackindex>1</trackindex>
						<clipindex>4</clipindex>
						<groupindex>1</groupindex>
					</link>
					<link>
						<linkclipref>MVI_1002 4</linkclipref>
						<mediatype>audio</mediatype>
						<trackindex>2</trackindex>
						<clipindex>4</clipindex>
						<groupindex>1</groupindex>
					</link>
					<fielddominance>none</fielddominance>
					<itemhistory>
						<uuid>B5092C64-15F4-4E37-A66A-6D1F08B853E7</uuid>
					</itemhistory>
				</clipitem>
				<clipitem id="MVI_1003 ">
					<name>MVI_1003</name>
					<duration>17496</duration>
					<rate>
						<ntsc>TRUE</ntsc>
						<timebase>24</timebase>
					</rate>
					<in>0</in>
					<out>17496</out>
					<start>51156</start>
					<end>68652</end>
					<pixelaspectratio>Square</pixelaspectratio>
					<enabled>TRUE</enabled>
					<anamorphic>FALSE</anamorphic>
					<alphatype>none</alphatype>
					<masterclipid>MVI_1003 1</masterclipid>
					<logginginfo>
						<scene/>
						<shottake/>
						<lognote/>
						<good>FALSE</good>
					</logginginfo>
					<labels>
						<label2/>
					</labels>
					<comments>
						<mastercomment1/>
						<mastercomment2/>
						<mastercomment3/>
						<mastercomment4/>
					</comments>
					<file id="MVI_1003 2">
						<name>MVI_1003.mov</name>
						<pathurl>file://localhost/Volumes/Nebula/MediaPackages/EyeoMediaBin/Jer06/color/MVI_1003.mov</pathurl>
						<rate>
							<timebase>24</timebase>
							<ntsc>TRUE</ntsc>
						</rate>
						<duration>17496</duration>
						<media>
							<video>
								<duration>17496</duration>
								<samplecharacteristics>
									<width>1920</width>
									<height>1080</height>
								</samplecharacteristics>
							</video>
							<audio>
								<samplecharacteristics>
									<samplerate>48000</samplerate>
									<depth>16</depth>
								</samplecharacteristics>
								<channelcount>2</channelcount>
							</audio>
						</media>
					</file>
					<sourcetrack>
						<mediatype>video</mediatype>
					</sourcetrack>
					<link>
						<linkclipref>MVI_1003 </linkclipref>
						<mediatype>video</mediatype>
						<trackindex>1</trackindex>
						<clipindex>5</clipindex>
					</link>
					<link>
						<linkclipref>MVI_1003 3</linkclipref>
						<mediatype>audio</mediatype>
						<trackindex>1</trackindex>
						<clipindex>5</clipindex>
						<groupindex>1</groupindex>
					</link>
					<link>
						<linkclipref>MVI_1003 4</linkclipref>
						<mediatype>audio</mediatype>
						<trackindex>2</trackindex>
						<clipindex>5</clipindex>
						<groupindex>1</groupindex>
					</link>
					<fielddominance>none</fielddominance>
					<itemhistory>
						<uuid>FE32300D-4492-4575-9FE1-1EE193C45CDE</uuid>
					</itemhistory>
				</clipitem>
				<clipitem id="MVI_1004 ">
					<name>MVI_1004</name>
					<duration>857</duration>
					<rate>
						<ntsc>TRUE</ntsc>
						<timebase>24</timebase>
					</rate>
					<in>0</in>
					<out>857</out>
					<start>68652</start>
					<end>69509</end>
					<pixelaspectratio>Square</pixelaspectratio>
					<anamorphic>FALSE</anamorphic>
					<alphatype>none</alphatype>
					<masterclipid>MVI_1004 1</masterclipid>
					<logginginfo>
						<scene/>
						<shottake/>
						<lognote/>
						<good>FALSE</good>
					</logginginfo>
					<labels>
						<label2/>
					</labels>
					<comments>
						<mastercomment1/>
						<mastercomment2/>
						<mastercomment3/>
						<mastercomment4/>
					</comments>
					<file id="MVI_1004 2">
						<name>MVI_1004.mov</name>
						<pathurl>file://localhost/Volumes/Nebula/MediaPackages/EyeoMediaBin/Jer06/MVI_1004.mov</pathurl>
						<rate>
							<timebase>24</timebase>
							<ntsc>TRUE</ntsc>
						</rate>
						<duration>857</duration>
						<media>
							<video>
								<duration>857</duration>
								<samplecharacteristics>
									<width>1920</width>
									<height>1080</height>
								</samplecharacteristics>
							</video>
							<audio>
								<samplecharacteristics>
									<samplerate>48000</samplerate>
									<depth>16</depth>
								</samplecharacteristics>
								<channelcount>2</channelcount>
							</audio>
						</media>
					</file>
					<sourcetrack>
						<mediatype>video</mediatype>
					</sourcetrack>
					<link>
						<linkclipref>MVI_1004 </linkclipref>
						<mediatype>video</mediatype>
						<trackindex>1</trackindex>
						<clipindex>6</clipindex>
					</link>
					<link>
						<linkclipref>MVI_1004 3</linkclipref>
						<mediatype>audio</mediatype>
						<trackindex>1</trackindex>
						<clipindex>6</clipindex>
						<groupindex>1</groupindex>
					</link>
					<link>
						<linkclipref>MVI_1004 4</linkclipref>
						<mediatype>audio</mediatype>
						<trackindex>2</trackindex>
						<clipindex>6</clipindex>
						<groupindex>1</groupindex>
					</link>
					<fielddominance>none</fielddominance>
					<itemhistory>
						<uuid>034D70ED-53B8-415D-89BE-212695BCAD9C</uuid>
					</itemhistory>
				</clipitem>
				<enabled>TRUE</enabled>
				<locked>FALSE</locked>
			</track>
			<track>
				<clipitem id="MVI_0999 5">
					<name>MVI_0999</name>
					<duration>13565</duration>
					<rate>
						<ntsc>TRUE</ntsc>
						<timebase>24</timebase>
					</rate>
					<in>0</in>
					<out>13565</out>
					<start>0</start>
					<end>13565</end>
					<pixelaspectratio>Square</pixelaspectratio>
					<enabled>TRUE</enabled>
					<anamorphic>FALSE</anamorphic>
					<alphatype>none</alphatype>
					<masterclipid>MVI_0999 1</masterclipid>
					<logginginfo>
						<scene/>
						<shottake/>
						<lognote/>
						<good>FALSE</good>
					</logginginfo>
					<labels>
						<label2/>
					</labels>
					<comments>
						<mastercomment1/>
						<mastercomment2/>
						<mastercomment3/>
						<mastercomment4/>
					</comments>
					<file id="MVI_0999 2"/>
					<marker>
						<name>active not interactive</name>
						<comment>interactivity,&#13;humanism,&#13;people,&#13;participation,&#13;social,&#13;interface,</comment>
						<color>
							<alpha>0</alpha>
							<red>255</red>
							<green>0</green>
							<blue>0</blue>
						</color>
						<in>6347</in>
						<out>6818</out>
					</marker>
					<sourcetrack>
						<mediatype>video</mediatype>
					</sourcetrack>
					<fielddominance>none</fielddominance>
					<itemhistory>
						<uuid>999E6A9D-45F5-4DF7-B07B-DBB9787F0699</uuid>
					</itemhistory>
				</clipitem>
				<clipitem id="MVI_1000 5">
					<name>MVI_1000</name>
					<duration>16534</duration>
					<rate>
						<ntsc>TRUE</ntsc>
						<timebase>24</timebase>
					</rate>
					<in>0</in>
					<out>16534</out>
					<start>13565</start>
					<end>30099</end>
					<pixelaspectratio>Square</pixelaspectratio>
					<enabled>TRUE</enabled>
					<anamorphic>FALSE</anamorphic>
					<alphatype>none</alphatype>
					<masterclipid>MVI_1000 1</masterclipid>
					<logginginfo>
						<scene/>
						<shottake/>
						<lognote/>
						<good>FALSE</good>
					</logginginfo>
					<labels>
						<label2/>
					</labels>
					<comments>
						<mastercomment1/>
						<mastercomment2/>
						<mastercomment3/>
						<mastercomment4/>
					</comments>
					<file id="MVI_1000 2"/>
					<marker>
						<name>Marker 4</name>
						<comment>Data visualization,&#13;information visualization,&#13;legibility,&#13;communication,&#13;link: John Maeda,&#13;link: Rachel Binx,</comment>
						<color>
							<alpha>0</alpha>
							<red>255</red>
							<green>0</green>
							<blue>0</blue>
						</color>
						<in>7519</in>
						<out>8529</out>
					</marker>
					<sourcetrack>
						<mediatype>video</mediatype>
					</sourcetrack>
					<fielddominance>none</fielddominance>
					<itemhistory>
						<uuid>3F470055-5C7E-4985-B45A-3C18A1EDA108</uuid>
					</itemhistory>
				</clipitem>
				<clipitem id="MVI_1001 5">
					<name>MVI_1001</name>
					<duration>14200</duration>
					<rate>
						<ntsc>TRUE</ntsc>
						<timebase>24</timebase>
					</rate>
					<in>0</in>
					<out>14200</out>
					<start>30099</start>
					<end>44299</end>
					<pixelaspectratio>Square</pixelaspectratio>
					<anamorphic>FALSE</anamorphic>
					<alphatype>none</alphatype>
					<masterclipid>MVI_1001 1</masterclipid>
					<logginginfo>
						<scene/>
						<shottake/>
						<lognote/>
						<good>FALSE</good>
					</logginginfo>
					<labels>
						<label2/>
					</labels>
					<comments>
						<mastercomment1/>
						<mastercomment2/>
						<mastercomment3/>
						<mastercomment4/>
					</comments>
					<file id="MVI_1001 2"/>
					<marker>
						<name>Marker 1</name>
						<comment/>
						<color>
							<alpha>0</alpha>
							<red>255</red>
							<green>0</green>
							<blue>0</blue>
						</color>
						<in>3427</in>
						<out>-1</out>
					</marker>
					<sourcetrack>
						<mediatype>video</mediatype>
					</sourcetrack>
					<fielddominance>none</fielddominance>
					<itemhistory>
						<uuid>78767CB7-42A6-44C4-82AE-A1DC87A28B89</uuid>
					</itemhistory>
				</clipitem>
				<clipitem id="MVI_1002 5">
					<name>MVI_1002</name>
					<duration>6857</duration>
					<rate>
						<ntsc>TRUE</ntsc>
						<timebase>24</timebase>
					</rate>
					<in>0</in>
					<out>6857</out>
					<start>44299</start>
					<end>51156</end>
					<pixelaspectratio>Square</pixelaspectratio>
					<anamorphic>FALSE</anamorphic>
					<alphatype>none</alphatype>
					<masterclipid>MVI_1002 1</masterclipid>
					<logginginfo>
						<scene/>
						<shottake/>
						<lognote/>
						<good>FALSE</good>
					</logginginfo>
					<labels>
						<label2/>
					</labels>
					<comments>
						<mastercomment1/>
						<mastercomment2/>
						<mastercomment3/>
						<mastercomment4/>
					</comments>
					<file id="MVI_1002 2"/>
					<sourcetrack>
						<mediatype>video</mediatype>
					</sourcetrack>
					<fielddominance>none</fielddominance>
					<itemhistory>
						<uuid>7C5140A1-528E-4978-8058-7293F271D465</uuid>
					</itemhistory>
				</clipitem>
				<clipitem id="MVI_1003 5">
					<name>MVI_1003</name>
					<duration>17496</duration>
					<rate>
						<ntsc>TRUE</ntsc>
						<timebase>24</timebase>
					</rate>
					<in>0</in>
					<out>17496</out>
					<start>51156</start>
					<end>68652</end>
					<pixelaspectratio>Square</pixelaspectratio>
					<enabled>TRUE</enabled>
					<anamorphic>FALSE</anamorphic>
					<alphatype>none</alphatype>
					<masterclipid>MVI_1003 1</masterclipid>
					<logginginfo>
						<scene/>
						<shottake/>
						<lognote/>
						<good>FALSE</good>
					</logginginfo>
					<labels>
						<label2/>
					</labels>
					<comments>
						<mastercomment1/>
						<mastercomment2/>
						<mastercomment3/>
						<mastercomment4/>
					</comments>
					<file id="MVI_1003 2"/>
					<marker>
						<name>Thanks</name>
						<comment>thanks,&#13;currency,&#13;community,&#13;sharing,</comment>
						<color>
							<alpha>0</alpha>
							<red>255</red>
							<green>0</green>
							<blue>0</blue>
						</color>
						<in>1917</in>
						<out>2707</out>
					</marker>
					<marker>
						<name>Software1</name>
						<comment>software,&#13;commercialism,&#13;history,&#13;open source,&#13;money,&#13;economics,</comment>
						<color>
							<alpha>0</alpha>
							<red>255</red>
							<green>0</green>
							<blue>0</blue>
						</color>
						<in>3287</in>
						<out>6182</out>
					</marker>
					<marker>
						<name>Software2</name>
						<comment>software,&#13;commercialism,&#13;history,&#13;open source,&#13;money,&#13;economics,</comment>
						<color>
							<alpha>0</alpha>
							<red>255</red>
							<green>0</green>
							<blue>0</blue>
						</color>
						<in>6779</in>
						<out>7167</out>
					</marker>
					<marker>
						<name>Post-capitalism</name>
						<comment>post-capitalism,&#13;open source,&#13;money,&#13;economics,&#13;sharing,&#13;</comment>
						<color>
							<alpha>0</alpha>
							<red>255</red>
							<green>0</green>
							<blue>0</blue>
						</color>
						<in>7337</in>
						<out>8652</out>
					</marker>
					<marker>
						<name>post-capitalism2</name>
						<comment>post-capitalism,&#13;open source,&#13;money,&#13;economics,&#13;sharing,&#13;</comment>
						<color>
							<alpha>0</alpha>
							<red>255</red>
							<green>0</green>
							<blue>0</blue>
						</color>
						<in>9072</in>
						<out>9898</out>
					</marker>
					<marker>
						<name>Toxi: gurus</name>
						<comment>could there be a system that compensates people for their contributions, and their givingness?,&#13;compensation,&#13;sharing,&#13;teaching,&#13;mentors,&#13;education,&#13;</comment>
						<color>
							<alpha>0</alpha>
							<red>255</red>
							<green>0</green>
							<blue>0</blue>
						</color>
						<in>12647</in>
						<out>14013</out>
					</marker>
					<marker>
						<name>fireflies</name>
						<comment>community,&#13;emergence, &#13;biology,&#13;</comment>
						<color>
							<alpha>0</alpha>
							<red>255</red>
							<green>0</green>
							<blue>0</blue>
						</color>
						<in>15872</in>
						<out>16771</out>
					</marker>
					<sourcetrack>
						<mediatype>video</mediatype>
					</sourcetrack>
					<fielddominance>none</fielddominance>
					<itemhistory>
						<uuid>DE34842D-2067-4F09-86E2-1AA89DE078D8</uuid>
					</itemhistory>
				</clipitem>
				<clipitem id="MVI_1004 5">
					<name>MVI_1004</name>
					<duration>857</duration>
					<rate>
						<ntsc>TRUE</ntsc>
						<timebase>24</timebase>
					</rate>
					<in>0</in>
					<out>857</out>
					<start>68652</start>
					<end>69509</end>
					<pixelaspectratio>Square</pixelaspectratio>
					<anamorphic>FALSE</anamorphic>
					<alphatype>none</alphatype>
					<masterclipid>MVI_1004 1</masterclipid>
					<logginginfo>
						<scene/>
						<shottake/>
						<lognote/>
						<good>FALSE</good>
					</logginginfo>
					<labels>
						<label2/>
					</labels>
					<comments>
						<mastercomment1/>
						<mastercomment2/>
						<mastercomment3/>
						<mastercomment4/>
					</comments>
					<file id="MVI_1004 2"/>
					<sourcetrack>
						<mediatype>video</mediatype>
					</sourcetrack>
					<fielddominance>none</fielddominance>
					<itemhistory>
						<uuid>74ED45E2-FB1F-45B8-B54D-93F7E9F488E5</uuid>
					</itemhistory>
				</clipitem>
				<enabled>TRUE</enabled>
				<locked>FALSE</locked>
			</track>
			<track>
				<enabled>TRUE</enabled>
				<locked>FALSE</locked>
			</track>
		</video>
		<audio>
			<format>
				<samplecharacteristics>
					<depth>16</depth>
					<samplerate>48000</samplerate>
				</samplecharacteristics>
			</format>
			<outputs>
				<group>
					<index>1</index>
					<numchannels>2</numchannels>
					<downmix>0</downmix>
					<channel>
						<index>1</index>
					</channel>
					<channel>
						<index>2</index>
					</channel>
				</group>
			</outputs>
			<in>-1</in>
			<out>69510</out>
			<track>
				<clipitem id="MVI_0999 3">
					<name>MVI_0999</name>
					<duration>13565</duration>
					<rate>
						<ntsc>TRUE</ntsc>
						<timebase>24</timebase>
					</rate>
					<in>0</in>
					<out>13565</out>
					<start>0</start>
					<end>13565</end>
					<masterclipid>MVI_0999 1</masterclipid>
					<logginginfo>
						<scene/>
						<shottake/>
						<lognote/>
						<good>FALSE</good>
					</logginginfo>
					<labels>
						<label2/>
					</labels>
					<comments>
						<mastercomment1/>
						<mastercomment2/>
						<mastercomment3/>
						<mastercomment4/>
					</comments>
					<file id="MVI_0999 2"/>
					<marker>
						<name>Making a tool</name>
						<comment>tools,&#13;sharing,&#13;open source,</comment>
						<color>
							<alpha>0</alpha>
							<red>255</red>
							<green>0</green>
							<blue>0</blue>
						</color>
						<in>3701</in>
						<out>3926</out>
					</marker>
					<marker>
						<name>everyday experience</name>
						<comment>why are artists beginning to work with code in a way that engages everday experience?,&#13;interactivity,&#13;humanism,&#13;people,&#13;participation,&#13;social,&#13;interface,</comment>
						<color>
							<alpha>0</alpha>
							<red>255</red>
							<green>0</green>
							<blue>0</blue>
						</color>
						<in>5554</in>
						<out>6821</out>
					</marker>
					<marker>
						<name>Eyewriter touchstone</name>
						<comment>Eyewriter,&#13;Zach Lieberman,&#13;people,&#13;humanism,&#13;accessibility,</comment>
						<color>
							<alpha>0</alpha>
							<red>255</red>
							<green>0</green>
							<blue>0</blue>
						</color>
						<in>6969</in>
						<out>7358</out>
					</marker>
					<marker>
						<name>Desire to get together</name>
						<comment>open source,&#13;tribe,&#13;community,&#13;</comment>
						<color>
							<alpha>0</alpha>
							<red>255</red>
							<green>0</green>
							<blue>0</blue>
						</color>
						<in>10162</in>
						<out>10836</out>
					</marker>
					<filter>
						<effect>
							<name>Audio Levels</name>
							<effectid>audiolevels</effectid>
							<effectcategory>audiolevels</effectcategory>
							<effecttype>audiolevels</effecttype>
							<mediatype>audio</mediatype>
							<parameter>
								<name>Level</name>
								<parameterid>level</parameterid>
								<valuemin>0</valuemin>
								<valuemax>3.98109</valuemax>
								<value>1</value>
							</parameter>
						</effect>
					</filter>
					<filter>
						<effect>
							<name>Audio Pan</name>
							<effectid>audiopan</effectid>
							<effectcategory>audiopan</effectcategory>
							<effecttype>audiopan</effecttype>
							<mediatype>audio</mediatype>
							<parameter>
								<name>Pan</name>
								<parameterid>pan</parameterid>
								<valuemin>-1</valuemin>
								<valuemax>1</valuemax>
								<value>-1</value>
							</parameter>
						</effect>
					</filter>
					<sourcetrack>
						<mediatype>audio</mediatype>
						<trackindex>1</trackindex>
					</sourcetrack>
					<link>
						<linkclipref>MVI_0999 </linkclipref>
						<mediatype>video</mediatype>
						<trackindex>1</trackindex>
						<clipindex>1</clipindex>
					</link>
					<link>
						<linkclipref>MVI_0999 3</linkclipref>
						<mediatype>audio</mediatype>
						<trackindex>1</trackindex>
						<clipindex>1</clipindex>
						<groupindex>1</groupindex>
					</link>
					<link>
						<linkclipref>MVI_0999 4</linkclipref>
						<mediatype>audio</mediatype>
						<trackindex>2</trackindex>
						<clipindex>1</clipindex>
						<groupindex>1</groupindex>
					</link>
					<itemhistory>
						<uuid>A6BB1A17-7CF0-4C89-997A-E3772A4A1B70</uuid>
					</itemhistory>
				</clipitem>
				<clipitem id="MVI_1000 3">
					<name>MVI_1000</name>
					<duration>16534</duration>
					<rate>
						<ntsc>TRUE</ntsc>
						<timebase>24</timebase>
					</rate>
					<in>0</in>
					<out>16534</out>
					<start>13565</start>
					<end>30099</end>
					<masterclipid>MVI_1000 1</masterclipid>
					<logginginfo>
						<scene/>
						<shottake/>
						<lognote/>
						<good>FALSE</good>
					</logginginfo>
					<labels>
						<label2/>
					</labels>
					<comments>
						<mastercomment1/>
						<mastercomment2/>
						<mastercomment3/>
						<mastercomment4/>
					</comments>
					<file id="MVI_1000 2"/>
					<marker>
						<name>Marker 2</name>
						<comment>Describe the difference between generative art (developing work from algorithms) and data visualization,&#13;creative process,&#13;generative,&#13;beginning,&#13;formalism,&#13;</comment>
						<color>
							<alpha>0</alpha>
							<red>255</red>
							<green>0</green>
							<blue>0</blue>
						</color>
						<in>4750</in>
						<out>5327</out>
					</marker>
					<marker>
						<name>Marker 3</name>
						<comment>Pattern,&#13;complexity,&#13;emergence,&#13;data,&#13;data visualization,&#13;</comment>
						<color>
							<alpha>0</alpha>
							<red>255</red>
							<green>0</green>
							<blue>0</blue>
						</color>
						<in>6276</in>
						<out>6829</out>
					</marker>
					<marker>
						<name>data visualization</name>
						<comment>data visualization,&#13;complexity,&#13;simplicity,&#13;communication,</comment>
						<color>
							<alpha>0</alpha>
							<red>255</red>
							<green>0</green>
							<blue>0</blue>
						</color>
						<in>9468</in>
						<out>9961</out>
					</marker>
					<marker>
						<name>Good at understanding complexity</name>
						<comment>complexity,&#13;cognition,&#13;reading,&#13;understanding,&#13;simplicity,&#13;link to John Maeda,&#13;link to Rachel Binx,</comment>
						<color>
							<alpha>0</alpha>
							<red>255</red>
							<green>0</green>
							<blue>0</blue>
						</color>
						<in>9987</in>
						<out>11018</out>
					</marker>
					<marker>
						<name/>
						<comment>presentation,&#13;art,&#13;story,&#13;understanding,&#13;ambiguity,</comment>
						<color>
							<alpha>0</alpha>
							<red>255</red>
							<green>0</green>
							<blue>0</blue>
						</color>
						<in>13714</in>
						<out>14943</out>
					</marker>
					<marker>
						<name>lives being documented through data</name>
						<comment>human life,&#13;quantified self,&#13;data,&#13;narrative,&#13;documentation,&#13;archiving,</comment>
						<color>
							<alpha>0</alpha>
							<red>255</red>
							<green>0</green>
							<blue>0</blue>
						</color>
						<in>15073</in>
						<out>15337</out>
					</marker>
					<filter>
						<effect>
							<name>Audio Levels</name>
							<effectid>audiolevels</effectid>
							<effectcategory>audiolevels</effectcategory>
							<effecttype>audiolevels</effecttype>
							<mediatype>audio</mediatype>
							<parameter>
								<name>Level</name>
								<parameterid>level</parameterid>
								<valuemin>0</valuemin>
								<valuemax>3.98109</valuemax>
								<value>1</value>
							</parameter>
						</effect>
					</filter>
					<filter>
						<effect>
							<name>Audio Pan</name>
							<effectid>audiopan</effectid>
							<effectcategory>audiopan</effectcategory>
							<effecttype>audiopan</effecttype>
							<mediatype>audio</mediatype>
							<parameter>
								<name>Pan</name>
								<parameterid>pan</parameterid>
								<valuemin>-1</valuemin>
								<valuemax>1</valuemax>
								<value>-1</value>
							</parameter>
						</effect>
					</filter>
					<sourcetrack>
						<mediatype>audio</mediatype>
						<trackindex>1</trackindex>
					</sourcetrack>
					<link>
						<linkclipref>MVI_1000 </linkclipref>
						<mediatype>video</mediatype>
						<trackindex>1</trackindex>
						<clipindex>2</clipindex>
					</link>
					<link>
						<linkclipref>MVI_1000 3</linkclipref>
						<mediatype>audio</mediatype>
						<trackindex>1</trackindex>
						<clipindex>2</clipindex>
						<groupindex>1</groupindex>
					</link>
					<link>
						<linkclipref>MVI_1000 4</linkclipref>
						<mediatype>audio</mediatype>
						<trackindex>2</trackindex>
						<clipindex>2</clipindex>
						<groupindex>1</groupindex>
					</link>
					<itemhistory>
						<uuid>344BBA7D-F86E-45E7-9D58-F236AE795CEF</uuid>
					</itemhistory>
				</clipitem>
				<clipitem id="MVI_1001 3">
					<name>MVI_1001</name>
					<duration>14200</duration>
					<rate>
						<ntsc>TRUE</ntsc>
						<timebase>24</timebase>
					</rate>
					<in>0</in>
					<out>14200</out>
					<start>30099</start>
					<end>44299</end>
					<masterclipid>MVI_1001 1</masterclipid>
					<logginginfo>
						<scene/>
						<shottake/>
						<lognote/>
						<good>FALSE</good>
					</logginginfo>
					<labels>
						<label2/>
					</labels>
					<comments>
						<mastercomment1/>
						<mastercomment2/>
						<mastercomment3/>
						<mastercomment4/>
					</comments>
					<file id="MVI_1001 2"/>
					<marker>
						<name>Marker 2</name>
						<comment>big data,&#13;facebook,&#13;privacy,&#13;security,&#13;</comment>
						<color>
							<alpha>0</alpha>
							<red>255</red>
							<green>0</green>
							<blue>0</blue>
						</color>
						<in>4449</in>
						<out>4736</out>
					</marker>
					<marker>
						<name>Marker 1</name>
						<comment>Data ownership,&#13;big data,&#13;privacy,&#13;security,&#13;facebook,</comment>
						<color>
							<alpha>0</alpha>
							<red>255</red>
							<green>0</green>
							<blue>0</blue>
						</color>
						<in>5056</in>
						<out>5782</out>
					</marker>
					<marker>
						<name>Marker 3</name>
						<comment>Data,&#13;location,&#13;GPS,&#13;Open Paths,&#13;drawing,&#13;</comment>
						<color>
							<alpha>0</alpha>
							<red>255</red>
							<green>0</green>
							<blue>0</blue>
						</color>
						<in>9375</in>
						<out>10929</out>
					</marker>
					<marker>
						<name>Marker 5</name>
						<comment>location,&#13;open paths,&#13;trace of your life,&#13;</comment>
						<color>
							<alpha>0</alpha>
							<red>255</red>
							<green>0</green>
							<blue>0</blue>
						</color>
						<in>11584</in>
						<out>12541</out>
					</marker>
					<marker>
						<name>Marker 4</name>
						<comment/>
						<color>
							<alpha>0</alpha>
							<red>255</red>
							<green>0</green>
							<blue>0</blue>
						</color>
						<in>12925</in>
						<out>14025</out>
					</marker>
					<filter>
						<effect>
							<name>Audio Levels</name>
							<effectid>audiolevels</effectid>
							<effectcategory>audiolevels</effectcategory>
							<effecttype>audiolevels</effecttype>
							<mediatype>audio</mediatype>
							<parameter>
								<name>Level</name>
								<parameterid>level</parameterid>
								<valuemin>0</valuemin>
								<valuemax>3.98109</valuemax>
								<value>1</value>
							</parameter>
						</effect>
					</filter>
					<filter>
						<effect>
							<name>Audio Pan</name>
							<effectid>audiopan</effectid>
							<effectcategory>audiopan</effectcategory>
							<effecttype>audiopan</effecttype>
							<mediatype>audio</mediatype>
							<parameter>
								<name>Pan</name>
								<parameterid>pan</parameterid>
								<valuemin>-1</valuemin>
								<valuemax>1</valuemax>
								<value>-1</value>
							</parameter>
						</effect>
					</filter>
					<sourcetrack>
						<mediatype>audio</mediatype>
						<trackindex>1</trackindex>
					</sourcetrack>
					<link>
						<linkclipref>MVI_1001 </linkclipref>
						<mediatype>video</mediatype>
						<trackindex>1</trackindex>
						<clipindex>3</clipindex>
					</link>
					<link>
						<linkclipref>MVI_1001 3</linkclipref>
						<mediatype>audio</mediatype>
						<trackindex>1</trackindex>
						<clipindex>3</clipindex>
						<groupindex>1</groupindex>
					</link>
					<link>
						<linkclipref>MVI_1001 4</linkclipref>
						<mediatype>audio</mediatype>
						<trackindex>2</trackindex>
						<clipindex>3</clipindex>
						<groupindex>1</groupindex>
					</link>
					<itemhistory>
						<uuid>AB63EC9C-AC70-4C47-AEF4-9AB4E91563C3</uuid>
					</itemhistory>
				</clipitem>
				<clipitem id="MVI_1002 3">
					<name>MVI_1002</name>
					<duration>6857</duration>
					<rate>
						<ntsc>TRUE</ntsc>
						<timebase>24</timebase>
					</rate>
					<in>0</in>
					<out>6857</out>
					<start>44299</start>
					<end>51156</end>
					<masterclipid>MVI_1002 1</masterclipid>
					<logginginfo>
						<scene/>
						<shottake/>
						<lognote/>
						<good>FALSE</good>
					</logginginfo>
					<labels>
						<label2/>
					</labels>
					<comments>
						<mastercomment1/>
						<mastercomment2/>
						<mastercomment3/>
						<mastercomment4/>
					</comments>
					<file id="MVI_1002 2"/>
					<marker>
						<name>Marker 2</name>
						<comment>storage,&#13;archiving,&#13;memory,&#13;history,&#13;technological progress,&#13;</comment>
						<color>
							<alpha>0</alpha>
							<red>255</red>
							<green>0</green>
							<blue>0</blue>
						</color>
						<in>2159</in>
						<out>3243</out>
					</marker>
					<marker>
						<name>Marker 1</name>
						<comment/>
						<color>
							<alpha>0</alpha>
							<red>255</red>
							<green>0</green>
							<blue>0</blue>
						</color>
						<in>4351</in>
						<out>5160</out>
					</marker>
					<filter>
						<effect>
							<name>Audio Levels</name>
							<effectid>audiolevels</effectid>
							<effectcategory>audiolevels</effectcategory>
							<effecttype>audiolevels</effecttype>
							<mediatype>audio</mediatype>
							<parameter>
								<name>Level</name>
								<parameterid>level</parameterid>
								<valuemin>0</valuemin>
								<valuemax>3.98109</valuemax>
								<value>1</value>
							</parameter>
						</effect>
					</filter>
					<filter>
						<effect>
							<name>Audio Pan</name>
							<effectid>audiopan</effectid>
							<effectcategory>audiopan</effectcategory>
							<effecttype>audiopan</effecttype>
							<mediatype>audio</mediatype>
							<parameter>
								<name>Pan</name>
								<parameterid>pan</parameterid>
								<valuemin>-1</valuemin>
								<valuemax>1</valuemax>
								<value>-1</value>
							</parameter>
						</effect>
					</filter>
					<sourcetrack>
						<mediatype>audio</mediatype>
						<trackindex>1</trackindex>
					</sourcetrack>
					<link>
						<linkclipref>MVI_1002 </linkclipref>
						<mediatype>video</mediatype>
						<trackindex>1</trackindex>
						<clipindex>4</clipindex>
					</link>
					<link>
						<linkclipref>MVI_1002 3</linkclipref>
						<mediatype>audio</mediatype>
						<trackindex>1</trackindex>
						<clipindex>4</clipindex>
						<groupindex>1</groupindex>
					</link>
					<link>
						<linkclipref>MVI_1002 4</linkclipref>
						<mediatype>audio</mediatype>
						<trackindex>2</trackindex>
						<clipindex>4</clipindex>
						<groupindex>1</groupindex>
					</link>
					<itemhistory>
						<uuid>E245F8FE-0297-451F-A7B1-B250058F97A7</uuid>
					</itemhistory>
				</clipitem>
				<clipitem id="MVI_1003 3">
					<name>MVI_1003</name>
					<duration>17496</duration>
					<rate>
						<ntsc>TRUE</ntsc>
						<timebase>24</timebase>
					</rate>
					<in>0</in>
					<out>17496</out>
					<start>51156</start>
					<end>68652</end>
					<masterclipid>MVI_1003 1</masterclipid>
					<logginginfo>
						<scene/>
						<shottake/>
						<lognote/>
						<good>FALSE</good>
					</logginginfo>
					<labels>
						<label2/>
					</labels>
					<comments>
						<mastercomment1/>
						<mastercomment2/>
						<mastercomment3/>
						<mastercomment4/>
					</comments>
					<file id="MVI_1003 2"/>
					<filter>
						<effect>
							<name>Audio Levels</name>
							<effectid>audiolevels</effectid>
							<effectcategory>audiolevels</effectcategory>
							<effecttype>audiolevels</effecttype>
							<mediatype>audio</mediatype>
							<parameter>
								<name>Level</name>
								<parameterid>level</parameterid>
								<valuemin>0</valuemin>
								<valuemax>3.98109</valuemax>
								<value>1</value>
							</parameter>
						</effect>
					</filter>
					<filter>
						<effect>
							<name>Audio Pan</name>
							<effectid>audiopan</effectid>
							<effectcategory>audiopan</effectcategory>
							<effecttype>audiopan</effecttype>
							<mediatype>audio</mediatype>
							<parameter>
								<name>Pan</name>
								<parameterid>pan</parameterid>
								<valuemin>-1</valuemin>
								<valuemax>1</valuemax>
								<value>-1</value>
							</parameter>
						</effect>
					</filter>
					<sourcetrack>
						<mediatype>audio</mediatype>
						<trackindex>1</trackindex>
					</sourcetrack>
					<link>
						<linkclipref>MVI_1003 </linkclipref>
						<mediatype>video</mediatype>
						<trackindex>1</trackindex>
						<clipindex>5</clipindex>
					</link>
					<link>
						<linkclipref>MVI_1003 3</linkclipref>
						<mediatype>audio</mediatype>
						<trackindex>1</trackindex>
						<clipindex>5</clipindex>
						<groupindex>1</groupindex>
					</link>
					<link>
						<linkclipref>MVI_1003 4</linkclipref>
						<mediatype>audio</mediatype>
						<trackindex>2</trackindex>
						<clipindex>5</clipindex>
						<groupindex>1</groupindex>
					</link>
					<itemhistory>
						<uuid>AF99C90C-112E-4D8E-96AF-D13119DA318B</uuid>
					</itemhistory>
				</clipitem>
				<clipitem id="MVI_1004 3">
					<name>MVI_1004</name>
					<duration>857</duration>
					<rate>
						<ntsc>TRUE</ntsc>
						<timebase>24</timebase>
					</rate>
					<in>0</in>
					<out>857</out>
					<start>68652</start>
					<end>69509</end>
					<masterclipid>MVI_1004 1</masterclipid>
					<logginginfo>
						<scene/>
						<shottake/>
						<lognote/>
						<good>FALSE</good>
					</logginginfo>
					<labels>
						<label2/>
					</labels>
					<comments>
						<mastercomment1/>
						<mastercomment2/>
						<mastercomment3/>
						<mastercomment4/>
					</comments>
					<file id="MVI_1004 2"/>
					<filter>
						<effect>
							<name>Audio Levels</name>
							<effectid>audiolevels</effectid>
							<effectcategory>audiolevels</effectcategory>
							<effecttype>audiolevels</effecttype>
							<mediatype>audio</mediatype>
							<parameter>
								<name>Level</name>
								<parameterid>level</parameterid>
								<valuemin>0</valuemin>
								<valuemax>3.98109</valuemax>
								<value>1</value>
							</parameter>
						</effect>
					</filter>
					<filter>
						<effect>
							<name>Audio Pan</name>
							<effectid>audiopan</effectid>
							<effectcategory>audiopan</effectcategory>
							<effecttype>audiopan</effecttype>
							<mediatype>audio</mediatype>
							<parameter>
								<name>Pan</name>
								<parameterid>pan</parameterid>
								<valuemin>-1</valuemin>
								<valuemax>1</valuemax>
								<value>-1</value>
							</parameter>
						</effect>
					</filter>
					<sourcetrack>
						<mediatype>audio</mediatype>
						<trackindex>1</trackindex>
					</sourcetrack>
					<link>
						<linkclipref>MVI_1004 </linkclipref>
						<mediatype>video</mediatype>
						<trackindex>1</trackindex>
						<clipindex>6</clipindex>
					</link>
					<link>
						<linkclipref>MVI_1004 3</linkclipref>
						<mediatype>audio</mediatype>
						<trackindex>1</trackindex>
						<clipindex>6</clipindex>
						<groupindex>1</groupindex>
					</link>
					<link>
						<linkclipref>MVI_1004 4</linkclipref>
						<mediatype>audio</mediatype>
						<trackindex>2</trackindex>
						<clipindex>6</clipindex>
						<groupindex>1</groupindex>
					</link>
					<itemhistory>
						<uuid>86F2622A-2AAE-4A39-A334-DEDFB57CDCEB</uuid>
					</itemhistory>
				</clipitem>
				<enabled>TRUE</enabled>
				<locked>FALSE</locked>
				<outputchannelindex>1</outputchannelindex>
			</track>
			<track>
				<clipitem id="MVI_0999 4">
					<name>MVI_0999</name>
					<duration>13565</duration>
					<rate>
						<ntsc>TRUE</ntsc>
						<timebase>24</timebase>
					</rate>
					<in>0</in>
					<out>13565</out>
					<start>0</start>
					<end>13565</end>
					<masterclipid>MVI_0999 1</masterclipid>
					<logginginfo>
						<scene/>
						<shottake/>
						<lognote/>
						<good>FALSE</good>
					</logginginfo>
					<labels>
						<label2/>
					</labels>
					<comments>
						<mastercomment1/>
						<mastercomment2/>
						<mastercomment3/>
						<mastercomment4/>
					</comments>
					<file id="MVI_0999 2"/>
					<marker>
						<name>Making a tool</name>
						<comment>tools,&#13;sharing,&#13;open source,</comment>
						<color>
							<alpha>0</alpha>
							<red>255</red>
							<green>0</green>
							<blue>0</blue>
						</color>
						<in>3701</in>
						<out>3926</out>
					</marker>
					<marker>
						<name>everyday experience</name>
						<comment>why are artists beginning to work with code in a way that engages everday experience?,&#13;interactivity,&#13;humanism,&#13;people,&#13;participation,&#13;social,&#13;interface,</comment>
						<color>
							<alpha>0</alpha>
							<red>255</red>
							<green>0</green>
							<blue>0</blue>
						</color>
						<in>5554</in>
						<out>6821</out>
					</marker>
					<marker>
						<name>Eyewriter touchstone</name>
						<comment>Eyewriter,&#13;Zach Lieberman,&#13;people,&#13;humanism,&#13;accessibility,</comment>
						<color>
							<alpha>0</alpha>
							<red>255</red>
							<green>0</green>
							<blue>0</blue>
						</color>
						<in>6969</in>
						<out>7358</out>
					</marker>
					<marker>
						<name>Desire to get together</name>
						<comment>open source,&#13;tribe,&#13;community,&#13;</comment>
						<color>
							<alpha>0</alpha>
							<red>255</red>
							<green>0</green>
							<blue>0</blue>
						</color>
						<in>10162</in>
						<out>10836</out>
					</marker>
					<filter>
						<effect>
							<name>Audio Levels</name>
							<effectid>audiolevels</effectid>
							<effectcategory>audiolevels</effectcategory>
							<effecttype>audiolevels</effecttype>
							<mediatype>audio</mediatype>
							<parameter>
								<name>Level</name>
								<parameterid>level</parameterid>
								<valuemin>0</valuemin>
								<valuemax>3.98109</valuemax>
								<value>1</value>
							</parameter>
						</effect>
					</filter>
					<filter>
						<effect>
							<name>Audio Pan</name>
							<effectid>audiopan</effectid>
							<effectcategory>audiopan</effectcategory>
							<effecttype>audiopan</effecttype>
							<mediatype>audio</mediatype>
							<parameter>
								<name>Pan</name>
								<parameterid>pan</parameterid>
								<valuemin>-1</valuemin>
								<valuemax>1</valuemax>
								<value>1</value>
							</parameter>
						</effect>
					</filter>
					<sourcetrack>
						<mediatype>audio</mediatype>
						<trackindex>2</trackindex>
					</sourcetrack>
					<link>
						<linkclipref>MVI_0999 </linkclipref>
						<mediatype>video</mediatype>
						<trackindex>1</trackindex>
						<clipindex>1</clipindex>
					</link>
					<link>
						<linkclipref>MVI_0999 3</linkclipref>
						<mediatype>audio</mediatype>
						<trackindex>1</trackindex>
						<clipindex>1</clipindex>
						<groupindex>1</groupindex>
					</link>
					<link>
						<linkclipref>MVI_0999 4</linkclipref>
						<mediatype>audio</mediatype>
						<trackindex>2</trackindex>
						<clipindex>1</clipindex>
						<groupindex>1</groupindex>
					</link>
					<itemhistory>
						<uuid>98412384-A3C2-4E27-9E38-0A2B08754687</uuid>
					</itemhistory>
				</clipitem>
				<clipitem id="MVI_1000 4">
					<name>MVI_1000</name>
					<duration>16534</duration>
					<rate>
						<ntsc>TRUE</ntsc>
						<timebase>24</timebase>
					</rate>
					<in>0</in>
					<out>16534</out>
					<start>13565</start>
					<end>30099</end>
					<masterclipid>MVI_1000 1</masterclipid>
					<logginginfo>
						<scene/>
						<shottake/>
						<lognote/>
						<good>FALSE</good>
					</logginginfo>
					<labels>
						<label2/>
					</labels>
					<comments>
						<mastercomment1/>
						<mastercomment2/>
						<mastercomment3/>
						<mastercomment4/>
					</comments>
					<file id="MVI_1000 2"/>
					<marker>
						<name>Marker 2</name>
						<comment>Describe the difference between generative art (developing work from algorithms) and data visualization,&#13;creative process,&#13;generative,&#13;beginning,&#13;formalism,&#13;</comment>
						<color>
							<alpha>0</alpha>
							<red>255</red>
							<green>0</green>
							<blue>0</blue>
						</color>
						<in>4750</in>
						<out>5327</out>
					</marker>
					<marker>
						<name>Marker 3</name>
						<comment>Pattern,&#13;complexity,&#13;emergence,&#13;data,&#13;data visualization,&#13;</comment>
						<color>
							<alpha>0</alpha>
							<red>255</red>
							<green>0</green>
							<blue>0</blue>
						</color>
						<in>6276</in>
						<out>6829</out>
					</marker>
					<marker>
						<name>data visualization</name>
						<comment>data visualization,&#13;complexity,&#13;simplicity,&#13;communication,</comment>
						<color>
							<alpha>0</alpha>
							<red>255</red>
							<green>0</green>
							<blue>0</blue>
						</color>
						<in>9468</in>
						<out>9961</out>
					</marker>
					<marker>
						<name>Good at understanding complexity</name>
						<comment>complexity,&#13;cognition,&#13;reading,&#13;understanding,&#13;simplicity,&#13;link to John Maeda,&#13;link to Rachel Binx,</comment>
						<color>
							<alpha>0</alpha>
							<red>255</red>
							<green>0</green>
							<blue>0</blue>
						</color>
						<in>9987</in>
						<out>11018</out>
					</marker>
					<marker>
						<name/>
						<comment>presentation,&#13;art,&#13;story,&#13;understanding,&#13;ambiguity,</comment>
						<color>
							<alpha>0</alpha>
							<red>255</red>
							<green>0</green>
							<blue>0</blue>
						</color>
						<in>13714</in>
						<out>14943</out>
					</marker>
					<marker>
						<name>lives being documented through data</name>
						<comment>human life,&#13;quantified self,&#13;data,&#13;narrative,&#13;documentation,&#13;archiving,</comment>
						<color>
							<alpha>0</alpha>
							<red>255</red>
							<green>0</green>
							<blue>0</blue>
						</color>
						<in>15073</in>
						<out>15337</out>
					</marker>
					<filter>
						<effect>
							<name>Audio Levels</name>
							<effectid>audiolevels</effectid>
							<effectcategory>audiolevels</effectcategory>
							<effecttype>audiolevels</effecttype>
							<mediatype>audio</mediatype>
							<parameter>
								<name>Level</name>
								<parameterid>level</parameterid>
								<valuemin>0</valuemin>
								<valuemax>3.98109</valuemax>
								<value>1</value>
							</parameter>
						</effect>
					</filter>
					<filter>
						<effect>
							<name>Audio Pan</name>
							<effectid>audiopan</effectid>
							<effectcategory>audiopan</effectcategory>
							<effecttype>audiopan</effecttype>
							<mediatype>audio</mediatype>
							<parameter>
								<name>Pan</name>
								<parameterid>pan</parameterid>
								<valuemin>-1</valuemin>
								<valuemax>1</valuemax>
								<value>1</value>
							</parameter>
						</effect>
					</filter>
					<sourcetrack>
						<mediatype>audio</mediatype>
						<trackindex>2</trackindex>
					</sourcetrack>
					<link>
						<linkclipref>MVI_1000 </linkclipref>
						<mediatype>video</mediatype>
						<trackindex>1</trackindex>
						<clipindex>2</clipindex>
					</link>
					<link>
						<linkclipref>MVI_1000 3</linkclipref>
						<mediatype>audio</mediatype>
						<trackindex>1</trackindex>
						<clipindex>2</clipindex>
						<groupindex>1</groupindex>
					</link>
					<link>
						<linkclipref>MVI_1000 4</linkclipref>
						<mediatype>audio</mediatype>
						<trackindex>2</trackindex>
						<clipindex>2</clipindex>
						<groupindex>1</groupindex>
					</link>
					<itemhistory>
						<uuid>5EC5C694-059F-48D9-9B79-64095BC6EB39</uuid>
					</itemhistory>
				</clipitem>
				<clipitem id="MVI_1001 4">
					<name>MVI_1001</name>
					<duration>14200</duration>
					<rate>
						<ntsc>TRUE</ntsc>
						<timebase>24</timebase>
					</rate>
					<in>0</in>
					<out>14200</out>
					<start>30099</start>
					<end>44299</end>
					<masterclipid>MVI_1001 1</masterclipid>
					<logginginfo>
						<scene/>
						<shottake/>
						<lognote/>
						<good>FALSE</good>
					</logginginfo>
					<labels>
						<label2/>
					</labels>
					<comments>
						<mastercomment1/>
						<mastercomment2/>
						<mastercomment3/>
						<mastercomment4/>
					</comments>
					<file id="MVI_1001 2"/>
					<marker>
						<name>Marker 2</name>
						<comment>big data,&#13;facebook,&#13;privacy,&#13;security,&#13;</comment>
						<color>
							<alpha>0</alpha>
							<red>255</red>
							<green>0</green>
							<blue>0</blue>
						</color>
						<in>4449</in>
						<out>4736</out>
					</marker>
					<marker>
						<name>Marker 1</name>
						<comment>Data ownership,&#13;big data,&#13;privacy,&#13;security,&#13;facebook,</comment>
						<color>
							<alpha>0</alpha>
							<red>255</red>
							<green>0</green>
							<blue>0</blue>
						</color>
						<in>5056</in>
						<out>5782</out>
					</marker>
					<marker>
						<name>Marker 3</name>
						<comment>Data,&#13;location,&#13;GPS,&#13;Open Paths,&#13;drawing,&#13;</comment>
						<color>
							<alpha>0</alpha>
							<red>255</red>
							<green>0</green>
							<blue>0</blue>
						</color>
						<in>9375</in>
						<out>10929</out>
					</marker>
					<marker>
						<name>Marker 5</name>
						<comment>location,&#13;open paths,&#13;trace of your life,&#13;</comment>
						<color>
							<alpha>0</alpha>
							<red>255</red>
							<green>0</green>
							<blue>0</blue>
						</color>
						<in>11584</in>
						<out>12541</out>
					</marker>
					<marker>
						<name>Marker 4</name>
						<comment/>
						<color>
							<alpha>0</alpha>
							<red>255</red>
							<green>0</green>
							<blue>0</blue>
						</color>
						<in>12925</in>
						<out>14025</out>
					</marker>
					<filter>
						<effect>
							<name>Audio Levels</name>
							<effectid>audiolevels</effectid>
							<effectcategory>audiolevels</effectcategory>
							<effecttype>audiolevels</effecttype>
							<mediatype>audio</mediatype>
							<parameter>
								<name>Level</name>
								<parameterid>level</parameterid>
								<valuemin>0</valuemin>
								<valuemax>3.98109</valuemax>
								<value>1</value>
							</parameter>
						</effect>
					</filter>
					<filter>
						<effect>
							<name>Audio Pan</name>
							<effectid>audiopan</effectid>
							<effectcategory>audiopan</effectcategory>
							<effecttype>audiopan</effecttype>
							<mediatype>audio</mediatype>
							<parameter>
								<name>Pan</name>
								<parameterid>pan</parameterid>
								<valuemin>-1</valuemin>
								<valuemax>1</valuemax>
								<value>1</value>
							</parameter>
						</effect>
					</filter>
					<sourcetrack>
						<mediatype>audio</mediatype>
						<trackindex>2</trackindex>
					</sourcetrack>
					<link>
						<linkclipref>MVI_1001 </linkclipref>
						<mediatype>video</mediatype>
						<trackindex>1</trackindex>
						<clipindex>3</clipindex>
					</link>
					<link>
						<linkclipref>MVI_1001 3</linkclipref>
						<mediatype>audio</mediatype>
						<trackindex>1</trackindex>
						<clipindex>3</clipindex>
						<groupindex>1</groupindex>
					</link>
					<link>
						<linkclipref>MVI_1001 4</linkclipref>
						<mediatype>audio</mediatype>
						<trackindex>2</trackindex>
						<clipindex>3</clipindex>
						<groupindex>1</groupindex>
					</link>
					<itemhistory>
						<uuid>A127F607-A68D-4C96-8367-F858776328D1</uuid>
					</itemhistory>
				</clipitem>
				<clipitem id="MVI_1002 4">
					<name>MVI_1002</name>
					<duration>6857</duration>
					<rate>
						<ntsc>TRUE</ntsc>
						<timebase>24</timebase>
					</rate>
					<in>0</in>
					<out>6857</out>
					<start>44299</start>
					<end>51156</end>
					<masterclipid>MVI_1002 1</masterclipid>
					<logginginfo>
						<scene/>
						<shottake/>
						<lognote/>
						<good>FALSE</good>
					</logginginfo>
					<labels>
						<label2/>
					</labels>
					<comments>
						<mastercomment1/>
						<mastercomment2/>
						<mastercomment3/>
						<mastercomment4/>
					</comments>
					<file id="MVI_1002 2"/>
					<marker>
						<name>Marker 2</name>
						<comment>storage,&#13;archiving,&#13;memory,&#13;history,&#13;technological progress,&#13;</comment>
						<color>
							<alpha>0</alpha>
							<red>255</red>
							<green>0</green>
							<blue>0</blue>
						</color>
						<in>2159</in>
						<out>3243</out>
					</marker>
					<marker>
						<name>Marker 1</name>
						<comment/>
						<color>
							<alpha>0</alpha>
							<red>255</red>
							<green>0</green>
							<blue>0</blue>
						</color>
						<in>4351</in>
						<out>5160</out>
					</marker>
					<filter>
						<effect>
							<name>Audio Levels</name>
							<effectid>audiolevels</effectid>
							<effectcategory>audiolevels</effectcategory>
							<effecttype>audiolevels</effecttype>
							<mediatype>audio</mediatype>
							<parameter>
								<name>Level</name>
								<parameterid>level</parameterid>
								<valuemin>0</valuemin>
								<valuemax>3.98109</valuemax>
								<value>1</value>
							</parameter>
						</effect>
					</filter>
					<filter>
						<effect>
							<name>Audio Pan</name>
							<effectid>audiopan</effectid>
							<effectcategory>audiopan</effectcategory>
							<effecttype>audiopan</effecttype>
							<mediatype>audio</mediatype>
							<parameter>
								<name>Pan</name>
								<parameterid>pan</parameterid>
								<valuemin>-1</valuemin>
								<valuemax>1</valuemax>
								<value>1</value>
							</parameter>
						</effect>
					</filter>
					<sourcetrack>
						<mediatype>audio</mediatype>
						<trackindex>2</trackindex>
					</sourcetrack>
					<link>
						<linkclipref>MVI_1002 </linkclipref>
						<mediatype>video</mediatype>
						<trackindex>1</trackindex>
						<clipindex>4</clipindex>
					</link>
					<link>
						<linkclipref>MVI_1002 3</linkclipref>
						<mediatype>audio</mediatype>
						<trackindex>1</trackindex>
						<clipindex>4</clipindex>
						<groupindex>1</groupindex>
					</link>
					<link>
						<linkclipref>MVI_1002 4</linkclipref>
						<mediatype>audio</mediatype>
						<trackindex>2</trackindex>
						<clipindex>4</clipindex>
						<groupindex>1</groupindex>
					</link>
					<itemhistory>
						<uuid>84968067-79DA-418E-95E4-DDAA06FB4534</uuid>
					</itemhistory>
				</clipitem>
				<clipitem id="MVI_1003 4">
					<name>MVI_1003</name>
					<duration>17496</duration>
					<rate>
						<ntsc>TRUE</ntsc>
						<timebase>24</timebase>
					</rate>
					<in>0</in>
					<out>17496</out>
					<start>51156</start>
					<end>68652</end>
					<masterclipid>MVI_1003 1</masterclipid>
					<logginginfo>
						<scene/>
						<shottake/>
						<lognote/>
						<good>FALSE</good>
					</logginginfo>
					<labels>
						<label2/>
					</labels>
					<comments>
						<mastercomment1/>
						<mastercomment2/>
						<mastercomment3/>
						<mastercomment4/>
					</comments>
					<file id="MVI_1003 2"/>
					<filter>
						<effect>
							<name>Audio Levels</name>
							<effectid>audiolevels</effectid>
							<effectcategory>audiolevels</effectcategory>
							<effecttype>audiolevels</effecttype>
							<mediatype>audio</mediatype>
							<parameter>
								<name>Level</name>
								<parameterid>level</parameterid>
								<valuemin>0</valuemin>
								<valuemax>3.98109</valuemax>
								<value>1</value>
							</parameter>
						</effect>
					</filter>
					<filter>
						<effect>
							<name>Audio Pan</name>
							<effectid>audiopan</effectid>
							<effectcategory>audiopan</effectcategory>
							<effecttype>audiopan</effecttype>
							<mediatype>audio</mediatype>
							<parameter>
								<name>Pan</name>
								<parameterid>pan</parameterid>
								<valuemin>-1</valuemin>
								<valuemax>1</valuemax>
								<value>1</value>
							</parameter>
						</effect>
					</filter>
					<sourcetrack>
						<mediatype>audio</mediatype>
						<trackindex>2</trackindex>
					</sourcetrack>
					<link>
						<linkclipref>MVI_1003 </linkclipref>
						<mediatype>video</mediatype>
						<trackindex>1</trackindex>
						<clipindex>5</clipindex>
					</link>
					<link>
						<linkclipref>MVI_1003 3</linkclipref>
						<mediatype>audio</mediatype>
						<trackindex>1</trackindex>
						<clipindex>5</clipindex>
						<groupindex>1</groupindex>
					</link>
					<link>
						<linkclipref>MVI_1003 4</linkclipref>
						<mediatype>audio</mediatype>
						<trackindex>2</trackindex>
						<clipindex>5</clipindex>
						<groupindex>1</groupindex>
					</link>
					<itemhistory>
						<uuid>85EBE3A6-6E99-4219-A917-D0043752115D</uuid>
					</itemhistory>
				</clipitem>
				<clipitem id="MVI_1004 4">
					<name>MVI_1004</name>
					<duration>857</duration>
					<rate>
						<ntsc>TRUE</ntsc>
						<timebase>24</timebase>
					</rate>
					<in>0</in>
					<out>857</out>
					<start>68652</start>
					<end>69509</end>
					<masterclipid>MVI_1004 1</masterclipid>
					<logginginfo>
						<scene/>
						<shottake/>
						<lognote/>
						<good>FALSE</good>
					</logginginfo>
					<labels>
						<label2/>
					</labels>
					<comments>
						<mastercomment1/>
						<mastercomment2/>
						<mastercomment3/>
						<mastercomment4/>
					</comments>
					<file id="MVI_1004 2"/>
					<filter>
						<effect>
							<name>Audio Levels</name>
							<effectid>audiolevels</effectid>
							<effectcategory>audiolevels</effectcategory>
							<effecttype>audiolevels</effecttype>
							<mediatype>audio</mediatype>
							<parameter>
								<name>Level</name>
								<parameterid>level</parameterid>
								<valuemin>0</valuemin>
								<valuemax>3.98109</valuemax>
								<value>1</value>
							</parameter>
						</effect>
					</filter>
					<filter>
						<effect>
							<name>Audio Pan</name>
							<effectid>audiopan</effectid>
							<effectcategory>audiopan</effectcategory>
							<effecttype>audiopan</effecttype>
							<mediatype>audio</mediatype>
							<parameter>
								<name>Pan</name>
								<parameterid>pan</parameterid>
								<valuemin>-1</valuemin>
								<valuemax>1</valuemax>
								<value>1</value>
							</parameter>
						</effect>
					</filter>
					<sourcetrack>
						<mediatype>audio</mediatype>
						<trackindex>2</trackindex>
					</sourcetrack>
					<link>
						<linkclipref>MVI_1004 </linkclipref>
						<mediatype>video</mediatype>
						<trackindex>1</trackindex>
						<clipindex>6</clipindex>
					</link>
					<link>
						<linkclipref>MVI_1004 3</linkclipref>
						<mediatype>audio</mediatype>
						<trackindex>1</trackindex>
						<clipindex>6</clipindex>
						<groupindex>1</groupindex>
					</link>
					<link>
						<linkclipref>MVI_1004 4</linkclipref>
						<mediatype>audio</mediatype>
						<trackindex>2</trackindex>
						<clipindex>6</clipindex>
						<groupindex>1</groupindex>
					</link>
					<itemhistory>
						<uuid>0668C110-355B-44D4-BF29-783BB11B542D</uuid>
					</itemhistory>
				</clipitem>
				<enabled>TRUE</enabled>
				<locked>FALSE</locked>
				<outputchannelindex>2</outputchannelindex>
			</track>
			<track>
				<enabled>TRUE</enabled>
				<locked>FALSE</locked>
				<outputchannelindex>1</outputchannelindex>
			</track>
			<track>
				<enabled>TRUE</enabled>
				<locked>FALSE</locked>
				<outputchannelindex>2</outputchannelindex>
			</track>
			<filter>
				<effect>
					<name>Audio Levels</name>
					<effectid>audiolevels</effectid>
					<effectcategory>audiolevels</effectcategory>
					<effecttype>audiolevels</effecttype>
					<mediatype>audio</mediatype>
					<parameter>
						<name>Level</name>
						<parameterid>level</parameterid>
						<valuemin>0</valuemin>
						<valuemax>3.98109</valuemax>
						<value>1</value>
					</parameter>
				</effect>
			</filter>
		</audio>
	</media>
	<ismasterclip>FALSE</ismasterclip>
</sequence>
<sequence id="JTNimoy">
	<uuid>B81A7EBE-3E3F-4476-8A0A-E33DDBC7AC59</uuid>
	<updatebehavior>add</updatebehavior>
	<name>JTNimoy</name>
	<duration>48870</duration>
	<rate>
		<ntsc>TRUE</ntsc>
		<timebase>24</timebase>
	</rate>
	<timecode>
		<rate>
			<ntsc>TRUE</ntsc>
			<timebase>24</timebase>
		</rate>
		<string>00:00:00:00</string>
		<frame>0</frame>
		<source>source</source>
		<displayformat>NDF</displayformat>
	</timecode>
	<in>-1</in>
	<out>-1</out>
	<media>
		<video>
			<format>
				<samplecharacteristics>
					<width>1920</width>
					<height>1080</height>
					<anamorphic>FALSE</anamorphic>
					<pixelaspectratio>Square</pixelaspectratio>
					<fielddominance>none</fielddominance>
					<rate>
						<ntsc>TRUE</ntsc>
						<timebase>24</timebase>
					</rate>
					<colordepth>24</colordepth>
					<codec>
						<name>Apple ProRes 422</name>
						<appspecificdata>
							<appname>Final Cut Pro</appname>
							<appmanufacturer>Apple Inc.</appmanufacturer>
							<appversion>7.0</appversion>
							<data>
								<qtcodec>
									<codecname>Apple ProRes 422</codecname>
									<codectypename>Apple ProRes 422</codectypename>
									<codectypecode>apcn</codectypecode>
									<codecvendorcode>appl</codecvendorcode>
									<spatialquality>1024</spatialquality>
									<temporalquality>0</temporalquality>
									<keyframerate>0</keyframerate>
									<datarate>0</datarate>
								</qtcodec>
							</data>
						</appspecificdata>
					</codec>
				</samplecharacteristics>
				<appspecificdata>
					<appname>Final Cut Pro</appname>
					<appmanufacturer>Apple Inc.</appmanufacturer>
					<appversion>7.0</appversion>
					<data>
						<fcpimageprocessing>
							<useyuv>TRUE</useyuv>
							<usesuperwhite>FALSE</usesuperwhite>
							<rendermode>Float10BPP</rendermode>
						</fcpimageprocessing>
					</data>
				</appspecificdata>
			</format>
			<track>
				<clipitem id="josh00_original">
					<name>josh00_original</name>
					<duration>7340</duration>
					<rate>
						<ntsc>TRUE</ntsc>
						<timebase>24</timebase>
					</rate>
					<in>0</in>
					<out>7340</out>
					<start>0</start>
					<end>7340</end>
					<pixelaspectratio>Square</pixelaspectratio>
					<anamorphic>FALSE</anamorphic>
					<alphatype>none</alphatype>
					<masterclipid>josh00_original1</masterclipid>
					<logginginfo>
						<scene/>
						<shottake/>
						<lognote/>
						<good>FALSE</good>
					</logginginfo>
					<labels>
						<label2/>
					</labels>
					<comments>
						<mastercomment1/>
						<mastercomment2/>
						<mastercomment3/>
						<mastercomment4/>
					</comments>
					<file id="josh00_original2">
						<name>josh00_original.mov</name>
						<pathurl>file://localhost/Volumes/Nebula/MediaPackages/CloudsBeta_MediaPackages/Josh00/josh00_original.mov</pathurl>
						<rate>
							<timebase>24</timebase>
							<ntsc>TRUE</ntsc>
						</rate>
						<duration>7340</duration>
						<media>
							<video>
								<duration>7340</duration>
								<samplecharacteristics>
									<width>1920</width>
									<height>1080</height>
								</samplecharacteristics>
							</video>
							<audio>
								<samplecharacteristics>
									<samplerate>48000</samplerate>
									<depth>16</depth>
								</samplecharacteristics>
								<channelcount>2</channelcount>
							</audio>
						</media>
					</file>
					<marker>
						<name>Describe the Kinect</name>
						<comment>What is this camera rig, describe RGBD?, camera,kinect,future of cinema</comment>
						<color>
							<alpha>0</alpha>
							<red>255</red>
							<green>0</green>
							<blue>0</blue>
						</color>
						<in>1106</in>
						<out>1647</out>
					</marker>
					<marker>
						<name>increased the bandwidth</name>
						<comment>camera,kinect,future of cinema,visual effects,efficiency</comment>
						<color>
							<alpha>0</alpha>
							<red>255</red>
							<green>0</green>
							<blue>0</blue>
						</color>
						<in>1917</in>
						<out>2726</out>
					</marker>
					<marker>
						<name>performance1</name>
						<comment>what would you do with your pointcloud?, performance, meta, visualization, future of cinema, recursion, link:JTNimoy - performance2</comment>
						<color>
							<alpha>0</alpha>
							<red>255</red>
							<green>0</green>
							<blue>0</blue>
						</color>
						<in>2927</in>
						<out>3073</out>
					</marker>
					<marker>
						<name>performance2</name>
						<comment/>
						<color>
							<alpha>0</alpha>
							<red>255</red>
							<green>0</green>
							<blue>0</blue>
						</color>
						<in>3494</in>
						<out>3790</out>
					</marker>
					<marker>
						<name>performance3</name>
						<comment/>
						<color>
							<alpha>0</alpha>
							<red>255</red>
							<green>0</green>
							<blue>0</blue>
						</color>
						<in>4291</in>
						<out>4431</out>
					</marker>
					<marker>
						<name>evolution</name>
						<comment>beginnings,videogames, history</comment>
						<color>
							<alpha>0</alpha>
							<red>255</red>
							<green>0</green>
							<blue>0</blue>
						</color>
						<in>4560</in>
						<out>5351</out>
					</marker>
					<marker>
						<name>I addicted myself</name>
						<comment>beginnings,addiction,programming,nerd,hacker</comment>
						<color>
							<alpha>0</alpha>
							<red>255</red>
							<green>0</green>
							<blue>0</blue>
						</color>
						<in>6269</in>
						<out>6847</out>
					</marker>
					<sourcetrack>
						<mediatype>video</mediatype>
					</sourcetrack>
					<link>
						<linkclipref>josh00_original</linkclipref>
						<mediatype>video</mediatype>
						<trackindex>1</trackindex>
						<clipindex>1</clipindex>
					</link>
					<link>
						<linkclipref>josh00_original3</linkclipref>
						<mediatype>audio</mediatype>
						<trackindex>1</trackindex>
						<clipindex>1</clipindex>
						<groupindex>1</groupindex>
					</link>
					<link>
						<linkclipref>josh00_original4</linkclipref>
						<mediatype>audio</mediatype>
						<trackindex>2</trackindex>
						<clipindex>1</clipindex>
						<groupindex>1</groupindex>
					</link>
					<fielddominance>none</fielddominance>
					<itemhistory>
						<uuid>D5B24E6A-8D04-4C2B-AFCA-432305F4CC00</uuid>
						<uuid>6A8B357A-B2D4-4229-9740-214339A48F4A</uuid>
					</itemhistory>
				</clipitem>
				<clipitem id="MVI_9831_josh01 ">
					<name>MVI_9831_josh01</name>
					<duration>17280</duration>
					<rate>
						<ntsc>TRUE</ntsc>
						<timebase>24</timebase>
					</rate>
					<in>0</in>
					<out>1267</out>
					<start>7340</start>
					<end>8607</end>
					<pixelaspectratio>Square</pixelaspectratio>
					<enabled>TRUE</enabled>
					<anamorphic>FALSE</anamorphic>
					<alphatype>none</alphatype>
					<masterclipid>MVI_9831_josh01 1</masterclipid>
					<logginginfo>
						<scene/>
						<shottake/>
						<lognote/>
						<good>FALSE</good>
					</logginginfo>
					<labels>
						<label2/>
					</labels>
					<comments>
						<mastercomment1/>
						<mastercomment2/>
						<mastercomment3/>
						<mastercomment4/>
					</comments>
					<file id="MVI_9831_josh01 2">
						<name>MVI_9831_josh01.mov</name>
						<pathurl>file://localhost/Volumes/Nebula/MediaPackages/CloudsBeta_MediaPackages/Josh01/MVI_9831_josh01.mov</pathurl>
						<rate>
							<timebase>24</timebase>
							<ntsc>TRUE</ntsc>
						</rate>
						<duration>17280</duration>
						<media>
							<video>
								<duration>17280</duration>
								<samplecharacteristics>
									<width>1920</width>
									<height>1080</height>
								</samplecharacteristics>
							</video>
							<audio>
								<samplecharacteristics>
									<samplerate>48000</samplerate>
									<depth>16</depth>
								</samplecharacteristics>
								<channelcount>2</channelcount>
							</audio>
						</media>
					</file>
					<marker>
						<name>be a robot</name>
						<comment>singularity, cyborg, man versus machine,</comment>
						<color>
							<alpha>0</alpha>
							<red>255</red>
							<green>0</green>
							<blue>0</blue>
						</color>
						<in>1267</in>
						<out>1772</out>
					</marker>
					<marker>
						<name>Marker 2</name>
						<comment/>
						<color>
							<alpha>0</alpha>
							<red>255</red>
							<green>0</green>
							<blue>0</blue>
						</color>
						<in>2083</in>
						<out>2878</out>
					</marker>
					<marker>
						<name>Comes from the human mind</name>
						<comment>old media,evolution, technological progress,cognition,invention</comment>
						<color>
							<alpha>0</alpha>
							<red>255</red>
							<green>0</green>
							<blue>0</blue>
						</color>
						<in>3218</in>
						<out>3797</out>
					</marker>
					<marker>
						<name>Unplugging</name>
						<comment>dysfunction,users,error,power</comment>
						<color>
							<alpha>0</alpha>
							<red>255</red>
							<green>0</green>
							<blue>0</blue>
						</color>
						<in>4392</in>
						<out>5316</out>
					</marker>
					<marker>
						<name>data loss</name>
						<comment>archiving,data ownership,the cloud,transience</comment>
						<color>
							<alpha>0</alpha>
							<red>255</red>
							<green>0</green>
							<blue>0</blue>
						</color>
						<in>6074</in>
						<out>6423</out>
					</marker>
					<marker>
						<name>open source mensch</name>
						<comment>community,github,open source</comment>
						<color>
							<alpha>0</alpha>
							<red>255</red>
							<green>0</green>
							<blue>0</blue>
						</color>
						<in>7384</in>
						<out>8297</out>
					</marker>
					<marker>
						<name>thinking by doing</name>
						<comment>mind and hand,heuristics,branching, thinking by doing,thinking with code,process,creativity, link:Casey - Ideally it goes beyond my imagination</comment>
						<color>
							<alpha>0</alpha>
							<red>255</red>
							<green>0</green>
							<blue>0</blue>
						</color>
						<in>9438</in>
						<out>9968</out>
					</marker>
					<marker>
						<name>Cortex</name>
						<comment>sensation,perception,visual cortex,subliminal,visualization, aesthetic experience,videogames,&#13;Link:JTNimoy - cortex2,&#13;Link:Marius - reach your visual cortex</comment>
						<color>
							<alpha>0</alpha>
							<red>255</red>
							<green>0</green>
							<blue>0</blue>
						</color>
						<in>10809</in>
						<out>11275</out>
					</marker>
					<marker>
						<name>100 artists versus One</name>
						<comment>community,crowdsourcing,creativity,collaboration</comment>
						<color>
							<alpha>0</alpha>
							<red>255</red>
							<green>0</green>
							<blue>0</blue>
						</color>
						<in>13036</in>
						<out>13485</out>
					</marker>
					<marker>
						<name>one of us</name>
						<comment>community,crowdsourcing,creativity,collaboration, anonymous, identity, snarky</comment>
						<color>
							<alpha>0</alpha>
							<red>255</red>
							<green>0</green>
							<blue>0</blue>
						</color>
						<in>13549</in>
						<out>14428</out>
					</marker>
					<marker>
						<name>enough cooks</name>
						<comment> sharing, open source, collaboration, funny,</comment>
						<color>
							<alpha>0</alpha>
							<red>255</red>
							<green>0</green>
							<blue>0</blue>
						</color>
						<in>15845</in>
						<out>16190</out>
					</marker>
					<sourcetrack>
						<mediatype>video</mediatype>
					</sourcetrack>
					<link>
						<linkclipref>MVI_9831_josh01 </linkclipref>
						<mediatype>video</mediatype>
						<trackindex>1</trackindex>
						<clipindex>2</clipindex>
					</link>
					<link>
						<linkclipref>MVI_9831_josh01 3</linkclipref>
						<mediatype>audio</mediatype>
						<trackindex>1</trackindex>
						<clipindex>2</clipindex>
						<groupindex>1</groupindex>
					</link>
					<link>
						<linkclipref>MVI_9831_josh01 4</linkclipref>
						<mediatype>audio</mediatype>
						<trackindex>2</trackindex>
						<clipindex>2</clipindex>
						<groupindex>1</groupindex>
					</link>
					<fielddominance>none</fielddominance>
					<itemhistory>
						<uuid>9DD629A0-86A7-4787-AFC7-B2364BF92C1F</uuid>
						<uuid>B5414E31-41B4-4620-BC17-BF9D3BD79716</uuid>
					</itemhistory>
				</clipitem>
				<clipitem id="MVI_9831_josh01 5">
					<name>MVI_9831_josh01</name>
					<duration>17280</duration>
					<rate>
						<ntsc>TRUE</ntsc>
						<timebase>24</timebase>
					</rate>
					<in>1267</in>
					<out>1772</out>
					<start>8607</start>
					<end>9112</end>
					<pixelaspectratio>Square</pixelaspectratio>
					<enabled>TRUE</enabled>
					<anamorphic>FALSE</anamorphic>
					<alphatype>none</alphatype>
					<masterclipid>MVI_9831_josh01 1</masterclipid>
					<logginginfo>
						<scene/>
						<shottake/>
						<lognote/>
						<good>FALSE</good>
					</logginginfo>
					<labels>
						<label2/>
					</labels>
					<comments>
						<mastercomment1/>
						<mastercomment2/>
						<mastercomment3/>
						<mastercomment4/>
					</comments>
					<file id="MVI_9831_josh01 2"/>
					<marker>
						<name>be a robot</name>
						<comment>singularity, cyborg, man versus machine,</comment>
						<color>
							<alpha>0</alpha>
							<red>255</red>
							<green>0</green>
							<blue>0</blue>
						</color>
						<in>1267</in>
						<out>1772</out>
					</marker>
					<marker>
						<name>Marker 2</name>
						<comment/>
						<color>
							<alpha>0</alpha>
							<red>255</red>
							<green>0</green>
							<blue>0</blue>
						</color>
						<in>2083</in>
						<out>2878</out>
					</marker>
					<marker>
						<name>Comes from the human mind</name>
						<comment>old media,evolution, technological progress,cognition,invention</comment>
						<color>
							<alpha>0</alpha>
							<red>255</red>
							<green>0</green>
							<blue>0</blue>
						</color>
						<in>3218</in>
						<out>3797</out>
					</marker>
					<marker>
						<name>Unplugging</name>
						<comment>dysfunction,users,error,power</comment>
						<color>
							<alpha>0</alpha>
							<red>255</red>
							<green>0</green>
							<blue>0</blue>
						</color>
						<in>4392</in>
						<out>5316</out>
					</marker>
					<marker>
						<name>data loss</name>
						<comment>archiving,data ownership,the cloud,transience</comment>
						<color>
							<alpha>0</alpha>
							<red>255</red>
							<green>0</green>
							<blue>0</blue>
						</color>
						<in>6074</in>
						<out>6423</out>
					</marker>
					<marker>
						<name>open source mensch</name>
						<comment>community,github,open source</comment>
						<color>
							<alpha>0</alpha>
							<red>255</red>
							<green>0</green>
							<blue>0</blue>
						</color>
						<in>7384</in>
						<out>8297</out>
					</marker>
					<marker>
						<name>thinking by doing</name>
						<comment>mind and hand,heuristics,branching, thinking by doing,thinking with code,process,creativity, link:Casey - Ideally it goes beyond my imagination</comment>
						<color>
							<alpha>0</alpha>
							<red>255</red>
							<green>0</green>
							<blue>0</blue>
						</color>
						<in>9438</in>
						<out>9968</out>
					</marker>
					<marker>
						<name>Cortex</name>
						<comment>sensation,perception,visual cortex,subliminal,visualization, aesthetic experience,videogames,&#13;Link:JTNimoy - cortex2,&#13;Link:Marius - reach your visual cortex</comment>
						<color>
							<alpha>0</alpha>
							<red>255</red>
							<green>0</green>
							<blue>0</blue>
						</color>
						<in>10809</in>
						<out>11275</out>
					</marker>
					<marker>
						<name>100 artists versus One</name>
						<comment>community,crowdsourcing,creativity,collaboration</comment>
						<color>
							<alpha>0</alpha>
							<red>255</red>
							<green>0</green>
							<blue>0</blue>
						</color>
						<in>13036</in>
						<out>13485</out>
					</marker>
					<marker>
						<name>one of us</name>
						<comment>community,crowdsourcing,creativity,collaboration, anonymous, identity, snarky</comment>
						<color>
							<alpha>0</alpha>
							<red>255</red>
							<green>0</green>
							<blue>0</blue>
						</color>
						<in>13549</in>
						<out>14428</out>
					</marker>
					<marker>
						<name>enough cooks</name>
						<comment> sharing, open source, collaboration, funny,</comment>
						<color>
							<alpha>0</alpha>
							<red>255</red>
							<green>0</green>
							<blue>0</blue>
						</color>
						<in>15845</in>
						<out>16190</out>
					</marker>
					<sourcetrack>
						<mediatype>video</mediatype>
					</sourcetrack>
					<link>
						<linkclipref>MVI_9831_josh01 5</linkclipref>
						<mediatype>video</mediatype>
						<trackindex>1</trackindex>
						<clipindex>3</clipindex>
					</link>
					<link>
						<linkclipref>MVI_9831_josh01 6</linkclipref>
						<mediatype>audio</mediatype>
						<trackindex>1</trackindex>
						<clipindex>3</clipindex>
						<groupindex>1</groupindex>
					</link>
					<link>
						<linkclipref>MVI_9831_josh01 7</linkclipref>
						<mediatype>audio</mediatype>
						<trackindex>2</trackindex>
						<clipindex>3</clipindex>
						<groupindex>1</groupindex>
					</link>
					<fielddominance>none</fielddominance>
					<itemhistory>
						<uuid>F15FC491-04B6-4E89-9B9E-38F1FE251563</uuid>
						<uuid>B5414E31-41B4-4620-BC17-BF9D3BD79716</uuid>
					</itemhistory>
				</clipitem>
				<clipitem id="MVI_9831_josh01 8">
					<name>MVI_9831_josh01</name>
					<duration>17280</duration>
					<rate>
						<ntsc>TRUE</ntsc>
						<timebase>24</timebase>
					</rate>
					<in>1772</in>
					<out>17280</out>
					<start>9112</start>
					<end>24620</end>
					<pixelaspectratio>Square</pixelaspectratio>
					<enabled>TRUE</enabled>
					<anamorphic>FALSE</anamorphic>
					<alphatype>none</alphatype>
					<masterclipid>MVI_9831_josh01 1</masterclipid>
					<logginginfo>
						<scene/>
						<shottake/>
						<lognote/>
						<good>FALSE</good>
					</logginginfo>
					<labels>
						<label2/>
					</labels>
					<comments>
						<mastercomment1/>
						<mastercomment2/>
						<mastercomment3/>
						<mastercomment4/>
					</comments>
					<file id="MVI_9831_josh01 2"/>
					<marker>
						<name>be a robot</name>
						<comment>singularity, cyborg, man versus machine,</comment>
						<color>
							<alpha>0</alpha>
							<red>255</red>
							<green>0</green>
							<blue>0</blue>
						</color>
						<in>1267</in>
						<out>1772</out>
					</marker>
					<marker>
						<name>Marker 2</name>
						<comment/>
						<color>
							<alpha>0</alpha>
							<red>255</red>
							<green>0</green>
							<blue>0</blue>
						</color>
						<in>2083</in>
						<out>2878</out>
					</marker>
					<marker>
						<name>Comes from the human mind</name>
						<comment>old media,evolution, technological progress,cognition,invention</comment>
						<color>
							<alpha>0</alpha>
							<red>255</red>
							<green>0</green>
							<blue>0</blue>
						</color>
						<in>3218</in>
						<out>3797</out>
					</marker>
					<marker>
						<name>Unplugging</name>
						<comment>dysfunction,users,error,power</comment>
						<color>
							<alpha>0</alpha>
							<red>255</red>
							<green>0</green>
							<blue>0</blue>
						</color>
						<in>4392</in>
						<out>5316</out>
					</marker>
					<marker>
						<name>data loss</name>
						<comment>archiving,data ownership,the cloud,transience</comment>
						<color>
							<alpha>0</alpha>
							<red>255</red>
							<green>0</green>
							<blue>0</blue>
						</color>
						<in>6074</in>
						<out>6423</out>
					</marker>
					<marker>
						<name>open source mensch</name>
						<comment>community,github,open source</comment>
						<color>
							<alpha>0</alpha>
							<red>255</red>
							<green>0</green>
							<blue>0</blue>
						</color>
						<in>7384</in>
						<out>8297</out>
					</marker>
					<marker>
						<name>thinking by doing</name>
						<comment>mind and hand,heuristics,branching, thinking by doing,thinking with code,process,creativity, link:Casey - Ideally it goes beyond my imagination</comment>
						<color>
							<alpha>0</alpha>
							<red>255</red>
							<green>0</green>
							<blue>0</blue>
						</color>
						<in>9438</in>
						<out>9968</out>
					</marker>
					<marker>
						<name>Cortex</name>
						<comment>sensation,perception,visual cortex,subliminal,visualization, aesthetic experience,videogames,&#13;Link:JTNimoy - cortex2,&#13;Link:Marius - reach your visual cortex</comment>
						<color>
							<alpha>0</alpha>
							<red>255</red>
							<green>0</green>
							<blue>0</blue>
						</color>
						<in>10809</in>
						<out>11275</out>
					</marker>
					<marker>
						<name>100 artists versus One</name>
						<comment>community,crowdsourcing,creativity,collaboration</comment>
						<color>
							<alpha>0</alpha>
							<red>255</red>
							<green>0</green>
							<blue>0</blue>
						</color>
						<in>13036</in>
						<out>13485</out>
					</marker>
					<marker>
						<name>one of us</name>
						<comment>community,crowdsourcing,creativity,collaboration, anonymous, identity, snarky</comment>
						<color>
							<alpha>0</alpha>
							<red>255</red>
							<green>0</green>
							<blue>0</blue>
						</color>
						<in>13549</in>
						<out>14428</out>
					</marker>
					<marker>
						<name>enough cooks</name>
						<comment> sharing, open source, collaboration, funny,</comment>
						<color>
							<alpha>0</alpha>
							<red>255</red>
							<green>0</green>
							<blue>0</blue>
						</color>
						<in>15845</in>
						<out>16190</out>
					</marker>
					<sourcetrack>
						<mediatype>video</mediatype>
					</sourcetrack>
					<link>
						<linkclipref>MVI_9831_josh01 8</linkclipref>
						<mediatype>video</mediatype>
						<trackindex>1</trackindex>
						<clipindex>4</clipindex>
					</link>
					<link>
						<linkclipref>MVI_9831_josh01 9</linkclipref>
						<mediatype>audio</mediatype>
						<trackindex>1</trackindex>
						<clipindex>4</clipindex>
						<groupindex>1</groupindex>
					</link>
					<link>
						<linkclipref>MVI_9831_josh01 10</linkclipref>
						<mediatype>audio</mediatype>
						<trackindex>2</trackindex>
						<clipindex>4</clipindex>
						<groupindex>1</groupindex>
					</link>
					<fielddominance>none</fielddominance>
					<itemhistory>
						<uuid>BE5B66AD-5544-4F1F-8823-F3CD57E923A2</uuid>
						<uuid>B5414E31-41B4-4620-BC17-BF9D3BD79716</uuid>
					</itemhistory>
				</clipitem>
				<clipitem id="MVI_9833_josh02_small">
					<name>MVI_9833_josh02_small</name>
					<duration>14750</duration>
					<rate>
						<ntsc>TRUE</ntsc>
						<timebase>24</timebase>
					</rate>
					<in>0</in>
					<out>2642</out>
					<start>24620</start>
					<end>27262</end>
					<pixelaspectratio>Square</pixelaspectratio>
					<anamorphic>FALSE</anamorphic>
					<alphatype>none</alphatype>
					<masterclipid>MVI_9833_josh02_small1</masterclipid>
					<logginginfo>
						<scene/>
						<shottake/>
						<lognote/>
						<good>FALSE</good>
					</logginginfo>
					<labels>
						<label2/>
					</labels>
					<comments>
						<mastercomment1/>
						<mastercomment2/>
						<mastercomment3/>
						<mastercomment4/>
					</comments>
					<file id="MVI_9833_josh02_small2">
						<name>MVI_9833_josh02_small.mov</name>
						<pathurl>file://localhost/Volumes/Nebula/MediaPackages/CloudsBeta_MediaPackages/Josh02/MVI_9833_josh02_small.mov</pathurl>
						<rate>
							<timebase>24</timebase>
							<ntsc>TRUE</ntsc>
						</rate>
						<duration>14750</duration>
						<media>
							<video>
								<duration>14750</duration>
								<samplecharacteristics>
									<width>640</width>
									<height>360</height>
								</samplecharacteristics>
							</video>
							<audio>
								<samplecharacteristics>
									<samplerate>48000</samplerate>
									<depth>16</depth>
								</samplecharacteristics>
								<channelcount>2</channelcount>
							</audio>
						</media>
					</file>
					<marker>
						<name>originality</name>
						<comment>originality,homogeneity,gift,newness,new media old media</comment>
						<color>
							<alpha>0</alpha>
							<red>255</red>
							<green>0</green>
							<blue>0</blue>
						</color>
						<in>790</in>
						<out>1264</out>
					</marker>
					<marker>
						<name>geek culture</name>
						<comment>nerd,subcultures,social,tribe,social engagment, </comment>
						<color>
							<alpha>0</alpha>
							<red>255</red>
							<green>0</green>
							<blue>0</blue>
						</color>
						<in>1548</in>
						<out>2203</out>
					</marker>
					<marker>
						<name>relating</name>
						<comment>people,social,humanism,post digital, link:Maeda - about relationships</comment>
						<color>
							<alpha>0</alpha>
							<red>255</red>
							<green>0</green>
							<blue>0</blue>
						</color>
						<in>2642</in>
						<out>2848</out>
					</marker>
					<marker>
						<name>immersion</name>
						<comment>weird, funny, immersion,virtual,virtual reality, food</comment>
						<color>
							<alpha>0</alpha>
							<red>255</red>
							<green>0</green>
							<blue>0</blue>
						</color>
						<in>4419</in>
						<out>4568</out>
					</marker>
					<marker>
						<name>immersion2</name>
						<comment>immersion,virtual,virtual reality,future of cinema,technological progress</comment>
						<color>
							<alpha>0</alpha>
							<red>255</red>
							<green>0</green>
							<blue>0</blue>
						</color>
						<in>4661</in>
						<out>4901</out>
					</marker>
					<marker>
						<name>they will learn</name>
						<comment>Future of cinema</comment>
						<color>
							<alpha>0</alpha>
							<red>255</red>
							<green>0</green>
							<blue>0</blue>
						</color>
						<in>7611</in>
						<out>7965</out>
					</marker>
					<filter>
						<effect>
							<name>Basic Motion</name>
							<effectid>basic</effectid>
							<effectcategory>motion</effectcategory>
							<effecttype>motion</effecttype>
							<mediatype>video</mediatype>
							<parameter>
								<parameterid>scale</parameterid>
								<name>Scale</name>
								<value>300</value>
							</parameter>
						</effect>
					</filter>
					<sourcetrack>
						<mediatype>video</mediatype>
					</sourcetrack>
					<link>
						<linkclipref>MVI_9833_josh02_small</linkclipref>
						<mediatype>video</mediatype>
						<trackindex>1</trackindex>
						<clipindex>5</clipindex>
					</link>
					<link>
						<linkclipref>MVI_9833_josh02_small3</linkclipref>
						<mediatype>audio</mediatype>
						<trackindex>1</trackindex>
						<clipindex>5</clipindex>
						<groupindex>1</groupindex>
					</link>
					<link>
						<linkclipref>MVI_9833_josh02_small4</linkclipref>
						<mediatype>audio</mediatype>
						<trackindex>2</trackindex>
						<clipindex>5</clipindex>
						<groupindex>1</groupindex>
					</link>
					<fielddominance>none</fielddominance>
					<itemhistory>
						<uuid>BE22F9F3-231D-489C-BE57-8D1785CA6E4A</uuid>
						<uuid>9F6A9769-2541-477F-9948-B0DD4E4CB085</uuid>
					</itemhistory>
				</clipitem>
				<clipitem id="MVI_9833_josh02_small5">
					<name>MVI_9833_josh02_small</name>
					<duration>14750</duration>
					<rate>
						<ntsc>TRUE</ntsc>
						<timebase>24</timebase>
					</rate>
					<in>2642</in>
					<out>2848</out>
					<start>27262</start>
					<end>27468</end>
					<pixelaspectratio>Square</pixelaspectratio>
					<anamorphic>FALSE</anamorphic>
					<alphatype>none</alphatype>
					<masterclipid>MVI_9833_josh02_small1</masterclipid>
					<logginginfo>
						<scene/>
						<shottake/>
						<lognote/>
						<good>FALSE</good>
					</logginginfo>
					<labels>
						<label2/>
					</labels>
					<comments>
						<mastercomment1/>
						<mastercomment2/>
						<mastercomment3/>
						<mastercomment4/>
					</comments>
					<file id="MVI_9833_josh02_small2"/>
					<marker>
						<name>originality</name>
						<comment>originality,homogeneity,gift,newness,new media old media</comment>
						<color>
							<alpha>0</alpha>
							<red>255</red>
							<green>0</green>
							<blue>0</blue>
						</color>
						<in>790</in>
						<out>1264</out>
					</marker>
					<marker>
						<name>geek culture</name>
						<comment>nerd,subcultures,social,tribe,social engagment, </comment>
						<color>
							<alpha>0</alpha>
							<red>255</red>
							<green>0</green>
							<blue>0</blue>
						</color>
						<in>1548</in>
						<out>2203</out>
					</marker>
					<marker>
						<name>relating</name>
						<comment>people,social,humanism,post digital, link:Maeda - about relationships</comment>
						<color>
							<alpha>0</alpha>
							<red>255</red>
							<green>0</green>
							<blue>0</blue>
						</color>
						<in>2642</in>
						<out>2848</out>
					</marker>
					<marker>
						<name>immersion</name>
						<comment>weird, funny, immersion,virtual,virtual reality, food</comment>
						<color>
							<alpha>0</alpha>
							<red>255</red>
							<green>0</green>
							<blue>0</blue>
						</color>
						<in>4419</in>
						<out>4568</out>
					</marker>
					<marker>
						<name>immersion2</name>
						<comment>immersion,virtual,virtual reality,future of cinema,technological progress</comment>
						<color>
							<alpha>0</alpha>
							<red>255</red>
							<green>0</green>
							<blue>0</blue>
						</color>
						<in>4661</in>
						<out>4901</out>
					</marker>
					<marker>
						<name>they will learn</name>
						<comment>Future of cinema</comment>
						<color>
							<alpha>0</alpha>
							<red>255</red>
							<green>0</green>
							<blue>0</blue>
						</color>
						<in>7611</in>
						<out>7965</out>
					</marker>
					<filter>
						<effect>
							<name>Basic Motion</name>
							<effectid>basic</effectid>
							<effectcategory>motion</effectcategory>
							<effecttype>motion</effecttype>
							<mediatype>video</mediatype>
							<parameter>
								<parameterid>scale</parameterid>
								<name>Scale</name>
								<value>300</value>
							</parameter>
						</effect>
					</filter>
					<sourcetrack>
						<mediatype>video</mediatype>
					</sourcetrack>
					<link>
						<linkclipref>MVI_9833_josh02_small5</linkclipref>
						<mediatype>video</mediatype>
						<trackindex>1</trackindex>
						<clipindex>6</clipindex>
					</link>
					<link>
						<linkclipref>MVI_9833_josh02_small6</linkclipref>
						<mediatype>audio</mediatype>
						<trackindex>1</trackindex>
						<clipindex>6</clipindex>
						<groupindex>1</groupindex>
					</link>
					<link>
						<linkclipref>MVI_9833_josh02_small7</linkclipref>
						<mediatype>audio</mediatype>
						<trackindex>2</trackindex>
						<clipindex>6</clipindex>
						<groupindex>1</groupindex>
					</link>
					<fielddominance>none</fielddominance>
					<itemhistory>
						<uuid>0C06C0C1-237A-4C86-B7D2-D88CFE576904</uuid>
						<uuid>9F6A9769-2541-477F-9948-B0DD4E4CB085</uuid>
					</itemhistory>
				</clipitem>
				<clipitem id="MVI_9833_josh02_small8">
					<name>MVI_9833_josh02_small</name>
					<duration>14750</duration>
					<rate>
						<ntsc>TRUE</ntsc>
						<timebase>24</timebase>
					</rate>
					<in>2848</in>
					<out>14750</out>
					<start>27468</start>
					<end>39370</end>
					<pixelaspectratio>Square</pixelaspectratio>
					<anamorphic>FALSE</anamorphic>
					<alphatype>none</alphatype>
					<masterclipid>MVI_9833_josh02_small1</masterclipid>
					<logginginfo>
						<scene/>
						<shottake/>
						<lognote/>
						<good>FALSE</good>
					</logginginfo>
					<labels>
						<label2/>
					</labels>
					<comments>
						<mastercomment1/>
						<mastercomment2/>
						<mastercomment3/>
						<mastercomment4/>
					</comments>
					<file id="MVI_9833_josh02_small2"/>
					<marker>
						<name>originality</name>
						<comment>originality,homogeneity,gift,newness,new media old media</comment>
						<color>
							<alpha>0</alpha>
							<red>255</red>
							<green>0</green>
							<blue>0</blue>
						</color>
						<in>790</in>
						<out>1264</out>
					</marker>
					<marker>
						<name>geek culture</name>
						<comment>nerd,subcultures,social,tribe,social engagment, </comment>
						<color>
							<alpha>0</alpha>
							<red>255</red>
							<green>0</green>
							<blue>0</blue>
						</color>
						<in>1548</in>
						<out>2203</out>
					</marker>
					<marker>
						<name>relating</name>
						<comment>people,social,humanism,post digital, link:Maeda - about relationships</comment>
						<color>
							<alpha>0</alpha>
							<red>255</red>
							<green>0</green>
							<blue>0</blue>
						</color>
						<in>2642</in>
						<out>2848</out>
					</marker>
					<marker>
						<name>immersion</name>
						<comment>weird, funny, immersion,virtual,virtual reality, food</comment>
						<color>
							<alpha>0</alpha>
							<red>255</red>
							<green>0</green>
							<blue>0</blue>
						</color>
						<in>4419</in>
						<out>4568</out>
					</marker>
					<marker>
						<name>immersion2</name>
						<comment>immersion,virtual,virtual reality,future of cinema,technological progress</comment>
						<color>
							<alpha>0</alpha>
							<red>255</red>
							<green>0</green>
							<blue>0</blue>
						</color>
						<in>4661</in>
						<out>4901</out>
					</marker>
					<marker>
						<name>they will learn</name>
						<comment>Future of cinema</comment>
						<color>
							<alpha>0</alpha>
							<red>255</red>
							<green>0</green>
							<blue>0</blue>
						</color>
						<in>7611</in>
						<out>7965</out>
					</marker>
					<filter>
						<effect>
							<name>Basic Motion</name>
							<effectid>basic</effectid>
							<effectcategory>motion</effectcategory>
							<effecttype>motion</effecttype>
							<mediatype>video</mediatype>
							<parameter>
								<parameterid>scale</parameterid>
								<name>Scale</name>
								<value>300</value>
							</parameter>
						</effect>
					</filter>
					<sourcetrack>
						<mediatype>video</mediatype>
					</sourcetrack>
					<link>
						<linkclipref>MVI_9833_josh02_small8</linkclipref>
						<mediatype>video</mediatype>
						<trackindex>1</trackindex>
						<clipindex>7</clipindex>
					</link>
					<link>
						<linkclipref>MVI_9833_josh02_small9</linkclipref>
						<mediatype>audio</mediatype>
						<trackindex>1</trackindex>
						<clipindex>7</clipindex>
						<groupindex>1</groupindex>
					</link>
					<link>
						<linkclipref>MVI_9833_josh02_small10</linkclipref>
						<mediatype>audio</mediatype>
						<trackindex>2</trackindex>
						<clipindex>7</clipindex>
						<groupindex>1</groupindex>
					</link>
					<fielddominance>none</fielddominance>
					<itemhistory>
						<uuid>0DBF6E09-E186-4DF2-BA29-8BE8B0C80450</uuid>
						<uuid>9F6A9769-2541-477F-9948-B0DD4E4CB085</uuid>
					</itemhistory>
				</clipitem>
				<clipitem id="MVI_9834_josh03_small">
					<name>MVI_9834_josh03_small</name>
					<duration>6408</duration>
					<rate>
						<ntsc>TRUE</ntsc>
						<timebase>24</timebase>
					</rate>
					<in>0</in>
					<out>6408</out>
					<start>39370</start>
					<end>45778</end>
					<pixelaspectratio>Square</pixelaspectratio>
					<enabled>TRUE</enabled>
					<anamorphic>FALSE</anamorphic>
					<alphatype>none</alphatype>
					<masterclipid>MVI_9834_josh03_small1</masterclipid>
					<logginginfo>
						<scene/>
						<shottake/>
						<lognote/>
						<good>FALSE</good>
					</logginginfo>
					<labels>
						<label2/>
					</labels>
					<comments>
						<mastercomment1/>
						<mastercomment2/>
						<mastercomment3/>
						<mastercomment4/>
					</comments>
					<file id="MVI_9834_josh03_small2">
						<name>MVI_9834_josh03_small.mov</name>
						<pathurl>file://localhost/Volumes/Nebula/MediaPackages/CloudsBeta_MediaPackages/Josh03/MVI_9834_josh03_small.mov</pathurl>
						<rate>
							<timebase>24</timebase>
							<ntsc>TRUE</ntsc>
						</rate>
						<duration>6408</duration>
						<media>
							<video>
								<duration>6408</duration>
								<samplecharacteristics>
									<width>640</width>
									<height>360</height>
								</samplecharacteristics>
							</video>
							<audio>
								<samplecharacteristics>
									<samplerate>48000</samplerate>
									<depth>16</depth>
								</samplecharacteristics>
								<channelcount>2</channelcount>
							</audio>
						</media>
					</file>
					<marker>
						<name>icosahedron</name>
						<comment>dynamics,particles,geometry</comment>
						<color>
							<alpha>0</alpha>
							<red>255</red>
							<green>0</green>
							<blue>0</blue>
						</color>
						<in>3046</in>
						<out>3223</out>
					</marker>
					<marker>
						<name>Marker 2</name>
						<comment/>
						<color>
							<alpha>0</alpha>
							<red>255</red>
							<green>0</green>
							<blue>0</blue>
						</color>
						<in>5314</in>
						<out>5675</out>
					</marker>
					<filter>
						<effect>
							<name>Basic Motion</name>
							<effectid>basic</effectid>
							<effectcategory>motion</effectcategory>
							<effecttype>motion</effecttype>
							<mediatype>video</mediatype>
							<parameter>
								<parameterid>scale</parameterid>
								<name>Scale</name>
								<value>300</value>
							</parameter>
						</effect>
					</filter>
					<sourcetrack>
						<mediatype>video</mediatype>
					</sourcetrack>
					<link>
						<linkclipref>MVI_9834_josh03_small</linkclipref>
						<mediatype>video</mediatype>
						<trackindex>1</trackindex>
						<clipindex>8</clipindex>
					</link>
					<link>
						<linkclipref>MVI_9834_josh03_small3</linkclipref>
						<mediatype>audio</mediatype>
						<trackindex>1</trackindex>
						<clipindex>8</clipindex>
						<groupindex>1</groupindex>
					</link>
					<link>
						<linkclipref>MVI_9834_josh03_small4</linkclipref>
						<mediatype>audio</mediatype>
						<trackindex>2</trackindex>
						<clipindex>8</clipindex>
						<groupindex>1</groupindex>
					</link>
					<fielddominance>none</fielddominance>
					<itemhistory>
						<uuid>D98F0CA7-2AB5-4FE5-BD46-56E7CE7592C9</uuid>
					</itemhistory>
				</clipitem>
				<clipitem id="MVI_9835_josh04_small">
					<name>MVI_9835_josh04_small</name>
					<duration>3092</duration>
					<rate>
						<ntsc>TRUE</ntsc>
						<timebase>24</timebase>
					</rate>
					<in>0</in>
					<out>3092</out>
					<start>45778</start>
					<end>48870</end>
					<pixelaspectratio>Square</pixelaspectratio>
					<enabled>TRUE</enabled>
					<anamorphic>FALSE</anamorphic>
					<alphatype>none</alphatype>
					<masterclipid>MVI_9835_josh04_small1</masterclipid>
					<logginginfo>
						<scene/>
						<shottake/>
						<lognote/>
						<good>FALSE</good>
					</logginginfo>
					<labels>
						<label2/>
					</labels>
					<comments>
						<mastercomment1/>
						<mastercomment2/>
						<mastercomment3/>
						<mastercomment4/>
					</comments>
					<file id="MVI_9835_josh04_small2">
						<name>MVI_9835_josh04_small.mov</name>
						<pathurl>file://localhost/Volumes/Nebula/MediaPackages/CloudsBeta_MediaPackages/Josh04/MVI_9835_josh04_small.mov</pathurl>
						<rate>
							<timebase>24</timebase>
							<ntsc>TRUE</ntsc>
						</rate>
						<duration>3092</duration>
						<media>
							<video>
								<duration>3092</duration>
								<samplecharacteristics>
									<width>640</width>
									<height>360</height>
								</samplecharacteristics>
							</video>
							<audio>
								<samplecharacteristics>
									<samplerate>48000</samplerate>
									<depth>16</depth>
								</samplecharacteristics>
								<channelcount>2</channelcount>
							</audio>
						</media>
					</file>
					<marker>
						<name>corporate</name>
						<comment>commercialism,corporate,money,career</comment>
						<color>
							<alpha>0</alpha>
							<red>255</red>
							<green>0</green>
							<blue>0</blue>
						</color>
						<in>1618</in>
						<out>2449</out>
					</marker>
					<filter>
						<effect>
							<name>Basic Motion</name>
							<effectid>basic</effectid>
							<effectcategory>motion</effectcategory>
							<effecttype>motion</effecttype>
							<mediatype>video</mediatype>
							<parameter>
								<parameterid>scale</parameterid>
								<name>Scale</name>
								<value>300</value>
							</parameter>
						</effect>
					</filter>
					<sourcetrack>
						<mediatype>video</mediatype>
					</sourcetrack>
					<link>
						<linkclipref>MVI_9835_josh04_small</linkclipref>
						<mediatype>video</mediatype>
						<trackindex>1</trackindex>
						<clipindex>9</clipindex>
					</link>
					<link>
						<linkclipref>MVI_9835_josh04_small3</linkclipref>
						<mediatype>audio</mediatype>
						<trackindex>1</trackindex>
						<clipindex>9</clipindex>
						<groupindex>1</groupindex>
					</link>
					<link>
						<linkclipref>MVI_9835_josh04_small4</linkclipref>
						<mediatype>audio</mediatype>
						<trackindex>2</trackindex>
						<clipindex>9</clipindex>
						<groupindex>1</groupindex>
					</link>
					<fielddominance>none</fielddominance>
					<itemhistory>
						<uuid>696FCB18-4099-4135-80D8-CB74B85CAE03</uuid>
					</itemhistory>
				</clipitem>
				<enabled>TRUE</enabled>
				<locked>FALSE</locked>
			</track>
			<track>
				<clipitem id="MVI_9831_josh01 11">
					<name>MVI_9831_josh01</name>
					<duration>17280</duration>
					<rate>
						<ntsc>TRUE</ntsc>
						<timebase>24</timebase>
					</rate>
					<in>0</in>
					<out>1267</out>
					<start>7340</start>
					<end>8607</end>
					<pixelaspectratio>Square</pixelaspectratio>
					<enabled>TRUE</enabled>
					<anamorphic>FALSE</anamorphic>
					<alphatype>none</alphatype>
					<masterclipid>MVI_9831_josh01 1</masterclipid>
					<logginginfo>
						<scene/>
						<shottake/>
						<lognote/>
						<good>FALSE</good>
					</logginginfo>
					<labels>
						<label2/>
					</labels>
					<comments>
						<mastercomment1/>
						<mastercomment2/>
						<mastercomment3/>
						<mastercomment4/>
					</comments>
					<file id="MVI_9831_josh01 2"/>
					<marker>
						<name>Dream</name>
						<comment/>
						<color>
							<alpha>0</alpha>
							<red>255</red>
							<green>0</green>
							<blue>0</blue>
						</color>
						<in>2145</in>
						<out>2878</out>
					</marker>
					<marker>
						<name>Comes from the human mind</name>
						<comment>old media,evolution, technological progress,cognition,invention, history&#13;</comment>
						<color>
							<alpha>0</alpha>
							<red>255</red>
							<green>0</green>
							<blue>0</blue>
						</color>
						<in>3218</in>
						<out>3385</out>
					</marker>
					<marker>
						<name>cortex2</name>
						<comment/>
						<color>
							<alpha>0</alpha>
							<red>255</red>
							<green>0</green>
							<blue>0</blue>
						</color>
						<in>11329</in>
						<out>12137</out>
					</marker>
					<sourcetrack>
						<mediatype>video</mediatype>
					</sourcetrack>
					<fielddominance>none</fielddominance>
					<itemhistory>
						<uuid>53B4E34E-93CE-41AC-858F-7BEDF30881D8</uuid>
						<uuid>DDC2AA80-DF47-41CF-909D-AFA418D59C17</uuid>
					</itemhistory>
				</clipitem>
				<clipitem id="MVI_9831_josh01 12">
					<name>MVI_9831_josh01</name>
					<duration>17280</duration>
					<rate>
						<ntsc>TRUE</ntsc>
						<timebase>24</timebase>
					</rate>
					<in>1267</in>
					<out>1772</out>
					<start>8607</start>
					<end>9112</end>
					<pixelaspectratio>Square</pixelaspectratio>
					<enabled>TRUE</enabled>
					<anamorphic>FALSE</anamorphic>
					<alphatype>none</alphatype>
					<masterclipid>MVI_9831_josh01 1</masterclipid>
					<logginginfo>
						<scene/>
						<shottake/>
						<lognote/>
						<good>FALSE</good>
					</logginginfo>
					<labels>
						<label2/>
					</labels>
					<comments>
						<mastercomment1/>
						<mastercomment2/>
						<mastercomment3/>
						<mastercomment4/>
					</comments>
					<file id="MVI_9831_josh01 2"/>
					<marker>
						<name>Dream</name>
						<comment/>
						<color>
							<alpha>0</alpha>
							<red>255</red>
							<green>0</green>
							<blue>0</blue>
						</color>
						<in>2145</in>
						<out>2878</out>
					</marker>
					<marker>
						<name>Comes from the human mind</name>
						<comment>old media,evolution, technological progress,cognition,invention, history&#13;</comment>
						<color>
							<alpha>0</alpha>
							<red>255</red>
							<green>0</green>
							<blue>0</blue>
						</color>
						<in>3218</in>
						<out>3385</out>
					</marker>
					<marker>
						<name>cortex2</name>
						<comment/>
						<color>
							<alpha>0</alpha>
							<red>255</red>
							<green>0</green>
							<blue>0</blue>
						</color>
						<in>11329</in>
						<out>12137</out>
					</marker>
					<sourcetrack>
						<mediatype>video</mediatype>
					</sourcetrack>
					<fielddominance>none</fielddominance>
					<itemhistory>
						<uuid>533E8DF8-7A29-4DDE-B918-F95B73F4A148</uuid>
						<uuid>DDC2AA80-DF47-41CF-909D-AFA418D59C17</uuid>
					</itemhistory>
				</clipitem>
				<clipitem id="MVI_9831_josh01 13">
					<name>MVI_9831_josh01</name>
					<duration>17280</duration>
					<rate>
						<ntsc>TRUE</ntsc>
						<timebase>24</timebase>
					</rate>
					<in>1772</in>
					<out>17280</out>
					<start>9112</start>
					<end>24620</end>
					<pixelaspectratio>Square</pixelaspectratio>
					<enabled>TRUE</enabled>
					<anamorphic>FALSE</anamorphic>
					<alphatype>none</alphatype>
					<masterclipid>MVI_9831_josh01 1</masterclipid>
					<logginginfo>
						<scene/>
						<shottake/>
						<lognote/>
						<good>FALSE</good>
					</logginginfo>
					<labels>
						<label2/>
					</labels>
					<comments>
						<mastercomment1/>
						<mastercomment2/>
						<mastercomment3/>
						<mastercomment4/>
					</comments>
					<file id="MVI_9831_josh01 2"/>
					<marker>
						<name>Dream</name>
						<comment/>
						<color>
							<alpha>0</alpha>
							<red>255</red>
							<green>0</green>
							<blue>0</blue>
						</color>
						<in>2145</in>
						<out>2878</out>
					</marker>
					<marker>
						<name>Comes from the human mind</name>
						<comment>old media,evolution, technological progress,cognition,invention, history&#13;</comment>
						<color>
							<alpha>0</alpha>
							<red>255</red>
							<green>0</green>
							<blue>0</blue>
						</color>
						<in>3218</in>
						<out>3385</out>
					</marker>
					<marker>
						<name>cortex2</name>
						<comment/>
						<color>
							<alpha>0</alpha>
							<red>255</red>
							<green>0</green>
							<blue>0</blue>
						</color>
						<in>11329</in>
						<out>12137</out>
					</marker>
					<sourcetrack>
						<mediatype>video</mediatype>
					</sourcetrack>
					<fielddominance>none</fielddominance>
					<itemhistory>
						<uuid>FDA630C2-476F-45FB-AB28-22350F4180F0</uuid>
						<uuid>DDC2AA80-DF47-41CF-909D-AFA418D59C17</uuid>
					</itemhistory>
				</clipitem>
				<enabled>TRUE</enabled>
				<locked>FALSE</locked>
			</track>
			<track>
				<clipitem id="josh00_original5">
					<name>josh00_original</name>
					<duration>7340</duration>
					<rate>
						<ntsc>TRUE</ntsc>
						<timebase>24</timebase>
					</rate>
					<in>0</in>
					<out>7340</out>
					<start>0</start>
					<end>7340</end>
					<pixelaspectratio>Square</pixelaspectratio>
					<anamorphic>FALSE</anamorphic>
					<alphatype>none</alphatype>
					<masterclipid>josh00_original1</masterclipid>
					<logginginfo>
						<scene/>
						<shottake/>
						<lognote/>
						<good>FALSE</good>
					</logginginfo>
					<labels>
						<label2/>
					</labels>
					<comments>
						<mastercomment1/>
						<mastercomment2/>
						<mastercomment3/>
						<mastercomment4/>
					</comments>
					<file id="josh00_original2"/>
					<marker>
						<name>Pickle</name>
						<comment>beginnings,addiction,programming,nerd,hacker, weird, funny</comment>
						<color>
							<alpha>0</alpha>
							<red>255</red>
							<green>0</green>
							<blue>0</blue>
						</color>
						<in>6428</in>
						<out>6814</out>
					</marker>
					<sourcetrack>
						<mediatype>video</mediatype>
					</sourcetrack>
					<link>
						<linkclipref>josh00_original5</linkclipref>
						<mediatype>video</mediatype>
						<trackindex>3</trackindex>
						<clipindex>1</clipindex>
					</link>
					<link>
						<linkclipref>josh00_original6</linkclipref>
						<mediatype>audio</mediatype>
						<trackindex>5</trackindex>
						<clipindex>1</clipindex>
						<groupindex>1</groupindex>
					</link>
					<link>
						<linkclipref>josh00_original7</linkclipref>
						<mediatype>audio</mediatype>
						<trackindex>6</trackindex>
						<clipindex>1</clipindex>
						<groupindex>1</groupindex>
					</link>
					<fielddominance>none</fielddominance>
					<itemhistory>
						<uuid>92F71AE3-2756-4391-B846-6FC72B99243A</uuid>
						<uuid>6A8B357A-B2D4-4229-9740-214339A48F4A</uuid>
					</itemhistory>
				</clipitem>
				<enabled>TRUE</enabled>
				<locked>FALSE</locked>
			</track>
		</video>
		<audio>
			<format>
				<samplecharacteristics>
					<depth>16</depth>
					<samplerate>48000</samplerate>
				</samplecharacteristics>
			</format>
			<outputs>
				<group>
					<index>1</index>
					<numchannels>2</numchannels>
					<downmix>0</downmix>
					<channel>
						<index>1</index>
					</channel>
					<channel>
						<index>2</index>
					</channel>
				</group>
			</outputs>
			<in>-1</in>
			<out>-1</out>
			<track>
				<clipitem id="josh00_original3">
					<name>josh00_original</name>
					<duration>7340</duration>
					<rate>
						<ntsc>TRUE</ntsc>
						<timebase>24</timebase>
					</rate>
					<in>0</in>
					<out>7340</out>
					<start>0</start>
					<end>7340</end>
					<masterclipid>josh00_original1</masterclipid>
					<logginginfo>
						<scene/>
						<shottake/>
						<lognote/>
						<good>FALSE</good>
					</logginginfo>
					<labels>
						<label2/>
					</labels>
					<comments>
						<mastercomment1/>
						<mastercomment2/>
						<mastercomment3/>
						<mastercomment4/>
					</comments>
					<file id="josh00_original2"/>
					<marker>
						<name>Describe the Kinect</name>
						<comment>What is this camera rig, describe RGBD?, camera,kinect,future of cinema</comment>
						<color>
							<alpha>0</alpha>
							<red>255</red>
							<green>0</green>
							<blue>0</blue>
						</color>
						<in>1106</in>
						<out>1647</out>
					</marker>
					<marker>
						<name>increased the bandwidth</name>
						<comment>camera,kinect,future of cinema,visual effects,efficiency</comment>
						<color>
							<alpha>0</alpha>
							<red>255</red>
							<green>0</green>
							<blue>0</blue>
						</color>
						<in>1917</in>
						<out>2726</out>
					</marker>
					<marker>
						<name>performance1</name>
						<comment>what would you do with your pointcloud?, performance, meta, visualization, future of cinema, recursion, link:JTNimoy - performance2</comment>
						<color>
							<alpha>0</alpha>
							<red>255</red>
							<green>0</green>
							<blue>0</blue>
						</color>
						<in>2927</in>
						<out>3073</out>
					</marker>
					<marker>
						<name>performance2</name>
						<comment/>
						<color>
							<alpha>0</alpha>
							<red>255</red>
							<green>0</green>
							<blue>0</blue>
						</color>
						<in>3494</in>
						<out>3790</out>
					</marker>
					<marker>
						<name>performance3</name>
						<comment/>
						<color>
							<alpha>0</alpha>
							<red>255</red>
							<green>0</green>
							<blue>0</blue>
						</color>
						<in>4291</in>
						<out>4431</out>
					</marker>
					<marker>
						<name>evolution</name>
						<comment>beginnings,videogames, history</comment>
						<color>
							<alpha>0</alpha>
							<red>255</red>
							<green>0</green>
							<blue>0</blue>
						</color>
						<in>4560</in>
						<out>5351</out>
					</marker>
					<marker>
						<name>I addicted myself</name>
						<comment>beginnings,addiction,programming,nerd,hacker</comment>
						<color>
							<alpha>0</alpha>
							<red>255</red>
							<green>0</green>
							<blue>0</blue>
						</color>
						<in>6269</in>
						<out>6847</out>
					</marker>
					<filter>
						<effect>
							<name>Audio Levels</name>
							<effectid>audiolevels</effectid>
							<effectcategory>audiolevels</effectcategory>
							<effecttype>audiolevels</effecttype>
							<mediatype>audio</mediatype>
							<parameter>
								<name>Level</name>
								<parameterid>level</parameterid>
								<valuemin>0</valuemin>
								<valuemax>3.98109</valuemax>
								<value>1</value>
							</parameter>
						</effect>
					</filter>
					<filter>
						<effect>
							<name>Audio Pan</name>
							<effectid>audiopan</effectid>
							<effectcategory>audiopan</effectcategory>
							<effecttype>audiopan</effecttype>
							<mediatype>audio</mediatype>
							<parameter>
								<name>Pan</name>
								<parameterid>pan</parameterid>
								<valuemin>-1</valuemin>
								<valuemax>1</valuemax>
								<value>-1</value>
							</parameter>
						</effect>
					</filter>
					<sourcetrack>
						<mediatype>audio</mediatype>
						<trackindex>1</trackindex>
					</sourcetrack>
					<link>
						<linkclipref>josh00_original</linkclipref>
						<mediatype>video</mediatype>
						<trackindex>1</trackindex>
						<clipindex>1</clipindex>
					</link>
					<link>
						<linkclipref>josh00_original3</linkclipref>
						<mediatype>audio</mediatype>
						<trackindex>1</trackindex>
						<clipindex>1</clipindex>
						<groupindex>1</groupindex>
					</link>
					<link>
						<linkclipref>josh00_original4</linkclipref>
						<mediatype>audio</mediatype>
						<trackindex>2</trackindex>
						<clipindex>1</clipindex>
						<groupindex>1</groupindex>
					</link>
					<itemhistory>
						<uuid>F31828FC-F27D-4535-BD97-C2B44C1C6CA4</uuid>
						<uuid>3CA4820F-4F39-4DD8-AEF6-7225C7482219</uuid>
					</itemhistory>
				</clipitem>
				<clipitem id="MVI_9831_josh01 3">
					<name>MVI_9831_josh01</name>
					<duration>17280</duration>
					<rate>
						<ntsc>TRUE</ntsc>
						<timebase>24</timebase>
					</rate>
					<in>0</in>
					<out>1267</out>
					<start>7340</start>
					<end>8607</end>
					<masterclipid>MVI_9831_josh01 1</masterclipid>
					<logginginfo>
						<scene/>
						<shottake/>
						<lognote/>
						<good>FALSE</good>
					</logginginfo>
					<labels>
						<label2/>
					</labels>
					<comments>
						<mastercomment1/>
						<mastercomment2/>
						<mastercomment3/>
						<mastercomment4/>
					</comments>
					<file id="MVI_9831_josh01 2"/>
					<marker>
						<name>be a robot</name>
						<comment>singularity, cyborg, man versus machine,</comment>
						<color>
							<alpha>0</alpha>
							<red>255</red>
							<green>0</green>
							<blue>0</blue>
						</color>
						<in>1267</in>
						<out>1772</out>
					</marker>
					<marker>
						<name>Marker 2</name>
						<comment/>
						<color>
							<alpha>0</alpha>
							<red>255</red>
							<green>0</green>
							<blue>0</blue>
						</color>
						<in>2083</in>
						<out>2878</out>
					</marker>
					<marker>
						<name>Comes from the human mind</name>
						<comment>old media,evolution, technological progress,cognition,invention</comment>
						<color>
							<alpha>0</alpha>
							<red>255</red>
							<green>0</green>
							<blue>0</blue>
						</color>
						<in>3218</in>
						<out>3797</out>
					</marker>
					<marker>
						<name>Unplugging</name>
						<comment>dysfunction,users,error,power</comment>
						<color>
							<alpha>0</alpha>
							<red>255</red>
							<green>0</green>
							<blue>0</blue>
						</color>
						<in>4392</in>
						<out>5316</out>
					</marker>
					<marker>
						<name>data loss</name>
						<comment>archiving,data ownership,the cloud,transience</comment>
						<color>
							<alpha>0</alpha>
							<red>255</red>
							<green>0</green>
							<blue>0</blue>
						</color>
						<in>6074</in>
						<out>6423</out>
					</marker>
					<marker>
						<name>open source mensch</name>
						<comment>community,github,open source</comment>
						<color>
							<alpha>0</alpha>
							<red>255</red>
							<green>0</green>
							<blue>0</blue>
						</color>
						<in>7384</in>
						<out>8297</out>
					</marker>
					<marker>
						<name>thinking by doing</name>
						<comment>mind and hand,heuristics,branching, thinking by doing,thinking with code,process,creativity, link:Casey - Ideally it goes beyond my imagination</comment>
						<color>
							<alpha>0</alpha>
							<red>255</red>
							<green>0</green>
							<blue>0</blue>
						</color>
						<in>9438</in>
						<out>9968</out>
					</marker>
					<marker>
						<name>Cortex</name>
						<comment>sensation,perception,visual cortex,subliminal,visualization, aesthetic experience,videogames,&#13;Link:JTNimoy - cortex2,&#13;Link:Marius - reach your visual cortex</comment>
						<color>
							<alpha>0</alpha>
							<red>255</red>
							<green>0</green>
							<blue>0</blue>
						</color>
						<in>10809</in>
						<out>11275</out>
					</marker>
					<marker>
						<name>100 artists versus One</name>
						<comment>community,crowdsourcing,creativity,collaboration</comment>
						<color>
							<alpha>0</alpha>
							<red>255</red>
							<green>0</green>
							<blue>0</blue>
						</color>
						<in>13036</in>
						<out>13485</out>
					</marker>
					<marker>
						<name>one of us</name>
						<comment>community,crowdsourcing,creativity,collaboration, anonymous, identity, snarky</comment>
						<color>
							<alpha>0</alpha>
							<red>255</red>
							<green>0</green>
							<blue>0</blue>
						</color>
						<in>13549</in>
						<out>14428</out>
					</marker>
					<marker>
						<name>enough cooks</name>
						<comment> sharing, open source, collaboration, funny,</comment>
						<color>
							<alpha>0</alpha>
							<red>255</red>
							<green>0</green>
							<blue>0</blue>
						</color>
						<in>15845</in>
						<out>16190</out>
					</marker>
					<filter>
						<effect>
							<name>Audio Levels</name>
							<effectid>audiolevels</effectid>
							<effectcategory>audiolevels</effectcategory>
							<effecttype>audiolevels</effecttype>
							<mediatype>audio</mediatype>
							<parameter>
								<name>Level</name>
								<parameterid>level</parameterid>
								<valuemin>0</valuemin>
								<valuemax>3.98109</valuemax>
								<value>1</value>
							</parameter>
						</effect>
					</filter>
					<filter>
						<effect>
							<name>Audio Pan</name>
							<effectid>audiopan</effectid>
							<effectcategory>audiopan</effectcategory>
							<effecttype>audiopan</effecttype>
							<mediatype>audio</mediatype>
							<parameter>
								<name>Pan</name>
								<parameterid>pan</parameterid>
								<valuemin>-1</valuemin>
								<valuemax>1</valuemax>
								<value>-1</value>
							</parameter>
						</effect>
					</filter>
					<sourcetrack>
						<mediatype>audio</mediatype>
						<trackindex>1</trackindex>
					</sourcetrack>
					<link>
						<linkclipref>MVI_9831_josh01 </linkclipref>
						<mediatype>video</mediatype>
						<trackindex>1</trackindex>
						<clipindex>2</clipindex>
					</link>
					<link>
						<linkclipref>MVI_9831_josh01 3</linkclipref>
						<mediatype>audio</mediatype>
						<trackindex>1</trackindex>
						<clipindex>2</clipindex>
						<groupindex>1</groupindex>
					</link>
					<link>
						<linkclipref>MVI_9831_josh01 4</linkclipref>
						<mediatype>audio</mediatype>
						<trackindex>2</trackindex>
						<clipindex>2</clipindex>
						<groupindex>1</groupindex>
					</link>
					<itemhistory>
						<uuid>1C88F259-AFDA-41F7-ACF4-303A02A98A90</uuid>
						<uuid>C93CFE73-53B7-47FA-B057-0867DA466010</uuid>
					</itemhistory>
				</clipitem>
				<clipitem id="MVI_9831_josh01 6">
					<name>MVI_9831_josh01</name>
					<duration>17280</duration>
					<rate>
						<ntsc>TRUE</ntsc>
						<timebase>24</timebase>
					</rate>
					<in>1267</in>
					<out>1772</out>
					<start>8607</start>
					<end>9112</end>
					<masterclipid>MVI_9831_josh01 1</masterclipid>
					<logginginfo>
						<scene/>
						<shottake/>
						<lognote/>
						<good>FALSE</good>
					</logginginfo>
					<labels>
						<label2/>
					</labels>
					<comments>
						<mastercomment1/>
						<mastercomment2/>
						<mastercomment3/>
						<mastercomment4/>
					</comments>
					<file id="MVI_9831_josh01 2"/>
					<marker>
						<name>be a robot</name>
						<comment>singularity, cyborg, man versus machine,</comment>
						<color>
							<alpha>0</alpha>
							<red>255</red>
							<green>0</green>
							<blue>0</blue>
						</color>
						<in>1267</in>
						<out>1772</out>
					</marker>
					<marker>
						<name>Marker 2</name>
						<comment/>
						<color>
							<alpha>0</alpha>
							<red>255</red>
							<green>0</green>
							<blue>0</blue>
						</color>
						<in>2083</in>
						<out>2878</out>
					</marker>
					<marker>
						<name>Comes from the human mind</name>
						<comment>old media,evolution, technological progress,cognition,invention</comment>
						<color>
							<alpha>0</alpha>
							<red>255</red>
							<green>0</green>
							<blue>0</blue>
						</color>
						<in>3218</in>
						<out>3797</out>
					</marker>
					<marker>
						<name>Unplugging</name>
						<comment>dysfunction,users,error,power</comment>
						<color>
							<alpha>0</alpha>
							<red>255</red>
							<green>0</green>
							<blue>0</blue>
						</color>
						<in>4392</in>
						<out>5316</out>
					</marker>
					<marker>
						<name>data loss</name>
						<comment>archiving,data ownership,the cloud,transience</comment>
						<color>
							<alpha>0</alpha>
							<red>255</red>
							<green>0</green>
							<blue>0</blue>
						</color>
						<in>6074</in>
						<out>6423</out>
					</marker>
					<marker>
						<name>open source mensch</name>
						<comment>community,github,open source</comment>
						<color>
							<alpha>0</alpha>
							<red>255</red>
							<green>0</green>
							<blue>0</blue>
						</color>
						<in>7384</in>
						<out>8297</out>
					</marker>
					<marker>
						<name>thinking by doing</name>
						<comment>mind and hand,heuristics,branching, thinking by doing,thinking with code,process,creativity, link:Casey - Ideally it goes beyond my imagination</comment>
						<color>
							<alpha>0</alpha>
							<red>255</red>
							<green>0</green>
							<blue>0</blue>
						</color>
						<in>9438</in>
						<out>9968</out>
					</marker>
					<marker>
						<name>Cortex</name>
						<comment>sensation,perception,visual cortex,subliminal,visualization, aesthetic experience,videogames,&#13;Link:JTNimoy - cortex2,&#13;Link:Marius - reach your visual cortex</comment>
						<color>
							<alpha>0</alpha>
							<red>255</red>
							<green>0</green>
							<blue>0</blue>
						</color>
						<in>10809</in>
						<out>11275</out>
					</marker>
					<marker>
						<name>100 artists versus One</name>
						<comment>community,crowdsourcing,creativity,collaboration</comment>
						<color>
							<alpha>0</alpha>
							<red>255</red>
							<green>0</green>
							<blue>0</blue>
						</color>
						<in>13036</in>
						<out>13485</out>
					</marker>
					<marker>
						<name>one of us</name>
						<comment>community,crowdsourcing,creativity,collaboration, anonymous, identity, snarky</comment>
						<color>
							<alpha>0</alpha>
							<red>255</red>
							<green>0</green>
							<blue>0</blue>
						</color>
						<in>13549</in>
						<out>14428</out>
					</marker>
					<marker>
						<name>enough cooks</name>
						<comment> sharing, open source, collaboration, funny,</comment>
						<color>
							<alpha>0</alpha>
							<red>255</red>
							<green>0</green>
							<blue>0</blue>
						</color>
						<in>15845</in>
						<out>16190</out>
					</marker>
					<filter>
						<effect>
							<name>Audio Levels</name>
							<effectid>audiolevels</effectid>
							<effectcategory>audiolevels</effectcategory>
							<effecttype>audiolevels</effecttype>
							<mediatype>audio</mediatype>
							<parameter>
								<name>Level</name>
								<parameterid>level</parameterid>
								<valuemin>0</valuemin>
								<valuemax>3.98109</valuemax>
								<value>1</value>
							</parameter>
						</effect>
					</filter>
					<filter>
						<effect>
							<name>Audio Pan</name>
							<effectid>audiopan</effectid>
							<effectcategory>audiopan</effectcategory>
							<effecttype>audiopan</effecttype>
							<mediatype>audio</mediatype>
							<parameter>
								<name>Pan</name>
								<parameterid>pan</parameterid>
								<valuemin>-1</valuemin>
								<valuemax>1</valuemax>
								<value>-1</value>
							</parameter>
						</effect>
					</filter>
					<sourcetrack>
						<mediatype>audio</mediatype>
						<trackindex>1</trackindex>
					</sourcetrack>
					<link>
						<linkclipref>MVI_9831_josh01 5</linkclipref>
						<mediatype>video</mediatype>
						<trackindex>1</trackindex>
						<clipindex>3</clipindex>
					</link>
					<link>
						<linkclipref>MVI_9831_josh01 6</linkclipref>
						<mediatype>audio</mediatype>
						<trackindex>1</trackindex>
						<clipindex>3</clipindex>
						<groupindex>1</groupindex>
					</link>
					<link>
						<linkclipref>MVI_9831_josh01 7</linkclipref>
						<mediatype>audio</mediatype>
						<trackindex>2</trackindex>
						<clipindex>3</clipindex>
						<groupindex>1</groupindex>
					</link>
					<itemhistory>
						<uuid>FC4F2DAB-C18F-45AC-A34A-E7E5A7863A5B</uuid>
						<uuid>C93CFE73-53B7-47FA-B057-0867DA466010</uuid>
					</itemhistory>
				</clipitem>
				<clipitem id="MVI_9831_josh01 9">
					<name>MVI_9831_josh01</name>
					<duration>17280</duration>
					<rate>
						<ntsc>TRUE</ntsc>
						<timebase>24</timebase>
					</rate>
					<in>1772</in>
					<out>17280</out>
					<start>9112</start>
					<end>24620</end>
					<masterclipid>MVI_9831_josh01 1</masterclipid>
					<logginginfo>
						<scene/>
						<shottake/>
						<lognote/>
						<good>FALSE</good>
					</logginginfo>
					<labels>
						<label2/>
					</labels>
					<comments>
						<mastercomment1/>
						<mastercomment2/>
						<mastercomment3/>
						<mastercomment4/>
					</comments>
					<file id="MVI_9831_josh01 2"/>
					<marker>
						<name>be a robot</name>
						<comment>singularity, cyborg, man versus machine,</comment>
						<color>
							<alpha>0</alpha>
							<red>255</red>
							<green>0</green>
							<blue>0</blue>
						</color>
						<in>1267</in>
						<out>1772</out>
					</marker>
					<marker>
						<name>Marker 2</name>
						<comment/>
						<color>
							<alpha>0</alpha>
							<red>255</red>
							<green>0</green>
							<blue>0</blue>
						</color>
						<in>2083</in>
						<out>2878</out>
					</marker>
					<marker>
						<name>Comes from the human mind</name>
						<comment>old media,evolution, technological progress,cognition,invention</comment>
						<color>
							<alpha>0</alpha>
							<red>255</red>
							<green>0</green>
							<blue>0</blue>
						</color>
						<in>3218</in>
						<out>3797</out>
					</marker>
					<marker>
						<name>Unplugging</name>
						<comment>dysfunction,users,error,power</comment>
						<color>
							<alpha>0</alpha>
							<red>255</red>
							<green>0</green>
							<blue>0</blue>
						</color>
						<in>4392</in>
						<out>5316</out>
					</marker>
					<marker>
						<name>data loss</name>
						<comment>archiving,data ownership,the cloud,transience</comment>
						<color>
							<alpha>0</alpha>
							<red>255</red>
							<green>0</green>
							<blue>0</blue>
						</color>
						<in>6074</in>
						<out>6423</out>
					</marker>
					<marker>
						<name>open source mensch</name>
						<comment>community,github,open source</comment>
						<color>
							<alpha>0</alpha>
							<red>255</red>
							<green>0</green>
							<blue>0</blue>
						</color>
						<in>7384</in>
						<out>8297</out>
					</marker>
					<marker>
						<name>thinking by doing</name>
						<comment>mind and hand,heuristics,branching, thinking by doing,thinking with code,process,creativity, link:Casey - Ideally it goes beyond my imagination</comment>
						<color>
							<alpha>0</alpha>
							<red>255</red>
							<green>0</green>
							<blue>0</blue>
						</color>
						<in>9438</in>
						<out>9968</out>
					</marker>
					<marker>
						<name>Cortex</name>
						<comment>sensation,perception,visual cortex,subliminal,visualization, aesthetic experience,videogames,&#13;Link:JTNimoy - cortex2,&#13;Link:Marius - reach your visual cortex</comment>
						<color>
							<alpha>0</alpha>
							<red>255</red>
							<green>0</green>
							<blue>0</blue>
						</color>
						<in>10809</in>
						<out>11275</out>
					</marker>
					<marker>
						<name>100 artists versus One</name>
						<comment>community,crowdsourcing,creativity,collaboration</comment>
						<color>
							<alpha>0</alpha>
							<red>255</red>
							<green>0</green>
							<blue>0</blue>
						</color>
						<in>13036</in>
						<out>13485</out>
					</marker>
					<marker>
						<name>one of us</name>
						<comment>community,crowdsourcing,creativity,collaboration, anonymous, identity, snarky</comment>
						<color>
							<alpha>0</alpha>
							<red>255</red>
							<green>0</green>
							<blue>0</blue>
						</color>
						<in>13549</in>
						<out>14428</out>
					</marker>
					<marker>
						<name>enough cooks</name>
						<comment> sharing, open source, collaboration, funny,</comment>
						<color>
							<alpha>0</alpha>
							<red>255</red>
							<green>0</green>
							<blue>0</blue>
						</color>
						<in>15845</in>
						<out>16190</out>
					</marker>
					<filter>
						<effect>
							<name>Audio Levels</name>
							<effectid>audiolevels</effectid>
							<effectcategory>audiolevels</effectcategory>
							<effecttype>audiolevels</effecttype>
							<mediatype>audio</mediatype>
							<parameter>
								<name>Level</name>
								<parameterid>level</parameterid>
								<valuemin>0</valuemin>
								<valuemax>3.98109</valuemax>
								<value>1</value>
							</parameter>
						</effect>
					</filter>
					<filter>
						<effect>
							<name>Audio Pan</name>
							<effectid>audiopan</effectid>
							<effectcategory>audiopan</effectcategory>
							<effecttype>audiopan</effecttype>
							<mediatype>audio</mediatype>
							<parameter>
								<name>Pan</name>
								<parameterid>pan</parameterid>
								<valuemin>-1</valuemin>
								<valuemax>1</valuemax>
								<value>-1</value>
							</parameter>
						</effect>
					</filter>
					<sourcetrack>
						<mediatype>audio</mediatype>
						<trackindex>1</trackindex>
					</sourcetrack>
					<link>
						<linkclipref>MVI_9831_josh01 8</linkclipref>
						<mediatype>video</mediatype>
						<trackindex>1</trackindex>
						<clipindex>4</clipindex>
					</link>
					<link>
						<linkclipref>MVI_9831_josh01 9</linkclipref>
						<mediatype>audio</mediatype>
						<trackindex>1</trackindex>
						<clipindex>4</clipindex>
						<groupindex>1</groupindex>
					</link>
					<link>
						<linkclipref>MVI_9831_josh01 10</linkclipref>
						<mediatype>audio</mediatype>
						<trackindex>2</trackindex>
						<clipindex>4</clipindex>
						<groupindex>1</groupindex>
					</link>
					<itemhistory>
						<uuid>8DA6B519-0DF4-4E38-9506-47ECB6DB5CAF</uuid>
						<uuid>C93CFE73-53B7-47FA-B057-0867DA466010</uuid>
					</itemhistory>
				</clipitem>
				<clipitem id="MVI_9833_josh02_small3">
					<name>MVI_9833_josh02_small</name>
					<duration>14750</duration>
					<rate>
						<ntsc>TRUE</ntsc>
						<timebase>24</timebase>
					</rate>
					<in>0</in>
					<out>2642</out>
					<start>24620</start>
					<end>27262</end>
					<masterclipid>MVI_9833_josh02_small1</masterclipid>
					<logginginfo>
						<scene/>
						<shottake/>
						<lognote/>
						<good>FALSE</good>
					</logginginfo>
					<labels>
						<label2/>
					</labels>
					<comments>
						<mastercomment1/>
						<mastercomment2/>
						<mastercomment3/>
						<mastercomment4/>
					</comments>
					<file id="MVI_9833_josh02_small2"/>
					<marker>
						<name>originality</name>
						<comment>originality,homogeneity,gift,newness,new media old media</comment>
						<color>
							<alpha>0</alpha>
							<red>255</red>
							<green>0</green>
							<blue>0</blue>
						</color>
						<in>790</in>
						<out>1264</out>
					</marker>
					<marker>
						<name>geek culture</name>
						<comment>nerd,subcultures,social,tribe,social engagment, </comment>
						<color>
							<alpha>0</alpha>
							<red>255</red>
							<green>0</green>
							<blue>0</blue>
						</color>
						<in>1548</in>
						<out>2203</out>
					</marker>
					<marker>
						<name>relating</name>
						<comment>people,social,humanism,post digital, link:Maeda - about relationships</comment>
						<color>
							<alpha>0</alpha>
							<red>255</red>
							<green>0</green>
							<blue>0</blue>
						</color>
						<in>2642</in>
						<out>2848</out>
					</marker>
					<marker>
						<name>immersion</name>
						<comment>weird, funny, immersion,virtual,virtual reality, food</comment>
						<color>
							<alpha>0</alpha>
							<red>255</red>
							<green>0</green>
							<blue>0</blue>
						</color>
						<in>4419</in>
						<out>4568</out>
					</marker>
					<marker>
						<name>immersion2</name>
						<comment>immersion,virtual,virtual reality,future of cinema,technological progress</comment>
						<color>
							<alpha>0</alpha>
							<red>255</red>
							<green>0</green>
							<blue>0</blue>
						</color>
						<in>4661</in>
						<out>4901</out>
					</marker>
					<marker>
						<name>they will learn</name>
						<comment>Future of cinema</comment>
						<color>
							<alpha>0</alpha>
							<red>255</red>
							<green>0</green>
							<blue>0</blue>
						</color>
						<in>7611</in>
						<out>7965</out>
					</marker>
					<filter>
						<effect>
							<name>Audio Levels</name>
							<effectid>audiolevels</effectid>
							<effectcategory>audiolevels</effectcategory>
							<effecttype>audiolevels</effecttype>
							<mediatype>audio</mediatype>
							<parameter>
								<name>Level</name>
								<parameterid>level</parameterid>
								<valuemin>0</valuemin>
								<valuemax>3.98109</valuemax>
								<value>1</value>
							</parameter>
						</effect>
					</filter>
					<filter>
						<effect>
							<name>Audio Pan</name>
							<effectid>audiopan</effectid>
							<effectcategory>audiopan</effectcategory>
							<effecttype>audiopan</effecttype>
							<mediatype>audio</mediatype>
							<parameter>
								<name>Pan</name>
								<parameterid>pan</parameterid>
								<valuemin>-1</valuemin>
								<valuemax>1</valuemax>
								<value>-1</value>
							</parameter>
						</effect>
					</filter>
					<sourcetrack>
						<mediatype>audio</mediatype>
						<trackindex>1</trackindex>
					</sourcetrack>
					<link>
						<linkclipref>MVI_9833_josh02_small</linkclipref>
						<mediatype>video</mediatype>
						<trackindex>1</trackindex>
						<clipindex>5</clipindex>
					</link>
					<link>
						<linkclipref>MVI_9833_josh02_small3</linkclipref>
						<mediatype>audio</mediatype>
						<trackindex>1</trackindex>
						<clipindex>5</clipindex>
						<groupindex>1</groupindex>
					</link>
					<link>
						<linkclipref>MVI_9833_josh02_small4</linkclipref>
						<mediatype>audio</mediatype>
						<trackindex>2</trackindex>
						<clipindex>5</clipindex>
						<groupindex>1</groupindex>
					</link>
					<itemhistory>
						<uuid>650C1827-99A0-4BFB-A75F-5588002FEE17</uuid>
						<uuid>6F4D5690-33E3-4AFE-B875-5697A39F411E</uuid>
					</itemhistory>
				</clipitem>
				<clipitem id="MVI_9833_josh02_small6">
					<name>MVI_9833_josh02_small</name>
					<duration>14750</duration>
					<rate>
						<ntsc>TRUE</ntsc>
						<timebase>24</timebase>
					</rate>
					<in>2642</in>
					<out>2848</out>
					<start>27262</start>
					<end>27468</end>
					<masterclipid>MVI_9833_josh02_small1</masterclipid>
					<logginginfo>
						<scene/>
						<shottake/>
						<lognote/>
						<good>FALSE</good>
					</logginginfo>
					<labels>
						<label2/>
					</labels>
					<comments>
						<mastercomment1/>
						<mastercomment2/>
						<mastercomment3/>
						<mastercomment4/>
					</comments>
					<file id="MVI_9833_josh02_small2"/>
					<marker>
						<name>originality</name>
						<comment>originality,homogeneity,gift,newness,new media old media</comment>
						<color>
							<alpha>0</alpha>
							<red>255</red>
							<green>0</green>
							<blue>0</blue>
						</color>
						<in>790</in>
						<out>1264</out>
					</marker>
					<marker>
						<name>geek culture</name>
						<comment>nerd,subcultures,social,tribe,social engagment, </comment>
						<color>
							<alpha>0</alpha>
							<red>255</red>
							<green>0</green>
							<blue>0</blue>
						</color>
						<in>1548</in>
						<out>2203</out>
					</marker>
					<marker>
						<name>relating</name>
						<comment>people,social,humanism,post digital, link:Maeda - about relationships</comment>
						<color>
							<alpha>0</alpha>
							<red>255</red>
							<green>0</green>
							<blue>0</blue>
						</color>
						<in>2642</in>
						<out>2848</out>
					</marker>
					<marker>
						<name>immersion</name>
						<comment>weird, funny, immersion,virtual,virtual reality, food</comment>
						<color>
							<alpha>0</alpha>
							<red>255</red>
							<green>0</green>
							<blue>0</blue>
						</color>
						<in>4419</in>
						<out>4568</out>
					</marker>
					<marker>
						<name>immersion2</name>
						<comment>immersion,virtual,virtual reality,future of cinema,technological progress</comment>
						<color>
							<alpha>0</alpha>
							<red>255</red>
							<green>0</green>
							<blue>0</blue>
						</color>
						<in>4661</in>
						<out>4901</out>
					</marker>
					<marker>
						<name>they will learn</name>
						<comment>Future of cinema</comment>
						<color>
							<alpha>0</alpha>
							<red>255</red>
							<green>0</green>
							<blue>0</blue>
						</color>
						<in>7611</in>
						<out>7965</out>
					</marker>
					<filter>
						<effect>
							<name>Audio Levels</name>
							<effectid>audiolevels</effectid>
							<effectcategory>audiolevels</effectcategory>
							<effecttype>audiolevels</effecttype>
							<mediatype>audio</mediatype>
							<parameter>
								<name>Level</name>
								<parameterid>level</parameterid>
								<valuemin>0</valuemin>
								<valuemax>3.98109</valuemax>
								<value>1</value>
							</parameter>
						</effect>
					</filter>
					<filter>
						<effect>
							<name>Audio Pan</name>
							<effectid>audiopan</effectid>
							<effectcategory>audiopan</effectcategory>
							<effecttype>audiopan</effecttype>
							<mediatype>audio</mediatype>
							<parameter>
								<name>Pan</name>
								<parameterid>pan</parameterid>
								<valuemin>-1</valuemin>
								<valuemax>1</valuemax>
								<value>-1</value>
							</parameter>
						</effect>
					</filter>
					<sourcetrack>
						<mediatype>audio</mediatype>
						<trackindex>1</trackindex>
					</sourcetrack>
					<link>
						<linkclipref>MVI_9833_josh02_small5</linkclipref>
						<mediatype>video</mediatype>
						<trackindex>1</trackindex>
						<clipindex>6</clipindex>
					</link>
					<link>
						<linkclipref>MVI_9833_josh02_small6</linkclipref>
						<mediatype>audio</mediatype>
						<trackindex>1</trackindex>
						<clipindex>6</clipindex>
						<groupindex>1</groupindex>
					</link>
					<link>
						<linkclipref>MVI_9833_josh02_small7</linkclipref>
						<mediatype>audio</mediatype>
						<trackindex>2</trackindex>
						<clipindex>6</clipindex>
						<groupindex>1</groupindex>
					</link>
					<itemhistory>
						<uuid>7B15218E-FDE2-418D-BBB1-23675DC7B39D</uuid>
						<uuid>6F4D5690-33E3-4AFE-B875-5697A39F411E</uuid>
					</itemhistory>
				</clipitem>
				<clipitem id="MVI_9833_josh02_small9">
					<name>MVI_9833_josh02_small</name>
					<duration>14750</duration>
					<rate>
						<ntsc>TRUE</ntsc>
						<timebase>24</timebase>
					</rate>
					<in>2848</in>
					<out>14750</out>
					<start>27468</start>
					<end>39370</end>
					<masterclipid>MVI_9833_josh02_small1</masterclipid>
					<logginginfo>
						<scene/>
						<shottake/>
						<lognote/>
						<good>FALSE</good>
					</logginginfo>
					<labels>
						<label2/>
					</labels>
					<comments>
						<mastercomment1/>
						<mastercomment2/>
						<mastercomment3/>
						<mastercomment4/>
					</comments>
					<file id="MVI_9833_josh02_small2"/>
					<marker>
						<name>originality</name>
						<comment>originality,homogeneity,gift,newness,new media old media</comment>
						<color>
							<alpha>0</alpha>
							<red>255</red>
							<green>0</green>
							<blue>0</blue>
						</color>
						<in>790</in>
						<out>1264</out>
					</marker>
					<marker>
						<name>geek culture</name>
						<comment>nerd,subcultures,social,tribe,social engagment, </comment>
						<color>
							<alpha>0</alpha>
							<red>255</red>
							<green>0</green>
							<blue>0</blue>
						</color>
						<in>1548</in>
						<out>2203</out>
					</marker>
					<marker>
						<name>relating</name>
						<comment>people,social,humanism,post digital, link:Maeda - about relationships</comment>
						<color>
							<alpha>0</alpha>
							<red>255</red>
							<green>0</green>
							<blue>0</blue>
						</color>
						<in>2642</in>
						<out>2848</out>
					</marker>
					<marker>
						<name>immersion</name>
						<comment>weird, funny, immersion,virtual,virtual reality, food</comment>
						<color>
							<alpha>0</alpha>
							<red>255</red>
							<green>0</green>
							<blue>0</blue>
						</color>
						<in>4419</in>
						<out>4568</out>
					</marker>
					<marker>
						<name>immersion2</name>
						<comment>immersion,virtual,virtual reality,future of cinema,technological progress</comment>
						<color>
							<alpha>0</alpha>
							<red>255</red>
							<green>0</green>
							<blue>0</blue>
						</color>
						<in>4661</in>
						<out>4901</out>
					</marker>
					<marker>
						<name>they will learn</name>
						<comment>Future of cinema</comment>
						<color>
							<alpha>0</alpha>
							<red>255</red>
							<green>0</green>
							<blue>0</blue>
						</color>
						<in>7611</in>
						<out>7965</out>
					</marker>
					<filter>
						<effect>
							<name>Audio Levels</name>
							<effectid>audiolevels</effectid>
							<effectcategory>audiolevels</effectcategory>
							<effecttype>audiolevels</effecttype>
							<mediatype>audio</mediatype>
							<parameter>
								<name>Level</name>
								<parameterid>level</parameterid>
								<valuemin>0</valuemin>
								<valuemax>3.98109</valuemax>
								<value>1</value>
							</parameter>
						</effect>
					</filter>
					<filter>
						<effect>
							<name>Audio Pan</name>
							<effectid>audiopan</effectid>
							<effectcategory>audiopan</effectcategory>
							<effecttype>audiopan</effecttype>
							<mediatype>audio</mediatype>
							<parameter>
								<name>Pan</name>
								<parameterid>pan</parameterid>
								<valuemin>-1</valuemin>
								<valuemax>1</valuemax>
								<value>-1</value>
							</parameter>
						</effect>
					</filter>
					<sourcetrack>
						<mediatype>audio</mediatype>
						<trackindex>1</trackindex>
					</sourcetrack>
					<link>
						<linkclipref>MVI_9833_josh02_small8</linkclipref>
						<mediatype>video</mediatype>
						<trackindex>1</trackindex>
						<clipindex>7</clipindex>
					</link>
					<link>
						<linkclipref>MVI_9833_josh02_small9</linkclipref>
						<mediatype>audio</mediatype>
						<trackindex>1</trackindex>
						<clipindex>7</clipindex>
						<groupindex>1</groupindex>
					</link>
					<link>
						<linkclipref>MVI_9833_josh02_small10</linkclipref>
						<mediatype>audio</mediatype>
						<trackindex>2</trackindex>
						<clipindex>7</clipindex>
						<groupindex>1</groupindex>
					</link>
					<itemhistory>
						<uuid>79CD74D7-6CA3-4F49-9500-D248424B14C8</uuid>
						<uuid>6F4D5690-33E3-4AFE-B875-5697A39F411E</uuid>
					</itemhistory>
				</clipitem>
				<clipitem id="MVI_9834_josh03_small3">
					<name>MVI_9834_josh03_small</name>
					<duration>6408</duration>
					<rate>
						<ntsc>TRUE</ntsc>
						<timebase>24</timebase>
					</rate>
					<in>0</in>
					<out>6408</out>
					<start>39370</start>
					<end>45778</end>
					<masterclipid>MVI_9834_josh03_small1</masterclipid>
					<logginginfo>
						<scene/>
						<shottake/>
						<lognote/>
						<good>FALSE</good>
					</logginginfo>
					<labels>
						<label2/>
					</labels>
					<comments>
						<mastercomment1/>
						<mastercomment2/>
						<mastercomment3/>
						<mastercomment4/>
					</comments>
					<file id="MVI_9834_josh03_small2"/>
					<marker>
						<name>icosahedron</name>
						<comment>dynamics,particles,geometry</comment>
						<color>
							<alpha>0</alpha>
							<red>255</red>
							<green>0</green>
							<blue>0</blue>
						</color>
						<in>3046</in>
						<out>3223</out>
					</marker>
					<marker>
						<name>Marker 2</name>
						<comment/>
						<color>
							<alpha>0</alpha>
							<red>255</red>
							<green>0</green>
							<blue>0</blue>
						</color>
						<in>5314</in>
						<out>5675</out>
					</marker>
					<filter>
						<effect>
							<name>Audio Levels</name>
							<effectid>audiolevels</effectid>
							<effectcategory>audiolevels</effectcategory>
							<effecttype>audiolevels</effecttype>
							<mediatype>audio</mediatype>
							<parameter>
								<name>Level</name>
								<parameterid>level</parameterid>
								<valuemin>0</valuemin>
								<valuemax>3.98109</valuemax>
								<value>1</value>
							</parameter>
						</effect>
					</filter>
					<filter>
						<effect>
							<name>Audio Pan</name>
							<effectid>audiopan</effectid>
							<effectcategory>audiopan</effectcategory>
							<effecttype>audiopan</effecttype>
							<mediatype>audio</mediatype>
							<parameter>
								<name>Pan</name>
								<parameterid>pan</parameterid>
								<valuemin>-1</valuemin>
								<valuemax>1</valuemax>
								<value>-1</value>
							</parameter>
						</effect>
					</filter>
					<sourcetrack>
						<mediatype>audio</mediatype>
						<trackindex>1</trackindex>
					</sourcetrack>
					<link>
						<linkclipref>MVI_9834_josh03_small</linkclipref>
						<mediatype>video</mediatype>
						<trackindex>1</trackindex>
						<clipindex>8</clipindex>
					</link>
					<link>
						<linkclipref>MVI_9834_josh03_small3</linkclipref>
						<mediatype>audio</mediatype>
						<trackindex>1</trackindex>
						<clipindex>8</clipindex>
						<groupindex>1</groupindex>
					</link>
					<link>
						<linkclipref>MVI_9834_josh03_small4</linkclipref>
						<mediatype>audio</mediatype>
						<trackindex>2</trackindex>
						<clipindex>8</clipindex>
						<groupindex>1</groupindex>
					</link>
					<itemhistory>
						<uuid>E5A62194-16A3-4E4E-97C3-F874D85D6D31</uuid>
					</itemhistory>
				</clipitem>
				<clipitem id="MVI_9835_josh04_small3">
					<name>MVI_9835_josh04_small</name>
					<duration>3092</duration>
					<rate>
						<ntsc>TRUE</ntsc>
						<timebase>24</timebase>
					</rate>
					<in>0</in>
					<out>3092</out>
					<start>45778</start>
					<end>48870</end>
					<masterclipid>MVI_9835_josh04_small1</masterclipid>
					<logginginfo>
						<scene/>
						<shottake/>
						<lognote/>
						<good>FALSE</good>
					</logginginfo>
					<labels>
						<label2/>
					</labels>
					<comments>
						<mastercomment1/>
						<mastercomment2/>
						<mastercomment3/>
						<mastercomment4/>
					</comments>
					<file id="MVI_9835_josh04_small2"/>
					<marker>
						<name>corporate</name>
						<comment>commercialism,corporate,money,career</comment>
						<color>
							<alpha>0</alpha>
							<red>255</red>
							<green>0</green>
							<blue>0</blue>
						</color>
						<in>1618</in>
						<out>2449</out>
					</marker>
					<filter>
						<effect>
							<name>Audio Levels</name>
							<effectid>audiolevels</effectid>
							<effectcategory>audiolevels</effectcategory>
							<effecttype>audiolevels</effecttype>
							<mediatype>audio</mediatype>
							<parameter>
								<name>Level</name>
								<parameterid>level</parameterid>
								<valuemin>0</valuemin>
								<valuemax>3.98109</valuemax>
								<value>1</value>
							</parameter>
						</effect>
					</filter>
					<filter>
						<effect>
							<name>Audio Pan</name>
							<effectid>audiopan</effectid>
							<effectcategory>audiopan</effectcategory>
							<effecttype>audiopan</effecttype>
							<mediatype>audio</mediatype>
							<parameter>
								<name>Pan</name>
								<parameterid>pan</parameterid>
								<valuemin>-1</valuemin>
								<valuemax>1</valuemax>
								<value>-1</value>
							</parameter>
						</effect>
					</filter>
					<sourcetrack>
						<mediatype>audio</mediatype>
						<trackindex>1</trackindex>
					</sourcetrack>
					<link>
						<linkclipref>MVI_9835_josh04_small</linkclipref>
						<mediatype>video</mediatype>
						<trackindex>1</trackindex>
						<clipindex>9</clipindex>
					</link>
					<link>
						<linkclipref>MVI_9835_josh04_small3</linkclipref>
						<mediatype>audio</mediatype>
						<trackindex>1</trackindex>
						<clipindex>9</clipindex>
						<groupindex>1</groupindex>
					</link>
					<link>
						<linkclipref>MVI_9835_josh04_small4</linkclipref>
						<mediatype>audio</mediatype>
						<trackindex>2</trackindex>
						<clipindex>9</clipindex>
						<groupindex>1</groupindex>
					</link>
					<itemhistory>
						<uuid>996FD2FE-1E13-422A-9698-D95B9F8AB9BF</uuid>
					</itemhistory>
				</clipitem>
				<enabled>TRUE</enabled>
				<locked>FALSE</locked>
				<outputchannelindex>1</outputchannelindex>
			</track>
			<track>
				<clipitem id="josh00_original4">
					<name>josh00_original</name>
					<duration>7340</duration>
					<rate>
						<ntsc>TRUE</ntsc>
						<timebase>24</timebase>
					</rate>
					<in>0</in>
					<out>7340</out>
					<start>0</start>
					<end>7340</end>
					<masterclipid>josh00_original1</masterclipid>
					<logginginfo>
						<scene/>
						<shottake/>
						<lognote/>
						<good>FALSE</good>
					</logginginfo>
					<labels>
						<label2/>
					</labels>
					<comments>
						<mastercomment1/>
						<mastercomment2/>
						<mastercomment3/>
						<mastercomment4/>
					</comments>
					<file id="josh00_original2"/>
					<marker>
						<name>Describe the Kinect</name>
						<comment>What is this camera rig, describe RGBD?, camera,kinect,future of cinema</comment>
						<color>
							<alpha>0</alpha>
							<red>255</red>
							<green>0</green>
							<blue>0</blue>
						</color>
						<in>1106</in>
						<out>1647</out>
					</marker>
					<marker>
						<name>increased the bandwidth</name>
						<comment>camera,kinect,future of cinema,visual effects,efficiency</comment>
						<color>
							<alpha>0</alpha>
							<red>255</red>
							<green>0</green>
							<blue>0</blue>
						</color>
						<in>1917</in>
						<out>2726</out>
					</marker>
					<marker>
						<name>performance1</name>
						<comment>what would you do with your pointcloud?, performance, meta, visualization, future of cinema, recursion, link:JTNimoy - performance2</comment>
						<color>
							<alpha>0</alpha>
							<red>255</red>
							<green>0</green>
							<blue>0</blue>
						</color>
						<in>2927</in>
						<out>3073</out>
					</marker>
					<marker>
						<name>performance2</name>
						<comment/>
						<color>
							<alpha>0</alpha>
							<red>255</red>
							<green>0</green>
							<blue>0</blue>
						</color>
						<in>3494</in>
						<out>3790</out>
					</marker>
					<marker>
						<name>performance3</name>
						<comment/>
						<color>
							<alpha>0</alpha>
							<red>255</red>
							<green>0</green>
							<blue>0</blue>
						</color>
						<in>4291</in>
						<out>4431</out>
					</marker>
					<marker>
						<name>evolution</name>
						<comment>beginnings,videogames, history</comment>
						<color>
							<alpha>0</alpha>
							<red>255</red>
							<green>0</green>
							<blue>0</blue>
						</color>
						<in>4560</in>
						<out>5351</out>
					</marker>
					<marker>
						<name>I addicted myself</name>
						<comment>beginnings,addiction,programming,nerd,hacker</comment>
						<color>
							<alpha>0</alpha>
							<red>255</red>
							<green>0</green>
							<blue>0</blue>
						</color>
						<in>6269</in>
						<out>6847</out>
					</marker>
					<filter>
						<effect>
							<name>Audio Levels</name>
							<effectid>audiolevels</effectid>
							<effectcategory>audiolevels</effectcategory>
							<effecttype>audiolevels</effecttype>
							<mediatype>audio</mediatype>
							<parameter>
								<name>Level</name>
								<parameterid>level</parameterid>
								<valuemin>0</valuemin>
								<valuemax>3.98109</valuemax>
								<value>1</value>
							</parameter>
						</effect>
					</filter>
					<filter>
						<effect>
							<name>Audio Pan</name>
							<effectid>audiopan</effectid>
							<effectcategory>audiopan</effectcategory>
							<effecttype>audiopan</effecttype>
							<mediatype>audio</mediatype>
							<parameter>
								<name>Pan</name>
								<parameterid>pan</parameterid>
								<valuemin>-1</valuemin>
								<valuemax>1</valuemax>
								<value>1</value>
							</parameter>
						</effect>
					</filter>
					<sourcetrack>
						<mediatype>audio</mediatype>
						<trackindex>2</trackindex>
					</sourcetrack>
					<link>
						<linkclipref>josh00_original</linkclipref>
						<mediatype>video</mediatype>
						<trackindex>1</trackindex>
						<clipindex>1</clipindex>
					</link>
					<link>
						<linkclipref>josh00_original3</linkclipref>
						<mediatype>audio</mediatype>
						<trackindex>1</trackindex>
						<clipindex>1</clipindex>
						<groupindex>1</groupindex>
					</link>
					<link>
						<linkclipref>josh00_original4</linkclipref>
						<mediatype>audio</mediatype>
						<trackindex>2</trackindex>
						<clipindex>1</clipindex>
						<groupindex>1</groupindex>
					</link>
					<itemhistory>
						<uuid>F36FD269-A127-4615-B4B3-8C1E20C0F896</uuid>
						<uuid>3C1C2D85-F051-49ED-8D94-9D02562A0A38</uuid>
					</itemhistory>
				</clipitem>
				<clipitem id="MVI_9831_josh01 4">
					<name>MVI_9831_josh01</name>
					<duration>17280</duration>
					<rate>
						<ntsc>TRUE</ntsc>
						<timebase>24</timebase>
					</rate>
					<in>0</in>
					<out>1267</out>
					<start>7340</start>
					<end>8607</end>
					<masterclipid>MVI_9831_josh01 1</masterclipid>
					<logginginfo>
						<scene/>
						<shottake/>
						<lognote/>
						<good>FALSE</good>
					</logginginfo>
					<labels>
						<label2/>
					</labels>
					<comments>
						<mastercomment1/>
						<mastercomment2/>
						<mastercomment3/>
						<mastercomment4/>
					</comments>
					<file id="MVI_9831_josh01 2"/>
					<marker>
						<name>be a robot</name>
						<comment>singularity, cyborg, man versus machine,</comment>
						<color>
							<alpha>0</alpha>
							<red>255</red>
							<green>0</green>
							<blue>0</blue>
						</color>
						<in>1267</in>
						<out>1772</out>
					</marker>
					<marker>
						<name>Marker 2</name>
						<comment/>
						<color>
							<alpha>0</alpha>
							<red>255</red>
							<green>0</green>
							<blue>0</blue>
						</color>
						<in>2083</in>
						<out>2878</out>
					</marker>
					<marker>
						<name>Comes from the human mind</name>
						<comment>old media,evolution, technological progress,cognition,invention</comment>
						<color>
							<alpha>0</alpha>
							<red>255</red>
							<green>0</green>
							<blue>0</blue>
						</color>
						<in>3218</in>
						<out>3797</out>
					</marker>
					<marker>
						<name>Unplugging</name>
						<comment>dysfunction,users,error,power</comment>
						<color>
							<alpha>0</alpha>
							<red>255</red>
							<green>0</green>
							<blue>0</blue>
						</color>
						<in>4392</in>
						<out>5316</out>
					</marker>
					<marker>
						<name>data loss</name>
						<comment>archiving,data ownership,the cloud,transience</comment>
						<color>
							<alpha>0</alpha>
							<red>255</red>
							<green>0</green>
							<blue>0</blue>
						</color>
						<in>6074</in>
						<out>6423</out>
					</marker>
					<marker>
						<name>open source mensch</name>
						<comment>community,github,open source</comment>
						<color>
							<alpha>0</alpha>
							<red>255</red>
							<green>0</green>
							<blue>0</blue>
						</color>
						<in>7384</in>
						<out>8297</out>
					</marker>
					<marker>
						<name>thinking by doing</name>
						<comment>mind and hand,heuristics,branching, thinking by doing,thinking with code,process,creativity, link:Casey - Ideally it goes beyond my imagination</comment>
						<color>
							<alpha>0</alpha>
							<red>255</red>
							<green>0</green>
							<blue>0</blue>
						</color>
						<in>9438</in>
						<out>9968</out>
					</marker>
					<marker>
						<name>Cortex</name>
						<comment>sensation,perception,visual cortex,subliminal,visualization, aesthetic experience,videogames,&#13;Link:JTNimoy - cortex2,&#13;Link:Marius - reach your visual cortex</comment>
						<color>
							<alpha>0</alpha>
							<red>255</red>
							<green>0</green>
							<blue>0</blue>
						</color>
						<in>10809</in>
						<out>11275</out>
					</marker>
					<marker>
						<name>100 artists versus One</name>
						<comment>community,crowdsourcing,creativity,collaboration</comment>
						<color>
							<alpha>0</alpha>
							<red>255</red>
							<green>0</green>
							<blue>0</blue>
						</color>
						<in>13036</in>
						<out>13485</out>
					</marker>
					<marker>
						<name>one of us</name>
						<comment>community,crowdsourcing,creativity,collaboration, anonymous, identity, snarky</comment>
						<color>
							<alpha>0</alpha>
							<red>255</red>
							<green>0</green>
							<blue>0</blue>
						</color>
						<in>13549</in>
						<out>14428</out>
					</marker>
					<marker>
						<name>enough cooks</name>
						<comment> sharing, open source, collaboration, funny,</comment>
						<color>
							<alpha>0</alpha>
							<red>255</red>
							<green>0</green>
							<blue>0</blue>
						</color>
						<in>15845</in>
						<out>16190</out>
					</marker>
					<filter>
						<effect>
							<name>Audio Levels</name>
							<effectid>audiolevels</effectid>
							<effectcategory>audiolevels</effectcategory>
							<effecttype>audiolevels</effecttype>
							<mediatype>audio</mediatype>
							<parameter>
								<name>Level</name>
								<parameterid>level</parameterid>
								<valuemin>0</valuemin>
								<valuemax>3.98109</valuemax>
								<value>1</value>
							</parameter>
						</effect>
					</filter>
					<filter>
						<effect>
							<name>Audio Pan</name>
							<effectid>audiopan</effectid>
							<effectcategory>audiopan</effectcategory>
							<effecttype>audiopan</effecttype>
							<mediatype>audio</mediatype>
							<parameter>
								<name>Pan</name>
								<parameterid>pan</parameterid>
								<valuemin>-1</valuemin>
								<valuemax>1</valuemax>
								<value>1</value>
							</parameter>
						</effect>
					</filter>
					<sourcetrack>
						<mediatype>audio</mediatype>
						<trackindex>2</trackindex>
					</sourcetrack>
					<link>
						<linkclipref>MVI_9831_josh01 </linkclipref>
						<mediatype>video</mediatype>
						<trackindex>1</trackindex>
						<clipindex>2</clipindex>
					</link>
					<link>
						<linkclipref>MVI_9831_josh01 3</linkclipref>
						<mediatype>audio</mediatype>
						<trackindex>1</trackindex>
						<clipindex>2</clipindex>
						<groupindex>1</groupindex>
					</link>
					<link>
						<linkclipref>MVI_9831_josh01 4</linkclipref>
						<mediatype>audio</mediatype>
						<trackindex>2</trackindex>
						<clipindex>2</clipindex>
						<groupindex>1</groupindex>
					</link>
					<itemhistory>
						<uuid>667C545E-0D4F-429F-8BEB-1D3EE4DB4215</uuid>
						<uuid>00701949-ED8C-41C1-89B8-9BF36A8B961F</uuid>
					</itemhistory>
				</clipitem>
				<clipitem id="MVI_9831_josh01 7">
					<name>MVI_9831_josh01</name>
					<duration>17280</duration>
					<rate>
						<ntsc>TRUE</ntsc>
						<timebase>24</timebase>
					</rate>
					<in>1267</in>
					<out>1772</out>
					<start>8607</start>
					<end>9112</end>
					<masterclipid>MVI_9831_josh01 1</masterclipid>
					<logginginfo>
						<scene/>
						<shottake/>
						<lognote/>
						<good>FALSE</good>
					</logginginfo>
					<labels>
						<label2/>
					</labels>
					<comments>
						<mastercomment1/>
						<mastercomment2/>
						<mastercomment3/>
						<mastercomment4/>
					</comments>
					<file id="MVI_9831_josh01 2"/>
					<marker>
						<name>be a robot</name>
						<comment>singularity, cyborg, man versus machine,</comment>
						<color>
							<alpha>0</alpha>
							<red>255</red>
							<green>0</green>
							<blue>0</blue>
						</color>
						<in>1267</in>
						<out>1772</out>
					</marker>
					<marker>
						<name>Marker 2</name>
						<comment/>
						<color>
							<alpha>0</alpha>
							<red>255</red>
							<green>0</green>
							<blue>0</blue>
						</color>
						<in>2083</in>
						<out>2878</out>
					</marker>
					<marker>
						<name>Comes from the human mind</name>
						<comment>old media,evolution, technological progress,cognition,invention</comment>
						<color>
							<alpha>0</alpha>
							<red>255</red>
							<green>0</green>
							<blue>0</blue>
						</color>
						<in>3218</in>
						<out>3797</out>
					</marker>
					<marker>
						<name>Unplugging</name>
						<comment>dysfunction,users,error,power</comment>
						<color>
							<alpha>0</alpha>
							<red>255</red>
							<green>0</green>
							<blue>0</blue>
						</color>
						<in>4392</in>
						<out>5316</out>
					</marker>
					<marker>
						<name>data loss</name>
						<comment>archiving,data ownership,the cloud,transience</comment>
						<color>
							<alpha>0</alpha>
							<red>255</red>
							<green>0</green>
							<blue>0</blue>
						</color>
						<in>6074</in>
						<out>6423</out>
					</marker>
					<marker>
						<name>open source mensch</name>
						<comment>community,github,open source</comment>
						<color>
							<alpha>0</alpha>
							<red>255</red>
							<green>0</green>
							<blue>0</blue>
						</color>
						<in>7384</in>
						<out>8297</out>
					</marker>
					<marker>
						<name>thinking by doing</name>
						<comment>mind and hand,heuristics,branching, thinking by doing,thinking with code,process,creativity, link:Casey - Ideally it goes beyond my imagination</comment>
						<color>
							<alpha>0</alpha>
							<red>255</red>
							<green>0</green>
							<blue>0</blue>
						</color>
						<in>9438</in>
						<out>9968</out>
					</marker>
					<marker>
						<name>Cortex</name>
						<comment>sensation,perception,visual cortex,subliminal,visualization, aesthetic experience,videogames,&#13;Link:JTNimoy - cortex2,&#13;Link:Marius - reach your visual cortex</comment>
						<color>
							<alpha>0</alpha>
							<red>255</red>
							<green>0</green>
							<blue>0</blue>
						</color>
						<in>10809</in>
						<out>11275</out>
					</marker>
					<marker>
						<name>100 artists versus One</name>
						<comment>community,crowdsourcing,creativity,collaboration</comment>
						<color>
							<alpha>0</alpha>
							<red>255</red>
							<green>0</green>
							<blue>0</blue>
						</color>
						<in>13036</in>
						<out>13485</out>
					</marker>
					<marker>
						<name>one of us</name>
						<comment>community,crowdsourcing,creativity,collaboration, anonymous, identity, snarky</comment>
						<color>
							<alpha>0</alpha>
							<red>255</red>
							<green>0</green>
							<blue>0</blue>
						</color>
						<in>13549</in>
						<out>14428</out>
					</marker>
					<marker>
						<name>enough cooks</name>
						<comment> sharing, open source, collaboration, funny,</comment>
						<color>
							<alpha>0</alpha>
							<red>255</red>
							<green>0</green>
							<blue>0</blue>
						</color>
						<in>15845</in>
						<out>16190</out>
					</marker>
					<filter>
						<effect>
							<name>Audio Levels</name>
							<effectid>audiolevels</effectid>
							<effectcategory>audiolevels</effectcategory>
							<effecttype>audiolevels</effecttype>
							<mediatype>audio</mediatype>
							<parameter>
								<name>Level</name>
								<parameterid>level</parameterid>
								<valuemin>0</valuemin>
								<valuemax>3.98109</valuemax>
								<value>1</value>
							</parameter>
						</effect>
					</filter>
					<filter>
						<effect>
							<name>Audio Pan</name>
							<effectid>audiopan</effectid>
							<effectcategory>audiopan</effectcategory>
							<effecttype>audiopan</effecttype>
							<mediatype>audio</mediatype>
							<parameter>
								<name>Pan</name>
								<parameterid>pan</parameterid>
								<valuemin>-1</valuemin>
								<valuemax>1</valuemax>
								<value>1</value>
							</parameter>
						</effect>
					</filter>
					<sourcetrack>
						<mediatype>audio</mediatype>
						<trackindex>2</trackindex>
					</sourcetrack>
					<link>
						<linkclipref>MVI_9831_josh01 5</linkclipref>
						<mediatype>video</mediatype>
						<trackindex>1</trackindex>
						<clipindex>3</clipindex>
					</link>
					<link>
						<linkclipref>MVI_9831_josh01 6</linkclipref>
						<mediatype>audio</mediatype>
						<trackindex>1</trackindex>
						<clipindex>3</clipindex>
						<groupindex>1</groupindex>
					</link>
					<link>
						<linkclipref>MVI_9831_josh01 7</linkclipref>
						<mediatype>audio</mediatype>
						<trackindex>2</trackindex>
						<clipindex>3</clipindex>
						<groupindex>1</groupindex>
					</link>
					<itemhistory>
						<uuid>AE242038-6F37-48B1-9901-03A621202639</uuid>
						<uuid>00701949-ED8C-41C1-89B8-9BF36A8B961F</uuid>
					</itemhistory>
				</clipitem>
				<clipitem id="MVI_9831_josh01 10">
					<name>MVI_9831_josh01</name>
					<duration>17280</duration>
					<rate>
						<ntsc>TRUE</ntsc>
						<timebase>24</timebase>
					</rate>
					<in>1772</in>
					<out>17280</out>
					<start>9112</start>
					<end>24620</end>
					<masterclipid>MVI_9831_josh01 1</masterclipid>
					<logginginfo>
						<scene/>
						<shottake/>
						<lognote/>
						<good>FALSE</good>
					</logginginfo>
					<labels>
						<label2/>
					</labels>
					<comments>
						<mastercomment1/>
						<mastercomment2/>
						<mastercomment3/>
						<mastercomment4/>
					</comments>
					<file id="MVI_9831_josh01 2"/>
					<marker>
						<name>be a robot</name>
						<comment>singularity, cyborg, man versus machine,</comment>
						<color>
							<alpha>0</alpha>
							<red>255</red>
							<green>0</green>
							<blue>0</blue>
						</color>
						<in>1267</in>
						<out>1772</out>
					</marker>
					<marker>
						<name>Marker 2</name>
						<comment/>
						<color>
							<alpha>0</alpha>
							<red>255</red>
							<green>0</green>
							<blue>0</blue>
						</color>
						<in>2083</in>
						<out>2878</out>
					</marker>
					<marker>
						<name>Comes from the human mind</name>
						<comment>old media,evolution, technological progress,cognition,invention</comment>
						<color>
							<alpha>0</alpha>
							<red>255</red>
							<green>0</green>
							<blue>0</blue>
						</color>
						<in>3218</in>
						<out>3797</out>
					</marker>
					<marker>
						<name>Unplugging</name>
						<comment>dysfunction,users,error,power</comment>
						<color>
							<alpha>0</alpha>
							<red>255</red>
							<green>0</green>
							<blue>0</blue>
						</color>
						<in>4392</in>
						<out>5316</out>
					</marker>
					<marker>
						<name>data loss</name>
						<comment>archiving,data ownership,the cloud,transience</comment>
						<color>
							<alpha>0</alpha>
							<red>255</red>
							<green>0</green>
							<blue>0</blue>
						</color>
						<in>6074</in>
						<out>6423</out>
					</marker>
					<marker>
						<name>open source mensch</name>
						<comment>community,github,open source</comment>
						<color>
							<alpha>0</alpha>
							<red>255</red>
							<green>0</green>
							<blue>0</blue>
						</color>
						<in>7384</in>
						<out>8297</out>
					</marker>
					<marker>
						<name>thinking by doing</name>
						<comment>mind and hand,heuristics,branching, thinking by doing,thinking with code,process,creativity, link:Casey - Ideally it goes beyond my imagination</comment>
						<color>
							<alpha>0</alpha>
							<red>255</red>
							<green>0</green>
							<blue>0</blue>
						</color>
						<in>9438</in>
						<out>9968</out>
					</marker>
					<marker>
						<name>Cortex</name>
						<comment>sensation,perception,visual cortex,subliminal,visualization, aesthetic experience,videogames,&#13;Link:JTNimoy - cortex2,&#13;Link:Marius - reach your visual cortex</comment>
						<color>
							<alpha>0</alpha>
							<red>255</red>
							<green>0</green>
							<blue>0</blue>
						</color>
						<in>10809</in>
						<out>11275</out>
					</marker>
					<marker>
						<name>100 artists versus One</name>
						<comment>community,crowdsourcing,creativity,collaboration</comment>
						<color>
							<alpha>0</alpha>
							<red>255</red>
							<green>0</green>
							<blue>0</blue>
						</color>
						<in>13036</in>
						<out>13485</out>
					</marker>
					<marker>
						<name>one of us</name>
						<comment>community,crowdsourcing,creativity,collaboration, anonymous, identity, snarky</comment>
						<color>
							<alpha>0</alpha>
							<red>255</red>
							<green>0</green>
							<blue>0</blue>
						</color>
						<in>13549</in>
						<out>14428</out>
					</marker>
					<marker>
						<name>enough cooks</name>
						<comment> sharing, open source, collaboration, funny,</comment>
						<color>
							<alpha>0</alpha>
							<red>255</red>
							<green>0</green>
							<blue>0</blue>
						</color>
						<in>15845</in>
						<out>16190</out>
					</marker>
					<filter>
						<effect>
							<name>Audio Levels</name>
							<effectid>audiolevels</effectid>
							<effectcategory>audiolevels</effectcategory>
							<effecttype>audiolevels</effecttype>
							<mediatype>audio</mediatype>
							<parameter>
								<name>Level</name>
								<parameterid>level</parameterid>
								<valuemin>0</valuemin>
								<valuemax>3.98109</valuemax>
								<value>1</value>
							</parameter>
						</effect>
					</filter>
					<filter>
						<effect>
							<name>Audio Pan</name>
							<effectid>audiopan</effectid>
							<effectcategory>audiopan</effectcategory>
							<effecttype>audiopan</effecttype>
							<mediatype>audio</mediatype>
							<parameter>
								<name>Pan</name>
								<parameterid>pan</parameterid>
								<valuemin>-1</valuemin>
								<valuemax>1</valuemax>
								<value>1</value>
							</parameter>
						</effect>
					</filter>
					<sourcetrack>
						<mediatype>audio</mediatype>
						<trackindex>2</trackindex>
					</sourcetrack>
					<link>
						<linkclipref>MVI_9831_josh01 8</linkclipref>
						<mediatype>video</mediatype>
						<trackindex>1</trackindex>
						<clipindex>4</clipindex>
					</link>
					<link>
						<linkclipref>MVI_9831_josh01 9</linkclipref>
						<mediatype>audio</mediatype>
						<trackindex>1</trackindex>
						<clipindex>4</clipindex>
						<groupindex>1</groupindex>
					</link>
					<link>
						<linkclipref>MVI_9831_josh01 10</linkclipref>
						<mediatype>audio</mediatype>
						<trackindex>2</trackindex>
						<clipindex>4</clipindex>
						<groupindex>1</groupindex>
					</link>
					<itemhistory>
						<uuid>E89C17E9-6DB4-4BDA-A32B-228589564759</uuid>
						<uuid>00701949-ED8C-41C1-89B8-9BF36A8B961F</uuid>
					</itemhistory>
				</clipitem>
				<clipitem id="MVI_9833_josh02_small4">
					<name>MVI_9833_josh02_small</name>
					<duration>14750</duration>
					<rate>
						<ntsc>TRUE</ntsc>
						<timebase>24</timebase>
					</rate>
					<in>0</in>
					<out>2642</out>
					<start>24620</start>
					<end>27262</end>
					<masterclipid>MVI_9833_josh02_small1</masterclipid>
					<logginginfo>
						<scene/>
						<shottake/>
						<lognote/>
						<good>FALSE</good>
					</logginginfo>
					<labels>
						<label2/>
					</labels>
					<comments>
						<mastercomment1/>
						<mastercomment2/>
						<mastercomment3/>
						<mastercomment4/>
					</comments>
					<file id="MVI_9833_josh02_small2"/>
					<marker>
						<name>originality</name>
						<comment>originality,homogeneity,gift,newness,new media old media</comment>
						<color>
							<alpha>0</alpha>
							<red>255</red>
							<green>0</green>
							<blue>0</blue>
						</color>
						<in>790</in>
						<out>1264</out>
					</marker>
					<marker>
						<name>geek culture</name>
						<comment>nerd,subcultures,social,tribe,social engagment, </comment>
						<color>
							<alpha>0</alpha>
							<red>255</red>
							<green>0</green>
							<blue>0</blue>
						</color>
						<in>1548</in>
						<out>2203</out>
					</marker>
					<marker>
						<name>relating</name>
						<comment>people,social,humanism,post digital, link:Maeda - about relationships</comment>
						<color>
							<alpha>0</alpha>
							<red>255</red>
							<green>0</green>
							<blue>0</blue>
						</color>
						<in>2642</in>
						<out>2848</out>
					</marker>
					<marker>
						<name>immersion</name>
						<comment>weird, funny, immersion,virtual,virtual reality, food</comment>
						<color>
							<alpha>0</alpha>
							<red>255</red>
							<green>0</green>
							<blue>0</blue>
						</color>
						<in>4419</in>
						<out>4568</out>
					</marker>
					<marker>
						<name>immersion2</name>
						<comment>immersion,virtual,virtual reality,future of cinema,technological progress</comment>
						<color>
							<alpha>0</alpha>
							<red>255</red>
							<green>0</green>
							<blue>0</blue>
						</color>
						<in>4661</in>
						<out>4901</out>
					</marker>
					<marker>
						<name>they will learn</name>
						<comment>Future of cinema</comment>
						<color>
							<alpha>0</alpha>
							<red>255</red>
							<green>0</green>
							<blue>0</blue>
						</color>
						<in>7611</in>
						<out>7965</out>
					</marker>
					<filter>
						<effect>
							<name>Audio Levels</name>
							<effectid>audiolevels</effectid>
							<effectcategory>audiolevels</effectcategory>
							<effecttype>audiolevels</effecttype>
							<mediatype>audio</mediatype>
							<parameter>
								<name>Level</name>
								<parameterid>level</parameterid>
								<valuemin>0</valuemin>
								<valuemax>3.98109</valuemax>
								<value>1</value>
							</parameter>
						</effect>
					</filter>
					<filter>
						<effect>
							<name>Audio Pan</name>
							<effectid>audiopan</effectid>
							<effectcategory>audiopan</effectcategory>
							<effecttype>audiopan</effecttype>
							<mediatype>audio</mediatype>
							<parameter>
								<name>Pan</name>
								<parameterid>pan</parameterid>
								<valuemin>-1</valuemin>
								<valuemax>1</valuemax>
								<value>1</value>
							</parameter>
						</effect>
					</filter>
					<sourcetrack>
						<mediatype>audio</mediatype>
						<trackindex>2</trackindex>
					</sourcetrack>
					<link>
						<linkclipref>MVI_9833_josh02_small</linkclipref>
						<mediatype>video</mediatype>
						<trackindex>1</trackindex>
						<clipindex>5</clipindex>
					</link>
					<link>
						<linkclipref>MVI_9833_josh02_small3</linkclipref>
						<mediatype>audio</mediatype>
						<trackindex>1</trackindex>
						<clipindex>5</clipindex>
						<groupindex>1</groupindex>
					</link>
					<link>
						<linkclipref>MVI_9833_josh02_small4</linkclipref>
						<mediatype>audio</mediatype>
						<trackindex>2</trackindex>
						<clipindex>5</clipindex>
						<groupindex>1</groupindex>
					</link>
					<itemhistory>
						<uuid>078B9A71-4877-4F20-9970-D794EC0252F3</uuid>
						<uuid>043DC6EF-46B7-4FDF-91D5-EA3ADF928A24</uuid>
					</itemhistory>
				</clipitem>
				<clipitem id="MVI_9833_josh02_small7">
					<name>MVI_9833_josh02_small</name>
					<duration>14750</duration>
					<rate>
						<ntsc>TRUE</ntsc>
						<timebase>24</timebase>
					</rate>
					<in>2642</in>
					<out>2848</out>
					<start>27262</start>
					<end>27468</end>
					<masterclipid>MVI_9833_josh02_small1</masterclipid>
					<logginginfo>
						<scene/>
						<shottake/>
						<lognote/>
						<good>FALSE</good>
					</logginginfo>
					<labels>
						<label2/>
					</labels>
					<comments>
						<mastercomment1/>
						<mastercomment2/>
						<mastercomment3/>
						<mastercomment4/>
					</comments>
					<file id="MVI_9833_josh02_small2"/>
					<marker>
						<name>originality</name>
						<comment>originality,homogeneity,gift,newness,new media old media</comment>
						<color>
							<alpha>0</alpha>
							<red>255</red>
							<green>0</green>
							<blue>0</blue>
						</color>
						<in>790</in>
						<out>1264</out>
					</marker>
					<marker>
						<name>geek culture</name>
						<comment>nerd,subcultures,social,tribe,social engagment, </comment>
						<color>
							<alpha>0</alpha>
							<red>255</red>
							<green>0</green>
							<blue>0</blue>
						</color>
						<in>1548</in>
						<out>2203</out>
					</marker>
					<marker>
						<name>relating</name>
						<comment>people,social,humanism,post digital, link:Maeda - about relationships</comment>
						<color>
							<alpha>0</alpha>
							<red>255</red>
							<green>0</green>
							<blue>0</blue>
						</color>
						<in>2642</in>
						<out>2848</out>
					</marker>
					<marker>
						<name>immersion</name>
						<comment>weird, funny, immersion,virtual,virtual reality, food</comment>
						<color>
							<alpha>0</alpha>
							<red>255</red>
							<green>0</green>
							<blue>0</blue>
						</color>
						<in>4419</in>
						<out>4568</out>
					</marker>
					<marker>
						<name>immersion2</name>
						<comment>immersion,virtual,virtual reality,future of cinema,technological progress</comment>
						<color>
							<alpha>0</alpha>
							<red>255</red>
							<green>0</green>
							<blue>0</blue>
						</color>
						<in>4661</in>
						<out>4901</out>
					</marker>
					<marker>
						<name>they will learn</name>
						<comment>Future of cinema</comment>
						<color>
							<alpha>0</alpha>
							<red>255</red>
							<green>0</green>
							<blue>0</blue>
						</color>
						<in>7611</in>
						<out>7965</out>
					</marker>
					<filter>
						<effect>
							<name>Audio Levels</name>
							<effectid>audiolevels</effectid>
							<effectcategory>audiolevels</effectcategory>
							<effecttype>audiolevels</effecttype>
							<mediatype>audio</mediatype>
							<parameter>
								<name>Level</name>
								<parameterid>level</parameterid>
								<valuemin>0</valuemin>
								<valuemax>3.98109</valuemax>
								<value>1</value>
							</parameter>
						</effect>
					</filter>
					<filter>
						<effect>
							<name>Audio Pan</name>
							<effectid>audiopan</effectid>
							<effectcategory>audiopan</effectcategory>
							<effecttype>audiopan</effecttype>
							<mediatype>audio</mediatype>
							<parameter>
								<name>Pan</name>
								<parameterid>pan</parameterid>
								<valuemin>-1</valuemin>
								<valuemax>1</valuemax>
								<value>1</value>
							</parameter>
						</effect>
					</filter>
					<sourcetrack>
						<mediatype>audio</mediatype>
						<trackindex>2</trackindex>
					</sourcetrack>
					<link>
						<linkclipref>MVI_9833_josh02_small5</linkclipref>
						<mediatype>video</mediatype>
						<trackindex>1</trackindex>
						<clipindex>6</clipindex>
					</link>
					<link>
						<linkclipref>MVI_9833_josh02_small6</linkclipref>
						<mediatype>audio</mediatype>
						<trackindex>1</trackindex>
						<clipindex>6</clipindex>
						<groupindex>1</groupindex>
					</link>
					<link>
						<linkclipref>MVI_9833_josh02_small7</linkclipref>
						<mediatype>audio</mediatype>
						<trackindex>2</trackindex>
						<clipindex>6</clipindex>
						<groupindex>1</groupindex>
					</link>
					<itemhistory>
						<uuid>744BAB7A-ED3B-4060-923D-A549CD1F95E1</uuid>
						<uuid>043DC6EF-46B7-4FDF-91D5-EA3ADF928A24</uuid>
					</itemhistory>
				</clipitem>
				<clipitem id="MVI_9833_josh02_small10">
					<name>MVI_9833_josh02_small</name>
					<duration>14750</duration>
					<rate>
						<ntsc>TRUE</ntsc>
						<timebase>24</timebase>
					</rate>
					<in>2848</in>
					<out>14750</out>
					<start>27468</start>
					<end>39370</end>
					<masterclipid>MVI_9833_josh02_small1</masterclipid>
					<logginginfo>
						<scene/>
						<shottake/>
						<lognote/>
						<good>FALSE</good>
					</logginginfo>
					<labels>
						<label2/>
					</labels>
					<comments>
						<mastercomment1/>
						<mastercomment2/>
						<mastercomment3/>
						<mastercomment4/>
					</comments>
					<file id="MVI_9833_josh02_small2"/>
					<marker>
						<name>originality</name>
						<comment>originality,homogeneity,gift,newness,new media old media</comment>
						<color>
							<alpha>0</alpha>
							<red>255</red>
							<green>0</green>
							<blue>0</blue>
						</color>
						<in>790</in>
						<out>1264</out>
					</marker>
					<marker>
						<name>geek culture</name>
						<comment>nerd,subcultures,social,tribe,social engagment, </comment>
						<color>
							<alpha>0</alpha>
							<red>255</red>
							<green>0</green>
							<blue>0</blue>
						</color>
						<in>1548</in>
						<out>2203</out>
					</marker>
					<marker>
						<name>relating</name>
						<comment>people,social,humanism,post digital, link:Maeda - about relationships</comment>
						<color>
							<alpha>0</alpha>
							<red>255</red>
							<green>0</green>
							<blue>0</blue>
						</color>
						<in>2642</in>
						<out>2848</out>
					</marker>
					<marker>
						<name>immersion</name>
						<comment>weird, funny, immersion,virtual,virtual reality, food</comment>
						<color>
							<alpha>0</alpha>
							<red>255</red>
							<green>0</green>
							<blue>0</blue>
						</color>
						<in>4419</in>
						<out>4568</out>
					</marker>
					<marker>
						<name>immersion2</name>
						<comment>immersion,virtual,virtual reality,future of cinema,technological progress</comment>
						<color>
							<alpha>0</alpha>
							<red>255</red>
							<green>0</green>
							<blue>0</blue>
						</color>
						<in>4661</in>
						<out>4901</out>
					</marker>
					<marker>
						<name>they will learn</name>
						<comment>Future of cinema</comment>
						<color>
							<alpha>0</alpha>
							<red>255</red>
							<green>0</green>
							<blue>0</blue>
						</color>
						<in>7611</in>
						<out>7965</out>
					</marker>
					<filter>
						<effect>
							<name>Audio Levels</name>
							<effectid>audiolevels</effectid>
							<effectcategory>audiolevels</effectcategory>
							<effecttype>audiolevels</effecttype>
							<mediatype>audio</mediatype>
							<parameter>
								<name>Level</name>
								<parameterid>level</parameterid>
								<valuemin>0</valuemin>
								<valuemax>3.98109</valuemax>
								<value>1</value>
							</parameter>
						</effect>
					</filter>
					<filter>
						<effect>
							<name>Audio Pan</name>
							<effectid>audiopan</effectid>
							<effectcategory>audiopan</effectcategory>
							<effecttype>audiopan</effecttype>
							<mediatype>audio</mediatype>
							<parameter>
								<name>Pan</name>
								<parameterid>pan</parameterid>
								<valuemin>-1</valuemin>
								<valuemax>1</valuemax>
								<value>1</value>
							</parameter>
						</effect>
					</filter>
					<sourcetrack>
						<mediatype>audio</mediatype>
						<trackindex>2</trackindex>
					</sourcetrack>
					<link>
						<linkclipref>MVI_9833_josh02_small8</linkclipref>
						<mediatype>video</mediatype>
						<trackindex>1</trackindex>
						<clipindex>7</clipindex>
					</link>
					<link>
						<linkclipref>MVI_9833_josh02_small9</linkclipref>
						<mediatype>audio</mediatype>
						<trackindex>1</trackindex>
						<clipindex>7</clipindex>
						<groupindex>1</groupindex>
					</link>
					<link>
						<linkclipref>MVI_9833_josh02_small10</linkclipref>
						<mediatype>audio</mediatype>
						<trackindex>2</trackindex>
						<clipindex>7</clipindex>
						<groupindex>1</groupindex>
					</link>
					<itemhistory>
						<uuid>FFC861BA-5E7F-4535-8A96-E917BB0050A4</uuid>
						<uuid>043DC6EF-46B7-4FDF-91D5-EA3ADF928A24</uuid>
					</itemhistory>
				</clipitem>
				<clipitem id="MVI_9834_josh03_small4">
					<name>MVI_9834_josh03_small</name>
					<duration>6408</duration>
					<rate>
						<ntsc>TRUE</ntsc>
						<timebase>24</timebase>
					</rate>
					<in>0</in>
					<out>6408</out>
					<start>39370</start>
					<end>45778</end>
					<masterclipid>MVI_9834_josh03_small1</masterclipid>
					<logginginfo>
						<scene/>
						<shottake/>
						<lognote/>
						<good>FALSE</good>
					</logginginfo>
					<labels>
						<label2/>
					</labels>
					<comments>
						<mastercomment1/>
						<mastercomment2/>
						<mastercomment3/>
						<mastercomment4/>
					</comments>
					<file id="MVI_9834_josh03_small2"/>
					<marker>
						<name>icosahedron</name>
						<comment>dynamics,particles,geometry</comment>
						<color>
							<alpha>0</alpha>
							<red>255</red>
							<green>0</green>
							<blue>0</blue>
						</color>
						<in>3046</in>
						<out>3223</out>
					</marker>
					<marker>
						<name>Marker 2</name>
						<comment/>
						<color>
							<alpha>0</alpha>
							<red>255</red>
							<green>0</green>
							<blue>0</blue>
						</color>
						<in>5314</in>
						<out>5675</out>
					</marker>
					<filter>
						<effect>
							<name>Audio Levels</name>
							<effectid>audiolevels</effectid>
							<effectcategory>audiolevels</effectcategory>
							<effecttype>audiolevels</effecttype>
							<mediatype>audio</mediatype>
							<parameter>
								<name>Level</name>
								<parameterid>level</parameterid>
								<valuemin>0</valuemin>
								<valuemax>3.98109</valuemax>
								<value>1</value>
							</parameter>
						</effect>
					</filter>
					<filter>
						<effect>
							<name>Audio Pan</name>
							<effectid>audiopan</effectid>
							<effectcategory>audiopan</effectcategory>
							<effecttype>audiopan</effecttype>
							<mediatype>audio</mediatype>
							<parameter>
								<name>Pan</name>
								<parameterid>pan</parameterid>
								<valuemin>-1</valuemin>
								<valuemax>1</valuemax>
								<value>1</value>
							</parameter>
						</effect>
					</filter>
					<sourcetrack>
						<mediatype>audio</mediatype>
						<trackindex>2</trackindex>
					</sourcetrack>
					<link>
						<linkclipref>MVI_9834_josh03_small</linkclipref>
						<mediatype>video</mediatype>
						<trackindex>1</trackindex>
						<clipindex>8</clipindex>
					</link>
					<link>
						<linkclipref>MVI_9834_josh03_small3</linkclipref>
						<mediatype>audio</mediatype>
						<trackindex>1</trackindex>
						<clipindex>8</clipindex>
						<groupindex>1</groupindex>
					</link>
					<link>
						<linkclipref>MVI_9834_josh03_small4</linkclipref>
						<mediatype>audio</mediatype>
						<trackindex>2</trackindex>
						<clipindex>8</clipindex>
						<groupindex>1</groupindex>
					</link>
					<itemhistory>
						<uuid>701EFE47-8776-4A03-B709-A42E9A4A2488</uuid>
					</itemhistory>
				</clipitem>
				<clipitem id="MVI_9835_josh04_small4">
					<name>MVI_9835_josh04_small</name>
					<duration>3092</duration>
					<rate>
						<ntsc>TRUE</ntsc>
						<timebase>24</timebase>
					</rate>
					<in>0</in>
					<out>3092</out>
					<start>45778</start>
					<end>48870</end>
					<masterclipid>MVI_9835_josh04_small1</masterclipid>
					<logginginfo>
						<scene/>
						<shottake/>
						<lognote/>
						<good>FALSE</good>
					</logginginfo>
					<labels>
						<label2/>
					</labels>
					<comments>
						<mastercomment1/>
						<mastercomment2/>
						<mastercomment3/>
						<mastercomment4/>
					</comments>
					<file id="MVI_9835_josh04_small2"/>
					<marker>
						<name>corporate</name>
						<comment>commercialism,corporate,money,career</comment>
						<color>
							<alpha>0</alpha>
							<red>255</red>
							<green>0</green>
							<blue>0</blue>
						</color>
						<in>1618</in>
						<out>2449</out>
					</marker>
					<filter>
						<effect>
							<name>Audio Levels</name>
							<effectid>audiolevels</effectid>
							<effectcategory>audiolevels</effectcategory>
							<effecttype>audiolevels</effecttype>
							<mediatype>audio</mediatype>
							<parameter>
								<name>Level</name>
								<parameterid>level</parameterid>
								<valuemin>0</valuemin>
								<valuemax>3.98109</valuemax>
								<value>1</value>
							</parameter>
						</effect>
					</filter>
					<filter>
						<effect>
							<name>Audio Pan</name>
							<effectid>audiopan</effectid>
							<effectcategory>audiopan</effectcategory>
							<effecttype>audiopan</effecttype>
							<mediatype>audio</mediatype>
							<parameter>
								<name>Pan</name>
								<parameterid>pan</parameterid>
								<valuemin>-1</valuemin>
								<valuemax>1</valuemax>
								<value>1</value>
							</parameter>
						</effect>
					</filter>
					<sourcetrack>
						<mediatype>audio</mediatype>
						<trackindex>2</trackindex>
					</sourcetrack>
					<link>
						<linkclipref>MVI_9835_josh04_small</linkclipref>
						<mediatype>video</mediatype>
						<trackindex>1</trackindex>
						<clipindex>9</clipindex>
					</link>
					<link>
						<linkclipref>MVI_9835_josh04_small3</linkclipref>
						<mediatype>audio</mediatype>
						<trackindex>1</trackindex>
						<clipindex>9</clipindex>
						<groupindex>1</groupindex>
					</link>
					<link>
						<linkclipref>MVI_9835_josh04_small4</linkclipref>
						<mediatype>audio</mediatype>
						<trackindex>2</trackindex>
						<clipindex>9</clipindex>
						<groupindex>1</groupindex>
					</link>
					<itemhistory>
						<uuid>4A18B6BA-08B3-44BC-B9A0-0DFC11DBC282</uuid>
					</itemhistory>
				</clipitem>
				<enabled>TRUE</enabled>
				<locked>FALSE</locked>
				<outputchannelindex>2</outputchannelindex>
			</track>
			<track>
				<enabled>TRUE</enabled>
				<locked>FALSE</locked>
				<outputchannelindex>1</outputchannelindex>
			</track>
			<track>
				<enabled>TRUE</enabled>
				<locked>FALSE</locked>
				<outputchannelindex>2</outputchannelindex>
			</track>
			<track>
				<clipitem id="josh00_original6">
					<name>josh00_original</name>
					<duration>7340</duration>
					<rate>
						<ntsc>TRUE</ntsc>
						<timebase>24</timebase>
					</rate>
					<in>0</in>
					<out>7340</out>
					<start>0</start>
					<end>7340</end>
					<masterclipid>josh00_original1</masterclipid>
					<logginginfo>
						<scene/>
						<shottake/>
						<lognote/>
						<good>FALSE</good>
					</logginginfo>
					<labels>
						<label2/>
					</labels>
					<comments>
						<mastercomment1/>
						<mastercomment2/>
						<mastercomment3/>
						<mastercomment4/>
					</comments>
					<file id="josh00_original2"/>
					<marker>
						<name>Pickle</name>
						<comment>beginnings,addiction,programming,nerd,hacker, weird, funny</comment>
						<color>
							<alpha>0</alpha>
							<red>255</red>
							<green>0</green>
							<blue>0</blue>
						</color>
						<in>6428</in>
						<out>6814</out>
					</marker>
					<filter>
						<effect>
							<name>Audio Levels</name>
							<effectid>audiolevels</effectid>
							<effectcategory>audiolevels</effectcategory>
							<effecttype>audiolevels</effecttype>
							<mediatype>audio</mediatype>
							<parameter>
								<name>Level</name>
								<parameterid>level</parameterid>
								<valuemin>0</valuemin>
								<valuemax>3.98109</valuemax>
								<value>1</value>
							</parameter>
						</effect>
					</filter>
					<filter>
						<effect>
							<name>Audio Pan</name>
							<effectid>audiopan</effectid>
							<effectcategory>audiopan</effectcategory>
							<effecttype>audiopan</effecttype>
							<mediatype>audio</mediatype>
							<parameter>
								<name>Pan</name>
								<parameterid>pan</parameterid>
								<valuemin>-1</valuemin>
								<valuemax>1</valuemax>
								<value>-1</value>
							</parameter>
						</effect>
					</filter>
					<sourcetrack>
						<mediatype>audio</mediatype>
						<trackindex>1</trackindex>
					</sourcetrack>
					<link>
						<linkclipref>josh00_original5</linkclipref>
						<mediatype>video</mediatype>
						<trackindex>3</trackindex>
						<clipindex>1</clipindex>
					</link>
					<link>
						<linkclipref>josh00_original6</linkclipref>
						<mediatype>audio</mediatype>
						<trackindex>5</trackindex>
						<clipindex>1</clipindex>
						<groupindex>1</groupindex>
					</link>
					<link>
						<linkclipref>josh00_original7</linkclipref>
						<mediatype>audio</mediatype>
						<trackindex>6</trackindex>
						<clipindex>1</clipindex>
						<groupindex>1</groupindex>
					</link>
					<itemhistory>
						<uuid>315176E8-FD43-4C97-82AF-47A997193606</uuid>
						<uuid>3CA4820F-4F39-4DD8-AEF6-7225C7482219</uuid>
					</itemhistory>
				</clipitem>
				<enabled>TRUE</enabled>
				<locked>FALSE</locked>
				<outputchannelindex>1</outputchannelindex>
			</track>
			<track>
				<clipitem id="josh00_original7">
					<name>josh00_original</name>
					<duration>7340</duration>
					<rate>
						<ntsc>TRUE</ntsc>
						<timebase>24</timebase>
					</rate>
					<in>0</in>
					<out>7340</out>
					<start>0</start>
					<end>7340</end>
					<masterclipid>josh00_original1</masterclipid>
					<logginginfo>
						<scene/>
						<shottake/>
						<lognote/>
						<good>FALSE</good>
					</logginginfo>
					<labels>
						<label2/>
					</labels>
					<comments>
						<mastercomment1/>
						<mastercomment2/>
						<mastercomment3/>
						<mastercomment4/>
					</comments>
					<file id="josh00_original2"/>
					<marker>
						<name>Pickle</name>
						<comment>beginnings,addiction,programming,nerd,hacker, weird, funny</comment>
						<color>
							<alpha>0</alpha>
							<red>255</red>
							<green>0</green>
							<blue>0</blue>
						</color>
						<in>6428</in>
						<out>6814</out>
					</marker>
					<filter>
						<effect>
							<name>Audio Levels</name>
							<effectid>audiolevels</effectid>
							<effectcategory>audiolevels</effectcategory>
							<effecttype>audiolevels</effecttype>
							<mediatype>audio</mediatype>
							<parameter>
								<name>Level</name>
								<parameterid>level</parameterid>
								<valuemin>0</valuemin>
								<valuemax>3.98109</valuemax>
								<value>1</value>
							</parameter>
						</effect>
					</filter>
					<filter>
						<effect>
							<name>Audio Pan</name>
							<effectid>audiopan</effectid>
							<effectcategory>audiopan</effectcategory>
							<effecttype>audiopan</effecttype>
							<mediatype>audio</mediatype>
							<parameter>
								<name>Pan</name>
								<parameterid>pan</parameterid>
								<valuemin>-1</valuemin>
								<valuemax>1</valuemax>
								<value>1</value>
							</parameter>
						</effect>
					</filter>
					<sourcetrack>
						<mediatype>audio</mediatype>
						<trackindex>2</trackindex>
					</sourcetrack>
					<link>
						<linkclipref>josh00_original5</linkclipref>
						<mediatype>video</mediatype>
						<trackindex>3</trackindex>
						<clipindex>1</clipindex>
					</link>
					<link>
						<linkclipref>josh00_original6</linkclipref>
						<mediatype>audio</mediatype>
						<trackindex>5</trackindex>
						<clipindex>1</clipindex>
						<groupindex>1</groupindex>
					</link>
					<link>
						<linkclipref>josh00_original7</linkclipref>
						<mediatype>audio</mediatype>
						<trackindex>6</trackindex>
						<clipindex>1</clipindex>
						<groupindex>1</groupindex>
					</link>
					<itemhistory>
						<uuid>D3A246B0-9CDC-4ECE-8E0A-0267C9F2FFE5</uuid>
						<uuid>3C1C2D85-F051-49ED-8D94-9D02562A0A38</uuid>
					</itemhistory>
				</clipitem>
				<enabled>TRUE</enabled>
				<locked>FALSE</locked>
				<outputchannelindex>2</outputchannelindex>
			</track>
			<filter>
				<effect>
					<name>Audio Levels</name>
					<effectid>audiolevels</effectid>
					<effectcategory>audiolevels</effectcategory>
					<effecttype>audiolevels</effecttype>
					<mediatype>audio</mediatype>
					<parameter>
						<name>Level</name>
						<parameterid>level</parameterid>
						<valuemin>0</valuemin>
						<valuemax>3.98109</valuemax>
						<value>1</value>
					</parameter>
				</effect>
			</filter>
		</audio>
	</media>
	<ismasterclip>FALSE</ismasterclip>
</sequence>
<sequence id="Julia">
	<uuid>487B3225-9CAB-4CAB-BE4D-066488896071</uuid>
	<updatebehavior>add</updatebehavior>
	<name>Julia</name>
	<duration>70204</duration>
	<rate>
		<ntsc>TRUE</ntsc>
		<timebase>24</timebase>
	</rate>
	<timecode>
		<rate>
			<ntsc>TRUE</ntsc>
			<timebase>24</timebase>
		</rate>
		<string>01:00:00:00</string>
		<frame>86400</frame>
		<source>source</source>
		<displayformat>NDF</displayformat>
	</timecode>
	<in>-1</in>
	<out>-1</out>
	<media>
		<video>
			<format>
				<samplecharacteristics>
					<width>1920</width>
					<height>1080</height>
					<anamorphic>FALSE</anamorphic>
					<pixelaspectratio>Square</pixelaspectratio>
					<fielddominance>none</fielddominance>
					<rate>
						<ntsc>TRUE</ntsc>
						<timebase>24</timebase>
					</rate>
					<colordepth>24</colordepth>
					<codec>
						<name>Apple ProRes 422</name>
						<appspecificdata>
							<appname>Final Cut Pro</appname>
							<appmanufacturer>Apple Inc.</appmanufacturer>
							<appversion>7.0</appversion>
							<data>
								<qtcodec>
									<codecname>Apple ProRes 422</codecname>
									<codectypename>Apple ProRes 422 (HQ)</codectypename>
									<codectypecode>apch</codectypecode>
									<codecvendorcode>appl</codecvendorcode>
									<spatialquality>1024</spatialquality>
									<temporalquality>0</temporalquality>
									<keyframerate>0</keyframerate>
									<datarate>0</datarate>
								</qtcodec>
							</data>
						</appspecificdata>
					</codec>
				</samplecharacteristics>
				<appspecificdata>
					<appname>Final Cut Pro</appname>
					<appmanufacturer>Apple Inc.</appmanufacturer>
					<appversion>7.0</appversion>
					<data>
						<fcpimageprocessing>
							<useyuv>TRUE</useyuv>
							<usesuperwhite>FALSE</usesuperwhite>
							<rendermode>Float10BPP</rendermode>
						</fcpimageprocessing>
					</data>
				</appspecificdata>
			</format>
			<track>
				<clipitem id="MVI_1005 ">
					<name>MVI_1005</name>
					<duration>1940</duration>
					<rate>
						<ntsc>TRUE</ntsc>
						<timebase>24</timebase>
					</rate>
					<in>0</in>
					<out>1940</out>
					<start>0</start>
					<end>1940</end>
					<pixelaspectratio>Square</pixelaspectratio>
					<anamorphic>FALSE</anamorphic>
					<alphatype>none</alphatype>
					<masterclipid>MVI_1005 1</masterclipid>
					<logginginfo>
						<scene/>
						<shottake/>
						<lognote/>
						<good>FALSE</good>
					</logginginfo>
					<labels>
						<label2/>
					</labels>
					<comments>
						<mastercomment1/>
						<mastercomment2/>
						<mastercomment3/>
						<mastercomment4/>
					</comments>
					<file id="MVI_1005 2">
						<name>MVI_1005.mov</name>
						<pathurl>file://localhost/Volumes/Nebula/MediaPackages/EyeoMediaBin/Julia01/color/MVI_1005.mov</pathurl>
						<rate>
							<timebase>24</timebase>
							<ntsc>TRUE</ntsc>
						</rate>
						<duration>1940</duration>
						<media>
							<video>
								<duration>1940</duration>
								<samplecharacteristics>
									<width>1920</width>
									<height>1080</height>
								</samplecharacteristics>
							</video>
							<audio>
								<samplecharacteristics>
									<samplerate>48000</samplerate>
									<depth>16</depth>
								</samplecharacteristics>
								<channelcount>2</channelcount>
							</audio>
						</media>
					</file>
					<marker>
						<name>museum, emotion</name>
						<comment>museum, education, educational technology, humanity, people,&#13;link:Maeda - Digital divide</comment>
						<color>
							<alpha>0</alpha>
							<red>255</red>
							<green>0</green>
							<blue>0</blue>
						</color>
						<in>930</in>
						<out>1416</out>
					</marker>
					<sourcetrack>
						<mediatype>video</mediatype>
					</sourcetrack>
					<link>
						<linkclipref>MVI_1005 </linkclipref>
						<mediatype>video</mediatype>
						<trackindex>1</trackindex>
						<clipindex>1</clipindex>
					</link>
					<link>
						<linkclipref>MVI_1005 3</linkclipref>
						<mediatype>audio</mediatype>
						<trackindex>1</trackindex>
						<clipindex>1</clipindex>
						<groupindex>1</groupindex>
					</link>
					<link>
						<linkclipref>MVI_1005 4</linkclipref>
						<mediatype>audio</mediatype>
						<trackindex>2</trackindex>
						<clipindex>1</clipindex>
						<groupindex>1</groupindex>
					</link>
					<fielddominance>none</fielddominance>
					<itemhistory>
						<uuid>11A92C24-5F1E-4095-BAFD-24426B125EF9</uuid>
					</itemhistory>
				</clipitem>
				<clipitem id="MVI_1006 ">
					<name>MVI_1006</name>
					<duration>16355</duration>
					<rate>
						<ntsc>TRUE</ntsc>
						<timebase>24</timebase>
					</rate>
					<in>0</in>
					<out>16355</out>
					<start>1940</start>
					<end>18295</end>
					<pixelaspectratio>Square</pixelaspectratio>
					<anamorphic>FALSE</anamorphic>
					<alphatype>none</alphatype>
					<masterclipid>MVI_1006 1</masterclipid>
					<logginginfo>
						<scene/>
						<shottake/>
						<lognote/>
						<good>FALSE</good>
					</logginginfo>
					<labels>
						<label2/>
					</labels>
					<comments>
						<mastercomment1/>
						<mastercomment2/>
						<mastercomment3/>
						<mastercomment4/>
					</comments>
					<file id="MVI_1006 2">
						<name>MVI_1006.mov</name>
						<pathurl>file://localhost/Volumes/Nebula/MediaPackages/EyeoMediaBin/Julia02/color/MVI_1006.mov</pathurl>
						<rate>
							<timebase>24</timebase>
							<ntsc>TRUE</ntsc>
						</rate>
						<duration>16355</duration>
						<media>
							<video>
								<duration>16355</duration>
								<samplecharacteristics>
									<width>1920</width>
									<height>1080</height>
								</samplecharacteristics>
							</video>
							<audio>
								<samplecharacteristics>
									<samplerate>48000</samplerate>
									<depth>16</depth>
								</samplecharacteristics>
								<channelcount>2</channelcount>
							</audio>
						</media>
					</file>
					<marker>
						<name>Marker 1</name>
						<comment/>
						<color>
							<alpha>0</alpha>
							<red>255</red>
							<green>0</green>
							<blue>0</blue>
						</color>
						<in>1245</in>
						<out>2391</out>
					</marker>
					<marker>
						<name>Paola</name>
						<comment>Paola Antonelli,</comment>
						<color>
							<alpha>0</alpha>
							<red>255</red>
							<green>0</green>
							<blue>0</blue>
						</color>
						<in>4220</in>
						<out>5055</out>
					</marker>
					<marker>
						<name>community</name>
						<comment>who is the community?,&#13;R&amp;D,community,open frameworks,subcultures,hacker artists</comment>
						<color>
							<alpha>0</alpha>
							<red>255</red>
							<green>0</green>
							<blue>0</blue>
						</color>
						<in>8320</in>
						<out>9697</out>
					</marker>
					<marker>
						<name>tech to pop culture</name>
						<comment>popular culture,social engagment,culture,social</comment>
						<color>
							<alpha>0</alpha>
							<red>255</red>
							<green>0</green>
							<blue>0</blue>
						</color>
						<in>11275</in>
						<out>11572</out>
					</marker>
					<marker>
						<name>propagates itself</name>
						<comment>virality,visual language,software</comment>
						<color>
							<alpha>0</alpha>
							<red>255</red>
							<green>0</green>
							<blue>0</blue>
						</color>
						<in>12549</in>
						<out>13010</out>
					</marker>
					<sourcetrack>
						<mediatype>video</mediatype>
					</sourcetrack>
					<link>
						<linkclipref>MVI_1006 </linkclipref>
						<mediatype>video</mediatype>
						<trackindex>1</trackindex>
						<clipindex>2</clipindex>
					</link>
					<link>
						<linkclipref>MVI_1006 3</linkclipref>
						<mediatype>audio</mediatype>
						<trackindex>1</trackindex>
						<clipindex>2</clipindex>
						<groupindex>1</groupindex>
					</link>
					<link>
						<linkclipref>MVI_1006 4</linkclipref>
						<mediatype>audio</mediatype>
						<trackindex>2</trackindex>
						<clipindex>2</clipindex>
						<groupindex>1</groupindex>
					</link>
					<fielddominance>none</fielddominance>
					<itemhistory>
						<uuid>5B9BFFEB-67F5-4E91-A88F-B538D46ABEA2</uuid>
					</itemhistory>
				</clipitem>
				<clipitem id="MVI_1007 ">
					<name>MVI_1007</name>
					<duration>10978</duration>
					<rate>
						<ntsc>TRUE</ntsc>
						<timebase>24</timebase>
					</rate>
					<in>0</in>
					<out>10978</out>
					<start>18295</start>
					<end>29273</end>
					<pixelaspectratio>Square</pixelaspectratio>
					<anamorphic>FALSE</anamorphic>
					<alphatype>none</alphatype>
					<masterclipid>MVI_1007 1</masterclipid>
					<logginginfo>
						<scene/>
						<shottake/>
						<lognote/>
						<good>FALSE</good>
					</logginginfo>
					<labels>
						<label2/>
					</labels>
					<comments>
						<mastercomment1/>
						<mastercomment2/>
						<mastercomment3/>
						<mastercomment4/>
					</comments>
					<file id="MVI_1007 2">
						<name>MVI_1007.mov</name>
						<pathurl>file://localhost/Volumes/Nebula/MediaPackages/EyeoMediaBin/Julia03/color/MVI_1007.mov</pathurl>
						<rate>
							<timebase>24</timebase>
							<ntsc>TRUE</ntsc>
						</rate>
						<duration>10978</duration>
						<media>
							<video>
								<duration>10978</duration>
								<samplecharacteristics>
									<width>1920</width>
									<height>1080</height>
								</samplecharacteristics>
							</video>
							<audio>
								<samplecharacteristics>
									<samplerate>48000</samplerate>
									<depth>16</depth>
								</samplecharacteristics>
								<channelcount>2</channelcount>
							</audio>
						</media>
					</file>
					<marker>
						<name>human in tech</name>
						<comment>man vs machine,humanism,people,emotion,social&#13;link:Jer - Active not interactive</comment>
						<color>
							<alpha>0</alpha>
							<red>255</red>
							<green>0</green>
							<blue>0</blue>
						</color>
						<in>1081</in>
						<out>1914</out>
					</marker>
					<marker>
						<name>what is it doing to us</name>
						<comment>technological progress,humanism,social engagment,people,&#13;link:Marius - new tools change perception</comment>
						<color>
							<alpha>0</alpha>
							<red>255</red>
							<green>0</green>
							<blue>0</blue>
						</color>
						<in>2098</in>
						<out>2684</out>
					</marker>
					<marker>
						<name>million facebook</name>
						<comment>privacy,security,art and security,social,hacking,hacktivism,link:Kyle_MC - Hackers and artists,&#13;link:Jer - lives being documented through data</comment>
						<color>
							<alpha>0</alpha>
							<red>255</red>
							<green>0</green>
							<blue>0</blue>
						</color>
						<in>4929</in>
						<out>5815</out>
					</marker>
					<marker>
						<name>link to jer</name>
						<comment>link:Jer - lives being documented through data</comment>
						<color>
							<alpha>0</alpha>
							<red>48</red>
							<green>191</green>
							<blue>72</blue>
						</color>
						<in>5730</in>
						<out>5815</out>
					</marker>
					<marker>
						<name>Who owns the internet?</name>
						<comment>internet,power,control,security,network,network security</comment>
						<color>
							<alpha>0</alpha>
							<red>255</red>
							<green>0</green>
							<blue>0</blue>
						</color>
						<in>9334</in>
						<out>9975</out>
					</marker>
					<sourcetrack>
						<mediatype>video</mediatype>
					</sourcetrack>
					<link>
						<linkclipref>MVI_1007 </linkclipref>
						<mediatype>video</mediatype>
						<trackindex>1</trackindex>
						<clipindex>3</clipindex>
					</link>
					<link>
						<linkclipref>MVI_1007 3</linkclipref>
						<mediatype>audio</mediatype>
						<trackindex>1</trackindex>
						<clipindex>3</clipindex>
						<groupindex>1</groupindex>
					</link>
					<link>
						<linkclipref>MVI_1007 4</linkclipref>
						<mediatype>audio</mediatype>
						<trackindex>2</trackindex>
						<clipindex>3</clipindex>
						<groupindex>1</groupindex>
					</link>
					<fielddominance>none</fielddominance>
					<itemhistory>
						<uuid>31362CCF-1391-4D48-80EA-4E508372DE06</uuid>
					</itemhistory>
				</clipitem>
				<clipitem id="MVI_1008 ">
					<name>MVI_1008</name>
					<duration>13187</duration>
					<rate>
						<ntsc>TRUE</ntsc>
						<timebase>24</timebase>
					</rate>
					<in>0</in>
					<out>13187</out>
					<start>29273</start>
					<end>42460</end>
					<pixelaspectratio>Square</pixelaspectratio>
					<anamorphic>FALSE</anamorphic>
					<alphatype>none</alphatype>
					<masterclipid>MVI_1008 1</masterclipid>
					<logginginfo>
						<scene/>
						<shottake/>
						<lognote/>
						<good>FALSE</good>
					</logginginfo>
					<labels>
						<label2/>
					</labels>
					<comments>
						<mastercomment1/>
						<mastercomment2/>
						<mastercomment3/>
						<mastercomment4/>
					</comments>
					<file id="MVI_1008 2">
						<name>MVI_1008.mov</name>
						<pathurl>file://localhost/Volumes/Nebula/MediaPackages/EyeoMediaBin/Julia04/color/MVI_1008.mov</pathurl>
						<rate>
							<timebase>24</timebase>
							<ntsc>TRUE</ntsc>
						</rate>
						<duration>13187</duration>
						<media>
							<video>
								<duration>13187</duration>
								<samplecharacteristics>
									<width>1920</width>
									<height>1080</height>
								</samplecharacteristics>
							</video>
							<audio>
								<samplecharacteristics>
									<samplerate>48000</samplerate>
									<depth>16</depth>
								</samplecharacteristics>
								<channelcount>2</channelcount>
							</audio>
						</media>
					</file>
					<marker>
						<name>program or be programmed</name>
						<comment>program or be programmed,technological progress,progress,code for humanity,control,users,tools,society</comment>
						<color>
							<alpha>0</alpha>
							<red>255</red>
							<green>0</green>
							<blue>0</blue>
						</color>
						<in>1898</in>
						<out>3867</out>
					</marker>
					<marker>
						<name>open source and ego</name>
						<comment>open source,sharing,ego</comment>
						<color>
							<alpha>0</alpha>
							<red>255</red>
							<green>0</green>
							<blue>0</blue>
						</color>
						<in>6650</in>
						<out>7257</out>
					</marker>
					<marker>
						<name>can't be solitary</name>
						<comment>open source,sharing,ego,tools,</comment>
						<color>
							<alpha>0</alpha>
							<red>255</red>
							<green>0</green>
							<blue>0</blue>
						</color>
						<in>8036</in>
						<out>9283</out>
					</marker>
					<marker>
						<name>work in context</name>
						<comment>dialogue,social engagment,criticality,society</comment>
						<color>
							<alpha>0</alpha>
							<red>255</red>
							<green>0</green>
							<blue>0</blue>
						</color>
						<in>11895</in>
						<out>12389</out>
					</marker>
					<marker>
						<name>aesthetic value</name>
						<comment>beauty,aesthetics,visual culture</comment>
						<color>
							<alpha>0</alpha>
							<red>255</red>
							<green>0</green>
							<blue>0</blue>
						</color>
						<in>12517</in>
						<out>12986</out>
					</marker>
					<sourcetrack>
						<mediatype>video</mediatype>
					</sourcetrack>
					<link>
						<linkclipref>MVI_1008 </linkclipref>
						<mediatype>video</mediatype>
						<trackindex>1</trackindex>
						<clipindex>4</clipindex>
					</link>
					<link>
						<linkclipref>MVI_1008 3</linkclipref>
						<mediatype>audio</mediatype>
						<trackindex>1</trackindex>
						<clipindex>4</clipindex>
						<groupindex>1</groupindex>
					</link>
					<link>
						<linkclipref>MVI_1008 4</linkclipref>
						<mediatype>audio</mediatype>
						<trackindex>2</trackindex>
						<clipindex>4</clipindex>
						<groupindex>1</groupindex>
					</link>
					<fielddominance>none</fielddominance>
					<itemhistory>
						<uuid>A2C1617F-02D2-494D-81FE-C2E6D5E9D83E</uuid>
					</itemhistory>
				</clipitem>
				<clipitem id="MVI_1009 ">
					<name>MVI_1009</name>
					<duration>14025</duration>
					<rate>
						<ntsc>TRUE</ntsc>
						<timebase>24</timebase>
					</rate>
					<in>0</in>
					<out>14025</out>
					<start>42460</start>
					<end>56485</end>
					<pixelaspectratio>Square</pixelaspectratio>
					<anamorphic>FALSE</anamorphic>
					<alphatype>none</alphatype>
					<masterclipid>MVI_1009 1</masterclipid>
					<logginginfo>
						<scene/>
						<shottake/>
						<lognote/>
						<good>FALSE</good>
					</logginginfo>
					<labels>
						<label2/>
					</labels>
					<comments>
						<mastercomment1/>
						<mastercomment2/>
						<mastercomment3/>
						<mastercomment4/>
					</comments>
					<file id="MVI_1009 2">
						<name>MVI_1009.mov</name>
						<pathurl>file://localhost/Volumes/Nebula/MediaPackages/EyeoMediaBin/Julia05/color/MVI_1009.mov</pathurl>
						<rate>
							<timebase>24</timebase>
							<ntsc>TRUE</ntsc>
						</rate>
						<duration>14025</duration>
						<media>
							<video>
								<duration>14025</duration>
								<samplecharacteristics>
									<width>1920</width>
									<height>1080</height>
								</samplecharacteristics>
							</video>
							<audio>
								<samplecharacteristics>
									<samplerate>48000</samplerate>
									<depth>16</depth>
								</samplecharacteristics>
								<channelcount>2</channelcount>
							</audio>
						</media>
					</file>
					<marker>
						<name>how it makes me feel</name>
						<comment>experience,evaluation,perception,emotion,embodiment</comment>
						<color>
							<alpha>0</alpha>
							<red>255</red>
							<green>0</green>
							<blue>0</blue>
						</color>
						<in>1189</in>
						<out>1812</out>
					</marker>
					<marker>
						<name>new and interesting</name>
						<comment>newness, new media, evaluation, criticality,</comment>
						<color>
							<alpha>0</alpha>
							<red>255</red>
							<green>0</green>
							<blue>0</blue>
						</color>
						<in>2391</in>
						<out>2872</out>
					</marker>
					<marker>
						<name>emotional</name>
						<comment>feeling, emotion,&#13;</comment>
						<color>
							<alpha>0</alpha>
							<red>255</red>
							<green>0</green>
							<blue>0</blue>
						</color>
						<in>2897</in>
						<out>3464</out>
					</marker>
					<marker>
						<name>medium of our time</name>
						<comment>newness,technology,new media,art and tech,techpositive</comment>
						<color>
							<alpha>0</alpha>
							<red>255</red>
							<green>0</green>
							<blue>0</blue>
						</color>
						<in>4585</in>
						<out>5695</out>
					</marker>
					<marker>
						<name>we feel fine</name>
						<comment/>
						<color>
							<alpha>0</alpha>
							<red>255</red>
							<green>0</green>
							<blue>0</blue>
						</color>
						<in>7589</in>
						<out>8684</out>
					</marker>
					<marker>
						<name>Marker 6</name>
						<comment/>
						<color>
							<alpha>0</alpha>
							<red>255</red>
							<green>0</green>
							<blue>0</blue>
						</color>
						<in>10793</in>
						<out>-1</out>
					</marker>
					<marker>
						<name>strength of weak ties</name>
						<comment>social media,relationships,people,network,facebook,twitter</comment>
						<color>
							<alpha>0</alpha>
							<red>255</red>
							<green>0</green>
							<blue>0</blue>
						</color>
						<in>11352</in>
						<out>12901</out>
					</marker>
					<marker>
						<name>net friends</name>
						<comment>social media,relationships,people,network,facebook,twitter, community, </comment>
						<color>
							<alpha>0</alpha>
							<red>255</red>
							<green>0</green>
							<blue>0</blue>
						</color>
						<in>13035</in>
						<out>13864</out>
					</marker>
					<sourcetrack>
						<mediatype>video</mediatype>
					</sourcetrack>
					<link>
						<linkclipref>MVI_1009 </linkclipref>
						<mediatype>video</mediatype>
						<trackindex>1</trackindex>
						<clipindex>5</clipindex>
					</link>
					<link>
						<linkclipref>MVI_1009 3</linkclipref>
						<mediatype>audio</mediatype>
						<trackindex>1</trackindex>
						<clipindex>5</clipindex>
						<groupindex>1</groupindex>
					</link>
					<link>
						<linkclipref>MVI_1009 4</linkclipref>
						<mediatype>audio</mediatype>
						<trackindex>2</trackindex>
						<clipindex>5</clipindex>
						<groupindex>1</groupindex>
					</link>
					<fielddominance>none</fielddominance>
					<itemhistory>
						<uuid>388FFEB1-0086-486E-9C9F-C6604CF5093B</uuid>
					</itemhistory>
				</clipitem>
				<clipitem id="MVI_1010 ">
					<name>MVI_1010</name>
					<duration>13719</duration>
					<rate>
						<ntsc>TRUE</ntsc>
						<timebase>24</timebase>
					</rate>
					<in>0</in>
					<out>10974</out>
					<start>56485</start>
					<end>67459</end>
					<pixelaspectratio>Square</pixelaspectratio>
					<enabled>TRUE</enabled>
					<anamorphic>FALSE</anamorphic>
					<alphatype>none</alphatype>
					<masterclipid>MVI_1010 1</masterclipid>
					<logginginfo>
						<scene/>
						<shottake/>
						<lognote/>
						<good>FALSE</good>
					</logginginfo>
					<labels>
						<label2/>
					</labels>
					<comments>
						<mastercomment1/>
						<mastercomment2/>
						<mastercomment3/>
						<mastercomment4/>
					</comments>
					<file id="MVI_1010 2">
						<name>MVI_1010.mov</name>
						<pathurl>file://localhost/Volumes/Nebula/MediaPackages/EyeoMediaBin/Julia06/color/MVI_1010.mov</pathurl>
						<rate>
							<timebase>24</timebase>
							<ntsc>TRUE</ntsc>
						</rate>
						<duration>13719</duration>
						<media>
							<video>
								<duration>13719</duration>
								<samplecharacteristics>
									<width>1920</width>
									<height>1080</height>
								</samplecharacteristics>
							</video>
							<audio>
								<samplecharacteristics>
									<samplerate>48000</samplerate>
									<depth>16</depth>
								</samplecharacteristics>
								<channelcount>2</channelcount>
							</audio>
						</media>
					</file>
					<marker>
						<name>Marker 3</name>
						<comment/>
						<color>
							<alpha>0</alpha>
							<red>255</red>
							<green>0</green>
							<blue>0</blue>
						</color>
						<in>7233</in>
						<out>7848</out>
					</marker>
					<marker>
						<name>Marker 2</name>
						<comment/>
						<color>
							<alpha>0</alpha>
							<red>255</red>
							<green>0</green>
							<blue>0</blue>
						</color>
						<in>9364</in>
						<out>-1</out>
					</marker>
					<marker>
						<name>make us more compassionate</name>
						<comment>community, society, progress, interconnectedness</comment>
						<color>
							<alpha>0</alpha>
							<red>255</red>
							<green>0</green>
							<blue>0</blue>
						</color>
						<in>10974</in>
						<out>11684</out>
					</marker>
					<marker>
						<name>toward greater generosity</name>
						<comment>community, society, progress, interconnectedness, generosity, sharing, the gift</comment>
						<color>
							<alpha>0</alpha>
							<red>255</red>
							<green>0</green>
							<blue>0</blue>
						</color>
						<in>11816</in>
						<out>13566</out>
					</marker>
					<sourcetrack>
						<mediatype>video</mediatype>
					</sourcetrack>
					<link>
						<linkclipref>MVI_1010 </linkclipref>
						<mediatype>video</mediatype>
						<trackindex>1</trackindex>
						<clipindex>6</clipindex>
					</link>
					<link>
						<linkclipref>MVI_1010 3</linkclipref>
						<mediatype>audio</mediatype>
						<trackindex>1</trackindex>
						<clipindex>6</clipindex>
						<groupindex>1</groupindex>
					</link>
					<link>
						<linkclipref>MVI_1010 4</linkclipref>
						<mediatype>audio</mediatype>
						<trackindex>2</trackindex>
						<clipindex>6</clipindex>
						<groupindex>1</groupindex>
					</link>
					<fielddominance>none</fielddominance>
					<itemhistory>
						<uuid>7A3EFBD0-C50E-4CC0-B856-85CF19727B1E</uuid>
						<uuid>1320CFD1-91B6-41C3-8025-23FE89C347BC</uuid>
					</itemhistory>
				</clipitem>
				<clipitem id="MVI_1010 5">
					<name>MVI_1010</name>
					<duration>13719</duration>
					<rate>
						<ntsc>TRUE</ntsc>
						<timebase>24</timebase>
					</rate>
					<in>10974</in>
					<out>11684</out>
					<start>67459</start>
					<end>68169</end>
					<pixelaspectratio>Square</pixelaspectratio>
					<enabled>TRUE</enabled>
					<anamorphic>FALSE</anamorphic>
					<alphatype>none</alphatype>
					<masterclipid>MVI_1010 1</masterclipid>
					<logginginfo>
						<scene/>
						<shottake/>
						<lognote/>
						<good>FALSE</good>
					</logginginfo>
					<labels>
						<label2/>
					</labels>
					<comments>
						<mastercomment1/>
						<mastercomment2/>
						<mastercomment3/>
						<mastercomment4/>
					</comments>
					<file id="MVI_1010 2"/>
					<marker>
						<name>Marker 3</name>
						<comment/>
						<color>
							<alpha>0</alpha>
							<red>255</red>
							<green>0</green>
							<blue>0</blue>
						</color>
						<in>7233</in>
						<out>7848</out>
					</marker>
					<marker>
						<name>Marker 2</name>
						<comment/>
						<color>
							<alpha>0</alpha>
							<red>255</red>
							<green>0</green>
							<blue>0</blue>
						</color>
						<in>9364</in>
						<out>-1</out>
					</marker>
					<marker>
						<name>make us more compassionate</name>
						<comment>community, society, progress, interconnectedness</comment>
						<color>
							<alpha>0</alpha>
							<red>255</red>
							<green>0</green>
							<blue>0</blue>
						</color>
						<in>10974</in>
						<out>11684</out>
					</marker>
					<marker>
						<name>toward greater generosity</name>
						<comment>community, society, progress, interconnectedness, generosity, sharing, the gift</comment>
						<color>
							<alpha>0</alpha>
							<red>255</red>
							<green>0</green>
							<blue>0</blue>
						</color>
						<in>11816</in>
						<out>13566</out>
					</marker>
					<sourcetrack>
						<mediatype>video</mediatype>
					</sourcetrack>
					<link>
						<linkclipref>MVI_1010 5</linkclipref>
						<mediatype>video</mediatype>
						<trackindex>1</trackindex>
						<clipindex>7</clipindex>
					</link>
					<link>
						<linkclipref>MVI_1010 6</linkclipref>
						<mediatype>audio</mediatype>
						<trackindex>1</trackindex>
						<clipindex>7</clipindex>
						<groupindex>1</groupindex>
					</link>
					<link>
						<linkclipref>MVI_1010 7</linkclipref>
						<mediatype>audio</mediatype>
						<trackindex>2</trackindex>
						<clipindex>7</clipindex>
						<groupindex>1</groupindex>
					</link>
					<fielddominance>none</fielddominance>
					<itemhistory>
						<uuid>EA81A2E7-41E2-46BA-B6A3-2B207A17CAF5</uuid>
						<uuid>1320CFD1-91B6-41C3-8025-23FE89C347BC</uuid>
					</itemhistory>
				</clipitem>
				<clipitem id="MVI_1010 8">
					<name>MVI_1010</name>
					<duration>13719</duration>
					<rate>
						<ntsc>TRUE</ntsc>
						<timebase>24</timebase>
					</rate>
					<in>11684</in>
					<out>13719</out>
					<start>68169</start>
					<end>70204</end>
					<pixelaspectratio>Square</pixelaspectratio>
					<enabled>TRUE</enabled>
					<anamorphic>FALSE</anamorphic>
					<alphatype>none</alphatype>
					<masterclipid>MVI_1010 1</masterclipid>
					<logginginfo>
						<scene/>
						<shottake/>
						<lognote/>
						<good>FALSE</good>
					</logginginfo>
					<labels>
						<label2/>
					</labels>
					<comments>
						<mastercomment1/>
						<mastercomment2/>
						<mastercomment3/>
						<mastercomment4/>
					</comments>
					<file id="MVI_1010 2"/>
					<marker>
						<name>Marker 3</name>
						<comment/>
						<color>
							<alpha>0</alpha>
							<red>255</red>
							<green>0</green>
							<blue>0</blue>
						</color>
						<in>7233</in>
						<out>7848</out>
					</marker>
					<marker>
						<name>Marker 2</name>
						<comment/>
						<color>
							<alpha>0</alpha>
							<red>255</red>
							<green>0</green>
							<blue>0</blue>
						</color>
						<in>9364</in>
						<out>-1</out>
					</marker>
					<marker>
						<name>make us more compassionate</name>
						<comment>community, society, progress, interconnectedness</comment>
						<color>
							<alpha>0</alpha>
							<red>255</red>
							<green>0</green>
							<blue>0</blue>
						</color>
						<in>10974</in>
						<out>11684</out>
					</marker>
					<marker>
						<name>toward greater generosity</name>
						<comment>community, society, progress, interconnectedness, generosity, sharing, the gift</comment>
						<color>
							<alpha>0</alpha>
							<red>255</red>
							<green>0</green>
							<blue>0</blue>
						</color>
						<in>11816</in>
						<out>13566</out>
					</marker>
					<sourcetrack>
						<mediatype>video</mediatype>
					</sourcetrack>
					<link>
						<linkclipref>MVI_1010 8</linkclipref>
						<mediatype>video</mediatype>
						<trackindex>1</trackindex>
						<clipindex>8</clipindex>
					</link>
					<link>
						<linkclipref>MVI_1010 9</linkclipref>
						<mediatype>audio</mediatype>
						<trackindex>1</trackindex>
						<clipindex>8</clipindex>
						<groupindex>1</groupindex>
					</link>
					<link>
						<linkclipref>MVI_1010 10</linkclipref>
						<mediatype>audio</mediatype>
						<trackindex>2</trackindex>
						<clipindex>8</clipindex>
						<groupindex>1</groupindex>
					</link>
					<fielddominance>none</fielddominance>
					<itemhistory>
						<uuid>AF4F19A8-348A-4F2A-8F86-6460D753444C</uuid>
						<uuid>1320CFD1-91B6-41C3-8025-23FE89C347BC</uuid>
					</itemhistory>
				</clipitem>
				<enabled>TRUE</enabled>
				<locked>FALSE</locked>
			</track>
			<track>
				<clipitem id="MVI_1008 5">
					<name>MVI_1008</name>
					<duration>13187</duration>
					<rate>
						<ntsc>TRUE</ntsc>
						<timebase>24</timebase>
					</rate>
					<in>0</in>
					<out>13187</out>
					<start>29273</start>
					<end>42460</end>
					<pixelaspectratio>Square</pixelaspectratio>
					<anamorphic>FALSE</anamorphic>
					<alphatype>none</alphatype>
					<masterclipid>MVI_1008 1</masterclipid>
					<logginginfo>
						<scene/>
						<shottake/>
						<lognote/>
						<good>FALSE</good>
					</logginginfo>
					<labels>
						<label2/>
					</labels>
					<comments>
						<mastercomment1/>
						<mastercomment2/>
						<mastercomment3/>
						<mastercomment4/>
					</comments>
					<file id="MVI_1008 2"/>
					<marker>
						<name>better tools</name>
						<comment>program or be programmed,technological progress,progress,code for humanity,control,users,tools,society, link:Kyle_MC - Grab them ASAP&#13;</comment>
						<color>
							<alpha>0</alpha>
							<red>255</red>
							<green>0</green>
							<blue>0</blue>
						</color>
						<in>2583</in>
						<out>2955</out>
					</marker>
					<marker>
						<name>better tools</name>
						<comment>program or be programmed,technological progress,progress,code for humanity,control,users,tools,society</comment>
						<color>
							<alpha>0</alpha>
							<red>255</red>
							<green>0</green>
							<blue>0</blue>
						</color>
						<in>3044</in>
						<out>3867</out>
					</marker>
					<marker>
						<name>open source</name>
						<comment>open source,sharing</comment>
						<color>
							<alpha>0</alpha>
							<red>255</red>
							<green>0</green>
							<blue>0</blue>
						</color>
						<in>5982</in>
						<out>7257</out>
					</marker>
					<marker>
						<name>need for collaboration</name>
						<comment>open source,sharing,ego,tools,kinect</comment>
						<color>
							<alpha>0</alpha>
							<red>255</red>
							<green>0</green>
							<blue>0</blue>
						</color>
						<in>8600</in>
						<out>9283</out>
					</marker>
					<sourcetrack>
						<mediatype>video</mediatype>
					</sourcetrack>
					<link>
						<linkclipref>MVI_1008 5</linkclipref>
						<mediatype>video</mediatype>
						<trackindex>2</trackindex>
						<clipindex>1</clipindex>
					</link>
					<fielddominance>none</fielddominance>
					<itemhistory>
						<uuid>597E3CC6-DE35-4174-B4E6-42750D0ABB5F</uuid>
					</itemhistory>
				</clipitem>
				<enabled>TRUE</enabled>
				<locked>FALSE</locked>
			</track>
		</video>
		<audio>
			<format>
				<samplecharacteristics>
					<depth>16</depth>
					<samplerate>48000</samplerate>
				</samplecharacteristics>
			</format>
			<outputs>
				<group>
					<index>1</index>
					<numchannels>2</numchannels>
					<downmix>0</downmix>
					<channel>
						<index>1</index>
					</channel>
					<channel>
						<index>2</index>
					</channel>
				</group>
			</outputs>
			<in>-1</in>
			<out>-1</out>
			<track>
				<clipitem id="MVI_1005 3">
					<name>MVI_1005</name>
					<duration>1940</duration>
					<rate>
						<ntsc>TRUE</ntsc>
						<timebase>24</timebase>
					</rate>
					<in>0</in>
					<out>1940</out>
					<start>0</start>
					<end>1940</end>
					<masterclipid>MVI_1005 1</masterclipid>
					<logginginfo>
						<scene/>
						<shottake/>
						<lognote/>
						<good>FALSE</good>
					</logginginfo>
					<labels>
						<label2/>
					</labels>
					<comments>
						<mastercomment1/>
						<mastercomment2/>
						<mastercomment3/>
						<mastercomment4/>
					</comments>
					<file id="MVI_1005 2"/>
					<marker>
						<name>museum, emotion</name>
						<comment>museum, education, educational technology, humanity, people,&#13;link:Maeda - Digital divide</comment>
						<color>
							<alpha>0</alpha>
							<red>255</red>
							<green>0</green>
							<blue>0</blue>
						</color>
						<in>930</in>
						<out>1416</out>
					</marker>
					<filter>
						<effect>
							<name>Audio Levels</name>
							<effectid>audiolevels</effectid>
							<effectcategory>audiolevels</effectcategory>
							<effecttype>audiolevels</effecttype>
							<mediatype>audio</mediatype>
							<parameter>
								<name>Level</name>
								<parameterid>level</parameterid>
								<valuemin>0</valuemin>
								<valuemax>3.98109</valuemax>
								<value>1</value>
							</parameter>
						</effect>
					</filter>
					<filter>
						<effect>
							<name>Audio Pan</name>
							<effectid>audiopan</effectid>
							<effectcategory>audiopan</effectcategory>
							<effecttype>audiopan</effecttype>
							<mediatype>audio</mediatype>
							<parameter>
								<name>Pan</name>
								<parameterid>pan</parameterid>
								<valuemin>-1</valuemin>
								<valuemax>1</valuemax>
								<value>-1</value>
							</parameter>
						</effect>
					</filter>
					<sourcetrack>
						<mediatype>audio</mediatype>
						<trackindex>1</trackindex>
					</sourcetrack>
					<link>
						<linkclipref>MVI_1005 </linkclipref>
						<mediatype>video</mediatype>
						<trackindex>1</trackindex>
						<clipindex>1</clipindex>
					</link>
					<link>
						<linkclipref>MVI_1005 3</linkclipref>
						<mediatype>audio</mediatype>
						<trackindex>1</trackindex>
						<clipindex>1</clipindex>
						<groupindex>1</groupindex>
					</link>
					<link>
						<linkclipref>MVI_1005 4</linkclipref>
						<mediatype>audio</mediatype>
						<trackindex>2</trackindex>
						<clipindex>1</clipindex>
						<groupindex>1</groupindex>
					</link>
					<itemhistory>
						<uuid>B0A0D613-6BD6-4883-A11E-DC3169C5CF6C</uuid>
					</itemhistory>
				</clipitem>
				<clipitem id="MVI_1006 3">
					<name>MVI_1006</name>
					<duration>16355</duration>
					<rate>
						<ntsc>TRUE</ntsc>
						<timebase>24</timebase>
					</rate>
					<in>0</in>
					<out>16355</out>
					<start>1940</start>
					<end>18295</end>
					<masterclipid>MVI_1006 1</masterclipid>
					<logginginfo>
						<scene/>
						<shottake/>
						<lognote/>
						<good>FALSE</good>
					</logginginfo>
					<labels>
						<label2/>
					</labels>
					<comments>
						<mastercomment1/>
						<mastercomment2/>
						<mastercomment3/>
						<mastercomment4/>
					</comments>
					<file id="MVI_1006 2"/>
					<marker>
						<name>Marker 1</name>
						<comment/>
						<color>
							<alpha>0</alpha>
							<red>255</red>
							<green>0</green>
							<blue>0</blue>
						</color>
						<in>1245</in>
						<out>2391</out>
					</marker>
					<marker>
						<name>Paola</name>
						<comment>Paola Antonelli,</comment>
						<color>
							<alpha>0</alpha>
							<red>255</red>
							<green>0</green>
							<blue>0</blue>
						</color>
						<in>4220</in>
						<out>5055</out>
					</marker>
					<marker>
						<name>community</name>
						<comment>who is the community?,&#13;R&amp;D,community,open frameworks,subcultures,hacker artists</comment>
						<color>
							<alpha>0</alpha>
							<red>255</red>
							<green>0</green>
							<blue>0</blue>
						</color>
						<in>8320</in>
						<out>9697</out>
					</marker>
					<marker>
						<name>tech to pop culture</name>
						<comment>popular culture,social engagment,culture,social</comment>
						<color>
							<alpha>0</alpha>
							<red>255</red>
							<green>0</green>
							<blue>0</blue>
						</color>
						<in>11275</in>
						<out>11572</out>
					</marker>
					<marker>
						<name>propagates itself</name>
						<comment>virality,visual language,software</comment>
						<color>
							<alpha>0</alpha>
							<red>255</red>
							<green>0</green>
							<blue>0</blue>
						</color>
						<in>12549</in>
						<out>13010</out>
					</marker>
					<filter>
						<effect>
							<name>Audio Levels</name>
							<effectid>audiolevels</effectid>
							<effectcategory>audiolevels</effectcategory>
							<effecttype>audiolevels</effecttype>
							<mediatype>audio</mediatype>
							<parameter>
								<name>Level</name>
								<parameterid>level</parameterid>
								<valuemin>0</valuemin>
								<valuemax>3.98109</valuemax>
								<value>1</value>
							</parameter>
						</effect>
					</filter>
					<filter>
						<effect>
							<name>Audio Pan</name>
							<effectid>audiopan</effectid>
							<effectcategory>audiopan</effectcategory>
							<effecttype>audiopan</effecttype>
							<mediatype>audio</mediatype>
							<parameter>
								<name>Pan</name>
								<parameterid>pan</parameterid>
								<valuemin>-1</valuemin>
								<valuemax>1</valuemax>
								<value>-1</value>
							</parameter>
						</effect>
					</filter>
					<sourcetrack>
						<mediatype>audio</mediatype>
						<trackindex>1</trackindex>
					</sourcetrack>
					<link>
						<linkclipref>MVI_1006 </linkclipref>
						<mediatype>video</mediatype>
						<trackindex>1</trackindex>
						<clipindex>2</clipindex>
					</link>
					<link>
						<linkclipref>MVI_1006 3</linkclipref>
						<mediatype>audio</mediatype>
						<trackindex>1</trackindex>
						<clipindex>2</clipindex>
						<groupindex>1</groupindex>
					</link>
					<link>
						<linkclipref>MVI_1006 4</linkclipref>
						<mediatype>audio</mediatype>
						<trackindex>2</trackindex>
						<clipindex>2</clipindex>
						<groupindex>1</groupindex>
					</link>
					<itemhistory>
						<uuid>7532C118-213D-4925-878B-E055FC2FFD7C</uuid>
					</itemhistory>
				</clipitem>
				<clipitem id="MVI_1007 3">
					<name>MVI_1007</name>
					<duration>10978</duration>
					<rate>
						<ntsc>TRUE</ntsc>
						<timebase>24</timebase>
					</rate>
					<in>0</in>
					<out>10978</out>
					<start>18295</start>
					<end>29273</end>
					<masterclipid>MVI_1007 1</masterclipid>
					<logginginfo>
						<scene/>
						<shottake/>
						<lognote/>
						<good>FALSE</good>
					</logginginfo>
					<labels>
						<label2/>
					</labels>
					<comments>
						<mastercomment1/>
						<mastercomment2/>
						<mastercomment3/>
						<mastercomment4/>
					</comments>
					<file id="MVI_1007 2"/>
					<marker>
						<name>human in tech</name>
						<comment>man vs machine,humanism,people,emotion,social&#13;link:Jer - Active not interactive</comment>
						<color>
							<alpha>0</alpha>
							<red>255</red>
							<green>0</green>
							<blue>0</blue>
						</color>
						<in>1081</in>
						<out>1914</out>
					</marker>
					<marker>
						<name>what is it doing to us</name>
						<comment>technological progress,humanism,social engagment,people,&#13;link:Marius - new tools change perception</comment>
						<color>
							<alpha>0</alpha>
							<red>255</red>
							<green>0</green>
							<blue>0</blue>
						</color>
						<in>2098</in>
						<out>2684</out>
					</marker>
					<marker>
						<name>million facebook</name>
						<comment>privacy,security,art and security,social,hacking,hacktivism,link:Kyle_MC - Hackers and artists,&#13;link:Jer - lives being documented through data</comment>
						<color>
							<alpha>0</alpha>
							<red>255</red>
							<green>0</green>
							<blue>0</blue>
						</color>
						<in>4929</in>
						<out>5815</out>
					</marker>
					<marker>
						<name>link to jer</name>
						<comment>link:Jer - lives being documented through data</comment>
						<color>
							<alpha>0</alpha>
							<red>48</red>
							<green>191</green>
							<blue>72</blue>
						</color>
						<in>5730</in>
						<out>5815</out>
					</marker>
					<marker>
						<name>Who owns the internet?</name>
						<comment>internet,power,control,security,network,network security</comment>
						<color>
							<alpha>0</alpha>
							<red>255</red>
							<green>0</green>
							<blue>0</blue>
						</color>
						<in>9334</in>
						<out>9975</out>
					</marker>
					<filter>
						<effect>
							<name>Audio Levels</name>
							<effectid>audiolevels</effectid>
							<effectcategory>audiolevels</effectcategory>
							<effecttype>audiolevels</effecttype>
							<mediatype>audio</mediatype>
							<parameter>
								<name>Level</name>
								<parameterid>level</parameterid>
								<valuemin>0</valuemin>
								<valuemax>3.98109</valuemax>
								<value>1</value>
							</parameter>
						</effect>
					</filter>
					<filter>
						<effect>
							<name>Audio Pan</name>
							<effectid>audiopan</effectid>
							<effectcategory>audiopan</effectcategory>
							<effecttype>audiopan</effecttype>
							<mediatype>audio</mediatype>
							<parameter>
								<name>Pan</name>
								<parameterid>pan</parameterid>
								<valuemin>-1</valuemin>
								<valuemax>1</valuemax>
								<value>-1</value>
							</parameter>
						</effect>
					</filter>
					<sourcetrack>
						<mediatype>audio</mediatype>
						<trackindex>1</trackindex>
					</sourcetrack>
					<link>
						<linkclipref>MVI_1007 </linkclipref>
						<mediatype>video</mediatype>
						<trackindex>1</trackindex>
						<clipindex>3</clipindex>
					</link>
					<link>
						<linkclipref>MVI_1007 3</linkclipref>
						<mediatype>audio</mediatype>
						<trackindex>1</trackindex>
						<clipindex>3</clipindex>
						<groupindex>1</groupindex>
					</link>
					<link>
						<linkclipref>MVI_1007 4</linkclipref>
						<mediatype>audio</mediatype>
						<trackindex>2</trackindex>
						<clipindex>3</clipindex>
						<groupindex>1</groupindex>
					</link>
					<itemhistory>
						<uuid>3E182FE7-97DD-4DB8-9AA6-F2243F03D6A6</uuid>
					</itemhistory>
				</clipitem>
				<clipitem id="MVI_1008 3">
					<name>MVI_1008</name>
					<duration>13187</duration>
					<rate>
						<ntsc>TRUE</ntsc>
						<timebase>24</timebase>
					</rate>
					<in>0</in>
					<out>13187</out>
					<start>29273</start>
					<end>42460</end>
					<masterclipid>MVI_1008 1</masterclipid>
					<logginginfo>
						<scene/>
						<shottake/>
						<lognote/>
						<good>FALSE</good>
					</logginginfo>
					<labels>
						<label2/>
					</labels>
					<comments>
						<mastercomment1/>
						<mastercomment2/>
						<mastercomment3/>
						<mastercomment4/>
					</comments>
					<file id="MVI_1008 2"/>
					<marker>
						<name>program or be programmed</name>
						<comment>program or be programmed,technological progress,progress,code for humanity,control,users,tools,society</comment>
						<color>
							<alpha>0</alpha>
							<red>255</red>
							<green>0</green>
							<blue>0</blue>
						</color>
						<in>1898</in>
						<out>3867</out>
					</marker>
					<marker>
						<name>open source and ego</name>
						<comment>open source,sharing,ego</comment>
						<color>
							<alpha>0</alpha>
							<red>255</red>
							<green>0</green>
							<blue>0</blue>
						</color>
						<in>6650</in>
						<out>7257</out>
					</marker>
					<marker>
						<name>can't be solitary</name>
						<comment>open source,sharing,ego,tools,</comment>
						<color>
							<alpha>0</alpha>
							<red>255</red>
							<green>0</green>
							<blue>0</blue>
						</color>
						<in>8036</in>
						<out>9283</out>
					</marker>
					<marker>
						<name>work in context</name>
						<comment>dialogue,social engagment,criticality,society</comment>
						<color>
							<alpha>0</alpha>
							<red>255</red>
							<green>0</green>
							<blue>0</blue>
						</color>
						<in>11895</in>
						<out>12389</out>
					</marker>
					<marker>
						<name>aesthetic value</name>
						<comment>beauty,aesthetics,visual culture</comment>
						<color>
							<alpha>0</alpha>
							<red>255</red>
							<green>0</green>
							<blue>0</blue>
						</color>
						<in>12517</in>
						<out>12986</out>
					</marker>
					<filter>
						<effect>
							<name>Audio Levels</name>
							<effectid>audiolevels</effectid>
							<effectcategory>audiolevels</effectcategory>
							<effecttype>audiolevels</effecttype>
							<mediatype>audio</mediatype>
							<parameter>
								<name>Level</name>
								<parameterid>level</parameterid>
								<valuemin>0</valuemin>
								<valuemax>3.98109</valuemax>
								<value>1</value>
							</parameter>
						</effect>
					</filter>
					<filter>
						<effect>
							<name>Audio Pan</name>
							<effectid>audiopan</effectid>
							<effectcategory>audiopan</effectcategory>
							<effecttype>audiopan</effecttype>
							<mediatype>audio</mediatype>
							<parameter>
								<name>Pan</name>
								<parameterid>pan</parameterid>
								<valuemin>-1</valuemin>
								<valuemax>1</valuemax>
								<value>-1</value>
							</parameter>
						</effect>
					</filter>
					<sourcetrack>
						<mediatype>audio</mediatype>
						<trackindex>1</trackindex>
					</sourcetrack>
					<link>
						<linkclipref>MVI_1008 </linkclipref>
						<mediatype>video</mediatype>
						<trackindex>1</trackindex>
						<clipindex>4</clipindex>
					</link>
					<link>
						<linkclipref>MVI_1008 3</linkclipref>
						<mediatype>audio</mediatype>
						<trackindex>1</trackindex>
						<clipindex>4</clipindex>
						<groupindex>1</groupindex>
					</link>
					<link>
						<linkclipref>MVI_1008 4</linkclipref>
						<mediatype>audio</mediatype>
						<trackindex>2</trackindex>
						<clipindex>4</clipindex>
						<groupindex>1</groupindex>
					</link>
					<itemhistory>
						<uuid>A24FF2D4-CAD3-446E-8245-BB3C46A9F9E2</uuid>
					</itemhistory>
				</clipitem>
				<clipitem id="MVI_1009 3">
					<name>MVI_1009</name>
					<duration>14025</duration>
					<rate>
						<ntsc>TRUE</ntsc>
						<timebase>24</timebase>
					</rate>
					<in>0</in>
					<out>14025</out>
					<start>42460</start>
					<end>56485</end>
					<masterclipid>MVI_1009 1</masterclipid>
					<logginginfo>
						<scene/>
						<shottake/>
						<lognote/>
						<good>FALSE</good>
					</logginginfo>
					<labels>
						<label2/>
					</labels>
					<comments>
						<mastercomment1/>
						<mastercomment2/>
						<mastercomment3/>
						<mastercomment4/>
					</comments>
					<file id="MVI_1009 2"/>
					<marker>
						<name>how it makes me feel</name>
						<comment>experience,evaluation,perception,emotion,embodiment</comment>
						<color>
							<alpha>0</alpha>
							<red>255</red>
							<green>0</green>
							<blue>0</blue>
						</color>
						<in>1189</in>
						<out>1812</out>
					</marker>
					<marker>
						<name>new and interesting</name>
						<comment>newness, new media, evaluation, criticality,</comment>
						<color>
							<alpha>0</alpha>
							<red>255</red>
							<green>0</green>
							<blue>0</blue>
						</color>
						<in>2391</in>
						<out>2872</out>
					</marker>
					<marker>
						<name>emotional</name>
						<comment>feeling, emotion,&#13;</comment>
						<color>
							<alpha>0</alpha>
							<red>255</red>
							<green>0</green>
							<blue>0</blue>
						</color>
						<in>2897</in>
						<out>3464</out>
					</marker>
					<marker>
						<name>medium of our time</name>
						<comment>newness,technology,new media,art and tech,techpositive</comment>
						<color>
							<alpha>0</alpha>
							<red>255</red>
							<green>0</green>
							<blue>0</blue>
						</color>
						<in>4585</in>
						<out>5695</out>
					</marker>
					<marker>
						<name>we feel fine</name>
						<comment/>
						<color>
							<alpha>0</alpha>
							<red>255</red>
							<green>0</green>
							<blue>0</blue>
						</color>
						<in>7589</in>
						<out>8684</out>
					</marker>
					<marker>
						<name>Marker 6</name>
						<comment/>
						<color>
							<alpha>0</alpha>
							<red>255</red>
							<green>0</green>
							<blue>0</blue>
						</color>
						<in>10793</in>
						<out>-1</out>
					</marker>
					<marker>
						<name>strength of weak ties</name>
						<comment>social media,relationships,people,network,facebook,twitter</comment>
						<color>
							<alpha>0</alpha>
							<red>255</red>
							<green>0</green>
							<blue>0</blue>
						</color>
						<in>11352</in>
						<out>12901</out>
					</marker>
					<marker>
						<name>net friends</name>
						<comment>social media,relationships,people,network,facebook,twitter, community, </comment>
						<color>
							<alpha>0</alpha>
							<red>255</red>
							<green>0</green>
							<blue>0</blue>
						</color>
						<in>13035</in>
						<out>13864</out>
					</marker>
					<filter>
						<effect>
							<name>Audio Levels</name>
							<effectid>audiolevels</effectid>
							<effectcategory>audiolevels</effectcategory>
							<effecttype>audiolevels</effecttype>
							<mediatype>audio</mediatype>
							<parameter>
								<name>Level</name>
								<parameterid>level</parameterid>
								<valuemin>0</valuemin>
								<valuemax>3.98109</valuemax>
								<value>1</value>
							</parameter>
						</effect>
					</filter>
					<filter>
						<effect>
							<name>Audio Pan</name>
							<effectid>audiopan</effectid>
							<effectcategory>audiopan</effectcategory>
							<effecttype>audiopan</effecttype>
							<mediatype>audio</mediatype>
							<parameter>
								<name>Pan</name>
								<parameterid>pan</parameterid>
								<valuemin>-1</valuemin>
								<valuemax>1</valuemax>
								<value>-1</value>
							</parameter>
						</effect>
					</filter>
					<sourcetrack>
						<mediatype>audio</mediatype>
						<trackindex>1</trackindex>
					</sourcetrack>
					<link>
						<linkclipref>MVI_1009 </linkclipref>
						<mediatype>video</mediatype>
						<trackindex>1</trackindex>
						<clipindex>5</clipindex>
					</link>
					<link>
						<linkclipref>MVI_1009 3</linkclipref>
						<mediatype>audio</mediatype>
						<trackindex>1</trackindex>
						<clipindex>5</clipindex>
						<groupindex>1</groupindex>
					</link>
					<link>
						<linkclipref>MVI_1009 4</linkclipref>
						<mediatype>audio</mediatype>
						<trackindex>2</trackindex>
						<clipindex>5</clipindex>
						<groupindex>1</groupindex>
					</link>
					<itemhistory>
						<uuid>7B428A7B-B766-4A85-9D83-D53EDE167505</uuid>
					</itemhistory>
				</clipitem>
				<clipitem id="MVI_1010 3">
					<name>MVI_1010</name>
					<duration>13719</duration>
					<rate>
						<ntsc>TRUE</ntsc>
						<timebase>24</timebase>
					</rate>
					<in>0</in>
					<out>10974</out>
					<start>56485</start>
					<end>67459</end>
					<masterclipid>MVI_1010 1</masterclipid>
					<logginginfo>
						<scene/>
						<shottake/>
						<lognote/>
						<good>FALSE</good>
					</logginginfo>
					<labels>
						<label2/>
					</labels>
					<comments>
						<mastercomment1/>
						<mastercomment2/>
						<mastercomment3/>
						<mastercomment4/>
					</comments>
					<file id="MVI_1010 2"/>
					<marker>
						<name>Marker 3</name>
						<comment/>
						<color>
							<alpha>0</alpha>
							<red>255</red>
							<green>0</green>
							<blue>0</blue>
						</color>
						<in>7233</in>
						<out>7848</out>
					</marker>
					<marker>
						<name>Marker 2</name>
						<comment/>
						<color>
							<alpha>0</alpha>
							<red>255</red>
							<green>0</green>
							<blue>0</blue>
						</color>
						<in>9364</in>
						<out>-1</out>
					</marker>
					<marker>
						<name>make us more compassionate</name>
						<comment>community, society, progress, interconnectedness</comment>
						<color>
							<alpha>0</alpha>
							<red>255</red>
							<green>0</green>
							<blue>0</blue>
						</color>
						<in>10974</in>
						<out>11684</out>
					</marker>
					<marker>
						<name>toward greater generosity</name>
						<comment>community, society, progress, interconnectedness, generosity, sharing, the gift</comment>
						<color>
							<alpha>0</alpha>
							<red>255</red>
							<green>0</green>
							<blue>0</blue>
						</color>
						<in>11816</in>
						<out>13566</out>
					</marker>
					<filter>
						<effect>
							<name>Audio Levels</name>
							<effectid>audiolevels</effectid>
							<effectcategory>audiolevels</effectcategory>
							<effecttype>audiolevels</effecttype>
							<mediatype>audio</mediatype>
							<parameter>
								<name>Level</name>
								<parameterid>level</parameterid>
								<valuemin>0</valuemin>
								<valuemax>3.98109</valuemax>
								<value>1</value>
							</parameter>
						</effect>
					</filter>
					<filter>
						<effect>
							<name>Audio Pan</name>
							<effectid>audiopan</effectid>
							<effectcategory>audiopan</effectcategory>
							<effecttype>audiopan</effecttype>
							<mediatype>audio</mediatype>
							<parameter>
								<name>Pan</name>
								<parameterid>pan</parameterid>
								<valuemin>-1</valuemin>
								<valuemax>1</valuemax>
								<value>-1</value>
							</parameter>
						</effect>
					</filter>
					<sourcetrack>
						<mediatype>audio</mediatype>
						<trackindex>1</trackindex>
					</sourcetrack>
					<link>
						<linkclipref>MVI_1010 </linkclipref>
						<mediatype>video</mediatype>
						<trackindex>1</trackindex>
						<clipindex>6</clipindex>
					</link>
					<link>
						<linkclipref>MVI_1010 3</linkclipref>
						<mediatype>audio</mediatype>
						<trackindex>1</trackindex>
						<clipindex>6</clipindex>
						<groupindex>1</groupindex>
					</link>
					<link>
						<linkclipref>MVI_1010 4</linkclipref>
						<mediatype>audio</mediatype>
						<trackindex>2</trackindex>
						<clipindex>6</clipindex>
						<groupindex>1</groupindex>
					</link>
					<itemhistory>
						<uuid>E72686CB-5ED5-46ED-96CD-E339C2B47E8D</uuid>
						<uuid>4112CB82-5188-4119-A87B-041B21ED3089</uuid>
					</itemhistory>
				</clipitem>
				<clipitem id="MVI_1010 6">
					<name>MVI_1010</name>
					<duration>13719</duration>
					<rate>
						<ntsc>TRUE</ntsc>
						<timebase>24</timebase>
					</rate>
					<in>10974</in>
					<out>11684</out>
					<start>67459</start>
					<end>68169</end>
					<masterclipid>MVI_1010 1</masterclipid>
					<logginginfo>
						<scene/>
						<shottake/>
						<lognote/>
						<good>FALSE</good>
					</logginginfo>
					<labels>
						<label2/>
					</labels>
					<comments>
						<mastercomment1/>
						<mastercomment2/>
						<mastercomment3/>
						<mastercomment4/>
					</comments>
					<file id="MVI_1010 2"/>
					<marker>
						<name>Marker 3</name>
						<comment/>
						<color>
							<alpha>0</alpha>
							<red>255</red>
							<green>0</green>
							<blue>0</blue>
						</color>
						<in>7233</in>
						<out>7848</out>
					</marker>
					<marker>
						<name>Marker 2</name>
						<comment/>
						<color>
							<alpha>0</alpha>
							<red>255</red>
							<green>0</green>
							<blue>0</blue>
						</color>
						<in>9364</in>
						<out>-1</out>
					</marker>
					<marker>
						<name>make us more compassionate</name>
						<comment>community, society, progress, interconnectedness</comment>
						<color>
							<alpha>0</alpha>
							<red>255</red>
							<green>0</green>
							<blue>0</blue>
						</color>
						<in>10974</in>
						<out>11684</out>
					</marker>
					<marker>
						<name>toward greater generosity</name>
						<comment>community, society, progress, interconnectedness, generosity, sharing, the gift</comment>
						<color>
							<alpha>0</alpha>
							<red>255</red>
							<green>0</green>
							<blue>0</blue>
						</color>
						<in>11816</in>
						<out>13566</out>
					</marker>
					<filter>
						<effect>
							<name>Audio Levels</name>
							<effectid>audiolevels</effectid>
							<effectcategory>audiolevels</effectcategory>
							<effecttype>audiolevels</effecttype>
							<mediatype>audio</mediatype>
							<parameter>
								<name>Level</name>
								<parameterid>level</parameterid>
								<valuemin>0</valuemin>
								<valuemax>3.98109</valuemax>
								<value>1</value>
							</parameter>
						</effect>
					</filter>
					<filter>
						<effect>
							<name>Audio Pan</name>
							<effectid>audiopan</effectid>
							<effectcategory>audiopan</effectcategory>
							<effecttype>audiopan</effecttype>
							<mediatype>audio</mediatype>
							<parameter>
								<name>Pan</name>
								<parameterid>pan</parameterid>
								<valuemin>-1</valuemin>
								<valuemax>1</valuemax>
								<value>-1</value>
							</parameter>
						</effect>
					</filter>
					<sourcetrack>
						<mediatype>audio</mediatype>
						<trackindex>1</trackindex>
					</sourcetrack>
					<link>
						<linkclipref>MVI_1010 5</linkclipref>
						<mediatype>video</mediatype>
						<trackindex>1</trackindex>
						<clipindex>7</clipindex>
					</link>
					<link>
						<linkclipref>MVI_1010 6</linkclipref>
						<mediatype>audio</mediatype>
						<trackindex>1</trackindex>
						<clipindex>7</clipindex>
						<groupindex>1</groupindex>
					</link>
					<link>
						<linkclipref>MVI_1010 7</linkclipref>
						<mediatype>audio</mediatype>
						<trackindex>2</trackindex>
						<clipindex>7</clipindex>
						<groupindex>1</groupindex>
					</link>
					<itemhistory>
						<uuid>ECA72984-DB37-43C2-8280-1B07F8706458</uuid>
						<uuid>4112CB82-5188-4119-A87B-041B21ED3089</uuid>
					</itemhistory>
				</clipitem>
				<clipitem id="MVI_1010 9">
					<name>MVI_1010</name>
					<duration>13719</duration>
					<rate>
						<ntsc>TRUE</ntsc>
						<timebase>24</timebase>
					</rate>
					<in>11684</in>
					<out>13719</out>
					<start>68169</start>
					<end>70204</end>
					<masterclipid>MVI_1010 1</masterclipid>
					<logginginfo>
						<scene/>
						<shottake/>
						<lognote/>
						<good>FALSE</good>
					</logginginfo>
					<labels>
						<label2/>
					</labels>
					<comments>
						<mastercomment1/>
						<mastercomment2/>
						<mastercomment3/>
						<mastercomment4/>
					</comments>
					<file id="MVI_1010 2"/>
					<marker>
						<name>Marker 3</name>
						<comment/>
						<color>
							<alpha>0</alpha>
							<red>255</red>
							<green>0</green>
							<blue>0</blue>
						</color>
						<in>7233</in>
						<out>7848</out>
					</marker>
					<marker>
						<name>Marker 2</name>
						<comment/>
						<color>
							<alpha>0</alpha>
							<red>255</red>
							<green>0</green>
							<blue>0</blue>
						</color>
						<in>9364</in>
						<out>-1</out>
					</marker>
					<marker>
						<name>make us more compassionate</name>
						<comment>community, society, progress, interconnectedness</comment>
						<color>
							<alpha>0</alpha>
							<red>255</red>
							<green>0</green>
							<blue>0</blue>
						</color>
						<in>10974</in>
						<out>11684</out>
					</marker>
					<marker>
						<name>toward greater generosity</name>
						<comment>community, society, progress, interconnectedness, generosity, sharing, the gift</comment>
						<color>
							<alpha>0</alpha>
							<red>255</red>
							<green>0</green>
							<blue>0</blue>
						</color>
						<in>11816</in>
						<out>13566</out>
					</marker>
					<filter>
						<effect>
							<name>Audio Levels</name>
							<effectid>audiolevels</effectid>
							<effectcategory>audiolevels</effectcategory>
							<effecttype>audiolevels</effecttype>
							<mediatype>audio</mediatype>
							<parameter>
								<name>Level</name>
								<parameterid>level</parameterid>
								<valuemin>0</valuemin>
								<valuemax>3.98109</valuemax>
								<value>1</value>
							</parameter>
						</effect>
					</filter>
					<filter>
						<effect>
							<name>Audio Pan</name>
							<effectid>audiopan</effectid>
							<effectcategory>audiopan</effectcategory>
							<effecttype>audiopan</effecttype>
							<mediatype>audio</mediatype>
							<parameter>
								<name>Pan</name>
								<parameterid>pan</parameterid>
								<valuemin>-1</valuemin>
								<valuemax>1</valuemax>
								<value>-1</value>
							</parameter>
						</effect>
					</filter>
					<sourcetrack>
						<mediatype>audio</mediatype>
						<trackindex>1</trackindex>
					</sourcetrack>
					<link>
						<linkclipref>MVI_1010 8</linkclipref>
						<mediatype>video</mediatype>
						<trackindex>1</trackindex>
						<clipindex>8</clipindex>
					</link>
					<link>
						<linkclipref>MVI_1010 9</linkclipref>
						<mediatype>audio</mediatype>
						<trackindex>1</trackindex>
						<clipindex>8</clipindex>
						<groupindex>1</groupindex>
					</link>
					<link>
						<linkclipref>MVI_1010 10</linkclipref>
						<mediatype>audio</mediatype>
						<trackindex>2</trackindex>
						<clipindex>8</clipindex>
						<groupindex>1</groupindex>
					</link>
					<itemhistory>
						<uuid>875064F2-FCE1-44DF-92BD-C4773D491880</uuid>
						<uuid>4112CB82-5188-4119-A87B-041B21ED3089</uuid>
					</itemhistory>
				</clipitem>
				<enabled>TRUE</enabled>
				<locked>FALSE</locked>
				<outputchannelindex>1</outputchannelindex>
			</track>
			<track>
				<clipitem id="MVI_1005 4">
					<name>MVI_1005</name>
					<duration>1940</duration>
					<rate>
						<ntsc>TRUE</ntsc>
						<timebase>24</timebase>
					</rate>
					<in>0</in>
					<out>1940</out>
					<start>0</start>
					<end>1940</end>
					<masterclipid>MVI_1005 1</masterclipid>
					<logginginfo>
						<scene/>
						<shottake/>
						<lognote/>
						<good>FALSE</good>
					</logginginfo>
					<labels>
						<label2/>
					</labels>
					<comments>
						<mastercomment1/>
						<mastercomment2/>
						<mastercomment3/>
						<mastercomment4/>
					</comments>
					<file id="MVI_1005 2"/>
					<marker>
						<name>museum, emotion</name>
						<comment>museum, education, educational technology, humanity, people,&#13;link:Maeda - Digital divide</comment>
						<color>
							<alpha>0</alpha>
							<red>255</red>
							<green>0</green>
							<blue>0</blue>
						</color>
						<in>930</in>
						<out>1416</out>
					</marker>
					<filter>
						<effect>
							<name>Audio Levels</name>
							<effectid>audiolevels</effectid>
							<effectcategory>audiolevels</effectcategory>
							<effecttype>audiolevels</effecttype>
							<mediatype>audio</mediatype>
							<parameter>
								<name>Level</name>
								<parameterid>level</parameterid>
								<valuemin>0</valuemin>
								<valuemax>3.98109</valuemax>
								<value>1</value>
							</parameter>
						</effect>
					</filter>
					<filter>
						<effect>
							<name>Audio Pan</name>
							<effectid>audiopan</effectid>
							<effectcategory>audiopan</effectcategory>
							<effecttype>audiopan</effecttype>
							<mediatype>audio</mediatype>
							<parameter>
								<name>Pan</name>
								<parameterid>pan</parameterid>
								<valuemin>-1</valuemin>
								<valuemax>1</valuemax>
								<value>1</value>
							</parameter>
						</effect>
					</filter>
					<sourcetrack>
						<mediatype>audio</mediatype>
						<trackindex>2</trackindex>
					</sourcetrack>
					<link>
						<linkclipref>MVI_1005 </linkclipref>
						<mediatype>video</mediatype>
						<trackindex>1</trackindex>
						<clipindex>1</clipindex>
					</link>
					<link>
						<linkclipref>MVI_1005 3</linkclipref>
						<mediatype>audio</mediatype>
						<trackindex>1</trackindex>
						<clipindex>1</clipindex>
						<groupindex>1</groupindex>
					</link>
					<link>
						<linkclipref>MVI_1005 4</linkclipref>
						<mediatype>audio</mediatype>
						<trackindex>2</trackindex>
						<clipindex>1</clipindex>
						<groupindex>1</groupindex>
					</link>
					<itemhistory>
						<uuid>31C674A1-192D-40CA-97F5-D7A4E1024C9D</uuid>
					</itemhistory>
				</clipitem>
				<clipitem id="MVI_1006 4">
					<name>MVI_1006</name>
					<duration>16355</duration>
					<rate>
						<ntsc>TRUE</ntsc>
						<timebase>24</timebase>
					</rate>
					<in>0</in>
					<out>16355</out>
					<start>1940</start>
					<end>18295</end>
					<masterclipid>MVI_1006 1</masterclipid>
					<logginginfo>
						<scene/>
						<shottake/>
						<lognote/>
						<good>FALSE</good>
					</logginginfo>
					<labels>
						<label2/>
					</labels>
					<comments>
						<mastercomment1/>
						<mastercomment2/>
						<mastercomment3/>
						<mastercomment4/>
					</comments>
					<file id="MVI_1006 2"/>
					<marker>
						<name>Marker 1</name>
						<comment/>
						<color>
							<alpha>0</alpha>
							<red>255</red>
							<green>0</green>
							<blue>0</blue>
						</color>
						<in>1245</in>
						<out>2391</out>
					</marker>
					<marker>
						<name>Paola</name>
						<comment>Paola Antonelli,</comment>
						<color>
							<alpha>0</alpha>
							<red>255</red>
							<green>0</green>
							<blue>0</blue>
						</color>
						<in>4220</in>
						<out>5055</out>
					</marker>
					<marker>
						<name>community</name>
						<comment>who is the community?,&#13;R&amp;D,community,open frameworks,subcultures,hacker artists</comment>
						<color>
							<alpha>0</alpha>
							<red>255</red>
							<green>0</green>
							<blue>0</blue>
						</color>
						<in>8320</in>
						<out>9697</out>
					</marker>
					<marker>
						<name>tech to pop culture</name>
						<comment>popular culture,social engagment,culture,social</comment>
						<color>
							<alpha>0</alpha>
							<red>255</red>
							<green>0</green>
							<blue>0</blue>
						</color>
						<in>11275</in>
						<out>11572</out>
					</marker>
					<marker>
						<name>propagates itself</name>
						<comment>virality,visual language,software</comment>
						<color>
							<alpha>0</alpha>
							<red>255</red>
							<green>0</green>
							<blue>0</blue>
						</color>
						<in>12549</in>
						<out>13010</out>
					</marker>
					<filter>
						<effect>
							<name>Audio Levels</name>
							<effectid>audiolevels</effectid>
							<effectcategory>audiolevels</effectcategory>
							<effecttype>audiolevels</effecttype>
							<mediatype>audio</mediatype>
							<parameter>
								<name>Level</name>
								<parameterid>level</parameterid>
								<valuemin>0</valuemin>
								<valuemax>3.98109</valuemax>
								<value>1</value>
							</parameter>
						</effect>
					</filter>
					<filter>
						<effect>
							<name>Audio Pan</name>
							<effectid>audiopan</effectid>
							<effectcategory>audiopan</effectcategory>
							<effecttype>audiopan</effecttype>
							<mediatype>audio</mediatype>
							<parameter>
								<name>Pan</name>
								<parameterid>pan</parameterid>
								<valuemin>-1</valuemin>
								<valuemax>1</valuemax>
								<value>1</value>
							</parameter>
						</effect>
					</filter>
					<sourcetrack>
						<mediatype>audio</mediatype>
						<trackindex>2</trackindex>
					</sourcetrack>
					<link>
						<linkclipref>MVI_1006 </linkclipref>
						<mediatype>video</mediatype>
						<trackindex>1</trackindex>
						<clipindex>2</clipindex>
					</link>
					<link>
						<linkclipref>MVI_1006 3</linkclipref>
						<mediatype>audio</mediatype>
						<trackindex>1</trackindex>
						<clipindex>2</clipindex>
						<groupindex>1</groupindex>
					</link>
					<link>
						<linkclipref>MVI_1006 4</linkclipref>
						<mediatype>audio</mediatype>
						<trackindex>2</trackindex>
						<clipindex>2</clipindex>
						<groupindex>1</groupindex>
					</link>
					<itemhistory>
						<uuid>2B160E69-F208-4C14-A479-8F42EFEB77C9</uuid>
					</itemhistory>
				</clipitem>
				<clipitem id="MVI_1007 4">
					<name>MVI_1007</name>
					<duration>10978</duration>
					<rate>
						<ntsc>TRUE</ntsc>
						<timebase>24</timebase>
					</rate>
					<in>0</in>
					<out>10978</out>
					<start>18295</start>
					<end>29273</end>
					<masterclipid>MVI_1007 1</masterclipid>
					<logginginfo>
						<scene/>
						<shottake/>
						<lognote/>
						<good>FALSE</good>
					</logginginfo>
					<labels>
						<label2/>
					</labels>
					<comments>
						<mastercomment1/>
						<mastercomment2/>
						<mastercomment3/>
						<mastercomment4/>
					</comments>
					<file id="MVI_1007 2"/>
					<marker>
						<name>human in tech</name>
						<comment>man vs machine,humanism,people,emotion,social&#13;link:Jer - Active not interactive</comment>
						<color>
							<alpha>0</alpha>
							<red>255</red>
							<green>0</green>
							<blue>0</blue>
						</color>
						<in>1081</in>
						<out>1914</out>
					</marker>
					<marker>
						<name>what is it doing to us</name>
						<comment>technological progress,humanism,social engagment,people,&#13;link:Marius - new tools change perception</comment>
						<color>
							<alpha>0</alpha>
							<red>255</red>
							<green>0</green>
							<blue>0</blue>
						</color>
						<in>2098</in>
						<out>2684</out>
					</marker>
					<marker>
						<name>million facebook</name>
						<comment>privacy,security,art and security,social,hacking,hacktivism,link:Kyle_MC - Hackers and artists,&#13;link:Jer - lives being documented through data</comment>
						<color>
							<alpha>0</alpha>
							<red>255</red>
							<green>0</green>
							<blue>0</blue>
						</color>
						<in>4929</in>
						<out>5815</out>
					</marker>
					<marker>
						<name>link to jer</name>
						<comment>link:Jer - lives being documented through data</comment>
						<color>
							<alpha>0</alpha>
							<red>48</red>
							<green>191</green>
							<blue>72</blue>
						</color>
						<in>5730</in>
						<out>5815</out>
					</marker>
					<marker>
						<name>Who owns the internet?</name>
						<comment>internet,power,control,security,network,network security</comment>
						<color>
							<alpha>0</alpha>
							<red>255</red>
							<green>0</green>
							<blue>0</blue>
						</color>
						<in>9334</in>
						<out>9975</out>
					</marker>
					<filter>
						<effect>
							<name>Audio Levels</name>
							<effectid>audiolevels</effectid>
							<effectcategory>audiolevels</effectcategory>
							<effecttype>audiolevels</effecttype>
							<mediatype>audio</mediatype>
							<parameter>
								<name>Level</name>
								<parameterid>level</parameterid>
								<valuemin>0</valuemin>
								<valuemax>3.98109</valuemax>
								<value>1</value>
							</parameter>
						</effect>
					</filter>
					<filter>
						<effect>
							<name>Audio Pan</name>
							<effectid>audiopan</effectid>
							<effectcategory>audiopan</effectcategory>
							<effecttype>audiopan</effecttype>
							<mediatype>audio</mediatype>
							<parameter>
								<name>Pan</name>
								<parameterid>pan</parameterid>
								<valuemin>-1</valuemin>
								<valuemax>1</valuemax>
								<value>1</value>
							</parameter>
						</effect>
					</filter>
					<sourcetrack>
						<mediatype>audio</mediatype>
						<trackindex>2</trackindex>
					</sourcetrack>
					<link>
						<linkclipref>MVI_1007 </linkclipref>
						<mediatype>video</mediatype>
						<trackindex>1</trackindex>
						<clipindex>3</clipindex>
					</link>
					<link>
						<linkclipref>MVI_1007 3</linkclipref>
						<mediatype>audio</mediatype>
						<trackindex>1</trackindex>
						<clipindex>3</clipindex>
						<groupindex>1</groupindex>
					</link>
					<link>
						<linkclipref>MVI_1007 4</linkclipref>
						<mediatype>audio</mediatype>
						<trackindex>2</trackindex>
						<clipindex>3</clipindex>
						<groupindex>1</groupindex>
					</link>
					<itemhistory>
						<uuid>AF7ED47F-28F0-4457-8640-FBFD0EC93FD4</uuid>
					</itemhistory>
				</clipitem>
				<clipitem id="MVI_1008 4">
					<name>MVI_1008</name>
					<duration>13187</duration>
					<rate>
						<ntsc>TRUE</ntsc>
						<timebase>24</timebase>
					</rate>
					<in>0</in>
					<out>13187</out>
					<start>29273</start>
					<end>42460</end>
					<masterclipid>MVI_1008 1</masterclipid>
					<logginginfo>
						<scene/>
						<shottake/>
						<lognote/>
						<good>FALSE</good>
					</logginginfo>
					<labels>
						<label2/>
					</labels>
					<comments>
						<mastercomment1/>
						<mastercomment2/>
						<mastercomment3/>
						<mastercomment4/>
					</comments>
					<file id="MVI_1008 2"/>
					<marker>
						<name>program or be programmed</name>
						<comment>program or be programmed,technological progress,progress,code for humanity,control,users,tools,society</comment>
						<color>
							<alpha>0</alpha>
							<red>255</red>
							<green>0</green>
							<blue>0</blue>
						</color>
						<in>1898</in>
						<out>3867</out>
					</marker>
					<marker>
						<name>open source and ego</name>
						<comment>open source,sharing,ego</comment>
						<color>
							<alpha>0</alpha>
							<red>255</red>
							<green>0</green>
							<blue>0</blue>
						</color>
						<in>6650</in>
						<out>7257</out>
					</marker>
					<marker>
						<name>can't be solitary</name>
						<comment>open source,sharing,ego,tools,</comment>
						<color>
							<alpha>0</alpha>
							<red>255</red>
							<green>0</green>
							<blue>0</blue>
						</color>
						<in>8036</in>
						<out>9283</out>
					</marker>
					<marker>
						<name>work in context</name>
						<comment>dialogue,social engagment,criticality,society</comment>
						<color>
							<alpha>0</alpha>
							<red>255</red>
							<green>0</green>
							<blue>0</blue>
						</color>
						<in>11895</in>
						<out>12389</out>
					</marker>
					<marker>
						<name>aesthetic value</name>
						<comment>beauty,aesthetics,visual culture</comment>
						<color>
							<alpha>0</alpha>
							<red>255</red>
							<green>0</green>
							<blue>0</blue>
						</color>
						<in>12517</in>
						<out>12986</out>
					</marker>
					<filter>
						<effect>
							<name>Audio Levels</name>
							<effectid>audiolevels</effectid>
							<effectcategory>audiolevels</effectcategory>
							<effecttype>audiolevels</effecttype>
							<mediatype>audio</mediatype>
							<parameter>
								<name>Level</name>
								<parameterid>level</parameterid>
								<valuemin>0</valuemin>
								<valuemax>3.98109</valuemax>
								<value>1</value>
							</parameter>
						</effect>
					</filter>
					<filter>
						<effect>
							<name>Audio Pan</name>
							<effectid>audiopan</effectid>
							<effectcategory>audiopan</effectcategory>
							<effecttype>audiopan</effecttype>
							<mediatype>audio</mediatype>
							<parameter>
								<name>Pan</name>
								<parameterid>pan</parameterid>
								<valuemin>-1</valuemin>
								<valuemax>1</valuemax>
								<value>1</value>
							</parameter>
						</effect>
					</filter>
					<sourcetrack>
						<mediatype>audio</mediatype>
						<trackindex>2</trackindex>
					</sourcetrack>
					<link>
						<linkclipref>MVI_1008 </linkclipref>
						<mediatype>video</mediatype>
						<trackindex>1</trackindex>
						<clipindex>4</clipindex>
					</link>
					<link>
						<linkclipref>MVI_1008 3</linkclipref>
						<mediatype>audio</mediatype>
						<trackindex>1</trackindex>
						<clipindex>4</clipindex>
						<groupindex>1</groupindex>
					</link>
					<link>
						<linkclipref>MVI_1008 4</linkclipref>
						<mediatype>audio</mediatype>
						<trackindex>2</trackindex>
						<clipindex>4</clipindex>
						<groupindex>1</groupindex>
					</link>
					<itemhistory>
						<uuid>8DF0A9BE-9582-4BF1-8C74-315110420EE1</uuid>
					</itemhistory>
				</clipitem>
				<clipitem id="MVI_1009 4">
					<name>MVI_1009</name>
					<duration>14025</duration>
					<rate>
						<ntsc>TRUE</ntsc>
						<timebase>24</timebase>
					</rate>
					<in>0</in>
					<out>14025</out>
					<start>42460</start>
					<end>56485</end>
					<masterclipid>MVI_1009 1</masterclipid>
					<logginginfo>
						<scene/>
						<shottake/>
						<lognote/>
						<good>FALSE</good>
					</logginginfo>
					<labels>
						<label2/>
					</labels>
					<comments>
						<mastercomment1/>
						<mastercomment2/>
						<mastercomment3/>
						<mastercomment4/>
					</comments>
					<file id="MVI_1009 2"/>
					<marker>
						<name>how it makes me feel</name>
						<comment>experience,evaluation,perception,emotion,embodiment</comment>
						<color>
							<alpha>0</alpha>
							<red>255</red>
							<green>0</green>
							<blue>0</blue>
						</color>
						<in>1189</in>
						<out>1812</out>
					</marker>
					<marker>
						<name>new and interesting</name>
						<comment>newness, new media, evaluation, criticality,</comment>
						<color>
							<alpha>0</alpha>
							<red>255</red>
							<green>0</green>
							<blue>0</blue>
						</color>
						<in>2391</in>
						<out>2872</out>
					</marker>
					<marker>
						<name>emotional</name>
						<comment>feeling, emotion,&#13;</comment>
						<color>
							<alpha>0</alpha>
							<red>255</red>
							<green>0</green>
							<blue>0</blue>
						</color>
						<in>2897</in>
						<out>3464</out>
					</marker>
					<marker>
						<name>medium of our time</name>
						<comment>newness,technology,new media,art and tech,techpositive</comment>
						<color>
							<alpha>0</alpha>
							<red>255</red>
							<green>0</green>
							<blue>0</blue>
						</color>
						<in>4585</in>
						<out>5695</out>
					</marker>
					<marker>
						<name>we feel fine</name>
						<comment/>
						<color>
							<alpha>0</alpha>
							<red>255</red>
							<green>0</green>
							<blue>0</blue>
						</color>
						<in>7589</in>
						<out>8684</out>
					</marker>
					<marker>
						<name>Marker 6</name>
						<comment/>
						<color>
							<alpha>0</alpha>
							<red>255</red>
							<green>0</green>
							<blue>0</blue>
						</color>
						<in>10793</in>
						<out>-1</out>
					</marker>
					<marker>
						<name>strength of weak ties</name>
						<comment>social media,relationships,people,network,facebook,twitter</comment>
						<color>
							<alpha>0</alpha>
							<red>255</red>
							<green>0</green>
							<blue>0</blue>
						</color>
						<in>11352</in>
						<out>12901</out>
					</marker>
					<marker>
						<name>net friends</name>
						<comment>social media,relationships,people,network,facebook,twitter, community, </comment>
						<color>
							<alpha>0</alpha>
							<red>255</red>
							<green>0</green>
							<blue>0</blue>
						</color>
						<in>13035</in>
						<out>13864</out>
					</marker>
					<filter>
						<effect>
							<name>Audio Levels</name>
							<effectid>audiolevels</effectid>
							<effectcategory>audiolevels</effectcategory>
							<effecttype>audiolevels</effecttype>
							<mediatype>audio</mediatype>
							<parameter>
								<name>Level</name>
								<parameterid>level</parameterid>
								<valuemin>0</valuemin>
								<valuemax>3.98109</valuemax>
								<value>1</value>
							</parameter>
						</effect>
					</filter>
					<filter>
						<effect>
							<name>Audio Pan</name>
							<effectid>audiopan</effectid>
							<effectcategory>audiopan</effectcategory>
							<effecttype>audiopan</effecttype>
							<mediatype>audio</mediatype>
							<parameter>
								<name>Pan</name>
								<parameterid>pan</parameterid>
								<valuemin>-1</valuemin>
								<valuemax>1</valuemax>
								<value>1</value>
							</parameter>
						</effect>
					</filter>
					<sourcetrack>
						<mediatype>audio</mediatype>
						<trackindex>2</trackindex>
					</sourcetrack>
					<link>
						<linkclipref>MVI_1009 </linkclipref>
						<mediatype>video</mediatype>
						<trackindex>1</trackindex>
						<clipindex>5</clipindex>
					</link>
					<link>
						<linkclipref>MVI_1009 3</linkclipref>
						<mediatype>audio</mediatype>
						<trackindex>1</trackindex>
						<clipindex>5</clipindex>
						<groupindex>1</groupindex>
					</link>
					<link>
						<linkclipref>MVI_1009 4</linkclipref>
						<mediatype>audio</mediatype>
						<trackindex>2</trackindex>
						<clipindex>5</clipindex>
						<groupindex>1</groupindex>
					</link>
					<itemhistory>
						<uuid>37534ED4-CE8B-4EC3-B678-10A6A51F7AD6</uuid>
					</itemhistory>
				</clipitem>
				<clipitem id="MVI_1010 4">
					<name>MVI_1010</name>
					<duration>13719</duration>
					<rate>
						<ntsc>TRUE</ntsc>
						<timebase>24</timebase>
					</rate>
					<in>0</in>
					<out>10974</out>
					<start>56485</start>
					<end>67459</end>
					<masterclipid>MVI_1010 1</masterclipid>
					<logginginfo>
						<scene/>
						<shottake/>
						<lognote/>
						<good>FALSE</good>
					</logginginfo>
					<labels>
						<label2/>
					</labels>
					<comments>
						<mastercomment1/>
						<mastercomment2/>
						<mastercomment3/>
						<mastercomment4/>
					</comments>
					<file id="MVI_1010 2"/>
					<marker>
						<name>Marker 3</name>
						<comment/>
						<color>
							<alpha>0</alpha>
							<red>255</red>
							<green>0</green>
							<blue>0</blue>
						</color>
						<in>7233</in>
						<out>7848</out>
					</marker>
					<marker>
						<name>Marker 2</name>
						<comment/>
						<color>
							<alpha>0</alpha>
							<red>255</red>
							<green>0</green>
							<blue>0</blue>
						</color>
						<in>9364</in>
						<out>-1</out>
					</marker>
					<marker>
						<name>make us more compassionate</name>
						<comment>community, society, progress, interconnectedness</comment>
						<color>
							<alpha>0</alpha>
							<red>255</red>
							<green>0</green>
							<blue>0</blue>
						</color>
						<in>10974</in>
						<out>11684</out>
					</marker>
					<marker>
						<name>toward greater generosity</name>
						<comment>community, society, progress, interconnectedness, generosity, sharing, the gift</comment>
						<color>
							<alpha>0</alpha>
							<red>255</red>
							<green>0</green>
							<blue>0</blue>
						</color>
						<in>11816</in>
						<out>13566</out>
					</marker>
					<filter>
						<effect>
							<name>Audio Levels</name>
							<effectid>audiolevels</effectid>
							<effectcategory>audiolevels</effectcategory>
							<effecttype>audiolevels</effecttype>
							<mediatype>audio</mediatype>
							<parameter>
								<name>Level</name>
								<parameterid>level</parameterid>
								<valuemin>0</valuemin>
								<valuemax>3.98109</valuemax>
								<value>1</value>
							</parameter>
						</effect>
					</filter>
					<filter>
						<effect>
							<name>Audio Pan</name>
							<effectid>audiopan</effectid>
							<effectcategory>audiopan</effectcategory>
							<effecttype>audiopan</effecttype>
							<mediatype>audio</mediatype>
							<parameter>
								<name>Pan</name>
								<parameterid>pan</parameterid>
								<valuemin>-1</valuemin>
								<valuemax>1</valuemax>
								<value>1</value>
							</parameter>
						</effect>
					</filter>
					<sourcetrack>
						<mediatype>audio</mediatype>
						<trackindex>2</trackindex>
					</sourcetrack>
					<link>
						<linkclipref>MVI_1010 </linkclipref>
						<mediatype>video</mediatype>
						<trackindex>1</trackindex>
						<clipindex>6</clipindex>
					</link>
					<link>
						<linkclipref>MVI_1010 3</linkclipref>
						<mediatype>audio</mediatype>
						<trackindex>1</trackindex>
						<clipindex>6</clipindex>
						<groupindex>1</groupindex>
					</link>
					<link>
						<linkclipref>MVI_1010 4</linkclipref>
						<mediatype>audio</mediatype>
						<trackindex>2</trackindex>
						<clipindex>6</clipindex>
						<groupindex>1</groupindex>
					</link>
					<itemhistory>
						<uuid>3E3E9C6C-887D-49EB-993C-5B733860F67C</uuid>
						<uuid>F5EF85A9-D02D-49C7-A251-B99C5F743299</uuid>
					</itemhistory>
				</clipitem>
				<clipitem id="MVI_1010 7">
					<name>MVI_1010</name>
					<duration>13719</duration>
					<rate>
						<ntsc>TRUE</ntsc>
						<timebase>24</timebase>
					</rate>
					<in>10974</in>
					<out>11684</out>
					<start>67459</start>
					<end>68169</end>
					<masterclipid>MVI_1010 1</masterclipid>
					<logginginfo>
						<scene/>
						<shottake/>
						<lognote/>
						<good>FALSE</good>
					</logginginfo>
					<labels>
						<label2/>
					</labels>
					<comments>
						<mastercomment1/>
						<mastercomment2/>
						<mastercomment3/>
						<mastercomment4/>
					</comments>
					<file id="MVI_1010 2"/>
					<marker>
						<name>Marker 3</name>
						<comment/>
						<color>
							<alpha>0</alpha>
							<red>255</red>
							<green>0</green>
							<blue>0</blue>
						</color>
						<in>7233</in>
						<out>7848</out>
					</marker>
					<marker>
						<name>Marker 2</name>
						<comment/>
						<color>
							<alpha>0</alpha>
							<red>255</red>
							<green>0</green>
							<blue>0</blue>
						</color>
						<in>9364</in>
						<out>-1</out>
					</marker>
					<marker>
						<name>make us more compassionate</name>
						<comment>community, society, progress, interconnectedness</comment>
						<color>
							<alpha>0</alpha>
							<red>255</red>
							<green>0</green>
							<blue>0</blue>
						</color>
						<in>10974</in>
						<out>11684</out>
					</marker>
					<marker>
						<name>toward greater generosity</name>
						<comment>community, society, progress, interconnectedness, generosity, sharing, the gift</comment>
						<color>
							<alpha>0</alpha>
							<red>255</red>
							<green>0</green>
							<blue>0</blue>
						</color>
						<in>11816</in>
						<out>13566</out>
					</marker>
					<filter>
						<effect>
							<name>Audio Levels</name>
							<effectid>audiolevels</effectid>
							<effectcategory>audiolevels</effectcategory>
							<effecttype>audiolevels</effecttype>
							<mediatype>audio</mediatype>
							<parameter>
								<name>Level</name>
								<parameterid>level</parameterid>
								<valuemin>0</valuemin>
								<valuemax>3.98109</valuemax>
								<value>1</value>
							</parameter>
						</effect>
					</filter>
					<filter>
						<effect>
							<name>Audio Pan</name>
							<effectid>audiopan</effectid>
							<effectcategory>audiopan</effectcategory>
							<effecttype>audiopan</effecttype>
							<mediatype>audio</mediatype>
							<parameter>
								<name>Pan</name>
								<parameterid>pan</parameterid>
								<valuemin>-1</valuemin>
								<valuemax>1</valuemax>
								<value>1</value>
							</parameter>
						</effect>
					</filter>
					<sourcetrack>
						<mediatype>audio</mediatype>
						<trackindex>2</trackindex>
					</sourcetrack>
					<link>
						<linkclipref>MVI_1010 5</linkclipref>
						<mediatype>video</mediatype>
						<trackindex>1</trackindex>
						<clipindex>7</clipindex>
					</link>
					<link>
						<linkclipref>MVI_1010 6</linkclipref>
						<mediatype>audio</mediatype>
						<trackindex>1</trackindex>
						<clipindex>7</clipindex>
						<groupindex>1</groupindex>
					</link>
					<link>
						<linkclipref>MVI_1010 7</linkclipref>
						<mediatype>audio</mediatype>
						<trackindex>2</trackindex>
						<clipindex>7</clipindex>
						<groupindex>1</groupindex>
					</link>
					<itemhistory>
						<uuid>E4FB2153-11C8-4B24-9FEE-1A5C9A303982</uuid>
						<uuid>F5EF85A9-D02D-49C7-A251-B99C5F743299</uuid>
					</itemhistory>
				</clipitem>
				<clipitem id="MVI_1010 10">
					<name>MVI_1010</name>
					<duration>13719</duration>
					<rate>
						<ntsc>TRUE</ntsc>
						<timebase>24</timebase>
					</rate>
					<in>11684</in>
					<out>13719</out>
					<start>68169</start>
					<end>70204</end>
					<masterclipid>MVI_1010 1</masterclipid>
					<logginginfo>
						<scene/>
						<shottake/>
						<lognote/>
						<good>FALSE</good>
					</logginginfo>
					<labels>
						<label2/>
					</labels>
					<comments>
						<mastercomment1/>
						<mastercomment2/>
						<mastercomment3/>
						<mastercomment4/>
					</comments>
					<file id="MVI_1010 2"/>
					<marker>
						<name>Marker 3</name>
						<comment/>
						<color>
							<alpha>0</alpha>
							<red>255</red>
							<green>0</green>
							<blue>0</blue>
						</color>
						<in>7233</in>
						<out>7848</out>
					</marker>
					<marker>
						<name>Marker 2</name>
						<comment/>
						<color>
							<alpha>0</alpha>
							<red>255</red>
							<green>0</green>
							<blue>0</blue>
						</color>
						<in>9364</in>
						<out>-1</out>
					</marker>
					<marker>
						<name>make us more compassionate</name>
						<comment>community, society, progress, interconnectedness</comment>
						<color>
							<alpha>0</alpha>
							<red>255</red>
							<green>0</green>
							<blue>0</blue>
						</color>
						<in>10974</in>
						<out>11684</out>
					</marker>
					<marker>
						<name>toward greater generosity</name>
						<comment>community, society, progress, interconnectedness, generosity, sharing, the gift</comment>
						<color>
							<alpha>0</alpha>
							<red>255</red>
							<green>0</green>
							<blue>0</blue>
						</color>
						<in>11816</in>
						<out>13566</out>
					</marker>
					<filter>
						<effect>
							<name>Audio Levels</name>
							<effectid>audiolevels</effectid>
							<effectcategory>audiolevels</effectcategory>
							<effecttype>audiolevels</effecttype>
							<mediatype>audio</mediatype>
							<parameter>
								<name>Level</name>
								<parameterid>level</parameterid>
								<valuemin>0</valuemin>
								<valuemax>3.98109</valuemax>
								<value>1</value>
							</parameter>
						</effect>
					</filter>
					<filter>
						<effect>
							<name>Audio Pan</name>
							<effectid>audiopan</effectid>
							<effectcategory>audiopan</effectcategory>
							<effecttype>audiopan</effecttype>
							<mediatype>audio</mediatype>
							<parameter>
								<name>Pan</name>
								<parameterid>pan</parameterid>
								<valuemin>-1</valuemin>
								<valuemax>1</valuemax>
								<value>1</value>
							</parameter>
						</effect>
					</filter>
					<sourcetrack>
						<mediatype>audio</mediatype>
						<trackindex>2</trackindex>
					</sourcetrack>
					<link>
						<linkclipref>MVI_1010 8</linkclipref>
						<mediatype>video</mediatype>
						<trackindex>1</trackindex>
						<clipindex>8</clipindex>
					</link>
					<link>
						<linkclipref>MVI_1010 9</linkclipref>
						<mediatype>audio</mediatype>
						<trackindex>1</trackindex>
						<clipindex>8</clipindex>
						<groupindex>1</groupindex>
					</link>
					<link>
						<linkclipref>MVI_1010 10</linkclipref>
						<mediatype>audio</mediatype>
						<trackindex>2</trackindex>
						<clipindex>8</clipindex>
						<groupindex>1</groupindex>
					</link>
					<itemhistory>
						<uuid>2C6D0EFF-22A6-4E28-B839-C83FEE5C59E8</uuid>
						<uuid>F5EF85A9-D02D-49C7-A251-B99C5F743299</uuid>
					</itemhistory>
				</clipitem>
				<enabled>TRUE</enabled>
				<locked>FALSE</locked>
				<outputchannelindex>2</outputchannelindex>
			</track>
			<track>
				<enabled>TRUE</enabled>
				<locked>FALSE</locked>
				<outputchannelindex>1</outputchannelindex>
			</track>
			<track>
				<enabled>TRUE</enabled>
				<locked>FALSE</locked>
				<outputchannelindex>2</outputchannelindex>
			</track>
			<filter>
				<effect>
					<name>Audio Levels</name>
					<effectid>audiolevels</effectid>
					<effectcategory>audiolevels</effectcategory>
					<effecttype>audiolevels</effecttype>
					<mediatype>audio</mediatype>
					<parameter>
						<name>Level</name>
						<parameterid>level</parameterid>
						<valuemin>0</valuemin>
						<valuemax>3.98109</valuemax>
						<value>1</value>
					</parameter>
				</effect>
			</filter>
		</audio>
	</media>
	<ismasterclip>FALSE</ismasterclip>
</sequence>
<sequence id="Julian">
	<uuid>05E2D417-EF91-47D5-80A4-CD83F896EBAE</uuid>
	<updatebehavior>add</updatebehavior>
	<name>Julian</name>
	<duration>55533</duration>
	<rate>
		<ntsc>TRUE</ntsc>
		<timebase>24</timebase>
	</rate>
	<timecode>
		<rate>
			<ntsc>TRUE</ntsc>
			<timebase>24</timebase>
		</rate>
		<string>01:00:00:00</string>
		<frame>86400</frame>
		<source>source</source>
		<displayformat>NDF</displayformat>
	</timecode>
	<in>-1</in>
	<out>-1</out>
	<media>
		<video>
			<format>
				<samplecharacteristics>
					<width>1920</width>
					<height>1080</height>
					<anamorphic>FALSE</anamorphic>
					<pixelaspectratio>Square</pixelaspectratio>
					<fielddominance>none</fielddominance>
					<rate>
						<ntsc>TRUE</ntsc>
						<timebase>24</timebase>
					</rate>
					<colordepth>24</colordepth>
					<codec>
						<name>Apple ProRes 422</name>
						<appspecificdata>
							<appname>Final Cut Pro</appname>
							<appmanufacturer>Apple Inc.</appmanufacturer>
							<appversion>7.0</appversion>
							<data>
								<qtcodec>
									<codecname>Apple ProRes 422</codecname>
									<codectypename>Apple ProRes 422 (HQ)</codectypename>
									<codectypecode>apch</codectypecode>
									<codecvendorcode>appl</codecvendorcode>
									<spatialquality>1024</spatialquality>
									<temporalquality>0</temporalquality>
									<keyframerate>0</keyframerate>
									<datarate>0</datarate>
								</qtcodec>
							</data>
						</appspecificdata>
					</codec>
				</samplecharacteristics>
				<appspecificdata>
					<appname>Final Cut Pro</appname>
					<appmanufacturer>Apple Inc.</appmanufacturer>
					<appversion>7.0</appversion>
					<data>
						<fcpimageprocessing>
							<useyuv>TRUE</useyuv>
							<usesuperwhite>FALSE</usesuperwhite>
							<rendermode>Float10BPP</rendermode>
						</fcpimageprocessing>
					</data>
				</appspecificdata>
			</format>
			<track>
				<clipitem id="MVI_1011 ">
					<name>MVI_1011</name>
					<duration>13279</duration>
					<rate>
						<ntsc>TRUE</ntsc>
						<timebase>24</timebase>
					</rate>
					<in>0</in>
					<out>13279</out>
					<start>0</start>
					<end>13279</end>
					<pixelaspectratio>Square</pixelaspectratio>
					<anamorphic>FALSE</anamorphic>
					<alphatype>none</alphatype>
					<masterclipid>MVI_1011 1</masterclipid>
					<logginginfo>
						<scene/>
						<shottake/>
						<lognote/>
						<good>FALSE</good>
					</logginginfo>
					<labels>
						<label2/>
					</labels>
					<comments>
						<mastercomment1/>
						<mastercomment2/>
						<mastercomment3/>
						<mastercomment4/>
					</comments>
					<file id="MVI_1011 2">
						<name>MVI_1011.mov</name>
						<pathurl>file://localhost/Volumes/Nebula/MediaPackages/EyeoMediaBin/Julian01/MVI_1011.mov</pathurl>
						<rate>
							<timebase>24</timebase>
							<ntsc>TRUE</ntsc>
						</rate>
						<duration>13279</duration>
						<media>
							<video>
								<duration>13279</duration>
								<samplecharacteristics>
									<width>1920</width>
									<height>1080</height>
								</samplecharacteristics>
							</video>
							<audio>
								<samplecharacteristics>
									<samplerate>48000</samplerate>
									<depth>16</depth>
								</samplecharacteristics>
								<channelcount>2</channelcount>
							</audio>
						</media>
					</file>
					<marker>
						<name>Critical engineering</name>
						<comment>critical engineering,&#13;hacking,&#13;thinking with code,&#13;criticality,&#13;power,&#13;symbiosis,&#13;infrastructure,&#13;Link: Marius - New aesthetic&#13;</comment>
						<color>
							<alpha>0</alpha>
							<red>255</red>
							<green>0</green>
							<blue>0</blue>
						</color>
						<in>2004</in>
						<out>3143</out>
					</marker>
					<marker>
						<name>Transparency</name>
						<comment>Transparency,&#13;power,&#13;information,&#13;hack,</comment>
						<color>
							<alpha>0</alpha>
							<red>255</red>
							<green>0</green>
							<blue>0</blue>
						</color>
						<in>6341</in>
						<out>7790</out>
					</marker>
					<marker>
						<name>Marker 3</name>
						<comment/>
						<color>
							<alpha>0</alpha>
							<red>255</red>
							<green>0</green>
							<blue>0</blue>
						</color>
						<in>8081</in>
						<out>-1</out>
					</marker>
					<sourcetrack>
						<mediatype>video</mediatype>
					</sourcetrack>
					<link>
						<linkclipref>MVI_1011 </linkclipref>
						<mediatype>video</mediatype>
						<trackindex>1</trackindex>
						<clipindex>1</clipindex>
					</link>
					<link>
						<linkclipref>MVI_1011 3</linkclipref>
						<mediatype>audio</mediatype>
						<trackindex>1</trackindex>
						<clipindex>1</clipindex>
						<groupindex>1</groupindex>
					</link>
					<link>
						<linkclipref>MVI_1011 4</linkclipref>
						<mediatype>audio</mediatype>
						<trackindex>2</trackindex>
						<clipindex>1</clipindex>
						<groupindex>1</groupindex>
					</link>
					<fielddominance>none</fielddominance>
					<itemhistory>
						<uuid>D834FE20-516D-49E0-95F5-7091649C75F4</uuid>
					</itemhistory>
				</clipitem>
				<clipitem id="MVI_1012 ">
					<name>MVI_1012</name>
					<duration>12884</duration>
					<rate>
						<ntsc>TRUE</ntsc>
						<timebase>24</timebase>
					</rate>
					<in>0</in>
					<out>12884</out>
					<start>13279</start>
					<end>26163</end>
					<pixelaspectratio>Square</pixelaspectratio>
					<anamorphic>FALSE</anamorphic>
					<alphatype>none</alphatype>
					<masterclipid>MVI_1012 1</masterclipid>
					<logginginfo>
						<scene/>
						<shottake/>
						<lognote/>
						<good>FALSE</good>
					</logginginfo>
					<labels>
						<label2/>
					</labels>
					<comments>
						<mastercomment1/>
						<mastercomment2/>
						<mastercomment3/>
						<mastercomment4/>
					</comments>
					<file id="MVI_1012 2">
						<name>MVI_1012.mov</name>
						<pathurl>file://localhost/Volumes/Nebula/MediaPackages/EyeoMediaBin/Julian02/color/MVI_1012.mov</pathurl>
						<rate>
							<timebase>24</timebase>
							<ntsc>TRUE</ntsc>
						</rate>
						<duration>12884</duration>
						<media>
							<video>
								<duration>12884</duration>
								<samplecharacteristics>
									<width>1920</width>
									<height>1080</height>
								</samplecharacteristics>
							</video>
							<audio>
								<samplecharacteristics>
									<samplerate>48000</samplerate>
									<depth>16</depth>
								</samplecharacteristics>
								<channelcount>2</channelcount>
							</audio>
						</media>
					</file>
					<sourcetrack>
						<mediatype>video</mediatype>
					</sourcetrack>
					<link>
						<linkclipref>MVI_1012 </linkclipref>
						<mediatype>video</mediatype>
						<trackindex>1</trackindex>
						<clipindex>2</clipindex>
					</link>
					<link>
						<linkclipref>MVI_1012 3</linkclipref>
						<mediatype>audio</mediatype>
						<trackindex>1</trackindex>
						<clipindex>2</clipindex>
						<groupindex>1</groupindex>
					</link>
					<link>
						<linkclipref>MVI_1012 4</linkclipref>
						<mediatype>audio</mediatype>
						<trackindex>2</trackindex>
						<clipindex>2</clipindex>
						<groupindex>1</groupindex>
					</link>
					<fielddominance>none</fielddominance>
					<itemhistory>
						<uuid>15BC81A1-1C12-4028-A5DC-93C3F3C3BC6C</uuid>
					</itemhistory>
				</clipitem>
				<clipitem id="MVI_1013 ">
					<name>MVI_1013</name>
					<duration>14149</duration>
					<rate>
						<ntsc>TRUE</ntsc>
						<timebase>24</timebase>
					</rate>
					<in>0</in>
					<out>14149</out>
					<start>26163</start>
					<end>40312</end>
					<pixelaspectratio>Square</pixelaspectratio>
					<anamorphic>FALSE</anamorphic>
					<alphatype>none</alphatype>
					<masterclipid>MVI_1013 1</masterclipid>
					<logginginfo>
						<scene/>
						<shottake/>
						<lognote/>
						<good>FALSE</good>
					</logginginfo>
					<labels>
						<label2/>
					</labels>
					<comments>
						<mastercomment1/>
						<mastercomment2/>
						<mastercomment3/>
						<mastercomment4/>
					</comments>
					<file id="MVI_1013 2">
						<name>MVI_1013.mov</name>
						<pathurl>file://localhost/Volumes/Nebula/MediaPackages/EyeoMediaBin/Julian03/color/MVI_1013.mov</pathurl>
						<rate>
							<timebase>24</timebase>
							<ntsc>TRUE</ntsc>
						</rate>
						<duration>14149</duration>
						<media>
							<video>
								<duration>14149</duration>
								<samplecharacteristics>
									<width>1920</width>
									<height>1080</height>
								</samplecharacteristics>
							</video>
							<audio>
								<samplecharacteristics>
									<samplerate>48000</samplerate>
									<depth>16</depth>
								</samplecharacteristics>
								<channelcount>2</channelcount>
							</audio>
						</media>
					</file>
					<sourcetrack>
						<mediatype>video</mediatype>
					</sourcetrack>
					<link>
						<linkclipref>MVI_1013 </linkclipref>
						<mediatype>video</mediatype>
						<trackindex>1</trackindex>
						<clipindex>3</clipindex>
					</link>
					<link>
						<linkclipref>MVI_1013 3</linkclipref>
						<mediatype>audio</mediatype>
						<trackindex>1</trackindex>
						<clipindex>3</clipindex>
						<groupindex>1</groupindex>
					</link>
					<link>
						<linkclipref>MVI_1013 4</linkclipref>
						<mediatype>audio</mediatype>
						<trackindex>2</trackindex>
						<clipindex>3</clipindex>
						<groupindex>1</groupindex>
					</link>
					<fielddominance>none</fielddominance>
					<itemhistory>
						<uuid>41807FA6-CE16-4DFA-8A60-EF3E7FD18DCC</uuid>
					</itemhistory>
				</clipitem>
				<clipitem id="MVI_1014 ">
					<name>MVI_1014</name>
					<duration>15221</duration>
					<rate>
						<ntsc>TRUE</ntsc>
						<timebase>24</timebase>
					</rate>
					<in>0</in>
					<out>15221</out>
					<start>40312</start>
					<end>55533</end>
					<pixelaspectratio>Square</pixelaspectratio>
					<enabled>TRUE</enabled>
					<anamorphic>FALSE</anamorphic>
					<alphatype>none</alphatype>
					<masterclipid>MVI_1014 1</masterclipid>
					<logginginfo>
						<scene/>
						<shottake/>
						<lognote/>
						<good>FALSE</good>
					</logginginfo>
					<labels>
						<label2/>
					</labels>
					<comments>
						<mastercomment1/>
						<mastercomment2/>
						<mastercomment3/>
						<mastercomment4/>
					</comments>
					<file id="MVI_1014 2">
						<name>MVI_1014.mov</name>
						<pathurl>file://localhost/Volumes/Nebula/MediaPackages/EyeoMediaBin/Julian04/color/MVI_1014.mov</pathurl>
						<rate>
							<timebase>24</timebase>
							<ntsc>TRUE</ntsc>
						</rate>
						<duration>15221</duration>
						<media>
							<video>
								<duration>15221</duration>
								<samplecharacteristics>
									<width>1920</width>
									<height>1080</height>
								</samplecharacteristics>
							</video>
							<audio>
								<samplecharacteristics>
									<samplerate>48000</samplerate>
									<depth>16</depth>
								</samplecharacteristics>
								<channelcount>2</channelcount>
							</audio>
						</media>
					</file>
					<marker>
						<name>I love networks</name>
						<comment>network,&#13;network security,</comment>
						<color>
							<alpha>0</alpha>
							<red>255</red>
							<green>0</green>
							<blue>0</blue>
						</color>
						<in>5628</in>
						<out>6228</out>
					</marker>
					<marker>
						<name>city as operating system</name>
						<comment>society,&#13;power,&#13;control,&#13;cities,&#13;infrastructure,&#13;network security,</comment>
						<color>
							<alpha>0</alpha>
							<red>255</red>
							<green>0</green>
							<blue>0</blue>
						</color>
						<in>6348</in>
						<out>7659</out>
					</marker>
					<sourcetrack>
						<mediatype>video</mediatype>
					</sourcetrack>
					<link>
						<linkclipref>MVI_1014 </linkclipref>
						<mediatype>video</mediatype>
						<trackindex>1</trackindex>
						<clipindex>4</clipindex>
					</link>
					<link>
						<linkclipref>MVI_1014 3</linkclipref>
						<mediatype>audio</mediatype>
						<trackindex>1</trackindex>
						<clipindex>4</clipindex>
						<groupindex>1</groupindex>
					</link>
					<link>
						<linkclipref>MVI_1014 4</linkclipref>
						<mediatype>audio</mediatype>
						<trackindex>2</trackindex>
						<clipindex>4</clipindex>
						<groupindex>1</groupindex>
					</link>
					<fielddominance>none</fielddominance>
					<itemhistory>
						<uuid>778139EB-410B-42F4-9812-AB6C261A2171</uuid>
					</itemhistory>
				</clipitem>
				<enabled>TRUE</enabled>
				<locked>FALSE</locked>
			</track>
			<track>
				<clipitem id="MVI_1011 5">
					<name>MVI_1011</name>
					<duration>13279</duration>
					<rate>
						<ntsc>TRUE</ntsc>
						<timebase>24</timebase>
					</rate>
					<in>0</in>
					<out>13279</out>
					<start>0</start>
					<end>13279</end>
					<pixelaspectratio>Square</pixelaspectratio>
					<anamorphic>FALSE</anamorphic>
					<alphatype>none</alphatype>
					<masterclipid>MVI_1011 1</masterclipid>
					<logginginfo>
						<scene/>
						<shottake/>
						<lognote/>
						<good>FALSE</good>
					</logginginfo>
					<labels>
						<label2/>
					</labels>
					<comments>
						<mastercomment1/>
						<mastercomment2/>
						<mastercomment3/>
						<mastercomment4/>
					</comments>
					<file id="MVI_1011 2"/>
					<marker>
						<name>Shapes the way we think</name>
						<comment>Symbiosis</comment>
						<color>
							<alpha>0</alpha>
							<red>255</red>
							<green>0</green>
							<blue>0</blue>
						</color>
						<in>2411</in>
						<out>2556</out>
					</marker>
					<marker>
						<name>Marker 3</name>
						<comment/>
						<color>
							<alpha>0</alpha>
							<red>255</red>
							<green>0</green>
							<blue>0</blue>
						</color>
						<in>8842</in>
						<out>9558</out>
					</marker>
					<marker>
						<name>Transparency grenade</name>
						<comment>information as weapon,&#13;network security,&#13;hack,&#13;&#13;</comment>
						<color>
							<alpha>0</alpha>
							<red>255</red>
							<green>0</green>
							<blue>0</blue>
						</color>
						<in>10080</in>
						<out>12899</out>
					</marker>
					<sourcetrack>
						<mediatype>video</mediatype>
					</sourcetrack>
					<fielddominance>none</fielddominance>
					<itemhistory>
						<uuid>BD9166D8-61AA-4F5D-AE9F-3727286830D7</uuid>
					</itemhistory>
				</clipitem>
				<enabled>TRUE</enabled>
				<locked>FALSE</locked>
			</track>
		</video>
		<audio>
			<format>
				<samplecharacteristics>
					<depth>16</depth>
					<samplerate>48000</samplerate>
				</samplecharacteristics>
			</format>
			<outputs>
				<group>
					<index>1</index>
					<numchannels>2</numchannels>
					<downmix>0</downmix>
					<channel>
						<index>1</index>
					</channel>
					<channel>
						<index>2</index>
					</channel>
				</group>
			</outputs>
			<in>-1</in>
			<out>-1</out>
			<track>
				<clipitem id="MVI_1011 3">
					<name>MVI_1011</name>
					<duration>13279</duration>
					<rate>
						<ntsc>TRUE</ntsc>
						<timebase>24</timebase>
					</rate>
					<in>0</in>
					<out>13279</out>
					<start>0</start>
					<end>13279</end>
					<masterclipid>MVI_1011 1</masterclipid>
					<logginginfo>
						<scene/>
						<shottake/>
						<lognote/>
						<good>FALSE</good>
					</logginginfo>
					<labels>
						<label2/>
					</labels>
					<comments>
						<mastercomment1/>
						<mastercomment2/>
						<mastercomment3/>
						<mastercomment4/>
					</comments>
					<file id="MVI_1011 2"/>
					<marker>
						<name>Critical engineering</name>
						<comment>critical engineering,&#13;hacking,&#13;thinking with code,&#13;criticality,&#13;power,&#13;symbiosis,&#13;infrastructure,&#13;Link: Marius - New aesthetic&#13;</comment>
						<color>
							<alpha>0</alpha>
							<red>255</red>
							<green>0</green>
							<blue>0</blue>
						</color>
						<in>2004</in>
						<out>3143</out>
					</marker>
					<marker>
						<name>Transparency</name>
						<comment>Transparency,&#13;power,&#13;information,&#13;hack,</comment>
						<color>
							<alpha>0</alpha>
							<red>255</red>
							<green>0</green>
							<blue>0</blue>
						</color>
						<in>6341</in>
						<out>7790</out>
					</marker>
					<marker>
						<name>Marker 3</name>
						<comment/>
						<color>
							<alpha>0</alpha>
							<red>255</red>
							<green>0</green>
							<blue>0</blue>
						</color>
						<in>8081</in>
						<out>-1</out>
					</marker>
					<filter>
						<effect>
							<name>Audio Levels</name>
							<effectid>audiolevels</effectid>
							<effectcategory>audiolevels</effectcategory>
							<effecttype>audiolevels</effecttype>
							<mediatype>audio</mediatype>
							<parameter>
								<name>Level</name>
								<parameterid>level</parameterid>
								<valuemin>0</valuemin>
								<valuemax>3.98109</valuemax>
								<value>1</value>
							</parameter>
						</effect>
					</filter>
					<filter>
						<effect>
							<name>Audio Pan</name>
							<effectid>audiopan</effectid>
							<effectcategory>audiopan</effectcategory>
							<effecttype>audiopan</effecttype>
							<mediatype>audio</mediatype>
							<parameter>
								<name>Pan</name>
								<parameterid>pan</parameterid>
								<valuemin>-1</valuemin>
								<valuemax>1</valuemax>
								<value>-1</value>
							</parameter>
						</effect>
					</filter>
					<sourcetrack>
						<mediatype>audio</mediatype>
						<trackindex>1</trackindex>
					</sourcetrack>
					<link>
						<linkclipref>MVI_1011 </linkclipref>
						<mediatype>video</mediatype>
						<trackindex>1</trackindex>
						<clipindex>1</clipindex>
					</link>
					<link>
						<linkclipref>MVI_1011 3</linkclipref>
						<mediatype>audio</mediatype>
						<trackindex>1</trackindex>
						<clipindex>1</clipindex>
						<groupindex>1</groupindex>
					</link>
					<link>
						<linkclipref>MVI_1011 4</linkclipref>
						<mediatype>audio</mediatype>
						<trackindex>2</trackindex>
						<clipindex>1</clipindex>
						<groupindex>1</groupindex>
					</link>
					<itemhistory>
						<uuid>0C8B4ADB-C4DE-4205-851B-D58DFB81F20F</uuid>
					</itemhistory>
				</clipitem>
				<clipitem id="MVI_1012 3">
					<name>MVI_1012</name>
					<duration>12884</duration>
					<rate>
						<ntsc>TRUE</ntsc>
						<timebase>24</timebase>
					</rate>
					<in>0</in>
					<out>12884</out>
					<start>13279</start>
					<end>26163</end>
					<masterclipid>MVI_1012 1</masterclipid>
					<logginginfo>
						<scene/>
						<shottake/>
						<lognote/>
						<good>FALSE</good>
					</logginginfo>
					<labels>
						<label2/>
					</labels>
					<comments>
						<mastercomment1/>
						<mastercomment2/>
						<mastercomment3/>
						<mastercomment4/>
					</comments>
					<file id="MVI_1012 2"/>
					<filter>
						<effect>
							<name>Audio Levels</name>
							<effectid>audiolevels</effectid>
							<effectcategory>audiolevels</effectcategory>
							<effecttype>audiolevels</effecttype>
							<mediatype>audio</mediatype>
							<parameter>
								<name>Level</name>
								<parameterid>level</parameterid>
								<valuemin>0</valuemin>
								<valuemax>3.98109</valuemax>
								<value>1</value>
							</parameter>
						</effect>
					</filter>
					<filter>
						<effect>
							<name>Audio Pan</name>
							<effectid>audiopan</effectid>
							<effectcategory>audiopan</effectcategory>
							<effecttype>audiopan</effecttype>
							<mediatype>audio</mediatype>
							<parameter>
								<name>Pan</name>
								<parameterid>pan</parameterid>
								<valuemin>-1</valuemin>
								<valuemax>1</valuemax>
								<value>-1</value>
							</parameter>
						</effect>
					</filter>
					<sourcetrack>
						<mediatype>audio</mediatype>
						<trackindex>1</trackindex>
					</sourcetrack>
					<link>
						<linkclipref>MVI_1012 </linkclipref>
						<mediatype>video</mediatype>
						<trackindex>1</trackindex>
						<clipindex>2</clipindex>
					</link>
					<link>
						<linkclipref>MVI_1012 3</linkclipref>
						<mediatype>audio</mediatype>
						<trackindex>1</trackindex>
						<clipindex>2</clipindex>
						<groupindex>1</groupindex>
					</link>
					<link>
						<linkclipref>MVI_1012 4</linkclipref>
						<mediatype>audio</mediatype>
						<trackindex>2</trackindex>
						<clipindex>2</clipindex>
						<groupindex>1</groupindex>
					</link>
					<itemhistory>
						<uuid>835211ED-44CD-4FDB-9293-6ABA02113A27</uuid>
					</itemhistory>
				</clipitem>
				<clipitem id="MVI_1013 3">
					<name>MVI_1013</name>
					<duration>14149</duration>
					<rate>
						<ntsc>TRUE</ntsc>
						<timebase>24</timebase>
					</rate>
					<in>0</in>
					<out>14149</out>
					<start>26163</start>
					<end>40312</end>
					<masterclipid>MVI_1013 1</masterclipid>
					<logginginfo>
						<scene/>
						<shottake/>
						<lognote/>
						<good>FALSE</good>
					</logginginfo>
					<labels>
						<label2/>
					</labels>
					<comments>
						<mastercomment1/>
						<mastercomment2/>
						<mastercomment3/>
						<mastercomment4/>
					</comments>
					<file id="MVI_1013 2"/>
					<filter>
						<effect>
							<name>Audio Levels</name>
							<effectid>audiolevels</effectid>
							<effectcategory>audiolevels</effectcategory>
							<effecttype>audiolevels</effecttype>
							<mediatype>audio</mediatype>
							<parameter>
								<name>Level</name>
								<parameterid>level</parameterid>
								<valuemin>0</valuemin>
								<valuemax>3.98109</valuemax>
								<value>1</value>
							</parameter>
						</effect>
					</filter>
					<filter>
						<effect>
							<name>Audio Pan</name>
							<effectid>audiopan</effectid>
							<effectcategory>audiopan</effectcategory>
							<effecttype>audiopan</effecttype>
							<mediatype>audio</mediatype>
							<parameter>
								<name>Pan</name>
								<parameterid>pan</parameterid>
								<valuemin>-1</valuemin>
								<valuemax>1</valuemax>
								<value>-1</value>
							</parameter>
						</effect>
					</filter>
					<sourcetrack>
						<mediatype>audio</mediatype>
						<trackindex>1</trackindex>
					</sourcetrack>
					<link>
						<linkclipref>MVI_1013 </linkclipref>
						<mediatype>video</mediatype>
						<trackindex>1</trackindex>
						<clipindex>3</clipindex>
					</link>
					<link>
						<linkclipref>MVI_1013 3</linkclipref>
						<mediatype>audio</mediatype>
						<trackindex>1</trackindex>
						<clipindex>3</clipindex>
						<groupindex>1</groupindex>
					</link>
					<link>
						<linkclipref>MVI_1013 4</linkclipref>
						<mediatype>audio</mediatype>
						<trackindex>2</trackindex>
						<clipindex>3</clipindex>
						<groupindex>1</groupindex>
					</link>
					<itemhistory>
						<uuid>655DFA9A-471C-4A00-B30E-82D5EAADC6AE</uuid>
					</itemhistory>
				</clipitem>
				<clipitem id="MVI_1014 3">
					<name>MVI_1014</name>
					<duration>15221</duration>
					<rate>
						<ntsc>TRUE</ntsc>
						<timebase>24</timebase>
					</rate>
					<in>0</in>
					<out>15221</out>
					<start>40312</start>
					<end>55533</end>
					<masterclipid>MVI_1014 1</masterclipid>
					<logginginfo>
						<scene/>
						<shottake/>
						<lognote/>
						<good>FALSE</good>
					</logginginfo>
					<labels>
						<label2/>
					</labels>
					<comments>
						<mastercomment1/>
						<mastercomment2/>
						<mastercomment3/>
						<mastercomment4/>
					</comments>
					<file id="MVI_1014 2"/>
					<marker>
						<name>I love networks</name>
						<comment>network,&#13;network security,</comment>
						<color>
							<alpha>0</alpha>
							<red>255</red>
							<green>0</green>
							<blue>0</blue>
						</color>
						<in>5628</in>
						<out>6228</out>
					</marker>
					<marker>
						<name>city as operating system</name>
						<comment>society,&#13;power,&#13;control,&#13;cities,&#13;infrastructure,&#13;network security,</comment>
						<color>
							<alpha>0</alpha>
							<red>255</red>
							<green>0</green>
							<blue>0</blue>
						</color>
						<in>6348</in>
						<out>7659</out>
					</marker>
					<filter>
						<effect>
							<name>Audio Levels</name>
							<effectid>audiolevels</effectid>
							<effectcategory>audiolevels</effectcategory>
							<effecttype>audiolevels</effecttype>
							<mediatype>audio</mediatype>
							<parameter>
								<name>Level</name>
								<parameterid>level</parameterid>
								<valuemin>0</valuemin>
								<valuemax>3.98109</valuemax>
								<value>1</value>
							</parameter>
						</effect>
					</filter>
					<filter>
						<effect>
							<name>Audio Pan</name>
							<effectid>audiopan</effectid>
							<effectcategory>audiopan</effectcategory>
							<effecttype>audiopan</effecttype>
							<mediatype>audio</mediatype>
							<parameter>
								<name>Pan</name>
								<parameterid>pan</parameterid>
								<valuemin>-1</valuemin>
								<valuemax>1</valuemax>
								<value>-1</value>
							</parameter>
						</effect>
					</filter>
					<sourcetrack>
						<mediatype>audio</mediatype>
						<trackindex>1</trackindex>
					</sourcetrack>
					<link>
						<linkclipref>MVI_1014 </linkclipref>
						<mediatype>video</mediatype>
						<trackindex>1</trackindex>
						<clipindex>4</clipindex>
					</link>
					<link>
						<linkclipref>MVI_1014 3</linkclipref>
						<mediatype>audio</mediatype>
						<trackindex>1</trackindex>
						<clipindex>4</clipindex>
						<groupindex>1</groupindex>
					</link>
					<link>
						<linkclipref>MVI_1014 4</linkclipref>
						<mediatype>audio</mediatype>
						<trackindex>2</trackindex>
						<clipindex>4</clipindex>
						<groupindex>1</groupindex>
					</link>
					<itemhistory>
						<uuid>DF2DB805-CA0C-4E0F-B875-DE8DE75AD02C</uuid>
					</itemhistory>
				</clipitem>
				<enabled>TRUE</enabled>
				<locked>FALSE</locked>
				<outputchannelindex>1</outputchannelindex>
			</track>
			<track>
				<clipitem id="MVI_1011 4">
					<name>MVI_1011</name>
					<duration>13279</duration>
					<rate>
						<ntsc>TRUE</ntsc>
						<timebase>24</timebase>
					</rate>
					<in>0</in>
					<out>13279</out>
					<start>0</start>
					<end>13279</end>
					<masterclipid>MVI_1011 1</masterclipid>
					<logginginfo>
						<scene/>
						<shottake/>
						<lognote/>
						<good>FALSE</good>
					</logginginfo>
					<labels>
						<label2/>
					</labels>
					<comments>
						<mastercomment1/>
						<mastercomment2/>
						<mastercomment3/>
						<mastercomment4/>
					</comments>
					<file id="MVI_1011 2"/>
					<marker>
						<name>Critical engineering</name>
						<comment>critical engineering,&#13;hacking,&#13;thinking with code,&#13;criticality,&#13;power,&#13;symbiosis,&#13;infrastructure,&#13;Link: Marius - New aesthetic&#13;</comment>
						<color>
							<alpha>0</alpha>
							<red>255</red>
							<green>0</green>
							<blue>0</blue>
						</color>
						<in>2004</in>
						<out>3143</out>
					</marker>
					<marker>
						<name>Transparency</name>
						<comment>Transparency,&#13;power,&#13;information,&#13;hack,</comment>
						<color>
							<alpha>0</alpha>
							<red>255</red>
							<green>0</green>
							<blue>0</blue>
						</color>
						<in>6341</in>
						<out>7790</out>
					</marker>
					<marker>
						<name>Marker 3</name>
						<comment/>
						<color>
							<alpha>0</alpha>
							<red>255</red>
							<green>0</green>
							<blue>0</blue>
						</color>
						<in>8081</in>
						<out>-1</out>
					</marker>
					<filter>
						<effect>
							<name>Audio Levels</name>
							<effectid>audiolevels</effectid>
							<effectcategory>audiolevels</effectcategory>
							<effecttype>audiolevels</effecttype>
							<mediatype>audio</mediatype>
							<parameter>
								<name>Level</name>
								<parameterid>level</parameterid>
								<valuemin>0</valuemin>
								<valuemax>3.98109</valuemax>
								<value>1</value>
							</parameter>
						</effect>
					</filter>
					<filter>
						<effect>
							<name>Audio Pan</name>
							<effectid>audiopan</effectid>
							<effectcategory>audiopan</effectcategory>
							<effecttype>audiopan</effecttype>
							<mediatype>audio</mediatype>
							<parameter>
								<name>Pan</name>
								<parameterid>pan</parameterid>
								<valuemin>-1</valuemin>
								<valuemax>1</valuemax>
								<value>1</value>
							</parameter>
						</effect>
					</filter>
					<sourcetrack>
						<mediatype>audio</mediatype>
						<trackindex>2</trackindex>
					</sourcetrack>
					<link>
						<linkclipref>MVI_1011 </linkclipref>
						<mediatype>video</mediatype>
						<trackindex>1</trackindex>
						<clipindex>1</clipindex>
					</link>
					<link>
						<linkclipref>MVI_1011 3</linkclipref>
						<mediatype>audio</mediatype>
						<trackindex>1</trackindex>
						<clipindex>1</clipindex>
						<groupindex>1</groupindex>
					</link>
					<link>
						<linkclipref>MVI_1011 4</linkclipref>
						<mediatype>audio</mediatype>
						<trackindex>2</trackindex>
						<clipindex>1</clipindex>
						<groupindex>1</groupindex>
					</link>
					<itemhistory>
						<uuid>E46823E9-8780-4AE3-B23F-6DBB6C8C49E9</uuid>
					</itemhistory>
				</clipitem>
				<clipitem id="MVI_1012 4">
					<name>MVI_1012</name>
					<duration>12884</duration>
					<rate>
						<ntsc>TRUE</ntsc>
						<timebase>24</timebase>
					</rate>
					<in>0</in>
					<out>12884</out>
					<start>13279</start>
					<end>26163</end>
					<masterclipid>MVI_1012 1</masterclipid>
					<logginginfo>
						<scene/>
						<shottake/>
						<lognote/>
						<good>FALSE</good>
					</logginginfo>
					<labels>
						<label2/>
					</labels>
					<comments>
						<mastercomment1/>
						<mastercomment2/>
						<mastercomment3/>
						<mastercomment4/>
					</comments>
					<file id="MVI_1012 2"/>
					<filter>
						<effect>
							<name>Audio Levels</name>
							<effectid>audiolevels</effectid>
							<effectcategory>audiolevels</effectcategory>
							<effecttype>audiolevels</effecttype>
							<mediatype>audio</mediatype>
							<parameter>
								<name>Level</name>
								<parameterid>level</parameterid>
								<valuemin>0</valuemin>
								<valuemax>3.98109</valuemax>
								<value>1</value>
							</parameter>
						</effect>
					</filter>
					<filter>
						<effect>
							<name>Audio Pan</name>
							<effectid>audiopan</effectid>
							<effectcategory>audiopan</effectcategory>
							<effecttype>audiopan</effecttype>
							<mediatype>audio</mediatype>
							<parameter>
								<name>Pan</name>
								<parameterid>pan</parameterid>
								<valuemin>-1</valuemin>
								<valuemax>1</valuemax>
								<value>1</value>
							</parameter>
						</effect>
					</filter>
					<sourcetrack>
						<mediatype>audio</mediatype>
						<trackindex>2</trackindex>
					</sourcetrack>
					<link>
						<linkclipref>MVI_1012 </linkclipref>
						<mediatype>video</mediatype>
						<trackindex>1</trackindex>
						<clipindex>2</clipindex>
					</link>
					<link>
						<linkclipref>MVI_1012 3</linkclipref>
						<mediatype>audio</mediatype>
						<trackindex>1</trackindex>
						<clipindex>2</clipindex>
						<groupindex>1</groupindex>
					</link>
					<link>
						<linkclipref>MVI_1012 4</linkclipref>
						<mediatype>audio</mediatype>
						<trackindex>2</trackindex>
						<clipindex>2</clipindex>
						<groupindex>1</groupindex>
					</link>
					<itemhistory>
						<uuid>E0F0198F-0F75-49D1-A32E-CC3D75059D0C</uuid>
					</itemhistory>
				</clipitem>
				<clipitem id="MVI_1013 4">
					<name>MVI_1013</name>
					<duration>14149</duration>
					<rate>
						<ntsc>TRUE</ntsc>
						<timebase>24</timebase>
					</rate>
					<in>0</in>
					<out>14149</out>
					<start>26163</start>
					<end>40312</end>
					<masterclipid>MVI_1013 1</masterclipid>
					<logginginfo>
						<scene/>
						<shottake/>
						<lognote/>
						<good>FALSE</good>
					</logginginfo>
					<labels>
						<label2/>
					</labels>
					<comments>
						<mastercomment1/>
						<mastercomment2/>
						<mastercomment3/>
						<mastercomment4/>
					</comments>
					<file id="MVI_1013 2"/>
					<filter>
						<effect>
							<name>Audio Levels</name>
							<effectid>audiolevels</effectid>
							<effectcategory>audiolevels</effectcategory>
							<effecttype>audiolevels</effecttype>
							<mediatype>audio</mediatype>
							<parameter>
								<name>Level</name>
								<parameterid>level</parameterid>
								<valuemin>0</valuemin>
								<valuemax>3.98109</valuemax>
								<value>1</value>
							</parameter>
						</effect>
					</filter>
					<filter>
						<effect>
							<name>Audio Pan</name>
							<effectid>audiopan</effectid>
							<effectcategory>audiopan</effectcategory>
							<effecttype>audiopan</effecttype>
							<mediatype>audio</mediatype>
							<parameter>
								<name>Pan</name>
								<parameterid>pan</parameterid>
								<valuemin>-1</valuemin>
								<valuemax>1</valuemax>
								<value>1</value>
							</parameter>
						</effect>
					</filter>
					<sourcetrack>
						<mediatype>audio</mediatype>
						<trackindex>2</trackindex>
					</sourcetrack>
					<link>
						<linkclipref>MVI_1013 </linkclipref>
						<mediatype>video</mediatype>
						<trackindex>1</trackindex>
						<clipindex>3</clipindex>
					</link>
					<link>
						<linkclipref>MVI_1013 3</linkclipref>
						<mediatype>audio</mediatype>
						<trackindex>1</trackindex>
						<clipindex>3</clipindex>
						<groupindex>1</groupindex>
					</link>
					<link>
						<linkclipref>MVI_1013 4</linkclipref>
						<mediatype>audio</mediatype>
						<trackindex>2</trackindex>
						<clipindex>3</clipindex>
						<groupindex>1</groupindex>
					</link>
					<itemhistory>
						<uuid>AA0F84BF-BD68-4645-9B65-7047487A1203</uuid>
					</itemhistory>
				</clipitem>
				<clipitem id="MVI_1014 4">
					<name>MVI_1014</name>
					<duration>15221</duration>
					<rate>
						<ntsc>TRUE</ntsc>
						<timebase>24</timebase>
					</rate>
					<in>0</in>
					<out>15221</out>
					<start>40312</start>
					<end>55533</end>
					<masterclipid>MVI_1014 1</masterclipid>
					<logginginfo>
						<scene/>
						<shottake/>
						<lognote/>
						<good>FALSE</good>
					</logginginfo>
					<labels>
						<label2/>
					</labels>
					<comments>
						<mastercomment1/>
						<mastercomment2/>
						<mastercomment3/>
						<mastercomment4/>
					</comments>
					<file id="MVI_1014 2"/>
					<marker>
						<name>I love networks</name>
						<comment>network,&#13;network security,</comment>
						<color>
							<alpha>0</alpha>
							<red>255</red>
							<green>0</green>
							<blue>0</blue>
						</color>
						<in>5628</in>
						<out>6228</out>
					</marker>
					<marker>
						<name>city as operating system</name>
						<comment>society,&#13;power,&#13;control,&#13;cities,&#13;infrastructure,&#13;network security,</comment>
						<color>
							<alpha>0</alpha>
							<red>255</red>
							<green>0</green>
							<blue>0</blue>
						</color>
						<in>6348</in>
						<out>7659</out>
					</marker>
					<filter>
						<effect>
							<name>Audio Levels</name>
							<effectid>audiolevels</effectid>
							<effectcategory>audiolevels</effectcategory>
							<effecttype>audiolevels</effecttype>
							<mediatype>audio</mediatype>
							<parameter>
								<name>Level</name>
								<parameterid>level</parameterid>
								<valuemin>0</valuemin>
								<valuemax>3.98109</valuemax>
								<value>1</value>
							</parameter>
						</effect>
					</filter>
					<filter>
						<effect>
							<name>Audio Pan</name>
							<effectid>audiopan</effectid>
							<effectcategory>audiopan</effectcategory>
							<effecttype>audiopan</effecttype>
							<mediatype>audio</mediatype>
							<parameter>
								<name>Pan</name>
								<parameterid>pan</parameterid>
								<valuemin>-1</valuemin>
								<valuemax>1</valuemax>
								<value>1</value>
							</parameter>
						</effect>
					</filter>
					<sourcetrack>
						<mediatype>audio</mediatype>
						<trackindex>2</trackindex>
					</sourcetrack>
					<link>
						<linkclipref>MVI_1014 </linkclipref>
						<mediatype>video</mediatype>
						<trackindex>1</trackindex>
						<clipindex>4</clipindex>
					</link>
					<link>
						<linkclipref>MVI_1014 3</linkclipref>
						<mediatype>audio</mediatype>
						<trackindex>1</trackindex>
						<clipindex>4</clipindex>
						<groupindex>1</groupindex>
					</link>
					<link>
						<linkclipref>MVI_1014 4</linkclipref>
						<mediatype>audio</mediatype>
						<trackindex>2</trackindex>
						<clipindex>4</clipindex>
						<groupindex>1</groupindex>
					</link>
					<itemhistory>
						<uuid>E6B9E4FC-32A8-4FA0-8A8E-96F6D232FAD5</uuid>
					</itemhistory>
				</clipitem>
				<enabled>TRUE</enabled>
				<locked>FALSE</locked>
				<outputchannelindex>2</outputchannelindex>
			</track>
			<track>
				<enabled>TRUE</enabled>
				<locked>FALSE</locked>
				<outputchannelindex>1</outputchannelindex>
			</track>
			<track>
				<enabled>TRUE</enabled>
				<locked>FALSE</locked>
				<outputchannelindex>2</outputchannelindex>
			</track>
			<filter>
				<effect>
					<name>Audio Levels</name>
					<effectid>audiolevels</effectid>
					<effectcategory>audiolevels</effectcategory>
					<effecttype>audiolevels</effecttype>
					<mediatype>audio</mediatype>
					<parameter>
						<name>Level</name>
						<parameterid>level</parameterid>
						<valuemin>0</valuemin>
						<valuemax>3.98109</valuemax>
						<value>1</value>
					</parameter>
				</effect>
			</filter>
		</audio>
	</media>
	<ismasterclip>FALSE</ismasterclip>
</sequence>
<sequence id="Kyle_MC">
	<uuid>B2624D24-4CAA-4350-9FCF-1B700F14E3B7</uuid>
	<updatebehavior>add</updatebehavior>
	<name>Kyle_MC</name>
	<duration>96963</duration>
	<rate>
		<ntsc>TRUE</ntsc>
		<timebase>24</timebase>
	</rate>
	<timecode>
		<rate>
			<ntsc>TRUE</ntsc>
			<timebase>24</timebase>
		</rate>
		<string>01:00:00:00</string>
		<frame>86400</frame>
		<source>source</source>
		<displayformat>NDF</displayformat>
	</timecode>
	<in>-1</in>
	<out>-1</out>
	<media>
		<video>
			<format>
				<samplecharacteristics>
					<width>1920</width>
					<height>1080</height>
					<anamorphic>FALSE</anamorphic>
					<pixelaspectratio>Square</pixelaspectratio>
					<fielddominance>none</fielddominance>
					<rate>
						<ntsc>TRUE</ntsc>
						<timebase>24</timebase>
					</rate>
					<colordepth>24</colordepth>
					<codec>
						<name>Apple ProRes 422</name>
						<appspecificdata>
							<appname>Final Cut Pro</appname>
							<appmanufacturer>Apple Inc.</appmanufacturer>
							<appversion>7.0</appversion>
							<data>
								<qtcodec>
									<codecname>Apple ProRes 422</codecname>
									<codectypename>Apple ProRes 422 (HQ)</codectypename>
									<codectypecode>apch</codectypecode>
									<codecvendorcode>appl</codecvendorcode>
									<spatialquality>1024</spatialquality>
									<temporalquality>0</temporalquality>
									<keyframerate>0</keyframerate>
									<datarate>0</datarate>
								</qtcodec>
							</data>
						</appspecificdata>
					</codec>
				</samplecharacteristics>
				<appspecificdata>
					<appname>Final Cut Pro</appname>
					<appmanufacturer>Apple Inc.</appmanufacturer>
					<appversion>7.0</appversion>
					<data>
						<fcpimageprocessing>
							<useyuv>TRUE</useyuv>
							<usesuperwhite>FALSE</usesuperwhite>
							<rendermode>Float10BPP</rendermode>
						</fcpimageprocessing>
					</data>
				</appspecificdata>
			</format>
			<track>
				<clipitem id="MVI_0973 ">
					<name>MVI_0973</name>
					<duration>5799</duration>
					<rate>
						<ntsc>TRUE</ntsc>
						<timebase>24</timebase>
					</rate>
					<in>0</in>
					<out>5799</out>
					<start>0</start>
					<end>5799</end>
					<pixelaspectratio>Square</pixelaspectratio>
					<anamorphic>FALSE</anamorphic>
					<alphatype>none</alphatype>
					<masterclipid>MVI_0973 1</masterclipid>
					<logginginfo>
						<scene/>
						<shottake/>
						<lognote/>
						<good>FALSE</good>
					</logginginfo>
					<labels>
						<label2/>
					</labels>
					<comments>
						<mastercomment1/>
						<mastercomment2/>
						<mastercomment3/>
						<mastercomment4/>
					</comments>
					<file id="MVI_0973 2">
						<name>MVI_0973.mov</name>
						<pathurl>file://localhost/Volumes/Nebula/MediaPackages/EyeoMediaBin/Kyle01/color/MVI_0973.mov</pathurl>
						<rate>
							<timebase>24</timebase>
							<ntsc>TRUE</ntsc>
						</rate>
						<duration>5799</duration>
						<media>
							<video>
								<duration>5799</duration>
								<samplecharacteristics>
									<width>1920</width>
									<height>1080</height>
								</samplecharacteristics>
							</video>
							<audio>
								<samplecharacteristics>
									<samplerate>48000</samplerate>
									<depth>16</depth>
								</samplecharacteristics>
								<channelcount>2</channelcount>
							</audio>
						</media>
					</file>
					<marker>
						<name>they all wear the same glasses</name>
						<comment>How would you describe creative coders as an anthropologist from tuvalu?,&#13;</comment>
						<color>
							<alpha>0</alpha>
							<red>255</red>
							<green>0</green>
							<blue>0</blue>
						</color>
						<in>4089</in>
						<out>5199</out>
					</marker>
					<sourcetrack>
						<mediatype>video</mediatype>
					</sourcetrack>
					<link>
						<linkclipref>MVI_0973 </linkclipref>
						<mediatype>video</mediatype>
						<trackindex>1</trackindex>
						<clipindex>1</clipindex>
					</link>
					<link>
						<linkclipref>MVI_0973 3</linkclipref>
						<mediatype>audio</mediatype>
						<trackindex>1</trackindex>
						<clipindex>1</clipindex>
						<groupindex>1</groupindex>
					</link>
					<link>
						<linkclipref>MVI_0973 4</linkclipref>
						<mediatype>audio</mediatype>
						<trackindex>2</trackindex>
						<clipindex>1</clipindex>
						<groupindex>1</groupindex>
					</link>
					<fielddominance>none</fielddominance>
					<itemhistory>
						<uuid>1B46E26D-CF81-46A7-89BB-F97B84F5C309</uuid>
					</itemhistory>
				</clipitem>
				<clipitem id="MVI_0974 ">
					<name>MVI_0974</name>
					<duration>20786</duration>
					<rate>
						<ntsc>TRUE</ntsc>
						<timebase>24</timebase>
					</rate>
					<in>0</in>
					<out>20786</out>
					<start>5799</start>
					<end>26585</end>
					<pixelaspectratio>Square</pixelaspectratio>
					<anamorphic>FALSE</anamorphic>
					<alphatype>none</alphatype>
					<masterclipid>MVI_0974 1</masterclipid>
					<logginginfo>
						<scene/>
						<shottake/>
						<lognote/>
						<good>FALSE</good>
					</logginginfo>
					<labels>
						<label2/>
					</labels>
					<comments>
						<mastercomment1/>
						<mastercomment2/>
						<mastercomment3/>
						<mastercomment4/>
					</comments>
					<file id="MVI_0974 2">
						<name>MVI_0974.mov</name>
						<pathurl>file://localhost/Volumes/Nebula/MediaPackages/EyeoMediaBin/Kyle02/color/MVI_0974.mov</pathurl>
						<rate>
							<timebase>24</timebase>
							<ntsc>TRUE</ntsc>
						</rate>
						<duration>20786</duration>
						<media>
							<video>
								<duration>20786</duration>
								<samplecharacteristics>
									<width>1920</width>
									<height>1080</height>
								</samplecharacteristics>
							</video>
							<audio>
								<samplecharacteristics>
									<samplerate>48000</samplerate>
									<depth>16</depth>
								</samplecharacteristics>
								<channelcount>2</channelcount>
							</audio>
						</media>
					</file>
					<marker>
						<name>code as a means and a theme</name>
						<comment>art and code,&#13;thinking through code,&#13;performance,&#13;public,&#13;social,</comment>
						<color>
							<alpha>0</alpha>
							<red>255</red>
							<green>0</green>
							<blue>0</blue>
						</color>
						<in>2758</in>
						<out>3723</out>
					</marker>
					<marker>
						<name>Code as a tool</name>
						<comment>link: Marius "aesthetic experience"&#13;"continuous process of exploration"&#13;</comment>
						<color>
							<alpha>0</alpha>
							<red>255</red>
							<green>0</green>
							<blue>0</blue>
						</color>
						<in>3818</in>
						<out>4184</out>
					</marker>
					<marker>
						<name>Marker 5</name>
						<comment>Face,&#13;</comment>
						<color>
							<alpha>0</alpha>
							<red>255</red>
							<green>0</green>
							<blue>0</blue>
						</color>
						<in>5151</in>
						<out>6487</out>
					</marker>
					<marker>
						<name>Better face trackers</name>
						<comment>camera,&#13;machine vision,&#13;object recognition,&#13;CV,&#13;face tracking,&#13;</comment>
						<color>
							<alpha>0</alpha>
							<red>255</red>
							<green>0</green>
							<blue>0</blue>
						</color>
						<in>6682</in>
						<out>9097</out>
					</marker>
					<marker>
						<name>Marker 7</name>
						<comment>Why are these algorithms interesting?,&#13;camera,&#13;machine vision,&#13;CV,&#13;face tracking,&#13;algorithm&#13;</comment>
						<color>
							<alpha>0</alpha>
							<red>255</red>
							<green>0</green>
							<blue>0</blue>
						</color>
						<in>9894</in>
						<out>10267</out>
					</marker>
					<marker>
						<name>Debug screen</name>
						<comment>why is machine vision uncanny?,&#13;artificial intelligence,&#13;interface,&#13;debug screen,&#13;algorithm,</comment>
						<color>
							<alpha>0</alpha>
							<red>255</red>
							<green>0</green>
							<blue>0</blue>
						</color>
						<in>11870</in>
						<out>12548</out>
					</marker>
					<marker>
						<name>new aesthetic</name>
						<comment>new aesthetic,&#13;machine vision,&#13;digital culture,&#13;artifacts,&#13;&#13;</comment>
						<color>
							<alpha>0</alpha>
							<red>255</red>
							<green>0</green>
							<blue>0</blue>
						</color>
						<in>16311</in>
						<out>17392</out>
					</marker>
					<marker>
						<name>New Aesthetic p 2</name>
						<comment>new aesthetic,&#13;ghost in the machine,&#13;imitation, &#13;mimesis,&#13;gesture</comment>
						<color>
							<alpha>0</alpha>
							<red>255</red>
							<green>0</green>
							<blue>0</blue>
						</color>
						<in>17513</in>
						<out>19029</out>
					</marker>
					<marker>
						<name>Marker 15</name>
						<comment/>
						<color>
							<alpha>0</alpha>
							<red>255</red>
							<green>0</green>
							<blue>0</blue>
						</color>
						<in>20170</in>
						<out>20684</out>
					</marker>
					<sourcetrack>
						<mediatype>video</mediatype>
					</sourcetrack>
					<link>
						<linkclipref>MVI_0974 </linkclipref>
						<mediatype>video</mediatype>
						<trackindex>1</trackindex>
						<clipindex>2</clipindex>
					</link>
					<link>
						<linkclipref>MVI_0974 3</linkclipref>
						<mediatype>audio</mediatype>
						<trackindex>1</trackindex>
						<clipindex>2</clipindex>
						<groupindex>1</groupindex>
					</link>
					<link>
						<linkclipref>MVI_0974 4</linkclipref>
						<mediatype>audio</mediatype>
						<trackindex>2</trackindex>
						<clipindex>2</clipindex>
						<groupindex>1</groupindex>
					</link>
					<fielddominance>none</fielddominance>
					<itemhistory>
						<uuid>65D689CC-7F5F-4DC4-BDCE-22EDE5713663</uuid>
					</itemhistory>
				</clipitem>
				<clipitem id="MVI_0975 ">
					<name>MVI_0975</name>
					<duration>14820</duration>
					<rate>
						<ntsc>TRUE</ntsc>
						<timebase>24</timebase>
					</rate>
					<in>0</in>
					<out>14820</out>
					<start>26585</start>
					<end>41405</end>
					<pixelaspectratio>Square</pixelaspectratio>
					<anamorphic>FALSE</anamorphic>
					<alphatype>none</alphatype>
					<masterclipid>MVI_0975 1</masterclipid>
					<logginginfo>
						<scene/>
						<shottake/>
						<lognote/>
						<good>FALSE</good>
					</logginginfo>
					<labels>
						<label2/>
					</labels>
					<comments>
						<mastercomment1/>
						<mastercomment2/>
						<mastercomment3/>
						<mastercomment4/>
					</comments>
					<file id="MVI_0975 2">
						<name>MVI_0975.mov</name>
						<pathurl>file://localhost/Volumes/Nebula/MediaPackages/EyeoMediaBin/Kyle03/color/MVI_0975.mov</pathurl>
						<rate>
							<timebase>24</timebase>
							<ntsc>TRUE</ntsc>
						</rate>
						<duration>14820</duration>
						<media>
							<video>
								<duration>14820</duration>
								<samplecharacteristics>
									<width>1920</width>
									<height>1080</height>
								</samplecharacteristics>
							</video>
							<audio>
								<samplecharacteristics>
									<samplerate>48000</samplerate>
									<depth>16</depth>
								</samplecharacteristics>
								<channelcount>2</channelcount>
							</audio>
						</media>
					</file>
					<marker>
						<name>Keytweeter</name>
						<comment>twitter,&#13;public/private,&#13;social,&#13;</comment>
						<color>
							<alpha>0</alpha>
							<red>255</red>
							<green>0</green>
							<blue>0</blue>
						</color>
						<in>3688</in>
						<out>6132</out>
					</marker>
					<marker>
						<name>Marker 3</name>
						<comment/>
						<color>
							<alpha>0</alpha>
							<red>255</red>
							<green>0</green>
							<blue>0</blue>
						</color>
						<in>6246</in>
						<out>7691</out>
					</marker>
					<marker>
						<name>Marker 7</name>
						<comment/>
						<color>
							<alpha>0</alpha>
							<red>255</red>
							<green>0</green>
							<blue>0</blue>
						</color>
						<in>9216</in>
						<out>-1</out>
					</marker>
					<marker>
						<name>Marker 4</name>
						<comment>self reflection,&#13;digital culture,&#13;digital natives,&#13;sadness,&#13;</comment>
						<color>
							<alpha>0</alpha>
							<red>255</red>
							<green>0</green>
							<blue>0</blue>
						</color>
						<in>9222</in>
						<out>9919</out>
					</marker>
					<marker>
						<name>People staring at computers</name>
						<comment>public/private,&#13;hack,&#13;</comment>
						<color>
							<alpha>0</alpha>
							<red>255</red>
							<green>0</green>
							<blue>0</blue>
						</color>
						<in>10056</in>
						<out>10460</out>
					</marker>
					<marker>
						<name>People staring at Screens p 2</name>
						<comment>public/private,&#13;hack,&#13;</comment>
						<color>
							<alpha>0</alpha>
							<red>255</red>
							<green>0</green>
							<blue>0</blue>
						</color>
						<in>10689</in>
						<out>12462</out>
					</marker>
					<sourcetrack>
						<mediatype>video</mediatype>
					</sourcetrack>
					<link>
						<linkclipref>MVI_0975 </linkclipref>
						<mediatype>video</mediatype>
						<trackindex>1</trackindex>
						<clipindex>3</clipindex>
					</link>
					<link>
						<linkclipref>MVI_0975 3</linkclipref>
						<mediatype>audio</mediatype>
						<trackindex>1</trackindex>
						<clipindex>3</clipindex>
						<groupindex>1</groupindex>
					</link>
					<link>
						<linkclipref>MVI_0975 4</linkclipref>
						<mediatype>audio</mediatype>
						<trackindex>2</trackindex>
						<clipindex>3</clipindex>
						<groupindex>1</groupindex>
					</link>
					<fielddominance>none</fielddominance>
					<itemhistory>
						<uuid>50280A69-3A3F-46BB-A257-D55927CE7436</uuid>
					</itemhistory>
				</clipitem>
				<clipitem id="MVI_0976 ">
					<name>MVI_0976</name>
					<duration>13525</duration>
					<rate>
						<ntsc>TRUE</ntsc>
						<timebase>24</timebase>
					</rate>
					<in>0</in>
					<out>13525</out>
					<start>41405</start>
					<end>54930</end>
					<pixelaspectratio>Square</pixelaspectratio>
					<anamorphic>FALSE</anamorphic>
					<alphatype>none</alphatype>
					<masterclipid>MVI_0976 1</masterclipid>
					<logginginfo>
						<scene/>
						<shottake/>
						<lognote/>
						<good>FALSE</good>
					</logginginfo>
					<labels>
						<label2/>
					</labels>
					<comments>
						<mastercomment1/>
						<mastercomment2/>
						<mastercomment3/>
						<mastercomment4/>
					</comments>
					<file id="MVI_0976 2">
						<name>MVI_0976.mov</name>
						<pathurl>file://localhost/Volumes/Nebula/MediaPackages/EyeoMediaBin/Kyle04/color/MVI_0976.mov</pathurl>
						<rate>
							<timebase>24</timebase>
							<ntsc>TRUE</ntsc>
						</rate>
						<duration>13525</duration>
						<media>
							<video>
								<duration>13525</duration>
								<samplecharacteristics>
									<width>1920</width>
									<height>1080</height>
								</samplecharacteristics>
							</video>
							<audio>
								<samplecharacteristics>
									<samplerate>48000</samplerate>
									<depth>16</depth>
								</samplecharacteristics>
								<channelcount>2</channelcount>
							</audio>
						</media>
					</file>
					<marker>
						<name>Hackers</name>
						<comment>hackers,&#13;criticality,&#13;Link: Julian Oliver "Critical engineering"&#13;</comment>
						<color>
							<alpha>0</alpha>
							<red>255</red>
							<green>0</green>
							<blue>0</blue>
						</color>
						<in>165</in>
						<out>1016</out>
					</marker>
					<marker>
						<name>Hackers and artists</name>
						<comment>Hackers,&#13;hacker artists,&#13;critcaility,&#13;Anonymous,&#13;Link: Julian "Transparency Grenade"&#13;</comment>
						<color>
							<alpha>0</alpha>
							<red>255</red>
							<green>0</green>
							<blue>0</blue>
						</color>
						<in>1261</in>
						<out>2687</out>
					</marker>
					<marker>
						<name/>
						<comment>users,&#13;devices,&#13;apple,</comment>
						<color>
							<alpha>0</alpha>
							<red>255</red>
							<green>0</green>
							<blue>0</blue>
						</color>
						<in>3084</in>
						<out>3525</out>
					</marker>
					<marker>
						<name>We don't understand the thing</name>
						<comment>criticality,&#13;the Cloud,&#13;ignorance,&#13;complexity,&#13;network security,&#13;users,&#13;program or be programmed,&#13;Link: Julian "I love networks",&#13;Link: Julian "Transparency Grenade"&#13;&#13;</comment>
						<color>
							<alpha>0</alpha>
							<red>255</red>
							<green>0</green>
							<blue>0</blue>
						</color>
						<in>3706</in>
						<out>4340</out>
					</marker>
					<marker>
						<name>Anonymous</name>
						<comment>criticality,&#13;network security,&#13;Anonymous,&#13;hackers,&#13;transparency,&#13;power,&#13;control,&#13;&#13;</comment>
						<color>
							<alpha>0</alpha>
							<red>255</red>
							<green>0</green>
							<blue>0</blue>
						</color>
						<in>4496</in>
						<out>5560</out>
					</marker>
					<marker>
						<name>Transparent Tech</name>
						<comment>tools,&#13;open software,&#13;critical engineering,&#13;transparency,&#13;program or be programmed,</comment>
						<color>
							<alpha>0</alpha>
							<red>255</red>
							<green>0</green>
							<blue>0</blue>
						</color>
						<in>6561</in>
						<out>6905</out>
					</marker>
					<marker>
						<name>Face Tracking military</name>
						<comment>Face tracking,&#13;military technology,&#13;power, &#13;surveillance,&#13;</comment>
						<color>
							<alpha>0</alpha>
							<red>255</red>
							<green>0</green>
							<blue>0</blue>
						</color>
						<in>6928</in>
						<out>8121</out>
					</marker>
					<marker>
						<name>Transparent tech</name>
						<comment>tools,&#13;open software,&#13;critical engineering,&#13;transparency,&#13;technological progress,&#13;Future,</comment>
						<color>
							<alpha>0</alpha>
							<red>255</red>
							<green>0</green>
							<blue>0</blue>
						</color>
						<in>8574</in>
						<out>8812</out>
					</marker>
					<marker>
						<name>Marker 9</name>
						<comment/>
						<color>
							<alpha>0</alpha>
							<red>255</red>
							<green>0</green>
							<blue>0</blue>
						</color>
						<in>9268</in>
						<out>-1</out>
					</marker>
					<marker>
						<name>Eyewriter</name>
						<comment>eyewriter,&#13;prosthetic,&#13;drawing,&#13;cyborg,&#13;</comment>
						<color>
							<alpha>0</alpha>
							<red>255</red>
							<green>0</green>
							<blue>0</blue>
						</color>
						<in>10837</in>
						<out>11259</out>
					</marker>
					<sourcetrack>
						<mediatype>video</mediatype>
					</sourcetrack>
					<link>
						<linkclipref>MVI_0976 </linkclipref>
						<mediatype>video</mediatype>
						<trackindex>1</trackindex>
						<clipindex>4</clipindex>
					</link>
					<link>
						<linkclipref>MVI_0976 3</linkclipref>
						<mediatype>audio</mediatype>
						<trackindex>1</trackindex>
						<clipindex>4</clipindex>
						<groupindex>1</groupindex>
					</link>
					<link>
						<linkclipref>MVI_0976 4</linkclipref>
						<mediatype>audio</mediatype>
						<trackindex>2</trackindex>
						<clipindex>4</clipindex>
						<groupindex>1</groupindex>
					</link>
					<fielddominance>none</fielddominance>
					<itemhistory>
						<uuid>2C47930D-A8E7-42AB-B148-BA24329FBD00</uuid>
					</itemhistory>
				</clipitem>
				<clipitem id="MVI_0977 ">
					<name>MVI_0977</name>
					<duration>12108</duration>
					<rate>
						<ntsc>TRUE</ntsc>
						<timebase>24</timebase>
					</rate>
					<in>0</in>
					<out>12108</out>
					<start>54930</start>
					<end>67038</end>
					<pixelaspectratio>Square</pixelaspectratio>
					<anamorphic>FALSE</anamorphic>
					<alphatype>none</alphatype>
					<masterclipid>MVI_0977 1</masterclipid>
					<logginginfo>
						<scene/>
						<shottake/>
						<lognote/>
						<good>FALSE</good>
					</logginginfo>
					<labels>
						<label2/>
					</labels>
					<comments>
						<mastercomment1/>
						<mastercomment2/>
						<mastercomment3/>
						<mastercomment4/>
					</comments>
					<file id="MVI_0977 2">
						<name>MVI_0977.mov</name>
						<pathurl>file://localhost/Volumes/Nebula/MediaPackages/EyeoMediaBin/Kyle05/color/MVI_0977.mov</pathurl>
						<rate>
							<timebase>24</timebase>
							<ntsc>TRUE</ntsc>
						</rate>
						<duration>12108</duration>
						<media>
							<video>
								<duration>12108</duration>
								<samplecharacteristics>
									<width>1920</width>
									<height>1080</height>
								</samplecharacteristics>
							</video>
							<audio>
								<samplecharacteristics>
									<samplerate>48000</samplerate>
									<depth>16</depth>
								</samplecharacteristics>
								<channelcount>2</channelcount>
							</audio>
						</media>
					</file>
					<sourcetrack>
						<mediatype>video</mediatype>
					</sourcetrack>
					<link>
						<linkclipref>MVI_0977 </linkclipref>
						<mediatype>video</mediatype>
						<trackindex>1</trackindex>
						<clipindex>5</clipindex>
					</link>
					<link>
						<linkclipref>MVI_0977 3</linkclipref>
						<mediatype>audio</mediatype>
						<trackindex>1</trackindex>
						<clipindex>5</clipindex>
						<groupindex>1</groupindex>
					</link>
					<link>
						<linkclipref>MVI_0977 4</linkclipref>
						<mediatype>audio</mediatype>
						<trackindex>2</trackindex>
						<clipindex>5</clipindex>
						<groupindex>1</groupindex>
					</link>
					<fielddominance>none</fielddominance>
					<itemhistory>
						<uuid>3E6CED4C-4E17-432B-9870-1256F917DAA0</uuid>
					</itemhistory>
				</clipitem>
				<clipitem id="MVI_0978 ">
					<name>MVI_0978</name>
					<duration>13742</duration>
					<rate>
						<ntsc>TRUE</ntsc>
						<timebase>24</timebase>
					</rate>
					<in>0</in>
					<out>13742</out>
					<start>67038</start>
					<end>80780</end>
					<pixelaspectratio>Square</pixelaspectratio>
					<anamorphic>FALSE</anamorphic>
					<alphatype>none</alphatype>
					<masterclipid>MVI_0978 1</masterclipid>
					<logginginfo>
						<scene/>
						<shottake/>
						<lognote/>
						<good>FALSE</good>
					</logginginfo>
					<labels>
						<label2/>
					</labels>
					<comments>
						<mastercomment1/>
						<mastercomment2/>
						<mastercomment3/>
						<mastercomment4/>
					</comments>
					<file id="MVI_0978 2">
						<name>MVI_0978.mov</name>
						<pathurl>file://localhost/Volumes/Nebula/MediaPackages/EyeoMediaBin/Kyle06/color/MVI_0978.mov</pathurl>
						<rate>
							<timebase>24</timebase>
							<ntsc>TRUE</ntsc>
						</rate>
						<duration>13742</duration>
						<media>
							<video>
								<duration>13742</duration>
								<samplecharacteristics>
									<width>1920</width>
									<height>1080</height>
								</samplecharacteristics>
							</video>
							<audio>
								<samplecharacteristics>
									<samplerate>48000</samplerate>
									<depth>16</depth>
								</samplecharacteristics>
								<channelcount>2</channelcount>
							</audio>
						</media>
					</file>
					<marker>
						<name>Kinect</name>
						<comment>RGBD,&#13;camera,&#13;3D sensing,&#13;3D scanning,</comment>
						<color>
							<alpha>0</alpha>
							<red>255</red>
							<green>0</green>
							<blue>0</blue>
						</color>
						<in>137</in>
						<out>1504</out>
					</marker>
					<marker>
						<name>Marker 2</name>
						<comment/>
						<color>
							<alpha>0</alpha>
							<red>255</red>
							<green>0</green>
							<blue>0</blue>
						</color>
						<in>3048</in>
						<out>6249</out>
					</marker>
					<marker>
						<name>Marker 3</name>
						<comment>Beauty,&#13;3D printing,&#13;Link: Marius "Thoroughly enjoying it at the moment"</comment>
						<color>
							<alpha>0</alpha>
							<red>255</red>
							<green>0</green>
							<blue>0</blue>
						</color>
						<in>9531</in>
						<out>10460</out>
					</marker>
					<marker>
						<name>kinect was meant for</name>
						<comment>assistive technology,&#13;gesture recognition,&#13;embodiment,&#13;kinect,&#13;</comment>
						<color>
							<alpha>0</alpha>
							<red>255</red>
							<green>0</green>
							<blue>0</blue>
						</color>
						<in>11205</in>
						<out>12011</out>
					</marker>
					<marker>
						<name>Marker 5</name>
						<comment/>
						<color>
							<alpha>0</alpha>
							<red>255</red>
							<green>0</green>
							<blue>0</blue>
						</color>
						<in>12917</in>
						<out>13222</out>
					</marker>
					<sourcetrack>
						<mediatype>video</mediatype>
					</sourcetrack>
					<link>
						<linkclipref>MVI_0978 </linkclipref>
						<mediatype>video</mediatype>
						<trackindex>1</trackindex>
						<clipindex>6</clipindex>
					</link>
					<link>
						<linkclipref>MVI_0978 3</linkclipref>
						<mediatype>audio</mediatype>
						<trackindex>1</trackindex>
						<clipindex>6</clipindex>
						<groupindex>1</groupindex>
					</link>
					<link>
						<linkclipref>MVI_0978 4</linkclipref>
						<mediatype>audio</mediatype>
						<trackindex>2</trackindex>
						<clipindex>6</clipindex>
						<groupindex>1</groupindex>
					</link>
					<fielddominance>none</fielddominance>
					<itemhistory>
						<uuid>AF0D881B-E147-4BC7-96B1-2684CAF077A4</uuid>
					</itemhistory>
				</clipitem>
				<clipitem id="MVI_0979 ">
					<name>MVI_0979</name>
					<duration>16183</duration>
					<rate>
						<ntsc>TRUE</ntsc>
						<timebase>24</timebase>
					</rate>
					<in>0</in>
					<out>3246</out>
					<start>80780</start>
					<end>84026</end>
					<pixelaspectratio>Square</pixelaspectratio>
					<enabled>TRUE</enabled>
					<anamorphic>FALSE</anamorphic>
					<alphatype>none</alphatype>
					<masterclipid>MVI_0979 1</masterclipid>
					<logginginfo>
						<scene/>
						<shottake/>
						<lognote/>
						<good>FALSE</good>
					</logginginfo>
					<labels>
						<label2/>
					</labels>
					<comments>
						<mastercomment1/>
						<mastercomment2/>
						<mastercomment3/>
						<mastercomment4/>
					</comments>
					<file id="MVI_0979 2">
						<name>MVI_0979.mov</name>
						<pathurl>file://localhost/Volumes/Nebula/MediaPackages/EyeoMediaBin/Kyle07/color/MVI_0979.mov</pathurl>
						<rate>
							<timebase>24</timebase>
							<ntsc>TRUE</ntsc>
						</rate>
						<duration>16183</duration>
						<media>
							<video>
								<duration>16183</duration>
								<samplecharacteristics>
									<width>1920</width>
									<height>1080</height>
								</samplecharacteristics>
							</video>
							<audio>
								<samplecharacteristics>
									<samplerate>48000</samplerate>
									<depth>16</depth>
								</samplecharacteristics>
								<channelcount>2</channelcount>
							</audio>
						</media>
					</file>
					<marker>
						<name>programmers vs artists</name>
						<comment>exploration, art versus engineering</comment>
						<color>
							<alpha>0</alpha>
							<red>255</red>
							<green>0</green>
							<blue>0</blue>
						</color>
						<in>1468</in>
						<out>2418</out>
					</marker>
					<marker>
						<name>art versus engineering</name>
						<comment>exploration,art versus engineering,&#13;evaluation</comment>
						<color>
							<alpha>0</alpha>
							<red>255</red>
							<green>0</green>
							<blue>0</blue>
						</color>
						<in>3256</in>
						<out>3831</out>
					</marker>
					<marker>
						<name>artist is never done</name>
						<comment>completion,&#13;evaluation,&#13;infinite conversation,&#13;infinite game, &#13;art versus engineering</comment>
						<color>
							<alpha>0</alpha>
							<red>255</red>
							<green>0</green>
							<blue>0</blue>
						</color>
						<in>4124</in>
						<out>4530</out>
					</marker>
					<marker>
						<name>folowing the finger</name>
						<comment>rephotography,&#13;cinema of the future,&#13;</comment>
						<color>
							<alpha>0</alpha>
							<red>255</red>
							<green>0</green>
							<blue>0</blue>
						</color>
						<in>6592</in>
						<out>6873</out>
					</marker>
					<marker>
						<name>the comment thread</name>
						<comment>the answer,&#13;the future,&#13;dialogue,&#13;visionary,&#13;commentary,&#13;</comment>
						<color>
							<alpha>0</alpha>
							<red>255</red>
							<green>0</green>
							<blue>0</blue>
						</color>
						<in>8696</in>
						<out>9605</out>
					</marker>
					<sourcetrack>
						<mediatype>video</mediatype>
					</sourcetrack>
					<link>
						<linkclipref>MVI_0979 </linkclipref>
						<mediatype>video</mediatype>
						<trackindex>1</trackindex>
						<clipindex>7</clipindex>
					</link>
					<link>
						<linkclipref>MVI_0979 3</linkclipref>
						<mediatype>audio</mediatype>
						<trackindex>1</trackindex>
						<clipindex>7</clipindex>
						<groupindex>1</groupindex>
					</link>
					<link>
						<linkclipref>MVI_0979 4</linkclipref>
						<mediatype>audio</mediatype>
						<trackindex>2</trackindex>
						<clipindex>7</clipindex>
						<groupindex>1</groupindex>
					</link>
					<fielddominance>none</fielddominance>
					<itemhistory>
						<uuid>AC1DA209-08D1-435C-BB81-DFBA2030C2CB</uuid>
						<uuid>A51FA045-01AC-45F9-AF17-26AD790CE7A7</uuid>
					</itemhistory>
				</clipitem>
				<clipitem id="MVI_0979 5">
					<name>MVI_0979</name>
					<duration>16183</duration>
					<rate>
						<ntsc>TRUE</ntsc>
						<timebase>24</timebase>
					</rate>
					<in>3246</in>
					<out>4524</out>
					<start>84026</start>
					<end>85304</end>
					<pixelaspectratio>Square</pixelaspectratio>
					<enabled>TRUE</enabled>
					<anamorphic>FALSE</anamorphic>
					<alphatype>none</alphatype>
					<masterclipid>MVI_0979 1</masterclipid>
					<logginginfo>
						<scene/>
						<shottake/>
						<lognote/>
						<good>FALSE</good>
					</logginginfo>
					<labels>
						<label2/>
					</labels>
					<comments>
						<mastercomment1/>
						<mastercomment2/>
						<mastercomment3/>
						<mastercomment4/>
					</comments>
					<file id="MVI_0979 2"/>
					<marker>
						<name>programmers vs artists</name>
						<comment>exploration, art versus engineering</comment>
						<color>
							<alpha>0</alpha>
							<red>255</red>
							<green>0</green>
							<blue>0</blue>
						</color>
						<in>1468</in>
						<out>2418</out>
					</marker>
					<marker>
						<name>art versus engineering</name>
						<comment>exploration,art versus engineering,&#13;evaluation</comment>
						<color>
							<alpha>0</alpha>
							<red>255</red>
							<green>0</green>
							<blue>0</blue>
						</color>
						<in>3256</in>
						<out>3831</out>
					</marker>
					<marker>
						<name>artist is never done</name>
						<comment>completion,&#13;evaluation,&#13;infinite conversation,&#13;infinite game, &#13;art versus engineering</comment>
						<color>
							<alpha>0</alpha>
							<red>255</red>
							<green>0</green>
							<blue>0</blue>
						</color>
						<in>4124</in>
						<out>4530</out>
					</marker>
					<marker>
						<name>folowing the finger</name>
						<comment>rephotography,&#13;cinema of the future,&#13;</comment>
						<color>
							<alpha>0</alpha>
							<red>255</red>
							<green>0</green>
							<blue>0</blue>
						</color>
						<in>6592</in>
						<out>6873</out>
					</marker>
					<marker>
						<name>the comment thread</name>
						<comment>the answer,&#13;the future,&#13;dialogue,&#13;visionary,&#13;commentary,&#13;</comment>
						<color>
							<alpha>0</alpha>
							<red>255</red>
							<green>0</green>
							<blue>0</blue>
						</color>
						<in>8696</in>
						<out>9605</out>
					</marker>
					<sourcetrack>
						<mediatype>video</mediatype>
					</sourcetrack>
					<link>
						<linkclipref>MVI_0979 5</linkclipref>
						<mediatype>video</mediatype>
						<trackindex>1</trackindex>
						<clipindex>8</clipindex>
					</link>
					<link>
						<linkclipref>MVI_0979 6</linkclipref>
						<mediatype>audio</mediatype>
						<trackindex>1</trackindex>
						<clipindex>8</clipindex>
						<groupindex>1</groupindex>
					</link>
					<link>
						<linkclipref>MVI_0979 7</linkclipref>
						<mediatype>audio</mediatype>
						<trackindex>2</trackindex>
						<clipindex>8</clipindex>
						<groupindex>1</groupindex>
					</link>
					<fielddominance>none</fielddominance>
					<itemhistory>
						<uuid>B4FD4410-9601-45E6-9263-DB25729AAFFF</uuid>
						<uuid>A51FA045-01AC-45F9-AF17-26AD790CE7A7</uuid>
					</itemhistory>
				</clipitem>
				<clipitem id="MVI_0979 8">
					<name>MVI_0979</name>
					<duration>16183</duration>
					<rate>
						<ntsc>TRUE</ntsc>
						<timebase>24</timebase>
					</rate>
					<in>4524</in>
					<out>16183</out>
					<start>85304</start>
					<end>96963</end>
					<pixelaspectratio>Square</pixelaspectratio>
					<enabled>TRUE</enabled>
					<anamorphic>FALSE</anamorphic>
					<alphatype>none</alphatype>
					<masterclipid>MVI_0979 1</masterclipid>
					<logginginfo>
						<scene/>
						<shottake/>
						<lognote/>
						<good>FALSE</good>
					</logginginfo>
					<labels>
						<label2/>
					</labels>
					<comments>
						<mastercomment1/>
						<mastercomment2/>
						<mastercomment3/>
						<mastercomment4/>
					</comments>
					<file id="MVI_0979 2"/>
					<marker>
						<name>programmers vs artists</name>
						<comment>exploration, art versus engineering</comment>
						<color>
							<alpha>0</alpha>
							<red>255</red>
							<green>0</green>
							<blue>0</blue>
						</color>
						<in>1468</in>
						<out>2418</out>
					</marker>
					<marker>
						<name>art versus engineering</name>
						<comment>exploration,art versus engineering,&#13;evaluation</comment>
						<color>
							<alpha>0</alpha>
							<red>255</red>
							<green>0</green>
							<blue>0</blue>
						</color>
						<in>3256</in>
						<out>3831</out>
					</marker>
					<marker>
						<name>artist is never done</name>
						<comment>completion,&#13;evaluation,&#13;infinite conversation,&#13;infinite game, &#13;art versus engineering</comment>
						<color>
							<alpha>0</alpha>
							<red>255</red>
							<green>0</green>
							<blue>0</blue>
						</color>
						<in>4124</in>
						<out>4530</out>
					</marker>
					<marker>
						<name>folowing the finger</name>
						<comment>rephotography,&#13;cinema of the future,&#13;</comment>
						<color>
							<alpha>0</alpha>
							<red>255</red>
							<green>0</green>
							<blue>0</blue>
						</color>
						<in>6592</in>
						<out>6873</out>
					</marker>
					<marker>
						<name>the comment thread</name>
						<comment>the answer,&#13;the future,&#13;dialogue,&#13;visionary,&#13;commentary,&#13;</comment>
						<color>
							<alpha>0</alpha>
							<red>255</red>
							<green>0</green>
							<blue>0</blue>
						</color>
						<in>8696</in>
						<out>9605</out>
					</marker>
					<sourcetrack>
						<mediatype>video</mediatype>
					</sourcetrack>
					<link>
						<linkclipref>MVI_0979 8</linkclipref>
						<mediatype>video</mediatype>
						<trackindex>1</trackindex>
						<clipindex>9</clipindex>
					</link>
					<link>
						<linkclipref>MVI_0979 9</linkclipref>
						<mediatype>audio</mediatype>
						<trackindex>1</trackindex>
						<clipindex>9</clipindex>
						<groupindex>1</groupindex>
					</link>
					<link>
						<linkclipref>MVI_0979 10</linkclipref>
						<mediatype>audio</mediatype>
						<trackindex>2</trackindex>
						<clipindex>9</clipindex>
						<groupindex>1</groupindex>
					</link>
					<fielddominance>none</fielddominance>
					<itemhistory>
						<uuid>EFFF6FE3-4129-4696-A0CB-0F7703409EF6</uuid>
						<uuid>A51FA045-01AC-45F9-AF17-26AD790CE7A7</uuid>
					</itemhistory>
				</clipitem>
				<enabled>TRUE</enabled>
				<locked>FALSE</locked>
			</track>
			<track>
				<clipitem id="MVI_0974 5">
					<name>MVI_0974</name>
					<duration>20786</duration>
					<rate>
						<ntsc>TRUE</ntsc>
						<timebase>24</timebase>
					</rate>
					<in>0</in>
					<out>20786</out>
					<start>5799</start>
					<end>26585</end>
					<pixelaspectratio>Square</pixelaspectratio>
					<anamorphic>FALSE</anamorphic>
					<alphatype>none</alphatype>
					<masterclipid>MVI_0974 1</masterclipid>
					<logginginfo>
						<scene/>
						<shottake/>
						<lognote/>
						<good>FALSE</good>
					</logginginfo>
					<labels>
						<label2/>
					</labels>
					<comments>
						<mastercomment1/>
						<mastercomment2/>
						<mastercomment3/>
						<mastercomment4/>
					</comments>
					<file id="MVI_0974 2"/>
					<marker>
						<name>Marker 5</name>
						<comment>Face,&#13;</comment>
						<color>
							<alpha>0</alpha>
							<red>255</red>
							<green>0</green>
							<blue>0</blue>
						</color>
						<in>5151</in>
						<out>6040</out>
					</marker>
					<marker>
						<name>Camera doesn't care if you're human</name>
						<comment>camera,&#13;machine vision,&#13;object recognition,&#13;CV,&#13;interactivity,</comment>
						<color>
							<alpha>0</alpha>
							<red>255</red>
							<green>0</green>
							<blue>0</blue>
						</color>
						<in>8320</in>
						<out>9706</out>
					</marker>
					<marker>
						<name>Marker 7</name>
						<comment>why is machine vision uncanny?,&#13;artificial intelligence,&#13;self reflection,&#13;ghost in the machine,&#13;debug screen,&#13;machine vision,&#13;</comment>
						<color>
							<alpha>0</alpha>
							<red>255</red>
							<green>0</green>
							<blue>0</blue>
						</color>
						<in>14368</in>
						<out>15155</out>
					</marker>
					<sourcetrack>
						<mediatype>video</mediatype>
					</sourcetrack>
					<fielddominance>none</fielddominance>
					<itemhistory>
						<uuid>6F497074-09A9-44E1-A5BA-7FACBB37CABD</uuid>
					</itemhistory>
				</clipitem>
				<clipitem id="MVI_0976 5">
					<name>MVI_0976</name>
					<duration>13525</duration>
					<rate>
						<ntsc>TRUE</ntsc>
						<timebase>24</timebase>
					</rate>
					<in>0</in>
					<out>13525</out>
					<start>41405</start>
					<end>54930</end>
					<pixelaspectratio>Square</pixelaspectratio>
					<anamorphic>FALSE</anamorphic>
					<alphatype>none</alphatype>
					<masterclipid>MVI_0976 1</masterclipid>
					<logginginfo>
						<scene/>
						<shottake/>
						<lognote/>
						<good>FALSE</good>
					</logginginfo>
					<labels>
						<label2/>
					</labels>
					<comments>
						<mastercomment1/>
						<mastercomment2/>
						<mastercomment3/>
						<mastercomment4/>
					</comments>
					<file id="MVI_0976 2"/>
					<marker>
						<name>Julian Oliver</name>
						<comment>Internet,&#13;network security,&#13;art and security,&#13;power,&#13;users,&#13;control,&#13;Julian Oliver,&#13;</comment>
						<color>
							<alpha>0</alpha>
							<red>255</red>
							<green>0</green>
							<blue>0</blue>
						</color>
						<in>2404</in>
						<out>2885</out>
					</marker>
					<marker>
						<name>Dangerous to conflate</name>
						<comment>power,&#13;control,&#13;hackers,&#13;art and security,</comment>
						<color>
							<alpha>0</alpha>
							<red>255</red>
							<green>0</green>
							<blue>0</blue>
						</color>
						<in>5690</in>
						<out>6147</out>
					</marker>
					<marker>
						<name>Grab them ASAP</name>
						<comment>Future,&#13;R&amp;D,&#13;algorithms,&#13;program or be programmed,&#13;link:Julia - better tools,&#13;link:Greg - engage with research,</comment>
						<color>
							<alpha>0</alpha>
							<red>255</red>
							<green>0</green>
							<blue>0</blue>
						</color>
						<in>10056</in>
						<out>10820</out>
					</marker>
					<sourcetrack>
						<mediatype>video</mediatype>
					</sourcetrack>
					<fielddominance>none</fielddominance>
					<itemhistory>
						<uuid>29CB0F19-A8F6-4A47-ADCA-61F64A8C0BA6</uuid>
					</itemhistory>
				</clipitem>
				<clipitem id="MVI_0978 5">
					<name>MVI_0978</name>
					<duration>13742</duration>
					<rate>
						<ntsc>TRUE</ntsc>
						<timebase>24</timebase>
					</rate>
					<in>0</in>
					<out>13742</out>
					<start>67038</start>
					<end>80780</end>
					<pixelaspectratio>Square</pixelaspectratio>
					<anamorphic>FALSE</anamorphic>
					<alphatype>none</alphatype>
					<masterclipid>MVI_0978 1</masterclipid>
					<logginginfo>
						<scene/>
						<shottake/>
						<lognote/>
						<good>FALSE</good>
					</logginginfo>
					<labels>
						<label2/>
					</labels>
					<comments>
						<mastercomment1/>
						<mastercomment2/>
						<mastercomment3/>
						<mastercomment4/>
					</comments>
					<file id="MVI_0978 2"/>
					<marker>
						<name>imagining your pointcloud</name>
						<comment>How do you imagine your pointcloud?,&#13;RGBD,&#13;CLOUDS,&#13;rendering,&#13;</comment>
						<color>
							<alpha>0</alpha>
							<red>255</red>
							<green>0</green>
							<blue>0</blue>
						</color>
						<in>3888</in>
						<out>4717</out>
					</marker>
					<sourcetrack>
						<mediatype>video</mediatype>
					</sourcetrack>
					<fielddominance>none</fielddominance>
					<itemhistory>
						<uuid>C3F39847-816A-4FEF-909E-97D13D22FC1A</uuid>
					</itemhistory>
				</clipitem>
				<enabled>TRUE</enabled>
				<locked>FALSE</locked>
			</track>
		</video>
		<audio>
			<format>
				<samplecharacteristics>
					<depth>16</depth>
					<samplerate>48000</samplerate>
				</samplecharacteristics>
			</format>
			<outputs>
				<group>
					<index>1</index>
					<numchannels>2</numchannels>
					<downmix>0</downmix>
					<channel>
						<index>1</index>
					</channel>
					<channel>
						<index>2</index>
					</channel>
				</group>
			</outputs>
			<in>-1</in>
			<out>-1</out>
			<track>
				<clipitem id="MVI_0973 3">
					<name>MVI_0973</name>
					<duration>5799</duration>
					<rate>
						<ntsc>TRUE</ntsc>
						<timebase>24</timebase>
					</rate>
					<in>0</in>
					<out>5799</out>
					<start>0</start>
					<end>5799</end>
					<masterclipid>MVI_0973 1</masterclipid>
					<logginginfo>
						<scene/>
						<shottake/>
						<lognote/>
						<good>FALSE</good>
					</logginginfo>
					<labels>
						<label2/>
					</labels>
					<comments>
						<mastercomment1/>
						<mastercomment2/>
						<mastercomment3/>
						<mastercomment4/>
					</comments>
					<file id="MVI_0973 2"/>
					<marker>
						<name>they all wear the same glasses</name>
						<comment>How would you describe creative coders as an anthropologist from tuvalu?,&#13;</comment>
						<color>
							<alpha>0</alpha>
							<red>255</red>
							<green>0</green>
							<blue>0</blue>
						</color>
						<in>4089</in>
						<out>5199</out>
					</marker>
					<filter>
						<effect>
							<name>Audio Levels</name>
							<effectid>audiolevels</effectid>
							<effectcategory>audiolevels</effectcategory>
							<effecttype>audiolevels</effecttype>
							<mediatype>audio</mediatype>
							<parameter>
								<name>Level</name>
								<parameterid>level</parameterid>
								<valuemin>0</valuemin>
								<valuemax>3.98109</valuemax>
								<value>1</value>
							</parameter>
						</effect>
					</filter>
					<filter>
						<effect>
							<name>Audio Pan</name>
							<effectid>audiopan</effectid>
							<effectcategory>audiopan</effectcategory>
							<effecttype>audiopan</effecttype>
							<mediatype>audio</mediatype>
							<parameter>
								<name>Pan</name>
								<parameterid>pan</parameterid>
								<valuemin>-1</valuemin>
								<valuemax>1</valuemax>
								<value>-1</value>
							</parameter>
						</effect>
					</filter>
					<sourcetrack>
						<mediatype>audio</mediatype>
						<trackindex>1</trackindex>
					</sourcetrack>
					<link>
						<linkclipref>MVI_0973 </linkclipref>
						<mediatype>video</mediatype>
						<trackindex>1</trackindex>
						<clipindex>1</clipindex>
					</link>
					<link>
						<linkclipref>MVI_0973 3</linkclipref>
						<mediatype>audio</mediatype>
						<trackindex>1</trackindex>
						<clipindex>1</clipindex>
						<groupindex>1</groupindex>
					</link>
					<link>
						<linkclipref>MVI_0973 4</linkclipref>
						<mediatype>audio</mediatype>
						<trackindex>2</trackindex>
						<clipindex>1</clipindex>
						<groupindex>1</groupindex>
					</link>
					<itemhistory>
						<uuid>368E89E8-5307-4864-92FD-733BD82CA9F5</uuid>
					</itemhistory>
				</clipitem>
				<clipitem id="MVI_0974 3">
					<name>MVI_0974</name>
					<duration>20786</duration>
					<rate>
						<ntsc>TRUE</ntsc>
						<timebase>24</timebase>
					</rate>
					<in>0</in>
					<out>20786</out>
					<start>5799</start>
					<end>26585</end>
					<masterclipid>MVI_0974 1</masterclipid>
					<logginginfo>
						<scene/>
						<shottake/>
						<lognote/>
						<good>FALSE</good>
					</logginginfo>
					<labels>
						<label2/>
					</labels>
					<comments>
						<mastercomment1/>
						<mastercomment2/>
						<mastercomment3/>
						<mastercomment4/>
					</comments>
					<file id="MVI_0974 2"/>
					<marker>
						<name>code as a means and a theme</name>
						<comment>art and code,&#13;thinking through code,&#13;performance,&#13;public,&#13;social,</comment>
						<color>
							<alpha>0</alpha>
							<red>255</red>
							<green>0</green>
							<blue>0</blue>
						</color>
						<in>2758</in>
						<out>3723</out>
					</marker>
					<marker>
						<name>Code as a tool</name>
						<comment>link: Marius "aesthetic experience"&#13;"continuous process of exploration"&#13;</comment>
						<color>
							<alpha>0</alpha>
							<red>255</red>
							<green>0</green>
							<blue>0</blue>
						</color>
						<in>3818</in>
						<out>4184</out>
					</marker>
					<marker>
						<name>Marker 5</name>
						<comment>Face,&#13;</comment>
						<color>
							<alpha>0</alpha>
							<red>255</red>
							<green>0</green>
							<blue>0</blue>
						</color>
						<in>5151</in>
						<out>6487</out>
					</marker>
					<marker>
						<name>Better face trackers</name>
						<comment>camera,&#13;machine vision,&#13;object recognition,&#13;CV,&#13;face tracking,&#13;</comment>
						<color>
							<alpha>0</alpha>
							<red>255</red>
							<green>0</green>
							<blue>0</blue>
						</color>
						<in>6682</in>
						<out>9097</out>
					</marker>
					<marker>
						<name>Marker 7</name>
						<comment>Why are these algorithms interesting?,&#13;camera,&#13;machine vision,&#13;CV,&#13;face tracking,&#13;algorithm&#13;</comment>
						<color>
							<alpha>0</alpha>
							<red>255</red>
							<green>0</green>
							<blue>0</blue>
						</color>
						<in>9894</in>
						<out>10267</out>
					</marker>
					<marker>
						<name>Debug screen</name>
						<comment>why is machine vision uncanny?,&#13;artificial intelligence,&#13;interface,&#13;debug screen,&#13;algorithm,</comment>
						<color>
							<alpha>0</alpha>
							<red>255</red>
							<green>0</green>
							<blue>0</blue>
						</color>
						<in>11870</in>
						<out>12548</out>
					</marker>
					<marker>
						<name>new aesthetic</name>
						<comment>new aesthetic,&#13;machine vision,&#13;digital culture,&#13;artifacts,&#13;&#13;</comment>
						<color>
							<alpha>0</alpha>
							<red>255</red>
							<green>0</green>
							<blue>0</blue>
						</color>
						<in>16311</in>
						<out>17392</out>
					</marker>
					<marker>
						<name>New Aesthetic p 2</name>
						<comment>new aesthetic,&#13;ghost in the machine,&#13;imitation, &#13;mimesis,&#13;gesture</comment>
						<color>
							<alpha>0</alpha>
							<red>255</red>
							<green>0</green>
							<blue>0</blue>
						</color>
						<in>17513</in>
						<out>19029</out>
					</marker>
					<marker>
						<name>Marker 15</name>
						<comment/>
						<color>
							<alpha>0</alpha>
							<red>255</red>
							<green>0</green>
							<blue>0</blue>
						</color>
						<in>20170</in>
						<out>20684</out>
					</marker>
					<filter>
						<effect>
							<name>Audio Levels</name>
							<effectid>audiolevels</effectid>
							<effectcategory>audiolevels</effectcategory>
							<effecttype>audiolevels</effecttype>
							<mediatype>audio</mediatype>
							<parameter>
								<name>Level</name>
								<parameterid>level</parameterid>
								<valuemin>0</valuemin>
								<valuemax>3.98109</valuemax>
								<value>1</value>
							</parameter>
						</effect>
					</filter>
					<filter>
						<effect>
							<name>Audio Pan</name>
							<effectid>audiopan</effectid>
							<effectcategory>audiopan</effectcategory>
							<effecttype>audiopan</effecttype>
							<mediatype>audio</mediatype>
							<parameter>
								<name>Pan</name>
								<parameterid>pan</parameterid>
								<valuemin>-1</valuemin>
								<valuemax>1</valuemax>
								<value>-1</value>
							</parameter>
						</effect>
					</filter>
					<sourcetrack>
						<mediatype>audio</mediatype>
						<trackindex>1</trackindex>
					</sourcetrack>
					<link>
						<linkclipref>MVI_0974 </linkclipref>
						<mediatype>video</mediatype>
						<trackindex>1</trackindex>
						<clipindex>2</clipindex>
					</link>
					<link>
						<linkclipref>MVI_0974 3</linkclipref>
						<mediatype>audio</mediatype>
						<trackindex>1</trackindex>
						<clipindex>2</clipindex>
						<groupindex>1</groupindex>
					</link>
					<link>
						<linkclipref>MVI_0974 4</linkclipref>
						<mediatype>audio</mediatype>
						<trackindex>2</trackindex>
						<clipindex>2</clipindex>
						<groupindex>1</groupindex>
					</link>
					<itemhistory>
						<uuid>FFD7C947-AD06-4489-99D4-9392AC969992</uuid>
					</itemhistory>
				</clipitem>
				<clipitem id="MVI_0975 3">
					<name>MVI_0975</name>
					<duration>14820</duration>
					<rate>
						<ntsc>TRUE</ntsc>
						<timebase>24</timebase>
					</rate>
					<in>0</in>
					<out>14820</out>
					<start>26585</start>
					<end>41405</end>
					<masterclipid>MVI_0975 1</masterclipid>
					<logginginfo>
						<scene/>
						<shottake/>
						<lognote/>
						<good>FALSE</good>
					</logginginfo>
					<labels>
						<label2/>
					</labels>
					<comments>
						<mastercomment1/>
						<mastercomment2/>
						<mastercomment3/>
						<mastercomment4/>
					</comments>
					<file id="MVI_0975 2"/>
					<marker>
						<name>Keytweeter</name>
						<comment>twitter,&#13;public/private,&#13;social,&#13;</comment>
						<color>
							<alpha>0</alpha>
							<red>255</red>
							<green>0</green>
							<blue>0</blue>
						</color>
						<in>3688</in>
						<out>6132</out>
					</marker>
					<marker>
						<name>Marker 3</name>
						<comment/>
						<color>
							<alpha>0</alpha>
							<red>255</red>
							<green>0</green>
							<blue>0</blue>
						</color>
						<in>6246</in>
						<out>7691</out>
					</marker>
					<marker>
						<name>Marker 7</name>
						<comment/>
						<color>
							<alpha>0</alpha>
							<red>255</red>
							<green>0</green>
							<blue>0</blue>
						</color>
						<in>9216</in>
						<out>-1</out>
					</marker>
					<marker>
						<name>Marker 4</name>
						<comment>self reflection,&#13;digital culture,&#13;digital natives,&#13;sadness,&#13;</comment>
						<color>
							<alpha>0</alpha>
							<red>255</red>
							<green>0</green>
							<blue>0</blue>
						</color>
						<in>9222</in>
						<out>9919</out>
					</marker>
					<marker>
						<name>People staring at computers</name>
						<comment>public/private,&#13;hack,&#13;</comment>
						<color>
							<alpha>0</alpha>
							<red>255</red>
							<green>0</green>
							<blue>0</blue>
						</color>
						<in>10056</in>
						<out>10460</out>
					</marker>
					<marker>
						<name>People staring at Screens p 2</name>
						<comment>public/private,&#13;hack,&#13;</comment>
						<color>
							<alpha>0</alpha>
							<red>255</red>
							<green>0</green>
							<blue>0</blue>
						</color>
						<in>10689</in>
						<out>12462</out>
					</marker>
					<filter>
						<effect>
							<name>Audio Levels</name>
							<effectid>audiolevels</effectid>
							<effectcategory>audiolevels</effectcategory>
							<effecttype>audiolevels</effecttype>
							<mediatype>audio</mediatype>
							<parameter>
								<name>Level</name>
								<parameterid>level</parameterid>
								<valuemin>0</valuemin>
								<valuemax>3.98109</valuemax>
								<value>1</value>
							</parameter>
						</effect>
					</filter>
					<filter>
						<effect>
							<name>Audio Pan</name>
							<effectid>audiopan</effectid>
							<effectcategory>audiopan</effectcategory>
							<effecttype>audiopan</effecttype>
							<mediatype>audio</mediatype>
							<parameter>
								<name>Pan</name>
								<parameterid>pan</parameterid>
								<valuemin>-1</valuemin>
								<valuemax>1</valuemax>
								<value>-1</value>
							</parameter>
						</effect>
					</filter>
					<sourcetrack>
						<mediatype>audio</mediatype>
						<trackindex>1</trackindex>
					</sourcetrack>
					<link>
						<linkclipref>MVI_0975 </linkclipref>
						<mediatype>video</mediatype>
						<trackindex>1</trackindex>
						<clipindex>3</clipindex>
					</link>
					<link>
						<linkclipref>MVI_0975 3</linkclipref>
						<mediatype>audio</mediatype>
						<trackindex>1</trackindex>
						<clipindex>3</clipindex>
						<groupindex>1</groupindex>
					</link>
					<link>
						<linkclipref>MVI_0975 4</linkclipref>
						<mediatype>audio</mediatype>
						<trackindex>2</trackindex>
						<clipindex>3</clipindex>
						<groupindex>1</groupindex>
					</link>
					<itemhistory>
						<uuid>1EB081A3-634A-4947-A090-A097EF4963B4</uuid>
					</itemhistory>
				</clipitem>
				<clipitem id="MVI_0976 3">
					<name>MVI_0976</name>
					<duration>13525</duration>
					<rate>
						<ntsc>TRUE</ntsc>
						<timebase>24</timebase>
					</rate>
					<in>0</in>
					<out>13525</out>
					<start>41405</start>
					<end>54930</end>
					<masterclipid>MVI_0976 1</masterclipid>
					<logginginfo>
						<scene/>
						<shottake/>
						<lognote/>
						<good>FALSE</good>
					</logginginfo>
					<labels>
						<label2/>
					</labels>
					<comments>
						<mastercomment1/>
						<mastercomment2/>
						<mastercomment3/>
						<mastercomment4/>
					</comments>
					<file id="MVI_0976 2"/>
					<marker>
						<name>Hackers</name>
						<comment>hackers,&#13;criticality,&#13;Link: Julian Oliver "Critical engineering"&#13;</comment>
						<color>
							<alpha>0</alpha>
							<red>255</red>
							<green>0</green>
							<blue>0</blue>
						</color>
						<in>165</in>
						<out>1016</out>
					</marker>
					<marker>
						<name>Hackers and artists</name>
						<comment>Hackers,&#13;hacker artists,&#13;critcaility,&#13;Anonymous,&#13;Link: Julian "Transparency Grenade"&#13;</comment>
						<color>
							<alpha>0</alpha>
							<red>255</red>
							<green>0</green>
							<blue>0</blue>
						</color>
						<in>1261</in>
						<out>2687</out>
					</marker>
					<marker>
						<name/>
						<comment>users,&#13;devices,&#13;apple,</comment>
						<color>
							<alpha>0</alpha>
							<red>255</red>
							<green>0</green>
							<blue>0</blue>
						</color>
						<in>3084</in>
						<out>3525</out>
					</marker>
					<marker>
						<name>We don't understand the thing</name>
						<comment>criticality,&#13;the Cloud,&#13;ignorance,&#13;complexity,&#13;network security,&#13;users,&#13;program or be programmed,&#13;Link: Julian "I love networks",&#13;Link: Julian "Transparency Grenade"&#13;&#13;</comment>
						<color>
							<alpha>0</alpha>
							<red>255</red>
							<green>0</green>
							<blue>0</blue>
						</color>
						<in>3706</in>
						<out>4340</out>
					</marker>
					<marker>
						<name>Anonymous</name>
						<comment>criticality,&#13;network security,&#13;Anonymous,&#13;hackers,&#13;transparency,&#13;power,&#13;control,&#13;&#13;</comment>
						<color>
							<alpha>0</alpha>
							<red>255</red>
							<green>0</green>
							<blue>0</blue>
						</color>
						<in>4496</in>
						<out>5560</out>
					</marker>
					<marker>
						<name>Transparent Tech</name>
						<comment>tools,&#13;open software,&#13;critical engineering,&#13;transparency,&#13;program or be programmed,</comment>
						<color>
							<alpha>0</alpha>
							<red>255</red>
							<green>0</green>
							<blue>0</blue>
						</color>
						<in>6561</in>
						<out>6905</out>
					</marker>
					<marker>
						<name>Face Tracking military</name>
						<comment>Face tracking,&#13;military technology,&#13;power, &#13;surveillance,&#13;</comment>
						<color>
							<alpha>0</alpha>
							<red>255</red>
							<green>0</green>
							<blue>0</blue>
						</color>
						<in>6928</in>
						<out>8121</out>
					</marker>
					<marker>
						<name>Transparent tech</name>
						<comment>tools,&#13;open software,&#13;critical engineering,&#13;transparency,&#13;technological progress,&#13;Future,</comment>
						<color>
							<alpha>0</alpha>
							<red>255</red>
							<green>0</green>
							<blue>0</blue>
						</color>
						<in>8574</in>
						<out>8812</out>
					</marker>
					<marker>
						<name>Marker 9</name>
						<comment/>
						<color>
							<alpha>0</alpha>
							<red>255</red>
							<green>0</green>
							<blue>0</blue>
						</color>
						<in>9268</in>
						<out>-1</out>
					</marker>
					<marker>
						<name>Eyewriter</name>
						<comment>eyewriter,&#13;prosthetic,&#13;drawing,&#13;cyborg,&#13;</comment>
						<color>
							<alpha>0</alpha>
							<red>255</red>
							<green>0</green>
							<blue>0</blue>
						</color>
						<in>10837</in>
						<out>11259</out>
					</marker>
					<filter>
						<effect>
							<name>Audio Levels</name>
							<effectid>audiolevels</effectid>
							<effectcategory>audiolevels</effectcategory>
							<effecttype>audiolevels</effecttype>
							<mediatype>audio</mediatype>
							<parameter>
								<name>Level</name>
								<parameterid>level</parameterid>
								<valuemin>0</valuemin>
								<valuemax>3.98109</valuemax>
								<value>1</value>
							</parameter>
						</effect>
					</filter>
					<filter>
						<effect>
							<name>Audio Pan</name>
							<effectid>audiopan</effectid>
							<effectcategory>audiopan</effectcategory>
							<effecttype>audiopan</effecttype>
							<mediatype>audio</mediatype>
							<parameter>
								<name>Pan</name>
								<parameterid>pan</parameterid>
								<valuemin>-1</valuemin>
								<valuemax>1</valuemax>
								<value>-1</value>
							</parameter>
						</effect>
					</filter>
					<sourcetrack>
						<mediatype>audio</mediatype>
						<trackindex>1</trackindex>
					</sourcetrack>
					<link>
						<linkclipref>MVI_0976 </linkclipref>
						<mediatype>video</mediatype>
						<trackindex>1</trackindex>
						<clipindex>4</clipindex>
					</link>
					<link>
						<linkclipref>MVI_0976 3</linkclipref>
						<mediatype>audio</mediatype>
						<trackindex>1</trackindex>
						<clipindex>4</clipindex>
						<groupindex>1</groupindex>
					</link>
					<link>
						<linkclipref>MVI_0976 4</linkclipref>
						<mediatype>audio</mediatype>
						<trackindex>2</trackindex>
						<clipindex>4</clipindex>
						<groupindex>1</groupindex>
					</link>
					<itemhistory>
						<uuid>44DECDBD-9D6B-4205-A95E-CD4274B558AD</uuid>
					</itemhistory>
				</clipitem>
				<clipitem id="MVI_0977 3">
					<name>MVI_0977</name>
					<duration>12108</duration>
					<rate>
						<ntsc>TRUE</ntsc>
						<timebase>24</timebase>
					</rate>
					<in>0</in>
					<out>12108</out>
					<start>54930</start>
					<end>67038</end>
					<masterclipid>MVI_0977 1</masterclipid>
					<logginginfo>
						<scene/>
						<shottake/>
						<lognote/>
						<good>FALSE</good>
					</logginginfo>
					<labels>
						<label2/>
					</labels>
					<comments>
						<mastercomment1/>
						<mastercomment2/>
						<mastercomment3/>
						<mastercomment4/>
					</comments>
					<file id="MVI_0977 2"/>
					<filter>
						<effect>
							<name>Audio Levels</name>
							<effectid>audiolevels</effectid>
							<effectcategory>audiolevels</effectcategory>
							<effecttype>audiolevels</effecttype>
							<mediatype>audio</mediatype>
							<parameter>
								<name>Level</name>
								<parameterid>level</parameterid>
								<valuemin>0</valuemin>
								<valuemax>3.98109</valuemax>
								<value>1</value>
							</parameter>
						</effect>
					</filter>
					<filter>
						<effect>
							<name>Audio Pan</name>
							<effectid>audiopan</effectid>
							<effectcategory>audiopan</effectcategory>
							<effecttype>audiopan</effecttype>
							<mediatype>audio</mediatype>
							<parameter>
								<name>Pan</name>
								<parameterid>pan</parameterid>
								<valuemin>-1</valuemin>
								<valuemax>1</valuemax>
								<value>-1</value>
							</parameter>
						</effect>
					</filter>
					<sourcetrack>
						<mediatype>audio</mediatype>
						<trackindex>1</trackindex>
					</sourcetrack>
					<link>
						<linkclipref>MVI_0977 </linkclipref>
						<mediatype>video</mediatype>
						<trackindex>1</trackindex>
						<clipindex>5</clipindex>
					</link>
					<link>
						<linkclipref>MVI_0977 3</linkclipref>
						<mediatype>audio</mediatype>
						<trackindex>1</trackindex>
						<clipindex>5</clipindex>
						<groupindex>1</groupindex>
					</link>
					<link>
						<linkclipref>MVI_0977 4</linkclipref>
						<mediatype>audio</mediatype>
						<trackindex>2</trackindex>
						<clipindex>5</clipindex>
						<groupindex>1</groupindex>
					</link>
					<itemhistory>
						<uuid>45390057-3AFA-495A-AA01-FBE46F905B24</uuid>
					</itemhistory>
				</clipitem>
				<clipitem id="MVI_0978 3">
					<name>MVI_0978</name>
					<duration>13742</duration>
					<rate>
						<ntsc>TRUE</ntsc>
						<timebase>24</timebase>
					</rate>
					<in>0</in>
					<out>13742</out>
					<start>67038</start>
					<end>80780</end>
					<masterclipid>MVI_0978 1</masterclipid>
					<logginginfo>
						<scene/>
						<shottake/>
						<lognote/>
						<good>FALSE</good>
					</logginginfo>
					<labels>
						<label2/>
					</labels>
					<comments>
						<mastercomment1/>
						<mastercomment2/>
						<mastercomment3/>
						<mastercomment4/>
					</comments>
					<file id="MVI_0978 2"/>
					<marker>
						<name>Kinect</name>
						<comment>RGBD,&#13;camera,&#13;3D sensing,&#13;3D scanning,</comment>
						<color>
							<alpha>0</alpha>
							<red>255</red>
							<green>0</green>
							<blue>0</blue>
						</color>
						<in>137</in>
						<out>1504</out>
					</marker>
					<marker>
						<name>Marker 2</name>
						<comment/>
						<color>
							<alpha>0</alpha>
							<red>255</red>
							<green>0</green>
							<blue>0</blue>
						</color>
						<in>3048</in>
						<out>6249</out>
					</marker>
					<marker>
						<name>Marker 3</name>
						<comment>Beauty,&#13;3D printing,&#13;Link: Marius "Thoroughly enjoying it at the moment"</comment>
						<color>
							<alpha>0</alpha>
							<red>255</red>
							<green>0</green>
							<blue>0</blue>
						</color>
						<in>9531</in>
						<out>10460</out>
					</marker>
					<marker>
						<name>kinect was meant for</name>
						<comment>assistive technology,&#13;gesture recognition,&#13;embodiment,&#13;kinect,&#13;</comment>
						<color>
							<alpha>0</alpha>
							<red>255</red>
							<green>0</green>
							<blue>0</blue>
						</color>
						<in>11205</in>
						<out>12011</out>
					</marker>
					<marker>
						<name>Marker 5</name>
						<comment/>
						<color>
							<alpha>0</alpha>
							<red>255</red>
							<green>0</green>
							<blue>0</blue>
						</color>
						<in>12917</in>
						<out>13222</out>
					</marker>
					<filter>
						<effect>
							<name>Audio Levels</name>
							<effectid>audiolevels</effectid>
							<effectcategory>audiolevels</effectcategory>
							<effecttype>audiolevels</effecttype>
							<mediatype>audio</mediatype>
							<parameter>
								<name>Level</name>
								<parameterid>level</parameterid>
								<valuemin>0</valuemin>
								<valuemax>3.98109</valuemax>
								<value>1</value>
							</parameter>
						</effect>
					</filter>
					<filter>
						<effect>
							<name>Audio Pan</name>
							<effectid>audiopan</effectid>
							<effectcategory>audiopan</effectcategory>
							<effecttype>audiopan</effecttype>
							<mediatype>audio</mediatype>
							<parameter>
								<name>Pan</name>
								<parameterid>pan</parameterid>
								<valuemin>-1</valuemin>
								<valuemax>1</valuemax>
								<value>-1</value>
							</parameter>
						</effect>
					</filter>
					<sourcetrack>
						<mediatype>audio</mediatype>
						<trackindex>1</trackindex>
					</sourcetrack>
					<link>
						<linkclipref>MVI_0978 </linkclipref>
						<mediatype>video</mediatype>
						<trackindex>1</trackindex>
						<clipindex>6</clipindex>
					</link>
					<link>
						<linkclipref>MVI_0978 3</linkclipref>
						<mediatype>audio</mediatype>
						<trackindex>1</trackindex>
						<clipindex>6</clipindex>
						<groupindex>1</groupindex>
					</link>
					<link>
						<linkclipref>MVI_0978 4</linkclipref>
						<mediatype>audio</mediatype>
						<trackindex>2</trackindex>
						<clipindex>6</clipindex>
						<groupindex>1</groupindex>
					</link>
					<itemhistory>
						<uuid>FCEB3F95-0EA4-4D53-B83B-23A7CB8C82DD</uuid>
					</itemhistory>
				</clipitem>
				<clipitem id="MVI_0979 3">
					<name>MVI_0979</name>
					<duration>16183</duration>
					<rate>
						<ntsc>TRUE</ntsc>
						<timebase>24</timebase>
					</rate>
					<in>0</in>
					<out>3246</out>
					<start>80780</start>
					<end>84026</end>
					<masterclipid>MVI_0979 1</masterclipid>
					<logginginfo>
						<scene/>
						<shottake/>
						<lognote/>
						<good>FALSE</good>
					</logginginfo>
					<labels>
						<label2/>
					</labels>
					<comments>
						<mastercomment1/>
						<mastercomment2/>
						<mastercomment3/>
						<mastercomment4/>
					</comments>
					<file id="MVI_0979 2"/>
					<marker>
						<name>programmers vs artists</name>
						<comment>exploration, art versus engineering</comment>
						<color>
							<alpha>0</alpha>
							<red>255</red>
							<green>0</green>
							<blue>0</blue>
						</color>
						<in>1468</in>
						<out>2418</out>
					</marker>
					<marker>
						<name>art versus engineering</name>
						<comment>exploration,art versus engineering,&#13;evaluation</comment>
						<color>
							<alpha>0</alpha>
							<red>255</red>
							<green>0</green>
							<blue>0</blue>
						</color>
						<in>3256</in>
						<out>3831</out>
					</marker>
					<marker>
						<name>artist is never done</name>
						<comment>completion,&#13;evaluation,&#13;infinite conversation,&#13;infinite game, &#13;art versus engineering</comment>
						<color>
							<alpha>0</alpha>
							<red>255</red>
							<green>0</green>
							<blue>0</blue>
						</color>
						<in>4124</in>
						<out>4530</out>
					</marker>
					<marker>
						<name>folowing the finger</name>
						<comment>rephotography,&#13;cinema of the future,&#13;</comment>
						<color>
							<alpha>0</alpha>
							<red>255</red>
							<green>0</green>
							<blue>0</blue>
						</color>
						<in>6592</in>
						<out>6873</out>
					</marker>
					<marker>
						<name>the comment thread</name>
						<comment>the answer,&#13;the future,&#13;dialogue,&#13;visionary,&#13;commentary,&#13;</comment>
						<color>
							<alpha>0</alpha>
							<red>255</red>
							<green>0</green>
							<blue>0</blue>
						</color>
						<in>8696</in>
						<out>9605</out>
					</marker>
					<filter>
						<effect>
							<name>Audio Levels</name>
							<effectid>audiolevels</effectid>
							<effectcategory>audiolevels</effectcategory>
							<effecttype>audiolevels</effecttype>
							<mediatype>audio</mediatype>
							<parameter>
								<name>Level</name>
								<parameterid>level</parameterid>
								<valuemin>0</valuemin>
								<valuemax>3.98109</valuemax>
								<value>1</value>
							</parameter>
						</effect>
					</filter>
					<filter>
						<effect>
							<name>Audio Pan</name>
							<effectid>audiopan</effectid>
							<effectcategory>audiopan</effectcategory>
							<effecttype>audiopan</effecttype>
							<mediatype>audio</mediatype>
							<parameter>
								<name>Pan</name>
								<parameterid>pan</parameterid>
								<valuemin>-1</valuemin>
								<valuemax>1</valuemax>
								<value>-1</value>
							</parameter>
						</effect>
					</filter>
					<sourcetrack>
						<mediatype>audio</mediatype>
						<trackindex>1</trackindex>
					</sourcetrack>
					<link>
						<linkclipref>MVI_0979 </linkclipref>
						<mediatype>video</mediatype>
						<trackindex>1</trackindex>
						<clipindex>7</clipindex>
					</link>
					<link>
						<linkclipref>MVI_0979 3</linkclipref>
						<mediatype>audio</mediatype>
						<trackindex>1</trackindex>
						<clipindex>7</clipindex>
						<groupindex>1</groupindex>
					</link>
					<link>
						<linkclipref>MVI_0979 4</linkclipref>
						<mediatype>audio</mediatype>
						<trackindex>2</trackindex>
						<clipindex>7</clipindex>
						<groupindex>1</groupindex>
					</link>
					<itemhistory>
						<uuid>7F339146-D9CE-41AB-836D-93AD7A6F44D1</uuid>
						<uuid>A41E56FC-A1E6-48CA-8D0D-5A37E65263DE</uuid>
					</itemhistory>
				</clipitem>
				<clipitem id="MVI_0979 6">
					<name>MVI_0979</name>
					<duration>16183</duration>
					<rate>
						<ntsc>TRUE</ntsc>
						<timebase>24</timebase>
					</rate>
					<in>3246</in>
					<out>4524</out>
					<start>84026</start>
					<end>85304</end>
					<masterclipid>MVI_0979 1</masterclipid>
					<logginginfo>
						<scene/>
						<shottake/>
						<lognote/>
						<good>FALSE</good>
					</logginginfo>
					<labels>
						<label2/>
					</labels>
					<comments>
						<mastercomment1/>
						<mastercomment2/>
						<mastercomment3/>
						<mastercomment4/>
					</comments>
					<file id="MVI_0979 2"/>
					<marker>
						<name>programmers vs artists</name>
						<comment>exploration, art versus engineering</comment>
						<color>
							<alpha>0</alpha>
							<red>255</red>
							<green>0</green>
							<blue>0</blue>
						</color>
						<in>1468</in>
						<out>2418</out>
					</marker>
					<marker>
						<name>art versus engineering</name>
						<comment>exploration,art versus engineering,&#13;evaluation</comment>
						<color>
							<alpha>0</alpha>
							<red>255</red>
							<green>0</green>
							<blue>0</blue>
						</color>
						<in>3256</in>
						<out>3831</out>
					</marker>
					<marker>
						<name>artist is never done</name>
						<comment>completion,&#13;evaluation,&#13;infinite conversation,&#13;infinite game, &#13;art versus engineering</comment>
						<color>
							<alpha>0</alpha>
							<red>255</red>
							<green>0</green>
							<blue>0</blue>
						</color>
						<in>4124</in>
						<out>4530</out>
					</marker>
					<marker>
						<name>folowing the finger</name>
						<comment>rephotography,&#13;cinema of the future,&#13;</comment>
						<color>
							<alpha>0</alpha>
							<red>255</red>
							<green>0</green>
							<blue>0</blue>
						</color>
						<in>6592</in>
						<out>6873</out>
					</marker>
					<marker>
						<name>the comment thread</name>
						<comment>the answer,&#13;the future,&#13;dialogue,&#13;visionary,&#13;commentary,&#13;</comment>
						<color>
							<alpha>0</alpha>
							<red>255</red>
							<green>0</green>
							<blue>0</blue>
						</color>
						<in>8696</in>
						<out>9605</out>
					</marker>
					<filter>
						<effect>
							<name>Audio Levels</name>
							<effectid>audiolevels</effectid>
							<effectcategory>audiolevels</effectcategory>
							<effecttype>audiolevels</effecttype>
							<mediatype>audio</mediatype>
							<parameter>
								<name>Level</name>
								<parameterid>level</parameterid>
								<valuemin>0</valuemin>
								<valuemax>3.98109</valuemax>
								<value>1</value>
							</parameter>
						</effect>
					</filter>
					<filter>
						<effect>
							<name>Audio Pan</name>
							<effectid>audiopan</effectid>
							<effectcategory>audiopan</effectcategory>
							<effecttype>audiopan</effecttype>
							<mediatype>audio</mediatype>
							<parameter>
								<name>Pan</name>
								<parameterid>pan</parameterid>
								<valuemin>-1</valuemin>
								<valuemax>1</valuemax>
								<value>-1</value>
							</parameter>
						</effect>
					</filter>
					<sourcetrack>
						<mediatype>audio</mediatype>
						<trackindex>1</trackindex>
					</sourcetrack>
					<link>
						<linkclipref>MVI_0979 5</linkclipref>
						<mediatype>video</mediatype>
						<trackindex>1</trackindex>
						<clipindex>8</clipindex>
					</link>
					<link>
						<linkclipref>MVI_0979 6</linkclipref>
						<mediatype>audio</mediatype>
						<trackindex>1</trackindex>
						<clipindex>8</clipindex>
						<groupindex>1</groupindex>
					</link>
					<link>
						<linkclipref>MVI_0979 7</linkclipref>
						<mediatype>audio</mediatype>
						<trackindex>2</trackindex>
						<clipindex>8</clipindex>
						<groupindex>1</groupindex>
					</link>
					<itemhistory>
						<uuid>3FED8095-6854-488E-B04C-CC72F01F2039</uuid>
						<uuid>A41E56FC-A1E6-48CA-8D0D-5A37E65263DE</uuid>
					</itemhistory>
				</clipitem>
				<clipitem id="MVI_0979 9">
					<name>MVI_0979</name>
					<duration>16183</duration>
					<rate>
						<ntsc>TRUE</ntsc>
						<timebase>24</timebase>
					</rate>
					<in>4524</in>
					<out>16183</out>
					<start>85304</start>
					<end>96963</end>
					<masterclipid>MVI_0979 1</masterclipid>
					<logginginfo>
						<scene/>
						<shottake/>
						<lognote/>
						<good>FALSE</good>
					</logginginfo>
					<labels>
						<label2/>
					</labels>
					<comments>
						<mastercomment1/>
						<mastercomment2/>
						<mastercomment3/>
						<mastercomment4/>
					</comments>
					<file id="MVI_0979 2"/>
					<marker>
						<name>programmers vs artists</name>
						<comment>exploration, art versus engineering</comment>
						<color>
							<alpha>0</alpha>
							<red>255</red>
							<green>0</green>
							<blue>0</blue>
						</color>
						<in>1468</in>
						<out>2418</out>
					</marker>
					<marker>
						<name>art versus engineering</name>
						<comment>exploration,art versus engineering,&#13;evaluation</comment>
						<color>
							<alpha>0</alpha>
							<red>255</red>
							<green>0</green>
							<blue>0</blue>
						</color>
						<in>3256</in>
						<out>3831</out>
					</marker>
					<marker>
						<name>artist is never done</name>
						<comment>completion,&#13;evaluation,&#13;infinite conversation,&#13;infinite game, &#13;art versus engineering</comment>
						<color>
							<alpha>0</alpha>
							<red>255</red>
							<green>0</green>
							<blue>0</blue>
						</color>
						<in>4124</in>
						<out>4530</out>
					</marker>
					<marker>
						<name>folowing the finger</name>
						<comment>rephotography,&#13;cinema of the future,&#13;</comment>
						<color>
							<alpha>0</alpha>
							<red>255</red>
							<green>0</green>
							<blue>0</blue>
						</color>
						<in>6592</in>
						<out>6873</out>
					</marker>
					<marker>
						<name>the comment thread</name>
						<comment>the answer,&#13;the future,&#13;dialogue,&#13;visionary,&#13;commentary,&#13;</comment>
						<color>
							<alpha>0</alpha>
							<red>255</red>
							<green>0</green>
							<blue>0</blue>
						</color>
						<in>8696</in>
						<out>9605</out>
					</marker>
					<filter>
						<effect>
							<name>Audio Levels</name>
							<effectid>audiolevels</effectid>
							<effectcategory>audiolevels</effectcategory>
							<effecttype>audiolevels</effecttype>
							<mediatype>audio</mediatype>
							<parameter>
								<name>Level</name>
								<parameterid>level</parameterid>
								<valuemin>0</valuemin>
								<valuemax>3.98109</valuemax>
								<value>1</value>
							</parameter>
						</effect>
					</filter>
					<filter>
						<effect>
							<name>Audio Pan</name>
							<effectid>audiopan</effectid>
							<effectcategory>audiopan</effectcategory>
							<effecttype>audiopan</effecttype>
							<mediatype>audio</mediatype>
							<parameter>
								<name>Pan</name>
								<parameterid>pan</parameterid>
								<valuemin>-1</valuemin>
								<valuemax>1</valuemax>
								<value>-1</value>
							</parameter>
						</effect>
					</filter>
					<sourcetrack>
						<mediatype>audio</mediatype>
						<trackindex>1</trackindex>
					</sourcetrack>
					<link>
						<linkclipref>MVI_0979 8</linkclipref>
						<mediatype>video</mediatype>
						<trackindex>1</trackindex>
						<clipindex>9</clipindex>
					</link>
					<link>
						<linkclipref>MVI_0979 9</linkclipref>
						<mediatype>audio</mediatype>
						<trackindex>1</trackindex>
						<clipindex>9</clipindex>
						<groupindex>1</groupindex>
					</link>
					<link>
						<linkclipref>MVI_0979 10</linkclipref>
						<mediatype>audio</mediatype>
						<trackindex>2</trackindex>
						<clipindex>9</clipindex>
						<groupindex>1</groupindex>
					</link>
					<itemhistory>
						<uuid>A175AEE4-6DE3-4E9A-BC30-AE4325690B9A</uuid>
						<uuid>A41E56FC-A1E6-48CA-8D0D-5A37E65263DE</uuid>
					</itemhistory>
				</clipitem>
				<enabled>TRUE</enabled>
				<locked>FALSE</locked>
				<outputchannelindex>1</outputchannelindex>
			</track>
			<track>
				<clipitem id="MVI_0973 4">
					<name>MVI_0973</name>
					<duration>5799</duration>
					<rate>
						<ntsc>TRUE</ntsc>
						<timebase>24</timebase>
					</rate>
					<in>0</in>
					<out>5799</out>
					<start>0</start>
					<end>5799</end>
					<masterclipid>MVI_0973 1</masterclipid>
					<logginginfo>
						<scene/>
						<shottake/>
						<lognote/>
						<good>FALSE</good>
					</logginginfo>
					<labels>
						<label2/>
					</labels>
					<comments>
						<mastercomment1/>
						<mastercomment2/>
						<mastercomment3/>
						<mastercomment4/>
					</comments>
					<file id="MVI_0973 2"/>
					<marker>
						<name>they all wear the same glasses</name>
						<comment>How would you describe creative coders as an anthropologist from tuvalu?,&#13;</comment>
						<color>
							<alpha>0</alpha>
							<red>255</red>
							<green>0</green>
							<blue>0</blue>
						</color>
						<in>4089</in>
						<out>5199</out>
					</marker>
					<filter>
						<effect>
							<name>Audio Levels</name>
							<effectid>audiolevels</effectid>
							<effectcategory>audiolevels</effectcategory>
							<effecttype>audiolevels</effecttype>
							<mediatype>audio</mediatype>
							<parameter>
								<name>Level</name>
								<parameterid>level</parameterid>
								<valuemin>0</valuemin>
								<valuemax>3.98109</valuemax>
								<value>1</value>
							</parameter>
						</effect>
					</filter>
					<filter>
						<effect>
							<name>Audio Pan</name>
							<effectid>audiopan</effectid>
							<effectcategory>audiopan</effectcategory>
							<effecttype>audiopan</effecttype>
							<mediatype>audio</mediatype>
							<parameter>
								<name>Pan</name>
								<parameterid>pan</parameterid>
								<valuemin>-1</valuemin>
								<valuemax>1</valuemax>
								<value>1</value>
							</parameter>
						</effect>
					</filter>
					<sourcetrack>
						<mediatype>audio</mediatype>
						<trackindex>2</trackindex>
					</sourcetrack>
					<link>
						<linkclipref>MVI_0973 </linkclipref>
						<mediatype>video</mediatype>
						<trackindex>1</trackindex>
						<clipindex>1</clipindex>
					</link>
					<link>
						<linkclipref>MVI_0973 3</linkclipref>
						<mediatype>audio</mediatype>
						<trackindex>1</trackindex>
						<clipindex>1</clipindex>
						<groupindex>1</groupindex>
					</link>
					<link>
						<linkclipref>MVI_0973 4</linkclipref>
						<mediatype>audio</mediatype>
						<trackindex>2</trackindex>
						<clipindex>1</clipindex>
						<groupindex>1</groupindex>
					</link>
					<itemhistory>
						<uuid>A06632B5-C673-4E82-A2FF-9C8A9EC61B69</uuid>
					</itemhistory>
				</clipitem>
				<clipitem id="MVI_0974 4">
					<name>MVI_0974</name>
					<duration>20786</duration>
					<rate>
						<ntsc>TRUE</ntsc>
						<timebase>24</timebase>
					</rate>
					<in>0</in>
					<out>20786</out>
					<start>5799</start>
					<end>26585</end>
					<masterclipid>MVI_0974 1</masterclipid>
					<logginginfo>
						<scene/>
						<shottake/>
						<lognote/>
						<good>FALSE</good>
					</logginginfo>
					<labels>
						<label2/>
					</labels>
					<comments>
						<mastercomment1/>
						<mastercomment2/>
						<mastercomment3/>
						<mastercomment4/>
					</comments>
					<file id="MVI_0974 2"/>
					<marker>
						<name>code as a means and a theme</name>
						<comment>art and code,&#13;thinking through code,&#13;performance,&#13;public,&#13;social,</comment>
						<color>
							<alpha>0</alpha>
							<red>255</red>
							<green>0</green>
							<blue>0</blue>
						</color>
						<in>2758</in>
						<out>3723</out>
					</marker>
					<marker>
						<name>Code as a tool</name>
						<comment>link: Marius "aesthetic experience"&#13;"continuous process of exploration"&#13;</comment>
						<color>
							<alpha>0</alpha>
							<red>255</red>
							<green>0</green>
							<blue>0</blue>
						</color>
						<in>3818</in>
						<out>4184</out>
					</marker>
					<marker>
						<name>Marker 5</name>
						<comment>Face,&#13;</comment>
						<color>
							<alpha>0</alpha>
							<red>255</red>
							<green>0</green>
							<blue>0</blue>
						</color>
						<in>5151</in>
						<out>6487</out>
					</marker>
					<marker>
						<name>Better face trackers</name>
						<comment>camera,&#13;machine vision,&#13;object recognition,&#13;CV,&#13;face tracking,&#13;</comment>
						<color>
							<alpha>0</alpha>
							<red>255</red>
							<green>0</green>
							<blue>0</blue>
						</color>
						<in>6682</in>
						<out>9097</out>
					</marker>
					<marker>
						<name>Marker 7</name>
						<comment>Why are these algorithms interesting?,&#13;camera,&#13;machine vision,&#13;CV,&#13;face tracking,&#13;algorithm&#13;</comment>
						<color>
							<alpha>0</alpha>
							<red>255</red>
							<green>0</green>
							<blue>0</blue>
						</color>
						<in>9894</in>
						<out>10267</out>
					</marker>
					<marker>
						<name>Debug screen</name>
						<comment>why is machine vision uncanny?,&#13;artificial intelligence,&#13;interface,&#13;debug screen,&#13;algorithm,</comment>
						<color>
							<alpha>0</alpha>
							<red>255</red>
							<green>0</green>
							<blue>0</blue>
						</color>
						<in>11870</in>
						<out>12548</out>
					</marker>
					<marker>
						<name>new aesthetic</name>
						<comment>new aesthetic,&#13;machine vision,&#13;digital culture,&#13;artifacts,&#13;&#13;</comment>
						<color>
							<alpha>0</alpha>
							<red>255</red>
							<green>0</green>
							<blue>0</blue>
						</color>
						<in>16311</in>
						<out>17392</out>
					</marker>
					<marker>
						<name>New Aesthetic p 2</name>
						<comment>new aesthetic,&#13;ghost in the machine,&#13;imitation, &#13;mimesis,&#13;gesture</comment>
						<color>
							<alpha>0</alpha>
							<red>255</red>
							<green>0</green>
							<blue>0</blue>
						</color>
						<in>17513</in>
						<out>19029</out>
					</marker>
					<marker>
						<name>Marker 15</name>
						<comment/>
						<color>
							<alpha>0</alpha>
							<red>255</red>
							<green>0</green>
							<blue>0</blue>
						</color>
						<in>20170</in>
						<out>20684</out>
					</marker>
					<filter>
						<effect>
							<name>Audio Levels</name>
							<effectid>audiolevels</effectid>
							<effectcategory>audiolevels</effectcategory>
							<effecttype>audiolevels</effecttype>
							<mediatype>audio</mediatype>
							<parameter>
								<name>Level</name>
								<parameterid>level</parameterid>
								<valuemin>0</valuemin>
								<valuemax>3.98109</valuemax>
								<value>1</value>
							</parameter>
						</effect>
					</filter>
					<filter>
						<effect>
							<name>Audio Pan</name>
							<effectid>audiopan</effectid>
							<effectcategory>audiopan</effectcategory>
							<effecttype>audiopan</effecttype>
							<mediatype>audio</mediatype>
							<parameter>
								<name>Pan</name>
								<parameterid>pan</parameterid>
								<valuemin>-1</valuemin>
								<valuemax>1</valuemax>
								<value>1</value>
							</parameter>
						</effect>
					</filter>
					<sourcetrack>
						<mediatype>audio</mediatype>
						<trackindex>2</trackindex>
					</sourcetrack>
					<link>
						<linkclipref>MVI_0974 </linkclipref>
						<mediatype>video</mediatype>
						<trackindex>1</trackindex>
						<clipindex>2</clipindex>
					</link>
					<link>
						<linkclipref>MVI_0974 3</linkclipref>
						<mediatype>audio</mediatype>
						<trackindex>1</trackindex>
						<clipindex>2</clipindex>
						<groupindex>1</groupindex>
					</link>
					<link>
						<linkclipref>MVI_0974 4</linkclipref>
						<mediatype>audio</mediatype>
						<trackindex>2</trackindex>
						<clipindex>2</clipindex>
						<groupindex>1</groupindex>
					</link>
					<itemhistory>
						<uuid>1F74CEA1-9CAE-4612-AFF0-FE5C652D4455</uuid>
					</itemhistory>
				</clipitem>
				<clipitem id="MVI_0975 4">
					<name>MVI_0975</name>
					<duration>14820</duration>
					<rate>
						<ntsc>TRUE</ntsc>
						<timebase>24</timebase>
					</rate>
					<in>0</in>
					<out>14820</out>
					<start>26585</start>
					<end>41405</end>
					<masterclipid>MVI_0975 1</masterclipid>
					<logginginfo>
						<scene/>
						<shottake/>
						<lognote/>
						<good>FALSE</good>
					</logginginfo>
					<labels>
						<label2/>
					</labels>
					<comments>
						<mastercomment1/>
						<mastercomment2/>
						<mastercomment3/>
						<mastercomment4/>
					</comments>
					<file id="MVI_0975 2"/>
					<marker>
						<name>Keytweeter</name>
						<comment>twitter,&#13;public/private,&#13;social,&#13;</comment>
						<color>
							<alpha>0</alpha>
							<red>255</red>
							<green>0</green>
							<blue>0</blue>
						</color>
						<in>3688</in>
						<out>6132</out>
					</marker>
					<marker>
						<name>Marker 3</name>
						<comment/>
						<color>
							<alpha>0</alpha>
							<red>255</red>
							<green>0</green>
							<blue>0</blue>
						</color>
						<in>6246</in>
						<out>7691</out>
					</marker>
					<marker>
						<name>Marker 7</name>
						<comment/>
						<color>
							<alpha>0</alpha>
							<red>255</red>
							<green>0</green>
							<blue>0</blue>
						</color>
						<in>9216</in>
						<out>-1</out>
					</marker>
					<marker>
						<name>Marker 4</name>
						<comment>self reflection,&#13;digital culture,&#13;digital natives,&#13;sadness,&#13;</comment>
						<color>
							<alpha>0</alpha>
							<red>255</red>
							<green>0</green>
							<blue>0</blue>
						</color>
						<in>9222</in>
						<out>9919</out>
					</marker>
					<marker>
						<name>People staring at computers</name>
						<comment>public/private,&#13;hack,&#13;</comment>
						<color>
							<alpha>0</alpha>
							<red>255</red>
							<green>0</green>
							<blue>0</blue>
						</color>
						<in>10056</in>
						<out>10460</out>
					</marker>
					<marker>
						<name>People staring at Screens p 2</name>
						<comment>public/private,&#13;hack,&#13;</comment>
						<color>
							<alpha>0</alpha>
							<red>255</red>
							<green>0</green>
							<blue>0</blue>
						</color>
						<in>10689</in>
						<out>12462</out>
					</marker>
					<filter>
						<effect>
							<name>Audio Levels</name>
							<effectid>audiolevels</effectid>
							<effectcategory>audiolevels</effectcategory>
							<effecttype>audiolevels</effecttype>
							<mediatype>audio</mediatype>
							<parameter>
								<name>Level</name>
								<parameterid>level</parameterid>
								<valuemin>0</valuemin>
								<valuemax>3.98109</valuemax>
								<value>1</value>
							</parameter>
						</effect>
					</filter>
					<filter>
						<effect>
							<name>Audio Pan</name>
							<effectid>audiopan</effectid>
							<effectcategory>audiopan</effectcategory>
							<effecttype>audiopan</effecttype>
							<mediatype>audio</mediatype>
							<parameter>
								<name>Pan</name>
								<parameterid>pan</parameterid>
								<valuemin>-1</valuemin>
								<valuemax>1</valuemax>
								<value>1</value>
							</parameter>
						</effect>
					</filter>
					<sourcetrack>
						<mediatype>audio</mediatype>
						<trackindex>2</trackindex>
					</sourcetrack>
					<link>
						<linkclipref>MVI_0975 </linkclipref>
						<mediatype>video</mediatype>
						<trackindex>1</trackindex>
						<clipindex>3</clipindex>
					</link>
					<link>
						<linkclipref>MVI_0975 3</linkclipref>
						<mediatype>audio</mediatype>
						<trackindex>1</trackindex>
						<clipindex>3</clipindex>
						<groupindex>1</groupindex>
					</link>
					<link>
						<linkclipref>MVI_0975 4</linkclipref>
						<mediatype>audio</mediatype>
						<trackindex>2</trackindex>
						<clipindex>3</clipindex>
						<groupindex>1</groupindex>
					</link>
					<itemhistory>
						<uuid>5CBB8BC2-B69E-459F-BB64-2E2EE39CDF2F</uuid>
					</itemhistory>
				</clipitem>
				<clipitem id="MVI_0976 4">
					<name>MVI_0976</name>
					<duration>13525</duration>
					<rate>
						<ntsc>TRUE</ntsc>
						<timebase>24</timebase>
					</rate>
					<in>0</in>
					<out>13525</out>
					<start>41405</start>
					<end>54930</end>
					<masterclipid>MVI_0976 1</masterclipid>
					<logginginfo>
						<scene/>
						<shottake/>
						<lognote/>
						<good>FALSE</good>
					</logginginfo>
					<labels>
						<label2/>
					</labels>
					<comments>
						<mastercomment1/>
						<mastercomment2/>
						<mastercomment3/>
						<mastercomment4/>
					</comments>
					<file id="MVI_0976 2"/>
					<marker>
						<name>Hackers</name>
						<comment>hackers,&#13;criticality,&#13;Link: Julian Oliver "Critical engineering"&#13;</comment>
						<color>
							<alpha>0</alpha>
							<red>255</red>
							<green>0</green>
							<blue>0</blue>
						</color>
						<in>165</in>
						<out>1016</out>
					</marker>
					<marker>
						<name>Hackers and artists</name>
						<comment>Hackers,&#13;hacker artists,&#13;critcaility,&#13;Anonymous,&#13;Link: Julian "Transparency Grenade"&#13;</comment>
						<color>
							<alpha>0</alpha>
							<red>255</red>
							<green>0</green>
							<blue>0</blue>
						</color>
						<in>1261</in>
						<out>2687</out>
					</marker>
					<marker>
						<name/>
						<comment>users,&#13;devices,&#13;apple,</comment>
						<color>
							<alpha>0</alpha>
							<red>255</red>
							<green>0</green>
							<blue>0</blue>
						</color>
						<in>3084</in>
						<out>3525</out>
					</marker>
					<marker>
						<name>We don't understand the thing</name>
						<comment>criticality,&#13;the Cloud,&#13;ignorance,&#13;complexity,&#13;network security,&#13;users,&#13;program or be programmed,&#13;Link: Julian "I love networks",&#13;Link: Julian "Transparency Grenade"&#13;&#13;</comment>
						<color>
							<alpha>0</alpha>
							<red>255</red>
							<green>0</green>
							<blue>0</blue>
						</color>
						<in>3706</in>
						<out>4340</out>
					</marker>
					<marker>
						<name>Anonymous</name>
						<comment>criticality,&#13;network security,&#13;Anonymous,&#13;hackers,&#13;transparency,&#13;power,&#13;control,&#13;&#13;</comment>
						<color>
							<alpha>0</alpha>
							<red>255</red>
							<green>0</green>
							<blue>0</blue>
						</color>
						<in>4496</in>
						<out>5560</out>
					</marker>
					<marker>
						<name>Transparent Tech</name>
						<comment>tools,&#13;open software,&#13;critical engineering,&#13;transparency,&#13;program or be programmed,</comment>
						<color>
							<alpha>0</alpha>
							<red>255</red>
							<green>0</green>
							<blue>0</blue>
						</color>
						<in>6561</in>
						<out>6905</out>
					</marker>
					<marker>
						<name>Face Tracking military</name>
						<comment>Face tracking,&#13;military technology,&#13;power, &#13;surveillance,&#13;</comment>
						<color>
							<alpha>0</alpha>
							<red>255</red>
							<green>0</green>
							<blue>0</blue>
						</color>
						<in>6928</in>
						<out>8121</out>
					</marker>
					<marker>
						<name>Transparent tech</name>
						<comment>tools,&#13;open software,&#13;critical engineering,&#13;transparency,&#13;technological progress,&#13;Future,</comment>
						<color>
							<alpha>0</alpha>
							<red>255</red>
							<green>0</green>
							<blue>0</blue>
						</color>
						<in>8574</in>
						<out>8812</out>
					</marker>
					<marker>
						<name>Marker 9</name>
						<comment/>
						<color>
							<alpha>0</alpha>
							<red>255</red>
							<green>0</green>
							<blue>0</blue>
						</color>
						<in>9268</in>
						<out>-1</out>
					</marker>
					<marker>
						<name>Eyewriter</name>
						<comment>eyewriter,&#13;prosthetic,&#13;drawing,&#13;cyborg,&#13;</comment>
						<color>
							<alpha>0</alpha>
							<red>255</red>
							<green>0</green>
							<blue>0</blue>
						</color>
						<in>10837</in>
						<out>11259</out>
					</marker>
					<filter>
						<effect>
							<name>Audio Levels</name>
							<effectid>audiolevels</effectid>
							<effectcategory>audiolevels</effectcategory>
							<effecttype>audiolevels</effecttype>
							<mediatype>audio</mediatype>
							<parameter>
								<name>Level</name>
								<parameterid>level</parameterid>
								<valuemin>0</valuemin>
								<valuemax>3.98109</valuemax>
								<value>1</value>
							</parameter>
						</effect>
					</filter>
					<filter>
						<effect>
							<name>Audio Pan</name>
							<effectid>audiopan</effectid>
							<effectcategory>audiopan</effectcategory>
							<effecttype>audiopan</effecttype>
							<mediatype>audio</mediatype>
							<parameter>
								<name>Pan</name>
								<parameterid>pan</parameterid>
								<valuemin>-1</valuemin>
								<valuemax>1</valuemax>
								<value>1</value>
							</parameter>
						</effect>
					</filter>
					<sourcetrack>
						<mediatype>audio</mediatype>
						<trackindex>2</trackindex>
					</sourcetrack>
					<link>
						<linkclipref>MVI_0976 </linkclipref>
						<mediatype>video</mediatype>
						<trackindex>1</trackindex>
						<clipindex>4</clipindex>
					</link>
					<link>
						<linkclipref>MVI_0976 3</linkclipref>
						<mediatype>audio</mediatype>
						<trackindex>1</trackindex>
						<clipindex>4</clipindex>
						<groupindex>1</groupindex>
					</link>
					<link>
						<linkclipref>MVI_0976 4</linkclipref>
						<mediatype>audio</mediatype>
						<trackindex>2</trackindex>
						<clipindex>4</clipindex>
						<groupindex>1</groupindex>
					</link>
					<itemhistory>
						<uuid>178A0B7A-9604-4181-A048-BED4F0DA159B</uuid>
					</itemhistory>
				</clipitem>
				<clipitem id="MVI_0977 4">
					<name>MVI_0977</name>
					<duration>12108</duration>
					<rate>
						<ntsc>TRUE</ntsc>
						<timebase>24</timebase>
					</rate>
					<in>0</in>
					<out>12108</out>
					<start>54930</start>
					<end>67038</end>
					<masterclipid>MVI_0977 1</masterclipid>
					<logginginfo>
						<scene/>
						<shottake/>
						<lognote/>
						<good>FALSE</good>
					</logginginfo>
					<labels>
						<label2/>
					</labels>
					<comments>
						<mastercomment1/>
						<mastercomment2/>
						<mastercomment3/>
						<mastercomment4/>
					</comments>
					<file id="MVI_0977 2"/>
					<filter>
						<effect>
							<name>Audio Levels</name>
							<effectid>audiolevels</effectid>
							<effectcategory>audiolevels</effectcategory>
							<effecttype>audiolevels</effecttype>
							<mediatype>audio</mediatype>
							<parameter>
								<name>Level</name>
								<parameterid>level</parameterid>
								<valuemin>0</valuemin>
								<valuemax>3.98109</valuemax>
								<value>1</value>
							</parameter>
						</effect>
					</filter>
					<filter>
						<effect>
							<name>Audio Pan</name>
							<effectid>audiopan</effectid>
							<effectcategory>audiopan</effectcategory>
							<effecttype>audiopan</effecttype>
							<mediatype>audio</mediatype>
							<parameter>
								<name>Pan</name>
								<parameterid>pan</parameterid>
								<valuemin>-1</valuemin>
								<valuemax>1</valuemax>
								<value>1</value>
							</parameter>
						</effect>
					</filter>
					<sourcetrack>
						<mediatype>audio</mediatype>
						<trackindex>2</trackindex>
					</sourcetrack>
					<link>
						<linkclipref>MVI_0977 </linkclipref>
						<mediatype>video</mediatype>
						<trackindex>1</trackindex>
						<clipindex>5</clipindex>
					</link>
					<link>
						<linkclipref>MVI_0977 3</linkclipref>
						<mediatype>audio</mediatype>
						<trackindex>1</trackindex>
						<clipindex>5</clipindex>
						<groupindex>1</groupindex>
					</link>
					<link>
						<linkclipref>MVI_0977 4</linkclipref>
						<mediatype>audio</mediatype>
						<trackindex>2</trackindex>
						<clipindex>5</clipindex>
						<groupindex>1</groupindex>
					</link>
					<itemhistory>
						<uuid>CA5CFDE0-E60B-47BC-8B9E-B73F7D799804</uuid>
					</itemhistory>
				</clipitem>
				<clipitem id="MVI_0978 4">
					<name>MVI_0978</name>
					<duration>13742</duration>
					<rate>
						<ntsc>TRUE</ntsc>
						<timebase>24</timebase>
					</rate>
					<in>0</in>
					<out>13742</out>
					<start>67038</start>
					<end>80780</end>
					<masterclipid>MVI_0978 1</masterclipid>
					<logginginfo>
						<scene/>
						<shottake/>
						<lognote/>
						<good>FALSE</good>
					</logginginfo>
					<labels>
						<label2/>
					</labels>
					<comments>
						<mastercomment1/>
						<mastercomment2/>
						<mastercomment3/>
						<mastercomment4/>
					</comments>
					<file id="MVI_0978 2"/>
					<marker>
						<name>Kinect</name>
						<comment>RGBD,&#13;camera,&#13;3D sensing,&#13;3D scanning,</comment>
						<color>
							<alpha>0</alpha>
							<red>255</red>
							<green>0</green>
							<blue>0</blue>
						</color>
						<in>137</in>
						<out>1504</out>
					</marker>
					<marker>
						<name>Marker 2</name>
						<comment/>
						<color>
							<alpha>0</alpha>
							<red>255</red>
							<green>0</green>
							<blue>0</blue>
						</color>
						<in>3048</in>
						<out>6249</out>
					</marker>
					<marker>
						<name>Marker 3</name>
						<comment>Beauty,&#13;3D printing,&#13;Link: Marius "Thoroughly enjoying it at the moment"</comment>
						<color>
							<alpha>0</alpha>
							<red>255</red>
							<green>0</green>
							<blue>0</blue>
						</color>
						<in>9531</in>
						<out>10460</out>
					</marker>
					<marker>
						<name>kinect was meant for</name>
						<comment>assistive technology,&#13;gesture recognition,&#13;embodiment,&#13;kinect,&#13;</comment>
						<color>
							<alpha>0</alpha>
							<red>255</red>
							<green>0</green>
							<blue>0</blue>
						</color>
						<in>11205</in>
						<out>12011</out>
					</marker>
					<marker>
						<name>Marker 5</name>
						<comment/>
						<color>
							<alpha>0</alpha>
							<red>255</red>
							<green>0</green>
							<blue>0</blue>
						</color>
						<in>12917</in>
						<out>13222</out>
					</marker>
					<filter>
						<effect>
							<name>Audio Levels</name>
							<effectid>audiolevels</effectid>
							<effectcategory>audiolevels</effectcategory>
							<effecttype>audiolevels</effecttype>
							<mediatype>audio</mediatype>
							<parameter>
								<name>Level</name>
								<parameterid>level</parameterid>
								<valuemin>0</valuemin>
								<valuemax>3.98109</valuemax>
								<value>1</value>
							</parameter>
						</effect>
					</filter>
					<filter>
						<effect>
							<name>Audio Pan</name>
							<effectid>audiopan</effectid>
							<effectcategory>audiopan</effectcategory>
							<effecttype>audiopan</effecttype>
							<mediatype>audio</mediatype>
							<parameter>
								<name>Pan</name>
								<parameterid>pan</parameterid>
								<valuemin>-1</valuemin>
								<valuemax>1</valuemax>
								<value>1</value>
							</parameter>
						</effect>
					</filter>
					<sourcetrack>
						<mediatype>audio</mediatype>
						<trackindex>2</trackindex>
					</sourcetrack>
					<link>
						<linkclipref>MVI_0978 </linkclipref>
						<mediatype>video</mediatype>
						<trackindex>1</trackindex>
						<clipindex>6</clipindex>
					</link>
					<link>
						<linkclipref>MVI_0978 3</linkclipref>
						<mediatype>audio</mediatype>
						<trackindex>1</trackindex>
						<clipindex>6</clipindex>
						<groupindex>1</groupindex>
					</link>
					<link>
						<linkclipref>MVI_0978 4</linkclipref>
						<mediatype>audio</mediatype>
						<trackindex>2</trackindex>
						<clipindex>6</clipindex>
						<groupindex>1</groupindex>
					</link>
					<itemhistory>
						<uuid>41025EF8-1CCE-4100-AD8F-B13E558672F2</uuid>
					</itemhistory>
				</clipitem>
				<clipitem id="MVI_0979 4">
					<name>MVI_0979</name>
					<duration>16183</duration>
					<rate>
						<ntsc>TRUE</ntsc>
						<timebase>24</timebase>
					</rate>
					<in>0</in>
					<out>3246</out>
					<start>80780</start>
					<end>84026</end>
					<masterclipid>MVI_0979 1</masterclipid>
					<logginginfo>
						<scene/>
						<shottake/>
						<lognote/>
						<good>FALSE</good>
					</logginginfo>
					<labels>
						<label2/>
					</labels>
					<comments>
						<mastercomment1/>
						<mastercomment2/>
						<mastercomment3/>
						<mastercomment4/>
					</comments>
					<file id="MVI_0979 2"/>
					<marker>
						<name>programmers vs artists</name>
						<comment>exploration, art versus engineering</comment>
						<color>
							<alpha>0</alpha>
							<red>255</red>
							<green>0</green>
							<blue>0</blue>
						</color>
						<in>1468</in>
						<out>2418</out>
					</marker>
					<marker>
						<name>art versus engineering</name>
						<comment>exploration,art versus engineering,&#13;evaluation</comment>
						<color>
							<alpha>0</alpha>
							<red>255</red>
							<green>0</green>
							<blue>0</blue>
						</color>
						<in>3256</in>
						<out>3831</out>
					</marker>
					<marker>
						<name>artist is never done</name>
						<comment>completion,&#13;evaluation,&#13;infinite conversation,&#13;infinite game, &#13;art versus engineering</comment>
						<color>
							<alpha>0</alpha>
							<red>255</red>
							<green>0</green>
							<blue>0</blue>
						</color>
						<in>4124</in>
						<out>4530</out>
					</marker>
					<marker>
						<name>folowing the finger</name>
						<comment>rephotography,&#13;cinema of the future,&#13;</comment>
						<color>
							<alpha>0</alpha>
							<red>255</red>
							<green>0</green>
							<blue>0</blue>
						</color>
						<in>6592</in>
						<out>6873</out>
					</marker>
					<marker>
						<name>the comment thread</name>
						<comment>the answer,&#13;the future,&#13;dialogue,&#13;visionary,&#13;commentary,&#13;</comment>
						<color>
							<alpha>0</alpha>
							<red>255</red>
							<green>0</green>
							<blue>0</blue>
						</color>
						<in>8696</in>
						<out>9605</out>
					</marker>
					<filter>
						<effect>
							<name>Audio Levels</name>
							<effectid>audiolevels</effectid>
							<effectcategory>audiolevels</effectcategory>
							<effecttype>audiolevels</effecttype>
							<mediatype>audio</mediatype>
							<parameter>
								<name>Level</name>
								<parameterid>level</parameterid>
								<valuemin>0</valuemin>
								<valuemax>3.98109</valuemax>
								<value>1</value>
							</parameter>
						</effect>
					</filter>
					<filter>
						<effect>
							<name>Audio Pan</name>
							<effectid>audiopan</effectid>
							<effectcategory>audiopan</effectcategory>
							<effecttype>audiopan</effecttype>
							<mediatype>audio</mediatype>
							<parameter>
								<name>Pan</name>
								<parameterid>pan</parameterid>
								<valuemin>-1</valuemin>
								<valuemax>1</valuemax>
								<value>1</value>
							</parameter>
						</effect>
					</filter>
					<sourcetrack>
						<mediatype>audio</mediatype>
						<trackindex>2</trackindex>
					</sourcetrack>
					<link>
						<linkclipref>MVI_0979 </linkclipref>
						<mediatype>video</mediatype>
						<trackindex>1</trackindex>
						<clipindex>7</clipindex>
					</link>
					<link>
						<linkclipref>MVI_0979 3</linkclipref>
						<mediatype>audio</mediatype>
						<trackindex>1</trackindex>
						<clipindex>7</clipindex>
						<groupindex>1</groupindex>
					</link>
					<link>
						<linkclipref>MVI_0979 4</linkclipref>
						<mediatype>audio</mediatype>
						<trackindex>2</trackindex>
						<clipindex>7</clipindex>
						<groupindex>1</groupindex>
					</link>
					<itemhistory>
						<uuid>3A3F2F9D-8F19-4294-8587-0C52595581C5</uuid>
						<uuid>6C01D2E6-4E13-4104-9262-63C906DB63D9</uuid>
					</itemhistory>
				</clipitem>
				<clipitem id="MVI_0979 7">
					<name>MVI_0979</name>
					<duration>16183</duration>
					<rate>
						<ntsc>TRUE</ntsc>
						<timebase>24</timebase>
					</rate>
					<in>3246</in>
					<out>4524</out>
					<start>84026</start>
					<end>85304</end>
					<masterclipid>MVI_0979 1</masterclipid>
					<logginginfo>
						<scene/>
						<shottake/>
						<lognote/>
						<good>FALSE</good>
					</logginginfo>
					<labels>
						<label2/>
					</labels>
					<comments>
						<mastercomment1/>
						<mastercomment2/>
						<mastercomment3/>
						<mastercomment4/>
					</comments>
					<file id="MVI_0979 2"/>
					<marker>
						<name>programmers vs artists</name>
						<comment>exploration, art versus engineering</comment>
						<color>
							<alpha>0</alpha>
							<red>255</red>
							<green>0</green>
							<blue>0</blue>
						</color>
						<in>1468</in>
						<out>2418</out>
					</marker>
					<marker>
						<name>art versus engineering</name>
						<comment>exploration,art versus engineering,&#13;evaluation</comment>
						<color>
							<alpha>0</alpha>
							<red>255</red>
							<green>0</green>
							<blue>0</blue>
						</color>
						<in>3256</in>
						<out>3831</out>
					</marker>
					<marker>
						<name>artist is never done</name>
						<comment>completion,&#13;evaluation,&#13;infinite conversation,&#13;infinite game, &#13;art versus engineering</comment>
						<color>
							<alpha>0</alpha>
							<red>255</red>
							<green>0</green>
							<blue>0</blue>
						</color>
						<in>4124</in>
						<out>4530</out>
					</marker>
					<marker>
						<name>folowing the finger</name>
						<comment>rephotography,&#13;cinema of the future,&#13;</comment>
						<color>
							<alpha>0</alpha>
							<red>255</red>
							<green>0</green>
							<blue>0</blue>
						</color>
						<in>6592</in>
						<out>6873</out>
					</marker>
					<marker>
						<name>the comment thread</name>
						<comment>the answer,&#13;the future,&#13;dialogue,&#13;visionary,&#13;commentary,&#13;</comment>
						<color>
							<alpha>0</alpha>
							<red>255</red>
							<green>0</green>
							<blue>0</blue>
						</color>
						<in>8696</in>
						<out>9605</out>
					</marker>
					<filter>
						<effect>
							<name>Audio Levels</name>
							<effectid>audiolevels</effectid>
							<effectcategory>audiolevels</effectcategory>
							<effecttype>audiolevels</effecttype>
							<mediatype>audio</mediatype>
							<parameter>
								<name>Level</name>
								<parameterid>level</parameterid>
								<valuemin>0</valuemin>
								<valuemax>3.98109</valuemax>
								<value>1</value>
							</parameter>
						</effect>
					</filter>
					<filter>
						<effect>
							<name>Audio Pan</name>
							<effectid>audiopan</effectid>
							<effectcategory>audiopan</effectcategory>
							<effecttype>audiopan</effecttype>
							<mediatype>audio</mediatype>
							<parameter>
								<name>Pan</name>
								<parameterid>pan</parameterid>
								<valuemin>-1</valuemin>
								<valuemax>1</valuemax>
								<value>1</value>
							</parameter>
						</effect>
					</filter>
					<sourcetrack>
						<mediatype>audio</mediatype>
						<trackindex>2</trackindex>
					</sourcetrack>
					<link>
						<linkclipref>MVI_0979 5</linkclipref>
						<mediatype>video</mediatype>
						<trackindex>1</trackindex>
						<clipindex>8</clipindex>
					</link>
					<link>
						<linkclipref>MVI_0979 6</linkclipref>
						<mediatype>audio</mediatype>
						<trackindex>1</trackindex>
						<clipindex>8</clipindex>
						<groupindex>1</groupindex>
					</link>
					<link>
						<linkclipref>MVI_0979 7</linkclipref>
						<mediatype>audio</mediatype>
						<trackindex>2</trackindex>
						<clipindex>8</clipindex>
						<groupindex>1</groupindex>
					</link>
					<itemhistory>
						<uuid>26D03AB5-3E7B-4D8B-A321-ED5E918501B5</uuid>
						<uuid>6C01D2E6-4E13-4104-9262-63C906DB63D9</uuid>
					</itemhistory>
				</clipitem>
				<clipitem id="MVI_0979 10">
					<name>MVI_0979</name>
					<duration>16183</duration>
					<rate>
						<ntsc>TRUE</ntsc>
						<timebase>24</timebase>
					</rate>
					<in>4524</in>
					<out>16183</out>
					<start>85304</start>
					<end>96963</end>
					<masterclipid>MVI_0979 1</masterclipid>
					<logginginfo>
						<scene/>
						<shottake/>
						<lognote/>
						<good>FALSE</good>
					</logginginfo>
					<labels>
						<label2/>
					</labels>
					<comments>
						<mastercomment1/>
						<mastercomment2/>
						<mastercomment3/>
						<mastercomment4/>
					</comments>
					<file id="MVI_0979 2"/>
					<marker>
						<name>programmers vs artists</name>
						<comment>exploration, art versus engineering</comment>
						<color>
							<alpha>0</alpha>
							<red>255</red>
							<green>0</green>
							<blue>0</blue>
						</color>
						<in>1468</in>
						<out>2418</out>
					</marker>
					<marker>
						<name>art versus engineering</name>
						<comment>exploration,art versus engineering,&#13;evaluation</comment>
						<color>
							<alpha>0</alpha>
							<red>255</red>
							<green>0</green>
							<blue>0</blue>
						</color>
						<in>3256</in>
						<out>3831</out>
					</marker>
					<marker>
						<name>artist is never done</name>
						<comment>completion,&#13;evaluation,&#13;infinite conversation,&#13;infinite game, &#13;art versus engineering</comment>
						<color>
							<alpha>0</alpha>
							<red>255</red>
							<green>0</green>
							<blue>0</blue>
						</color>
						<in>4124</in>
						<out>4530</out>
					</marker>
					<marker>
						<name>folowing the finger</name>
						<comment>rephotography,&#13;cinema of the future,&#13;</comment>
						<color>
							<alpha>0</alpha>
							<red>255</red>
							<green>0</green>
							<blue>0</blue>
						</color>
						<in>6592</in>
						<out>6873</out>
					</marker>
					<marker>
						<name>the comment thread</name>
						<comment>the answer,&#13;the future,&#13;dialogue,&#13;visionary,&#13;commentary,&#13;</comment>
						<color>
							<alpha>0</alpha>
							<red>255</red>
							<green>0</green>
							<blue>0</blue>
						</color>
						<in>8696</in>
						<out>9605</out>
					</marker>
					<filter>
						<effect>
							<name>Audio Levels</name>
							<effectid>audiolevels</effectid>
							<effectcategory>audiolevels</effectcategory>
							<effecttype>audiolevels</effecttype>
							<mediatype>audio</mediatype>
							<parameter>
								<name>Level</name>
								<parameterid>level</parameterid>
								<valuemin>0</valuemin>
								<valuemax>3.98109</valuemax>
								<value>1</value>
							</parameter>
						</effect>
					</filter>
					<filter>
						<effect>
							<name>Audio Pan</name>
							<effectid>audiopan</effectid>
							<effectcategory>audiopan</effectcategory>
							<effecttype>audiopan</effecttype>
							<mediatype>audio</mediatype>
							<parameter>
								<name>Pan</name>
								<parameterid>pan</parameterid>
								<valuemin>-1</valuemin>
								<valuemax>1</valuemax>
								<value>1</value>
							</parameter>
						</effect>
					</filter>
					<sourcetrack>
						<mediatype>audio</mediatype>
						<trackindex>2</trackindex>
					</sourcetrack>
					<link>
						<linkclipref>MVI_0979 8</linkclipref>
						<mediatype>video</mediatype>
						<trackindex>1</trackindex>
						<clipindex>9</clipindex>
					</link>
					<link>
						<linkclipref>MVI_0979 9</linkclipref>
						<mediatype>audio</mediatype>
						<trackindex>1</trackindex>
						<clipindex>9</clipindex>
						<groupindex>1</groupindex>
					</link>
					<link>
						<linkclipref>MVI_0979 10</linkclipref>
						<mediatype>audio</mediatype>
						<trackindex>2</trackindex>
						<clipindex>9</clipindex>
						<groupindex>1</groupindex>
					</link>
					<itemhistory>
						<uuid>E6E1BAD0-912E-45AA-94C4-F8C41C6AC782</uuid>
						<uuid>6C01D2E6-4E13-4104-9262-63C906DB63D9</uuid>
					</itemhistory>
				</clipitem>
				<enabled>TRUE</enabled>
				<locked>FALSE</locked>
				<outputchannelindex>2</outputchannelindex>
			</track>
			<track>
				<enabled>TRUE</enabled>
				<locked>FALSE</locked>
				<outputchannelindex>1</outputchannelindex>
			</track>
			<track>
				<enabled>TRUE</enabled>
				<locked>FALSE</locked>
				<outputchannelindex>2</outputchannelindex>
			</track>
			<filter>
				<effect>
					<name>Audio Levels</name>
					<effectid>audiolevels</effectid>
					<effectcategory>audiolevels</effectcategory>
					<effecttype>audiolevels</effecttype>
					<mediatype>audio</mediatype>
					<parameter>
						<name>Level</name>
						<parameterid>level</parameterid>
						<valuemin>0</valuemin>
						<valuemax>3.98109</valuemax>
						<value>1</value>
					</parameter>
				</effect>
			</filter>
		</audio>
	</media>
	<ismasterclip>FALSE</ismasterclip>
</sequence>
<sequence id="Maeda">
	<uuid>B955D472-F898-485B-A63E-3AA863E462FE</uuid>
	<updatebehavior>add</updatebehavior>
	<name>Maeda</name>
	<duration>70211</duration>
	<rate>
		<ntsc>TRUE</ntsc>
		<timebase>24</timebase>
	</rate>
	<timecode>
		<rate>
			<ntsc>TRUE</ntsc>
			<timebase>24</timebase>
		</rate>
		<string>01:00:00:00</string>
		<frame>86400</frame>
		<source>source</source>
		<displayformat>NDF</displayformat>
	</timecode>
	<in>6156</in>
	<out>12847</out>
	<media>
		<video>
			<format>
				<samplecharacteristics>
					<width>1920</width>
					<height>1080</height>
					<anamorphic>FALSE</anamorphic>
					<pixelaspectratio>Square</pixelaspectratio>
					<fielddominance>none</fielddominance>
					<rate>
						<ntsc>TRUE</ntsc>
						<timebase>24</timebase>
					</rate>
					<colordepth>24</colordepth>
					<codec>
						<name>Apple ProRes 422</name>
						<appspecificdata>
							<appname>Final Cut Pro</appname>
							<appmanufacturer>Apple Inc.</appmanufacturer>
							<appversion>7.0</appversion>
							<data>
								<qtcodec>
									<codecname>Apple ProRes 422</codecname>
									<codectypename>Apple ProRes 422</codectypename>
									<codectypecode>apcn</codectypecode>
									<codecvendorcode>appl</codecvendorcode>
									<spatialquality>1024</spatialquality>
									<temporalquality>0</temporalquality>
									<keyframerate>0</keyframerate>
									<datarate>0</datarate>
								</qtcodec>
							</data>
						</appspecificdata>
					</codec>
				</samplecharacteristics>
				<appspecificdata>
					<appname>Final Cut Pro</appname>
					<appmanufacturer>Apple Inc.</appmanufacturer>
					<appversion>7.0</appversion>
					<data>
						<fcpimageprocessing>
							<useyuv>TRUE</useyuv>
							<usesuperwhite>FALSE</usesuperwhite>
							<rendermode>Float10BPP</rendermode>
						</fcpimageprocessing>
					</data>
				</appspecificdata>
			</format>
			<track>
				<clipitem id="MVI_7671 ">
					<name>MVI_7671</name>
					<duration>789</duration>
					<rate>
						<ntsc>TRUE</ntsc>
						<timebase>24</timebase>
					</rate>
					<in>0</in>
					<out>789</out>
					<start>0</start>
					<end>789</end>
					<pixelaspectratio>Square</pixelaspectratio>
					<anamorphic>FALSE</anamorphic>
					<alphatype>none</alphatype>
					<masterclipid>MVI_7671 1</masterclipid>
					<logginginfo>
						<scene/>
						<shottake/>
						<lognote/>
						<good>FALSE</good>
					</logginginfo>
					<labels>
						<label2/>
					</labels>
					<comments>
						<mastercomment1/>
						<mastercomment2/>
						<mastercomment3/>
						<mastercomment4/>
					</comments>
					<file id="MVI_7671 2">
						<name>MVI_7671.mov</name>
						<pathurl>file://localhost/Volumes/Nebula/MediaPackages/JohnMaeda/depthframes/maeda02/MVI_7671.mov</pathurl>
						<rate>
							<timebase>24</timebase>
							<ntsc>TRUE</ntsc>
						</rate>
						<duration>789</duration>
						<media>
							<video>
								<duration>789</duration>
								<samplecharacteristics>
									<width>1920</width>
									<height>1080</height>
								</samplecharacteristics>
							</video>
							<audio>
								<samplecharacteristics>
									<samplerate>48000</samplerate>
									<depth>16</depth>
								</samplecharacteristics>
								<channelcount>2</channelcount>
							</audio>
						</media>
					</file>
					<sourcetrack>
						<mediatype>video</mediatype>
					</sourcetrack>
					<link>
						<linkclipref>MVI_7671 </linkclipref>
						<mediatype>video</mediatype>
						<trackindex>1</trackindex>
						<clipindex>1</clipindex>
					</link>
					<link>
						<linkclipref>MVI_7671 3</linkclipref>
						<mediatype>audio</mediatype>
						<trackindex>1</trackindex>
						<clipindex>1</clipindex>
						<groupindex>1</groupindex>
					</link>
					<link>
						<linkclipref>MVI_7671 4</linkclipref>
						<mediatype>audio</mediatype>
						<trackindex>2</trackindex>
						<clipindex>1</clipindex>
						<groupindex>1</groupindex>
					</link>
					<fielddominance>none</fielddominance>
					<itemhistory>
						<uuid>F5B624AA-E8F7-4DFF-BCD1-38AFB6E54A89</uuid>
					</itemhistory>
				</clipitem>
				<clipitem id="MVI_7676 ">
					<name>MVI_7676</name>
					<duration>2000</duration>
					<rate>
						<ntsc>TRUE</ntsc>
						<timebase>24</timebase>
					</rate>
					<in>0</in>
					<out>2000</out>
					<start>789</start>
					<end>2789</end>
					<pixelaspectratio>Square</pixelaspectratio>
					<enabled>TRUE</enabled>
					<anamorphic>FALSE</anamorphic>
					<alphatype>none</alphatype>
					<masterclipid>MVI_7676 1</masterclipid>
					<logginginfo>
						<scene/>
						<shottake/>
						<lognote/>
						<good>FALSE</good>
					</logginginfo>
					<labels>
						<label2/>
					</labels>
					<comments>
						<mastercomment1/>
						<mastercomment2/>
						<mastercomment3/>
						<mastercomment4/>
					</comments>
					<file id="MVI_7676 2">
						<name>MVI_7676.mov</name>
						<pathurl>file://localhost/Volumes/Nebula/MediaPackages/JohnMaeda/depthframes/maeda03/MVI_7676.mov</pathurl>
						<rate>
							<timebase>24</timebase>
							<ntsc>TRUE</ntsc>
						</rate>
						<duration>2000</duration>
						<media>
							<video>
								<duration>2000</duration>
								<samplecharacteristics>
									<width>1920</width>
									<height>1080</height>
								</samplecharacteristics>
							</video>
							<audio>
								<samplecharacteristics>
									<samplerate>48000</samplerate>
									<depth>16</depth>
								</samplecharacteristics>
								<channelcount>2</channelcount>
							</audio>
						</media>
					</file>
					<marker>
						<name>a computer is a clock</name>
						<comment>What is a computer?,&#13;time,&#13;computer,&#13;clock</comment>
						<color>
							<alpha>0</alpha>
							<red>255</red>
							<green>127</green>
							<blue>0</blue>
						</color>
						<in>249</in>
						<out>768</out>
					</marker>
					<marker>
						<name>early computer graphics</name>
						<comment>what was it like working with early computers?,&#13;history,&#13;sketching,&#13;</comment>
						<color>
							<alpha>0</alpha>
							<red>255</red>
							<green>0</green>
							<blue>0</blue>
						</color>
						<in>1141</in>
						<out>1919</out>
					</marker>
					<filter>
						<enabled>TRUE</enabled>
						<start>-1</start>
						<end>-1</end>
						<effect>
							<name>Color Corrector</name>
							<effectid>Color Corrector</effectid>
							<effectcategory>Color Correction</effectcategory>
							<effecttype>filter</effecttype>
							<mediatype>video</mediatype>
							<parameter>
								<parameterid>dispmode</parameterid>
								<name>Display Mode</name>
								<valuemin>1</valuemin>
								<valuemax>3</valuemax>
								<valuelist>
									<valueentry>
										<name>Final</name>
										<value>1</value>
									</valueentry>
									<valueentry>
										<name>Matte</name>
										<value>2</value>
									</valueentry>
									<valueentry>
										<name>Source</name>
										<value>3</value>
									</valueentry>
								</valuelist>
								<value>1</value>
							</parameter>
							<parameter>
								<parameterid>label1</parameterid>
								<name>Level Controls</name>
								<value/>
							</parameter>
							<parameter>
								<parameterid>highlights</parameterid>
								<name>Highlights</name>
								<valuemin>64</valuemin>
								<valuemax>509</valuemax>
								<value>244</value>
							</parameter>
							<parameter>
								<parameterid>mids</parameterid>
								<name>Mids</name>
								<valuemin>0</valuemin>
								<valuemax>200</valuemax>
								<value>73</value>
							</parameter>
							<parameter>
								<parameterid>blacklevel</parameterid>
								<name>Blacks</name>
								<valuemin>-196</valuemin>
								<valuemax>254</valuemax>
								<value>-24</value>
							</parameter>
							<parameter>
								<parameterid>label2</parameterid>
								<name>Color Balance</name>
								<value/>
							</parameter>
							<parameter>
								<parameterid>hue</parameterid>
								<name>Angle</name>
								<valuemin>-180</valuemin>
								<valuemax>180</valuemax>
								<value>-33</value>
							</parameter>
							<parameter>
								<parameterid>mag</parameterid>
								<name>Magnitude</name>
								<valuemin>0</valuemin>
								<valuemax>200</valuemax>
								<value>0</value>
							</parameter>
							<parameter>
								<parameterid>label4</parameterid>
								<name>Color Controls</name>
								<value/>
							</parameter>
							<parameter>
								<parameterid>chroma</parameterid>
								<name>Saturation</name>
								<valuemin>0</valuemin>
								<valuemax>200</valuemax>
								<value>100</value>
							</parameter>
							<parameter>
								<parameterid>phase</parameterid>
								<name>Phase shift</name>
								<valuemin>-180</valuemin>
								<valuemax>180</valuemax>
								<value>0</value>
							</parameter>
							<parameter>
								<parameterid>label5</parameterid>
								<name>Limit Effect Controls</name>
								<value/>
							</parameter>
							<parameter>
								<parameterid>dochroma</parameterid>
								<name>Limit on Chroma</name>
								<value>FALSE</value>
							</parameter>
							<parameter>
								<parameterid>centerang</parameterid>
								<name>Chroma Center</name>
								<valuemin>-760</valuemin>
								<valuemax>760</valuemax>
								<value>-110</value>
							</parameter>
							<parameter>
								<parameterid>chromawidth</parameterid>
								<name>Chroma Width</name>
								<valuemin>0</valuemin>
								<valuemax>360</valuemax>
								<value>15</value>
							</parameter>
							<parameter>
								<parameterid>chromasoft</parameterid>
								<name>Chroma Softness</name>
								<valuemin>0</valuemin>
								<valuemax>180</valuemax>
								<value>10</value>
							</parameter>
							<parameter>
								<parameterid>dosat</parameterid>
								<name>Limit on Saturation</name>
								<value>FALSE</value>
							</parameter>
							<parameter>
								<parameterid>satmin</parameterid>
								<name>Sat. Minimum</name>
								<valuemin>0</valuemin>
								<valuemax>125</valuemax>
								<value>35</value>
							</parameter>
							<parameter>
								<parameterid>satwidth</parameterid>
								<name>Sat. Width</name>
								<valuemin>0</valuemin>
								<valuemax>125</valuemax>
								<value>40</value>
							</parameter>
							<parameter>
								<parameterid>satsoft</parameterid>
								<name>Sat. Softness</name>
								<valuemin>0</valuemin>
								<valuemax>125</valuemax>
								<value>20</value>
							</parameter>
							<parameter>
								<parameterid>doluma</parameterid>
								<name>Limit on Luma</name>
								<value>FALSE</value>
							</parameter>
							<parameter>
								<parameterid>lumamin</parameterid>
								<name>Luma Minimum</name>
								<valuemin>0</valuemin>
								<valuemax>120</valuemax>
								<value>0</value>
							</parameter>
							<parameter>
								<parameterid>lumawidth</parameterid>
								<name>Luma Width</name>
								<valuemin>0</valuemin>
								<valuemax>120</valuemax>
								<value>40</value>
							</parameter>
							<parameter>
								<parameterid>lumasoft</parameterid>
								<name>Luma Softness</name>
								<valuemin>0</valuemin>
								<valuemax>120</valuemax>
								<value>20</value>
							</parameter>
							<parameter>
								<parameterid>label6</parameterid>
								<name>Edge Control</name>
								<value/>
							</parameter>
							<parameter>
								<parameterid>edgethin</parameterid>
								<name>Thin/Spread</name>
								<valuemin>-100</valuemin>
								<valuemax>100</valuemax>
								<value>0</value>
							</parameter>
							<parameter>
								<parameterid>edgefeather</parameterid>
								<name>Softening</name>
								<valuemin>0</valuemin>
								<valuemax>100</valuemax>
								<value>0</value>
							</parameter>
							<parameter>
								<parameterid>label7</parameterid>
								<name>Mask Control</name>
								<value/>
							</parameter>
							<parameter>
								<parameterid>invertsel</parameterid>
								<name>Invert</name>
								<value>FALSE</value>
							</parameter>
							<parameter>
								<parameterid>debugshow</parameterid>
								<name>Show Stats</name>
								<value>FALSE</value>
							</parameter>
						</effect>
					</filter>
					<filter>
						<enabled>TRUE</enabled>
						<start>-1</start>
						<end>-1</end>
						<effect>
							<name>RGB Balance</name>
							<effectid>RGB Balance</effectid>
							<effectcategory>Color Correction</effectcategory>
							<effecttype>filter</effecttype>
							<mediatype>video</mediatype>
							<parameter>
								<parameterid>label1</parameterid>
								<name>Reds</name>
								<value/>
							</parameter>
							<parameter>
								<parameterid>rhighlights</parameterid>
								<name>Highlights</name>
								<valuemin>64</valuemin>
								<valuemax>509</valuemax>
								<value>243</value>
							</parameter>
							<parameter>
								<parameterid>rgamma</parameterid>
								<name>Midtones</name>
								<valuemin>0</valuemin>
								<valuemax>200</valuemax>
								<value>96</value>
							</parameter>
							<parameter>
								<parameterid>rblacklevel</parameterid>
								<name>Blacks</name>
								<valuemin>-196</valuemin>
								<valuemax>254</valuemax>
								<value>0</value>
							</parameter>
							<parameter>
								<parameterid>label2</parameterid>
								<name>Greens</name>
								<value/>
							</parameter>
							<parameter>
								<parameterid>ghighlights</parameterid>
								<name>Highlights</name>
								<valuemin>64</valuemin>
								<valuemax>509</valuemax>
								<value>255</value>
							</parameter>
							<parameter>
								<parameterid>ggamma</parameterid>
								<name>Midtones</name>
								<valuemin>0</valuemin>
								<valuemax>200</valuemax>
								<value>100</value>
							</parameter>
							<parameter>
								<parameterid>gblacklevel</parameterid>
								<name>Blacks</name>
								<valuemin>-196</valuemin>
								<valuemax>254</valuemax>
								<value>0</value>
							</parameter>
							<parameter>
								<parameterid>label3</parameterid>
								<name>Blues</name>
								<value/>
							</parameter>
							<parameter>
								<parameterid>bhighlights</parameterid>
								<name>Highlights</name>
								<valuemin>64</valuemin>
								<valuemax>509</valuemax>
								<value>301</value>
							</parameter>
							<parameter>
								<parameterid>bgamma</parameterid>
								<name>Midtones</name>
								<valuemin>0</valuemin>
								<valuemax>200</valuemax>
								<value>100</value>
							</parameter>
							<parameter>
								<parameterid>bblacklevel</parameterid>
								<name>Blacks</name>
								<valuemin>-196</valuemin>
								<valuemax>254</valuemax>
								<value>0</value>
							</parameter>
						</effect>
					</filter>
					<sourcetrack>
						<mediatype>video</mediatype>
					</sourcetrack>
					<link>
						<linkclipref>MVI_7676 </linkclipref>
						<mediatype>video</mediatype>
						<trackindex>1</trackindex>
						<clipindex>2</clipindex>
					</link>
					<link>
						<linkclipref>MVI_7676 3</linkclipref>
						<mediatype>audio</mediatype>
						<trackindex>1</trackindex>
						<clipindex>2</clipindex>
						<groupindex>1</groupindex>
					</link>
					<link>
						<linkclipref>MVI_7676 4</linkclipref>
						<mediatype>audio</mediatype>
						<trackindex>2</trackindex>
						<clipindex>2</clipindex>
						<groupindex>1</groupindex>
					</link>
					<fielddominance>none</fielddominance>
					<itemhistory>
						<uuid>CEE609F0-9E93-42AC-AE3C-D513CFF61529</uuid>
					</itemhistory>
				</clipitem>
				<clipitem id="MVI_7680 ">
					<name>MVI_7680</name>
					<duration>10163</duration>
					<rate>
						<ntsc>TRUE</ntsc>
						<timebase>24</timebase>
					</rate>
					<in>0</in>
					<out>3341</out>
					<start>2789</start>
					<end>6130</end>
					<pixelaspectratio>Square</pixelaspectratio>
					<enabled>TRUE</enabled>
					<anamorphic>FALSE</anamorphic>
					<alphatype>none</alphatype>
					<masterclipid>MVI_7680 1</masterclipid>
					<logginginfo>
						<scene/>
						<shottake/>
						<lognote/>
						<good>FALSE</good>
					</logginginfo>
					<labels>
						<label2/>
					</labels>
					<comments>
						<mastercomment1/>
						<mastercomment2/>
						<mastercomment3/>
						<mastercomment4/>
					</comments>
					<file id="MVI_7680 2">
						<name>MVI_7680.mov</name>
						<pathurl>file://localhost/Volumes/Nebula/MediaPackages/JohnMaeda/depthframes/maeda03/MVI_7680.mov</pathurl>
						<rate>
							<timebase>24</timebase>
							<ntsc>TRUE</ntsc>
						</rate>
						<duration>10163</duration>
						<media>
							<video>
								<duration>10163</duration>
								<samplecharacteristics>
									<width>1920</width>
									<height>1080</height>
								</samplecharacteristics>
							</video>
							<audio>
								<samplecharacteristics>
									<samplerate>48000</samplerate>
									<depth>16</depth>
								</samplecharacteristics>
								<channelcount>2</channelcount>
							</audio>
						</media>
					</file>
					<marker>
						<name>Marker 7</name>
						<comment/>
						<color>
							<alpha>0</alpha>
							<red>255</red>
							<green>0</green>
							<blue>0</blue>
						</color>
						<in>3364</in>
						<out>-1</out>
					</marker>
					<marker>
						<name>technology is made by people</name>
						<comment>Are humans and technology truly opposites: Isn't technology after all a reflection of humanity?, &#13;humanism,&#13;dichotomy,&#13;struggle with technology,&#13;challenges</comment>
						<color>
							<alpha>0</alpha>
							<red>255</red>
							<green>0</green>
							<blue>0</blue>
						</color>
						<in>3367</in>
						<out>4400</out>
					</marker>
					<marker>
						<name>do not resuscitate </name>
						<comment>How do you see your older work now?,&#13;obsolescence, &#13;old media,&#13;history,&#13;&#13;</comment>
						<color>
							<alpha>0</alpha>
							<red>255</red>
							<green>0</green>
							<blue>0</blue>
						</color>
						<in>4852</in>
						<out>5228</out>
					</marker>
					<marker>
						<name>thinking about interfaces</name>
						<comment>Is your work transgressive?,&#13;why?,&#13;what if....?,&#13;inversion,&#13;play,&#13;hacking,&#13;subversion,&#13;interfaces,&#13;mouse,&#13;keyboard,&#13;GUI,&#13;think different,</comment>
						<color>
							<alpha>0</alpha>
							<red>255</red>
							<green>0</green>
							<blue>0</blue>
						</color>
						<in>5377</in>
						<out>6367</out>
					</marker>
					<marker>
						<name>Marker 4</name>
						<comment>what's the importance of play?,&#13;play,&#13;children,&#13;physicality,&#13;active learning,&#13;embodiment,&#13;interactivity,&#13;&#13;</comment>
						<color>
							<alpha>0</alpha>
							<red>255</red>
							<green>0</green>
							<blue>0</blue>
						</color>
						<in>6537</in>
						<out>7767</out>
					</marker>
					<marker>
						<name>reactive square</name>
						<comment>what's the importance of play?,&#13;audivisualization,&#13;interactivity,&#13;kids&#13;</comment>
						<color>
							<alpha>0</alpha>
							<red>255</red>
							<green>0</green>
							<blue>0</blue>
						</color>
						<in>6917</in>
						<out>7729</out>
					</marker>
					<marker>
						<name>Subversion</name>
						<comment>critique,&#13;insight,&#13;emotion,&#13;meaning,&#13;mood: epiphany,</comment>
						<color>
							<alpha>0</alpha>
							<red>255</red>
							<green>0</green>
							<blue>0</blue>
						</color>
						<in>8919</in>
						<out>9818</out>
					</marker>
					<filter>
						<enabled>TRUE</enabled>
						<start>-1</start>
						<end>-1</end>
						<effect>
							<name>Color Corrector</name>
							<effectid>Color Corrector</effectid>
							<effectcategory>Color Correction</effectcategory>
							<effecttype>filter</effecttype>
							<mediatype>video</mediatype>
							<parameter>
								<parameterid>dispmode</parameterid>
								<name>Display Mode</name>
								<valuemin>1</valuemin>
								<valuemax>3</valuemax>
								<valuelist>
									<valueentry>
										<name>Final</name>
										<value>1</value>
									</valueentry>
									<valueentry>
										<name>Matte</name>
										<value>2</value>
									</valueentry>
									<valueentry>
										<name>Source</name>
										<value>3</value>
									</valueentry>
								</valuelist>
								<value>1</value>
							</parameter>
							<parameter>
								<parameterid>label1</parameterid>
								<name>Level Controls</name>
								<value/>
							</parameter>
							<parameter>
								<parameterid>highlights</parameterid>
								<name>Highlights</name>
								<valuemin>64</valuemin>
								<valuemax>509</valuemax>
								<value>268</value>
							</parameter>
							<parameter>
								<parameterid>mids</parameterid>
								<name>Mids</name>
								<valuemin>0</valuemin>
								<valuemax>200</valuemax>
								<value>112</value>
							</parameter>
							<parameter>
								<parameterid>blacklevel</parameterid>
								<name>Blacks</name>
								<valuemin>-196</valuemin>
								<valuemax>254</valuemax>
								<value>15</value>
							</parameter>
							<parameter>
								<parameterid>label2</parameterid>
								<name>Color Balance</name>
								<value/>
							</parameter>
							<parameter>
								<parameterid>hue</parameterid>
								<name>Angle</name>
								<valuemin>-180</valuemin>
								<valuemax>180</valuemax>
								<value>-33</value>
							</parameter>
							<parameter>
								<parameterid>mag</parameterid>
								<name>Magnitude</name>
								<valuemin>0</valuemin>
								<valuemax>200</valuemax>
								<value>0</value>
							</parameter>
							<parameter>
								<parameterid>label4</parameterid>
								<name>Color Controls</name>
								<value/>
							</parameter>
							<parameter>
								<parameterid>chroma</parameterid>
								<name>Saturation</name>
								<valuemin>0</valuemin>
								<valuemax>200</valuemax>
								<value>100</value>
							</parameter>
							<parameter>
								<parameterid>phase</parameterid>
								<name>Phase shift</name>
								<valuemin>-180</valuemin>
								<valuemax>180</valuemax>
								<value>0</value>
							</parameter>
							<parameter>
								<parameterid>label5</parameterid>
								<name>Limit Effect Controls</name>
								<value/>
							</parameter>
							<parameter>
								<parameterid>dochroma</parameterid>
								<name>Limit on Chroma</name>
								<value>FALSE</value>
							</parameter>
							<parameter>
								<parameterid>centerang</parameterid>
								<name>Chroma Center</name>
								<valuemin>-760</valuemin>
								<valuemax>760</valuemax>
								<value>-110</value>
							</parameter>
							<parameter>
								<parameterid>chromawidth</parameterid>
								<name>Chroma Width</name>
								<valuemin>0</valuemin>
								<valuemax>360</valuemax>
								<value>15</value>
							</parameter>
							<parameter>
								<parameterid>chromasoft</parameterid>
								<name>Chroma Softness</name>
								<valuemin>0</valuemin>
								<valuemax>180</valuemax>
								<value>10</value>
							</parameter>
							<parameter>
								<parameterid>dosat</parameterid>
								<name>Limit on Saturation</name>
								<value>FALSE</value>
							</parameter>
							<parameter>
								<parameterid>satmin</parameterid>
								<name>Sat. Minimum</name>
								<valuemin>0</valuemin>
								<valuemax>125</valuemax>
								<value>35</value>
							</parameter>
							<parameter>
								<parameterid>satwidth</parameterid>
								<name>Sat. Width</name>
								<valuemin>0</valuemin>
								<valuemax>125</valuemax>
								<value>40</value>
							</parameter>
							<parameter>
								<parameterid>satsoft</parameterid>
								<name>Sat. Softness</name>
								<valuemin>0</valuemin>
								<valuemax>125</valuemax>
								<value>20</value>
							</parameter>
							<parameter>
								<parameterid>doluma</parameterid>
								<name>Limit on Luma</name>
								<value>FALSE</value>
							</parameter>
							<parameter>
								<parameterid>lumamin</parameterid>
								<name>Luma Minimum</name>
								<valuemin>0</valuemin>
								<valuemax>120</valuemax>
								<value>0</value>
							</parameter>
							<parameter>
								<parameterid>lumawidth</parameterid>
								<name>Luma Width</name>
								<valuemin>0</valuemin>
								<valuemax>120</valuemax>
								<value>40</value>
							</parameter>
							<parameter>
								<parameterid>lumasoft</parameterid>
								<name>Luma Softness</name>
								<valuemin>0</valuemin>
								<valuemax>120</valuemax>
								<value>20</value>
							</parameter>
							<parameter>
								<parameterid>label6</parameterid>
								<name>Edge Control</name>
								<value/>
							</parameter>
							<parameter>
								<parameterid>edgethin</parameterid>
								<name>Thin/Spread</name>
								<valuemin>-100</valuemin>
								<valuemax>100</valuemax>
								<value>0</value>
							</parameter>
							<parameter>
								<parameterid>edgefeather</parameterid>
								<name>Softening</name>
								<valuemin>0</valuemin>
								<valuemax>100</valuemax>
								<value>0</value>
							</parameter>
							<parameter>
								<parameterid>label7</parameterid>
								<name>Mask Control</name>
								<value/>
							</parameter>
							<parameter>
								<parameterid>invertsel</parameterid>
								<name>Invert</name>
								<value>FALSE</value>
							</parameter>
							<parameter>
								<parameterid>debugshow</parameterid>
								<name>Show Stats</name>
								<value>FALSE</value>
							</parameter>
						</effect>
					</filter>
					<filter>
						<enabled>TRUE</enabled>
						<start>-1</start>
						<end>-1</end>
						<effect>
							<name>RGB Balance</name>
							<effectid>RGB Balance</effectid>
							<effectcategory>Color Correction</effectcategory>
							<effecttype>filter</effecttype>
							<mediatype>video</mediatype>
							<parameter>
								<parameterid>label1</parameterid>
								<name>Reds</name>
								<value/>
							</parameter>
							<parameter>
								<parameterid>rhighlights</parameterid>
								<name>Highlights</name>
								<valuemin>64</valuemin>
								<valuemax>509</valuemax>
								<value>255</value>
							</parameter>
							<parameter>
								<parameterid>rgamma</parameterid>
								<name>Midtones</name>
								<valuemin>0</valuemin>
								<valuemax>200</valuemax>
								<value>100</value>
							</parameter>
							<parameter>
								<parameterid>rblacklevel</parameterid>
								<name>Blacks</name>
								<valuemin>-196</valuemin>
								<valuemax>254</valuemax>
								<value>0</value>
							</parameter>
							<parameter>
								<parameterid>label2</parameterid>
								<name>Greens</name>
								<value/>
							</parameter>
							<parameter>
								<parameterid>ghighlights</parameterid>
								<name>Highlights</name>
								<valuemin>64</valuemin>
								<valuemax>509</valuemax>
								<value>255</value>
							</parameter>
							<parameter>
								<parameterid>ggamma</parameterid>
								<name>Midtones</name>
								<valuemin>0</valuemin>
								<valuemax>200</valuemax>
								<value>100</value>
							</parameter>
							<parameter>
								<parameterid>gblacklevel</parameterid>
								<name>Blacks</name>
								<valuemin>-196</valuemin>
								<valuemax>254</valuemax>
								<value>0</value>
							</parameter>
							<parameter>
								<parameterid>label3</parameterid>
								<name>Blues</name>
								<value/>
							</parameter>
							<parameter>
								<parameterid>bhighlights</parameterid>
								<name>Highlights</name>
								<valuemin>64</valuemin>
								<valuemax>509</valuemax>
								<value>313</value>
							</parameter>
							<parameter>
								<parameterid>bgamma</parameterid>
								<name>Midtones</name>
								<valuemin>0</valuemin>
								<valuemax>200</valuemax>
								<value>100</value>
							</parameter>
							<parameter>
								<parameterid>bblacklevel</parameterid>
								<name>Blacks</name>
								<valuemin>-196</valuemin>
								<valuemax>254</valuemax>
								<value>0</value>
							</parameter>
						</effect>
					</filter>
					<filter>
						<effect>
							<name>Basic Motion</name>
							<effectid>basic</effectid>
							<effectcategory>motion</effectcategory>
							<effecttype>motion</effecttype>
							<mediatype>video</mediatype>
							<parameter>
								<parameterid>center</parameterid>
								<name>Center</name>
								<value>
									<horiz>0</horiz>
									<vert>0.00185185</vert>
								</value>
							</parameter>
						</effect>
					</filter>
					<sourcetrack>
						<mediatype>video</mediatype>
					</sourcetrack>
					<link>
						<linkclipref>MVI_7680 </linkclipref>
						<mediatype>video</mediatype>
						<trackindex>1</trackindex>
						<clipindex>3</clipindex>
					</link>
					<link>
						<linkclipref>MVI_7680 3</linkclipref>
						<mediatype>audio</mediatype>
						<trackindex>1</trackindex>
						<clipindex>3</clipindex>
						<groupindex>1</groupindex>
					</link>
					<link>
						<linkclipref>MVI_7680 4</linkclipref>
						<mediatype>audio</mediatype>
						<trackindex>2</trackindex>
						<clipindex>3</clipindex>
						<groupindex>1</groupindex>
					</link>
					<fielddominance>none</fielddominance>
					<itemhistory>
						<uuid>D96368A4-4AB4-4A07-B913-E69B18D13023</uuid>
						<uuid>2F04AB36-9778-4D64-990A-762A6AB6D40C</uuid>
					</itemhistory>
				</clipitem>
				<clipitem id="MVI_7680 5">
					<name>MVI_7680</name>
					<duration>10163</duration>
					<rate>
						<ntsc>TRUE</ntsc>
						<timebase>24</timebase>
					</rate>
					<in>3341</in>
					<out>10163</out>
					<start>6130</start>
					<end>12952</end>
					<pixelaspectratio>Square</pixelaspectratio>
					<enabled>TRUE</enabled>
					<anamorphic>FALSE</anamorphic>
					<alphatype>none</alphatype>
					<masterclipid>MVI_7680 1</masterclipid>
					<logginginfo>
						<scene/>
						<shottake/>
						<lognote/>
						<good>FALSE</good>
					</logginginfo>
					<labels>
						<label2/>
					</labels>
					<comments>
						<mastercomment1/>
						<mastercomment2/>
						<mastercomment3/>
						<mastercomment4/>
					</comments>
					<file id="MVI_7680 2"/>
					<marker>
						<name>Marker 7</name>
						<comment/>
						<color>
							<alpha>0</alpha>
							<red>255</red>
							<green>0</green>
							<blue>0</blue>
						</color>
						<in>3364</in>
						<out>-1</out>
					</marker>
					<marker>
						<name>technology is made by people</name>
						<comment>Are humans and technology truly opposites: Isn't technology after all a reflection of humanity?, &#13;humanism,&#13;dichotomy,&#13;struggle with technology,&#13;challenges</comment>
						<color>
							<alpha>0</alpha>
							<red>255</red>
							<green>0</green>
							<blue>0</blue>
						</color>
						<in>3367</in>
						<out>4400</out>
					</marker>
					<marker>
						<name>do not resuscitate </name>
						<comment>How do you see your older work now?,&#13;obsolescence, &#13;old media,&#13;history,&#13;&#13;</comment>
						<color>
							<alpha>0</alpha>
							<red>255</red>
							<green>0</green>
							<blue>0</blue>
						</color>
						<in>4852</in>
						<out>5228</out>
					</marker>
					<marker>
						<name>thinking about interfaces</name>
						<comment>Is your work transgressive?,&#13;why?,&#13;what if....?,&#13;inversion,&#13;play,&#13;hacking,&#13;subversion,&#13;interfaces,&#13;mouse,&#13;keyboard,&#13;GUI,&#13;think different,</comment>
						<color>
							<alpha>0</alpha>
							<red>255</red>
							<green>0</green>
							<blue>0</blue>
						</color>
						<in>5377</in>
						<out>6367</out>
					</marker>
					<marker>
						<name>Marker 4</name>
						<comment>what's the importance of play?,&#13;play,&#13;children,&#13;physicality,&#13;active learning,&#13;embodiment,&#13;interactivity,&#13;&#13;</comment>
						<color>
							<alpha>0</alpha>
							<red>255</red>
							<green>0</green>
							<blue>0</blue>
						</color>
						<in>6537</in>
						<out>7767</out>
					</marker>
					<marker>
						<name>reactive square</name>
						<comment>what's the importance of play?,&#13;audivisualization,&#13;interactivity,&#13;kids&#13;</comment>
						<color>
							<alpha>0</alpha>
							<red>255</red>
							<green>0</green>
							<blue>0</blue>
						</color>
						<in>6917</in>
						<out>7729</out>
					</marker>
					<marker>
						<name>Subversion</name>
						<comment>critique,&#13;insight,&#13;emotion,&#13;meaning,&#13;mood: epiphany,</comment>
						<color>
							<alpha>0</alpha>
							<red>255</red>
							<green>0</green>
							<blue>0</blue>
						</color>
						<in>8919</in>
						<out>9818</out>
					</marker>
					<filter>
						<enabled>TRUE</enabled>
						<start>-1</start>
						<end>-1</end>
						<effect>
							<name>Color Corrector</name>
							<effectid>Color Corrector</effectid>
							<effectcategory>Color Correction</effectcategory>
							<effecttype>filter</effecttype>
							<mediatype>video</mediatype>
							<parameter>
								<parameterid>dispmode</parameterid>
								<name>Display Mode</name>
								<valuemin>1</valuemin>
								<valuemax>3</valuemax>
								<valuelist>
									<valueentry>
										<name>Final</name>
										<value>1</value>
									</valueentry>
									<valueentry>
										<name>Matte</name>
										<value>2</value>
									</valueentry>
									<valueentry>
										<name>Source</name>
										<value>3</value>
									</valueentry>
								</valuelist>
								<value>1</value>
							</parameter>
							<parameter>
								<parameterid>label1</parameterid>
								<name>Level Controls</name>
								<value/>
							</parameter>
							<parameter>
								<parameterid>highlights</parameterid>
								<name>Highlights</name>
								<valuemin>64</valuemin>
								<valuemax>509</valuemax>
								<value>268</value>
							</parameter>
							<parameter>
								<parameterid>mids</parameterid>
								<name>Mids</name>
								<valuemin>0</valuemin>
								<valuemax>200</valuemax>
								<value>112</value>
							</parameter>
							<parameter>
								<parameterid>blacklevel</parameterid>
								<name>Blacks</name>
								<valuemin>-196</valuemin>
								<valuemax>254</valuemax>
								<value>15</value>
							</parameter>
							<parameter>
								<parameterid>label2</parameterid>
								<name>Color Balance</name>
								<value/>
							</parameter>
							<parameter>
								<parameterid>hue</parameterid>
								<name>Angle</name>
								<valuemin>-180</valuemin>
								<valuemax>180</valuemax>
								<value>-33</value>
							</parameter>
							<parameter>
								<parameterid>mag</parameterid>
								<name>Magnitude</name>
								<valuemin>0</valuemin>
								<valuemax>200</valuemax>
								<value>0</value>
							</parameter>
							<parameter>
								<parameterid>label4</parameterid>
								<name>Color Controls</name>
								<value/>
							</parameter>
							<parameter>
								<parameterid>chroma</parameterid>
								<name>Saturation</name>
								<valuemin>0</valuemin>
								<valuemax>200</valuemax>
								<value>100</value>
							</parameter>
							<parameter>
								<parameterid>phase</parameterid>
								<name>Phase shift</name>
								<valuemin>-180</valuemin>
								<valuemax>180</valuemax>
								<value>0</value>
							</parameter>
							<parameter>
								<parameterid>label5</parameterid>
								<name>Limit Effect Controls</name>
								<value/>
							</parameter>
							<parameter>
								<parameterid>dochroma</parameterid>
								<name>Limit on Chroma</name>
								<value>FALSE</value>
							</parameter>
							<parameter>
								<parameterid>centerang</parameterid>
								<name>Chroma Center</name>
								<valuemin>-760</valuemin>
								<valuemax>760</valuemax>
								<value>-110</value>
							</parameter>
							<parameter>
								<parameterid>chromawidth</parameterid>
								<name>Chroma Width</name>
								<valuemin>0</valuemin>
								<valuemax>360</valuemax>
								<value>15</value>
							</parameter>
							<parameter>
								<parameterid>chromasoft</parameterid>
								<name>Chroma Softness</name>
								<valuemin>0</valuemin>
								<valuemax>180</valuemax>
								<value>10</value>
							</parameter>
							<parameter>
								<parameterid>dosat</parameterid>
								<name>Limit on Saturation</name>
								<value>FALSE</value>
							</parameter>
							<parameter>
								<parameterid>satmin</parameterid>
								<name>Sat. Minimum</name>
								<valuemin>0</valuemin>
								<valuemax>125</valuemax>
								<value>35</value>
							</parameter>
							<parameter>
								<parameterid>satwidth</parameterid>
								<name>Sat. Width</name>
								<valuemin>0</valuemin>
								<valuemax>125</valuemax>
								<value>40</value>
							</parameter>
							<parameter>
								<parameterid>satsoft</parameterid>
								<name>Sat. Softness</name>
								<valuemin>0</valuemin>
								<valuemax>125</valuemax>
								<value>20</value>
							</parameter>
							<parameter>
								<parameterid>doluma</parameterid>
								<name>Limit on Luma</name>
								<value>FALSE</value>
							</parameter>
							<parameter>
								<parameterid>lumamin</parameterid>
								<name>Luma Minimum</name>
								<valuemin>0</valuemin>
								<valuemax>120</valuemax>
								<value>0</value>
							</parameter>
							<parameter>
								<parameterid>lumawidth</parameterid>
								<name>Luma Width</name>
								<valuemin>0</valuemin>
								<valuemax>120</valuemax>
								<value>40</value>
							</parameter>
							<parameter>
								<parameterid>lumasoft</parameterid>
								<name>Luma Softness</name>
								<valuemin>0</valuemin>
								<valuemax>120</valuemax>
								<value>20</value>
							</parameter>
							<parameter>
								<parameterid>label6</parameterid>
								<name>Edge Control</name>
								<value/>
							</parameter>
							<parameter>
								<parameterid>edgethin</parameterid>
								<name>Thin/Spread</name>
								<valuemin>-100</valuemin>
								<valuemax>100</valuemax>
								<value>0</value>
							</parameter>
							<parameter>
								<parameterid>edgefeather</parameterid>
								<name>Softening</name>
								<valuemin>0</valuemin>
								<valuemax>100</valuemax>
								<value>0</value>
							</parameter>
							<parameter>
								<parameterid>label7</parameterid>
								<name>Mask Control</name>
								<value/>
							</parameter>
							<parameter>
								<parameterid>invertsel</parameterid>
								<name>Invert</name>
								<value>FALSE</value>
							</parameter>
							<parameter>
								<parameterid>debugshow</parameterid>
								<name>Show Stats</name>
								<value>FALSE</value>
							</parameter>
						</effect>
					</filter>
					<filter>
						<enabled>TRUE</enabled>
						<start>-1</start>
						<end>-1</end>
						<effect>
							<name>RGB Balance</name>
							<effectid>RGB Balance</effectid>
							<effectcategory>Color Correction</effectcategory>
							<effecttype>filter</effecttype>
							<mediatype>video</mediatype>
							<parameter>
								<parameterid>label1</parameterid>
								<name>Reds</name>
								<value/>
							</parameter>
							<parameter>
								<parameterid>rhighlights</parameterid>
								<name>Highlights</name>
								<valuemin>64</valuemin>
								<valuemax>509</valuemax>
								<value>255</value>
							</parameter>
							<parameter>
								<parameterid>rgamma</parameterid>
								<name>Midtones</name>
								<valuemin>0</valuemin>
								<valuemax>200</valuemax>
								<value>100</value>
							</parameter>
							<parameter>
								<parameterid>rblacklevel</parameterid>
								<name>Blacks</name>
								<valuemin>-196</valuemin>
								<valuemax>254</valuemax>
								<value>0</value>
							</parameter>
							<parameter>
								<parameterid>label2</parameterid>
								<name>Greens</name>
								<value/>
							</parameter>
							<parameter>
								<parameterid>ghighlights</parameterid>
								<name>Highlights</name>
								<valuemin>64</valuemin>
								<valuemax>509</valuemax>
								<value>255</value>
							</parameter>
							<parameter>
								<parameterid>ggamma</parameterid>
								<name>Midtones</name>
								<valuemin>0</valuemin>
								<valuemax>200</valuemax>
								<value>100</value>
							</parameter>
							<parameter>
								<parameterid>gblacklevel</parameterid>
								<name>Blacks</name>
								<valuemin>-196</valuemin>
								<valuemax>254</valuemax>
								<value>0</value>
							</parameter>
							<parameter>
								<parameterid>label3</parameterid>
								<name>Blues</name>
								<value/>
							</parameter>
							<parameter>
								<parameterid>bhighlights</parameterid>
								<name>Highlights</name>
								<valuemin>64</valuemin>
								<valuemax>509</valuemax>
								<value>313</value>
							</parameter>
							<parameter>
								<parameterid>bgamma</parameterid>
								<name>Midtones</name>
								<valuemin>0</valuemin>
								<valuemax>200</valuemax>
								<value>100</value>
							</parameter>
							<parameter>
								<parameterid>bblacklevel</parameterid>
								<name>Blacks</name>
								<valuemin>-196</valuemin>
								<valuemax>254</valuemax>
								<value>0</value>
							</parameter>
						</effect>
					</filter>
					<filter>
						<effect>
							<name>Basic Motion</name>
							<effectid>basic</effectid>
							<effectcategory>motion</effectcategory>
							<effecttype>motion</effecttype>
							<mediatype>video</mediatype>
							<parameter>
								<parameterid>center</parameterid>
								<name>Center</name>
								<value>
									<horiz>0</horiz>
									<vert>0.00185185</vert>
								</value>
							</parameter>
						</effect>
					</filter>
					<sourcetrack>
						<mediatype>video</mediatype>
					</sourcetrack>
					<link>
						<linkclipref>MVI_7680 5</linkclipref>
						<mediatype>video</mediatype>
						<trackindex>1</trackindex>
						<clipindex>4</clipindex>
					</link>
					<link>
						<linkclipref>MVI_7680 6</linkclipref>
						<mediatype>audio</mediatype>
						<trackindex>1</trackindex>
						<clipindex>4</clipindex>
						<groupindex>1</groupindex>
					</link>
					<link>
						<linkclipref>MVI_7680 7</linkclipref>
						<mediatype>audio</mediatype>
						<trackindex>2</trackindex>
						<clipindex>4</clipindex>
						<groupindex>1</groupindex>
					</link>
					<fielddominance>none</fielddominance>
					<itemhistory>
						<uuid>B8FE6A43-A3F4-4697-9512-A60D2FEFD120</uuid>
						<uuid>2F04AB36-9778-4D64-990A-762A6AB6D40C</uuid>
					</itemhistory>
				</clipitem>
				<clipitem id="MVI_7681 ">
					<name>MVI_7681</name>
					<duration>15985</duration>
					<rate>
						<ntsc>TRUE</ntsc>
						<timebase>24</timebase>
					</rate>
					<in>0</in>
					<out>9699</out>
					<start>12952</start>
					<end>22651</end>
					<pixelaspectratio>Square</pixelaspectratio>
					<enabled>TRUE</enabled>
					<anamorphic>FALSE</anamorphic>
					<alphatype>none</alphatype>
					<masterclipid>MVI_7681 1</masterclipid>
					<logginginfo>
						<scene/>
						<shottake/>
						<lognote/>
						<good>FALSE</good>
					</logginginfo>
					<labels>
						<label2/>
					</labels>
					<comments>
						<mastercomment1/>
						<mastercomment2/>
						<mastercomment3/>
						<mastercomment4/>
					</comments>
					<file id="MVI_7681 2">
						<name>MVI_7681.mov</name>
						<pathurl>file://localhost/Volumes/Nebula/MediaPackages/JohnMaeda/depthframes/maeda04/MVI_7681.mov</pathurl>
						<rate>
							<timebase>24</timebase>
							<ntsc>TRUE</ntsc>
						</rate>
						<duration>15985</duration>
						<media>
							<video>
								<duration>15985</duration>
								<samplecharacteristics>
									<width>1920</width>
									<height>1080</height>
								</samplecharacteristics>
							</video>
							<audio>
								<samplecharacteristics>
									<samplerate>48000</samplerate>
									<depth>16</depth>
								</samplecharacteristics>
								<channelcount>2</channelcount>
							</audio>
						</media>
					</file>
					<marker>
						<name>Inexactitude,</name>
						<comment>physicality,&#13;realworld,&#13;uncertainty</comment>
						<color>
							<alpha>0</alpha>
							<red>255</red>
							<green>0</green>
							<blue>0</blue>
						</color>
						<in>533</in>
						<out>1054</out>
					</marker>
					<marker>
						<name>Digital meets analog</name>
						<comment>digital meets physical,&#13;uncertainty,&#13;physicality,&#13;"real world",&#13;</comment>
						<color>
							<alpha>0</alpha>
							<red>255</red>
							<green>0</green>
							<blue>0</blue>
						</color>
						<in>597</in>
						<out>908</out>
					</marker>
					<marker>
						<name>People</name>
						<comment>people,&#13;social dynamics,&#13;business,&#13;organizations,&#13;career changes,</comment>
						<color>
							<alpha>0</alpha>
							<red>255</red>
							<green>0</green>
							<blue>0</blue>
						</color>
						<in>907</in>
						<out>1526</out>
					</marker>
					<marker>
						<name>simplicity and complexity</name>
						<comment>simplicity,&#13;complexity,&#13;balance,</comment>
						<color>
							<alpha>0</alpha>
							<red>255</red>
							<green>0</green>
							<blue>0</blue>
						</color>
						<in>4751</in>
						<out>5323</out>
					</marker>
					<marker>
						<name>How do computers help us to visualize information?</name>
						<comment>technological progress,&#13;efficiency,&#13;time saving devices,&#13;processing power,&#13;rendering,&#13;visualization,&#13;&#13;</comment>
						<color>
							<alpha>0</alpha>
							<red>255</red>
							<green>0</green>
							<blue>0</blue>
						</color>
						<in>5829</in>
						<out>6128</out>
					</marker>
					<marker>
						<name>Ten thousand chinese villagers</name>
						<comment>man versus machine,&#13;complexity,&#13;processing power&#13;</comment>
						<color>
							<alpha>0</alpha>
							<red>255</red>
							<green>0</green>
							<blue>0</blue>
						</color>
						<in>6226</in>
						<out>-1</out>
					</marker>
					<marker>
						<name>Marker 6</name>
						<comment/>
						<color>
							<alpha>0</alpha>
							<red>255</red>
							<green>0</green>
							<blue>0</blue>
						</color>
						<in>6229</in>
						<out>7246</out>
					</marker>
					<marker>
						<name>people are best communicators</name>
						<comment>How does information visualziation help communicate complexity?&#13;information visualization,&#13;information,&#13;simplicity,&#13;clarity,&#13;data viz,&#13;communication,&#13;people,&#13;</comment>
						<color>
							<alpha>0</alpha>
							<red>255</red>
							<green>0</green>
							<blue>0</blue>
						</color>
						<in>7277</in>
						<out>7954</out>
					</marker>
					<marker>
						<name>Kill the master</name>
						<comment>education,&#13;fate,</comment>
						<color>
							<alpha>0</alpha>
							<red>255</red>
							<green>0</green>
							<blue>0</blue>
						</color>
						<in>8954</in>
						<out>9532</out>
					</marker>
					<marker>
						<name>last trick</name>
						<comment>experimentation&#13;mind and hand&#13;intuition,&#13;heuristics,&#13;art and experience,&#13;drawing,&#13;touch,</comment>
						<color>
							<alpha>0</alpha>
							<red>255</red>
							<green>0</green>
							<blue>0</blue>
						</color>
						<in>9705</in>
						<out>10934</out>
					</marker>
					<marker>
						<name>self expression</name>
						<comment>self expression,&#13;expression,&#13;process,&#13;mind and hand,&#13;physicality,&#13;creative exploration,</comment>
						<color>
							<alpha>0</alpha>
							<red>255</red>
							<green>0</green>
							<blue>0</blue>
						</color>
						<in>11444</in>
						<out>11848</out>
					</marker>
					<marker>
						<name>lost interest in interactivity</name>
						<comment>interactivity,&#13;noninteractivity,&#13;design,&#13;image,&#13;post-digital&#13;</comment>
						<color>
							<alpha>0</alpha>
							<red>255</red>
							<green>0</green>
							<blue>0</blue>
						</color>
						<in>12150</in>
						<out>12763</out>
					</marker>
					<marker>
						<name>Marker 19</name>
						<comment/>
						<color>
							<alpha>0</alpha>
							<red>255</red>
							<green>0</green>
							<blue>0</blue>
						</color>
						<in>13818</in>
						<out>-1</out>
					</marker>
					<marker>
						<name>Marker 15</name>
						<comment/>
						<color>
							<alpha>0</alpha>
							<red>255</red>
							<green>0</green>
							<blue>0</blue>
						</color>
						<in>13819</in>
						<out>-1</out>
					</marker>
					<marker>
						<name>Isn't it supposed to be new?</name>
						<comment>Newness,&#13;old media,&#13;new media,&#13;originality,&#13;limits of the computer,&#13;beautiful exhuberance, &#13;beauty,&#13;visual culture,&#13;</comment>
						<color>
							<alpha>0</alpha>
							<red>255</red>
							<green>0</green>
							<blue>0</blue>
						</color>
						<in>15171</in>
						<out>15895</out>
					</marker>
					<filter>
						<enabled>TRUE</enabled>
						<start>-1</start>
						<end>-1</end>
						<effect>
							<name>Color Corrector</name>
							<effectid>Color Corrector</effectid>
							<effectcategory>Color Correction</effectcategory>
							<effecttype>filter</effecttype>
							<mediatype>video</mediatype>
							<parameter>
								<parameterid>dispmode</parameterid>
								<name>Display Mode</name>
								<valuemin>1</valuemin>
								<valuemax>3</valuemax>
								<valuelist>
									<valueentry>
										<name>Final</name>
										<value>1</value>
									</valueentry>
									<valueentry>
										<name>Matte</name>
										<value>2</value>
									</valueentry>
									<valueentry>
										<name>Source</name>
										<value>3</value>
									</valueentry>
								</valuelist>
								<value>1</value>
							</parameter>
							<parameter>
								<parameterid>label1</parameterid>
								<name>Level Controls</name>
								<value/>
							</parameter>
							<parameter>
								<parameterid>highlights</parameterid>
								<name>Highlights</name>
								<valuemin>64</valuemin>
								<valuemax>509</valuemax>
								<value>268</value>
							</parameter>
							<parameter>
								<parameterid>mids</parameterid>
								<name>Mids</name>
								<valuemin>0</valuemin>
								<valuemax>200</valuemax>
								<value>104</value>
							</parameter>
							<parameter>
								<parameterid>blacklevel</parameterid>
								<name>Blacks</name>
								<valuemin>-196</valuemin>
								<valuemax>254</valuemax>
								<value>11</value>
							</parameter>
							<parameter>
								<parameterid>label2</parameterid>
								<name>Color Balance</name>
								<value/>
							</parameter>
							<parameter>
								<parameterid>hue</parameterid>
								<name>Angle</name>
								<valuemin>-180</valuemin>
								<valuemax>180</valuemax>
								<value>-33</value>
							</parameter>
							<parameter>
								<parameterid>mag</parameterid>
								<name>Magnitude</name>
								<valuemin>0</valuemin>
								<valuemax>200</valuemax>
								<value>0</value>
							</parameter>
							<parameter>
								<parameterid>label4</parameterid>
								<name>Color Controls</name>
								<value/>
							</parameter>
							<parameter>
								<parameterid>chroma</parameterid>
								<name>Saturation</name>
								<valuemin>0</valuemin>
								<valuemax>200</valuemax>
								<value>100</value>
							</parameter>
							<parameter>
								<parameterid>phase</parameterid>
								<name>Phase shift</name>
								<valuemin>-180</valuemin>
								<valuemax>180</valuemax>
								<value>0</value>
							</parameter>
							<parameter>
								<parameterid>label5</parameterid>
								<name>Limit Effect Controls</name>
								<value/>
							</parameter>
							<parameter>
								<parameterid>dochroma</parameterid>
								<name>Limit on Chroma</name>
								<value>FALSE</value>
							</parameter>
							<parameter>
								<parameterid>centerang</parameterid>
								<name>Chroma Center</name>
								<valuemin>-760</valuemin>
								<valuemax>760</valuemax>
								<value>-110</value>
							</parameter>
							<parameter>
								<parameterid>chromawidth</parameterid>
								<name>Chroma Width</name>
								<valuemin>0</valuemin>
								<valuemax>360</valuemax>
								<value>15</value>
							</parameter>
							<parameter>
								<parameterid>chromasoft</parameterid>
								<name>Chroma Softness</name>
								<valuemin>0</valuemin>
								<valuemax>180</valuemax>
								<value>10</value>
							</parameter>
							<parameter>
								<parameterid>dosat</parameterid>
								<name>Limit on Saturation</name>
								<value>FALSE</value>
							</parameter>
							<parameter>
								<parameterid>satmin</parameterid>
								<name>Sat. Minimum</name>
								<valuemin>0</valuemin>
								<valuemax>125</valuemax>
								<value>35</value>
							</parameter>
							<parameter>
								<parameterid>satwidth</parameterid>
								<name>Sat. Width</name>
								<valuemin>0</valuemin>
								<valuemax>125</valuemax>
								<value>40</value>
							</parameter>
							<parameter>
								<parameterid>satsoft</parameterid>
								<name>Sat. Softness</name>
								<valuemin>0</valuemin>
								<valuemax>125</valuemax>
								<value>20</value>
							</parameter>
							<parameter>
								<parameterid>doluma</parameterid>
								<name>Limit on Luma</name>
								<value>FALSE</value>
							</parameter>
							<parameter>
								<parameterid>lumamin</parameterid>
								<name>Luma Minimum</name>
								<valuemin>0</valuemin>
								<valuemax>120</valuemax>
								<value>0</value>
							</parameter>
							<parameter>
								<parameterid>lumawidth</parameterid>
								<name>Luma Width</name>
								<valuemin>0</valuemin>
								<valuemax>120</valuemax>
								<value>40</value>
							</parameter>
							<parameter>
								<parameterid>lumasoft</parameterid>
								<name>Luma Softness</name>
								<valuemin>0</valuemin>
								<valuemax>120</valuemax>
								<value>20</value>
							</parameter>
							<parameter>
								<parameterid>label6</parameterid>
								<name>Edge Control</name>
								<value/>
							</parameter>
							<parameter>
								<parameterid>edgethin</parameterid>
								<name>Thin/Spread</name>
								<valuemin>-100</valuemin>
								<valuemax>100</valuemax>
								<value>0</value>
							</parameter>
							<parameter>
								<parameterid>edgefeather</parameterid>
								<name>Softening</name>
								<valuemin>0</valuemin>
								<valuemax>100</valuemax>
								<value>0</value>
							</parameter>
							<parameter>
								<parameterid>label7</parameterid>
								<name>Mask Control</name>
								<value/>
							</parameter>
							<parameter>
								<parameterid>invertsel</parameterid>
								<name>Invert</name>
								<value>FALSE</value>
							</parameter>
							<parameter>
								<parameterid>debugshow</parameterid>
								<name>Show Stats</name>
								<value>FALSE</value>
							</parameter>
						</effect>
					</filter>
					<filter>
						<enabled>TRUE</enabled>
						<start>-1</start>
						<end>-1</end>
						<effect>
							<name>RGB Balance</name>
							<effectid>RGB Balance</effectid>
							<effectcategory>Color Correction</effectcategory>
							<effecttype>filter</effecttype>
							<mediatype>video</mediatype>
							<parameter>
								<parameterid>label1</parameterid>
								<name>Reds</name>
								<value/>
							</parameter>
							<parameter>
								<parameterid>rhighlights</parameterid>
								<name>Highlights</name>
								<valuemin>64</valuemin>
								<valuemax>509</valuemax>
								<value>255</value>
							</parameter>
							<parameter>
								<parameterid>rgamma</parameterid>
								<name>Midtones</name>
								<valuemin>0</valuemin>
								<valuemax>200</valuemax>
								<value>100</value>
							</parameter>
							<parameter>
								<parameterid>rblacklevel</parameterid>
								<name>Blacks</name>
								<valuemin>-196</valuemin>
								<valuemax>254</valuemax>
								<value>0</value>
							</parameter>
							<parameter>
								<parameterid>label2</parameterid>
								<name>Greens</name>
								<value/>
							</parameter>
							<parameter>
								<parameterid>ghighlights</parameterid>
								<name>Highlights</name>
								<valuemin>64</valuemin>
								<valuemax>509</valuemax>
								<value>255</value>
							</parameter>
							<parameter>
								<parameterid>ggamma</parameterid>
								<name>Midtones</name>
								<valuemin>0</valuemin>
								<valuemax>200</valuemax>
								<value>100</value>
							</parameter>
							<parameter>
								<parameterid>gblacklevel</parameterid>
								<name>Blacks</name>
								<valuemin>-196</valuemin>
								<valuemax>254</valuemax>
								<value>0</value>
							</parameter>
							<parameter>
								<parameterid>label3</parameterid>
								<name>Blues</name>
								<value/>
							</parameter>
							<parameter>
								<parameterid>bhighlights</parameterid>
								<name>Highlights</name>
								<valuemin>64</valuemin>
								<valuemax>509</valuemax>
								<value>313</value>
							</parameter>
							<parameter>
								<parameterid>bgamma</parameterid>
								<name>Midtones</name>
								<valuemin>0</valuemin>
								<valuemax>200</valuemax>
								<value>100</value>
							</parameter>
							<parameter>
								<parameterid>bblacklevel</parameterid>
								<name>Blacks</name>
								<valuemin>-196</valuemin>
								<valuemax>254</valuemax>
								<value>0</value>
							</parameter>
						</effect>
					</filter>
					<filter>
						<effect>
							<name>Basic Motion</name>
							<effectid>basic</effectid>
							<effectcategory>motion</effectcategory>
							<effecttype>motion</effecttype>
							<mediatype>video</mediatype>
							<parameter>
								<parameterid>center</parameterid>
								<name>Center</name>
								<value>
									<horiz>0</horiz>
									<vert>0.00555556</vert>
								</value>
							</parameter>
						</effect>
					</filter>
					<sourcetrack>
						<mediatype>video</mediatype>
					</sourcetrack>
					<link>
						<linkclipref>MVI_7681 </linkclipref>
						<mediatype>video</mediatype>
						<trackindex>1</trackindex>
						<clipindex>5</clipindex>
					</link>
					<link>
						<linkclipref>MVI_7681 3</linkclipref>
						<mediatype>audio</mediatype>
						<trackindex>1</trackindex>
						<clipindex>5</clipindex>
						<groupindex>1</groupindex>
					</link>
					<link>
						<linkclipref>MVI_7681 4</linkclipref>
						<mediatype>audio</mediatype>
						<trackindex>2</trackindex>
						<clipindex>5</clipindex>
						<groupindex>1</groupindex>
					</link>
					<fielddominance>none</fielddominance>
					<itemhistory>
						<uuid>7FD576F1-C9FE-4CBC-8916-09E8044D9569</uuid>
						<uuid>F61034EA-E194-410D-B472-B5EB22B5AC24</uuid>
					</itemhistory>
				</clipitem>
				<clipitem id="MVI_7681 5">
					<name>MVI_7681</name>
					<duration>15985</duration>
					<rate>
						<ntsc>TRUE</ntsc>
						<timebase>24</timebase>
					</rate>
					<in>9699</in>
					<out>12761</out>
					<start>22651</start>
					<end>25713</end>
					<pixelaspectratio>Square</pixelaspectratio>
					<enabled>TRUE</enabled>
					<anamorphic>FALSE</anamorphic>
					<alphatype>none</alphatype>
					<masterclipid>MVI_7681 1</masterclipid>
					<logginginfo>
						<scene/>
						<shottake/>
						<lognote/>
						<good>FALSE</good>
					</logginginfo>
					<labels>
						<label2/>
					</labels>
					<comments>
						<mastercomment1/>
						<mastercomment2/>
						<mastercomment3/>
						<mastercomment4/>
					</comments>
					<file id="MVI_7681 2"/>
					<marker>
						<name>Inexactitude,</name>
						<comment>physicality,&#13;realworld,&#13;uncertainty</comment>
						<color>
							<alpha>0</alpha>
							<red>255</red>
							<green>0</green>
							<blue>0</blue>
						</color>
						<in>533</in>
						<out>1054</out>
					</marker>
					<marker>
						<name>Digital meets analog</name>
						<comment>digital meets physical,&#13;uncertainty,&#13;physicality,&#13;"real world",&#13;</comment>
						<color>
							<alpha>0</alpha>
							<red>255</red>
							<green>0</green>
							<blue>0</blue>
						</color>
						<in>597</in>
						<out>908</out>
					</marker>
					<marker>
						<name>People</name>
						<comment>people,&#13;social dynamics,&#13;business,&#13;organizations,&#13;career changes,</comment>
						<color>
							<alpha>0</alpha>
							<red>255</red>
							<green>0</green>
							<blue>0</blue>
						</color>
						<in>907</in>
						<out>1526</out>
					</marker>
					<marker>
						<name>simplicity and complexity</name>
						<comment>simplicity,&#13;complexity,&#13;balance,</comment>
						<color>
							<alpha>0</alpha>
							<red>255</red>
							<green>0</green>
							<blue>0</blue>
						</color>
						<in>4751</in>
						<out>5323</out>
					</marker>
					<marker>
						<name>How do computers help us to visualize information?</name>
						<comment>technological progress,&#13;efficiency,&#13;time saving devices,&#13;processing power,&#13;rendering,&#13;visualization,&#13;&#13;</comment>
						<color>
							<alpha>0</alpha>
							<red>255</red>
							<green>0</green>
							<blue>0</blue>
						</color>
						<in>5829</in>
						<out>6128</out>
					</marker>
					<marker>
						<name>Ten thousand chinese villagers</name>
						<comment>man versus machine,&#13;complexity,&#13;processing power&#13;</comment>
						<color>
							<alpha>0</alpha>
							<red>255</red>
							<green>0</green>
							<blue>0</blue>
						</color>
						<in>6226</in>
						<out>-1</out>
					</marker>
					<marker>
						<name>Marker 6</name>
						<comment/>
						<color>
							<alpha>0</alpha>
							<red>255</red>
							<green>0</green>
							<blue>0</blue>
						</color>
						<in>6229</in>
						<out>7246</out>
					</marker>
					<marker>
						<name>people are best communicators</name>
						<comment>How does information visualziation help communicate complexity?&#13;information visualization,&#13;information,&#13;simplicity,&#13;clarity,&#13;data viz,&#13;communication,&#13;people,&#13;</comment>
						<color>
							<alpha>0</alpha>
							<red>255</red>
							<green>0</green>
							<blue>0</blue>
						</color>
						<in>7277</in>
						<out>7954</out>
					</marker>
					<marker>
						<name>Kill the master</name>
						<comment>education,&#13;fate,</comment>
						<color>
							<alpha>0</alpha>
							<red>255</red>
							<green>0</green>
							<blue>0</blue>
						</color>
						<in>8954</in>
						<out>9532</out>
					</marker>
					<marker>
						<name>last trick</name>
						<comment>experimentation&#13;mind and hand&#13;intuition,&#13;heuristics,&#13;art and experience,&#13;drawing,&#13;touch,</comment>
						<color>
							<alpha>0</alpha>
							<red>255</red>
							<green>0</green>
							<blue>0</blue>
						</color>
						<in>9705</in>
						<out>10934</out>
					</marker>
					<marker>
						<name>self expression</name>
						<comment>self expression,&#13;expression,&#13;process,&#13;mind and hand,&#13;physicality,&#13;creative exploration,</comment>
						<color>
							<alpha>0</alpha>
							<red>255</red>
							<green>0</green>
							<blue>0</blue>
						</color>
						<in>11444</in>
						<out>11848</out>
					</marker>
					<marker>
						<name>lost interest in interactivity</name>
						<comment>interactivity,&#13;noninteractivity,&#13;design,&#13;image,&#13;post-digital&#13;</comment>
						<color>
							<alpha>0</alpha>
							<red>255</red>
							<green>0</green>
							<blue>0</blue>
						</color>
						<in>12150</in>
						<out>12763</out>
					</marker>
					<marker>
						<name>Marker 19</name>
						<comment/>
						<color>
							<alpha>0</alpha>
							<red>255</red>
							<green>0</green>
							<blue>0</blue>
						</color>
						<in>13818</in>
						<out>-1</out>
					</marker>
					<marker>
						<name>Marker 15</name>
						<comment/>
						<color>
							<alpha>0</alpha>
							<red>255</red>
							<green>0</green>
							<blue>0</blue>
						</color>
						<in>13819</in>
						<out>-1</out>
					</marker>
					<marker>
						<name>Isn't it supposed to be new?</name>
						<comment>Newness,&#13;old media,&#13;new media,&#13;originality,&#13;limits of the computer,&#13;beautiful exhuberance, &#13;beauty,&#13;visual culture,&#13;</comment>
						<color>
							<alpha>0</alpha>
							<red>255</red>
							<green>0</green>
							<blue>0</blue>
						</color>
						<in>15171</in>
						<out>15895</out>
					</marker>
					<filter>
						<enabled>TRUE</enabled>
						<start>-1</start>
						<end>-1</end>
						<effect>
							<name>Color Corrector</name>
							<effectid>Color Corrector</effectid>
							<effectcategory>Color Correction</effectcategory>
							<effecttype>filter</effecttype>
							<mediatype>video</mediatype>
							<parameter>
								<parameterid>dispmode</parameterid>
								<name>Display Mode</name>
								<valuemin>1</valuemin>
								<valuemax>3</valuemax>
								<valuelist>
									<valueentry>
										<name>Final</name>
										<value>1</value>
									</valueentry>
									<valueentry>
										<name>Matte</name>
										<value>2</value>
									</valueentry>
									<valueentry>
										<name>Source</name>
										<value>3</value>
									</valueentry>
								</valuelist>
								<value>1</value>
							</parameter>
							<parameter>
								<parameterid>label1</parameterid>
								<name>Level Controls</name>
								<value/>
							</parameter>
							<parameter>
								<parameterid>highlights</parameterid>
								<name>Highlights</name>
								<valuemin>64</valuemin>
								<valuemax>509</valuemax>
								<value>268</value>
							</parameter>
							<parameter>
								<parameterid>mids</parameterid>
								<name>Mids</name>
								<valuemin>0</valuemin>
								<valuemax>200</valuemax>
								<value>104</value>
							</parameter>
							<parameter>
								<parameterid>blacklevel</parameterid>
								<name>Blacks</name>
								<valuemin>-196</valuemin>
								<valuemax>254</valuemax>
								<value>11</value>
							</parameter>
							<parameter>
								<parameterid>label2</parameterid>
								<name>Color Balance</name>
								<value/>
							</parameter>
							<parameter>
								<parameterid>hue</parameterid>
								<name>Angle</name>
								<valuemin>-180</valuemin>
								<valuemax>180</valuemax>
								<value>-33</value>
							</parameter>
							<parameter>
								<parameterid>mag</parameterid>
								<name>Magnitude</name>
								<valuemin>0</valuemin>
								<valuemax>200</valuemax>
								<value>0</value>
							</parameter>
							<parameter>
								<parameterid>label4</parameterid>
								<name>Color Controls</name>
								<value/>
							</parameter>
							<parameter>
								<parameterid>chroma</parameterid>
								<name>Saturation</name>
								<valuemin>0</valuemin>
								<valuemax>200</valuemax>
								<value>100</value>
							</parameter>
							<parameter>
								<parameterid>phase</parameterid>
								<name>Phase shift</name>
								<valuemin>-180</valuemin>
								<valuemax>180</valuemax>
								<value>0</value>
							</parameter>
							<parameter>
								<parameterid>label5</parameterid>
								<name>Limit Effect Controls</name>
								<value/>
							</parameter>
							<parameter>
								<parameterid>dochroma</parameterid>
								<name>Limit on Chroma</name>
								<value>FALSE</value>
							</parameter>
							<parameter>
								<parameterid>centerang</parameterid>
								<name>Chroma Center</name>
								<valuemin>-760</valuemin>
								<valuemax>760</valuemax>
								<value>-110</value>
							</parameter>
							<parameter>
								<parameterid>chromawidth</parameterid>
								<name>Chroma Width</name>
								<valuemin>0</valuemin>
								<valuemax>360</valuemax>
								<value>15</value>
							</parameter>
							<parameter>
								<parameterid>chromasoft</parameterid>
								<name>Chroma Softness</name>
								<valuemin>0</valuemin>
								<valuemax>180</valuemax>
								<value>10</value>
							</parameter>
							<parameter>
								<parameterid>dosat</parameterid>
								<name>Limit on Saturation</name>
								<value>FALSE</value>
							</parameter>
							<parameter>
								<parameterid>satmin</parameterid>
								<name>Sat. Minimum</name>
								<valuemin>0</valuemin>
								<valuemax>125</valuemax>
								<value>35</value>
							</parameter>
							<parameter>
								<parameterid>satwidth</parameterid>
								<name>Sat. Width</name>
								<valuemin>0</valuemin>
								<valuemax>125</valuemax>
								<value>40</value>
							</parameter>
							<parameter>
								<parameterid>satsoft</parameterid>
								<name>Sat. Softness</name>
								<valuemin>0</valuemin>
								<valuemax>125</valuemax>
								<value>20</value>
							</parameter>
							<parameter>
								<parameterid>doluma</parameterid>
								<name>Limit on Luma</name>
								<value>FALSE</value>
							</parameter>
							<parameter>
								<parameterid>lumamin</parameterid>
								<name>Luma Minimum</name>
								<valuemin>0</valuemin>
								<valuemax>120</valuemax>
								<value>0</value>
							</parameter>
							<parameter>
								<parameterid>lumawidth</parameterid>
								<name>Luma Width</name>
								<valuemin>0</valuemin>
								<valuemax>120</valuemax>
								<value>40</value>
							</parameter>
							<parameter>
								<parameterid>lumasoft</parameterid>
								<name>Luma Softness</name>
								<valuemin>0</valuemin>
								<valuemax>120</valuemax>
								<value>20</value>
							</parameter>
							<parameter>
								<parameterid>label6</parameterid>
								<name>Edge Control</name>
								<value/>
							</parameter>
							<parameter>
								<parameterid>edgethin</parameterid>
								<name>Thin/Spread</name>
								<valuemin>-100</valuemin>
								<valuemax>100</valuemax>
								<value>0</value>
							</parameter>
							<parameter>
								<parameterid>edgefeather</parameterid>
								<name>Softening</name>
								<valuemin>0</valuemin>
								<valuemax>100</valuemax>
								<value>0</value>
							</parameter>
							<parameter>
								<parameterid>label7</parameterid>
								<name>Mask Control</name>
								<value/>
							</parameter>
							<parameter>
								<parameterid>invertsel</parameterid>
								<name>Invert</name>
								<value>FALSE</value>
							</parameter>
							<parameter>
								<parameterid>debugshow</parameterid>
								<name>Show Stats</name>
								<value>FALSE</value>
							</parameter>
						</effect>
					</filter>
					<filter>
						<enabled>TRUE</enabled>
						<start>-1</start>
						<end>-1</end>
						<effect>
							<name>RGB Balance</name>
							<effectid>RGB Balance</effectid>
							<effectcategory>Color Correction</effectcategory>
							<effecttype>filter</effecttype>
							<mediatype>video</mediatype>
							<parameter>
								<parameterid>label1</parameterid>
								<name>Reds</name>
								<value/>
							</parameter>
							<parameter>
								<parameterid>rhighlights</parameterid>
								<name>Highlights</name>
								<valuemin>64</valuemin>
								<valuemax>509</valuemax>
								<value>255</value>
							</parameter>
							<parameter>
								<parameterid>rgamma</parameterid>
								<name>Midtones</name>
								<valuemin>0</valuemin>
								<valuemax>200</valuemax>
								<value>100</value>
							</parameter>
							<parameter>
								<parameterid>rblacklevel</parameterid>
								<name>Blacks</name>
								<valuemin>-196</valuemin>
								<valuemax>254</valuemax>
								<value>0</value>
							</parameter>
							<parameter>
								<parameterid>label2</parameterid>
								<name>Greens</name>
								<value/>
							</parameter>
							<parameter>
								<parameterid>ghighlights</parameterid>
								<name>Highlights</name>
								<valuemin>64</valuemin>
								<valuemax>509</valuemax>
								<value>255</value>
							</parameter>
							<parameter>
								<parameterid>ggamma</parameterid>
								<name>Midtones</name>
								<valuemin>0</valuemin>
								<valuemax>200</valuemax>
								<value>100</value>
							</parameter>
							<parameter>
								<parameterid>gblacklevel</parameterid>
								<name>Blacks</name>
								<valuemin>-196</valuemin>
								<valuemax>254</valuemax>
								<value>0</value>
							</parameter>
							<parameter>
								<parameterid>label3</parameterid>
								<name>Blues</name>
								<value/>
							</parameter>
							<parameter>
								<parameterid>bhighlights</parameterid>
								<name>Highlights</name>
								<valuemin>64</valuemin>
								<valuemax>509</valuemax>
								<value>313</value>
							</parameter>
							<parameter>
								<parameterid>bgamma</parameterid>
								<name>Midtones</name>
								<valuemin>0</valuemin>
								<valuemax>200</valuemax>
								<value>100</value>
							</parameter>
							<parameter>
								<parameterid>bblacklevel</parameterid>
								<name>Blacks</name>
								<valuemin>-196</valuemin>
								<valuemax>254</valuemax>
								<value>0</value>
							</parameter>
						</effect>
					</filter>
					<filter>
						<effect>
							<name>Basic Motion</name>
							<effectid>basic</effectid>
							<effectcategory>motion</effectcategory>
							<effecttype>motion</effecttype>
							<mediatype>video</mediatype>
							<parameter>
								<parameterid>center</parameterid>
								<name>Center</name>
								<value>
									<horiz>0</horiz>
									<vert>0.00555556</vert>
								</value>
							</parameter>
						</effect>
					</filter>
					<sourcetrack>
						<mediatype>video</mediatype>
					</sourcetrack>
					<link>
						<linkclipref>MVI_7681 5</linkclipref>
						<mediatype>video</mediatype>
						<trackindex>1</trackindex>
						<clipindex>6</clipindex>
					</link>
					<link>
						<linkclipref>MVI_7681 6</linkclipref>
						<mediatype>audio</mediatype>
						<trackindex>1</trackindex>
						<clipindex>6</clipindex>
						<groupindex>1</groupindex>
					</link>
					<link>
						<linkclipref>MVI_7681 7</linkclipref>
						<mediatype>audio</mediatype>
						<trackindex>2</trackindex>
						<clipindex>6</clipindex>
						<groupindex>1</groupindex>
					</link>
					<fielddominance>none</fielddominance>
					<itemhistory>
						<uuid>7FAF2D53-CC02-45BD-AC91-7D30EE3472AF</uuid>
						<uuid>F61034EA-E194-410D-B472-B5EB22B5AC24</uuid>
					</itemhistory>
				</clipitem>
				<clipitem id="MVI_7681 8">
					<name>MVI_7681</name>
					<duration>15985</duration>
					<rate>
						<ntsc>TRUE</ntsc>
						<timebase>24</timebase>
					</rate>
					<in>12761</in>
					<out>15985</out>
					<start>25713</start>
					<end>28937</end>
					<pixelaspectratio>Square</pixelaspectratio>
					<enabled>TRUE</enabled>
					<anamorphic>FALSE</anamorphic>
					<alphatype>none</alphatype>
					<masterclipid>MVI_7681 1</masterclipid>
					<logginginfo>
						<scene/>
						<shottake/>
						<lognote/>
						<good>FALSE</good>
					</logginginfo>
					<labels>
						<label2/>
					</labels>
					<comments>
						<mastercomment1/>
						<mastercomment2/>
						<mastercomment3/>
						<mastercomment4/>
					</comments>
					<file id="MVI_7681 2"/>
					<marker>
						<name>Inexactitude,</name>
						<comment>physicality,&#13;realworld,&#13;uncertainty</comment>
						<color>
							<alpha>0</alpha>
							<red>255</red>
							<green>0</green>
							<blue>0</blue>
						</color>
						<in>533</in>
						<out>1054</out>
					</marker>
					<marker>
						<name>Digital meets analog</name>
						<comment>digital meets physical,&#13;uncertainty,&#13;physicality,&#13;"real world",&#13;</comment>
						<color>
							<alpha>0</alpha>
							<red>255</red>
							<green>0</green>
							<blue>0</blue>
						</color>
						<in>597</in>
						<out>908</out>
					</marker>
					<marker>
						<name>People</name>
						<comment>people,&#13;social dynamics,&#13;business,&#13;organizations,&#13;career changes,</comment>
						<color>
							<alpha>0</alpha>
							<red>255</red>
							<green>0</green>
							<blue>0</blue>
						</color>
						<in>907</in>
						<out>1526</out>
					</marker>
					<marker>
						<name>simplicity and complexity</name>
						<comment>simplicity,&#13;complexity,&#13;balance,</comment>
						<color>
							<alpha>0</alpha>
							<red>255</red>
							<green>0</green>
							<blue>0</blue>
						</color>
						<in>4751</in>
						<out>5323</out>
					</marker>
					<marker>
						<name>How do computers help us to visualize information?</name>
						<comment>technological progress,&#13;efficiency,&#13;time saving devices,&#13;processing power,&#13;rendering,&#13;visualization,&#13;&#13;</comment>
						<color>
							<alpha>0</alpha>
							<red>255</red>
							<green>0</green>
							<blue>0</blue>
						</color>
						<in>5829</in>
						<out>6128</out>
					</marker>
					<marker>
						<name>Ten thousand chinese villagers</name>
						<comment>man versus machine,&#13;complexity,&#13;processing power&#13;</comment>
						<color>
							<alpha>0</alpha>
							<red>255</red>
							<green>0</green>
							<blue>0</blue>
						</color>
						<in>6226</in>
						<out>-1</out>
					</marker>
					<marker>
						<name>Marker 6</name>
						<comment/>
						<color>
							<alpha>0</alpha>
							<red>255</red>
							<green>0</green>
							<blue>0</blue>
						</color>
						<in>6229</in>
						<out>7246</out>
					</marker>
					<marker>
						<name>people are best communicators</name>
						<comment>How does information visualziation help communicate complexity?&#13;information visualization,&#13;information,&#13;simplicity,&#13;clarity,&#13;data viz,&#13;communication,&#13;people,&#13;</comment>
						<color>
							<alpha>0</alpha>
							<red>255</red>
							<green>0</green>
							<blue>0</blue>
						</color>
						<in>7277</in>
						<out>7954</out>
					</marker>
					<marker>
						<name>Kill the master</name>
						<comment>education,&#13;fate,</comment>
						<color>
							<alpha>0</alpha>
							<red>255</red>
							<green>0</green>
							<blue>0</blue>
						</color>
						<in>8954</in>
						<out>9532</out>
					</marker>
					<marker>
						<name>last trick</name>
						<comment>experimentation&#13;mind and hand&#13;intuition,&#13;heuristics,&#13;art and experience,&#13;drawing,&#13;touch,</comment>
						<color>
							<alpha>0</alpha>
							<red>255</red>
							<green>0</green>
							<blue>0</blue>
						</color>
						<in>9705</in>
						<out>10934</out>
					</marker>
					<marker>
						<name>self expression</name>
						<comment>self expression,&#13;expression,&#13;process,&#13;mind and hand,&#13;physicality,&#13;creative exploration,</comment>
						<color>
							<alpha>0</alpha>
							<red>255</red>
							<green>0</green>
							<blue>0</blue>
						</color>
						<in>11444</in>
						<out>11848</out>
					</marker>
					<marker>
						<name>lost interest in interactivity</name>
						<comment>interactivity,&#13;noninteractivity,&#13;design,&#13;image,&#13;post-digital&#13;</comment>
						<color>
							<alpha>0</alpha>
							<red>255</red>
							<green>0</green>
							<blue>0</blue>
						</color>
						<in>12150</in>
						<out>12763</out>
					</marker>
					<marker>
						<name>Marker 19</name>
						<comment/>
						<color>
							<alpha>0</alpha>
							<red>255</red>
							<green>0</green>
							<blue>0</blue>
						</color>
						<in>13818</in>
						<out>-1</out>
					</marker>
					<marker>
						<name>Marker 15</name>
						<comment/>
						<color>
							<alpha>0</alpha>
							<red>255</red>
							<green>0</green>
							<blue>0</blue>
						</color>
						<in>13819</in>
						<out>-1</out>
					</marker>
					<marker>
						<name>Isn't it supposed to be new?</name>
						<comment>Newness,&#13;old media,&#13;new media,&#13;originality,&#13;limits of the computer,&#13;beautiful exhuberance, &#13;beauty,&#13;visual culture,&#13;</comment>
						<color>
							<alpha>0</alpha>
							<red>255</red>
							<green>0</green>
							<blue>0</blue>
						</color>
						<in>15171</in>
						<out>15895</out>
					</marker>
					<filter>
						<enabled>TRUE</enabled>
						<start>-1</start>
						<end>-1</end>
						<effect>
							<name>Color Corrector</name>
							<effectid>Color Corrector</effectid>
							<effectcategory>Color Correction</effectcategory>
							<effecttype>filter</effecttype>
							<mediatype>video</mediatype>
							<parameter>
								<parameterid>dispmode</parameterid>
								<name>Display Mode</name>
								<valuemin>1</valuemin>
								<valuemax>3</valuemax>
								<valuelist>
									<valueentry>
										<name>Final</name>
										<value>1</value>
									</valueentry>
									<valueentry>
										<name>Matte</name>
										<value>2</value>
									</valueentry>
									<valueentry>
										<name>Source</name>
										<value>3</value>
									</valueentry>
								</valuelist>
								<value>1</value>
							</parameter>
							<parameter>
								<parameterid>label1</parameterid>
								<name>Level Controls</name>
								<value/>
							</parameter>
							<parameter>
								<parameterid>highlights</parameterid>
								<name>Highlights</name>
								<valuemin>64</valuemin>
								<valuemax>509</valuemax>
								<value>268</value>
							</parameter>
							<parameter>
								<parameterid>mids</parameterid>
								<name>Mids</name>
								<valuemin>0</valuemin>
								<valuemax>200</valuemax>
								<value>104</value>
							</parameter>
							<parameter>
								<parameterid>blacklevel</parameterid>
								<name>Blacks</name>
								<valuemin>-196</valuemin>
								<valuemax>254</valuemax>
								<value>11</value>
							</parameter>
							<parameter>
								<parameterid>label2</parameterid>
								<name>Color Balance</name>
								<value/>
							</parameter>
							<parameter>
								<parameterid>hue</parameterid>
								<name>Angle</name>
								<valuemin>-180</valuemin>
								<valuemax>180</valuemax>
								<value>-33</value>
							</parameter>
							<parameter>
								<parameterid>mag</parameterid>
								<name>Magnitude</name>
								<valuemin>0</valuemin>
								<valuemax>200</valuemax>
								<value>0</value>
							</parameter>
							<parameter>
								<parameterid>label4</parameterid>
								<name>Color Controls</name>
								<value/>
							</parameter>
							<parameter>
								<parameterid>chroma</parameterid>
								<name>Saturation</name>
								<valuemin>0</valuemin>
								<valuemax>200</valuemax>
								<value>100</value>
							</parameter>
							<parameter>
								<parameterid>phase</parameterid>
								<name>Phase shift</name>
								<valuemin>-180</valuemin>
								<valuemax>180</valuemax>
								<value>0</value>
							</parameter>
							<parameter>
								<parameterid>label5</parameterid>
								<name>Limit Effect Controls</name>
								<value/>
							</parameter>
							<parameter>
								<parameterid>dochroma</parameterid>
								<name>Limit on Chroma</name>
								<value>FALSE</value>
							</parameter>
							<parameter>
								<parameterid>centerang</parameterid>
								<name>Chroma Center</name>
								<valuemin>-760</valuemin>
								<valuemax>760</valuemax>
								<value>-110</value>
							</parameter>
							<parameter>
								<parameterid>chromawidth</parameterid>
								<name>Chroma Width</name>
								<valuemin>0</valuemin>
								<valuemax>360</valuemax>
								<value>15</value>
							</parameter>
							<parameter>
								<parameterid>chromasoft</parameterid>
								<name>Chroma Softness</name>
								<valuemin>0</valuemin>
								<valuemax>180</valuemax>
								<value>10</value>
							</parameter>
							<parameter>
								<parameterid>dosat</parameterid>
								<name>Limit on Saturation</name>
								<value>FALSE</value>
							</parameter>
							<parameter>
								<parameterid>satmin</parameterid>
								<name>Sat. Minimum</name>
								<valuemin>0</valuemin>
								<valuemax>125</valuemax>
								<value>35</value>
							</parameter>
							<parameter>
								<parameterid>satwidth</parameterid>
								<name>Sat. Width</name>
								<valuemin>0</valuemin>
								<valuemax>125</valuemax>
								<value>40</value>
							</parameter>
							<parameter>
								<parameterid>satsoft</parameterid>
								<name>Sat. Softness</name>
								<valuemin>0</valuemin>
								<valuemax>125</valuemax>
								<value>20</value>
							</parameter>
							<parameter>
								<parameterid>doluma</parameterid>
								<name>Limit on Luma</name>
								<value>FALSE</value>
							</parameter>
							<parameter>
								<parameterid>lumamin</parameterid>
								<name>Luma Minimum</name>
								<valuemin>0</valuemin>
								<valuemax>120</valuemax>
								<value>0</value>
							</parameter>
							<parameter>
								<parameterid>lumawidth</parameterid>
								<name>Luma Width</name>
								<valuemin>0</valuemin>
								<valuemax>120</valuemax>
								<value>40</value>
							</parameter>
							<parameter>
								<parameterid>lumasoft</parameterid>
								<name>Luma Softness</name>
								<valuemin>0</valuemin>
								<valuemax>120</valuemax>
								<value>20</value>
							</parameter>
							<parameter>
								<parameterid>label6</parameterid>
								<name>Edge Control</name>
								<value/>
							</parameter>
							<parameter>
								<parameterid>edgethin</parameterid>
								<name>Thin/Spread</name>
								<valuemin>-100</valuemin>
								<valuemax>100</valuemax>
								<value>0</value>
							</parameter>
							<parameter>
								<parameterid>edgefeather</parameterid>
								<name>Softening</name>
								<valuemin>0</valuemin>
								<valuemax>100</valuemax>
								<value>0</value>
							</parameter>
							<parameter>
								<parameterid>label7</parameterid>
								<name>Mask Control</name>
								<value/>
							</parameter>
							<parameter>
								<parameterid>invertsel</parameterid>
								<name>Invert</name>
								<value>FALSE</value>
							</parameter>
							<parameter>
								<parameterid>debugshow</parameterid>
								<name>Show Stats</name>
								<value>FALSE</value>
							</parameter>
						</effect>
					</filter>
					<filter>
						<enabled>TRUE</enabled>
						<start>-1</start>
						<end>-1</end>
						<effect>
							<name>RGB Balance</name>
							<effectid>RGB Balance</effectid>
							<effectcategory>Color Correction</effectcategory>
							<effecttype>filter</effecttype>
							<mediatype>video</mediatype>
							<parameter>
								<parameterid>label1</parameterid>
								<name>Reds</name>
								<value/>
							</parameter>
							<parameter>
								<parameterid>rhighlights</parameterid>
								<name>Highlights</name>
								<valuemin>64</valuemin>
								<valuemax>509</valuemax>
								<value>255</value>
							</parameter>
							<parameter>
								<parameterid>rgamma</parameterid>
								<name>Midtones</name>
								<valuemin>0</valuemin>
								<valuemax>200</valuemax>
								<value>100</value>
							</parameter>
							<parameter>
								<parameterid>rblacklevel</parameterid>
								<name>Blacks</name>
								<valuemin>-196</valuemin>
								<valuemax>254</valuemax>
								<value>0</value>
							</parameter>
							<parameter>
								<parameterid>label2</parameterid>
								<name>Greens</name>
								<value/>
							</parameter>
							<parameter>
								<parameterid>ghighlights</parameterid>
								<name>Highlights</name>
								<valuemin>64</valuemin>
								<valuemax>509</valuemax>
								<value>255</value>
							</parameter>
							<parameter>
								<parameterid>ggamma</parameterid>
								<name>Midtones</name>
								<valuemin>0</valuemin>
								<valuemax>200</valuemax>
								<value>100</value>
							</parameter>
							<parameter>
								<parameterid>gblacklevel</parameterid>
								<name>Blacks</name>
								<valuemin>-196</valuemin>
								<valuemax>254</valuemax>
								<value>0</value>
							</parameter>
							<parameter>
								<parameterid>label3</parameterid>
								<name>Blues</name>
								<value/>
							</parameter>
							<parameter>
								<parameterid>bhighlights</parameterid>
								<name>Highlights</name>
								<valuemin>64</valuemin>
								<valuemax>509</valuemax>
								<value>313</value>
							</parameter>
							<parameter>
								<parameterid>bgamma</parameterid>
								<name>Midtones</name>
								<valuemin>0</valuemin>
								<valuemax>200</valuemax>
								<value>100</value>
							</parameter>
							<parameter>
								<parameterid>bblacklevel</parameterid>
								<name>Blacks</name>
								<valuemin>-196</valuemin>
								<valuemax>254</valuemax>
								<value>0</value>
							</parameter>
						</effect>
					</filter>
					<filter>
						<effect>
							<name>Basic Motion</name>
							<effectid>basic</effectid>
							<effectcategory>motion</effectcategory>
							<effecttype>motion</effecttype>
							<mediatype>video</mediatype>
							<parameter>
								<parameterid>center</parameterid>
								<name>Center</name>
								<value>
									<horiz>0</horiz>
									<vert>0.00555556</vert>
								</value>
							</parameter>
						</effect>
					</filter>
					<sourcetrack>
						<mediatype>video</mediatype>
					</sourcetrack>
					<link>
						<linkclipref>MVI_7681 8</linkclipref>
						<mediatype>video</mediatype>
						<trackindex>1</trackindex>
						<clipindex>7</clipindex>
					</link>
					<link>
						<linkclipref>MVI_7681 9</linkclipref>
						<mediatype>audio</mediatype>
						<trackindex>1</trackindex>
						<clipindex>7</clipindex>
						<groupindex>1</groupindex>
					</link>
					<link>
						<linkclipref>MVI_7681 10</linkclipref>
						<mediatype>audio</mediatype>
						<trackindex>2</trackindex>
						<clipindex>7</clipindex>
						<groupindex>1</groupindex>
					</link>
					<fielddominance>none</fielddominance>
					<itemhistory>
						<uuid>6DAC0676-A0EF-4FA4-B8A2-F7903C0FD438</uuid>
						<uuid>F61034EA-E194-410D-B472-B5EB22B5AC24</uuid>
					</itemhistory>
				</clipitem>
				<clipitem id="MVI_7682 ">
					<name>MVI_7682</name>
					<duration>8136</duration>
					<rate>
						<ntsc>TRUE</ntsc>
						<timebase>24</timebase>
					</rate>
					<in>0</in>
					<out>8136</out>
					<start>28937</start>
					<end>37073</end>
					<pixelaspectratio>Square</pixelaspectratio>
					<enabled>TRUE</enabled>
					<anamorphic>FALSE</anamorphic>
					<alphatype>none</alphatype>
					<masterclipid>MVI_7682 1</masterclipid>
					<logginginfo>
						<scene/>
						<shottake/>
						<lognote/>
						<good>FALSE</good>
					</logginginfo>
					<labels>
						<label2/>
					</labels>
					<comments>
						<mastercomment1/>
						<mastercomment2/>
						<mastercomment3/>
						<mastercomment4/>
					</comments>
					<file id="MVI_7682 2">
						<name>MVI_7682.mov</name>
						<pathurl>file://localhost/Volumes/Nebula/MediaPackages/JohnMaeda/depthframes/maeda05/MVI_7682.mov</pathurl>
						<rate>
							<timebase>24</timebase>
							<ntsc>TRUE</ntsc>
						</rate>
						<duration>8136</duration>
						<media>
							<video>
								<duration>8136</duration>
								<samplecharacteristics>
									<width>1920</width>
									<height>1080</height>
								</samplecharacteristics>
							</video>
							<audio>
								<samplecharacteristics>
									<samplerate>48000</samplerate>
									<depth>16</depth>
								</samplecharacteristics>
								<channelcount>2</channelcount>
							</audio>
						</media>
					</file>
					<marker>
						<name>Aesthetics and Computation group</name>
						<comment>newness,&#13;education,&#13;Media Lab,&#13;aesthetics and computation,&#13;discovery,&#13;beginning,&#13;</comment>
						<color>
							<alpha>0</alpha>
							<red>255</red>
							<green>0</green>
							<blue>0</blue>
						</color>
						<in>1227</in>
						<out>2082</out>
					</marker>
					<marker>
						<name>not a big deal</name>
						<comment>art and code,&#13;computational art,&#13;hybridity</comment>
						<color>
							<alpha>0</alpha>
							<red>255</red>
							<green>0</green>
							<blue>0</blue>
						</color>
						<in>2446</in>
						<out>2849</out>
					</marker>
					<marker>
						<name>Design by Numbers</name>
						<comment>education,&#13;teaching,&#13;IDE (integrated development environment),&#13;art and code,&#13;toolkit,</comment>
						<color>
							<alpha>0</alpha>
							<red>255</red>
							<green>0</green>
							<blue>0</blue>
						</color>
						<in>3322</in>
						<out>4242</out>
					</marker>
					<marker>
						<name>Processing</name>
						<comment>processing,&#13;Media lab,&#13;Link from Casey</comment>
						<color>
							<alpha>0</alpha>
							<red>255</red>
							<green>0</green>
							<blue>0</blue>
						</color>
						<in>4598</in>
						<out>5490</out>
					</marker>
					<marker>
						<name>Batman superman</name>
						<comment>processing,&#13;collaboration,&#13;teams,&#13;partnership,</comment>
						<color>
							<alpha>0</alpha>
							<red>255</red>
							<green>0</green>
							<blue>0</blue>
						</color>
						<in>6026</in>
						<out>6934</out>
					</marker>
					<marker>
						<name>Processing toolkit</name>
						<comment>toolkit,&#13;open source,&#13;educational technology,&#13;</comment>
						<color>
							<alpha>0</alpha>
							<red>255</red>
							<green>0</green>
							<blue>0</blue>
						</color>
						<in>7402</in>
						<out>8130</out>
					</marker>
					<filter>
						<enabled>TRUE</enabled>
						<start>-1</start>
						<end>-1</end>
						<effect>
							<name>Color Corrector</name>
							<effectid>Color Corrector</effectid>
							<effectcategory>Color Correction</effectcategory>
							<effecttype>filter</effecttype>
							<mediatype>video</mediatype>
							<parameter>
								<parameterid>dispmode</parameterid>
								<name>Display Mode</name>
								<valuemin>1</valuemin>
								<valuemax>3</valuemax>
								<valuelist>
									<valueentry>
										<name>Final</name>
										<value>1</value>
									</valueentry>
									<valueentry>
										<name>Matte</name>
										<value>2</value>
									</valueentry>
									<valueentry>
										<name>Source</name>
										<value>3</value>
									</valueentry>
								</valuelist>
								<value>1</value>
							</parameter>
							<parameter>
								<parameterid>label1</parameterid>
								<name>Level Controls</name>
								<value/>
							</parameter>
							<parameter>
								<parameterid>highlights</parameterid>
								<name>Highlights</name>
								<valuemin>64</valuemin>
								<valuemax>509</valuemax>
								<value>268</value>
							</parameter>
							<parameter>
								<parameterid>mids</parameterid>
								<name>Mids</name>
								<valuemin>0</valuemin>
								<valuemax>200</valuemax>
								<value>112</value>
							</parameter>
							<parameter>
								<parameterid>blacklevel</parameterid>
								<name>Blacks</name>
								<valuemin>-196</valuemin>
								<valuemax>254</valuemax>
								<value>15</value>
							</parameter>
							<parameter>
								<parameterid>label2</parameterid>
								<name>Color Balance</name>
								<value/>
							</parameter>
							<parameter>
								<parameterid>hue</parameterid>
								<name>Angle</name>
								<valuemin>-180</valuemin>
								<valuemax>180</valuemax>
								<value>-33</value>
							</parameter>
							<parameter>
								<parameterid>mag</parameterid>
								<name>Magnitude</name>
								<valuemin>0</valuemin>
								<valuemax>200</valuemax>
								<value>0</value>
							</parameter>
							<parameter>
								<parameterid>label4</parameterid>
								<name>Color Controls</name>
								<value/>
							</parameter>
							<parameter>
								<parameterid>chroma</parameterid>
								<name>Saturation</name>
								<valuemin>0</valuemin>
								<valuemax>200</valuemax>
								<value>100</value>
							</parameter>
							<parameter>
								<parameterid>phase</parameterid>
								<name>Phase shift</name>
								<valuemin>-180</valuemin>
								<valuemax>180</valuemax>
								<value>0</value>
							</parameter>
							<parameter>
								<parameterid>label5</parameterid>
								<name>Limit Effect Controls</name>
								<value/>
							</parameter>
							<parameter>
								<parameterid>dochroma</parameterid>
								<name>Limit on Chroma</name>
								<value>FALSE</value>
							</parameter>
							<parameter>
								<parameterid>centerang</parameterid>
								<name>Chroma Center</name>
								<valuemin>-760</valuemin>
								<valuemax>760</valuemax>
								<value>-110</value>
							</parameter>
							<parameter>
								<parameterid>chromawidth</parameterid>
								<name>Chroma Width</name>
								<valuemin>0</valuemin>
								<valuemax>360</valuemax>
								<value>15</value>
							</parameter>
							<parameter>
								<parameterid>chromasoft</parameterid>
								<name>Chroma Softness</name>
								<valuemin>0</valuemin>
								<valuemax>180</valuemax>
								<value>10</value>
							</parameter>
							<parameter>
								<parameterid>dosat</parameterid>
								<name>Limit on Saturation</name>
								<value>FALSE</value>
							</parameter>
							<parameter>
								<parameterid>satmin</parameterid>
								<name>Sat. Minimum</name>
								<valuemin>0</valuemin>
								<valuemax>125</valuemax>
								<value>35</value>
							</parameter>
							<parameter>
								<parameterid>satwidth</parameterid>
								<name>Sat. Width</name>
								<valuemin>0</valuemin>
								<valuemax>125</valuemax>
								<value>40</value>
							</parameter>
							<parameter>
								<parameterid>satsoft</parameterid>
								<name>Sat. Softness</name>
								<valuemin>0</valuemin>
								<valuemax>125</valuemax>
								<value>20</value>
							</parameter>
							<parameter>
								<parameterid>doluma</parameterid>
								<name>Limit on Luma</name>
								<value>FALSE</value>
							</parameter>
							<parameter>
								<parameterid>lumamin</parameterid>
								<name>Luma Minimum</name>
								<valuemin>0</valuemin>
								<valuemax>120</valuemax>
								<value>0</value>
							</parameter>
							<parameter>
								<parameterid>lumawidth</parameterid>
								<name>Luma Width</name>
								<valuemin>0</valuemin>
								<valuemax>120</valuemax>
								<value>40</value>
							</parameter>
							<parameter>
								<parameterid>lumasoft</parameterid>
								<name>Luma Softness</name>
								<valuemin>0</valuemin>
								<valuemax>120</valuemax>
								<value>20</value>
							</parameter>
							<parameter>
								<parameterid>label6</parameterid>
								<name>Edge Control</name>
								<value/>
							</parameter>
							<parameter>
								<parameterid>edgethin</parameterid>
								<name>Thin/Spread</name>
								<valuemin>-100</valuemin>
								<valuemax>100</valuemax>
								<value>0</value>
							</parameter>
							<parameter>
								<parameterid>edgefeather</parameterid>
								<name>Softening</name>
								<valuemin>0</valuemin>
								<valuemax>100</valuemax>
								<value>0</value>
							</parameter>
							<parameter>
								<parameterid>label7</parameterid>
								<name>Mask Control</name>
								<value/>
							</parameter>
							<parameter>
								<parameterid>invertsel</parameterid>
								<name>Invert</name>
								<value>FALSE</value>
							</parameter>
							<parameter>
								<parameterid>debugshow</parameterid>
								<name>Show Stats</name>
								<value>FALSE</value>
							</parameter>
						</effect>
					</filter>
					<filter>
						<enabled>TRUE</enabled>
						<start>-1</start>
						<end>-1</end>
						<effect>
							<name>RGB Balance</name>
							<effectid>RGB Balance</effectid>
							<effectcategory>Color Correction</effectcategory>
							<effecttype>filter</effecttype>
							<mediatype>video</mediatype>
							<parameter>
								<parameterid>label1</parameterid>
								<name>Reds</name>
								<value/>
							</parameter>
							<parameter>
								<parameterid>rhighlights</parameterid>
								<name>Highlights</name>
								<valuemin>64</valuemin>
								<valuemax>509</valuemax>
								<value>255</value>
							</parameter>
							<parameter>
								<parameterid>rgamma</parameterid>
								<name>Midtones</name>
								<valuemin>0</valuemin>
								<valuemax>200</valuemax>
								<value>100</value>
							</parameter>
							<parameter>
								<parameterid>rblacklevel</parameterid>
								<name>Blacks</name>
								<valuemin>-196</valuemin>
								<valuemax>254</valuemax>
								<value>0</value>
							</parameter>
							<parameter>
								<parameterid>label2</parameterid>
								<name>Greens</name>
								<value/>
							</parameter>
							<parameter>
								<parameterid>ghighlights</parameterid>
								<name>Highlights</name>
								<valuemin>64</valuemin>
								<valuemax>509</valuemax>
								<value>255</value>
							</parameter>
							<parameter>
								<parameterid>ggamma</parameterid>
								<name>Midtones</name>
								<valuemin>0</valuemin>
								<valuemax>200</valuemax>
								<value>100</value>
							</parameter>
							<parameter>
								<parameterid>gblacklevel</parameterid>
								<name>Blacks</name>
								<valuemin>-196</valuemin>
								<valuemax>254</valuemax>
								<value>0</value>
							</parameter>
							<parameter>
								<parameterid>label3</parameterid>
								<name>Blues</name>
								<value/>
							</parameter>
							<parameter>
								<parameterid>bhighlights</parameterid>
								<name>Highlights</name>
								<valuemin>64</valuemin>
								<valuemax>509</valuemax>
								<value>313</value>
							</parameter>
							<parameter>
								<parameterid>bgamma</parameterid>
								<name>Midtones</name>
								<valuemin>0</valuemin>
								<valuemax>200</valuemax>
								<value>100</value>
							</parameter>
							<parameter>
								<parameterid>bblacklevel</parameterid>
								<name>Blacks</name>
								<valuemin>-196</valuemin>
								<valuemax>254</valuemax>
								<value>0</value>
							</parameter>
						</effect>
					</filter>
					<filter>
						<effect>
							<name>Basic Motion</name>
							<effectid>basic</effectid>
							<effectcategory>motion</effectcategory>
							<effecttype>motion</effecttype>
							<mediatype>video</mediatype>
							<parameter>
								<parameterid>center</parameterid>
								<name>Center</name>
								<value>
									<horiz>0</horiz>
									<vert>0</vert>
								</value>
							</parameter>
						</effect>
					</filter>
					<sourcetrack>
						<mediatype>video</mediatype>
					</sourcetrack>
					<link>
						<linkclipref>MVI_7682 </linkclipref>
						<mediatype>video</mediatype>
						<trackindex>1</trackindex>
						<clipindex>8</clipindex>
					</link>
					<link>
						<linkclipref>MVI_7682 3</linkclipref>
						<mediatype>audio</mediatype>
						<trackindex>1</trackindex>
						<clipindex>8</clipindex>
						<groupindex>1</groupindex>
					</link>
					<link>
						<linkclipref>MVI_7682 4</linkclipref>
						<mediatype>audio</mediatype>
						<trackindex>2</trackindex>
						<clipindex>8</clipindex>
						<groupindex>1</groupindex>
					</link>
					<fielddominance>none</fielddominance>
					<itemhistory>
						<uuid>3802E176-C9AA-41CB-BE99-FE9EDCDDACB7</uuid>
					</itemhistory>
				</clipitem>
				<clipitem id="MVI_7683 ">
					<name>MVI_7683</name>
					<duration>15370</duration>
					<rate>
						<ntsc>TRUE</ntsc>
						<timebase>24</timebase>
					</rate>
					<in>0</in>
					<out>15370</out>
					<start>37073</start>
					<end>52443</end>
					<pixelaspectratio>Square</pixelaspectratio>
					<enabled>TRUE</enabled>
					<anamorphic>FALSE</anamorphic>
					<alphatype>none</alphatype>
					<masterclipid>MVI_7683 1</masterclipid>
					<logginginfo>
						<scene/>
						<shottake/>
						<lognote/>
						<good>FALSE</good>
					</logginginfo>
					<labels>
						<label2/>
					</labels>
					<comments>
						<mastercomment1/>
						<mastercomment2/>
						<mastercomment3/>
						<mastercomment4/>
					</comments>
					<file id="MVI_7683 2">
						<name>MVI_7683.mov</name>
						<pathurl>file://localhost/Volumes/Nebula/MediaPackages/JohnMaeda/depthframes/maeda06/MVI_7683.mov</pathurl>
						<rate>
							<timebase>24</timebase>
							<ntsc>TRUE</ntsc>
						</rate>
						<duration>15370</duration>
						<media>
							<video>
								<duration>15370</duration>
								<samplecharacteristics>
									<width>1920</width>
									<height>1080</height>
								</samplecharacteristics>
							</video>
							<audio>
								<samplecharacteristics>
									<samplerate>48000</samplerate>
									<depth>16</depth>
								</samplecharacteristics>
								<channelcount>2</channelcount>
							</audio>
						</media>
					</file>
					<marker>
						<name>ACU part 1</name>
						<comment>ACU,&#13;Open Frameworks,&#13;Open Source,&#13;Media lab,</comment>
						<color>
							<alpha>0</alpha>
							<red>255</red>
							<green>0</green>
							<blue>0</blue>
						</color>
						<in>705</in>
						<out>917</out>
					</marker>
					<marker>
						<name>ACU p 2</name>
						<comment>ACU,&#13;Open Frameworks,&#13;Open Source,&#13;Media lab,</comment>
						<color>
							<alpha>0</alpha>
							<red>255</red>
							<green>0</green>
							<blue>0</blue>
						</color>
						<in>1275</in>
						<out>2047</out>
					</marker>
					<marker>
						<name>sharing for collective advancement</name>
						<comment>How has sharing of code changed the nature of creativity?&#13;sharing,&#13;doing with others,&#13;learning&#13;</comment>
						<color>
							<alpha>0</alpha>
							<red>255</red>
							<green>0</green>
							<blue>0</blue>
						</color>
						<in>4845</in>
						<out>5413</out>
					</marker>
					<marker>
						<name>passing the baton</name>
						<comment>passing the baton,&#13;kill the master,&#13;education,&#13;artistic kinship,</comment>
						<color>
							<alpha>0</alpha>
							<red>255</red>
							<green>0</green>
							<blue>0</blue>
						</color>
						<in>5893</in>
						<out>6219</out>
					</marker>
					<marker>
						<name>mentors</name>
						<comment>who are your mentors?&#13;influences,&#13;mentorship,&#13;education,&#13;passing the baton,&#13;&#13;</comment>
						<color>
							<alpha>0</alpha>
							<red>255</red>
							<green>0</green>
							<blue>0</blue>
						</color>
						<in>6802</in>
						<out>7310</out>
					</marker>
					<marker>
						<name>Forever</name>
						<comment>Paul Rand,&#13;Design,&#13;Bravado,&#13;Teachers,&#13;Humor&#13;</comment>
						<color>
							<alpha>0</alpha>
							<red>255</red>
							<green>0</green>
							<blue>0</blue>
						</color>
						<in>7738</in>
						<out>9099</out>
					</marker>
					<marker>
						<name>Glad to be alive,</name>
						<comment>Do you try to make your work humorous?&#13;existential, &#13;gratitude, &#13;being,&#13;</comment>
						<color>
							<alpha>0</alpha>
							<red>255</red>
							<green>0</green>
							<blue>0</blue>
						</color>
						<in>11818</in>
						<out>12083</out>
					</marker>
					<marker>
						<name>Life in four quarters</name>
						<comment>How do you think about time? &#13;time,&#13;mortality,&#13;aspiration,&#13;work,&#13;accomplishment,&#13;life&#13;&#13;</comment>
						<color>
							<alpha>0</alpha>
							<red>255</red>
							<green>0</green>
							<blue>0</blue>
						</color>
						<in>12772</in>
						<out>13902</out>
					</marker>
					<marker>
						<name>I can still draw</name>
						<comment>Do you still have a daily practice of making art?&#13;post-digital,&#13;mind and hand,&#13;drawing,&#13;</comment>
						<color>
							<alpha>0</alpha>
							<red>255</red>
							<green>0</green>
							<blue>0</blue>
						</color>
						<in>14214</in>
						<out>14331</out>
					</marker>
					<marker>
						<name>How do I balance these personas?</name>
						<comment>How do I balance these personas?&#13;leadership,&#13;balance,&#13;work,&#13;identity,&#13;career,</comment>
						<color>
							<alpha>0</alpha>
							<red>255</red>
							<green>0</green>
							<blue>0</blue>
						</color>
						<in>14670</in>
						<out>15306</out>
					</marker>
					<filter>
						<enabled>TRUE</enabled>
						<start>-1</start>
						<end>-1</end>
						<effect>
							<name>Color Corrector</name>
							<effectid>Color Corrector</effectid>
							<effectcategory>Color Correction</effectcategory>
							<effecttype>filter</effecttype>
							<mediatype>video</mediatype>
							<parameter>
								<parameterid>dispmode</parameterid>
								<name>Display Mode</name>
								<valuemin>1</valuemin>
								<valuemax>3</valuemax>
								<valuelist>
									<valueentry>
										<name>Final</name>
										<value>1</value>
									</valueentry>
									<valueentry>
										<name>Matte</name>
										<value>2</value>
									</valueentry>
									<valueentry>
										<name>Source</name>
										<value>3</value>
									</valueentry>
								</valuelist>
								<value>1</value>
							</parameter>
							<parameter>
								<parameterid>label1</parameterid>
								<name>Level Controls</name>
								<value/>
							</parameter>
							<parameter>
								<parameterid>highlights</parameterid>
								<name>Highlights</name>
								<valuemin>64</valuemin>
								<valuemax>509</valuemax>
								<value>268</value>
							</parameter>
							<parameter>
								<parameterid>mids</parameterid>
								<name>Mids</name>
								<valuemin>0</valuemin>
								<valuemax>200</valuemax>
								<value>112</value>
							</parameter>
							<parameter>
								<parameterid>blacklevel</parameterid>
								<name>Blacks</name>
								<valuemin>-196</valuemin>
								<valuemax>254</valuemax>
								<value>15</value>
							</parameter>
							<parameter>
								<parameterid>label2</parameterid>
								<name>Color Balance</name>
								<value/>
							</parameter>
							<parameter>
								<parameterid>hue</parameterid>
								<name>Angle</name>
								<valuemin>-180</valuemin>
								<valuemax>180</valuemax>
								<value>-33</value>
							</parameter>
							<parameter>
								<parameterid>mag</parameterid>
								<name>Magnitude</name>
								<valuemin>0</valuemin>
								<valuemax>200</valuemax>
								<value>0</value>
							</parameter>
							<parameter>
								<parameterid>label4</parameterid>
								<name>Color Controls</name>
								<value/>
							</parameter>
							<parameter>
								<parameterid>chroma</parameterid>
								<name>Saturation</name>
								<valuemin>0</valuemin>
								<valuemax>200</valuemax>
								<value>100</value>
							</parameter>
							<parameter>
								<parameterid>phase</parameterid>
								<name>Phase shift</name>
								<valuemin>-180</valuemin>
								<valuemax>180</valuemax>
								<value>0</value>
							</parameter>
							<parameter>
								<parameterid>label5</parameterid>
								<name>Limit Effect Controls</name>
								<value/>
							</parameter>
							<parameter>
								<parameterid>dochroma</parameterid>
								<name>Limit on Chroma</name>
								<value>FALSE</value>
							</parameter>
							<parameter>
								<parameterid>centerang</parameterid>
								<name>Chroma Center</name>
								<valuemin>-760</valuemin>
								<valuemax>760</valuemax>
								<value>-110</value>
							</parameter>
							<parameter>
								<parameterid>chromawidth</parameterid>
								<name>Chroma Width</name>
								<valuemin>0</valuemin>
								<valuemax>360</valuemax>
								<value>15</value>
							</parameter>
							<parameter>
								<parameterid>chromasoft</parameterid>
								<name>Chroma Softness</name>
								<valuemin>0</valuemin>
								<valuemax>180</valuemax>
								<value>10</value>
							</parameter>
							<parameter>
								<parameterid>dosat</parameterid>
								<name>Limit on Saturation</name>
								<value>FALSE</value>
							</parameter>
							<parameter>
								<parameterid>satmin</parameterid>
								<name>Sat. Minimum</name>
								<valuemin>0</valuemin>
								<valuemax>125</valuemax>
								<value>35</value>
							</parameter>
							<parameter>
								<parameterid>satwidth</parameterid>
								<name>Sat. Width</name>
								<valuemin>0</valuemin>
								<valuemax>125</valuemax>
								<value>40</value>
							</parameter>
							<parameter>
								<parameterid>satsoft</parameterid>
								<name>Sat. Softness</name>
								<valuemin>0</valuemin>
								<valuemax>125</valuemax>
								<value>20</value>
							</parameter>
							<parameter>
								<parameterid>doluma</parameterid>
								<name>Limit on Luma</name>
								<value>FALSE</value>
							</parameter>
							<parameter>
								<parameterid>lumamin</parameterid>
								<name>Luma Minimum</name>
								<valuemin>0</valuemin>
								<valuemax>120</valuemax>
								<value>0</value>
							</parameter>
							<parameter>
								<parameterid>lumawidth</parameterid>
								<name>Luma Width</name>
								<valuemin>0</valuemin>
								<valuemax>120</valuemax>
								<value>40</value>
							</parameter>
							<parameter>
								<parameterid>lumasoft</parameterid>
								<name>Luma Softness</name>
								<valuemin>0</valuemin>
								<valuemax>120</valuemax>
								<value>20</value>
							</parameter>
							<parameter>
								<parameterid>label6</parameterid>
								<name>Edge Control</name>
								<value/>
							</parameter>
							<parameter>
								<parameterid>edgethin</parameterid>
								<name>Thin/Spread</name>
								<valuemin>-100</valuemin>
								<valuemax>100</valuemax>
								<value>0</value>
							</parameter>
							<parameter>
								<parameterid>edgefeather</parameterid>
								<name>Softening</name>
								<valuemin>0</valuemin>
								<valuemax>100</valuemax>
								<value>0</value>
							</parameter>
							<parameter>
								<parameterid>label7</parameterid>
								<name>Mask Control</name>
								<value/>
							</parameter>
							<parameter>
								<parameterid>invertsel</parameterid>
								<name>Invert</name>
								<value>FALSE</value>
							</parameter>
							<parameter>
								<parameterid>debugshow</parameterid>
								<name>Show Stats</name>
								<value>FALSE</value>
							</parameter>
						</effect>
					</filter>
					<filter>
						<enabled>TRUE</enabled>
						<start>-1</start>
						<end>-1</end>
						<effect>
							<name>RGB Balance</name>
							<effectid>RGB Balance</effectid>
							<effectcategory>Color Correction</effectcategory>
							<effecttype>filter</effecttype>
							<mediatype>video</mediatype>
							<parameter>
								<parameterid>label1</parameterid>
								<name>Reds</name>
								<value/>
							</parameter>
							<parameter>
								<parameterid>rhighlights</parameterid>
								<name>Highlights</name>
								<valuemin>64</valuemin>
								<valuemax>509</valuemax>
								<value>255</value>
							</parameter>
							<parameter>
								<parameterid>rgamma</parameterid>
								<name>Midtones</name>
								<valuemin>0</valuemin>
								<valuemax>200</valuemax>
								<value>100</value>
							</parameter>
							<parameter>
								<parameterid>rblacklevel</parameterid>
								<name>Blacks</name>
								<valuemin>-196</valuemin>
								<valuemax>254</valuemax>
								<value>0</value>
							</parameter>
							<parameter>
								<parameterid>label2</parameterid>
								<name>Greens</name>
								<value/>
							</parameter>
							<parameter>
								<parameterid>ghighlights</parameterid>
								<name>Highlights</name>
								<valuemin>64</valuemin>
								<valuemax>509</valuemax>
								<value>255</value>
							</parameter>
							<parameter>
								<parameterid>ggamma</parameterid>
								<name>Midtones</name>
								<valuemin>0</valuemin>
								<valuemax>200</valuemax>
								<value>100</value>
							</parameter>
							<parameter>
								<parameterid>gblacklevel</parameterid>
								<name>Blacks</name>
								<valuemin>-196</valuemin>
								<valuemax>254</valuemax>
								<value>0</value>
							</parameter>
							<parameter>
								<parameterid>label3</parameterid>
								<name>Blues</name>
								<value/>
							</parameter>
							<parameter>
								<parameterid>bhighlights</parameterid>
								<name>Highlights</name>
								<valuemin>64</valuemin>
								<valuemax>509</valuemax>
								<value>313</value>
							</parameter>
							<parameter>
								<parameterid>bgamma</parameterid>
								<name>Midtones</name>
								<valuemin>0</valuemin>
								<valuemax>200</valuemax>
								<value>100</value>
							</parameter>
							<parameter>
								<parameterid>bblacklevel</parameterid>
								<name>Blacks</name>
								<valuemin>-196</valuemin>
								<valuemax>254</valuemax>
								<value>0</value>
							</parameter>
						</effect>
					</filter>
					<filter>
						<effect>
							<name>Basic Motion</name>
							<effectid>basic</effectid>
							<effectcategory>motion</effectcategory>
							<effecttype>motion</effecttype>
							<mediatype>video</mediatype>
							<parameter>
								<parameterid>center</parameterid>
								<name>Center</name>
								<value>
									<horiz>0</horiz>
									<vert>-0.000925926</vert>
								</value>
							</parameter>
						</effect>
					</filter>
					<sourcetrack>
						<mediatype>video</mediatype>
					</sourcetrack>
					<link>
						<linkclipref>MVI_7683 </linkclipref>
						<mediatype>video</mediatype>
						<trackindex>1</trackindex>
						<clipindex>9</clipindex>
					</link>
					<link>
						<linkclipref>MVI_7683 3</linkclipref>
						<mediatype>audio</mediatype>
						<trackindex>1</trackindex>
						<clipindex>9</clipindex>
						<groupindex>1</groupindex>
					</link>
					<link>
						<linkclipref>MVI_7683 4</linkclipref>
						<mediatype>audio</mediatype>
						<trackindex>2</trackindex>
						<clipindex>9</clipindex>
						<groupindex>1</groupindex>
					</link>
					<fielddominance>none</fielddominance>
					<itemhistory>
						<uuid>62351FE9-E20B-44E0-923D-0380859E811C</uuid>
						<uuid>9048F140-BC52-45AE-923F-BA1F284388CA</uuid>
					</itemhistory>
				</clipitem>
				<clipitem id="MVI_7684 ">
					<name>MVI_7684</name>
					<duration>17768</duration>
					<rate>
						<ntsc>TRUE</ntsc>
						<timebase>24</timebase>
					</rate>
					<in>0</in>
					<out>4907</out>
					<start>52443</start>
					<end>57350</end>
					<pixelaspectratio>Square</pixelaspectratio>
					<enabled>TRUE</enabled>
					<anamorphic>FALSE</anamorphic>
					<alphatype>none</alphatype>
					<masterclipid>MVI_7684 1</masterclipid>
					<logginginfo>
						<scene/>
						<shottake/>
						<lognote/>
						<good>FALSE</good>
					</logginginfo>
					<labels>
						<label2/>
					</labels>
					<comments>
						<mastercomment1/>
						<mastercomment2/>
						<mastercomment3/>
						<mastercomment4/>
					</comments>
					<file id="MVI_7684 2">
						<name>MVI_7684.mov</name>
						<pathurl>file://localhost/Volumes/Nebula/MediaPackages/JohnMaeda/depthframes/maeda07/MVI_7684.mov</pathurl>
						<rate>
							<timebase>24</timebase>
							<ntsc>TRUE</ntsc>
						</rate>
						<duration>17768</duration>
						<media>
							<video>
								<duration>17768</duration>
								<samplecharacteristics>
									<width>1920</width>
									<height>1080</height>
								</samplecharacteristics>
							</video>
							<audio>
								<samplecharacteristics>
									<samplerate>48000</samplerate>
									<depth>16</depth>
								</samplecharacteristics>
								<channelcount>2</channelcount>
							</audio>
						</media>
					</file>
					<marker>
						<name>How do you relate to people?</name>
						<comment>what does post-digital mean?,&#13;what comes after digital?,&#13;humanism,&#13;social engagment,&#13;society,&#13;</comment>
						<color>
							<alpha>0</alpha>
							<red>255</red>
							<green>0</green>
							<blue>0</blue>
						</color>
						<in>1090</in>
						<out>2072</out>
					</marker>
					<marker>
						<name>distraction and focus</name>
						<comment>How do you manage distraction?,&#13;How do you find balance?,&#13;alone together,&#13;connectivity,&#13;focus,&#13;distraction,&#13;embodiment,&#13;information overload,&#13;balance,&#13;zen,</comment>
						<color>
							<alpha>0</alpha>
							<red>255</red>
							<green>0</green>
							<blue>0</blue>
						</color>
						<in>2709</in>
						<out>3848</out>
					</marker>
					<marker>
						<name>Design in the foreground</name>
						<comment>You can do anything,&#13;technological progress,&#13;why?,&#13;infinite in all directions,&#13;post digital,&#13;singularity,&#13;end of history, &#13;acceleration,&#13;design,</comment>
						<color>
							<alpha>0</alpha>
							<red>255</red>
							<green>0</green>
							<blue>0</blue>
						</color>
						<in>4056</in>
						<out>4566</out>
					</marker>
					<marker>
						<name>Art is asking questions, design is making solutions</name>
						<comment>what are the questions you're interested in?&#13;</comment>
						<color>
							<alpha>0</alpha>
							<red>255</red>
							<green>0</green>
							<blue>0</blue>
						</color>
						<in>4905</in>
						<out>5032</out>
					</marker>
					<marker>
						<name>Digital divide</name>
						<comment>How does computational art fit into the ecosystem of traditional artforms?,&#13;digital meets physical,&#13;the digital divide,&#13;physicality,&#13;tangibility,&#13;post-digital, link:JTNimoy - relating&#13;</comment>
						<color>
							<alpha>0</alpha>
							<red>255</red>
							<green>0</green>
							<blue>0</blue>
						</color>
						<in>7007</in>
						<out>8235</out>
					</marker>
					<marker>
						<name>New media</name>
						<comment>Digital media is no longer new: so what is its cultural value?,&#13;old media, &#13;problem of newness,&#13;history,&#13;cultural value,&#13;&#13;</comment>
						<color>
							<alpha>0</alpha>
							<red>255</red>
							<green>0</green>
							<blue>0</blue>
						</color>
						<in>8655</in>
						<out>9126</out>
					</marker>
					<marker>
						<name>old and new</name>
						<comment>Digital media is no longer new: so what is its cultural value?,&#13;Is it good or now?,&#13;old, &#13;new,&#13;history,&#13;cultural value,&#13;evaluation,&#13;weird,&#13;funny,&#13;</comment>
						<color>
							<alpha>0</alpha>
							<red>255</red>
							<green>0</green>
							<blue>0</blue>
						</color>
						<in>9449</in>
						<out>10921</out>
					</marker>
					<marker>
						<name>Marker 10</name>
						<comment>How do you see digital media shifting?,</comment>
						<color>
							<alpha>0</alpha>
							<red>255</red>
							<green>0</green>
							<blue>0</blue>
						</color>
						<in>11116</in>
						<out>-1</out>
					</marker>
					<marker>
						<name>Marker 13</name>
						<comment/>
						<color>
							<alpha>0</alpha>
							<red>255</red>
							<green>0</green>
							<blue>0</blue>
						</color>
						<in>11603</in>
						<out>-1</out>
					</marker>
					<marker>
						<name>People you're meeting,</name>
						<comment>experience,&#13;art as experience,&#13;real world,&#13;people,&#13;work and life,</comment>
						<color>
							<alpha>0</alpha>
							<red>255</red>
							<green>0</green>
							<blue>0</blue>
						</color>
						<in>12356</in>
						<out>12703</out>
					</marker>
					<marker>
						<name>own the tool</name>
						<comment>post-digital,&#13;own the tool,&#13;program or be programmed,&#13;learning,&#13;choices,&#13;limitations,</comment>
						<color>
							<alpha>0</alpha>
							<red>255</red>
							<green>0</green>
							<blue>0</blue>
						</color>
						<in>14630</in>
						<out>16168</out>
					</marker>
					<filter>
						<enabled>TRUE</enabled>
						<start>-1</start>
						<end>-1</end>
						<effect>
							<name>Color Corrector</name>
							<effectid>Color Corrector</effectid>
							<effectcategory>Color Correction</effectcategory>
							<effecttype>filter</effecttype>
							<mediatype>video</mediatype>
							<parameter>
								<parameterid>dispmode</parameterid>
								<name>Display Mode</name>
								<valuemin>1</valuemin>
								<valuemax>3</valuemax>
								<valuelist>
									<valueentry>
										<name>Final</name>
										<value>1</value>
									</valueentry>
									<valueentry>
										<name>Matte</name>
										<value>2</value>
									</valueentry>
									<valueentry>
										<name>Source</name>
										<value>3</value>
									</valueentry>
								</valuelist>
								<value>1</value>
							</parameter>
							<parameter>
								<parameterid>label1</parameterid>
								<name>Level Controls</name>
								<value/>
							</parameter>
							<parameter>
								<parameterid>highlights</parameterid>
								<name>Highlights</name>
								<valuemin>64</valuemin>
								<valuemax>509</valuemax>
								<value>268</value>
							</parameter>
							<parameter>
								<parameterid>mids</parameterid>
								<name>Mids</name>
								<valuemin>0</valuemin>
								<valuemax>200</valuemax>
								<value>112</value>
							</parameter>
							<parameter>
								<parameterid>blacklevel</parameterid>
								<name>Blacks</name>
								<valuemin>-196</valuemin>
								<valuemax>254</valuemax>
								<value>15</value>
							</parameter>
							<parameter>
								<parameterid>label2</parameterid>
								<name>Color Balance</name>
								<value/>
							</parameter>
							<parameter>
								<parameterid>hue</parameterid>
								<name>Angle</name>
								<valuemin>-180</valuemin>
								<valuemax>180</valuemax>
								<value>-33</value>
							</parameter>
							<parameter>
								<parameterid>mag</parameterid>
								<name>Magnitude</name>
								<valuemin>0</valuemin>
								<valuemax>200</valuemax>
								<value>0</value>
							</parameter>
							<parameter>
								<parameterid>label4</parameterid>
								<name>Color Controls</name>
								<value/>
							</parameter>
							<parameter>
								<parameterid>chroma</parameterid>
								<name>Saturation</name>
								<valuemin>0</valuemin>
								<valuemax>200</valuemax>
								<value>100</value>
							</parameter>
							<parameter>
								<parameterid>phase</parameterid>
								<name>Phase shift</name>
								<valuemin>-180</valuemin>
								<valuemax>180</valuemax>
								<value>0</value>
							</parameter>
							<parameter>
								<parameterid>label5</parameterid>
								<name>Limit Effect Controls</name>
								<value/>
							</parameter>
							<parameter>
								<parameterid>dochroma</parameterid>
								<name>Limit on Chroma</name>
								<value>FALSE</value>
							</parameter>
							<parameter>
								<parameterid>centerang</parameterid>
								<name>Chroma Center</name>
								<valuemin>-760</valuemin>
								<valuemax>760</valuemax>
								<value>-110</value>
							</parameter>
							<parameter>
								<parameterid>chromawidth</parameterid>
								<name>Chroma Width</name>
								<valuemin>0</valuemin>
								<valuemax>360</valuemax>
								<value>15</value>
							</parameter>
							<parameter>
								<parameterid>chromasoft</parameterid>
								<name>Chroma Softness</name>
								<valuemin>0</valuemin>
								<valuemax>180</valuemax>
								<value>10</value>
							</parameter>
							<parameter>
								<parameterid>dosat</parameterid>
								<name>Limit on Saturation</name>
								<value>FALSE</value>
							</parameter>
							<parameter>
								<parameterid>satmin</parameterid>
								<name>Sat. Minimum</name>
								<valuemin>0</valuemin>
								<valuemax>125</valuemax>
								<value>35</value>
							</parameter>
							<parameter>
								<parameterid>satwidth</parameterid>
								<name>Sat. Width</name>
								<valuemin>0</valuemin>
								<valuemax>125</valuemax>
								<value>40</value>
							</parameter>
							<parameter>
								<parameterid>satsoft</parameterid>
								<name>Sat. Softness</name>
								<valuemin>0</valuemin>
								<valuemax>125</valuemax>
								<value>20</value>
							</parameter>
							<parameter>
								<parameterid>doluma</parameterid>
								<name>Limit on Luma</name>
								<value>FALSE</value>
							</parameter>
							<parameter>
								<parameterid>lumamin</parameterid>
								<name>Luma Minimum</name>
								<valuemin>0</valuemin>
								<valuemax>120</valuemax>
								<value>0</value>
							</parameter>
							<parameter>
								<parameterid>lumawidth</parameterid>
								<name>Luma Width</name>
								<valuemin>0</valuemin>
								<valuemax>120</valuemax>
								<value>40</value>
							</parameter>
							<parameter>
								<parameterid>lumasoft</parameterid>
								<name>Luma Softness</name>
								<valuemin>0</valuemin>
								<valuemax>120</valuemax>
								<value>20</value>
							</parameter>
							<parameter>
								<parameterid>label6</parameterid>
								<name>Edge Control</name>
								<value/>
							</parameter>
							<parameter>
								<parameterid>edgethin</parameterid>
								<name>Thin/Spread</name>
								<valuemin>-100</valuemin>
								<valuemax>100</valuemax>
								<value>0</value>
							</parameter>
							<parameter>
								<parameterid>edgefeather</parameterid>
								<name>Softening</name>
								<valuemin>0</valuemin>
								<valuemax>100</valuemax>
								<value>0</value>
							</parameter>
							<parameter>
								<parameterid>label7</parameterid>
								<name>Mask Control</name>
								<value/>
							</parameter>
							<parameter>
								<parameterid>invertsel</parameterid>
								<name>Invert</name>
								<value>FALSE</value>
							</parameter>
							<parameter>
								<parameterid>debugshow</parameterid>
								<name>Show Stats</name>
								<value>FALSE</value>
							</parameter>
						</effect>
					</filter>
					<filter>
						<enabled>TRUE</enabled>
						<start>-1</start>
						<end>-1</end>
						<effect>
							<name>RGB Balance</name>
							<effectid>RGB Balance</effectid>
							<effectcategory>Color Correction</effectcategory>
							<effecttype>filter</effecttype>
							<mediatype>video</mediatype>
							<parameter>
								<parameterid>label1</parameterid>
								<name>Reds</name>
								<value/>
							</parameter>
							<parameter>
								<parameterid>rhighlights</parameterid>
								<name>Highlights</name>
								<valuemin>64</valuemin>
								<valuemax>509</valuemax>
								<value>255</value>
							</parameter>
							<parameter>
								<parameterid>rgamma</parameterid>
								<name>Midtones</name>
								<valuemin>0</valuemin>
								<valuemax>200</valuemax>
								<value>100</value>
							</parameter>
							<parameter>
								<parameterid>rblacklevel</parameterid>
								<name>Blacks</name>
								<valuemin>-196</valuemin>
								<valuemax>254</valuemax>
								<value>0</value>
							</parameter>
							<parameter>
								<parameterid>label2</parameterid>
								<name>Greens</name>
								<value/>
							</parameter>
							<parameter>
								<parameterid>ghighlights</parameterid>
								<name>Highlights</name>
								<valuemin>64</valuemin>
								<valuemax>509</valuemax>
								<value>255</value>
							</parameter>
							<parameter>
								<parameterid>ggamma</parameterid>
								<name>Midtones</name>
								<valuemin>0</valuemin>
								<valuemax>200</valuemax>
								<value>100</value>
							</parameter>
							<parameter>
								<parameterid>gblacklevel</parameterid>
								<name>Blacks</name>
								<valuemin>-196</valuemin>
								<valuemax>254</valuemax>
								<value>0</value>
							</parameter>
							<parameter>
								<parameterid>label3</parameterid>
								<name>Blues</name>
								<value/>
							</parameter>
							<parameter>
								<parameterid>bhighlights</parameterid>
								<name>Highlights</name>
								<valuemin>64</valuemin>
								<valuemax>509</valuemax>
								<value>313</value>
							</parameter>
							<parameter>
								<parameterid>bgamma</parameterid>
								<name>Midtones</name>
								<valuemin>0</valuemin>
								<valuemax>200</valuemax>
								<value>100</value>
							</parameter>
							<parameter>
								<parameterid>bblacklevel</parameterid>
								<name>Blacks</name>
								<valuemin>-196</valuemin>
								<valuemax>254</valuemax>
								<value>0</value>
							</parameter>
						</effect>
					</filter>
					<filter>
						<effect>
							<name>Basic Motion</name>
							<effectid>basic</effectid>
							<effectcategory>motion</effectcategory>
							<effecttype>motion</effecttype>
							<mediatype>video</mediatype>
							<parameter>
								<parameterid>center</parameterid>
								<name>Center</name>
								<value>
									<horiz>0</horiz>
									<vert>-0.000925926</vert>
								</value>
							</parameter>
						</effect>
					</filter>
					<sourcetrack>
						<mediatype>video</mediatype>
					</sourcetrack>
					<fielddominance>none</fielddominance>
					<itemhistory>
						<uuid>1E821FBC-9426-4843-A1C1-1A5FA50959CF</uuid>
						<uuid>1B0F48CB-E75A-41E9-B9E3-6651DF093B6B</uuid>
						<uuid>23674ED4-9107-41CA-8846-05374CD29097</uuid>
					</itemhistory>
				</clipitem>
				<clipitem id="MVI_7684 3">
					<name>MVI_7684</name>
					<duration>17768</duration>
					<rate>
						<ntsc>TRUE</ntsc>
						<timebase>24</timebase>
					</rate>
					<in>4907</in>
					<out>5035</out>
					<start>57350</start>
					<end>57478</end>
					<pixelaspectratio>Square</pixelaspectratio>
					<enabled>TRUE</enabled>
					<anamorphic>FALSE</anamorphic>
					<alphatype>none</alphatype>
					<masterclipid>MVI_7684 1</masterclipid>
					<logginginfo>
						<scene/>
						<shottake/>
						<lognote/>
						<good>FALSE</good>
					</logginginfo>
					<labels>
						<label2/>
					</labels>
					<comments>
						<mastercomment1/>
						<mastercomment2/>
						<mastercomment3/>
						<mastercomment4/>
					</comments>
					<file id="MVI_7684 2"/>
					<marker>
						<name>How do you relate to people?</name>
						<comment>what does post-digital mean?,&#13;what comes after digital?,&#13;humanism,&#13;social engagment,&#13;society,&#13;</comment>
						<color>
							<alpha>0</alpha>
							<red>255</red>
							<green>0</green>
							<blue>0</blue>
						</color>
						<in>1090</in>
						<out>2072</out>
					</marker>
					<marker>
						<name>distraction and focus</name>
						<comment>How do you manage distraction?,&#13;How do you find balance?,&#13;alone together,&#13;connectivity,&#13;focus,&#13;distraction,&#13;embodiment,&#13;information overload,&#13;balance,&#13;zen,</comment>
						<color>
							<alpha>0</alpha>
							<red>255</red>
							<green>0</green>
							<blue>0</blue>
						</color>
						<in>2709</in>
						<out>3848</out>
					</marker>
					<marker>
						<name>Design in the foreground</name>
						<comment>You can do anything,&#13;technological progress,&#13;why?,&#13;infinite in all directions,&#13;post digital,&#13;singularity,&#13;end of history, &#13;acceleration,&#13;design,</comment>
						<color>
							<alpha>0</alpha>
							<red>255</red>
							<green>0</green>
							<blue>0</blue>
						</color>
						<in>4056</in>
						<out>4566</out>
					</marker>
					<marker>
						<name>Art is asking questions, design is making solutions</name>
						<comment>what are the questions you're interested in?&#13;</comment>
						<color>
							<alpha>0</alpha>
							<red>255</red>
							<green>0</green>
							<blue>0</blue>
						</color>
						<in>4905</in>
						<out>5032</out>
					</marker>
					<marker>
						<name>Digital divide</name>
						<comment>How does computational art fit into the ecosystem of traditional artforms?,&#13;digital meets physical,&#13;the digital divide,&#13;physicality,&#13;tangibility,&#13;post-digital, link:JTNimoy - relating&#13;</comment>
						<color>
							<alpha>0</alpha>
							<red>255</red>
							<green>0</green>
							<blue>0</blue>
						</color>
						<in>7007</in>
						<out>8235</out>
					</marker>
					<marker>
						<name>New media</name>
						<comment>Digital media is no longer new: so what is its cultural value?,&#13;old media, &#13;problem of newness,&#13;history,&#13;cultural value,&#13;&#13;</comment>
						<color>
							<alpha>0</alpha>
							<red>255</red>
							<green>0</green>
							<blue>0</blue>
						</color>
						<in>8655</in>
						<out>9126</out>
					</marker>
					<marker>
						<name>old and new</name>
						<comment>Digital media is no longer new: so what is its cultural value?,&#13;Is it good or now?,&#13;old, &#13;new,&#13;history,&#13;cultural value,&#13;evaluation,&#13;weird,&#13;funny,&#13;</comment>
						<color>
							<alpha>0</alpha>
							<red>255</red>
							<green>0</green>
							<blue>0</blue>
						</color>
						<in>9449</in>
						<out>10921</out>
					</marker>
					<marker>
						<name>Marker 10</name>
						<comment>How do you see digital media shifting?,</comment>
						<color>
							<alpha>0</alpha>
							<red>255</red>
							<green>0</green>
							<blue>0</blue>
						</color>
						<in>11116</in>
						<out>-1</out>
					</marker>
					<marker>
						<name>Marker 13</name>
						<comment/>
						<color>
							<alpha>0</alpha>
							<red>255</red>
							<green>0</green>
							<blue>0</blue>
						</color>
						<in>11603</in>
						<out>-1</out>
					</marker>
					<marker>
						<name>People you're meeting,</name>
						<comment>experience,&#13;art as experience,&#13;real world,&#13;people,&#13;work and life,</comment>
						<color>
							<alpha>0</alpha>
							<red>255</red>
							<green>0</green>
							<blue>0</blue>
						</color>
						<in>12356</in>
						<out>12703</out>
					</marker>
					<marker>
						<name>own the tool</name>
						<comment>post-digital,&#13;own the tool,&#13;program or be programmed,&#13;learning,&#13;choices,&#13;limitations,</comment>
						<color>
							<alpha>0</alpha>
							<red>255</red>
							<green>0</green>
							<blue>0</blue>
						</color>
						<in>14630</in>
						<out>16168</out>
					</marker>
					<filter>
						<enabled>TRUE</enabled>
						<start>-1</start>
						<end>-1</end>
						<effect>
							<name>Color Corrector</name>
							<effectid>Color Corrector</effectid>
							<effectcategory>Color Correction</effectcategory>
							<effecttype>filter</effecttype>
							<mediatype>video</mediatype>
							<parameter>
								<parameterid>dispmode</parameterid>
								<name>Display Mode</name>
								<valuemin>1</valuemin>
								<valuemax>3</valuemax>
								<valuelist>
									<valueentry>
										<name>Final</name>
										<value>1</value>
									</valueentry>
									<valueentry>
										<name>Matte</name>
										<value>2</value>
									</valueentry>
									<valueentry>
										<name>Source</name>
										<value>3</value>
									</valueentry>
								</valuelist>
								<value>1</value>
							</parameter>
							<parameter>
								<parameterid>label1</parameterid>
								<name>Level Controls</name>
								<value/>
							</parameter>
							<parameter>
								<parameterid>highlights</parameterid>
								<name>Highlights</name>
								<valuemin>64</valuemin>
								<valuemax>509</valuemax>
								<value>268</value>
							</parameter>
							<parameter>
								<parameterid>mids</parameterid>
								<name>Mids</name>
								<valuemin>0</valuemin>
								<valuemax>200</valuemax>
								<value>112</value>
							</parameter>
							<parameter>
								<parameterid>blacklevel</parameterid>
								<name>Blacks</name>
								<valuemin>-196</valuemin>
								<valuemax>254</valuemax>
								<value>15</value>
							</parameter>
							<parameter>
								<parameterid>label2</parameterid>
								<name>Color Balance</name>
								<value/>
							</parameter>
							<parameter>
								<parameterid>hue</parameterid>
								<name>Angle</name>
								<valuemin>-180</valuemin>
								<valuemax>180</valuemax>
								<value>-33</value>
							</parameter>
							<parameter>
								<parameterid>mag</parameterid>
								<name>Magnitude</name>
								<valuemin>0</valuemin>
								<valuemax>200</valuemax>
								<value>0</value>
							</parameter>
							<parameter>
								<parameterid>label4</parameterid>
								<name>Color Controls</name>
								<value/>
							</parameter>
							<parameter>
								<parameterid>chroma</parameterid>
								<name>Saturation</name>
								<valuemin>0</valuemin>
								<valuemax>200</valuemax>
								<value>100</value>
							</parameter>
							<parameter>
								<parameterid>phase</parameterid>
								<name>Phase shift</name>
								<valuemin>-180</valuemin>
								<valuemax>180</valuemax>
								<value>0</value>
							</parameter>
							<parameter>
								<parameterid>label5</parameterid>
								<name>Limit Effect Controls</name>
								<value/>
							</parameter>
							<parameter>
								<parameterid>dochroma</parameterid>
								<name>Limit on Chroma</name>
								<value>FALSE</value>
							</parameter>
							<parameter>
								<parameterid>centerang</parameterid>
								<name>Chroma Center</name>
								<valuemin>-760</valuemin>
								<valuemax>760</valuemax>
								<value>-110</value>
							</parameter>
							<parameter>
								<parameterid>chromawidth</parameterid>
								<name>Chroma Width</name>
								<valuemin>0</valuemin>
								<valuemax>360</valuemax>
								<value>15</value>
							</parameter>
							<parameter>
								<parameterid>chromasoft</parameterid>
								<name>Chroma Softness</name>
								<valuemin>0</valuemin>
								<valuemax>180</valuemax>
								<value>10</value>
							</parameter>
							<parameter>
								<parameterid>dosat</parameterid>
								<name>Limit on Saturation</name>
								<value>FALSE</value>
							</parameter>
							<parameter>
								<parameterid>satmin</parameterid>
								<name>Sat. Minimum</name>
								<valuemin>0</valuemin>
								<valuemax>125</valuemax>
								<value>35</value>
							</parameter>
							<parameter>
								<parameterid>satwidth</parameterid>
								<name>Sat. Width</name>
								<valuemin>0</valuemin>
								<valuemax>125</valuemax>
								<value>40</value>
							</parameter>
							<parameter>
								<parameterid>satsoft</parameterid>
								<name>Sat. Softness</name>
								<valuemin>0</valuemin>
								<valuemax>125</valuemax>
								<value>20</value>
							</parameter>
							<parameter>
								<parameterid>doluma</parameterid>
								<name>Limit on Luma</name>
								<value>FALSE</value>
							</parameter>
							<parameter>
								<parameterid>lumamin</parameterid>
								<name>Luma Minimum</name>
								<valuemin>0</valuemin>
								<valuemax>120</valuemax>
								<value>0</value>
							</parameter>
							<parameter>
								<parameterid>lumawidth</parameterid>
								<name>Luma Width</name>
								<valuemin>0</valuemin>
								<valuemax>120</valuemax>
								<value>40</value>
							</parameter>
							<parameter>
								<parameterid>lumasoft</parameterid>
								<name>Luma Softness</name>
								<valuemin>0</valuemin>
								<valuemax>120</valuemax>
								<value>20</value>
							</parameter>
							<parameter>
								<parameterid>label6</parameterid>
								<name>Edge Control</name>
								<value/>
							</parameter>
							<parameter>
								<parameterid>edgethin</parameterid>
								<name>Thin/Spread</name>
								<valuemin>-100</valuemin>
								<valuemax>100</valuemax>
								<value>0</value>
							</parameter>
							<parameter>
								<parameterid>edgefeather</parameterid>
								<name>Softening</name>
								<valuemin>0</valuemin>
								<valuemax>100</valuemax>
								<value>0</value>
							</parameter>
							<parameter>
								<parameterid>label7</parameterid>
								<name>Mask Control</name>
								<value/>
							</parameter>
							<parameter>
								<parameterid>invertsel</parameterid>
								<name>Invert</name>
								<value>FALSE</value>
							</parameter>
							<parameter>
								<parameterid>debugshow</parameterid>
								<name>Show Stats</name>
								<value>FALSE</value>
							</parameter>
						</effect>
					</filter>
					<filter>
						<enabled>TRUE</enabled>
						<start>-1</start>
						<end>-1</end>
						<effect>
							<name>RGB Balance</name>
							<effectid>RGB Balance</effectid>
							<effectcategory>Color Correction</effectcategory>
							<effecttype>filter</effecttype>
							<mediatype>video</mediatype>
							<parameter>
								<parameterid>label1</parameterid>
								<name>Reds</name>
								<value/>
							</parameter>
							<parameter>
								<parameterid>rhighlights</parameterid>
								<name>Highlights</name>
								<valuemin>64</valuemin>
								<valuemax>509</valuemax>
								<value>255</value>
							</parameter>
							<parameter>
								<parameterid>rgamma</parameterid>
								<name>Midtones</name>
								<valuemin>0</valuemin>
								<valuemax>200</valuemax>
								<value>100</value>
							</parameter>
							<parameter>
								<parameterid>rblacklevel</parameterid>
								<name>Blacks</name>
								<valuemin>-196</valuemin>
								<valuemax>254</valuemax>
								<value>0</value>
							</parameter>
							<parameter>
								<parameterid>label2</parameterid>
								<name>Greens</name>
								<value/>
							</parameter>
							<parameter>
								<parameterid>ghighlights</parameterid>
								<name>Highlights</name>
								<valuemin>64</valuemin>
								<valuemax>509</valuemax>
								<value>255</value>
							</parameter>
							<parameter>
								<parameterid>ggamma</parameterid>
								<name>Midtones</name>
								<valuemin>0</valuemin>
								<valuemax>200</valuemax>
								<value>100</value>
							</parameter>
							<parameter>
								<parameterid>gblacklevel</parameterid>
								<name>Blacks</name>
								<valuemin>-196</valuemin>
								<valuemax>254</valuemax>
								<value>0</value>
							</parameter>
							<parameter>
								<parameterid>label3</parameterid>
								<name>Blues</name>
								<value/>
							</parameter>
							<parameter>
								<parameterid>bhighlights</parameterid>
								<name>Highlights</name>
								<valuemin>64</valuemin>
								<valuemax>509</valuemax>
								<value>313</value>
							</parameter>
							<parameter>
								<parameterid>bgamma</parameterid>
								<name>Midtones</name>
								<valuemin>0</valuemin>
								<valuemax>200</valuemax>
								<value>100</value>
							</parameter>
							<parameter>
								<parameterid>bblacklevel</parameterid>
								<name>Blacks</name>
								<valuemin>-196</valuemin>
								<valuemax>254</valuemax>
								<value>0</value>
							</parameter>
						</effect>
					</filter>
					<filter>
						<effect>
							<name>Basic Motion</name>
							<effectid>basic</effectid>
							<effectcategory>motion</effectcategory>
							<effecttype>motion</effecttype>
							<mediatype>video</mediatype>
							<parameter>
								<parameterid>center</parameterid>
								<name>Center</name>
								<value>
									<horiz>0</horiz>
									<vert>-0.000925926</vert>
								</value>
							</parameter>
						</effect>
					</filter>
					<sourcetrack>
						<mediatype>video</mediatype>
					</sourcetrack>
					<fielddominance>none</fielddominance>
					<itemhistory>
						<uuid>E3CD987A-ADE6-4460-A3AE-E40AC6B2A248</uuid>
						<uuid>1B0F48CB-E75A-41E9-B9E3-6651DF093B6B</uuid>
						<uuid>23674ED4-9107-41CA-8846-05374CD29097</uuid>
					</itemhistory>
				</clipitem>
				<clipitem id="MVI_7684 4">
					<name>MVI_7684</name>
					<duration>17768</duration>
					<rate>
						<ntsc>TRUE</ntsc>
						<timebase>24</timebase>
					</rate>
					<in>5035</in>
					<out>17768</out>
					<start>57478</start>
					<end>70211</end>
					<pixelaspectratio>Square</pixelaspectratio>
					<enabled>TRUE</enabled>
					<anamorphic>FALSE</anamorphic>
					<alphatype>none</alphatype>
					<masterclipid>MVI_7684 1</masterclipid>
					<logginginfo>
						<scene/>
						<shottake/>
						<lognote/>
						<good>FALSE</good>
					</logginginfo>
					<labels>
						<label2/>
					</labels>
					<comments>
						<mastercomment1/>
						<mastercomment2/>
						<mastercomment3/>
						<mastercomment4/>
					</comments>
					<file id="MVI_7684 2"/>
					<marker>
						<name>How do you relate to people?</name>
						<comment>what does post-digital mean?,&#13;what comes after digital?,&#13;humanism,&#13;social engagment,&#13;society,&#13;</comment>
						<color>
							<alpha>0</alpha>
							<red>255</red>
							<green>0</green>
							<blue>0</blue>
						</color>
						<in>1090</in>
						<out>2072</out>
					</marker>
					<marker>
						<name>distraction and focus</name>
						<comment>How do you manage distraction?,&#13;How do you find balance?,&#13;alone together,&#13;connectivity,&#13;focus,&#13;distraction,&#13;embodiment,&#13;information overload,&#13;balance,&#13;zen,</comment>
						<color>
							<alpha>0</alpha>
							<red>255</red>
							<green>0</green>
							<blue>0</blue>
						</color>
						<in>2709</in>
						<out>3848</out>
					</marker>
					<marker>
						<name>Design in the foreground</name>
						<comment>You can do anything,&#13;technological progress,&#13;why?,&#13;infinite in all directions,&#13;post digital,&#13;singularity,&#13;end of history, &#13;acceleration,&#13;design,</comment>
						<color>
							<alpha>0</alpha>
							<red>255</red>
							<green>0</green>
							<blue>0</blue>
						</color>
						<in>4056</in>
						<out>4566</out>
					</marker>
					<marker>
						<name>Art is asking questions, design is making solutions</name>
						<comment>what are the questions you're interested in?&#13;</comment>
						<color>
							<alpha>0</alpha>
							<red>255</red>
							<green>0</green>
							<blue>0</blue>
						</color>
						<in>4905</in>
						<out>5032</out>
					</marker>
					<marker>
						<name>Digital divide</name>
						<comment>How does computational art fit into the ecosystem of traditional artforms?,&#13;digital meets physical,&#13;the digital divide,&#13;physicality,&#13;tangibility,&#13;post-digital, link:JTNimoy - relating&#13;</comment>
						<color>
							<alpha>0</alpha>
							<red>255</red>
							<green>0</green>
							<blue>0</blue>
						</color>
						<in>7007</in>
						<out>8235</out>
					</marker>
					<marker>
						<name>New media</name>
						<comment>Digital media is no longer new: so what is its cultural value?,&#13;old media, &#13;problem of newness,&#13;history,&#13;cultural value,&#13;&#13;</comment>
						<color>
							<alpha>0</alpha>
							<red>255</red>
							<green>0</green>
							<blue>0</blue>
						</color>
						<in>8655</in>
						<out>9126</out>
					</marker>
					<marker>
						<name>old and new</name>
						<comment>Digital media is no longer new: so what is its cultural value?,&#13;Is it good or now?,&#13;old, &#13;new,&#13;history,&#13;cultural value,&#13;evaluation,&#13;weird,&#13;funny,&#13;</comment>
						<color>
							<alpha>0</alpha>
							<red>255</red>
							<green>0</green>
							<blue>0</blue>
						</color>
						<in>9449</in>
						<out>10921</out>
					</marker>
					<marker>
						<name>Marker 10</name>
						<comment>How do you see digital media shifting?,</comment>
						<color>
							<alpha>0</alpha>
							<red>255</red>
							<green>0</green>
							<blue>0</blue>
						</color>
						<in>11116</in>
						<out>-1</out>
					</marker>
					<marker>
						<name>Marker 13</name>
						<comment/>
						<color>
							<alpha>0</alpha>
							<red>255</red>
							<green>0</green>
							<blue>0</blue>
						</color>
						<in>11603</in>
						<out>-1</out>
					</marker>
					<marker>
						<name>People you're meeting,</name>
						<comment>experience,&#13;art as experience,&#13;real world,&#13;people,&#13;work and life,</comment>
						<color>
							<alpha>0</alpha>
							<red>255</red>
							<green>0</green>
							<blue>0</blue>
						</color>
						<in>12356</in>
						<out>12703</out>
					</marker>
					<marker>
						<name>own the tool</name>
						<comment>post-digital,&#13;own the tool,&#13;program or be programmed,&#13;learning,&#13;choices,&#13;limitations,</comment>
						<color>
							<alpha>0</alpha>
							<red>255</red>
							<green>0</green>
							<blue>0</blue>
						</color>
						<in>14630</in>
						<out>16168</out>
					</marker>
					<filter>
						<enabled>TRUE</enabled>
						<start>-1</start>
						<end>-1</end>
						<effect>
							<name>Color Corrector</name>
							<effectid>Color Corrector</effectid>
							<effectcategory>Color Correction</effectcategory>
							<effecttype>filter</effecttype>
							<mediatype>video</mediatype>
							<parameter>
								<parameterid>dispmode</parameterid>
								<name>Display Mode</name>
								<valuemin>1</valuemin>
								<valuemax>3</valuemax>
								<valuelist>
									<valueentry>
										<name>Final</name>
										<value>1</value>
									</valueentry>
									<valueentry>
										<name>Matte</name>
										<value>2</value>
									</valueentry>
									<valueentry>
										<name>Source</name>
										<value>3</value>
									</valueentry>
								</valuelist>
								<value>1</value>
							</parameter>
							<parameter>
								<parameterid>label1</parameterid>
								<name>Level Controls</name>
								<value/>
							</parameter>
							<parameter>
								<parameterid>highlights</parameterid>
								<name>Highlights</name>
								<valuemin>64</valuemin>
								<valuemax>509</valuemax>
								<value>268</value>
							</parameter>
							<parameter>
								<parameterid>mids</parameterid>
								<name>Mids</name>
								<valuemin>0</valuemin>
								<valuemax>200</valuemax>
								<value>112</value>
							</parameter>
							<parameter>
								<parameterid>blacklevel</parameterid>
								<name>Blacks</name>
								<valuemin>-196</valuemin>
								<valuemax>254</valuemax>
								<value>15</value>
							</parameter>
							<parameter>
								<parameterid>label2</parameterid>
								<name>Color Balance</name>
								<value/>
							</parameter>
							<parameter>
								<parameterid>hue</parameterid>
								<name>Angle</name>
								<valuemin>-180</valuemin>
								<valuemax>180</valuemax>
								<value>-33</value>
							</parameter>
							<parameter>
								<parameterid>mag</parameterid>
								<name>Magnitude</name>
								<valuemin>0</valuemin>
								<valuemax>200</valuemax>
								<value>0</value>
							</parameter>
							<parameter>
								<parameterid>label4</parameterid>
								<name>Color Controls</name>
								<value/>
							</parameter>
							<parameter>
								<parameterid>chroma</parameterid>
								<name>Saturation</name>
								<valuemin>0</valuemin>
								<valuemax>200</valuemax>
								<value>100</value>
							</parameter>
							<parameter>
								<parameterid>phase</parameterid>
								<name>Phase shift</name>
								<valuemin>-180</valuemin>
								<valuemax>180</valuemax>
								<value>0</value>
							</parameter>
							<parameter>
								<parameterid>label5</parameterid>
								<name>Limit Effect Controls</name>
								<value/>
							</parameter>
							<parameter>
								<parameterid>dochroma</parameterid>
								<name>Limit on Chroma</name>
								<value>FALSE</value>
							</parameter>
							<parameter>
								<parameterid>centerang</parameterid>
								<name>Chroma Center</name>
								<valuemin>-760</valuemin>
								<valuemax>760</valuemax>
								<value>-110</value>
							</parameter>
							<parameter>
								<parameterid>chromawidth</parameterid>
								<name>Chroma Width</name>
								<valuemin>0</valuemin>
								<valuemax>360</valuemax>
								<value>15</value>
							</parameter>
							<parameter>
								<parameterid>chromasoft</parameterid>
								<name>Chroma Softness</name>
								<valuemin>0</valuemin>
								<valuemax>180</valuemax>
								<value>10</value>
							</parameter>
							<parameter>
								<parameterid>dosat</parameterid>
								<name>Limit on Saturation</name>
								<value>FALSE</value>
							</parameter>
							<parameter>
								<parameterid>satmin</parameterid>
								<name>Sat. Minimum</name>
								<valuemin>0</valuemin>
								<valuemax>125</valuemax>
								<value>35</value>
							</parameter>
							<parameter>
								<parameterid>satwidth</parameterid>
								<name>Sat. Width</name>
								<valuemin>0</valuemin>
								<valuemax>125</valuemax>
								<value>40</value>
							</parameter>
							<parameter>
								<parameterid>satsoft</parameterid>
								<name>Sat. Softness</name>
								<valuemin>0</valuemin>
								<valuemax>125</valuemax>
								<value>20</value>
							</parameter>
							<parameter>
								<parameterid>doluma</parameterid>
								<name>Limit on Luma</name>
								<value>FALSE</value>
							</parameter>
							<parameter>
								<parameterid>lumamin</parameterid>
								<name>Luma Minimum</name>
								<valuemin>0</valuemin>
								<valuemax>120</valuemax>
								<value>0</value>
							</parameter>
							<parameter>
								<parameterid>lumawidth</parameterid>
								<name>Luma Width</name>
								<valuemin>0</valuemin>
								<valuemax>120</valuemax>
								<value>40</value>
							</parameter>
							<parameter>
								<parameterid>lumasoft</parameterid>
								<name>Luma Softness</name>
								<valuemin>0</valuemin>
								<valuemax>120</valuemax>
								<value>20</value>
							</parameter>
							<parameter>
								<parameterid>label6</parameterid>
								<name>Edge Control</name>
								<value/>
							</parameter>
							<parameter>
								<parameterid>edgethin</parameterid>
								<name>Thin/Spread</name>
								<valuemin>-100</valuemin>
								<valuemax>100</valuemax>
								<value>0</value>
							</parameter>
							<parameter>
								<parameterid>edgefeather</parameterid>
								<name>Softening</name>
								<valuemin>0</valuemin>
								<valuemax>100</valuemax>
								<value>0</value>
							</parameter>
							<parameter>
								<parameterid>label7</parameterid>
								<name>Mask Control</name>
								<value/>
							</parameter>
							<parameter>
								<parameterid>invertsel</parameterid>
								<name>Invert</name>
								<value>FALSE</value>
							</parameter>
							<parameter>
								<parameterid>debugshow</parameterid>
								<name>Show Stats</name>
								<value>FALSE</value>
							</parameter>
						</effect>
					</filter>
					<filter>
						<enabled>TRUE</enabled>
						<start>-1</start>
						<end>-1</end>
						<effect>
							<name>RGB Balance</name>
							<effectid>RGB Balance</effectid>
							<effectcategory>Color Correction</effectcategory>
							<effecttype>filter</effecttype>
							<mediatype>video</mediatype>
							<parameter>
								<parameterid>label1</parameterid>
								<name>Reds</name>
								<value/>
							</parameter>
							<parameter>
								<parameterid>rhighlights</parameterid>
								<name>Highlights</name>
								<valuemin>64</valuemin>
								<valuemax>509</valuemax>
								<value>255</value>
							</parameter>
							<parameter>
								<parameterid>rgamma</parameterid>
								<name>Midtones</name>
								<valuemin>0</valuemin>
								<valuemax>200</valuemax>
								<value>100</value>
							</parameter>
							<parameter>
								<parameterid>rblacklevel</parameterid>
								<name>Blacks</name>
								<valuemin>-196</valuemin>
								<valuemax>254</valuemax>
								<value>0</value>
							</parameter>
							<parameter>
								<parameterid>label2</parameterid>
								<name>Greens</name>
								<value/>
							</parameter>
							<parameter>
								<parameterid>ghighlights</parameterid>
								<name>Highlights</name>
								<valuemin>64</valuemin>
								<valuemax>509</valuemax>
								<value>255</value>
							</parameter>
							<parameter>
								<parameterid>ggamma</parameterid>
								<name>Midtones</name>
								<valuemin>0</valuemin>
								<valuemax>200</valuemax>
								<value>100</value>
							</parameter>
							<parameter>
								<parameterid>gblacklevel</parameterid>
								<name>Blacks</name>
								<valuemin>-196</valuemin>
								<valuemax>254</valuemax>
								<value>0</value>
							</parameter>
							<parameter>
								<parameterid>label3</parameterid>
								<name>Blues</name>
								<value/>
							</parameter>
							<parameter>
								<parameterid>bhighlights</parameterid>
								<name>Highlights</name>
								<valuemin>64</valuemin>
								<valuemax>509</valuemax>
								<value>313</value>
							</parameter>
							<parameter>
								<parameterid>bgamma</parameterid>
								<name>Midtones</name>
								<valuemin>0</valuemin>
								<valuemax>200</valuemax>
								<value>100</value>
							</parameter>
							<parameter>
								<parameterid>bblacklevel</parameterid>
								<name>Blacks</name>
								<valuemin>-196</valuemin>
								<valuemax>254</valuemax>
								<value>0</value>
							</parameter>
						</effect>
					</filter>
					<filter>
						<effect>
							<name>Basic Motion</name>
							<effectid>basic</effectid>
							<effectcategory>motion</effectcategory>
							<effecttype>motion</effecttype>
							<mediatype>video</mediatype>
							<parameter>
								<parameterid>center</parameterid>
								<name>Center</name>
								<value>
									<horiz>0</horiz>
									<vert>-0.000925926</vert>
								</value>
							</parameter>
						</effect>
					</filter>
					<sourcetrack>
						<mediatype>video</mediatype>
					</sourcetrack>
					<fielddominance>none</fielddominance>
					<itemhistory>
						<uuid>7BA47EE7-5EE9-4051-BCC3-BB8EAC14AF5C</uuid>
						<uuid>1B0F48CB-E75A-41E9-B9E3-6651DF093B6B</uuid>
						<uuid>23674ED4-9107-41CA-8846-05374CD29097</uuid>
					</itemhistory>
				</clipitem>
				<enabled>TRUE</enabled>
				<locked>FALSE</locked>
			</track>
			<track>
				<clipitem id="MVI_7681 11">
					<name>MVI_7681</name>
					<duration>15985</duration>
					<rate>
						<ntsc>TRUE</ntsc>
						<timebase>24</timebase>
					</rate>
					<in>0</in>
					<out>9699</out>
					<start>12952</start>
					<end>22651</end>
					<pixelaspectratio>Square</pixelaspectratio>
					<enabled>TRUE</enabled>
					<anamorphic>FALSE</anamorphic>
					<alphatype>none</alphatype>
					<masterclipid>MVI_7681 1</masterclipid>
					<logginginfo>
						<scene/>
						<shottake/>
						<lognote/>
						<good>FALSE</good>
					</logginginfo>
					<labels>
						<label2/>
					</labels>
					<comments>
						<mastercomment1/>
						<mastercomment2/>
						<mastercomment3/>
						<mastercomment4/>
					</comments>
					<file id="MVI_7681 2"/>
					<marker>
						<name>drawing system</name>
						<comment>experimentation&#13;mind and hand&#13;intuition,&#13;heuristics,&#13;art and experience,&#13;drawing,&#13;touch,&#13;link: Casey "branching off",</comment>
						<color>
							<alpha>0</alpha>
							<red>255</red>
							<green>0</green>
							<blue>0</blue>
						</color>
						<in>10019</in>
						<out>-1</out>
					</marker>
					<marker>
						<name>originality</name>
						<comment>newness,old media,new media,originality,limits of the computer,beautiful exhuberance,beauty,visual culture, link:JTNimoy - </comment>
						<color>
							<alpha>0</alpha>
							<red>255</red>
							<green>0</green>
							<blue>0</blue>
						</color>
						<in>13818</in>
						<out>-1</out>
					</marker>
					<marker>
						<name>Marker 15</name>
						<comment/>
						<color>
							<alpha>0</alpha>
							<red>255</red>
							<green>0</green>
							<blue>0</blue>
						</color>
						<in>13819</in>
						<out>15320</out>
					</marker>
					<marker>
						<name>Marker 16</name>
						<comment>creative coding,&#13;new media,&#13;newness,&#13;originality,&#13;repetition,&#13;homogeneity,&#13;trends,</comment>
						<color>
							<alpha>0</alpha>
							<red>255</red>
							<green>0</green>
							<blue>0</blue>
						</color>
						<in>13820</in>
						<out>-1</out>
					</marker>
					<filter>
						<enabled>TRUE</enabled>
						<start>-1</start>
						<end>-1</end>
						<effect>
							<name>Color Corrector</name>
							<effectid>Color Corrector</effectid>
							<effectcategory>Color Correction</effectcategory>
							<effecttype>filter</effecttype>
							<mediatype>video</mediatype>
							<parameter>
								<parameterid>dispmode</parameterid>
								<name>Display Mode</name>
								<valuemin>1</valuemin>
								<valuemax>3</valuemax>
								<valuelist>
									<valueentry>
										<name>Final</name>
										<value>1</value>
									</valueentry>
									<valueentry>
										<name>Matte</name>
										<value>2</value>
									</valueentry>
									<valueentry>
										<name>Source</name>
										<value>3</value>
									</valueentry>
								</valuelist>
								<value>1</value>
							</parameter>
							<parameter>
								<parameterid>label1</parameterid>
								<name>Level Controls</name>
								<value/>
							</parameter>
							<parameter>
								<parameterid>highlights</parameterid>
								<name>Highlights</name>
								<valuemin>64</valuemin>
								<valuemax>509</valuemax>
								<value>268</value>
							</parameter>
							<parameter>
								<parameterid>mids</parameterid>
								<name>Mids</name>
								<valuemin>0</valuemin>
								<valuemax>200</valuemax>
								<value>104</value>
							</parameter>
							<parameter>
								<parameterid>blacklevel</parameterid>
								<name>Blacks</name>
								<valuemin>-196</valuemin>
								<valuemax>254</valuemax>
								<value>11</value>
							</parameter>
							<parameter>
								<parameterid>label2</parameterid>
								<name>Color Balance</name>
								<value/>
							</parameter>
							<parameter>
								<parameterid>hue</parameterid>
								<name>Angle</name>
								<valuemin>-180</valuemin>
								<valuemax>180</valuemax>
								<value>-33</value>
							</parameter>
							<parameter>
								<parameterid>mag</parameterid>
								<name>Magnitude</name>
								<valuemin>0</valuemin>
								<valuemax>200</valuemax>
								<value>0</value>
							</parameter>
							<parameter>
								<parameterid>label4</parameterid>
								<name>Color Controls</name>
								<value/>
							</parameter>
							<parameter>
								<parameterid>chroma</parameterid>
								<name>Saturation</name>
								<valuemin>0</valuemin>
								<valuemax>200</valuemax>
								<value>100</value>
							</parameter>
							<parameter>
								<parameterid>phase</parameterid>
								<name>Phase shift</name>
								<valuemin>-180</valuemin>
								<valuemax>180</valuemax>
								<value>0</value>
							</parameter>
							<parameter>
								<parameterid>label5</parameterid>
								<name>Limit Effect Controls</name>
								<value/>
							</parameter>
							<parameter>
								<parameterid>dochroma</parameterid>
								<name>Limit on Chroma</name>
								<value>FALSE</value>
							</parameter>
							<parameter>
								<parameterid>centerang</parameterid>
								<name>Chroma Center</name>
								<valuemin>-760</valuemin>
								<valuemax>760</valuemax>
								<value>-110</value>
							</parameter>
							<parameter>
								<parameterid>chromawidth</parameterid>
								<name>Chroma Width</name>
								<valuemin>0</valuemin>
								<valuemax>360</valuemax>
								<value>15</value>
							</parameter>
							<parameter>
								<parameterid>chromasoft</parameterid>
								<name>Chroma Softness</name>
								<valuemin>0</valuemin>
								<valuemax>180</valuemax>
								<value>10</value>
							</parameter>
							<parameter>
								<parameterid>dosat</parameterid>
								<name>Limit on Saturation</name>
								<value>FALSE</value>
							</parameter>
							<parameter>
								<parameterid>satmin</parameterid>
								<name>Sat. Minimum</name>
								<valuemin>0</valuemin>
								<valuemax>125</valuemax>
								<value>35</value>
							</parameter>
							<parameter>
								<parameterid>satwidth</parameterid>
								<name>Sat. Width</name>
								<valuemin>0</valuemin>
								<valuemax>125</valuemax>
								<value>40</value>
							</parameter>
							<parameter>
								<parameterid>satsoft</parameterid>
								<name>Sat. Softness</name>
								<valuemin>0</valuemin>
								<valuemax>125</valuemax>
								<value>20</value>
							</parameter>
							<parameter>
								<parameterid>doluma</parameterid>
								<name>Limit on Luma</name>
								<value>FALSE</value>
							</parameter>
							<parameter>
								<parameterid>lumamin</parameterid>
								<name>Luma Minimum</name>
								<valuemin>0</valuemin>
								<valuemax>120</valuemax>
								<value>0</value>
							</parameter>
							<parameter>
								<parameterid>lumawidth</parameterid>
								<name>Luma Width</name>
								<valuemin>0</valuemin>
								<valuemax>120</valuemax>
								<value>40</value>
							</parameter>
							<parameter>
								<parameterid>lumasoft</parameterid>
								<name>Luma Softness</name>
								<valuemin>0</valuemin>
								<valuemax>120</valuemax>
								<value>20</value>
							</parameter>
							<parameter>
								<parameterid>label6</parameterid>
								<name>Edge Control</name>
								<value/>
							</parameter>
							<parameter>
								<parameterid>edgethin</parameterid>
								<name>Thin/Spread</name>
								<valuemin>-100</valuemin>
								<valuemax>100</valuemax>
								<value>0</value>
							</parameter>
							<parameter>
								<parameterid>edgefeather</parameterid>
								<name>Softening</name>
								<valuemin>0</valuemin>
								<valuemax>100</valuemax>
								<value>0</value>
							</parameter>
							<parameter>
								<parameterid>label7</parameterid>
								<name>Mask Control</name>
								<value/>
							</parameter>
							<parameter>
								<parameterid>invertsel</parameterid>
								<name>Invert</name>
								<value>FALSE</value>
							</parameter>
							<parameter>
								<parameterid>debugshow</parameterid>
								<name>Show Stats</name>
								<value>FALSE</value>
							</parameter>
						</effect>
					</filter>
					<filter>
						<enabled>TRUE</enabled>
						<start>-1</start>
						<end>-1</end>
						<effect>
							<name>RGB Balance</name>
							<effectid>RGB Balance</effectid>
							<effectcategory>Color Correction</effectcategory>
							<effecttype>filter</effecttype>
							<mediatype>video</mediatype>
							<parameter>
								<parameterid>label1</parameterid>
								<name>Reds</name>
								<value/>
							</parameter>
							<parameter>
								<parameterid>rhighlights</parameterid>
								<name>Highlights</name>
								<valuemin>64</valuemin>
								<valuemax>509</valuemax>
								<value>255</value>
							</parameter>
							<parameter>
								<parameterid>rgamma</parameterid>
								<name>Midtones</name>
								<valuemin>0</valuemin>
								<valuemax>200</valuemax>
								<value>100</value>
							</parameter>
							<parameter>
								<parameterid>rblacklevel</parameterid>
								<name>Blacks</name>
								<valuemin>-196</valuemin>
								<valuemax>254</valuemax>
								<value>0</value>
							</parameter>
							<parameter>
								<parameterid>label2</parameterid>
								<name>Greens</name>
								<value/>
							</parameter>
							<parameter>
								<parameterid>ghighlights</parameterid>
								<name>Highlights</name>
								<valuemin>64</valuemin>
								<valuemax>509</valuemax>
								<value>255</value>
							</parameter>
							<parameter>
								<parameterid>ggamma</parameterid>
								<name>Midtones</name>
								<valuemin>0</valuemin>
								<valuemax>200</valuemax>
								<value>100</value>
							</parameter>
							<parameter>
								<parameterid>gblacklevel</parameterid>
								<name>Blacks</name>
								<valuemin>-196</valuemin>
								<valuemax>254</valuemax>
								<value>0</value>
							</parameter>
							<parameter>
								<parameterid>label3</parameterid>
								<name>Blues</name>
								<value/>
							</parameter>
							<parameter>
								<parameterid>bhighlights</parameterid>
								<name>Highlights</name>
								<valuemin>64</valuemin>
								<valuemax>509</valuemax>
								<value>313</value>
							</parameter>
							<parameter>
								<parameterid>bgamma</parameterid>
								<name>Midtones</name>
								<valuemin>0</valuemin>
								<valuemax>200</valuemax>
								<value>100</value>
							</parameter>
							<parameter>
								<parameterid>bblacklevel</parameterid>
								<name>Blacks</name>
								<valuemin>-196</valuemin>
								<valuemax>254</valuemax>
								<value>0</value>
							</parameter>
						</effect>
					</filter>
					<filter>
						<effect>
							<name>Basic Motion</name>
							<effectid>basic</effectid>
							<effectcategory>motion</effectcategory>
							<effecttype>motion</effecttype>
							<mediatype>video</mediatype>
							<parameter>
								<parameterid>center</parameterid>
								<name>Center</name>
								<value>
									<horiz>0</horiz>
									<vert>0.00555556</vert>
								</value>
							</parameter>
						</effect>
					</filter>
					<sourcetrack>
						<mediatype>video</mediatype>
					</sourcetrack>
					<fielddominance>none</fielddominance>
					<itemhistory>
						<uuid>94217DC0-AF3D-4DA8-B090-91D004C8D9C5</uuid>
						<uuid>A987E8FB-A443-4824-899E-DAB28F4A3286</uuid>
					</itemhistory>
				</clipitem>
				<clipitem id="MVI_7681 12">
					<name>MVI_7681</name>
					<duration>15985</duration>
					<rate>
						<ntsc>TRUE</ntsc>
						<timebase>24</timebase>
					</rate>
					<in>9699</in>
					<out>12761</out>
					<start>22651</start>
					<end>25713</end>
					<pixelaspectratio>Square</pixelaspectratio>
					<enabled>TRUE</enabled>
					<anamorphic>FALSE</anamorphic>
					<alphatype>none</alphatype>
					<masterclipid>MVI_7681 1</masterclipid>
					<logginginfo>
						<scene/>
						<shottake/>
						<lognote/>
						<good>FALSE</good>
					</logginginfo>
					<labels>
						<label2/>
					</labels>
					<comments>
						<mastercomment1/>
						<mastercomment2/>
						<mastercomment3/>
						<mastercomment4/>
					</comments>
					<file id="MVI_7681 2"/>
					<marker>
						<name>drawing system</name>
						<comment>experimentation&#13;mind and hand&#13;intuition,&#13;heuristics,&#13;art and experience,&#13;drawing,&#13;touch,&#13;link: Casey "branching off",</comment>
						<color>
							<alpha>0</alpha>
							<red>255</red>
							<green>0</green>
							<blue>0</blue>
						</color>
						<in>10019</in>
						<out>-1</out>
					</marker>
					<marker>
						<name>originality</name>
						<comment>newness,old media,new media,originality,limits of the computer,beautiful exhuberance,beauty,visual culture, link:JTNimoy - </comment>
						<color>
							<alpha>0</alpha>
							<red>255</red>
							<green>0</green>
							<blue>0</blue>
						</color>
						<in>13818</in>
						<out>-1</out>
					</marker>
					<marker>
						<name>Marker 15</name>
						<comment/>
						<color>
							<alpha>0</alpha>
							<red>255</red>
							<green>0</green>
							<blue>0</blue>
						</color>
						<in>13819</in>
						<out>15320</out>
					</marker>
					<marker>
						<name>Marker 16</name>
						<comment>creative coding,&#13;new media,&#13;newness,&#13;originality,&#13;repetition,&#13;homogeneity,&#13;trends,</comment>
						<color>
							<alpha>0</alpha>
							<red>255</red>
							<green>0</green>
							<blue>0</blue>
						</color>
						<in>13820</in>
						<out>-1</out>
					</marker>
					<filter>
						<enabled>TRUE</enabled>
						<start>-1</start>
						<end>-1</end>
						<effect>
							<name>Color Corrector</name>
							<effectid>Color Corrector</effectid>
							<effectcategory>Color Correction</effectcategory>
							<effecttype>filter</effecttype>
							<mediatype>video</mediatype>
							<parameter>
								<parameterid>dispmode</parameterid>
								<name>Display Mode</name>
								<valuemin>1</valuemin>
								<valuemax>3</valuemax>
								<valuelist>
									<valueentry>
										<name>Final</name>
										<value>1</value>
									</valueentry>
									<valueentry>
										<name>Matte</name>
										<value>2</value>
									</valueentry>
									<valueentry>
										<name>Source</name>
										<value>3</value>
									</valueentry>
								</valuelist>
								<value>1</value>
							</parameter>
							<parameter>
								<parameterid>label1</parameterid>
								<name>Level Controls</name>
								<value/>
							</parameter>
							<parameter>
								<parameterid>highlights</parameterid>
								<name>Highlights</name>
								<valuemin>64</valuemin>
								<valuemax>509</valuemax>
								<value>268</value>
							</parameter>
							<parameter>
								<parameterid>mids</parameterid>
								<name>Mids</name>
								<valuemin>0</valuemin>
								<valuemax>200</valuemax>
								<value>104</value>
							</parameter>
							<parameter>
								<parameterid>blacklevel</parameterid>
								<name>Blacks</name>
								<valuemin>-196</valuemin>
								<valuemax>254</valuemax>
								<value>11</value>
							</parameter>
							<parameter>
								<parameterid>label2</parameterid>
								<name>Color Balance</name>
								<value/>
							</parameter>
							<parameter>
								<parameterid>hue</parameterid>
								<name>Angle</name>
								<valuemin>-180</valuemin>
								<valuemax>180</valuemax>
								<value>-33</value>
							</parameter>
							<parameter>
								<parameterid>mag</parameterid>
								<name>Magnitude</name>
								<valuemin>0</valuemin>
								<valuemax>200</valuemax>
								<value>0</value>
							</parameter>
							<parameter>
								<parameterid>label4</parameterid>
								<name>Color Controls</name>
								<value/>
							</parameter>
							<parameter>
								<parameterid>chroma</parameterid>
								<name>Saturation</name>
								<valuemin>0</valuemin>
								<valuemax>200</valuemax>
								<value>100</value>
							</parameter>
							<parameter>
								<parameterid>phase</parameterid>
								<name>Phase shift</name>
								<valuemin>-180</valuemin>
								<valuemax>180</valuemax>
								<value>0</value>
							</parameter>
							<parameter>
								<parameterid>label5</parameterid>
								<name>Limit Effect Controls</name>
								<value/>
							</parameter>
							<parameter>
								<parameterid>dochroma</parameterid>
								<name>Limit on Chroma</name>
								<value>FALSE</value>
							</parameter>
							<parameter>
								<parameterid>centerang</parameterid>
								<name>Chroma Center</name>
								<valuemin>-760</valuemin>
								<valuemax>760</valuemax>
								<value>-110</value>
							</parameter>
							<parameter>
								<parameterid>chromawidth</parameterid>
								<name>Chroma Width</name>
								<valuemin>0</valuemin>
								<valuemax>360</valuemax>
								<value>15</value>
							</parameter>
							<parameter>
								<parameterid>chromasoft</parameterid>
								<name>Chroma Softness</name>
								<valuemin>0</valuemin>
								<valuemax>180</valuemax>
								<value>10</value>
							</parameter>
							<parameter>
								<parameterid>dosat</parameterid>
								<name>Limit on Saturation</name>
								<value>FALSE</value>
							</parameter>
							<parameter>
								<parameterid>satmin</parameterid>
								<name>Sat. Minimum</name>
								<valuemin>0</valuemin>
								<valuemax>125</valuemax>
								<value>35</value>
							</parameter>
							<parameter>
								<parameterid>satwidth</parameterid>
								<name>Sat. Width</name>
								<valuemin>0</valuemin>
								<valuemax>125</valuemax>
								<value>40</value>
							</parameter>
							<parameter>
								<parameterid>satsoft</parameterid>
								<name>Sat. Softness</name>
								<valuemin>0</valuemin>
								<valuemax>125</valuemax>
								<value>20</value>
							</parameter>
							<parameter>
								<parameterid>doluma</parameterid>
								<name>Limit on Luma</name>
								<value>FALSE</value>
							</parameter>
							<parameter>
								<parameterid>lumamin</parameterid>
								<name>Luma Minimum</name>
								<valuemin>0</valuemin>
								<valuemax>120</valuemax>
								<value>0</value>
							</parameter>
							<parameter>
								<parameterid>lumawidth</parameterid>
								<name>Luma Width</name>
								<valuemin>0</valuemin>
								<valuemax>120</valuemax>
								<value>40</value>
							</parameter>
							<parameter>
								<parameterid>lumasoft</parameterid>
								<name>Luma Softness</name>
								<valuemin>0</valuemin>
								<valuemax>120</valuemax>
								<value>20</value>
							</parameter>
							<parameter>
								<parameterid>label6</parameterid>
								<name>Edge Control</name>
								<value/>
							</parameter>
							<parameter>
								<parameterid>edgethin</parameterid>
								<name>Thin/Spread</name>
								<valuemin>-100</valuemin>
								<valuemax>100</valuemax>
								<value>0</value>
							</parameter>
							<parameter>
								<parameterid>edgefeather</parameterid>
								<name>Softening</name>
								<valuemin>0</valuemin>
								<valuemax>100</valuemax>
								<value>0</value>
							</parameter>
							<parameter>
								<parameterid>label7</parameterid>
								<name>Mask Control</name>
								<value/>
							</parameter>
							<parameter>
								<parameterid>invertsel</parameterid>
								<name>Invert</name>
								<value>FALSE</value>
							</parameter>
							<parameter>
								<parameterid>debugshow</parameterid>
								<name>Show Stats</name>
								<value>FALSE</value>
							</parameter>
						</effect>
					</filter>
					<filter>
						<enabled>TRUE</enabled>
						<start>-1</start>
						<end>-1</end>
						<effect>
							<name>RGB Balance</name>
							<effectid>RGB Balance</effectid>
							<effectcategory>Color Correction</effectcategory>
							<effecttype>filter</effecttype>
							<mediatype>video</mediatype>
							<parameter>
								<parameterid>label1</parameterid>
								<name>Reds</name>
								<value/>
							</parameter>
							<parameter>
								<parameterid>rhighlights</parameterid>
								<name>Highlights</name>
								<valuemin>64</valuemin>
								<valuemax>509</valuemax>
								<value>255</value>
							</parameter>
							<parameter>
								<parameterid>rgamma</parameterid>
								<name>Midtones</name>
								<valuemin>0</valuemin>
								<valuemax>200</valuemax>
								<value>100</value>
							</parameter>
							<parameter>
								<parameterid>rblacklevel</parameterid>
								<name>Blacks</name>
								<valuemin>-196</valuemin>
								<valuemax>254</valuemax>
								<value>0</value>
							</parameter>
							<parameter>
								<parameterid>label2</parameterid>
								<name>Greens</name>
								<value/>
							</parameter>
							<parameter>
								<parameterid>ghighlights</parameterid>
								<name>Highlights</name>
								<valuemin>64</valuemin>
								<valuemax>509</valuemax>
								<value>255</value>
							</parameter>
							<parameter>
								<parameterid>ggamma</parameterid>
								<name>Midtones</name>
								<valuemin>0</valuemin>
								<valuemax>200</valuemax>
								<value>100</value>
							</parameter>
							<parameter>
								<parameterid>gblacklevel</parameterid>
								<name>Blacks</name>
								<valuemin>-196</valuemin>
								<valuemax>254</valuemax>
								<value>0</value>
							</parameter>
							<parameter>
								<parameterid>label3</parameterid>
								<name>Blues</name>
								<value/>
							</parameter>
							<parameter>
								<parameterid>bhighlights</parameterid>
								<name>Highlights</name>
								<valuemin>64</valuemin>
								<valuemax>509</valuemax>
								<value>313</value>
							</parameter>
							<parameter>
								<parameterid>bgamma</parameterid>
								<name>Midtones</name>
								<valuemin>0</valuemin>
								<valuemax>200</valuemax>
								<value>100</value>
							</parameter>
							<parameter>
								<parameterid>bblacklevel</parameterid>
								<name>Blacks</name>
								<valuemin>-196</valuemin>
								<valuemax>254</valuemax>
								<value>0</value>
							</parameter>
						</effect>
					</filter>
					<filter>
						<effect>
							<name>Basic Motion</name>
							<effectid>basic</effectid>
							<effectcategory>motion</effectcategory>
							<effecttype>motion</effecttype>
							<mediatype>video</mediatype>
							<parameter>
								<parameterid>center</parameterid>
								<name>Center</name>
								<value>
									<horiz>0</horiz>
									<vert>0.00555556</vert>
								</value>
							</parameter>
						</effect>
					</filter>
					<sourcetrack>
						<mediatype>video</mediatype>
					</sourcetrack>
					<fielddominance>none</fielddominance>
					<itemhistory>
						<uuid>E033C82A-3251-4C2F-9A2E-1ACD9667C7D2</uuid>
						<uuid>A987E8FB-A443-4824-899E-DAB28F4A3286</uuid>
					</itemhistory>
				</clipitem>
				<clipitem id="MVI_7681 13">
					<name>MVI_7681</name>
					<duration>15985</duration>
					<rate>
						<ntsc>TRUE</ntsc>
						<timebase>24</timebase>
					</rate>
					<in>12761</in>
					<out>15985</out>
					<start>25713</start>
					<end>28937</end>
					<pixelaspectratio>Square</pixelaspectratio>
					<enabled>TRUE</enabled>
					<anamorphic>FALSE</anamorphic>
					<alphatype>none</alphatype>
					<masterclipid>MVI_7681 1</masterclipid>
					<logginginfo>
						<scene/>
						<shottake/>
						<lognote/>
						<good>FALSE</good>
					</logginginfo>
					<labels>
						<label2/>
					</labels>
					<comments>
						<mastercomment1/>
						<mastercomment2/>
						<mastercomment3/>
						<mastercomment4/>
					</comments>
					<file id="MVI_7681 2"/>
					<marker>
						<name>drawing system</name>
						<comment>experimentation&#13;mind and hand&#13;intuition,&#13;heuristics,&#13;art and experience,&#13;drawing,&#13;touch,&#13;link: Casey "branching off",</comment>
						<color>
							<alpha>0</alpha>
							<red>255</red>
							<green>0</green>
							<blue>0</blue>
						</color>
						<in>10019</in>
						<out>-1</out>
					</marker>
					<marker>
						<name>originality</name>
						<comment>newness,old media,new media,originality,limits of the computer,beautiful exhuberance,beauty,visual culture, link:JTNimoy - </comment>
						<color>
							<alpha>0</alpha>
							<red>255</red>
							<green>0</green>
							<blue>0</blue>
						</color>
						<in>13818</in>
						<out>-1</out>
					</marker>
					<marker>
						<name>Marker 15</name>
						<comment/>
						<color>
							<alpha>0</alpha>
							<red>255</red>
							<green>0</green>
							<blue>0</blue>
						</color>
						<in>13819</in>
						<out>15320</out>
					</marker>
					<marker>
						<name>Marker 16</name>
						<comment>creative coding,&#13;new media,&#13;newness,&#13;originality,&#13;repetition,&#13;homogeneity,&#13;trends,</comment>
						<color>
							<alpha>0</alpha>
							<red>255</red>
							<green>0</green>
							<blue>0</blue>
						</color>
						<in>13820</in>
						<out>-1</out>
					</marker>
					<filter>
						<enabled>TRUE</enabled>
						<start>-1</start>
						<end>-1</end>
						<effect>
							<name>Color Corrector</name>
							<effectid>Color Corrector</effectid>
							<effectcategory>Color Correction</effectcategory>
							<effecttype>filter</effecttype>
							<mediatype>video</mediatype>
							<parameter>
								<parameterid>dispmode</parameterid>
								<name>Display Mode</name>
								<valuemin>1</valuemin>
								<valuemax>3</valuemax>
								<valuelist>
									<valueentry>
										<name>Final</name>
										<value>1</value>
									</valueentry>
									<valueentry>
										<name>Matte</name>
										<value>2</value>
									</valueentry>
									<valueentry>
										<name>Source</name>
										<value>3</value>
									</valueentry>
								</valuelist>
								<value>1</value>
							</parameter>
							<parameter>
								<parameterid>label1</parameterid>
								<name>Level Controls</name>
								<value/>
							</parameter>
							<parameter>
								<parameterid>highlights</parameterid>
								<name>Highlights</name>
								<valuemin>64</valuemin>
								<valuemax>509</valuemax>
								<value>268</value>
							</parameter>
							<parameter>
								<parameterid>mids</parameterid>
								<name>Mids</name>
								<valuemin>0</valuemin>
								<valuemax>200</valuemax>
								<value>104</value>
							</parameter>
							<parameter>
								<parameterid>blacklevel</parameterid>
								<name>Blacks</name>
								<valuemin>-196</valuemin>
								<valuemax>254</valuemax>
								<value>11</value>
							</parameter>
							<parameter>
								<parameterid>label2</parameterid>
								<name>Color Balance</name>
								<value/>
							</parameter>
							<parameter>
								<parameterid>hue</parameterid>
								<name>Angle</name>
								<valuemin>-180</valuemin>
								<valuemax>180</valuemax>
								<value>-33</value>
							</parameter>
							<parameter>
								<parameterid>mag</parameterid>
								<name>Magnitude</name>
								<valuemin>0</valuemin>
								<valuemax>200</valuemax>
								<value>0</value>
							</parameter>
							<parameter>
								<parameterid>label4</parameterid>
								<name>Color Controls</name>
								<value/>
							</parameter>
							<parameter>
								<parameterid>chroma</parameterid>
								<name>Saturation</name>
								<valuemin>0</valuemin>
								<valuemax>200</valuemax>
								<value>100</value>
							</parameter>
							<parameter>
								<parameterid>phase</parameterid>
								<name>Phase shift</name>
								<valuemin>-180</valuemin>
								<valuemax>180</valuemax>
								<value>0</value>
							</parameter>
							<parameter>
								<parameterid>label5</parameterid>
								<name>Limit Effect Controls</name>
								<value/>
							</parameter>
							<parameter>
								<parameterid>dochroma</parameterid>
								<name>Limit on Chroma</name>
								<value>FALSE</value>
							</parameter>
							<parameter>
								<parameterid>centerang</parameterid>
								<name>Chroma Center</name>
								<valuemin>-760</valuemin>
								<valuemax>760</valuemax>
								<value>-110</value>
							</parameter>
							<parameter>
								<parameterid>chromawidth</parameterid>
								<name>Chroma Width</name>
								<valuemin>0</valuemin>
								<valuemax>360</valuemax>
								<value>15</value>
							</parameter>
							<parameter>
								<parameterid>chromasoft</parameterid>
								<name>Chroma Softness</name>
								<valuemin>0</valuemin>
								<valuemax>180</valuemax>
								<value>10</value>
							</parameter>
							<parameter>
								<parameterid>dosat</parameterid>
								<name>Limit on Saturation</name>
								<value>FALSE</value>
							</parameter>
							<parameter>
								<parameterid>satmin</parameterid>
								<name>Sat. Minimum</name>
								<valuemin>0</valuemin>
								<valuemax>125</valuemax>
								<value>35</value>
							</parameter>
							<parameter>
								<parameterid>satwidth</parameterid>
								<name>Sat. Width</name>
								<valuemin>0</valuemin>
								<valuemax>125</valuemax>
								<value>40</value>
							</parameter>
							<parameter>
								<parameterid>satsoft</parameterid>
								<name>Sat. Softness</name>
								<valuemin>0</valuemin>
								<valuemax>125</valuemax>
								<value>20</value>
							</parameter>
							<parameter>
								<parameterid>doluma</parameterid>
								<name>Limit on Luma</name>
								<value>FALSE</value>
							</parameter>
							<parameter>
								<parameterid>lumamin</parameterid>
								<name>Luma Minimum</name>
								<valuemin>0</valuemin>
								<valuemax>120</valuemax>
								<value>0</value>
							</parameter>
							<parameter>
								<parameterid>lumawidth</parameterid>
								<name>Luma Width</name>
								<valuemin>0</valuemin>
								<valuemax>120</valuemax>
								<value>40</value>
							</parameter>
							<parameter>
								<parameterid>lumasoft</parameterid>
								<name>Luma Softness</name>
								<valuemin>0</valuemin>
								<valuemax>120</valuemax>
								<value>20</value>
							</parameter>
							<parameter>
								<parameterid>label6</parameterid>
								<name>Edge Control</name>
								<value/>
							</parameter>
							<parameter>
								<parameterid>edgethin</parameterid>
								<name>Thin/Spread</name>
								<valuemin>-100</valuemin>
								<valuemax>100</valuemax>
								<value>0</value>
							</parameter>
							<parameter>
								<parameterid>edgefeather</parameterid>
								<name>Softening</name>
								<valuemin>0</valuemin>
								<valuemax>100</valuemax>
								<value>0</value>
							</parameter>
							<parameter>
								<parameterid>label7</parameterid>
								<name>Mask Control</name>
								<value/>
							</parameter>
							<parameter>
								<parameterid>invertsel</parameterid>
								<name>Invert</name>
								<value>FALSE</value>
							</parameter>
							<parameter>
								<parameterid>debugshow</parameterid>
								<name>Show Stats</name>
								<value>FALSE</value>
							</parameter>
						</effect>
					</filter>
					<filter>
						<enabled>TRUE</enabled>
						<start>-1</start>
						<end>-1</end>
						<effect>
							<name>RGB Balance</name>
							<effectid>RGB Balance</effectid>
							<effectcategory>Color Correction</effectcategory>
							<effecttype>filter</effecttype>
							<mediatype>video</mediatype>
							<parameter>
								<parameterid>label1</parameterid>
								<name>Reds</name>
								<value/>
							</parameter>
							<parameter>
								<parameterid>rhighlights</parameterid>
								<name>Highlights</name>
								<valuemin>64</valuemin>
								<valuemax>509</valuemax>
								<value>255</value>
							</parameter>
							<parameter>
								<parameterid>rgamma</parameterid>
								<name>Midtones</name>
								<valuemin>0</valuemin>
								<valuemax>200</valuemax>
								<value>100</value>
							</parameter>
							<parameter>
								<parameterid>rblacklevel</parameterid>
								<name>Blacks</name>
								<valuemin>-196</valuemin>
								<valuemax>254</valuemax>
								<value>0</value>
							</parameter>
							<parameter>
								<parameterid>label2</parameterid>
								<name>Greens</name>
								<value/>
							</parameter>
							<parameter>
								<parameterid>ghighlights</parameterid>
								<name>Highlights</name>
								<valuemin>64</valuemin>
								<valuemax>509</valuemax>
								<value>255</value>
							</parameter>
							<parameter>
								<parameterid>ggamma</parameterid>
								<name>Midtones</name>
								<valuemin>0</valuemin>
								<valuemax>200</valuemax>
								<value>100</value>
							</parameter>
							<parameter>
								<parameterid>gblacklevel</parameterid>
								<name>Blacks</name>
								<valuemin>-196</valuemin>
								<valuemax>254</valuemax>
								<value>0</value>
							</parameter>
							<parameter>
								<parameterid>label3</parameterid>
								<name>Blues</name>
								<value/>
							</parameter>
							<parameter>
								<parameterid>bhighlights</parameterid>
								<name>Highlights</name>
								<valuemin>64</valuemin>
								<valuemax>509</valuemax>
								<value>313</value>
							</parameter>
							<parameter>
								<parameterid>bgamma</parameterid>
								<name>Midtones</name>
								<valuemin>0</valuemin>
								<valuemax>200</valuemax>
								<value>100</value>
							</parameter>
							<parameter>
								<parameterid>bblacklevel</parameterid>
								<name>Blacks</name>
								<valuemin>-196</valuemin>
								<valuemax>254</valuemax>
								<value>0</value>
							</parameter>
						</effect>
					</filter>
					<filter>
						<effect>
							<name>Basic Motion</name>
							<effectid>basic</effectid>
							<effectcategory>motion</effectcategory>
							<effecttype>motion</effecttype>
							<mediatype>video</mediatype>
							<parameter>
								<parameterid>center</parameterid>
								<name>Center</name>
								<value>
									<horiz>0</horiz>
									<vert>0.00555556</vert>
								</value>
							</parameter>
						</effect>
					</filter>
					<sourcetrack>
						<mediatype>video</mediatype>
					</sourcetrack>
					<fielddominance>none</fielddominance>
					<itemhistory>
						<uuid>A4B9E9EB-D6C9-444F-904A-F71517523468</uuid>
						<uuid>A987E8FB-A443-4824-899E-DAB28F4A3286</uuid>
					</itemhistory>
				</clipitem>
				<clipitem id="MVI_7682 5">
					<name>MVI_7682</name>
					<duration>8136</duration>
					<rate>
						<ntsc>TRUE</ntsc>
						<timebase>24</timebase>
					</rate>
					<in>0</in>
					<out>8130</out>
					<start>28937</start>
					<end>37067</end>
					<pixelaspectratio>Square</pixelaspectratio>
					<enabled>TRUE</enabled>
					<anamorphic>FALSE</anamorphic>
					<alphatype>none</alphatype>
					<masterclipid>MVI_7682 1</masterclipid>
					<logginginfo>
						<scene/>
						<shottake/>
						<lognote/>
						<good>FALSE</good>
					</logginginfo>
					<labels>
						<label2/>
					</labels>
					<comments>
						<mastercomment1/>
						<mastercomment2/>
						<mastercomment3/>
						<mastercomment4/>
					</comments>
					<file id="MVI_7682 2"/>
					<marker>
						<name>Artist coders coder artists</name>
						<comment>hybridity,&#13;interdisciplinarity,&#13;art and code&#13;</comment>
						<color>
							<alpha>0</alpha>
							<red>255</red>
							<green>0</green>
							<blue>0</blue>
						</color>
						<in>1865</in>
						<out>2082</out>
					</marker>
					<marker>
						<name>Constraints</name>
						<comment>constraints,&#13;students,&#13;kill the master,&#13;</comment>
						<color>
							<alpha>0</alpha>
							<red>255</red>
							<green>0</green>
							<blue>0</blue>
						</color>
						<in>5745</in>
						<out>5949</out>
					</marker>
					<marker>
						<name>Processing community</name>
						<comment>community,&#13;open source,&#13;sharing&#13;</comment>
						<color>
							<alpha>0</alpha>
							<red>255</red>
							<green>0</green>
							<blue>0</blue>
						</color>
						<in>7853</in>
						<out>8132</out>
					</marker>
					<filter>
						<enabled>TRUE</enabled>
						<start>-1</start>
						<end>-1</end>
						<effect>
							<name>Color Corrector</name>
							<effectid>Color Corrector</effectid>
							<effectcategory>Color Correction</effectcategory>
							<effecttype>filter</effecttype>
							<mediatype>video</mediatype>
							<parameter>
								<parameterid>dispmode</parameterid>
								<name>Display Mode</name>
								<valuemin>1</valuemin>
								<valuemax>3</valuemax>
								<valuelist>
									<valueentry>
										<name>Final</name>
										<value>1</value>
									</valueentry>
									<valueentry>
										<name>Matte</name>
										<value>2</value>
									</valueentry>
									<valueentry>
										<name>Source</name>
										<value>3</value>
									</valueentry>
								</valuelist>
								<value>1</value>
							</parameter>
							<parameter>
								<parameterid>label1</parameterid>
								<name>Level Controls</name>
								<value/>
							</parameter>
							<parameter>
								<parameterid>highlights</parameterid>
								<name>Highlights</name>
								<valuemin>64</valuemin>
								<valuemax>509</valuemax>
								<value>268</value>
							</parameter>
							<parameter>
								<parameterid>mids</parameterid>
								<name>Mids</name>
								<valuemin>0</valuemin>
								<valuemax>200</valuemax>
								<value>112</value>
							</parameter>
							<parameter>
								<parameterid>blacklevel</parameterid>
								<name>Blacks</name>
								<valuemin>-196</valuemin>
								<valuemax>254</valuemax>
								<value>15</value>
							</parameter>
							<parameter>
								<parameterid>label2</parameterid>
								<name>Color Balance</name>
								<value/>
							</parameter>
							<parameter>
								<parameterid>hue</parameterid>
								<name>Angle</name>
								<valuemin>-180</valuemin>
								<valuemax>180</valuemax>
								<value>-33</value>
							</parameter>
							<parameter>
								<parameterid>mag</parameterid>
								<name>Magnitude</name>
								<valuemin>0</valuemin>
								<valuemax>200</valuemax>
								<value>0</value>
							</parameter>
							<parameter>
								<parameterid>label4</parameterid>
								<name>Color Controls</name>
								<value/>
							</parameter>
							<parameter>
								<parameterid>chroma</parameterid>
								<name>Saturation</name>
								<valuemin>0</valuemin>
								<valuemax>200</valuemax>
								<value>100</value>
							</parameter>
							<parameter>
								<parameterid>phase</parameterid>
								<name>Phase shift</name>
								<valuemin>-180</valuemin>
								<valuemax>180</valuemax>
								<value>0</value>
							</parameter>
							<parameter>
								<parameterid>label5</parameterid>
								<name>Limit Effect Controls</name>
								<value/>
							</parameter>
							<parameter>
								<parameterid>dochroma</parameterid>
								<name>Limit on Chroma</name>
								<value>FALSE</value>
							</parameter>
							<parameter>
								<parameterid>centerang</parameterid>
								<name>Chroma Center</name>
								<valuemin>-760</valuemin>
								<valuemax>760</valuemax>
								<value>-110</value>
							</parameter>
							<parameter>
								<parameterid>chromawidth</parameterid>
								<name>Chroma Width</name>
								<valuemin>0</valuemin>
								<valuemax>360</valuemax>
								<value>15</value>
							</parameter>
							<parameter>
								<parameterid>chromasoft</parameterid>
								<name>Chroma Softness</name>
								<valuemin>0</valuemin>
								<valuemax>180</valuemax>
								<value>10</value>
							</parameter>
							<parameter>
								<parameterid>dosat</parameterid>
								<name>Limit on Saturation</name>
								<value>FALSE</value>
							</parameter>
							<parameter>
								<parameterid>satmin</parameterid>
								<name>Sat. Minimum</name>
								<valuemin>0</valuemin>
								<valuemax>125</valuemax>
								<value>35</value>
							</parameter>
							<parameter>
								<parameterid>satwidth</parameterid>
								<name>Sat. Width</name>
								<valuemin>0</valuemin>
								<valuemax>125</valuemax>
								<value>40</value>
							</parameter>
							<parameter>
								<parameterid>satsoft</parameterid>
								<name>Sat. Softness</name>
								<valuemin>0</valuemin>
								<valuemax>125</valuemax>
								<value>20</value>
							</parameter>
							<parameter>
								<parameterid>doluma</parameterid>
								<name>Limit on Luma</name>
								<value>FALSE</value>
							</parameter>
							<parameter>
								<parameterid>lumamin</parameterid>
								<name>Luma Minimum</name>
								<valuemin>0</valuemin>
								<valuemax>120</valuemax>
								<value>0</value>
							</parameter>
							<parameter>
								<parameterid>lumawidth</parameterid>
								<name>Luma Width</name>
								<valuemin>0</valuemin>
								<valuemax>120</valuemax>
								<value>40</value>
							</parameter>
							<parameter>
								<parameterid>lumasoft</parameterid>
								<name>Luma Softness</name>
								<valuemin>0</valuemin>
								<valuemax>120</valuemax>
								<value>20</value>
							</parameter>
							<parameter>
								<parameterid>label6</parameterid>
								<name>Edge Control</name>
								<value/>
							</parameter>
							<parameter>
								<parameterid>edgethin</parameterid>
								<name>Thin/Spread</name>
								<valuemin>-100</valuemin>
								<valuemax>100</valuemax>
								<value>0</value>
							</parameter>
							<parameter>
								<parameterid>edgefeather</parameterid>
								<name>Softening</name>
								<valuemin>0</valuemin>
								<valuemax>100</valuemax>
								<value>0</value>
							</parameter>
							<parameter>
								<parameterid>label7</parameterid>
								<name>Mask Control</name>
								<value/>
							</parameter>
							<parameter>
								<parameterid>invertsel</parameterid>
								<name>Invert</name>
								<value>FALSE</value>
							</parameter>
							<parameter>
								<parameterid>debugshow</parameterid>
								<name>Show Stats</name>
								<value>FALSE</value>
							</parameter>
						</effect>
					</filter>
					<filter>
						<enabled>TRUE</enabled>
						<start>-1</start>
						<end>-1</end>
						<effect>
							<name>RGB Balance</name>
							<effectid>RGB Balance</effectid>
							<effectcategory>Color Correction</effectcategory>
							<effecttype>filter</effecttype>
							<mediatype>video</mediatype>
							<parameter>
								<parameterid>label1</parameterid>
								<name>Reds</name>
								<value/>
							</parameter>
							<parameter>
								<parameterid>rhighlights</parameterid>
								<name>Highlights</name>
								<valuemin>64</valuemin>
								<valuemax>509</valuemax>
								<value>255</value>
							</parameter>
							<parameter>
								<parameterid>rgamma</parameterid>
								<name>Midtones</name>
								<valuemin>0</valuemin>
								<valuemax>200</valuemax>
								<value>100</value>
							</parameter>
							<parameter>
								<parameterid>rblacklevel</parameterid>
								<name>Blacks</name>
								<valuemin>-196</valuemin>
								<valuemax>254</valuemax>
								<value>0</value>
							</parameter>
							<parameter>
								<parameterid>label2</parameterid>
								<name>Greens</name>
								<value/>
							</parameter>
							<parameter>
								<parameterid>ghighlights</parameterid>
								<name>Highlights</name>
								<valuemin>64</valuemin>
								<valuemax>509</valuemax>
								<value>255</value>
							</parameter>
							<parameter>
								<parameterid>ggamma</parameterid>
								<name>Midtones</name>
								<valuemin>0</valuemin>
								<valuemax>200</valuemax>
								<value>100</value>
							</parameter>
							<parameter>
								<parameterid>gblacklevel</parameterid>
								<name>Blacks</name>
								<valuemin>-196</valuemin>
								<valuemax>254</valuemax>
								<value>0</value>
							</parameter>
							<parameter>
								<parameterid>label3</parameterid>
								<name>Blues</name>
								<value/>
							</parameter>
							<parameter>
								<parameterid>bhighlights</parameterid>
								<name>Highlights</name>
								<valuemin>64</valuemin>
								<valuemax>509</valuemax>
								<value>313</value>
							</parameter>
							<parameter>
								<parameterid>bgamma</parameterid>
								<name>Midtones</name>
								<valuemin>0</valuemin>
								<valuemax>200</valuemax>
								<value>100</value>
							</parameter>
							<parameter>
								<parameterid>bblacklevel</parameterid>
								<name>Blacks</name>
								<valuemin>-196</valuemin>
								<valuemax>254</valuemax>
								<value>0</value>
							</parameter>
						</effect>
					</filter>
					<sourcetrack>
						<mediatype>video</mediatype>
					</sourcetrack>
					<fielddominance>none</fielddominance>
					<itemhistory>
						<uuid>F70DE781-9268-466F-92EA-2E07389AD07B</uuid>
					</itemhistory>
				</clipitem>
				<clipitem id="MVI_7683 5">
					<name>MVI_7683</name>
					<duration>15370</duration>
					<rate>
						<ntsc>TRUE</ntsc>
						<timebase>24</timebase>
					</rate>
					<in>0</in>
					<out>15370</out>
					<start>37073</start>
					<end>52443</end>
					<pixelaspectratio>Square</pixelaspectratio>
					<enabled>TRUE</enabled>
					<anamorphic>FALSE</anamorphic>
					<alphatype>none</alphatype>
					<masterclipid>MVI_7683 1</masterclipid>
					<logginginfo>
						<scene/>
						<shottake/>
						<lognote/>
						<good>FALSE</good>
					</logginginfo>
					<labels>
						<label2/>
					</labels>
					<comments>
						<mastercomment1/>
						<mastercomment2/>
						<mastercomment3/>
						<mastercomment4/>
					</comments>
					<file id="MVI_7683 2"/>
					<marker>
						<name>Marker 5</name>
						<comment/>
						<color>
							<alpha>0</alpha>
							<red>255</red>
							<green>0</green>
							<blue>0</blue>
						</color>
						<in>6224</in>
						<out>6631</out>
					</marker>
					<marker>
						<name>sharing part 2</name>
						<comment>How has sharing of code changed the nature of creativity?&#13;sharing,&#13;doing with others,&#13;learning</comment>
						<color>
							<alpha>0</alpha>
							<red>255</red>
							<green>0</green>
							<blue>0</blue>
						</color>
						<in>6225</in>
						<out>-1</out>
					</marker>
					<marker>
						<name>applying design to leadership</name>
						<comment>leadership,&#13;social engineering,&#13;social dynamics,&#13;</comment>
						<color>
							<alpha>0</alpha>
							<red>255</red>
							<green>0</green>
							<blue>0</blue>
						</color>
						<in>14220</in>
						<out>14665</out>
					</marker>
					<filter>
						<enabled>TRUE</enabled>
						<start>-1</start>
						<end>-1</end>
						<effect>
							<name>Color Corrector</name>
							<effectid>Color Corrector</effectid>
							<effectcategory>Color Correction</effectcategory>
							<effecttype>filter</effecttype>
							<mediatype>video</mediatype>
							<parameter>
								<parameterid>dispmode</parameterid>
								<name>Display Mode</name>
								<valuemin>1</valuemin>
								<valuemax>3</valuemax>
								<valuelist>
									<valueentry>
										<name>Final</name>
										<value>1</value>
									</valueentry>
									<valueentry>
										<name>Matte</name>
										<value>2</value>
									</valueentry>
									<valueentry>
										<name>Source</name>
										<value>3</value>
									</valueentry>
								</valuelist>
								<value>1</value>
							</parameter>
							<parameter>
								<parameterid>label1</parameterid>
								<name>Level Controls</name>
								<value/>
							</parameter>
							<parameter>
								<parameterid>highlights</parameterid>
								<name>Highlights</name>
								<valuemin>64</valuemin>
								<valuemax>509</valuemax>
								<value>268</value>
							</parameter>
							<parameter>
								<parameterid>mids</parameterid>
								<name>Mids</name>
								<valuemin>0</valuemin>
								<valuemax>200</valuemax>
								<value>112</value>
							</parameter>
							<parameter>
								<parameterid>blacklevel</parameterid>
								<name>Blacks</name>
								<valuemin>-196</valuemin>
								<valuemax>254</valuemax>
								<value>15</value>
							</parameter>
							<parameter>
								<parameterid>label2</parameterid>
								<name>Color Balance</name>
								<value/>
							</parameter>
							<parameter>
								<parameterid>hue</parameterid>
								<name>Angle</name>
								<valuemin>-180</valuemin>
								<valuemax>180</valuemax>
								<value>-33</value>
							</parameter>
							<parameter>
								<parameterid>mag</parameterid>
								<name>Magnitude</name>
								<valuemin>0</valuemin>
								<valuemax>200</valuemax>
								<value>0</value>
							</parameter>
							<parameter>
								<parameterid>label4</parameterid>
								<name>Color Controls</name>
								<value/>
							</parameter>
							<parameter>
								<parameterid>chroma</parameterid>
								<name>Saturation</name>
								<valuemin>0</valuemin>
								<valuemax>200</valuemax>
								<value>100</value>
							</parameter>
							<parameter>
								<parameterid>phase</parameterid>
								<name>Phase shift</name>
								<valuemin>-180</valuemin>
								<valuemax>180</valuemax>
								<value>0</value>
							</parameter>
							<parameter>
								<parameterid>label5</parameterid>
								<name>Limit Effect Controls</name>
								<value/>
							</parameter>
							<parameter>
								<parameterid>dochroma</parameterid>
								<name>Limit on Chroma</name>
								<value>FALSE</value>
							</parameter>
							<parameter>
								<parameterid>centerang</parameterid>
								<name>Chroma Center</name>
								<valuemin>-760</valuemin>
								<valuemax>760</valuemax>
								<value>-110</value>
							</parameter>
							<parameter>
								<parameterid>chromawidth</parameterid>
								<name>Chroma Width</name>
								<valuemin>0</valuemin>
								<valuemax>360</valuemax>
								<value>15</value>
							</parameter>
							<parameter>
								<parameterid>chromasoft</parameterid>
								<name>Chroma Softness</name>
								<valuemin>0</valuemin>
								<valuemax>180</valuemax>
								<value>10</value>
							</parameter>
							<parameter>
								<parameterid>dosat</parameterid>
								<name>Limit on Saturation</name>
								<value>FALSE</value>
							</parameter>
							<parameter>
								<parameterid>satmin</parameterid>
								<name>Sat. Minimum</name>
								<valuemin>0</valuemin>
								<valuemax>125</valuemax>
								<value>35</value>
							</parameter>
							<parameter>
								<parameterid>satwidth</parameterid>
								<name>Sat. Width</name>
								<valuemin>0</valuemin>
								<valuemax>125</valuemax>
								<value>40</value>
							</parameter>
							<parameter>
								<parameterid>satsoft</parameterid>
								<name>Sat. Softness</name>
								<valuemin>0</valuemin>
								<valuemax>125</valuemax>
								<value>20</value>
							</parameter>
							<parameter>
								<parameterid>doluma</parameterid>
								<name>Limit on Luma</name>
								<value>FALSE</value>
							</parameter>
							<parameter>
								<parameterid>lumamin</parameterid>
								<name>Luma Minimum</name>
								<valuemin>0</valuemin>
								<valuemax>120</valuemax>
								<value>0</value>
							</parameter>
							<parameter>
								<parameterid>lumawidth</parameterid>
								<name>Luma Width</name>
								<valuemin>0</valuemin>
								<valuemax>120</valuemax>
								<value>40</value>
							</parameter>
							<parameter>
								<parameterid>lumasoft</parameterid>
								<name>Luma Softness</name>
								<valuemin>0</valuemin>
								<valuemax>120</valuemax>
								<value>20</value>
							</parameter>
							<parameter>
								<parameterid>label6</parameterid>
								<name>Edge Control</name>
								<value/>
							</parameter>
							<parameter>
								<parameterid>edgethin</parameterid>
								<name>Thin/Spread</name>
								<valuemin>-100</valuemin>
								<valuemax>100</valuemax>
								<value>0</value>
							</parameter>
							<parameter>
								<parameterid>edgefeather</parameterid>
								<name>Softening</name>
								<valuemin>0</valuemin>
								<valuemax>100</valuemax>
								<value>0</value>
							</parameter>
							<parameter>
								<parameterid>label7</parameterid>
								<name>Mask Control</name>
								<value/>
							</parameter>
							<parameter>
								<parameterid>invertsel</parameterid>
								<name>Invert</name>
								<value>FALSE</value>
							</parameter>
							<parameter>
								<parameterid>debugshow</parameterid>
								<name>Show Stats</name>
								<value>FALSE</value>
							</parameter>
						</effect>
					</filter>
					<filter>
						<enabled>TRUE</enabled>
						<start>-1</start>
						<end>-1</end>
						<effect>
							<name>RGB Balance</name>
							<effectid>RGB Balance</effectid>
							<effectcategory>Color Correction</effectcategory>
							<effecttype>filter</effecttype>
							<mediatype>video</mediatype>
							<parameter>
								<parameterid>label1</parameterid>
								<name>Reds</name>
								<value/>
							</parameter>
							<parameter>
								<parameterid>rhighlights</parameterid>
								<name>Highlights</name>
								<valuemin>64</valuemin>
								<valuemax>509</valuemax>
								<value>255</value>
							</parameter>
							<parameter>
								<parameterid>rgamma</parameterid>
								<name>Midtones</name>
								<valuemin>0</valuemin>
								<valuemax>200</valuemax>
								<value>100</value>
							</parameter>
							<parameter>
								<parameterid>rblacklevel</parameterid>
								<name>Blacks</name>
								<valuemin>-196</valuemin>
								<valuemax>254</valuemax>
								<value>0</value>
							</parameter>
							<parameter>
								<parameterid>label2</parameterid>
								<name>Greens</name>
								<value/>
							</parameter>
							<parameter>
								<parameterid>ghighlights</parameterid>
								<name>Highlights</name>
								<valuemin>64</valuemin>
								<valuemax>509</valuemax>
								<value>255</value>
							</parameter>
							<parameter>
								<parameterid>ggamma</parameterid>
								<name>Midtones</name>
								<valuemin>0</valuemin>
								<valuemax>200</valuemax>
								<value>100</value>
							</parameter>
							<parameter>
								<parameterid>gblacklevel</parameterid>
								<name>Blacks</name>
								<valuemin>-196</valuemin>
								<valuemax>254</valuemax>
								<value>0</value>
							</parameter>
							<parameter>
								<parameterid>label3</parameterid>
								<name>Blues</name>
								<value/>
							</parameter>
							<parameter>
								<parameterid>bhighlights</parameterid>
								<name>Highlights</name>
								<valuemin>64</valuemin>
								<valuemax>509</valuemax>
								<value>313</value>
							</parameter>
							<parameter>
								<parameterid>bgamma</parameterid>
								<name>Midtones</name>
								<valuemin>0</valuemin>
								<valuemax>200</valuemax>
								<value>100</value>
							</parameter>
							<parameter>
								<parameterid>bblacklevel</parameterid>
								<name>Blacks</name>
								<valuemin>-196</valuemin>
								<valuemax>254</valuemax>
								<value>0</value>
							</parameter>
						</effect>
					</filter>
					<filter>
						<effect>
							<name>Basic Motion</name>
							<effectid>basic</effectid>
							<effectcategory>motion</effectcategory>
							<effecttype>motion</effecttype>
							<mediatype>video</mediatype>
							<parameter>
								<parameterid>center</parameterid>
								<name>Center</name>
								<value>
									<horiz>0</horiz>
									<vert>-0.000925926</vert>
								</value>
							</parameter>
						</effect>
					</filter>
					<sourcetrack>
						<mediatype>video</mediatype>
					</sourcetrack>
					<fielddominance>none</fielddominance>
					<itemhistory>
						<uuid>3E32CCA1-BF8F-4D47-9C26-EEFE6C2C982C</uuid>
						<uuid>9048F140-BC52-45AE-923F-BA1F284388CA</uuid>
					</itemhistory>
				</clipitem>
				<clipitem id="MVI_7684 5">
					<name>MVI_7684</name>
					<duration>17768</duration>
					<rate>
						<ntsc>TRUE</ntsc>
						<timebase>24</timebase>
					</rate>
					<in>1</in>
					<out>611</out>
					<start>52444</start>
					<end>53054</end>
					<pixelaspectratio>Square</pixelaspectratio>
					<enabled>TRUE</enabled>
					<anamorphic>FALSE</anamorphic>
					<alphatype>none</alphatype>
					<masterclipid>MVI_7684 1</masterclipid>
					<logginginfo>
						<scene/>
						<shottake/>
						<lognote/>
						<good>FALSE</good>
					</logginginfo>
					<labels>
						<label2/>
					</labels>
					<comments>
						<mastercomment1/>
						<mastercomment2/>
						<mastercomment3/>
						<mastercomment4/>
					</comments>
					<file id="MVI_7684 2"/>
					<marker>
						<name>post digital </name>
						<comment>What comes after digital?,&#13;question,&#13;</comment>
						<color>
							<alpha>0</alpha>
							<red>255</red>
							<green>0</green>
							<blue>0</blue>
						</color>
						<in>633</in>
						<out>1153</out>
					</marker>
					<marker>
						<name>All about the why?</name>
						<comment>why?,&#13;design and art,&#13;questions,&#13;</comment>
						<color>
							<alpha>0</alpha>
							<red>255</red>
							<green>0</green>
							<blue>0</blue>
						</color>
						<in>4511</in>
						<out>4728</out>
					</marker>
					<marker>
						<name>Slurpies and pizza</name>
						<comment>weird, funny, food</comment>
						<color>
							<alpha>0</alpha>
							<red>255</red>
							<green>0</green>
							<blue>0</blue>
						</color>
						<in>7330</in>
						<out>7930</out>
					</marker>
					<marker>
						<name>Clouds</name>
						<comment>what is clouds?,&#13;future of cinema,&#13;clouds,</comment>
						<color>
							<alpha>0</alpha>
							<red>255</red>
							<green>0</green>
							<blue>0</blue>
						</color>
						<in>11603</in>
						<out>12063</out>
					</marker>
					<marker>
						<name>about relationships</name>
						<comment/>
						<color>
							<alpha>0</alpha>
							<red>255</red>
							<green>0</green>
							<blue>0</blue>
						</color>
						<in>12389</in>
						<out>12708</out>
					</marker>
					<marker>
						<name>recording appalachian music</name>
						<comment>becoming more human,&#13;humanism,&#13;culture,&#13;post-digital,&#13;what you do with the tools,</comment>
						<color>
							<alpha>0</alpha>
							<red>255</red>
							<green>0</green>
							<blue>0</blue>
						</color>
						<in>12845</in>
						<out>14240</out>
					</marker>
					<marker>
						<name>Coding for humanity</name>
						<comment>program or be programmed,&#13;coding culture,&#13;own the tool,&#13;just a tool,&#13;people,&#13;humanism,</comment>
						<color>
							<alpha>0</alpha>
							<red>255</red>
							<green>0</green>
							<blue>0</blue>
						</color>
						<in>15927</in>
						<out>16984</out>
					</marker>
					<filter>
						<enabled>TRUE</enabled>
						<start>-1</start>
						<end>-1</end>
						<effect>
							<name>Color Corrector</name>
							<effectid>Color Corrector</effectid>
							<effectcategory>Color Correction</effectcategory>
							<effecttype>filter</effecttype>
							<mediatype>video</mediatype>
							<parameter>
								<parameterid>dispmode</parameterid>
								<name>Display Mode</name>
								<valuemin>1</valuemin>
								<valuemax>3</valuemax>
								<valuelist>
									<valueentry>
										<name>Final</name>
										<value>1</value>
									</valueentry>
									<valueentry>
										<name>Matte</name>
										<value>2</value>
									</valueentry>
									<valueentry>
										<name>Source</name>
										<value>3</value>
									</valueentry>
								</valuelist>
								<value>1</value>
							</parameter>
							<parameter>
								<parameterid>label1</parameterid>
								<name>Level Controls</name>
								<value/>
							</parameter>
							<parameter>
								<parameterid>highlights</parameterid>
								<name>Highlights</name>
								<valuemin>64</valuemin>
								<valuemax>509</valuemax>
								<value>268</value>
							</parameter>
							<parameter>
								<parameterid>mids</parameterid>
								<name>Mids</name>
								<valuemin>0</valuemin>
								<valuemax>200</valuemax>
								<value>112</value>
							</parameter>
							<parameter>
								<parameterid>blacklevel</parameterid>
								<name>Blacks</name>
								<valuemin>-196</valuemin>
								<valuemax>254</valuemax>
								<value>15</value>
							</parameter>
							<parameter>
								<parameterid>label2</parameterid>
								<name>Color Balance</name>
								<value/>
							</parameter>
							<parameter>
								<parameterid>hue</parameterid>
								<name>Angle</name>
								<valuemin>-180</valuemin>
								<valuemax>180</valuemax>
								<value>-33</value>
							</parameter>
							<parameter>
								<parameterid>mag</parameterid>
								<name>Magnitude</name>
								<valuemin>0</valuemin>
								<valuemax>200</valuemax>
								<value>0</value>
							</parameter>
							<parameter>
								<parameterid>label4</parameterid>
								<name>Color Controls</name>
								<value/>
							</parameter>
							<parameter>
								<parameterid>chroma</parameterid>
								<name>Saturation</name>
								<valuemin>0</valuemin>
								<valuemax>200</valuemax>
								<value>100</value>
							</parameter>
							<parameter>
								<parameterid>phase</parameterid>
								<name>Phase shift</name>
								<valuemin>-180</valuemin>
								<valuemax>180</valuemax>
								<value>0</value>
							</parameter>
							<parameter>
								<parameterid>label5</parameterid>
								<name>Limit Effect Controls</name>
								<value/>
							</parameter>
							<parameter>
								<parameterid>dochroma</parameterid>
								<name>Limit on Chroma</name>
								<value>FALSE</value>
							</parameter>
							<parameter>
								<parameterid>centerang</parameterid>
								<name>Chroma Center</name>
								<valuemin>-760</valuemin>
								<valuemax>760</valuemax>
								<value>-110</value>
							</parameter>
							<parameter>
								<parameterid>chromawidth</parameterid>
								<name>Chroma Width</name>
								<valuemin>0</valuemin>
								<valuemax>360</valuemax>
								<value>15</value>
							</parameter>
							<parameter>
								<parameterid>chromasoft</parameterid>
								<name>Chroma Softness</name>
								<valuemin>0</valuemin>
								<valuemax>180</valuemax>
								<value>10</value>
							</parameter>
							<parameter>
								<parameterid>dosat</parameterid>
								<name>Limit on Saturation</name>
								<value>FALSE</value>
							</parameter>
							<parameter>
								<parameterid>satmin</parameterid>
								<name>Sat. Minimum</name>
								<valuemin>0</valuemin>
								<valuemax>125</valuemax>
								<value>35</value>
							</parameter>
							<parameter>
								<parameterid>satwidth</parameterid>
								<name>Sat. Width</name>
								<valuemin>0</valuemin>
								<valuemax>125</valuemax>
								<value>40</value>
							</parameter>
							<parameter>
								<parameterid>satsoft</parameterid>
								<name>Sat. Softness</name>
								<valuemin>0</valuemin>
								<valuemax>125</valuemax>
								<value>20</value>
							</parameter>
							<parameter>
								<parameterid>doluma</parameterid>
								<name>Limit on Luma</name>
								<value>FALSE</value>
							</parameter>
							<parameter>
								<parameterid>lumamin</parameterid>
								<name>Luma Minimum</name>
								<valuemin>0</valuemin>
								<valuemax>120</valuemax>
								<value>0</value>
							</parameter>
							<parameter>
								<parameterid>lumawidth</parameterid>
								<name>Luma Width</name>
								<valuemin>0</valuemin>
								<valuemax>120</valuemax>
								<value>40</value>
							</parameter>
							<parameter>
								<parameterid>lumasoft</parameterid>
								<name>Luma Softness</name>
								<valuemin>0</valuemin>
								<valuemax>120</valuemax>
								<value>20</value>
							</parameter>
							<parameter>
								<parameterid>label6</parameterid>
								<name>Edge Control</name>
								<value/>
							</parameter>
							<parameter>
								<parameterid>edgethin</parameterid>
								<name>Thin/Spread</name>
								<valuemin>-100</valuemin>
								<valuemax>100</valuemax>
								<value>0</value>
							</parameter>
							<parameter>
								<parameterid>edgefeather</parameterid>
								<name>Softening</name>
								<valuemin>0</valuemin>
								<valuemax>100</valuemax>
								<value>0</value>
							</parameter>
							<parameter>
								<parameterid>label7</parameterid>
								<name>Mask Control</name>
								<value/>
							</parameter>
							<parameter>
								<parameterid>invertsel</parameterid>
								<name>Invert</name>
								<value>FALSE</value>
							</parameter>
							<parameter>
								<parameterid>debugshow</parameterid>
								<name>Show Stats</name>
								<value>FALSE</value>
							</parameter>
						</effect>
					</filter>
					<filter>
						<enabled>TRUE</enabled>
						<start>-1</start>
						<end>-1</end>
						<effect>
							<name>RGB Balance</name>
							<effectid>RGB Balance</effectid>
							<effectcategory>Color Correction</effectcategory>
							<effecttype>filter</effecttype>
							<mediatype>video</mediatype>
							<parameter>
								<parameterid>label1</parameterid>
								<name>Reds</name>
								<value/>
							</parameter>
							<parameter>
								<parameterid>rhighlights</parameterid>
								<name>Highlights</name>
								<valuemin>64</valuemin>
								<valuemax>509</valuemax>
								<value>255</value>
							</parameter>
							<parameter>
								<parameterid>rgamma</parameterid>
								<name>Midtones</name>
								<valuemin>0</valuemin>
								<valuemax>200</valuemax>
								<value>100</value>
							</parameter>
							<parameter>
								<parameterid>rblacklevel</parameterid>
								<name>Blacks</name>
								<valuemin>-196</valuemin>
								<valuemax>254</valuemax>
								<value>0</value>
							</parameter>
							<parameter>
								<parameterid>label2</parameterid>
								<name>Greens</name>
								<value/>
							</parameter>
							<parameter>
								<parameterid>ghighlights</parameterid>
								<name>Highlights</name>
								<valuemin>64</valuemin>
								<valuemax>509</valuemax>
								<value>255</value>
							</parameter>
							<parameter>
								<parameterid>ggamma</parameterid>
								<name>Midtones</name>
								<valuemin>0</valuemin>
								<valuemax>200</valuemax>
								<value>100</value>
							</parameter>
							<parameter>
								<parameterid>gblacklevel</parameterid>
								<name>Blacks</name>
								<valuemin>-196</valuemin>
								<valuemax>254</valuemax>
								<value>0</value>
							</parameter>
							<parameter>
								<parameterid>label3</parameterid>
								<name>Blues</name>
								<value/>
							</parameter>
							<parameter>
								<parameterid>bhighlights</parameterid>
								<name>Highlights</name>
								<valuemin>64</valuemin>
								<valuemax>509</valuemax>
								<value>313</value>
							</parameter>
							<parameter>
								<parameterid>bgamma</parameterid>
								<name>Midtones</name>
								<valuemin>0</valuemin>
								<valuemax>200</valuemax>
								<value>100</value>
							</parameter>
							<parameter>
								<parameterid>bblacklevel</parameterid>
								<name>Blacks</name>
								<valuemin>-196</valuemin>
								<valuemax>254</valuemax>
								<value>0</value>
							</parameter>
						</effect>
					</filter>
					<sourcetrack>
						<mediatype>video</mediatype>
					</sourcetrack>
					<link>
						<linkclipref>MVI_7684 5</linkclipref>
						<mediatype>video</mediatype>
						<trackindex>2</trackindex>
						<clipindex>6</clipindex>
					</link>
					<link>
						<linkclipref>MVI_7684 6</linkclipref>
						<mediatype>audio</mediatype>
						<trackindex>1</trackindex>
						<clipindex>10</clipindex>
						<groupindex>1</groupindex>
					</link>
					<link>
						<linkclipref>MVI_7684 7</linkclipref>
						<mediatype>audio</mediatype>
						<trackindex>2</trackindex>
						<clipindex>10</clipindex>
						<groupindex>1</groupindex>
					</link>
					<fielddominance>none</fielddominance>
					<itemhistory>
						<uuid>D51109AD-BB01-42C2-A9C2-027308EA8846</uuid>
						<uuid>742BBF06-0146-4C7B-AFB0-264E1DB60C6B</uuid>
						<uuid>23674ED4-9107-41CA-8846-05374CD29097</uuid>
					</itemhistory>
				</clipitem>
				<clipitem id="MVI_7684 8">
					<name>MVI_7684</name>
					<duration>17768</duration>
					<rate>
						<ntsc>TRUE</ntsc>
						<timebase>24</timebase>
					</rate>
					<in>611</in>
					<out>2059</out>
					<start>53054</start>
					<end>54502</end>
					<pixelaspectratio>Square</pixelaspectratio>
					<enabled>TRUE</enabled>
					<anamorphic>FALSE</anamorphic>
					<alphatype>none</alphatype>
					<masterclipid>MVI_7684 1</masterclipid>
					<logginginfo>
						<scene/>
						<shottake/>
						<lognote/>
						<good>FALSE</good>
					</logginginfo>
					<labels>
						<label2/>
					</labels>
					<comments>
						<mastercomment1/>
						<mastercomment2/>
						<mastercomment3/>
						<mastercomment4/>
					</comments>
					<file id="MVI_7684 2"/>
					<marker>
						<name>post digital </name>
						<comment>What comes after digital?,&#13;question,&#13;</comment>
						<color>
							<alpha>0</alpha>
							<red>255</red>
							<green>0</green>
							<blue>0</blue>
						</color>
						<in>633</in>
						<out>1153</out>
					</marker>
					<marker>
						<name>All about the why?</name>
						<comment>why?,&#13;design and art,&#13;questions,&#13;</comment>
						<color>
							<alpha>0</alpha>
							<red>255</red>
							<green>0</green>
							<blue>0</blue>
						</color>
						<in>4511</in>
						<out>4728</out>
					</marker>
					<marker>
						<name>Slurpies and pizza</name>
						<comment>weird, funny, food</comment>
						<color>
							<alpha>0</alpha>
							<red>255</red>
							<green>0</green>
							<blue>0</blue>
						</color>
						<in>7330</in>
						<out>7930</out>
					</marker>
					<marker>
						<name>Clouds</name>
						<comment>what is clouds?,&#13;future of cinema,&#13;clouds,</comment>
						<color>
							<alpha>0</alpha>
							<red>255</red>
							<green>0</green>
							<blue>0</blue>
						</color>
						<in>11603</in>
						<out>12063</out>
					</marker>
					<marker>
						<name>about relationships</name>
						<comment/>
						<color>
							<alpha>0</alpha>
							<red>255</red>
							<green>0</green>
							<blue>0</blue>
						</color>
						<in>12389</in>
						<out>12708</out>
					</marker>
					<marker>
						<name>recording appalachian music</name>
						<comment>becoming more human,&#13;humanism,&#13;culture,&#13;post-digital,&#13;what you do with the tools,</comment>
						<color>
							<alpha>0</alpha>
							<red>255</red>
							<green>0</green>
							<blue>0</blue>
						</color>
						<in>12845</in>
						<out>14240</out>
					</marker>
					<marker>
						<name>Coding for humanity</name>
						<comment>program or be programmed,&#13;coding culture,&#13;own the tool,&#13;just a tool,&#13;people,&#13;humanism,</comment>
						<color>
							<alpha>0</alpha>
							<red>255</red>
							<green>0</green>
							<blue>0</blue>
						</color>
						<in>15927</in>
						<out>16984</out>
					</marker>
					<filter>
						<enabled>TRUE</enabled>
						<start>-1</start>
						<end>-1</end>
						<effect>
							<name>Color Corrector</name>
							<effectid>Color Corrector</effectid>
							<effectcategory>Color Correction</effectcategory>
							<effecttype>filter</effecttype>
							<mediatype>video</mediatype>
							<parameter>
								<parameterid>dispmode</parameterid>
								<name>Display Mode</name>
								<valuemin>1</valuemin>
								<valuemax>3</valuemax>
								<valuelist>
									<valueentry>
										<name>Final</name>
										<value>1</value>
									</valueentry>
									<valueentry>
										<name>Matte</name>
										<value>2</value>
									</valueentry>
									<valueentry>
										<name>Source</name>
										<value>3</value>
									</valueentry>
								</valuelist>
								<value>1</value>
							</parameter>
							<parameter>
								<parameterid>label1</parameterid>
								<name>Level Controls</name>
								<value/>
							</parameter>
							<parameter>
								<parameterid>highlights</parameterid>
								<name>Highlights</name>
								<valuemin>64</valuemin>
								<valuemax>509</valuemax>
								<value>268</value>
							</parameter>
							<parameter>
								<parameterid>mids</parameterid>
								<name>Mids</name>
								<valuemin>0</valuemin>
								<valuemax>200</valuemax>
								<value>112</value>
							</parameter>
							<parameter>
								<parameterid>blacklevel</parameterid>
								<name>Blacks</name>
								<valuemin>-196</valuemin>
								<valuemax>254</valuemax>
								<value>15</value>
							</parameter>
							<parameter>
								<parameterid>label2</parameterid>
								<name>Color Balance</name>
								<value/>
							</parameter>
							<parameter>
								<parameterid>hue</parameterid>
								<name>Angle</name>
								<valuemin>-180</valuemin>
								<valuemax>180</valuemax>
								<value>-33</value>
							</parameter>
							<parameter>
								<parameterid>mag</parameterid>
								<name>Magnitude</name>
								<valuemin>0</valuemin>
								<valuemax>200</valuemax>
								<value>0</value>
							</parameter>
							<parameter>
								<parameterid>label4</parameterid>
								<name>Color Controls</name>
								<value/>
							</parameter>
							<parameter>
								<parameterid>chroma</parameterid>
								<name>Saturation</name>
								<valuemin>0</valuemin>
								<valuemax>200</valuemax>
								<value>100</value>
							</parameter>
							<parameter>
								<parameterid>phase</parameterid>
								<name>Phase shift</name>
								<valuemin>-180</valuemin>
								<valuemax>180</valuemax>
								<value>0</value>
							</parameter>
							<parameter>
								<parameterid>label5</parameterid>
								<name>Limit Effect Controls</name>
								<value/>
							</parameter>
							<parameter>
								<parameterid>dochroma</parameterid>
								<name>Limit on Chroma</name>
								<value>FALSE</value>
							</parameter>
							<parameter>
								<parameterid>centerang</parameterid>
								<name>Chroma Center</name>
								<valuemin>-760</valuemin>
								<valuemax>760</valuemax>
								<value>-110</value>
							</parameter>
							<parameter>
								<parameterid>chromawidth</parameterid>
								<name>Chroma Width</name>
								<valuemin>0</valuemin>
								<valuemax>360</valuemax>
								<value>15</value>
							</parameter>
							<parameter>
								<parameterid>chromasoft</parameterid>
								<name>Chroma Softness</name>
								<valuemin>0</valuemin>
								<valuemax>180</valuemax>
								<value>10</value>
							</parameter>
							<parameter>
								<parameterid>dosat</parameterid>
								<name>Limit on Saturation</name>
								<value>FALSE</value>
							</parameter>
							<parameter>
								<parameterid>satmin</parameterid>
								<name>Sat. Minimum</name>
								<valuemin>0</valuemin>
								<valuemax>125</valuemax>
								<value>35</value>
							</parameter>
							<parameter>
								<parameterid>satwidth</parameterid>
								<name>Sat. Width</name>
								<valuemin>0</valuemin>
								<valuemax>125</valuemax>
								<value>40</value>
							</parameter>
							<parameter>
								<parameterid>satsoft</parameterid>
								<name>Sat. Softness</name>
								<valuemin>0</valuemin>
								<valuemax>125</valuemax>
								<value>20</value>
							</parameter>
							<parameter>
								<parameterid>doluma</parameterid>
								<name>Limit on Luma</name>
								<value>FALSE</value>
							</parameter>
							<parameter>
								<parameterid>lumamin</parameterid>
								<name>Luma Minimum</name>
								<valuemin>0</valuemin>
								<valuemax>120</valuemax>
								<value>0</value>
							</parameter>
							<parameter>
								<parameterid>lumawidth</parameterid>
								<name>Luma Width</name>
								<valuemin>0</valuemin>
								<valuemax>120</valuemax>
								<value>40</value>
							</parameter>
							<parameter>
								<parameterid>lumasoft</parameterid>
								<name>Luma Softness</name>
								<valuemin>0</valuemin>
								<valuemax>120</valuemax>
								<value>20</value>
							</parameter>
							<parameter>
								<parameterid>label6</parameterid>
								<name>Edge Control</name>
								<value/>
							</parameter>
							<parameter>
								<parameterid>edgethin</parameterid>
								<name>Thin/Spread</name>
								<valuemin>-100</valuemin>
								<valuemax>100</valuemax>
								<value>0</value>
							</parameter>
							<parameter>
								<parameterid>edgefeather</parameterid>
								<name>Softening</name>
								<valuemin>0</valuemin>
								<valuemax>100</valuemax>
								<value>0</value>
							</parameter>
							<parameter>
								<parameterid>label7</parameterid>
								<name>Mask Control</name>
								<value/>
							</parameter>
							<parameter>
								<parameterid>invertsel</parameterid>
								<name>Invert</name>
								<value>FALSE</value>
							</parameter>
							<parameter>
								<parameterid>debugshow</parameterid>
								<name>Show Stats</name>
								<value>FALSE</value>
							</parameter>
						</effect>
					</filter>
					<filter>
						<enabled>TRUE</enabled>
						<start>-1</start>
						<end>-1</end>
						<effect>
							<name>RGB Balance</name>
							<effectid>RGB Balance</effectid>
							<effectcategory>Color Correction</effectcategory>
							<effecttype>filter</effecttype>
							<mediatype>video</mediatype>
							<parameter>
								<parameterid>label1</parameterid>
								<name>Reds</name>
								<value/>
							</parameter>
							<parameter>
								<parameterid>rhighlights</parameterid>
								<name>Highlights</name>
								<valuemin>64</valuemin>
								<valuemax>509</valuemax>
								<value>255</value>
							</parameter>
							<parameter>
								<parameterid>rgamma</parameterid>
								<name>Midtones</name>
								<valuemin>0</valuemin>
								<valuemax>200</valuemax>
								<value>100</value>
							</parameter>
							<parameter>
								<parameterid>rblacklevel</parameterid>
								<name>Blacks</name>
								<valuemin>-196</valuemin>
								<valuemax>254</valuemax>
								<value>0</value>
							</parameter>
							<parameter>
								<parameterid>label2</parameterid>
								<name>Greens</name>
								<value/>
							</parameter>
							<parameter>
								<parameterid>ghighlights</parameterid>
								<name>Highlights</name>
								<valuemin>64</valuemin>
								<valuemax>509</valuemax>
								<value>255</value>
							</parameter>
							<parameter>
								<parameterid>ggamma</parameterid>
								<name>Midtones</name>
								<valuemin>0</valuemin>
								<valuemax>200</valuemax>
								<value>100</value>
							</parameter>
							<parameter>
								<parameterid>gblacklevel</parameterid>
								<name>Blacks</name>
								<valuemin>-196</valuemin>
								<valuemax>254</valuemax>
								<value>0</value>
							</parameter>
							<parameter>
								<parameterid>label3</parameterid>
								<name>Blues</name>
								<value/>
							</parameter>
							<parameter>
								<parameterid>bhighlights</parameterid>
								<name>Highlights</name>
								<valuemin>64</valuemin>
								<valuemax>509</valuemax>
								<value>313</value>
							</parameter>
							<parameter>
								<parameterid>bgamma</parameterid>
								<name>Midtones</name>
								<valuemin>0</valuemin>
								<valuemax>200</valuemax>
								<value>100</value>
							</parameter>
							<parameter>
								<parameterid>bblacklevel</parameterid>
								<name>Blacks</name>
								<valuemin>-196</valuemin>
								<valuemax>254</valuemax>
								<value>0</value>
							</parameter>
						</effect>
					</filter>
					<sourcetrack>
						<mediatype>video</mediatype>
					</sourcetrack>
					<link>
						<linkclipref>MVI_7684 8</linkclipref>
						<mediatype>video</mediatype>
						<trackindex>2</trackindex>
						<clipindex>7</clipindex>
					</link>
					<link>
						<linkclipref>MVI_7684 9</linkclipref>
						<mediatype>audio</mediatype>
						<trackindex>1</trackindex>
						<clipindex>11</clipindex>
						<groupindex>1</groupindex>
					</link>
					<link>
						<linkclipref>MVI_7684 10</linkclipref>
						<mediatype>audio</mediatype>
						<trackindex>2</trackindex>
						<clipindex>11</clipindex>
						<groupindex>1</groupindex>
					</link>
					<fielddominance>none</fielddominance>
					<itemhistory>
						<uuid>6CEB5B3E-CFF4-4850-B113-9DE0C17DBDBE</uuid>
						<uuid>742BBF06-0146-4C7B-AFB0-264E1DB60C6B</uuid>
						<uuid>23674ED4-9107-41CA-8846-05374CD29097</uuid>
					</itemhistory>
				</clipitem>
				<clipitem id="MVI_7684 11">
					<name>MVI_7684</name>
					<duration>17768</duration>
					<rate>
						<ntsc>TRUE</ntsc>
						<timebase>24</timebase>
					</rate>
					<in>2059</in>
					<out>4907</out>
					<start>54502</start>
					<end>57350</end>
					<pixelaspectratio>Square</pixelaspectratio>
					<enabled>TRUE</enabled>
					<anamorphic>FALSE</anamorphic>
					<alphatype>none</alphatype>
					<masterclipid>MVI_7684 1</masterclipid>
					<logginginfo>
						<scene/>
						<shottake/>
						<lognote/>
						<good>FALSE</good>
					</logginginfo>
					<labels>
						<label2/>
					</labels>
					<comments>
						<mastercomment1/>
						<mastercomment2/>
						<mastercomment3/>
						<mastercomment4/>
					</comments>
					<file id="MVI_7684 2"/>
					<marker>
						<name>post digital </name>
						<comment>What comes after digital?,&#13;question,&#13;</comment>
						<color>
							<alpha>0</alpha>
							<red>255</red>
							<green>0</green>
							<blue>0</blue>
						</color>
						<in>633</in>
						<out>1153</out>
					</marker>
					<marker>
						<name>All about the why?</name>
						<comment>why?,&#13;design and art,&#13;questions,&#13;</comment>
						<color>
							<alpha>0</alpha>
							<red>255</red>
							<green>0</green>
							<blue>0</blue>
						</color>
						<in>4511</in>
						<out>4728</out>
					</marker>
					<marker>
						<name>Slurpies and pizza</name>
						<comment>weird, funny, food</comment>
						<color>
							<alpha>0</alpha>
							<red>255</red>
							<green>0</green>
							<blue>0</blue>
						</color>
						<in>7330</in>
						<out>7930</out>
					</marker>
					<marker>
						<name>Clouds</name>
						<comment>what is clouds?,&#13;future of cinema,&#13;clouds,</comment>
						<color>
							<alpha>0</alpha>
							<red>255</red>
							<green>0</green>
							<blue>0</blue>
						</color>
						<in>11603</in>
						<out>12063</out>
					</marker>
					<marker>
						<name>about relationships</name>
						<comment/>
						<color>
							<alpha>0</alpha>
							<red>255</red>
							<green>0</green>
							<blue>0</blue>
						</color>
						<in>12389</in>
						<out>12708</out>
					</marker>
					<marker>
						<name>recording appalachian music</name>
						<comment>becoming more human,&#13;humanism,&#13;culture,&#13;post-digital,&#13;what you do with the tools,</comment>
						<color>
							<alpha>0</alpha>
							<red>255</red>
							<green>0</green>
							<blue>0</blue>
						</color>
						<in>12845</in>
						<out>14240</out>
					</marker>
					<marker>
						<name>Coding for humanity</name>
						<comment>program or be programmed,&#13;coding culture,&#13;own the tool,&#13;just a tool,&#13;people,&#13;humanism,</comment>
						<color>
							<alpha>0</alpha>
							<red>255</red>
							<green>0</green>
							<blue>0</blue>
						</color>
						<in>15927</in>
						<out>16984</out>
					</marker>
					<filter>
						<enabled>TRUE</enabled>
						<start>-1</start>
						<end>-1</end>
						<effect>
							<name>Color Corrector</name>
							<effectid>Color Corrector</effectid>
							<effectcategory>Color Correction</effectcategory>
							<effecttype>filter</effecttype>
							<mediatype>video</mediatype>
							<parameter>
								<parameterid>dispmode</parameterid>
								<name>Display Mode</name>
								<valuemin>1</valuemin>
								<valuemax>3</valuemax>
								<valuelist>
									<valueentry>
										<name>Final</name>
										<value>1</value>
									</valueentry>
									<valueentry>
										<name>Matte</name>
										<value>2</value>
									</valueentry>
									<valueentry>
										<name>Source</name>
										<value>3</value>
									</valueentry>
								</valuelist>
								<value>1</value>
							</parameter>
							<parameter>
								<parameterid>label1</parameterid>
								<name>Level Controls</name>
								<value/>
							</parameter>
							<parameter>
								<parameterid>highlights</parameterid>
								<name>Highlights</name>
								<valuemin>64</valuemin>
								<valuemax>509</valuemax>
								<value>268</value>
							</parameter>
							<parameter>
								<parameterid>mids</parameterid>
								<name>Mids</name>
								<valuemin>0</valuemin>
								<valuemax>200</valuemax>
								<value>112</value>
							</parameter>
							<parameter>
								<parameterid>blacklevel</parameterid>
								<name>Blacks</name>
								<valuemin>-196</valuemin>
								<valuemax>254</valuemax>
								<value>15</value>
							</parameter>
							<parameter>
								<parameterid>label2</parameterid>
								<name>Color Balance</name>
								<value/>
							</parameter>
							<parameter>
								<parameterid>hue</parameterid>
								<name>Angle</name>
								<valuemin>-180</valuemin>
								<valuemax>180</valuemax>
								<value>-33</value>
							</parameter>
							<parameter>
								<parameterid>mag</parameterid>
								<name>Magnitude</name>
								<valuemin>0</valuemin>
								<valuemax>200</valuemax>
								<value>0</value>
							</parameter>
							<parameter>
								<parameterid>label4</parameterid>
								<name>Color Controls</name>
								<value/>
							</parameter>
							<parameter>
								<parameterid>chroma</parameterid>
								<name>Saturation</name>
								<valuemin>0</valuemin>
								<valuemax>200</valuemax>
								<value>100</value>
							</parameter>
							<parameter>
								<parameterid>phase</parameterid>
								<name>Phase shift</name>
								<valuemin>-180</valuemin>
								<valuemax>180</valuemax>
								<value>0</value>
							</parameter>
							<parameter>
								<parameterid>label5</parameterid>
								<name>Limit Effect Controls</name>
								<value/>
							</parameter>
							<parameter>
								<parameterid>dochroma</parameterid>
								<name>Limit on Chroma</name>
								<value>FALSE</value>
							</parameter>
							<parameter>
								<parameterid>centerang</parameterid>
								<name>Chroma Center</name>
								<valuemin>-760</valuemin>
								<valuemax>760</valuemax>
								<value>-110</value>
							</parameter>
							<parameter>
								<parameterid>chromawidth</parameterid>
								<name>Chroma Width</name>
								<valuemin>0</valuemin>
								<valuemax>360</valuemax>
								<value>15</value>
							</parameter>
							<parameter>
								<parameterid>chromasoft</parameterid>
								<name>Chroma Softness</name>
								<valuemin>0</valuemin>
								<valuemax>180</valuemax>
								<value>10</value>
							</parameter>
							<parameter>
								<parameterid>dosat</parameterid>
								<name>Limit on Saturation</name>
								<value>FALSE</value>
							</parameter>
							<parameter>
								<parameterid>satmin</parameterid>
								<name>Sat. Minimum</name>
								<valuemin>0</valuemin>
								<valuemax>125</valuemax>
								<value>35</value>
							</parameter>
							<parameter>
								<parameterid>satwidth</parameterid>
								<name>Sat. Width</name>
								<valuemin>0</valuemin>
								<valuemax>125</valuemax>
								<value>40</value>
							</parameter>
							<parameter>
								<parameterid>satsoft</parameterid>
								<name>Sat. Softness</name>
								<valuemin>0</valuemin>
								<valuemax>125</valuemax>
								<value>20</value>
							</parameter>
							<parameter>
								<parameterid>doluma</parameterid>
								<name>Limit on Luma</name>
								<value>FALSE</value>
							</parameter>
							<parameter>
								<parameterid>lumamin</parameterid>
								<name>Luma Minimum</name>
								<valuemin>0</valuemin>
								<valuemax>120</valuemax>
								<value>0</value>
							</parameter>
							<parameter>
								<parameterid>lumawidth</parameterid>
								<name>Luma Width</name>
								<valuemin>0</valuemin>
								<valuemax>120</valuemax>
								<value>40</value>
							</parameter>
							<parameter>
								<parameterid>lumasoft</parameterid>
								<name>Luma Softness</name>
								<valuemin>0</valuemin>
								<valuemax>120</valuemax>
								<value>20</value>
							</parameter>
							<parameter>
								<parameterid>label6</parameterid>
								<name>Edge Control</name>
								<value/>
							</parameter>
							<parameter>
								<parameterid>edgethin</parameterid>
								<name>Thin/Spread</name>
								<valuemin>-100</valuemin>
								<valuemax>100</valuemax>
								<value>0</value>
							</parameter>
							<parameter>
								<parameterid>edgefeather</parameterid>
								<name>Softening</name>
								<valuemin>0</valuemin>
								<valuemax>100</valuemax>
								<value>0</value>
							</parameter>
							<parameter>
								<parameterid>label7</parameterid>
								<name>Mask Control</name>
								<value/>
							</parameter>
							<parameter>
								<parameterid>invertsel</parameterid>
								<name>Invert</name>
								<value>FALSE</value>
							</parameter>
							<parameter>
								<parameterid>debugshow</parameterid>
								<name>Show Stats</name>
								<value>FALSE</value>
							</parameter>
						</effect>
					</filter>
					<filter>
						<enabled>TRUE</enabled>
						<start>-1</start>
						<end>-1</end>
						<effect>
							<name>RGB Balance</name>
							<effectid>RGB Balance</effectid>
							<effectcategory>Color Correction</effectcategory>
							<effecttype>filter</effecttype>
							<mediatype>video</mediatype>
							<parameter>
								<parameterid>label1</parameterid>
								<name>Reds</name>
								<value/>
							</parameter>
							<parameter>
								<parameterid>rhighlights</parameterid>
								<name>Highlights</name>
								<valuemin>64</valuemin>
								<valuemax>509</valuemax>
								<value>255</value>
							</parameter>
							<parameter>
								<parameterid>rgamma</parameterid>
								<name>Midtones</name>
								<valuemin>0</valuemin>
								<valuemax>200</valuemax>
								<value>100</value>
							</parameter>
							<parameter>
								<parameterid>rblacklevel</parameterid>
								<name>Blacks</name>
								<valuemin>-196</valuemin>
								<valuemax>254</valuemax>
								<value>0</value>
							</parameter>
							<parameter>
								<parameterid>label2</parameterid>
								<name>Greens</name>
								<value/>
							</parameter>
							<parameter>
								<parameterid>ghighlights</parameterid>
								<name>Highlights</name>
								<valuemin>64</valuemin>
								<valuemax>509</valuemax>
								<value>255</value>
							</parameter>
							<parameter>
								<parameterid>ggamma</parameterid>
								<name>Midtones</name>
								<valuemin>0</valuemin>
								<valuemax>200</valuemax>
								<value>100</value>
							</parameter>
							<parameter>
								<parameterid>gblacklevel</parameterid>
								<name>Blacks</name>
								<valuemin>-196</valuemin>
								<valuemax>254</valuemax>
								<value>0</value>
							</parameter>
							<parameter>
								<parameterid>label3</parameterid>
								<name>Blues</name>
								<value/>
							</parameter>
							<parameter>
								<parameterid>bhighlights</parameterid>
								<name>Highlights</name>
								<valuemin>64</valuemin>
								<valuemax>509</valuemax>
								<value>313</value>
							</parameter>
							<parameter>
								<parameterid>bgamma</parameterid>
								<name>Midtones</name>
								<valuemin>0</valuemin>
								<valuemax>200</valuemax>
								<value>100</value>
							</parameter>
							<parameter>
								<parameterid>bblacklevel</parameterid>
								<name>Blacks</name>
								<valuemin>-196</valuemin>
								<valuemax>254</valuemax>
								<value>0</value>
							</parameter>
						</effect>
					</filter>
					<sourcetrack>
						<mediatype>video</mediatype>
					</sourcetrack>
					<link>
						<linkclipref>MVI_7684 11</linkclipref>
						<mediatype>video</mediatype>
						<trackindex>2</trackindex>
						<clipindex>8</clipindex>
					</link>
					<link>
						<linkclipref>MVI_7684 12</linkclipref>
						<mediatype>audio</mediatype>
						<trackindex>1</trackindex>
						<clipindex>12</clipindex>
						<groupindex>1</groupindex>
					</link>
					<link>
						<linkclipref>MVI_7684 13</linkclipref>
						<mediatype>audio</mediatype>
						<trackindex>2</trackindex>
						<clipindex>12</clipindex>
						<groupindex>1</groupindex>
					</link>
					<fielddominance>none</fielddominance>
					<itemhistory>
						<uuid>971EB19E-05C8-4EC4-94E5-BE56537A3E43</uuid>
						<uuid>742BBF06-0146-4C7B-AFB0-264E1DB60C6B</uuid>
						<uuid>23674ED4-9107-41CA-8846-05374CD29097</uuid>
					</itemhistory>
				</clipitem>
				<clipitem id="MVI_7684 14">
					<name>MVI_7684</name>
					<duration>17768</duration>
					<rate>
						<ntsc>TRUE</ntsc>
						<timebase>24</timebase>
					</rate>
					<in>4907</in>
					<out>5035</out>
					<start>57350</start>
					<end>57478</end>
					<pixelaspectratio>Square</pixelaspectratio>
					<enabled>TRUE</enabled>
					<anamorphic>FALSE</anamorphic>
					<alphatype>none</alphatype>
					<masterclipid>MVI_7684 1</masterclipid>
					<logginginfo>
						<scene/>
						<shottake/>
						<lognote/>
						<good>FALSE</good>
					</logginginfo>
					<labels>
						<label2/>
					</labels>
					<comments>
						<mastercomment1/>
						<mastercomment2/>
						<mastercomment3/>
						<mastercomment4/>
					</comments>
					<file id="MVI_7684 2"/>
					<marker>
						<name>post digital </name>
						<comment>What comes after digital?,&#13;question,&#13;</comment>
						<color>
							<alpha>0</alpha>
							<red>255</red>
							<green>0</green>
							<blue>0</blue>
						</color>
						<in>633</in>
						<out>1153</out>
					</marker>
					<marker>
						<name>All about the why?</name>
						<comment>why?,&#13;design and art,&#13;questions,&#13;</comment>
						<color>
							<alpha>0</alpha>
							<red>255</red>
							<green>0</green>
							<blue>0</blue>
						</color>
						<in>4511</in>
						<out>4728</out>
					</marker>
					<marker>
						<name>Slurpies and pizza</name>
						<comment>weird, funny, food</comment>
						<color>
							<alpha>0</alpha>
							<red>255</red>
							<green>0</green>
							<blue>0</blue>
						</color>
						<in>7330</in>
						<out>7930</out>
					</marker>
					<marker>
						<name>Clouds</name>
						<comment>what is clouds?,&#13;future of cinema,&#13;clouds,</comment>
						<color>
							<alpha>0</alpha>
							<red>255</red>
							<green>0</green>
							<blue>0</blue>
						</color>
						<in>11603</in>
						<out>12063</out>
					</marker>
					<marker>
						<name>about relationships</name>
						<comment/>
						<color>
							<alpha>0</alpha>
							<red>255</red>
							<green>0</green>
							<blue>0</blue>
						</color>
						<in>12389</in>
						<out>12708</out>
					</marker>
					<marker>
						<name>recording appalachian music</name>
						<comment>becoming more human,&#13;humanism,&#13;culture,&#13;post-digital,&#13;what you do with the tools,</comment>
						<color>
							<alpha>0</alpha>
							<red>255</red>
							<green>0</green>
							<blue>0</blue>
						</color>
						<in>12845</in>
						<out>14240</out>
					</marker>
					<marker>
						<name>Coding for humanity</name>
						<comment>program or be programmed,&#13;coding culture,&#13;own the tool,&#13;just a tool,&#13;people,&#13;humanism,</comment>
						<color>
							<alpha>0</alpha>
							<red>255</red>
							<green>0</green>
							<blue>0</blue>
						</color>
						<in>15927</in>
						<out>16984</out>
					</marker>
					<filter>
						<enabled>TRUE</enabled>
						<start>-1</start>
						<end>-1</end>
						<effect>
							<name>Color Corrector</name>
							<effectid>Color Corrector</effectid>
							<effectcategory>Color Correction</effectcategory>
							<effecttype>filter</effecttype>
							<mediatype>video</mediatype>
							<parameter>
								<parameterid>dispmode</parameterid>
								<name>Display Mode</name>
								<valuemin>1</valuemin>
								<valuemax>3</valuemax>
								<valuelist>
									<valueentry>
										<name>Final</name>
										<value>1</value>
									</valueentry>
									<valueentry>
										<name>Matte</name>
										<value>2</value>
									</valueentry>
									<valueentry>
										<name>Source</name>
										<value>3</value>
									</valueentry>
								</valuelist>
								<value>1</value>
							</parameter>
							<parameter>
								<parameterid>label1</parameterid>
								<name>Level Controls</name>
								<value/>
							</parameter>
							<parameter>
								<parameterid>highlights</parameterid>
								<name>Highlights</name>
								<valuemin>64</valuemin>
								<valuemax>509</valuemax>
								<value>268</value>
							</parameter>
							<parameter>
								<parameterid>mids</parameterid>
								<name>Mids</name>
								<valuemin>0</valuemin>
								<valuemax>200</valuemax>
								<value>112</value>
							</parameter>
							<parameter>
								<parameterid>blacklevel</parameterid>
								<name>Blacks</name>
								<valuemin>-196</valuemin>
								<valuemax>254</valuemax>
								<value>15</value>
							</parameter>
							<parameter>
								<parameterid>label2</parameterid>
								<name>Color Balance</name>
								<value/>
							</parameter>
							<parameter>
								<parameterid>hue</parameterid>
								<name>Angle</name>
								<valuemin>-180</valuemin>
								<valuemax>180</valuemax>
								<value>-33</value>
							</parameter>
							<parameter>
								<parameterid>mag</parameterid>
								<name>Magnitude</name>
								<valuemin>0</valuemin>
								<valuemax>200</valuemax>
								<value>0</value>
							</parameter>
							<parameter>
								<parameterid>label4</parameterid>
								<name>Color Controls</name>
								<value/>
							</parameter>
							<parameter>
								<parameterid>chroma</parameterid>
								<name>Saturation</name>
								<valuemin>0</valuemin>
								<valuemax>200</valuemax>
								<value>100</value>
							</parameter>
							<parameter>
								<parameterid>phase</parameterid>
								<name>Phase shift</name>
								<valuemin>-180</valuemin>
								<valuemax>180</valuemax>
								<value>0</value>
							</parameter>
							<parameter>
								<parameterid>label5</parameterid>
								<name>Limit Effect Controls</name>
								<value/>
							</parameter>
							<parameter>
								<parameterid>dochroma</parameterid>
								<name>Limit on Chroma</name>
								<value>FALSE</value>
							</parameter>
							<parameter>
								<parameterid>centerang</parameterid>
								<name>Chroma Center</name>
								<valuemin>-760</valuemin>
								<valuemax>760</valuemax>
								<value>-110</value>
							</parameter>
							<parameter>
								<parameterid>chromawidth</parameterid>
								<name>Chroma Width</name>
								<valuemin>0</valuemin>
								<valuemax>360</valuemax>
								<value>15</value>
							</parameter>
							<parameter>
								<parameterid>chromasoft</parameterid>
								<name>Chroma Softness</name>
								<valuemin>0</valuemin>
								<valuemax>180</valuemax>
								<value>10</value>
							</parameter>
							<parameter>
								<parameterid>dosat</parameterid>
								<name>Limit on Saturation</name>
								<value>FALSE</value>
							</parameter>
							<parameter>
								<parameterid>satmin</parameterid>
								<name>Sat. Minimum</name>
								<valuemin>0</valuemin>
								<valuemax>125</valuemax>
								<value>35</value>
							</parameter>
							<parameter>
								<parameterid>satwidth</parameterid>
								<name>Sat. Width</name>
								<valuemin>0</valuemin>
								<valuemax>125</valuemax>
								<value>40</value>
							</parameter>
							<parameter>
								<parameterid>satsoft</parameterid>
								<name>Sat. Softness</name>
								<valuemin>0</valuemin>
								<valuemax>125</valuemax>
								<value>20</value>
							</parameter>
							<parameter>
								<parameterid>doluma</parameterid>
								<name>Limit on Luma</name>
								<value>FALSE</value>
							</parameter>
							<parameter>
								<parameterid>lumamin</parameterid>
								<name>Luma Minimum</name>
								<valuemin>0</valuemin>
								<valuemax>120</valuemax>
								<value>0</value>
							</parameter>
							<parameter>
								<parameterid>lumawidth</parameterid>
								<name>Luma Width</name>
								<valuemin>0</valuemin>
								<valuemax>120</valuemax>
								<value>40</value>
							</parameter>
							<parameter>
								<parameterid>lumasoft</parameterid>
								<name>Luma Softness</name>
								<valuemin>0</valuemin>
								<valuemax>120</valuemax>
								<value>20</value>
							</parameter>
							<parameter>
								<parameterid>label6</parameterid>
								<name>Edge Control</name>
								<value/>
							</parameter>
							<parameter>
								<parameterid>edgethin</parameterid>
								<name>Thin/Spread</name>
								<valuemin>-100</valuemin>
								<valuemax>100</valuemax>
								<value>0</value>
							</parameter>
							<parameter>
								<parameterid>edgefeather</parameterid>
								<name>Softening</name>
								<valuemin>0</valuemin>
								<valuemax>100</valuemax>
								<value>0</value>
							</parameter>
							<parameter>
								<parameterid>label7</parameterid>
								<name>Mask Control</name>
								<value/>
							</parameter>
							<parameter>
								<parameterid>invertsel</parameterid>
								<name>Invert</name>
								<value>FALSE</value>
							</parameter>
							<parameter>
								<parameterid>debugshow</parameterid>
								<name>Show Stats</name>
								<value>FALSE</value>
							</parameter>
						</effect>
					</filter>
					<filter>
						<enabled>TRUE</enabled>
						<start>-1</start>
						<end>-1</end>
						<effect>
							<name>RGB Balance</name>
							<effectid>RGB Balance</effectid>
							<effectcategory>Color Correction</effectcategory>
							<effecttype>filter</effecttype>
							<mediatype>video</mediatype>
							<parameter>
								<parameterid>label1</parameterid>
								<name>Reds</name>
								<value/>
							</parameter>
							<parameter>
								<parameterid>rhighlights</parameterid>
								<name>Highlights</name>
								<valuemin>64</valuemin>
								<valuemax>509</valuemax>
								<value>255</value>
							</parameter>
							<parameter>
								<parameterid>rgamma</parameterid>
								<name>Midtones</name>
								<valuemin>0</valuemin>
								<valuemax>200</valuemax>
								<value>100</value>
							</parameter>
							<parameter>
								<parameterid>rblacklevel</parameterid>
								<name>Blacks</name>
								<valuemin>-196</valuemin>
								<valuemax>254</valuemax>
								<value>0</value>
							</parameter>
							<parameter>
								<parameterid>label2</parameterid>
								<name>Greens</name>
								<value/>
							</parameter>
							<parameter>
								<parameterid>ghighlights</parameterid>
								<name>Highlights</name>
								<valuemin>64</valuemin>
								<valuemax>509</valuemax>
								<value>255</value>
							</parameter>
							<parameter>
								<parameterid>ggamma</parameterid>
								<name>Midtones</name>
								<valuemin>0</valuemin>
								<valuemax>200</valuemax>
								<value>100</value>
							</parameter>
							<parameter>
								<parameterid>gblacklevel</parameterid>
								<name>Blacks</name>
								<valuemin>-196</valuemin>
								<valuemax>254</valuemax>
								<value>0</value>
							</parameter>
							<parameter>
								<parameterid>label3</parameterid>
								<name>Blues</name>
								<value/>
							</parameter>
							<parameter>
								<parameterid>bhighlights</parameterid>
								<name>Highlights</name>
								<valuemin>64</valuemin>
								<valuemax>509</valuemax>
								<value>313</value>
							</parameter>
							<parameter>
								<parameterid>bgamma</parameterid>
								<name>Midtones</name>
								<valuemin>0</valuemin>
								<valuemax>200</valuemax>
								<value>100</value>
							</parameter>
							<parameter>
								<parameterid>bblacklevel</parameterid>
								<name>Blacks</name>
								<valuemin>-196</valuemin>
								<valuemax>254</valuemax>
								<value>0</value>
							</parameter>
						</effect>
					</filter>
					<sourcetrack>
						<mediatype>video</mediatype>
					</sourcetrack>
					<link>
						<linkclipref>MVI_7684 14</linkclipref>
						<mediatype>video</mediatype>
						<trackindex>2</trackindex>
						<clipindex>9</clipindex>
					</link>
					<link>
						<linkclipref>MVI_7684 15</linkclipref>
						<mediatype>audio</mediatype>
						<trackindex>1</trackindex>
						<clipindex>13</clipindex>
						<groupindex>1</groupindex>
					</link>
					<link>
						<linkclipref>MVI_7684 16</linkclipref>
						<mediatype>audio</mediatype>
						<trackindex>2</trackindex>
						<clipindex>13</clipindex>
						<groupindex>1</groupindex>
					</link>
					<fielddominance>none</fielddominance>
					<itemhistory>
						<uuid>A0CEF87F-A1AA-4730-B798-C66687BC398B</uuid>
						<uuid>742BBF06-0146-4C7B-AFB0-264E1DB60C6B</uuid>
						<uuid>23674ED4-9107-41CA-8846-05374CD29097</uuid>
					</itemhistory>
				</clipitem>
				<clipitem id="MVI_7684 17">
					<name>MVI_7684</name>
					<duration>17768</duration>
					<rate>
						<ntsc>TRUE</ntsc>
						<timebase>24</timebase>
					</rate>
					<in>5035</in>
					<out>17768</out>
					<start>57478</start>
					<end>70211</end>
					<pixelaspectratio>Square</pixelaspectratio>
					<enabled>TRUE</enabled>
					<anamorphic>FALSE</anamorphic>
					<alphatype>none</alphatype>
					<masterclipid>MVI_7684 1</masterclipid>
					<logginginfo>
						<scene/>
						<shottake/>
						<lognote/>
						<good>FALSE</good>
					</logginginfo>
					<labels>
						<label2/>
					</labels>
					<comments>
						<mastercomment1/>
						<mastercomment2/>
						<mastercomment3/>
						<mastercomment4/>
					</comments>
					<file id="MVI_7684 2"/>
					<marker>
						<name>post digital </name>
						<comment>What comes after digital?,&#13;question,&#13;</comment>
						<color>
							<alpha>0</alpha>
							<red>255</red>
							<green>0</green>
							<blue>0</blue>
						</color>
						<in>633</in>
						<out>1153</out>
					</marker>
					<marker>
						<name>All about the why?</name>
						<comment>why?,&#13;design and art,&#13;questions,&#13;</comment>
						<color>
							<alpha>0</alpha>
							<red>255</red>
							<green>0</green>
							<blue>0</blue>
						</color>
						<in>4511</in>
						<out>4728</out>
					</marker>
					<marker>
						<name>Slurpies and pizza</name>
						<comment>weird, funny, food</comment>
						<color>
							<alpha>0</alpha>
							<red>255</red>
							<green>0</green>
							<blue>0</blue>
						</color>
						<in>7330</in>
						<out>7930</out>
					</marker>
					<marker>
						<name>Clouds</name>
						<comment>what is clouds?,&#13;future of cinema,&#13;clouds,</comment>
						<color>
							<alpha>0</alpha>
							<red>255</red>
							<green>0</green>
							<blue>0</blue>
						</color>
						<in>11603</in>
						<out>12063</out>
					</marker>
					<marker>
						<name>about relationships</name>
						<comment/>
						<color>
							<alpha>0</alpha>
							<red>255</red>
							<green>0</green>
							<blue>0</blue>
						</color>
						<in>12389</in>
						<out>12708</out>
					</marker>
					<marker>
						<name>recording appalachian music</name>
						<comment>becoming more human,&#13;humanism,&#13;culture,&#13;post-digital,&#13;what you do with the tools,</comment>
						<color>
							<alpha>0</alpha>
							<red>255</red>
							<green>0</green>
							<blue>0</blue>
						</color>
						<in>12845</in>
						<out>14240</out>
					</marker>
					<marker>
						<name>Coding for humanity</name>
						<comment>program or be programmed,&#13;coding culture,&#13;own the tool,&#13;just a tool,&#13;people,&#13;humanism,</comment>
						<color>
							<alpha>0</alpha>
							<red>255</red>
							<green>0</green>
							<blue>0</blue>
						</color>
						<in>15927</in>
						<out>16984</out>
					</marker>
					<filter>
						<enabled>TRUE</enabled>
						<start>-1</start>
						<end>-1</end>
						<effect>
							<name>Color Corrector</name>
							<effectid>Color Corrector</effectid>
							<effectcategory>Color Correction</effectcategory>
							<effecttype>filter</effecttype>
							<mediatype>video</mediatype>
							<parameter>
								<parameterid>dispmode</parameterid>
								<name>Display Mode</name>
								<valuemin>1</valuemin>
								<valuemax>3</valuemax>
								<valuelist>
									<valueentry>
										<name>Final</name>
										<value>1</value>
									</valueentry>
									<valueentry>
										<name>Matte</name>
										<value>2</value>
									</valueentry>
									<valueentry>
										<name>Source</name>
										<value>3</value>
									</valueentry>
								</valuelist>
								<value>1</value>
							</parameter>
							<parameter>
								<parameterid>label1</parameterid>
								<name>Level Controls</name>
								<value/>
							</parameter>
							<parameter>
								<parameterid>highlights</parameterid>
								<name>Highlights</name>
								<valuemin>64</valuemin>
								<valuemax>509</valuemax>
								<value>268</value>
							</parameter>
							<parameter>
								<parameterid>mids</parameterid>
								<name>Mids</name>
								<valuemin>0</valuemin>
								<valuemax>200</valuemax>
								<value>112</value>
							</parameter>
							<parameter>
								<parameterid>blacklevel</parameterid>
								<name>Blacks</name>
								<valuemin>-196</valuemin>
								<valuemax>254</valuemax>
								<value>15</value>
							</parameter>
							<parameter>
								<parameterid>label2</parameterid>
								<name>Color Balance</name>
								<value/>
							</parameter>
							<parameter>
								<parameterid>hue</parameterid>
								<name>Angle</name>
								<valuemin>-180</valuemin>
								<valuemax>180</valuemax>
								<value>-33</value>
							</parameter>
							<parameter>
								<parameterid>mag</parameterid>
								<name>Magnitude</name>
								<valuemin>0</valuemin>
								<valuemax>200</valuemax>
								<value>0</value>
							</parameter>
							<parameter>
								<parameterid>label4</parameterid>
								<name>Color Controls</name>
								<value/>
							</parameter>
							<parameter>
								<parameterid>chroma</parameterid>
								<name>Saturation</name>
								<valuemin>0</valuemin>
								<valuemax>200</valuemax>
								<value>100</value>
							</parameter>
							<parameter>
								<parameterid>phase</parameterid>
								<name>Phase shift</name>
								<valuemin>-180</valuemin>
								<valuemax>180</valuemax>
								<value>0</value>
							</parameter>
							<parameter>
								<parameterid>label5</parameterid>
								<name>Limit Effect Controls</name>
								<value/>
							</parameter>
							<parameter>
								<parameterid>dochroma</parameterid>
								<name>Limit on Chroma</name>
								<value>FALSE</value>
							</parameter>
							<parameter>
								<parameterid>centerang</parameterid>
								<name>Chroma Center</name>
								<valuemin>-760</valuemin>
								<valuemax>760</valuemax>
								<value>-110</value>
							</parameter>
							<parameter>
								<parameterid>chromawidth</parameterid>
								<name>Chroma Width</name>
								<valuemin>0</valuemin>
								<valuemax>360</valuemax>
								<value>15</value>
							</parameter>
							<parameter>
								<parameterid>chromasoft</parameterid>
								<name>Chroma Softness</name>
								<valuemin>0</valuemin>
								<valuemax>180</valuemax>
								<value>10</value>
							</parameter>
							<parameter>
								<parameterid>dosat</parameterid>
								<name>Limit on Saturation</name>
								<value>FALSE</value>
							</parameter>
							<parameter>
								<parameterid>satmin</parameterid>
								<name>Sat. Minimum</name>
								<valuemin>0</valuemin>
								<valuemax>125</valuemax>
								<value>35</value>
							</parameter>
							<parameter>
								<parameterid>satwidth</parameterid>
								<name>Sat. Width</name>
								<valuemin>0</valuemin>
								<valuemax>125</valuemax>
								<value>40</value>
							</parameter>
							<parameter>
								<parameterid>satsoft</parameterid>
								<name>Sat. Softness</name>
								<valuemin>0</valuemin>
								<valuemax>125</valuemax>
								<value>20</value>
							</parameter>
							<parameter>
								<parameterid>doluma</parameterid>
								<name>Limit on Luma</name>
								<value>FALSE</value>
							</parameter>
							<parameter>
								<parameterid>lumamin</parameterid>
								<name>Luma Minimum</name>
								<valuemin>0</valuemin>
								<valuemax>120</valuemax>
								<value>0</value>
							</parameter>
							<parameter>
								<parameterid>lumawidth</parameterid>
								<name>Luma Width</name>
								<valuemin>0</valuemin>
								<valuemax>120</valuemax>
								<value>40</value>
							</parameter>
							<parameter>
								<parameterid>lumasoft</parameterid>
								<name>Luma Softness</name>
								<valuemin>0</valuemin>
								<valuemax>120</valuemax>
								<value>20</value>
							</parameter>
							<parameter>
								<parameterid>label6</parameterid>
								<name>Edge Control</name>
								<value/>
							</parameter>
							<parameter>
								<parameterid>edgethin</parameterid>
								<name>Thin/Spread</name>
								<valuemin>-100</valuemin>
								<valuemax>100</valuemax>
								<value>0</value>
							</parameter>
							<parameter>
								<parameterid>edgefeather</parameterid>
								<name>Softening</name>
								<valuemin>0</valuemin>
								<valuemax>100</valuemax>
								<value>0</value>
							</parameter>
							<parameter>
								<parameterid>label7</parameterid>
								<name>Mask Control</name>
								<value/>
							</parameter>
							<parameter>
								<parameterid>invertsel</parameterid>
								<name>Invert</name>
								<value>FALSE</value>
							</parameter>
							<parameter>
								<parameterid>debugshow</parameterid>
								<name>Show Stats</name>
								<value>FALSE</value>
							</parameter>
						</effect>
					</filter>
					<filter>
						<enabled>TRUE</enabled>
						<start>-1</start>
						<end>-1</end>
						<effect>
							<name>RGB Balance</name>
							<effectid>RGB Balance</effectid>
							<effectcategory>Color Correction</effectcategory>
							<effecttype>filter</effecttype>
							<mediatype>video</mediatype>
							<parameter>
								<parameterid>label1</parameterid>
								<name>Reds</name>
								<value/>
							</parameter>
							<parameter>
								<parameterid>rhighlights</parameterid>
								<name>Highlights</name>
								<valuemin>64</valuemin>
								<valuemax>509</valuemax>
								<value>255</value>
							</parameter>
							<parameter>
								<parameterid>rgamma</parameterid>
								<name>Midtones</name>
								<valuemin>0</valuemin>
								<valuemax>200</valuemax>
								<value>100</value>
							</parameter>
							<parameter>
								<parameterid>rblacklevel</parameterid>
								<name>Blacks</name>
								<valuemin>-196</valuemin>
								<valuemax>254</valuemax>
								<value>0</value>
							</parameter>
							<parameter>
								<parameterid>label2</parameterid>
								<name>Greens</name>
								<value/>
							</parameter>
							<parameter>
								<parameterid>ghighlights</parameterid>
								<name>Highlights</name>
								<valuemin>64</valuemin>
								<valuemax>509</valuemax>
								<value>255</value>
							</parameter>
							<parameter>
								<parameterid>ggamma</parameterid>
								<name>Midtones</name>
								<valuemin>0</valuemin>
								<valuemax>200</valuemax>
								<value>100</value>
							</parameter>
							<parameter>
								<parameterid>gblacklevel</parameterid>
								<name>Blacks</name>
								<valuemin>-196</valuemin>
								<valuemax>254</valuemax>
								<value>0</value>
							</parameter>
							<parameter>
								<parameterid>label3</parameterid>
								<name>Blues</name>
								<value/>
							</parameter>
							<parameter>
								<parameterid>bhighlights</parameterid>
								<name>Highlights</name>
								<valuemin>64</valuemin>
								<valuemax>509</valuemax>
								<value>313</value>
							</parameter>
							<parameter>
								<parameterid>bgamma</parameterid>
								<name>Midtones</name>
								<valuemin>0</valuemin>
								<valuemax>200</valuemax>
								<value>100</value>
							</parameter>
							<parameter>
								<parameterid>bblacklevel</parameterid>
								<name>Blacks</name>
								<valuemin>-196</valuemin>
								<valuemax>254</valuemax>
								<value>0</value>
							</parameter>
						</effect>
					</filter>
					<sourcetrack>
						<mediatype>video</mediatype>
					</sourcetrack>
					<link>
						<linkclipref>MVI_7684 17</linkclipref>
						<mediatype>video</mediatype>
						<trackindex>2</trackindex>
						<clipindex>10</clipindex>
					</link>
					<link>
						<linkclipref>MVI_7684 18</linkclipref>
						<mediatype>audio</mediatype>
						<trackindex>1</trackindex>
						<clipindex>14</clipindex>
						<groupindex>1</groupindex>
					</link>
					<link>
						<linkclipref>MVI_7684 19</linkclipref>
						<mediatype>audio</mediatype>
						<trackindex>2</trackindex>
						<clipindex>14</clipindex>
						<groupindex>1</groupindex>
					</link>
					<fielddominance>none</fielddominance>
					<itemhistory>
						<uuid>2AADC012-9D76-413D-83D7-8D120B944355</uuid>
						<uuid>742BBF06-0146-4C7B-AFB0-264E1DB60C6B</uuid>
						<uuid>23674ED4-9107-41CA-8846-05374CD29097</uuid>
					</itemhistory>
				</clipitem>
				<enabled>TRUE</enabled>
				<locked>FALSE</locked>
			</track>
			<track>
				<enabled>TRUE</enabled>
				<locked>FALSE</locked>
			</track>
		</video>
		<audio>
			<format>
				<samplecharacteristics>
					<depth>16</depth>
					<samplerate>48000</samplerate>
				</samplecharacteristics>
			</format>
			<outputs>
				<group>
					<index>1</index>
					<numchannels>2</numchannels>
					<downmix>0</downmix>
					<channel>
						<index>1</index>
					</channel>
					<channel>
						<index>2</index>
					</channel>
				</group>
			</outputs>
			<in>6156</in>
			<out>12847</out>
			<track>
				<clipitem id="MVI_7671 3">
					<name>MVI_7671</name>
					<duration>789</duration>
					<rate>
						<ntsc>TRUE</ntsc>
						<timebase>24</timebase>
					</rate>
					<in>0</in>
					<out>789</out>
					<start>0</start>
					<end>789</end>
					<enabled>TRUE</enabled>
					<masterclipid>MVI_7671 1</masterclipid>
					<logginginfo>
						<scene/>
						<shottake/>
						<lognote/>
						<good>FALSE</good>
					</logginginfo>
					<labels>
						<label2/>
					</labels>
					<comments>
						<mastercomment1/>
						<mastercomment2/>
						<mastercomment3/>
						<mastercomment4/>
					</comments>
					<file id="MVI_7671 2"/>
					<filter>
						<effect>
							<name>Audio Levels</name>
							<effectid>audiolevels</effectid>
							<effectcategory>audiolevels</effectcategory>
							<effecttype>audiolevels</effecttype>
							<mediatype>audio</mediatype>
							<parameter>
								<name>Level</name>
								<parameterid>level</parameterid>
								<valuemin>0</valuemin>
								<valuemax>3.98109</valuemax>
								<value>1</value>
							</parameter>
						</effect>
					</filter>
					<filter>
						<effect>
							<name>Audio Pan</name>
							<effectid>audiopan</effectid>
							<effectcategory>audiopan</effectcategory>
							<effecttype>audiopan</effecttype>
							<mediatype>audio</mediatype>
							<parameter>
								<name>Pan</name>
								<parameterid>pan</parameterid>
								<valuemin>-1</valuemin>
								<valuemax>1</valuemax>
								<value>-1</value>
							</parameter>
						</effect>
					</filter>
					<sourcetrack>
						<mediatype>audio</mediatype>
						<trackindex>1</trackindex>
					</sourcetrack>
					<link>
						<linkclipref>MVI_7671 </linkclipref>
						<mediatype>video</mediatype>
						<trackindex>1</trackindex>
						<clipindex>1</clipindex>
					</link>
					<link>
						<linkclipref>MVI_7671 3</linkclipref>
						<mediatype>audio</mediatype>
						<trackindex>1</trackindex>
						<clipindex>1</clipindex>
						<groupindex>1</groupindex>
					</link>
					<link>
						<linkclipref>MVI_7671 4</linkclipref>
						<mediatype>audio</mediatype>
						<trackindex>2</trackindex>
						<clipindex>1</clipindex>
						<groupindex>1</groupindex>
					</link>
					<itemhistory>
						<uuid>B68D4B82-5CF3-4AB3-BEB3-8E69CB793A41</uuid>
					</itemhistory>
				</clipitem>
				<clipitem id="MVI_7676 3">
					<name>MVI_7676</name>
					<duration>2000</duration>
					<rate>
						<ntsc>TRUE</ntsc>
						<timebase>24</timebase>
					</rate>
					<in>0</in>
					<out>2000</out>
					<start>789</start>
					<end>2789</end>
					<masterclipid>MVI_7676 1</masterclipid>
					<logginginfo>
						<scene/>
						<shottake/>
						<lognote/>
						<good>FALSE</good>
					</logginginfo>
					<labels>
						<label2/>
					</labels>
					<comments>
						<mastercomment1/>
						<mastercomment2/>
						<mastercomment3/>
						<mastercomment4/>
					</comments>
					<file id="MVI_7676 2"/>
					<marker>
						<name>a computer is a clock</name>
						<comment>What is a computer?,&#13;time,&#13;computer,&#13;clock</comment>
						<color>
							<alpha>0</alpha>
							<red>255</red>
							<green>127</green>
							<blue>0</blue>
						</color>
						<in>249</in>
						<out>768</out>
					</marker>
					<marker>
						<name>early computer graphics</name>
						<comment>what was it like working with early computers?,&#13;history,&#13;sketching,&#13;</comment>
						<color>
							<alpha>0</alpha>
							<red>255</red>
							<green>0</green>
							<blue>0</blue>
						</color>
						<in>1141</in>
						<out>1919</out>
					</marker>
					<filter>
						<effect>
							<name>Audio Levels</name>
							<effectid>audiolevels</effectid>
							<effectcategory>audiolevels</effectcategory>
							<effecttype>audiolevels</effecttype>
							<mediatype>audio</mediatype>
							<parameter>
								<name>Level</name>
								<parameterid>level</parameterid>
								<valuemin>0</valuemin>
								<valuemax>3.98109</valuemax>
								<value>1</value>
							</parameter>
						</effect>
					</filter>
					<filter>
						<effect>
							<name>Audio Pan</name>
							<effectid>audiopan</effectid>
							<effectcategory>audiopan</effectcategory>
							<effecttype>audiopan</effecttype>
							<mediatype>audio</mediatype>
							<parameter>
								<name>Pan</name>
								<parameterid>pan</parameterid>
								<valuemin>-1</valuemin>
								<valuemax>1</valuemax>
								<value>-1</value>
							</parameter>
						</effect>
					</filter>
					<sourcetrack>
						<mediatype>audio</mediatype>
						<trackindex>1</trackindex>
					</sourcetrack>
					<link>
						<linkclipref>MVI_7676 </linkclipref>
						<mediatype>video</mediatype>
						<trackindex>1</trackindex>
						<clipindex>2</clipindex>
					</link>
					<link>
						<linkclipref>MVI_7676 3</linkclipref>
						<mediatype>audio</mediatype>
						<trackindex>1</trackindex>
						<clipindex>2</clipindex>
						<groupindex>1</groupindex>
					</link>
					<link>
						<linkclipref>MVI_7676 4</linkclipref>
						<mediatype>audio</mediatype>
						<trackindex>2</trackindex>
						<clipindex>2</clipindex>
						<groupindex>1</groupindex>
					</link>
					<itemhistory>
						<uuid>FF6B6CED-616D-4451-97E2-8364BE5ACDF2</uuid>
					</itemhistory>
				</clipitem>
				<clipitem id="MVI_7680 3">
					<name>MVI_7680</name>
					<duration>10163</duration>
					<rate>
						<ntsc>TRUE</ntsc>
						<timebase>24</timebase>
					</rate>
					<in>0</in>
					<out>3341</out>
					<start>2789</start>
					<end>6130</end>
					<masterclipid>MVI_7680 1</masterclipid>
					<logginginfo>
						<scene/>
						<shottake/>
						<lognote/>
						<good>FALSE</good>
					</logginginfo>
					<labels>
						<label2/>
					</labels>
					<comments>
						<mastercomment1/>
						<mastercomment2/>
						<mastercomment3/>
						<mastercomment4/>
					</comments>
					<file id="MVI_7680 2"/>
					<marker>
						<name>Marker 7</name>
						<comment/>
						<color>
							<alpha>0</alpha>
							<red>255</red>
							<green>0</green>
							<blue>0</blue>
						</color>
						<in>3364</in>
						<out>-1</out>
					</marker>
					<marker>
						<name>technology is made by people</name>
						<comment>Are humans and technology truly opposites: Isn't technology after all a reflection of humanity?, &#13;humanism,&#13;dichotomy,&#13;struggle with technology,&#13;challenges</comment>
						<color>
							<alpha>0</alpha>
							<red>255</red>
							<green>0</green>
							<blue>0</blue>
						</color>
						<in>3367</in>
						<out>4400</out>
					</marker>
					<marker>
						<name>do not resuscitate </name>
						<comment>How do you see your older work now?,&#13;obsolescence, &#13;old media,&#13;history,&#13;&#13;</comment>
						<color>
							<alpha>0</alpha>
							<red>255</red>
							<green>0</green>
							<blue>0</blue>
						</color>
						<in>4852</in>
						<out>5228</out>
					</marker>
					<marker>
						<name>thinking about interfaces</name>
						<comment>Is your work transgressive?,&#13;why?,&#13;what if....?,&#13;inversion,&#13;play,&#13;hacking,&#13;subversion,&#13;interfaces,&#13;mouse,&#13;keyboard,&#13;GUI,&#13;think different,</comment>
						<color>
							<alpha>0</alpha>
							<red>255</red>
							<green>0</green>
							<blue>0</blue>
						</color>
						<in>5377</in>
						<out>6367</out>
					</marker>
					<marker>
						<name>Marker 4</name>
						<comment>what's the importance of play?,&#13;play,&#13;children,&#13;physicality,&#13;active learning,&#13;embodiment,&#13;interactivity,&#13;&#13;</comment>
						<color>
							<alpha>0</alpha>
							<red>255</red>
							<green>0</green>
							<blue>0</blue>
						</color>
						<in>6537</in>
						<out>7767</out>
					</marker>
					<marker>
						<name>reactive square</name>
						<comment>what's the importance of play?,&#13;audivisualization,&#13;interactivity,&#13;kids&#13;</comment>
						<color>
							<alpha>0</alpha>
							<red>255</red>
							<green>0</green>
							<blue>0</blue>
						</color>
						<in>6917</in>
						<out>7729</out>
					</marker>
					<marker>
						<name>Subversion</name>
						<comment>critique,&#13;insight,&#13;emotion,&#13;meaning,&#13;mood: epiphany,</comment>
						<color>
							<alpha>0</alpha>
							<red>255</red>
							<green>0</green>
							<blue>0</blue>
						</color>
						<in>8919</in>
						<out>9818</out>
					</marker>
					<filter>
						<effect>
							<name>Audio Levels</name>
							<effectid>audiolevels</effectid>
							<effectcategory>audiolevels</effectcategory>
							<effecttype>audiolevels</effecttype>
							<mediatype>audio</mediatype>
							<parameter>
								<name>Level</name>
								<parameterid>level</parameterid>
								<valuemin>0</valuemin>
								<valuemax>3.98109</valuemax>
								<value>1</value>
							</parameter>
						</effect>
					</filter>
					<filter>
						<effect>
							<name>Audio Pan</name>
							<effectid>audiopan</effectid>
							<effectcategory>audiopan</effectcategory>
							<effecttype>audiopan</effecttype>
							<mediatype>audio</mediatype>
							<parameter>
								<name>Pan</name>
								<parameterid>pan</parameterid>
								<valuemin>-1</valuemin>
								<valuemax>1</valuemax>
								<value>-1</value>
							</parameter>
						</effect>
					</filter>
					<sourcetrack>
						<mediatype>audio</mediatype>
						<trackindex>1</trackindex>
					</sourcetrack>
					<link>
						<linkclipref>MVI_7680 </linkclipref>
						<mediatype>video</mediatype>
						<trackindex>1</trackindex>
						<clipindex>3</clipindex>
					</link>
					<link>
						<linkclipref>MVI_7680 3</linkclipref>
						<mediatype>audio</mediatype>
						<trackindex>1</trackindex>
						<clipindex>3</clipindex>
						<groupindex>1</groupindex>
					</link>
					<link>
						<linkclipref>MVI_7680 4</linkclipref>
						<mediatype>audio</mediatype>
						<trackindex>2</trackindex>
						<clipindex>3</clipindex>
						<groupindex>1</groupindex>
					</link>
					<itemhistory>
						<uuid>73A48BB7-6D72-411D-8C63-C4E5C412A5E7</uuid>
						<uuid>0F2832A4-087A-4156-A7DB-8E9F5D4704F6</uuid>
					</itemhistory>
				</clipitem>
				<clipitem id="MVI_7680 6">
					<name>MVI_7680</name>
					<duration>10163</duration>
					<rate>
						<ntsc>TRUE</ntsc>
						<timebase>24</timebase>
					</rate>
					<in>3341</in>
					<out>10163</out>
					<start>6130</start>
					<end>12952</end>
					<masterclipid>MVI_7680 1</masterclipid>
					<logginginfo>
						<scene/>
						<shottake/>
						<lognote/>
						<good>FALSE</good>
					</logginginfo>
					<labels>
						<label2/>
					</labels>
					<comments>
						<mastercomment1/>
						<mastercomment2/>
						<mastercomment3/>
						<mastercomment4/>
					</comments>
					<file id="MVI_7680 2"/>
					<marker>
						<name>Marker 7</name>
						<comment/>
						<color>
							<alpha>0</alpha>
							<red>255</red>
							<green>0</green>
							<blue>0</blue>
						</color>
						<in>3364</in>
						<out>-1</out>
					</marker>
					<marker>
						<name>technology is made by people</name>
						<comment>Are humans and technology truly opposites: Isn't technology after all a reflection of humanity?, &#13;humanism,&#13;dichotomy,&#13;struggle with technology,&#13;challenges</comment>
						<color>
							<alpha>0</alpha>
							<red>255</red>
							<green>0</green>
							<blue>0</blue>
						</color>
						<in>3367</in>
						<out>4400</out>
					</marker>
					<marker>
						<name>do not resuscitate </name>
						<comment>How do you see your older work now?,&#13;obsolescence, &#13;old media,&#13;history,&#13;&#13;</comment>
						<color>
							<alpha>0</alpha>
							<red>255</red>
							<green>0</green>
							<blue>0</blue>
						</color>
						<in>4852</in>
						<out>5228</out>
					</marker>
					<marker>
						<name>thinking about interfaces</name>
						<comment>Is your work transgressive?,&#13;why?,&#13;what if....?,&#13;inversion,&#13;play,&#13;hacking,&#13;subversion,&#13;interfaces,&#13;mouse,&#13;keyboard,&#13;GUI,&#13;think different,</comment>
						<color>
							<alpha>0</alpha>
							<red>255</red>
							<green>0</green>
							<blue>0</blue>
						</color>
						<in>5377</in>
						<out>6367</out>
					</marker>
					<marker>
						<name>Marker 4</name>
						<comment>what's the importance of play?,&#13;play,&#13;children,&#13;physicality,&#13;active learning,&#13;embodiment,&#13;interactivity,&#13;&#13;</comment>
						<color>
							<alpha>0</alpha>
							<red>255</red>
							<green>0</green>
							<blue>0</blue>
						</color>
						<in>6537</in>
						<out>7767</out>
					</marker>
					<marker>
						<name>reactive square</name>
						<comment>what's the importance of play?,&#13;audivisualization,&#13;interactivity,&#13;kids&#13;</comment>
						<color>
							<alpha>0</alpha>
							<red>255</red>
							<green>0</green>
							<blue>0</blue>
						</color>
						<in>6917</in>
						<out>7729</out>
					</marker>
					<marker>
						<name>Subversion</name>
						<comment>critique,&#13;insight,&#13;emotion,&#13;meaning,&#13;mood: epiphany,</comment>
						<color>
							<alpha>0</alpha>
							<red>255</red>
							<green>0</green>
							<blue>0</blue>
						</color>
						<in>8919</in>
						<out>9818</out>
					</marker>
					<filter>
						<effect>
							<name>Audio Levels</name>
							<effectid>audiolevels</effectid>
							<effectcategory>audiolevels</effectcategory>
							<effecttype>audiolevels</effecttype>
							<mediatype>audio</mediatype>
							<parameter>
								<name>Level</name>
								<parameterid>level</parameterid>
								<valuemin>0</valuemin>
								<valuemax>3.98109</valuemax>
								<value>1</value>
							</parameter>
						</effect>
					</filter>
					<filter>
						<effect>
							<name>Audio Pan</name>
							<effectid>audiopan</effectid>
							<effectcategory>audiopan</effectcategory>
							<effecttype>audiopan</effecttype>
							<mediatype>audio</mediatype>
							<parameter>
								<name>Pan</name>
								<parameterid>pan</parameterid>
								<valuemin>-1</valuemin>
								<valuemax>1</valuemax>
								<value>-1</value>
							</parameter>
						</effect>
					</filter>
					<sourcetrack>
						<mediatype>audio</mediatype>
						<trackindex>1</trackindex>
					</sourcetrack>
					<link>
						<linkclipref>MVI_7680 5</linkclipref>
						<mediatype>video</mediatype>
						<trackindex>1</trackindex>
						<clipindex>4</clipindex>
					</link>
					<link>
						<linkclipref>MVI_7680 6</linkclipref>
						<mediatype>audio</mediatype>
						<trackindex>1</trackindex>
						<clipindex>4</clipindex>
						<groupindex>1</groupindex>
					</link>
					<link>
						<linkclipref>MVI_7680 7</linkclipref>
						<mediatype>audio</mediatype>
						<trackindex>2</trackindex>
						<clipindex>4</clipindex>
						<groupindex>1</groupindex>
					</link>
					<itemhistory>
						<uuid>25C72001-3C43-4926-9D34-031BF39D4638</uuid>
						<uuid>0F2832A4-087A-4156-A7DB-8E9F5D4704F6</uuid>
					</itemhistory>
				</clipitem>
				<clipitem id="MVI_7681 3">
					<name>MVI_7681</name>
					<duration>15985</duration>
					<rate>
						<ntsc>TRUE</ntsc>
						<timebase>24</timebase>
					</rate>
					<in>0</in>
					<out>9699</out>
					<start>12952</start>
					<end>22651</end>
					<enabled>TRUE</enabled>
					<masterclipid>MVI_7681 1</masterclipid>
					<logginginfo>
						<scene/>
						<shottake/>
						<lognote/>
						<good>FALSE</good>
					</logginginfo>
					<labels>
						<label2/>
					</labels>
					<comments>
						<mastercomment1/>
						<mastercomment2/>
						<mastercomment3/>
						<mastercomment4/>
					</comments>
					<file id="MVI_7681 2"/>
					<marker>
						<name>Inexactitude,</name>
						<comment>physicality,&#13;realworld,&#13;uncertainty</comment>
						<color>
							<alpha>0</alpha>
							<red>255</red>
							<green>0</green>
							<blue>0</blue>
						</color>
						<in>533</in>
						<out>1054</out>
					</marker>
					<marker>
						<name>Digital meets analog</name>
						<comment>digital meets physical,&#13;uncertainty,&#13;physicality,&#13;"real world",&#13;</comment>
						<color>
							<alpha>0</alpha>
							<red>255</red>
							<green>0</green>
							<blue>0</blue>
						</color>
						<in>597</in>
						<out>908</out>
					</marker>
					<marker>
						<name>People</name>
						<comment>people,&#13;social dynamics,&#13;business,&#13;organizations,&#13;career changes,</comment>
						<color>
							<alpha>0</alpha>
							<red>255</red>
							<green>0</green>
							<blue>0</blue>
						</color>
						<in>907</in>
						<out>1526</out>
					</marker>
					<marker>
						<name>simplicity and complexity</name>
						<comment>simplicity,&#13;complexity,&#13;balance,</comment>
						<color>
							<alpha>0</alpha>
							<red>255</red>
							<green>0</green>
							<blue>0</blue>
						</color>
						<in>4751</in>
						<out>5323</out>
					</marker>
					<marker>
						<name>How do computers help us to visualize information?</name>
						<comment>technological progress,&#13;efficiency,&#13;time saving devices,&#13;processing power,&#13;rendering,&#13;visualization,&#13;&#13;</comment>
						<color>
							<alpha>0</alpha>
							<red>255</red>
							<green>0</green>
							<blue>0</blue>
						</color>
						<in>5829</in>
						<out>6128</out>
					</marker>
					<marker>
						<name>Ten thousand chinese villagers</name>
						<comment>man versus machine,&#13;complexity,&#13;processing power&#13;</comment>
						<color>
							<alpha>0</alpha>
							<red>255</red>
							<green>0</green>
							<blue>0</blue>
						</color>
						<in>6226</in>
						<out>-1</out>
					</marker>
					<marker>
						<name>Marker 6</name>
						<comment/>
						<color>
							<alpha>0</alpha>
							<red>255</red>
							<green>0</green>
							<blue>0</blue>
						</color>
						<in>6229</in>
						<out>7246</out>
					</marker>
					<marker>
						<name>people are best communicators</name>
						<comment>How does information visualziation help communicate complexity?&#13;information visualization,&#13;information,&#13;simplicity,&#13;clarity,&#13;data viz,&#13;communication,&#13;people,&#13;</comment>
						<color>
							<alpha>0</alpha>
							<red>255</red>
							<green>0</green>
							<blue>0</blue>
						</color>
						<in>7277</in>
						<out>7954</out>
					</marker>
					<marker>
						<name>Kill the master</name>
						<comment>education,&#13;fate,</comment>
						<color>
							<alpha>0</alpha>
							<red>255</red>
							<green>0</green>
							<blue>0</blue>
						</color>
						<in>8954</in>
						<out>9532</out>
					</marker>
					<marker>
						<name>last trick</name>
						<comment>experimentation&#13;mind and hand&#13;intuition,&#13;heuristics,&#13;art and experience,&#13;drawing,&#13;touch,</comment>
						<color>
							<alpha>0</alpha>
							<red>255</red>
							<green>0</green>
							<blue>0</blue>
						</color>
						<in>9705</in>
						<out>10934</out>
					</marker>
					<marker>
						<name>self expression</name>
						<comment>self expression,&#13;expression,&#13;process,&#13;mind and hand,&#13;physicality,&#13;creative exploration,</comment>
						<color>
							<alpha>0</alpha>
							<red>255</red>
							<green>0</green>
							<blue>0</blue>
						</color>
						<in>11444</in>
						<out>11848</out>
					</marker>
					<marker>
						<name>lost interest in interactivity</name>
						<comment>interactivity,&#13;noninteractivity,&#13;design,&#13;image,&#13;post-digital&#13;</comment>
						<color>
							<alpha>0</alpha>
							<red>255</red>
							<green>0</green>
							<blue>0</blue>
						</color>
						<in>12150</in>
						<out>12763</out>
					</marker>
					<marker>
						<name>Marker 19</name>
						<comment/>
						<color>
							<alpha>0</alpha>
							<red>255</red>
							<green>0</green>
							<blue>0</blue>
						</color>
						<in>13818</in>
						<out>-1</out>
					</marker>
					<marker>
						<name>Marker 15</name>
						<comment/>
						<color>
							<alpha>0</alpha>
							<red>255</red>
							<green>0</green>
							<blue>0</blue>
						</color>
						<in>13819</in>
						<out>-1</out>
					</marker>
					<marker>
						<name>Isn't it supposed to be new?</name>
						<comment>Newness,&#13;old media,&#13;new media,&#13;originality,&#13;limits of the computer,&#13;beautiful exhuberance, &#13;beauty,&#13;visual culture,&#13;</comment>
						<color>
							<alpha>0</alpha>
							<red>255</red>
							<green>0</green>
							<blue>0</blue>
						</color>
						<in>15171</in>
						<out>15895</out>
					</marker>
					<filter>
						<effect>
							<name>Audio Levels</name>
							<effectid>audiolevels</effectid>
							<effectcategory>audiolevels</effectcategory>
							<effecttype>audiolevels</effecttype>
							<mediatype>audio</mediatype>
							<parameter>
								<name>Level</name>
								<parameterid>level</parameterid>
								<valuemin>0</valuemin>
								<valuemax>3.98109</valuemax>
								<value>1</value>
							</parameter>
						</effect>
					</filter>
					<filter>
						<effect>
							<name>Audio Pan</name>
							<effectid>audiopan</effectid>
							<effectcategory>audiopan</effectcategory>
							<effecttype>audiopan</effecttype>
							<mediatype>audio</mediatype>
							<parameter>
								<name>Pan</name>
								<parameterid>pan</parameterid>
								<valuemin>-1</valuemin>
								<valuemax>1</valuemax>
								<value>-1</value>
							</parameter>
						</effect>
					</filter>
					<sourcetrack>
						<mediatype>audio</mediatype>
						<trackindex>1</trackindex>
					</sourcetrack>
					<link>
						<linkclipref>MVI_7681 </linkclipref>
						<mediatype>video</mediatype>
						<trackindex>1</trackindex>
						<clipindex>5</clipindex>
					</link>
					<link>
						<linkclipref>MVI_7681 3</linkclipref>
						<mediatype>audio</mediatype>
						<trackindex>1</trackindex>
						<clipindex>5</clipindex>
						<groupindex>1</groupindex>
					</link>
					<link>
						<linkclipref>MVI_7681 4</linkclipref>
						<mediatype>audio</mediatype>
						<trackindex>2</trackindex>
						<clipindex>5</clipindex>
						<groupindex>1</groupindex>
					</link>
					<itemhistory>
						<uuid>9DB7C0F6-8234-47B1-A3D4-29E3AA1A9FD0</uuid>
						<uuid>45824084-BCD3-433E-A245-B9A677E90473</uuid>
					</itemhistory>
				</clipitem>
				<clipitem id="MVI_7681 6">
					<name>MVI_7681</name>
					<duration>15985</duration>
					<rate>
						<ntsc>TRUE</ntsc>
						<timebase>24</timebase>
					</rate>
					<in>9699</in>
					<out>12761</out>
					<start>22651</start>
					<end>25713</end>
					<enabled>TRUE</enabled>
					<masterclipid>MVI_7681 1</masterclipid>
					<logginginfo>
						<scene/>
						<shottake/>
						<lognote/>
						<good>FALSE</good>
					</logginginfo>
					<labels>
						<label2/>
					</labels>
					<comments>
						<mastercomment1/>
						<mastercomment2/>
						<mastercomment3/>
						<mastercomment4/>
					</comments>
					<file id="MVI_7681 2"/>
					<marker>
						<name>Inexactitude,</name>
						<comment>physicality,&#13;realworld,&#13;uncertainty</comment>
						<color>
							<alpha>0</alpha>
							<red>255</red>
							<green>0</green>
							<blue>0</blue>
						</color>
						<in>533</in>
						<out>1054</out>
					</marker>
					<marker>
						<name>Digital meets analog</name>
						<comment>digital meets physical,&#13;uncertainty,&#13;physicality,&#13;"real world",&#13;</comment>
						<color>
							<alpha>0</alpha>
							<red>255</red>
							<green>0</green>
							<blue>0</blue>
						</color>
						<in>597</in>
						<out>908</out>
					</marker>
					<marker>
						<name>People</name>
						<comment>people,&#13;social dynamics,&#13;business,&#13;organizations,&#13;career changes,</comment>
						<color>
							<alpha>0</alpha>
							<red>255</red>
							<green>0</green>
							<blue>0</blue>
						</color>
						<in>907</in>
						<out>1526</out>
					</marker>
					<marker>
						<name>simplicity and complexity</name>
						<comment>simplicity,&#13;complexity,&#13;balance,</comment>
						<color>
							<alpha>0</alpha>
							<red>255</red>
							<green>0</green>
							<blue>0</blue>
						</color>
						<in>4751</in>
						<out>5323</out>
					</marker>
					<marker>
						<name>How do computers help us to visualize information?</name>
						<comment>technological progress,&#13;efficiency,&#13;time saving devices,&#13;processing power,&#13;rendering,&#13;visualization,&#13;&#13;</comment>
						<color>
							<alpha>0</alpha>
							<red>255</red>
							<green>0</green>
							<blue>0</blue>
						</color>
						<in>5829</in>
						<out>6128</out>
					</marker>
					<marker>
						<name>Ten thousand chinese villagers</name>
						<comment>man versus machine,&#13;complexity,&#13;processing power&#13;</comment>
						<color>
							<alpha>0</alpha>
							<red>255</red>
							<green>0</green>
							<blue>0</blue>
						</color>
						<in>6226</in>
						<out>-1</out>
					</marker>
					<marker>
						<name>Marker 6</name>
						<comment/>
						<color>
							<alpha>0</alpha>
							<red>255</red>
							<green>0</green>
							<blue>0</blue>
						</color>
						<in>6229</in>
						<out>7246</out>
					</marker>
					<marker>
						<name>people are best communicators</name>
						<comment>How does information visualziation help communicate complexity?&#13;information visualization,&#13;information,&#13;simplicity,&#13;clarity,&#13;data viz,&#13;communication,&#13;people,&#13;</comment>
						<color>
							<alpha>0</alpha>
							<red>255</red>
							<green>0</green>
							<blue>0</blue>
						</color>
						<in>7277</in>
						<out>7954</out>
					</marker>
					<marker>
						<name>Kill the master</name>
						<comment>education,&#13;fate,</comment>
						<color>
							<alpha>0</alpha>
							<red>255</red>
							<green>0</green>
							<blue>0</blue>
						</color>
						<in>8954</in>
						<out>9532</out>
					</marker>
					<marker>
						<name>last trick</name>
						<comment>experimentation&#13;mind and hand&#13;intuition,&#13;heuristics,&#13;art and experience,&#13;drawing,&#13;touch,</comment>
						<color>
							<alpha>0</alpha>
							<red>255</red>
							<green>0</green>
							<blue>0</blue>
						</color>
						<in>9705</in>
						<out>10934</out>
					</marker>
					<marker>
						<name>self expression</name>
						<comment>self expression,&#13;expression,&#13;process,&#13;mind and hand,&#13;physicality,&#13;creative exploration,</comment>
						<color>
							<alpha>0</alpha>
							<red>255</red>
							<green>0</green>
							<blue>0</blue>
						</color>
						<in>11444</in>
						<out>11848</out>
					</marker>
					<marker>
						<name>lost interest in interactivity</name>
						<comment>interactivity,&#13;noninteractivity,&#13;design,&#13;image,&#13;post-digital&#13;</comment>
						<color>
							<alpha>0</alpha>
							<red>255</red>
							<green>0</green>
							<blue>0</blue>
						</color>
						<in>12150</in>
						<out>12763</out>
					</marker>
					<marker>
						<name>Marker 19</name>
						<comment/>
						<color>
							<alpha>0</alpha>
							<red>255</red>
							<green>0</green>
							<blue>0</blue>
						</color>
						<in>13818</in>
						<out>-1</out>
					</marker>
					<marker>
						<name>Marker 15</name>
						<comment/>
						<color>
							<alpha>0</alpha>
							<red>255</red>
							<green>0</green>
							<blue>0</blue>
						</color>
						<in>13819</in>
						<out>-1</out>
					</marker>
					<marker>
						<name>Isn't it supposed to be new?</name>
						<comment>Newness,&#13;old media,&#13;new media,&#13;originality,&#13;limits of the computer,&#13;beautiful exhuberance, &#13;beauty,&#13;visual culture,&#13;</comment>
						<color>
							<alpha>0</alpha>
							<red>255</red>
							<green>0</green>
							<blue>0</blue>
						</color>
						<in>15171</in>
						<out>15895</out>
					</marker>
					<filter>
						<effect>
							<name>Audio Levels</name>
							<effectid>audiolevels</effectid>
							<effectcategory>audiolevels</effectcategory>
							<effecttype>audiolevels</effecttype>
							<mediatype>audio</mediatype>
							<parameter>
								<name>Level</name>
								<parameterid>level</parameterid>
								<valuemin>0</valuemin>
								<valuemax>3.98109</valuemax>
								<value>1</value>
							</parameter>
						</effect>
					</filter>
					<filter>
						<effect>
							<name>Audio Pan</name>
							<effectid>audiopan</effectid>
							<effectcategory>audiopan</effectcategory>
							<effecttype>audiopan</effecttype>
							<mediatype>audio</mediatype>
							<parameter>
								<name>Pan</name>
								<parameterid>pan</parameterid>
								<valuemin>-1</valuemin>
								<valuemax>1</valuemax>
								<value>-1</value>
							</parameter>
						</effect>
					</filter>
					<sourcetrack>
						<mediatype>audio</mediatype>
						<trackindex>1</trackindex>
					</sourcetrack>
					<link>
						<linkclipref>MVI_7681 5</linkclipref>
						<mediatype>video</mediatype>
						<trackindex>1</trackindex>
						<clipindex>6</clipindex>
					</link>
					<link>
						<linkclipref>MVI_7681 6</linkclipref>
						<mediatype>audio</mediatype>
						<trackindex>1</trackindex>
						<clipindex>6</clipindex>
						<groupindex>1</groupindex>
					</link>
					<link>
						<linkclipref>MVI_7681 7</linkclipref>
						<mediatype>audio</mediatype>
						<trackindex>2</trackindex>
						<clipindex>6</clipindex>
						<groupindex>1</groupindex>
					</link>
					<itemhistory>
						<uuid>BE3B599C-83B6-43B2-9F7C-CD81E19221EB</uuid>
						<uuid>45824084-BCD3-433E-A245-B9A677E90473</uuid>
					</itemhistory>
				</clipitem>
				<clipitem id="MVI_7681 9">
					<name>MVI_7681</name>
					<duration>15985</duration>
					<rate>
						<ntsc>TRUE</ntsc>
						<timebase>24</timebase>
					</rate>
					<in>12761</in>
					<out>15985</out>
					<start>25713</start>
					<end>28937</end>
					<enabled>TRUE</enabled>
					<masterclipid>MVI_7681 1</masterclipid>
					<logginginfo>
						<scene/>
						<shottake/>
						<lognote/>
						<good>FALSE</good>
					</logginginfo>
					<labels>
						<label2/>
					</labels>
					<comments>
						<mastercomment1/>
						<mastercomment2/>
						<mastercomment3/>
						<mastercomment4/>
					</comments>
					<file id="MVI_7681 2"/>
					<marker>
						<name>Inexactitude,</name>
						<comment>physicality,&#13;realworld,&#13;uncertainty</comment>
						<color>
							<alpha>0</alpha>
							<red>255</red>
							<green>0</green>
							<blue>0</blue>
						</color>
						<in>533</in>
						<out>1054</out>
					</marker>
					<marker>
						<name>Digital meets analog</name>
						<comment>digital meets physical,&#13;uncertainty,&#13;physicality,&#13;"real world",&#13;</comment>
						<color>
							<alpha>0</alpha>
							<red>255</red>
							<green>0</green>
							<blue>0</blue>
						</color>
						<in>597</in>
						<out>908</out>
					</marker>
					<marker>
						<name>People</name>
						<comment>people,&#13;social dynamics,&#13;business,&#13;organizations,&#13;career changes,</comment>
						<color>
							<alpha>0</alpha>
							<red>255</red>
							<green>0</green>
							<blue>0</blue>
						</color>
						<in>907</in>
						<out>1526</out>
					</marker>
					<marker>
						<name>simplicity and complexity</name>
						<comment>simplicity,&#13;complexity,&#13;balance,</comment>
						<color>
							<alpha>0</alpha>
							<red>255</red>
							<green>0</green>
							<blue>0</blue>
						</color>
						<in>4751</in>
						<out>5323</out>
					</marker>
					<marker>
						<name>How do computers help us to visualize information?</name>
						<comment>technological progress,&#13;efficiency,&#13;time saving devices,&#13;processing power,&#13;rendering,&#13;visualization,&#13;&#13;</comment>
						<color>
							<alpha>0</alpha>
							<red>255</red>
							<green>0</green>
							<blue>0</blue>
						</color>
						<in>5829</in>
						<out>6128</out>
					</marker>
					<marker>
						<name>Ten thousand chinese villagers</name>
						<comment>man versus machine,&#13;complexity,&#13;processing power&#13;</comment>
						<color>
							<alpha>0</alpha>
							<red>255</red>
							<green>0</green>
							<blue>0</blue>
						</color>
						<in>6226</in>
						<out>-1</out>
					</marker>
					<marker>
						<name>Marker 6</name>
						<comment/>
						<color>
							<alpha>0</alpha>
							<red>255</red>
							<green>0</green>
							<blue>0</blue>
						</color>
						<in>6229</in>
						<out>7246</out>
					</marker>
					<marker>
						<name>people are best communicators</name>
						<comment>How does information visualziation help communicate complexity?&#13;information visualization,&#13;information,&#13;simplicity,&#13;clarity,&#13;data viz,&#13;communication,&#13;people,&#13;</comment>
						<color>
							<alpha>0</alpha>
							<red>255</red>
							<green>0</green>
							<blue>0</blue>
						</color>
						<in>7277</in>
						<out>7954</out>
					</marker>
					<marker>
						<name>Kill the master</name>
						<comment>education,&#13;fate,</comment>
						<color>
							<alpha>0</alpha>
							<red>255</red>
							<green>0</green>
							<blue>0</blue>
						</color>
						<in>8954</in>
						<out>9532</out>
					</marker>
					<marker>
						<name>last trick</name>
						<comment>experimentation&#13;mind and hand&#13;intuition,&#13;heuristics,&#13;art and experience,&#13;drawing,&#13;touch,</comment>
						<color>
							<alpha>0</alpha>
							<red>255</red>
							<green>0</green>
							<blue>0</blue>
						</color>
						<in>9705</in>
						<out>10934</out>
					</marker>
					<marker>
						<name>self expression</name>
						<comment>self expression,&#13;expression,&#13;process,&#13;mind and hand,&#13;physicality,&#13;creative exploration,</comment>
						<color>
							<alpha>0</alpha>
							<red>255</red>
							<green>0</green>
							<blue>0</blue>
						</color>
						<in>11444</in>
						<out>11848</out>
					</marker>
					<marker>
						<name>lost interest in interactivity</name>
						<comment>interactivity,&#13;noninteractivity,&#13;design,&#13;image,&#13;post-digital&#13;</comment>
						<color>
							<alpha>0</alpha>
							<red>255</red>
							<green>0</green>
							<blue>0</blue>
						</color>
						<in>12150</in>
						<out>12763</out>
					</marker>
					<marker>
						<name>Marker 19</name>
						<comment/>
						<color>
							<alpha>0</alpha>
							<red>255</red>
							<green>0</green>
							<blue>0</blue>
						</color>
						<in>13818</in>
						<out>-1</out>
					</marker>
					<marker>
						<name>Marker 15</name>
						<comment/>
						<color>
							<alpha>0</alpha>
							<red>255</red>
							<green>0</green>
							<blue>0</blue>
						</color>
						<in>13819</in>
						<out>-1</out>
					</marker>
					<marker>
						<name>Isn't it supposed to be new?</name>
						<comment>Newness,&#13;old media,&#13;new media,&#13;originality,&#13;limits of the computer,&#13;beautiful exhuberance, &#13;beauty,&#13;visual culture,&#13;</comment>
						<color>
							<alpha>0</alpha>
							<red>255</red>
							<green>0</green>
							<blue>0</blue>
						</color>
						<in>15171</in>
						<out>15895</out>
					</marker>
					<filter>
						<effect>
							<name>Audio Levels</name>
							<effectid>audiolevels</effectid>
							<effectcategory>audiolevels</effectcategory>
							<effecttype>audiolevels</effecttype>
							<mediatype>audio</mediatype>
							<parameter>
								<name>Level</name>
								<parameterid>level</parameterid>
								<valuemin>0</valuemin>
								<valuemax>3.98109</valuemax>
								<value>1</value>
							</parameter>
						</effect>
					</filter>
					<filter>
						<effect>
							<name>Audio Pan</name>
							<effectid>audiopan</effectid>
							<effectcategory>audiopan</effectcategory>
							<effecttype>audiopan</effecttype>
							<mediatype>audio</mediatype>
							<parameter>
								<name>Pan</name>
								<parameterid>pan</parameterid>
								<valuemin>-1</valuemin>
								<valuemax>1</valuemax>
								<value>-1</value>
							</parameter>
						</effect>
					</filter>
					<sourcetrack>
						<mediatype>audio</mediatype>
						<trackindex>1</trackindex>
					</sourcetrack>
					<link>
						<linkclipref>MVI_7681 8</linkclipref>
						<mediatype>video</mediatype>
						<trackindex>1</trackindex>
						<clipindex>7</clipindex>
					</link>
					<link>
						<linkclipref>MVI_7681 9</linkclipref>
						<mediatype>audio</mediatype>
						<trackindex>1</trackindex>
						<clipindex>7</clipindex>
						<groupindex>1</groupindex>
					</link>
					<link>
						<linkclipref>MVI_7681 10</linkclipref>
						<mediatype>audio</mediatype>
						<trackindex>2</trackindex>
						<clipindex>7</clipindex>
						<groupindex>1</groupindex>
					</link>
					<itemhistory>
						<uuid>1E3E21FA-53A1-488F-868E-4DCBF21D0E7D</uuid>
						<uuid>45824084-BCD3-433E-A245-B9A677E90473</uuid>
					</itemhistory>
				</clipitem>
				<clipitem id="MVI_7682 3">
					<name>MVI_7682</name>
					<duration>8136</duration>
					<rate>
						<ntsc>TRUE</ntsc>
						<timebase>24</timebase>
					</rate>
					<in>0</in>
					<out>8136</out>
					<start>28937</start>
					<end>37073</end>
					<masterclipid>MVI_7682 1</masterclipid>
					<logginginfo>
						<scene/>
						<shottake/>
						<lognote/>
						<good>FALSE</good>
					</logginginfo>
					<labels>
						<label2/>
					</labels>
					<comments>
						<mastercomment1/>
						<mastercomment2/>
						<mastercomment3/>
						<mastercomment4/>
					</comments>
					<file id="MVI_7682 2"/>
					<marker>
						<name>Aesthetics and Computation group</name>
						<comment>newness,&#13;education,&#13;Media Lab,&#13;aesthetics and computation,&#13;discovery,&#13;beginning,&#13;</comment>
						<color>
							<alpha>0</alpha>
							<red>255</red>
							<green>0</green>
							<blue>0</blue>
						</color>
						<in>1227</in>
						<out>2082</out>
					</marker>
					<marker>
						<name>not a big deal</name>
						<comment>art and code,&#13;computational art,&#13;hybridity</comment>
						<color>
							<alpha>0</alpha>
							<red>255</red>
							<green>0</green>
							<blue>0</blue>
						</color>
						<in>2446</in>
						<out>2849</out>
					</marker>
					<marker>
						<name>Design by Numbers</name>
						<comment>education,&#13;teaching,&#13;IDE (integrated development environment),&#13;art and code,&#13;toolkit,</comment>
						<color>
							<alpha>0</alpha>
							<red>255</red>
							<green>0</green>
							<blue>0</blue>
						</color>
						<in>3322</in>
						<out>4242</out>
					</marker>
					<marker>
						<name>Processing</name>
						<comment>processing,&#13;Media lab,&#13;Link from Casey</comment>
						<color>
							<alpha>0</alpha>
							<red>255</red>
							<green>0</green>
							<blue>0</blue>
						</color>
						<in>4598</in>
						<out>5490</out>
					</marker>
					<marker>
						<name>Batman superman</name>
						<comment>processing,&#13;collaboration,&#13;teams,&#13;partnership,</comment>
						<color>
							<alpha>0</alpha>
							<red>255</red>
							<green>0</green>
							<blue>0</blue>
						</color>
						<in>6026</in>
						<out>6934</out>
					</marker>
					<marker>
						<name>Processing toolkit</name>
						<comment>toolkit,&#13;open source,&#13;educational technology,&#13;</comment>
						<color>
							<alpha>0</alpha>
							<red>255</red>
							<green>0</green>
							<blue>0</blue>
						</color>
						<in>7402</in>
						<out>8130</out>
					</marker>
					<filter>
						<effect>
							<name>Audio Levels</name>
							<effectid>audiolevels</effectid>
							<effectcategory>audiolevels</effectcategory>
							<effecttype>audiolevels</effecttype>
							<mediatype>audio</mediatype>
							<parameter>
								<name>Level</name>
								<parameterid>level</parameterid>
								<valuemin>0</valuemin>
								<valuemax>3.98109</valuemax>
								<value>1</value>
							</parameter>
						</effect>
					</filter>
					<filter>
						<effect>
							<name>Audio Pan</name>
							<effectid>audiopan</effectid>
							<effectcategory>audiopan</effectcategory>
							<effecttype>audiopan</effecttype>
							<mediatype>audio</mediatype>
							<parameter>
								<name>Pan</name>
								<parameterid>pan</parameterid>
								<valuemin>-1</valuemin>
								<valuemax>1</valuemax>
								<value>-1</value>
							</parameter>
						</effect>
					</filter>
					<sourcetrack>
						<mediatype>audio</mediatype>
						<trackindex>1</trackindex>
					</sourcetrack>
					<link>
						<linkclipref>MVI_7682 </linkclipref>
						<mediatype>video</mediatype>
						<trackindex>1</trackindex>
						<clipindex>8</clipindex>
					</link>
					<link>
						<linkclipref>MVI_7682 3</linkclipref>
						<mediatype>audio</mediatype>
						<trackindex>1</trackindex>
						<clipindex>8</clipindex>
						<groupindex>1</groupindex>
					</link>
					<link>
						<linkclipref>MVI_7682 4</linkclipref>
						<mediatype>audio</mediatype>
						<trackindex>2</trackindex>
						<clipindex>8</clipindex>
						<groupindex>1</groupindex>
					</link>
					<itemhistory>
						<uuid>BB6B3917-008E-44EB-B86B-E2C4B4EEEDFD</uuid>
					</itemhistory>
				</clipitem>
				<clipitem id="MVI_7683 3">
					<name>MVI_7683</name>
					<duration>15370</duration>
					<rate>
						<ntsc>TRUE</ntsc>
						<timebase>24</timebase>
					</rate>
					<in>0</in>
					<out>15370</out>
					<start>37073</start>
					<end>52443</end>
					<masterclipid>MVI_7683 1</masterclipid>
					<logginginfo>
						<scene/>
						<shottake/>
						<lognote/>
						<good>FALSE</good>
					</logginginfo>
					<labels>
						<label2/>
					</labels>
					<comments>
						<mastercomment1/>
						<mastercomment2/>
						<mastercomment3/>
						<mastercomment4/>
					</comments>
					<file id="MVI_7683 2"/>
					<marker>
						<name>ACU part 1</name>
						<comment>ACU,&#13;Open Frameworks,&#13;Open Source,&#13;Media lab,</comment>
						<color>
							<alpha>0</alpha>
							<red>255</red>
							<green>0</green>
							<blue>0</blue>
						</color>
						<in>705</in>
						<out>917</out>
					</marker>
					<marker>
						<name>ACU p 2</name>
						<comment>ACU,&#13;Open Frameworks,&#13;Open Source,&#13;Media lab,</comment>
						<color>
							<alpha>0</alpha>
							<red>255</red>
							<green>0</green>
							<blue>0</blue>
						</color>
						<in>1275</in>
						<out>2047</out>
					</marker>
					<marker>
						<name>sharing for collective advancement</name>
						<comment>How has sharing of code changed the nature of creativity?&#13;sharing,&#13;doing with others,&#13;learning&#13;</comment>
						<color>
							<alpha>0</alpha>
							<red>255</red>
							<green>0</green>
							<blue>0</blue>
						</color>
						<in>4845</in>
						<out>5413</out>
					</marker>
					<marker>
						<name>passing the baton</name>
						<comment>passing the baton,&#13;kill the master,&#13;education,&#13;artistic kinship,</comment>
						<color>
							<alpha>0</alpha>
							<red>255</red>
							<green>0</green>
							<blue>0</blue>
						</color>
						<in>5893</in>
						<out>6219</out>
					</marker>
					<marker>
						<name>mentors</name>
						<comment>who are your mentors?&#13;influences,&#13;mentorship,&#13;education,&#13;passing the baton,&#13;&#13;</comment>
						<color>
							<alpha>0</alpha>
							<red>255</red>
							<green>0</green>
							<blue>0</blue>
						</color>
						<in>6802</in>
						<out>7310</out>
					</marker>
					<marker>
						<name>Forever</name>
						<comment>Paul Rand,&#13;Design,&#13;Bravado,&#13;Teachers,&#13;Humor&#13;</comment>
						<color>
							<alpha>0</alpha>
							<red>255</red>
							<green>0</green>
							<blue>0</blue>
						</color>
						<in>7738</in>
						<out>9099</out>
					</marker>
					<marker>
						<name>Glad to be alive,</name>
						<comment>Do you try to make your work humorous?&#13;existential, &#13;gratitude, &#13;being,&#13;</comment>
						<color>
							<alpha>0</alpha>
							<red>255</red>
							<green>0</green>
							<blue>0</blue>
						</color>
						<in>11818</in>
						<out>12083</out>
					</marker>
					<marker>
						<name>Life in four quarters</name>
						<comment>How do you think about time? &#13;time,&#13;mortality,&#13;aspiration,&#13;work,&#13;accomplishment,&#13;life&#13;&#13;</comment>
						<color>
							<alpha>0</alpha>
							<red>255</red>
							<green>0</green>
							<blue>0</blue>
						</color>
						<in>12772</in>
						<out>13902</out>
					</marker>
					<marker>
						<name>I can still draw</name>
						<comment>Do you still have a daily practice of making art?&#13;post-digital,&#13;mind and hand,&#13;drawing,&#13;</comment>
						<color>
							<alpha>0</alpha>
							<red>255</red>
							<green>0</green>
							<blue>0</blue>
						</color>
						<in>14214</in>
						<out>14331</out>
					</marker>
					<marker>
						<name>How do I balance these personas?</name>
						<comment>How do I balance these personas?&#13;leadership,&#13;balance,&#13;work,&#13;identity,&#13;career,</comment>
						<color>
							<alpha>0</alpha>
							<red>255</red>
							<green>0</green>
							<blue>0</blue>
						</color>
						<in>14670</in>
						<out>15306</out>
					</marker>
					<filter>
						<effect>
							<name>Audio Levels</name>
							<effectid>audiolevels</effectid>
							<effectcategory>audiolevels</effectcategory>
							<effecttype>audiolevels</effecttype>
							<mediatype>audio</mediatype>
							<parameter>
								<name>Level</name>
								<parameterid>level</parameterid>
								<valuemin>0</valuemin>
								<valuemax>3.98109</valuemax>
								<value>1</value>
							</parameter>
						</effect>
					</filter>
					<filter>
						<effect>
							<name>Audio Pan</name>
							<effectid>audiopan</effectid>
							<effectcategory>audiopan</effectcategory>
							<effecttype>audiopan</effecttype>
							<mediatype>audio</mediatype>
							<parameter>
								<name>Pan</name>
								<parameterid>pan</parameterid>
								<valuemin>-1</valuemin>
								<valuemax>1</valuemax>
								<value>-1</value>
							</parameter>
						</effect>
					</filter>
					<sourcetrack>
						<mediatype>audio</mediatype>
						<trackindex>1</trackindex>
					</sourcetrack>
					<link>
						<linkclipref>MVI_7683 </linkclipref>
						<mediatype>video</mediatype>
						<trackindex>1</trackindex>
						<clipindex>9</clipindex>
					</link>
					<link>
						<linkclipref>MVI_7683 3</linkclipref>
						<mediatype>audio</mediatype>
						<trackindex>1</trackindex>
						<clipindex>9</clipindex>
						<groupindex>1</groupindex>
					</link>
					<link>
						<linkclipref>MVI_7683 4</linkclipref>
						<mediatype>audio</mediatype>
						<trackindex>2</trackindex>
						<clipindex>9</clipindex>
						<groupindex>1</groupindex>
					</link>
					<itemhistory>
						<uuid>C9E6CFAE-5057-417F-88C4-A9CD380A00AE</uuid>
					</itemhistory>
				</clipitem>
				<clipitem id="MVI_7684 6">
					<name>MVI_7684</name>
					<duration>17768</duration>
					<rate>
						<ntsc>TRUE</ntsc>
						<timebase>24</timebase>
					</rate>
					<in>0</in>
					<out>611</out>
					<start>52443</start>
					<end>53054</end>
					<masterclipid>MVI_7684 1</masterclipid>
					<logginginfo>
						<scene/>
						<shottake/>
						<lognote/>
						<good>FALSE</good>
					</logginginfo>
					<labels>
						<label2/>
					</labels>
					<comments>
						<mastercomment1/>
						<mastercomment2/>
						<mastercomment3/>
						<mastercomment4/>
					</comments>
					<file id="MVI_7684 2"/>
					<marker>
						<name>post digital </name>
						<comment>What comes after digital?,&#13;question,&#13;</comment>
						<color>
							<alpha>0</alpha>
							<red>255</red>
							<green>0</green>
							<blue>0</blue>
						</color>
						<in>633</in>
						<out>1153</out>
					</marker>
					<marker>
						<name>All about the why?</name>
						<comment>why?,&#13;design and art,&#13;questions,&#13;</comment>
						<color>
							<alpha>0</alpha>
							<red>255</red>
							<green>0</green>
							<blue>0</blue>
						</color>
						<in>4511</in>
						<out>4728</out>
					</marker>
					<marker>
						<name>Slurpies and pizza</name>
						<comment>weird, funny, food</comment>
						<color>
							<alpha>0</alpha>
							<red>255</red>
							<green>0</green>
							<blue>0</blue>
						</color>
						<in>7330</in>
						<out>7930</out>
					</marker>
					<marker>
						<name>Clouds</name>
						<comment>what is clouds?,&#13;future of cinema,&#13;clouds,</comment>
						<color>
							<alpha>0</alpha>
							<red>255</red>
							<green>0</green>
							<blue>0</blue>
						</color>
						<in>11603</in>
						<out>12063</out>
					</marker>
					<marker>
						<name>about relationships</name>
						<comment/>
						<color>
							<alpha>0</alpha>
							<red>255</red>
							<green>0</green>
							<blue>0</blue>
						</color>
						<in>12389</in>
						<out>12708</out>
					</marker>
					<marker>
						<name>recording appalachian music</name>
						<comment>becoming more human,&#13;humanism,&#13;culture,&#13;post-digital,&#13;what you do with the tools,</comment>
						<color>
							<alpha>0</alpha>
							<red>255</red>
							<green>0</green>
							<blue>0</blue>
						</color>
						<in>12845</in>
						<out>14240</out>
					</marker>
					<marker>
						<name>Coding for humanity</name>
						<comment>program or be programmed,&#13;coding culture,&#13;own the tool,&#13;just a tool,&#13;people,&#13;humanism,</comment>
						<color>
							<alpha>0</alpha>
							<red>255</red>
							<green>0</green>
							<blue>0</blue>
						</color>
						<in>15927</in>
						<out>16984</out>
					</marker>
					<filter>
						<effect>
							<name>Audio Levels</name>
							<effectid>audiolevels</effectid>
							<effectcategory>audiolevels</effectcategory>
							<effecttype>audiolevels</effecttype>
							<mediatype>audio</mediatype>
							<parameter>
								<name>Level</name>
								<parameterid>level</parameterid>
								<valuemin>0</valuemin>
								<valuemax>3.98109</valuemax>
								<value>1</value>
							</parameter>
						</effect>
					</filter>
					<filter>
						<effect>
							<name>Audio Pan</name>
							<effectid>audiopan</effectid>
							<effectcategory>audiopan</effectcategory>
							<effecttype>audiopan</effecttype>
							<mediatype>audio</mediatype>
							<parameter>
								<name>Pan</name>
								<parameterid>pan</parameterid>
								<valuemin>-1</valuemin>
								<valuemax>1</valuemax>
								<value>-1</value>
							</parameter>
						</effect>
					</filter>
					<sourcetrack>
						<mediatype>audio</mediatype>
						<trackindex>1</trackindex>
					</sourcetrack>
					<link>
						<linkclipref>MVI_7684 5</linkclipref>
						<mediatype>video</mediatype>
						<trackindex>2</trackindex>
						<clipindex>6</clipindex>
					</link>
					<link>
						<linkclipref>MVI_7684 6</linkclipref>
						<mediatype>audio</mediatype>
						<trackindex>1</trackindex>
						<clipindex>10</clipindex>
						<groupindex>1</groupindex>
					</link>
					<link>
						<linkclipref>MVI_7684 7</linkclipref>
						<mediatype>audio</mediatype>
						<trackindex>2</trackindex>
						<clipindex>10</clipindex>
						<groupindex>1</groupindex>
					</link>
					<itemhistory>
						<uuid>AC4A140C-963C-4147-B85F-4C334DEF840F</uuid>
						<uuid>4657DC30-2F37-45D6-827E-16087840C988</uuid>
					</itemhistory>
				</clipitem>
				<clipitem id="MVI_7684 9">
					<name>MVI_7684</name>
					<duration>17768</duration>
					<rate>
						<ntsc>TRUE</ntsc>
						<timebase>24</timebase>
					</rate>
					<in>611</in>
					<out>2059</out>
					<start>53054</start>
					<end>54502</end>
					<masterclipid>MVI_7684 1</masterclipid>
					<logginginfo>
						<scene/>
						<shottake/>
						<lognote/>
						<good>FALSE</good>
					</logginginfo>
					<labels>
						<label2/>
					</labels>
					<comments>
						<mastercomment1/>
						<mastercomment2/>
						<mastercomment3/>
						<mastercomment4/>
					</comments>
					<file id="MVI_7684 2"/>
					<marker>
						<name>post digital </name>
						<comment>What comes after digital?,&#13;question,&#13;</comment>
						<color>
							<alpha>0</alpha>
							<red>255</red>
							<green>0</green>
							<blue>0</blue>
						</color>
						<in>633</in>
						<out>1153</out>
					</marker>
					<marker>
						<name>All about the why?</name>
						<comment>why?,&#13;design and art,&#13;questions,&#13;</comment>
						<color>
							<alpha>0</alpha>
							<red>255</red>
							<green>0</green>
							<blue>0</blue>
						</color>
						<in>4511</in>
						<out>4728</out>
					</marker>
					<marker>
						<name>Slurpies and pizza</name>
						<comment>weird, funny, food</comment>
						<color>
							<alpha>0</alpha>
							<red>255</red>
							<green>0</green>
							<blue>0</blue>
						</color>
						<in>7330</in>
						<out>7930</out>
					</marker>
					<marker>
						<name>Clouds</name>
						<comment>what is clouds?,&#13;future of cinema,&#13;clouds,</comment>
						<color>
							<alpha>0</alpha>
							<red>255</red>
							<green>0</green>
							<blue>0</blue>
						</color>
						<in>11603</in>
						<out>12063</out>
					</marker>
					<marker>
						<name>about relationships</name>
						<comment/>
						<color>
							<alpha>0</alpha>
							<red>255</red>
							<green>0</green>
							<blue>0</blue>
						</color>
						<in>12389</in>
						<out>12708</out>
					</marker>
					<marker>
						<name>recording appalachian music</name>
						<comment>becoming more human,&#13;humanism,&#13;culture,&#13;post-digital,&#13;what you do with the tools,</comment>
						<color>
							<alpha>0</alpha>
							<red>255</red>
							<green>0</green>
							<blue>0</blue>
						</color>
						<in>12845</in>
						<out>14240</out>
					</marker>
					<marker>
						<name>Coding for humanity</name>
						<comment>program or be programmed,&#13;coding culture,&#13;own the tool,&#13;just a tool,&#13;people,&#13;humanism,</comment>
						<color>
							<alpha>0</alpha>
							<red>255</red>
							<green>0</green>
							<blue>0</blue>
						</color>
						<in>15927</in>
						<out>16984</out>
					</marker>
					<filter>
						<effect>
							<name>Audio Levels</name>
							<effectid>audiolevels</effectid>
							<effectcategory>audiolevels</effectcategory>
							<effecttype>audiolevels</effecttype>
							<mediatype>audio</mediatype>
							<parameter>
								<name>Level</name>
								<parameterid>level</parameterid>
								<valuemin>0</valuemin>
								<valuemax>3.98109</valuemax>
								<value>1</value>
							</parameter>
						</effect>
					</filter>
					<filter>
						<effect>
							<name>Audio Pan</name>
							<effectid>audiopan</effectid>
							<effectcategory>audiopan</effectcategory>
							<effecttype>audiopan</effecttype>
							<mediatype>audio</mediatype>
							<parameter>
								<name>Pan</name>
								<parameterid>pan</parameterid>
								<valuemin>-1</valuemin>
								<valuemax>1</valuemax>
								<value>-1</value>
							</parameter>
						</effect>
					</filter>
					<sourcetrack>
						<mediatype>audio</mediatype>
						<trackindex>1</trackindex>
					</sourcetrack>
					<link>
						<linkclipref>MVI_7684 8</linkclipref>
						<mediatype>video</mediatype>
						<trackindex>2</trackindex>
						<clipindex>7</clipindex>
					</link>
					<link>
						<linkclipref>MVI_7684 9</linkclipref>
						<mediatype>audio</mediatype>
						<trackindex>1</trackindex>
						<clipindex>11</clipindex>
						<groupindex>1</groupindex>
					</link>
					<link>
						<linkclipref>MVI_7684 10</linkclipref>
						<mediatype>audio</mediatype>
						<trackindex>2</trackindex>
						<clipindex>11</clipindex>
						<groupindex>1</groupindex>
					</link>
					<itemhistory>
						<uuid>BCBE8758-A795-41D8-A73E-80338FAB5FA2</uuid>
						<uuid>4657DC30-2F37-45D6-827E-16087840C988</uuid>
					</itemhistory>
				</clipitem>
				<clipitem id="MVI_7684 12">
					<name>MVI_7684</name>
					<duration>17768</duration>
					<rate>
						<ntsc>TRUE</ntsc>
						<timebase>24</timebase>
					</rate>
					<in>2059</in>
					<out>4907</out>
					<start>54502</start>
					<end>57350</end>
					<masterclipid>MVI_7684 1</masterclipid>
					<logginginfo>
						<scene/>
						<shottake/>
						<lognote/>
						<good>FALSE</good>
					</logginginfo>
					<labels>
						<label2/>
					</labels>
					<comments>
						<mastercomment1/>
						<mastercomment2/>
						<mastercomment3/>
						<mastercomment4/>
					</comments>
					<file id="MVI_7684 2"/>
					<marker>
						<name>post digital </name>
						<comment>What comes after digital?,&#13;question,&#13;</comment>
						<color>
							<alpha>0</alpha>
							<red>255</red>
							<green>0</green>
							<blue>0</blue>
						</color>
						<in>633</in>
						<out>1153</out>
					</marker>
					<marker>
						<name>All about the why?</name>
						<comment>why?,&#13;design and art,&#13;questions,&#13;</comment>
						<color>
							<alpha>0</alpha>
							<red>255</red>
							<green>0</green>
							<blue>0</blue>
						</color>
						<in>4511</in>
						<out>4728</out>
					</marker>
					<marker>
						<name>Slurpies and pizza</name>
						<comment>weird, funny, food</comment>
						<color>
							<alpha>0</alpha>
							<red>255</red>
							<green>0</green>
							<blue>0</blue>
						</color>
						<in>7330</in>
						<out>7930</out>
					</marker>
					<marker>
						<name>Clouds</name>
						<comment>what is clouds?,&#13;future of cinema,&#13;clouds,</comment>
						<color>
							<alpha>0</alpha>
							<red>255</red>
							<green>0</green>
							<blue>0</blue>
						</color>
						<in>11603</in>
						<out>12063</out>
					</marker>
					<marker>
						<name>about relationships</name>
						<comment/>
						<color>
							<alpha>0</alpha>
							<red>255</red>
							<green>0</green>
							<blue>0</blue>
						</color>
						<in>12389</in>
						<out>12708</out>
					</marker>
					<marker>
						<name>recording appalachian music</name>
						<comment>becoming more human,&#13;humanism,&#13;culture,&#13;post-digital,&#13;what you do with the tools,</comment>
						<color>
							<alpha>0</alpha>
							<red>255</red>
							<green>0</green>
							<blue>0</blue>
						</color>
						<in>12845</in>
						<out>14240</out>
					</marker>
					<marker>
						<name>Coding for humanity</name>
						<comment>program or be programmed,&#13;coding culture,&#13;own the tool,&#13;just a tool,&#13;people,&#13;humanism,</comment>
						<color>
							<alpha>0</alpha>
							<red>255</red>
							<green>0</green>
							<blue>0</blue>
						</color>
						<in>15927</in>
						<out>16984</out>
					</marker>
					<filter>
						<effect>
							<name>Audio Levels</name>
							<effectid>audiolevels</effectid>
							<effectcategory>audiolevels</effectcategory>
							<effecttype>audiolevels</effecttype>
							<mediatype>audio</mediatype>
							<parameter>
								<name>Level</name>
								<parameterid>level</parameterid>
								<valuemin>0</valuemin>
								<valuemax>3.98109</valuemax>
								<value>1</value>
							</parameter>
						</effect>
					</filter>
					<filter>
						<effect>
							<name>Audio Pan</name>
							<effectid>audiopan</effectid>
							<effectcategory>audiopan</effectcategory>
							<effecttype>audiopan</effecttype>
							<mediatype>audio</mediatype>
							<parameter>
								<name>Pan</name>
								<parameterid>pan</parameterid>
								<valuemin>-1</valuemin>
								<valuemax>1</valuemax>
								<value>-1</value>
							</parameter>
						</effect>
					</filter>
					<sourcetrack>
						<mediatype>audio</mediatype>
						<trackindex>1</trackindex>
					</sourcetrack>
					<link>
						<linkclipref>MVI_7684 11</linkclipref>
						<mediatype>video</mediatype>
						<trackindex>2</trackindex>
						<clipindex>8</clipindex>
					</link>
					<link>
						<linkclipref>MVI_7684 12</linkclipref>
						<mediatype>audio</mediatype>
						<trackindex>1</trackindex>
						<clipindex>12</clipindex>
						<groupindex>1</groupindex>
					</link>
					<link>
						<linkclipref>MVI_7684 13</linkclipref>
						<mediatype>audio</mediatype>
						<trackindex>2</trackindex>
						<clipindex>12</clipindex>
						<groupindex>1</groupindex>
					</link>
					<itemhistory>
						<uuid>76F22970-4EDA-44AB-B44A-13BF7FF43B47</uuid>
						<uuid>4657DC30-2F37-45D6-827E-16087840C988</uuid>
					</itemhistory>
				</clipitem>
				<clipitem id="MVI_7684 15">
					<name>MVI_7684</name>
					<duration>17768</duration>
					<rate>
						<ntsc>TRUE</ntsc>
						<timebase>24</timebase>
					</rate>
					<in>4907</in>
					<out>5035</out>
					<start>57350</start>
					<end>57478</end>
					<masterclipid>MVI_7684 1</masterclipid>
					<logginginfo>
						<scene/>
						<shottake/>
						<lognote/>
						<good>FALSE</good>
					</logginginfo>
					<labels>
						<label2/>
					</labels>
					<comments>
						<mastercomment1/>
						<mastercomment2/>
						<mastercomment3/>
						<mastercomment4/>
					</comments>
					<file id="MVI_7684 2"/>
					<marker>
						<name>post digital </name>
						<comment>What comes after digital?,&#13;question,&#13;</comment>
						<color>
							<alpha>0</alpha>
							<red>255</red>
							<green>0</green>
							<blue>0</blue>
						</color>
						<in>633</in>
						<out>1153</out>
					</marker>
					<marker>
						<name>All about the why?</name>
						<comment>why?,&#13;design and art,&#13;questions,&#13;</comment>
						<color>
							<alpha>0</alpha>
							<red>255</red>
							<green>0</green>
							<blue>0</blue>
						</color>
						<in>4511</in>
						<out>4728</out>
					</marker>
					<marker>
						<name>Slurpies and pizza</name>
						<comment>weird, funny, food</comment>
						<color>
							<alpha>0</alpha>
							<red>255</red>
							<green>0</green>
							<blue>0</blue>
						</color>
						<in>7330</in>
						<out>7930</out>
					</marker>
					<marker>
						<name>Clouds</name>
						<comment>what is clouds?,&#13;future of cinema,&#13;clouds,</comment>
						<color>
							<alpha>0</alpha>
							<red>255</red>
							<green>0</green>
							<blue>0</blue>
						</color>
						<in>11603</in>
						<out>12063</out>
					</marker>
					<marker>
						<name>about relationships</name>
						<comment/>
						<color>
							<alpha>0</alpha>
							<red>255</red>
							<green>0</green>
							<blue>0</blue>
						</color>
						<in>12389</in>
						<out>12708</out>
					</marker>
					<marker>
						<name>recording appalachian music</name>
						<comment>becoming more human,&#13;humanism,&#13;culture,&#13;post-digital,&#13;what you do with the tools,</comment>
						<color>
							<alpha>0</alpha>
							<red>255</red>
							<green>0</green>
							<blue>0</blue>
						</color>
						<in>12845</in>
						<out>14240</out>
					</marker>
					<marker>
						<name>Coding for humanity</name>
						<comment>program or be programmed,&#13;coding culture,&#13;own the tool,&#13;just a tool,&#13;people,&#13;humanism,</comment>
						<color>
							<alpha>0</alpha>
							<red>255</red>
							<green>0</green>
							<blue>0</blue>
						</color>
						<in>15927</in>
						<out>16984</out>
					</marker>
					<filter>
						<effect>
							<name>Audio Levels</name>
							<effectid>audiolevels</effectid>
							<effectcategory>audiolevels</effectcategory>
							<effecttype>audiolevels</effecttype>
							<mediatype>audio</mediatype>
							<parameter>
								<name>Level</name>
								<parameterid>level</parameterid>
								<valuemin>0</valuemin>
								<valuemax>3.98109</valuemax>
								<value>1</value>
							</parameter>
						</effect>
					</filter>
					<filter>
						<effect>
							<name>Audio Pan</name>
							<effectid>audiopan</effectid>
							<effectcategory>audiopan</effectcategory>
							<effecttype>audiopan</effecttype>
							<mediatype>audio</mediatype>
							<parameter>
								<name>Pan</name>
								<parameterid>pan</parameterid>
								<valuemin>-1</valuemin>
								<valuemax>1</valuemax>
								<value>-1</value>
							</parameter>
						</effect>
					</filter>
					<sourcetrack>
						<mediatype>audio</mediatype>
						<trackindex>1</trackindex>
					</sourcetrack>
					<link>
						<linkclipref>MVI_7684 14</linkclipref>
						<mediatype>video</mediatype>
						<trackindex>2</trackindex>
						<clipindex>9</clipindex>
					</link>
					<link>
						<linkclipref>MVI_7684 15</linkclipref>
						<mediatype>audio</mediatype>
						<trackindex>1</trackindex>
						<clipindex>13</clipindex>
						<groupindex>1</groupindex>
					</link>
					<link>
						<linkclipref>MVI_7684 16</linkclipref>
						<mediatype>audio</mediatype>
						<trackindex>2</trackindex>
						<clipindex>13</clipindex>
						<groupindex>1</groupindex>
					</link>
					<itemhistory>
						<uuid>D34C69BA-84D8-49B8-B854-73CB1B1C2652</uuid>
						<uuid>4657DC30-2F37-45D6-827E-16087840C988</uuid>
					</itemhistory>
				</clipitem>
				<clipitem id="MVI_7684 18">
					<name>MVI_7684</name>
					<duration>17768</duration>
					<rate>
						<ntsc>TRUE</ntsc>
						<timebase>24</timebase>
					</rate>
					<in>5035</in>
					<out>17768</out>
					<start>57478</start>
					<end>70211</end>
					<masterclipid>MVI_7684 1</masterclipid>
					<logginginfo>
						<scene/>
						<shottake/>
						<lognote/>
						<good>FALSE</good>
					</logginginfo>
					<labels>
						<label2/>
					</labels>
					<comments>
						<mastercomment1/>
						<mastercomment2/>
						<mastercomment3/>
						<mastercomment4/>
					</comments>
					<file id="MVI_7684 2"/>
					<marker>
						<name>post digital </name>
						<comment>What comes after digital?,&#13;question,&#13;</comment>
						<color>
							<alpha>0</alpha>
							<red>255</red>
							<green>0</green>
							<blue>0</blue>
						</color>
						<in>633</in>
						<out>1153</out>
					</marker>
					<marker>
						<name>All about the why?</name>
						<comment>why?,&#13;design and art,&#13;questions,&#13;</comment>
						<color>
							<alpha>0</alpha>
							<red>255</red>
							<green>0</green>
							<blue>0</blue>
						</color>
						<in>4511</in>
						<out>4728</out>
					</marker>
					<marker>
						<name>Slurpies and pizza</name>
						<comment>weird, funny, food</comment>
						<color>
							<alpha>0</alpha>
							<red>255</red>
							<green>0</green>
							<blue>0</blue>
						</color>
						<in>7330</in>
						<out>7930</out>
					</marker>
					<marker>
						<name>Clouds</name>
						<comment>what is clouds?,&#13;future of cinema,&#13;clouds,</comment>
						<color>
							<alpha>0</alpha>
							<red>255</red>
							<green>0</green>
							<blue>0</blue>
						</color>
						<in>11603</in>
						<out>12063</out>
					</marker>
					<marker>
						<name>about relationships</name>
						<comment/>
						<color>
							<alpha>0</alpha>
							<red>255</red>
							<green>0</green>
							<blue>0</blue>
						</color>
						<in>12389</in>
						<out>12708</out>
					</marker>
					<marker>
						<name>recording appalachian music</name>
						<comment>becoming more human,&#13;humanism,&#13;culture,&#13;post-digital,&#13;what you do with the tools,</comment>
						<color>
							<alpha>0</alpha>
							<red>255</red>
							<green>0</green>
							<blue>0</blue>
						</color>
						<in>12845</in>
						<out>14240</out>
					</marker>
					<marker>
						<name>Coding for humanity</name>
						<comment>program or be programmed,&#13;coding culture,&#13;own the tool,&#13;just a tool,&#13;people,&#13;humanism,</comment>
						<color>
							<alpha>0</alpha>
							<red>255</red>
							<green>0</green>
							<blue>0</blue>
						</color>
						<in>15927</in>
						<out>16984</out>
					</marker>
					<filter>
						<effect>
							<name>Audio Levels</name>
							<effectid>audiolevels</effectid>
							<effectcategory>audiolevels</effectcategory>
							<effecttype>audiolevels</effecttype>
							<mediatype>audio</mediatype>
							<parameter>
								<name>Level</name>
								<parameterid>level</parameterid>
								<valuemin>0</valuemin>
								<valuemax>3.98109</valuemax>
								<value>1</value>
							</parameter>
						</effect>
					</filter>
					<filter>
						<effect>
							<name>Audio Pan</name>
							<effectid>audiopan</effectid>
							<effectcategory>audiopan</effectcategory>
							<effecttype>audiopan</effecttype>
							<mediatype>audio</mediatype>
							<parameter>
								<name>Pan</name>
								<parameterid>pan</parameterid>
								<valuemin>-1</valuemin>
								<valuemax>1</valuemax>
								<value>-1</value>
							</parameter>
						</effect>
					</filter>
					<sourcetrack>
						<mediatype>audio</mediatype>
						<trackindex>1</trackindex>
					</sourcetrack>
					<link>
						<linkclipref>MVI_7684 17</linkclipref>
						<mediatype>video</mediatype>
						<trackindex>2</trackindex>
						<clipindex>10</clipindex>
					</link>
					<link>
						<linkclipref>MVI_7684 18</linkclipref>
						<mediatype>audio</mediatype>
						<trackindex>1</trackindex>
						<clipindex>14</clipindex>
						<groupindex>1</groupindex>
					</link>
					<link>
						<linkclipref>MVI_7684 19</linkclipref>
						<mediatype>audio</mediatype>
						<trackindex>2</trackindex>
						<clipindex>14</clipindex>
						<groupindex>1</groupindex>
					</link>
					<itemhistory>
						<uuid>B5096C5A-7202-42C8-88B2-6D3C5074604F</uuid>
						<uuid>4657DC30-2F37-45D6-827E-16087840C988</uuid>
					</itemhistory>
				</clipitem>
				<enabled>TRUE</enabled>
				<locked>FALSE</locked>
				<outputchannelindex>1</outputchannelindex>
			</track>
			<track>
				<clipitem id="MVI_7671 4">
					<name>MVI_7671</name>
					<duration>789</duration>
					<rate>
						<ntsc>TRUE</ntsc>
						<timebase>24</timebase>
					</rate>
					<in>0</in>
					<out>789</out>
					<start>0</start>
					<end>789</end>
					<enabled>TRUE</enabled>
					<masterclipid>MVI_7671 1</masterclipid>
					<logginginfo>
						<scene/>
						<shottake/>
						<lognote/>
						<good>FALSE</good>
					</logginginfo>
					<labels>
						<label2/>
					</labels>
					<comments>
						<mastercomment1/>
						<mastercomment2/>
						<mastercomment3/>
						<mastercomment4/>
					</comments>
					<file id="MVI_7671 2"/>
					<filter>
						<effect>
							<name>Audio Levels</name>
							<effectid>audiolevels</effectid>
							<effectcategory>audiolevels</effectcategory>
							<effecttype>audiolevels</effecttype>
							<mediatype>audio</mediatype>
							<parameter>
								<name>Level</name>
								<parameterid>level</parameterid>
								<valuemin>0</valuemin>
								<valuemax>3.98109</valuemax>
								<value>1</value>
							</parameter>
						</effect>
					</filter>
					<filter>
						<effect>
							<name>Audio Pan</name>
							<effectid>audiopan</effectid>
							<effectcategory>audiopan</effectcategory>
							<effecttype>audiopan</effecttype>
							<mediatype>audio</mediatype>
							<parameter>
								<name>Pan</name>
								<parameterid>pan</parameterid>
								<valuemin>-1</valuemin>
								<valuemax>1</valuemax>
								<value>1</value>
							</parameter>
						</effect>
					</filter>
					<sourcetrack>
						<mediatype>audio</mediatype>
						<trackindex>2</trackindex>
					</sourcetrack>
					<link>
						<linkclipref>MVI_7671 </linkclipref>
						<mediatype>video</mediatype>
						<trackindex>1</trackindex>
						<clipindex>1</clipindex>
					</link>
					<link>
						<linkclipref>MVI_7671 3</linkclipref>
						<mediatype>audio</mediatype>
						<trackindex>1</trackindex>
						<clipindex>1</clipindex>
						<groupindex>1</groupindex>
					</link>
					<link>
						<linkclipref>MVI_7671 4</linkclipref>
						<mediatype>audio</mediatype>
						<trackindex>2</trackindex>
						<clipindex>1</clipindex>
						<groupindex>1</groupindex>
					</link>
					<itemhistory>
						<uuid>F481F674-05FD-4A58-A6A2-7041CE21C8B1</uuid>
					</itemhistory>
				</clipitem>
				<clipitem id="MVI_7676 4">
					<name>MVI_7676</name>
					<duration>2000</duration>
					<rate>
						<ntsc>TRUE</ntsc>
						<timebase>24</timebase>
					</rate>
					<in>0</in>
					<out>2000</out>
					<start>789</start>
					<end>2789</end>
					<masterclipid>MVI_7676 1</masterclipid>
					<logginginfo>
						<scene/>
						<shottake/>
						<lognote/>
						<good>FALSE</good>
					</logginginfo>
					<labels>
						<label2/>
					</labels>
					<comments>
						<mastercomment1/>
						<mastercomment2/>
						<mastercomment3/>
						<mastercomment4/>
					</comments>
					<file id="MVI_7676 2"/>
					<marker>
						<name>a computer is a clock</name>
						<comment>What is a computer?,&#13;time,&#13;computer,&#13;clock</comment>
						<color>
							<alpha>0</alpha>
							<red>255</red>
							<green>127</green>
							<blue>0</blue>
						</color>
						<in>249</in>
						<out>768</out>
					</marker>
					<marker>
						<name>early computer graphics</name>
						<comment>what was it like working with early computers?,&#13;history,&#13;sketching,&#13;</comment>
						<color>
							<alpha>0</alpha>
							<red>255</red>
							<green>0</green>
							<blue>0</blue>
						</color>
						<in>1141</in>
						<out>1919</out>
					</marker>
					<filter>
						<effect>
							<name>Audio Levels</name>
							<effectid>audiolevels</effectid>
							<effectcategory>audiolevels</effectcategory>
							<effecttype>audiolevels</effecttype>
							<mediatype>audio</mediatype>
							<parameter>
								<name>Level</name>
								<parameterid>level</parameterid>
								<valuemin>0</valuemin>
								<valuemax>3.98109</valuemax>
								<value>1</value>
							</parameter>
						</effect>
					</filter>
					<filter>
						<effect>
							<name>Audio Pan</name>
							<effectid>audiopan</effectid>
							<effectcategory>audiopan</effectcategory>
							<effecttype>audiopan</effecttype>
							<mediatype>audio</mediatype>
							<parameter>
								<name>Pan</name>
								<parameterid>pan</parameterid>
								<valuemin>-1</valuemin>
								<valuemax>1</valuemax>
								<value>1</value>
							</parameter>
						</effect>
					</filter>
					<sourcetrack>
						<mediatype>audio</mediatype>
						<trackindex>2</trackindex>
					</sourcetrack>
					<link>
						<linkclipref>MVI_7676 </linkclipref>
						<mediatype>video</mediatype>
						<trackindex>1</trackindex>
						<clipindex>2</clipindex>
					</link>
					<link>
						<linkclipref>MVI_7676 3</linkclipref>
						<mediatype>audio</mediatype>
						<trackindex>1</trackindex>
						<clipindex>2</clipindex>
						<groupindex>1</groupindex>
					</link>
					<link>
						<linkclipref>MVI_7676 4</linkclipref>
						<mediatype>audio</mediatype>
						<trackindex>2</trackindex>
						<clipindex>2</clipindex>
						<groupindex>1</groupindex>
					</link>
					<itemhistory>
						<uuid>A6F95FDE-CE9D-4EA4-8B42-604ABB255AE0</uuid>
					</itemhistory>
				</clipitem>
				<clipitem id="MVI_7680 4">
					<name>MVI_7680</name>
					<duration>10163</duration>
					<rate>
						<ntsc>TRUE</ntsc>
						<timebase>24</timebase>
					</rate>
					<in>0</in>
					<out>3341</out>
					<start>2789</start>
					<end>6130</end>
					<masterclipid>MVI_7680 1</masterclipid>
					<logginginfo>
						<scene/>
						<shottake/>
						<lognote/>
						<good>FALSE</good>
					</logginginfo>
					<labels>
						<label2/>
					</labels>
					<comments>
						<mastercomment1/>
						<mastercomment2/>
						<mastercomment3/>
						<mastercomment4/>
					</comments>
					<file id="MVI_7680 2"/>
					<marker>
						<name>Marker 7</name>
						<comment/>
						<color>
							<alpha>0</alpha>
							<red>255</red>
							<green>0</green>
							<blue>0</blue>
						</color>
						<in>3364</in>
						<out>-1</out>
					</marker>
					<marker>
						<name>technology is made by people</name>
						<comment>Are humans and technology truly opposites: Isn't technology after all a reflection of humanity?, &#13;humanism,&#13;dichotomy,&#13;struggle with technology,&#13;challenges</comment>
						<color>
							<alpha>0</alpha>
							<red>255</red>
							<green>0</green>
							<blue>0</blue>
						</color>
						<in>3367</in>
						<out>4400</out>
					</marker>
					<marker>
						<name>do not resuscitate </name>
						<comment>How do you see your older work now?,&#13;obsolescence, &#13;old media,&#13;history,&#13;&#13;</comment>
						<color>
							<alpha>0</alpha>
							<red>255</red>
							<green>0</green>
							<blue>0</blue>
						</color>
						<in>4852</in>
						<out>5228</out>
					</marker>
					<marker>
						<name>thinking about interfaces</name>
						<comment>Is your work transgressive?,&#13;why?,&#13;what if....?,&#13;inversion,&#13;play,&#13;hacking,&#13;subversion,&#13;interfaces,&#13;mouse,&#13;keyboard,&#13;GUI,&#13;think different,</comment>
						<color>
							<alpha>0</alpha>
							<red>255</red>
							<green>0</green>
							<blue>0</blue>
						</color>
						<in>5377</in>
						<out>6367</out>
					</marker>
					<marker>
						<name>Marker 4</name>
						<comment>what's the importance of play?,&#13;play,&#13;children,&#13;physicality,&#13;active learning,&#13;embodiment,&#13;interactivity,&#13;&#13;</comment>
						<color>
							<alpha>0</alpha>
							<red>255</red>
							<green>0</green>
							<blue>0</blue>
						</color>
						<in>6537</in>
						<out>7767</out>
					</marker>
					<marker>
						<name>reactive square</name>
						<comment>what's the importance of play?,&#13;audivisualization,&#13;interactivity,&#13;kids&#13;</comment>
						<color>
							<alpha>0</alpha>
							<red>255</red>
							<green>0</green>
							<blue>0</blue>
						</color>
						<in>6917</in>
						<out>7729</out>
					</marker>
					<marker>
						<name>Subversion</name>
						<comment>critique,&#13;insight,&#13;emotion,&#13;meaning,&#13;mood: epiphany,</comment>
						<color>
							<alpha>0</alpha>
							<red>255</red>
							<green>0</green>
							<blue>0</blue>
						</color>
						<in>8919</in>
						<out>9818</out>
					</marker>
					<filter>
						<effect>
							<name>Audio Levels</name>
							<effectid>audiolevels</effectid>
							<effectcategory>audiolevels</effectcategory>
							<effecttype>audiolevels</effecttype>
							<mediatype>audio</mediatype>
							<parameter>
								<name>Level</name>
								<parameterid>level</parameterid>
								<valuemin>0</valuemin>
								<valuemax>3.98109</valuemax>
								<value>1</value>
							</parameter>
						</effect>
					</filter>
					<filter>
						<effect>
							<name>Audio Pan</name>
							<effectid>audiopan</effectid>
							<effectcategory>audiopan</effectcategory>
							<effecttype>audiopan</effecttype>
							<mediatype>audio</mediatype>
							<parameter>
								<name>Pan</name>
								<parameterid>pan</parameterid>
								<valuemin>-1</valuemin>
								<valuemax>1</valuemax>
								<value>1</value>
							</parameter>
						</effect>
					</filter>
					<sourcetrack>
						<mediatype>audio</mediatype>
						<trackindex>2</trackindex>
					</sourcetrack>
					<link>
						<linkclipref>MVI_7680 </linkclipref>
						<mediatype>video</mediatype>
						<trackindex>1</trackindex>
						<clipindex>3</clipindex>
					</link>
					<link>
						<linkclipref>MVI_7680 3</linkclipref>
						<mediatype>audio</mediatype>
						<trackindex>1</trackindex>
						<clipindex>3</clipindex>
						<groupindex>1</groupindex>
					</link>
					<link>
						<linkclipref>MVI_7680 4</linkclipref>
						<mediatype>audio</mediatype>
						<trackindex>2</trackindex>
						<clipindex>3</clipindex>
						<groupindex>1</groupindex>
					</link>
					<itemhistory>
						<uuid>AA0950D4-D721-4D84-903D-B8E58655E144</uuid>
						<uuid>038BA5D2-096A-4585-8BF8-5E60687C1500</uuid>
					</itemhistory>
				</clipitem>
				<clipitem id="MVI_7680 7">
					<name>MVI_7680</name>
					<duration>10163</duration>
					<rate>
						<ntsc>TRUE</ntsc>
						<timebase>24</timebase>
					</rate>
					<in>3341</in>
					<out>10163</out>
					<start>6130</start>
					<end>12952</end>
					<masterclipid>MVI_7680 1</masterclipid>
					<logginginfo>
						<scene/>
						<shottake/>
						<lognote/>
						<good>FALSE</good>
					</logginginfo>
					<labels>
						<label2/>
					</labels>
					<comments>
						<mastercomment1/>
						<mastercomment2/>
						<mastercomment3/>
						<mastercomment4/>
					</comments>
					<file id="MVI_7680 2"/>
					<marker>
						<name>Marker 7</name>
						<comment/>
						<color>
							<alpha>0</alpha>
							<red>255</red>
							<green>0</green>
							<blue>0</blue>
						</color>
						<in>3364</in>
						<out>-1</out>
					</marker>
					<marker>
						<name>technology is made by people</name>
						<comment>Are humans and technology truly opposites: Isn't technology after all a reflection of humanity?, &#13;humanism,&#13;dichotomy,&#13;struggle with technology,&#13;challenges</comment>
						<color>
							<alpha>0</alpha>
							<red>255</red>
							<green>0</green>
							<blue>0</blue>
						</color>
						<in>3367</in>
						<out>4400</out>
					</marker>
					<marker>
						<name>do not resuscitate </name>
						<comment>How do you see your older work now?,&#13;obsolescence, &#13;old media,&#13;history,&#13;&#13;</comment>
						<color>
							<alpha>0</alpha>
							<red>255</red>
							<green>0</green>
							<blue>0</blue>
						</color>
						<in>4852</in>
						<out>5228</out>
					</marker>
					<marker>
						<name>thinking about interfaces</name>
						<comment>Is your work transgressive?,&#13;why?,&#13;what if....?,&#13;inversion,&#13;play,&#13;hacking,&#13;subversion,&#13;interfaces,&#13;mouse,&#13;keyboard,&#13;GUI,&#13;think different,</comment>
						<color>
							<alpha>0</alpha>
							<red>255</red>
							<green>0</green>
							<blue>0</blue>
						</color>
						<in>5377</in>
						<out>6367</out>
					</marker>
					<marker>
						<name>Marker 4</name>
						<comment>what's the importance of play?,&#13;play,&#13;children,&#13;physicality,&#13;active learning,&#13;embodiment,&#13;interactivity,&#13;&#13;</comment>
						<color>
							<alpha>0</alpha>
							<red>255</red>
							<green>0</green>
							<blue>0</blue>
						</color>
						<in>6537</in>
						<out>7767</out>
					</marker>
					<marker>
						<name>reactive square</name>
						<comment>what's the importance of play?,&#13;audivisualization,&#13;interactivity,&#13;kids&#13;</comment>
						<color>
							<alpha>0</alpha>
							<red>255</red>
							<green>0</green>
							<blue>0</blue>
						</color>
						<in>6917</in>
						<out>7729</out>
					</marker>
					<marker>
						<name>Subversion</name>
						<comment>critique,&#13;insight,&#13;emotion,&#13;meaning,&#13;mood: epiphany,</comment>
						<color>
							<alpha>0</alpha>
							<red>255</red>
							<green>0</green>
							<blue>0</blue>
						</color>
						<in>8919</in>
						<out>9818</out>
					</marker>
					<filter>
						<effect>
							<name>Audio Levels</name>
							<effectid>audiolevels</effectid>
							<effectcategory>audiolevels</effectcategory>
							<effecttype>audiolevels</effecttype>
							<mediatype>audio</mediatype>
							<parameter>
								<name>Level</name>
								<parameterid>level</parameterid>
								<valuemin>0</valuemin>
								<valuemax>3.98109</valuemax>
								<value>1</value>
							</parameter>
						</effect>
					</filter>
					<filter>
						<effect>
							<name>Audio Pan</name>
							<effectid>audiopan</effectid>
							<effectcategory>audiopan</effectcategory>
							<effecttype>audiopan</effecttype>
							<mediatype>audio</mediatype>
							<parameter>
								<name>Pan</name>
								<parameterid>pan</parameterid>
								<valuemin>-1</valuemin>
								<valuemax>1</valuemax>
								<value>1</value>
							</parameter>
						</effect>
					</filter>
					<sourcetrack>
						<mediatype>audio</mediatype>
						<trackindex>2</trackindex>
					</sourcetrack>
					<link>
						<linkclipref>MVI_7680 5</linkclipref>
						<mediatype>video</mediatype>
						<trackindex>1</trackindex>
						<clipindex>4</clipindex>
					</link>
					<link>
						<linkclipref>MVI_7680 6</linkclipref>
						<mediatype>audio</mediatype>
						<trackindex>1</trackindex>
						<clipindex>4</clipindex>
						<groupindex>1</groupindex>
					</link>
					<link>
						<linkclipref>MVI_7680 7</linkclipref>
						<mediatype>audio</mediatype>
						<trackindex>2</trackindex>
						<clipindex>4</clipindex>
						<groupindex>1</groupindex>
					</link>
					<itemhistory>
						<uuid>9643457B-2398-47CE-8758-26840C9DC4A6</uuid>
						<uuid>038BA5D2-096A-4585-8BF8-5E60687C1500</uuid>
					</itemhistory>
				</clipitem>
				<clipitem id="MVI_7681 4">
					<name>MVI_7681</name>
					<duration>15985</duration>
					<rate>
						<ntsc>TRUE</ntsc>
						<timebase>24</timebase>
					</rate>
					<in>0</in>
					<out>9699</out>
					<start>12952</start>
					<end>22651</end>
					<enabled>TRUE</enabled>
					<masterclipid>MVI_7681 1</masterclipid>
					<logginginfo>
						<scene/>
						<shottake/>
						<lognote/>
						<good>FALSE</good>
					</logginginfo>
					<labels>
						<label2/>
					</labels>
					<comments>
						<mastercomment1/>
						<mastercomment2/>
						<mastercomment3/>
						<mastercomment4/>
					</comments>
					<file id="MVI_7681 2"/>
					<marker>
						<name>Inexactitude,</name>
						<comment>physicality,&#13;realworld,&#13;uncertainty</comment>
						<color>
							<alpha>0</alpha>
							<red>255</red>
							<green>0</green>
							<blue>0</blue>
						</color>
						<in>533</in>
						<out>1054</out>
					</marker>
					<marker>
						<name>Digital meets analog</name>
						<comment>digital meets physical,&#13;uncertainty,&#13;physicality,&#13;"real world",&#13;</comment>
						<color>
							<alpha>0</alpha>
							<red>255</red>
							<green>0</green>
							<blue>0</blue>
						</color>
						<in>597</in>
						<out>908</out>
					</marker>
					<marker>
						<name>People</name>
						<comment>people,&#13;social dynamics,&#13;business,&#13;organizations,&#13;career changes,</comment>
						<color>
							<alpha>0</alpha>
							<red>255</red>
							<green>0</green>
							<blue>0</blue>
						</color>
						<in>907</in>
						<out>1526</out>
					</marker>
					<marker>
						<name>simplicity and complexity</name>
						<comment>simplicity,&#13;complexity,&#13;balance,</comment>
						<color>
							<alpha>0</alpha>
							<red>255</red>
							<green>0</green>
							<blue>0</blue>
						</color>
						<in>4751</in>
						<out>5323</out>
					</marker>
					<marker>
						<name>How do computers help us to visualize information?</name>
						<comment>technological progress,&#13;efficiency,&#13;time saving devices,&#13;processing power,&#13;rendering,&#13;visualization,&#13;&#13;</comment>
						<color>
							<alpha>0</alpha>
							<red>255</red>
							<green>0</green>
							<blue>0</blue>
						</color>
						<in>5829</in>
						<out>6128</out>
					</marker>
					<marker>
						<name>Ten thousand chinese villagers</name>
						<comment>man versus machine,&#13;complexity,&#13;processing power&#13;</comment>
						<color>
							<alpha>0</alpha>
							<red>255</red>
							<green>0</green>
							<blue>0</blue>
						</color>
						<in>6226</in>
						<out>-1</out>
					</marker>
					<marker>
						<name>Marker 6</name>
						<comment/>
						<color>
							<alpha>0</alpha>
							<red>255</red>
							<green>0</green>
							<blue>0</blue>
						</color>
						<in>6229</in>
						<out>7246</out>
					</marker>
					<marker>
						<name>people are best communicators</name>
						<comment>How does information visualziation help communicate complexity?&#13;information visualization,&#13;information,&#13;simplicity,&#13;clarity,&#13;data viz,&#13;communication,&#13;people,&#13;</comment>
						<color>
							<alpha>0</alpha>
							<red>255</red>
							<green>0</green>
							<blue>0</blue>
						</color>
						<in>7277</in>
						<out>7954</out>
					</marker>
					<marker>
						<name>Kill the master</name>
						<comment>education,&#13;fate,</comment>
						<color>
							<alpha>0</alpha>
							<red>255</red>
							<green>0</green>
							<blue>0</blue>
						</color>
						<in>8954</in>
						<out>9532</out>
					</marker>
					<marker>
						<name>last trick</name>
						<comment>experimentation&#13;mind and hand&#13;intuition,&#13;heuristics,&#13;art and experience,&#13;drawing,&#13;touch,</comment>
						<color>
							<alpha>0</alpha>
							<red>255</red>
							<green>0</green>
							<blue>0</blue>
						</color>
						<in>9705</in>
						<out>10934</out>
					</marker>
					<marker>
						<name>self expression</name>
						<comment>self expression,&#13;expression,&#13;process,&#13;mind and hand,&#13;physicality,&#13;creative exploration,</comment>
						<color>
							<alpha>0</alpha>
							<red>255</red>
							<green>0</green>
							<blue>0</blue>
						</color>
						<in>11444</in>
						<out>11848</out>
					</marker>
					<marker>
						<name>lost interest in interactivity</name>
						<comment>interactivity,&#13;noninteractivity,&#13;design,&#13;image,&#13;post-digital&#13;</comment>
						<color>
							<alpha>0</alpha>
							<red>255</red>
							<green>0</green>
							<blue>0</blue>
						</color>
						<in>12150</in>
						<out>12763</out>
					</marker>
					<marker>
						<name>Marker 19</name>
						<comment/>
						<color>
							<alpha>0</alpha>
							<red>255</red>
							<green>0</green>
							<blue>0</blue>
						</color>
						<in>13818</in>
						<out>-1</out>
					</marker>
					<marker>
						<name>Marker 15</name>
						<comment/>
						<color>
							<alpha>0</alpha>
							<red>255</red>
							<green>0</green>
							<blue>0</blue>
						</color>
						<in>13819</in>
						<out>-1</out>
					</marker>
					<marker>
						<name>Isn't it supposed to be new?</name>
						<comment>Newness,&#13;old media,&#13;new media,&#13;originality,&#13;limits of the computer,&#13;beautiful exhuberance, &#13;beauty,&#13;visual culture,&#13;</comment>
						<color>
							<alpha>0</alpha>
							<red>255</red>
							<green>0</green>
							<blue>0</blue>
						</color>
						<in>15171</in>
						<out>15895</out>
					</marker>
					<filter>
						<effect>
							<name>Audio Levels</name>
							<effectid>audiolevels</effectid>
							<effectcategory>audiolevels</effectcategory>
							<effecttype>audiolevels</effecttype>
							<mediatype>audio</mediatype>
							<parameter>
								<name>Level</name>
								<parameterid>level</parameterid>
								<valuemin>0</valuemin>
								<valuemax>3.98109</valuemax>
								<value>1</value>
							</parameter>
						</effect>
					</filter>
					<filter>
						<effect>
							<name>Audio Pan</name>
							<effectid>audiopan</effectid>
							<effectcategory>audiopan</effectcategory>
							<effecttype>audiopan</effecttype>
							<mediatype>audio</mediatype>
							<parameter>
								<name>Pan</name>
								<parameterid>pan</parameterid>
								<valuemin>-1</valuemin>
								<valuemax>1</valuemax>
								<value>1</value>
							</parameter>
						</effect>
					</filter>
					<sourcetrack>
						<mediatype>audio</mediatype>
						<trackindex>2</trackindex>
					</sourcetrack>
					<link>
						<linkclipref>MVI_7681 </linkclipref>
						<mediatype>video</mediatype>
						<trackindex>1</trackindex>
						<clipindex>5</clipindex>
					</link>
					<link>
						<linkclipref>MVI_7681 3</linkclipref>
						<mediatype>audio</mediatype>
						<trackindex>1</trackindex>
						<clipindex>5</clipindex>
						<groupindex>1</groupindex>
					</link>
					<link>
						<linkclipref>MVI_7681 4</linkclipref>
						<mediatype>audio</mediatype>
						<trackindex>2</trackindex>
						<clipindex>5</clipindex>
						<groupindex>1</groupindex>
					</link>
					<itemhistory>
						<uuid>7F4CD023-B465-4964-8819-1408345A2652</uuid>
						<uuid>B7B7B192-B976-4CF4-BF63-22538DEA4A65</uuid>
					</itemhistory>
				</clipitem>
				<clipitem id="MVI_7681 7">
					<name>MVI_7681</name>
					<duration>15985</duration>
					<rate>
						<ntsc>TRUE</ntsc>
						<timebase>24</timebase>
					</rate>
					<in>9699</in>
					<out>12761</out>
					<start>22651</start>
					<end>25713</end>
					<enabled>TRUE</enabled>
					<masterclipid>MVI_7681 1</masterclipid>
					<logginginfo>
						<scene/>
						<shottake/>
						<lognote/>
						<good>FALSE</good>
					</logginginfo>
					<labels>
						<label2/>
					</labels>
					<comments>
						<mastercomment1/>
						<mastercomment2/>
						<mastercomment3/>
						<mastercomment4/>
					</comments>
					<file id="MVI_7681 2"/>
					<marker>
						<name>Inexactitude,</name>
						<comment>physicality,&#13;realworld,&#13;uncertainty</comment>
						<color>
							<alpha>0</alpha>
							<red>255</red>
							<green>0</green>
							<blue>0</blue>
						</color>
						<in>533</in>
						<out>1054</out>
					</marker>
					<marker>
						<name>Digital meets analog</name>
						<comment>digital meets physical,&#13;uncertainty,&#13;physicality,&#13;"real world",&#13;</comment>
						<color>
							<alpha>0</alpha>
							<red>255</red>
							<green>0</green>
							<blue>0</blue>
						</color>
						<in>597</in>
						<out>908</out>
					</marker>
					<marker>
						<name>People</name>
						<comment>people,&#13;social dynamics,&#13;business,&#13;organizations,&#13;career changes,</comment>
						<color>
							<alpha>0</alpha>
							<red>255</red>
							<green>0</green>
							<blue>0</blue>
						</color>
						<in>907</in>
						<out>1526</out>
					</marker>
					<marker>
						<name>simplicity and complexity</name>
						<comment>simplicity,&#13;complexity,&#13;balance,</comment>
						<color>
							<alpha>0</alpha>
							<red>255</red>
							<green>0</green>
							<blue>0</blue>
						</color>
						<in>4751</in>
						<out>5323</out>
					</marker>
					<marker>
						<name>How do computers help us to visualize information?</name>
						<comment>technological progress,&#13;efficiency,&#13;time saving devices,&#13;processing power,&#13;rendering,&#13;visualization,&#13;&#13;</comment>
						<color>
							<alpha>0</alpha>
							<red>255</red>
							<green>0</green>
							<blue>0</blue>
						</color>
						<in>5829</in>
						<out>6128</out>
					</marker>
					<marker>
						<name>Ten thousand chinese villagers</name>
						<comment>man versus machine,&#13;complexity,&#13;processing power&#13;</comment>
						<color>
							<alpha>0</alpha>
							<red>255</red>
							<green>0</green>
							<blue>0</blue>
						</color>
						<in>6226</in>
						<out>-1</out>
					</marker>
					<marker>
						<name>Marker 6</name>
						<comment/>
						<color>
							<alpha>0</alpha>
							<red>255</red>
							<green>0</green>
							<blue>0</blue>
						</color>
						<in>6229</in>
						<out>7246</out>
					</marker>
					<marker>
						<name>people are best communicators</name>
						<comment>How does information visualziation help communicate complexity?&#13;information visualization,&#13;information,&#13;simplicity,&#13;clarity,&#13;data viz,&#13;communication,&#13;people,&#13;</comment>
						<color>
							<alpha>0</alpha>
							<red>255</red>
							<green>0</green>
							<blue>0</blue>
						</color>
						<in>7277</in>
						<out>7954</out>
					</marker>
					<marker>
						<name>Kill the master</name>
						<comment>education,&#13;fate,</comment>
						<color>
							<alpha>0</alpha>
							<red>255</red>
							<green>0</green>
							<blue>0</blue>
						</color>
						<in>8954</in>
						<out>9532</out>
					</marker>
					<marker>
						<name>last trick</name>
						<comment>experimentation&#13;mind and hand&#13;intuition,&#13;heuristics,&#13;art and experience,&#13;drawing,&#13;touch,</comment>
						<color>
							<alpha>0</alpha>
							<red>255</red>
							<green>0</green>
							<blue>0</blue>
						</color>
						<in>9705</in>
						<out>10934</out>
					</marker>
					<marker>
						<name>self expression</name>
						<comment>self expression,&#13;expression,&#13;process,&#13;mind and hand,&#13;physicality,&#13;creative exploration,</comment>
						<color>
							<alpha>0</alpha>
							<red>255</red>
							<green>0</green>
							<blue>0</blue>
						</color>
						<in>11444</in>
						<out>11848</out>
					</marker>
					<marker>
						<name>lost interest in interactivity</name>
						<comment>interactivity,&#13;noninteractivity,&#13;design,&#13;image,&#13;post-digital&#13;</comment>
						<color>
							<alpha>0</alpha>
							<red>255</red>
							<green>0</green>
							<blue>0</blue>
						</color>
						<in>12150</in>
						<out>12763</out>
					</marker>
					<marker>
						<name>Marker 19</name>
						<comment/>
						<color>
							<alpha>0</alpha>
							<red>255</red>
							<green>0</green>
							<blue>0</blue>
						</color>
						<in>13818</in>
						<out>-1</out>
					</marker>
					<marker>
						<name>Marker 15</name>
						<comment/>
						<color>
							<alpha>0</alpha>
							<red>255</red>
							<green>0</green>
							<blue>0</blue>
						</color>
						<in>13819</in>
						<out>-1</out>
					</marker>
					<marker>
						<name>Isn't it supposed to be new?</name>
						<comment>Newness,&#13;old media,&#13;new media,&#13;originality,&#13;limits of the computer,&#13;beautiful exhuberance, &#13;beauty,&#13;visual culture,&#13;</comment>
						<color>
							<alpha>0</alpha>
							<red>255</red>
							<green>0</green>
							<blue>0</blue>
						</color>
						<in>15171</in>
						<out>15895</out>
					</marker>
					<filter>
						<effect>
							<name>Audio Levels</name>
							<effectid>audiolevels</effectid>
							<effectcategory>audiolevels</effectcategory>
							<effecttype>audiolevels</effecttype>
							<mediatype>audio</mediatype>
							<parameter>
								<name>Level</name>
								<parameterid>level</parameterid>
								<valuemin>0</valuemin>
								<valuemax>3.98109</valuemax>
								<value>1</value>
							</parameter>
						</effect>
					</filter>
					<filter>
						<effect>
							<name>Audio Pan</name>
							<effectid>audiopan</effectid>
							<effectcategory>audiopan</effectcategory>
							<effecttype>audiopan</effecttype>
							<mediatype>audio</mediatype>
							<parameter>
								<name>Pan</name>
								<parameterid>pan</parameterid>
								<valuemin>-1</valuemin>
								<valuemax>1</valuemax>
								<value>1</value>
							</parameter>
						</effect>
					</filter>
					<sourcetrack>
						<mediatype>audio</mediatype>
						<trackindex>2</trackindex>
					</sourcetrack>
					<link>
						<linkclipref>MVI_7681 5</linkclipref>
						<mediatype>video</mediatype>
						<trackindex>1</trackindex>
						<clipindex>6</clipindex>
					</link>
					<link>
						<linkclipref>MVI_7681 6</linkclipref>
						<mediatype>audio</mediatype>
						<trackindex>1</trackindex>
						<clipindex>6</clipindex>
						<groupindex>1</groupindex>
					</link>
					<link>
						<linkclipref>MVI_7681 7</linkclipref>
						<mediatype>audio</mediatype>
						<trackindex>2</trackindex>
						<clipindex>6</clipindex>
						<groupindex>1</groupindex>
					</link>
					<itemhistory>
						<uuid>5BEAFE97-DEA9-45FF-963F-5D7D149515B1</uuid>
						<uuid>B7B7B192-B976-4CF4-BF63-22538DEA4A65</uuid>
					</itemhistory>
				</clipitem>
				<clipitem id="MVI_7681 10">
					<name>MVI_7681</name>
					<duration>15985</duration>
					<rate>
						<ntsc>TRUE</ntsc>
						<timebase>24</timebase>
					</rate>
					<in>12761</in>
					<out>15985</out>
					<start>25713</start>
					<end>28937</end>
					<enabled>TRUE</enabled>
					<masterclipid>MVI_7681 1</masterclipid>
					<logginginfo>
						<scene/>
						<shottake/>
						<lognote/>
						<good>FALSE</good>
					</logginginfo>
					<labels>
						<label2/>
					</labels>
					<comments>
						<mastercomment1/>
						<mastercomment2/>
						<mastercomment3/>
						<mastercomment4/>
					</comments>
					<file id="MVI_7681 2"/>
					<marker>
						<name>Inexactitude,</name>
						<comment>physicality,&#13;realworld,&#13;uncertainty</comment>
						<color>
							<alpha>0</alpha>
							<red>255</red>
							<green>0</green>
							<blue>0</blue>
						</color>
						<in>533</in>
						<out>1054</out>
					</marker>
					<marker>
						<name>Digital meets analog</name>
						<comment>digital meets physical,&#13;uncertainty,&#13;physicality,&#13;"real world",&#13;</comment>
						<color>
							<alpha>0</alpha>
							<red>255</red>
							<green>0</green>
							<blue>0</blue>
						</color>
						<in>597</in>
						<out>908</out>
					</marker>
					<marker>
						<name>People</name>
						<comment>people,&#13;social dynamics,&#13;business,&#13;organizations,&#13;career changes,</comment>
						<color>
							<alpha>0</alpha>
							<red>255</red>
							<green>0</green>
							<blue>0</blue>
						</color>
						<in>907</in>
						<out>1526</out>
					</marker>
					<marker>
						<name>simplicity and complexity</name>
						<comment>simplicity,&#13;complexity,&#13;balance,</comment>
						<color>
							<alpha>0</alpha>
							<red>255</red>
							<green>0</green>
							<blue>0</blue>
						</color>
						<in>4751</in>
						<out>5323</out>
					</marker>
					<marker>
						<name>How do computers help us to visualize information?</name>
						<comment>technological progress,&#13;efficiency,&#13;time saving devices,&#13;processing power,&#13;rendering,&#13;visualization,&#13;&#13;</comment>
						<color>
							<alpha>0</alpha>
							<red>255</red>
							<green>0</green>
							<blue>0</blue>
						</color>
						<in>5829</in>
						<out>6128</out>
					</marker>
					<marker>
						<name>Ten thousand chinese villagers</name>
						<comment>man versus machine,&#13;complexity,&#13;processing power&#13;</comment>
						<color>
							<alpha>0</alpha>
							<red>255</red>
							<green>0</green>
							<blue>0</blue>
						</color>
						<in>6226</in>
						<out>-1</out>
					</marker>
					<marker>
						<name>Marker 6</name>
						<comment/>
						<color>
							<alpha>0</alpha>
							<red>255</red>
							<green>0</green>
							<blue>0</blue>
						</color>
						<in>6229</in>
						<out>7246</out>
					</marker>
					<marker>
						<name>people are best communicators</name>
						<comment>How does information visualziation help communicate complexity?&#13;information visualization,&#13;information,&#13;simplicity,&#13;clarity,&#13;data viz,&#13;communication,&#13;people,&#13;</comment>
						<color>
							<alpha>0</alpha>
							<red>255</red>
							<green>0</green>
							<blue>0</blue>
						</color>
						<in>7277</in>
						<out>7954</out>
					</marker>
					<marker>
						<name>Kill the master</name>
						<comment>education,&#13;fate,</comment>
						<color>
							<alpha>0</alpha>
							<red>255</red>
							<green>0</green>
							<blue>0</blue>
						</color>
						<in>8954</in>
						<out>9532</out>
					</marker>
					<marker>
						<name>last trick</name>
						<comment>experimentation&#13;mind and hand&#13;intuition,&#13;heuristics,&#13;art and experience,&#13;drawing,&#13;touch,</comment>
						<color>
							<alpha>0</alpha>
							<red>255</red>
							<green>0</green>
							<blue>0</blue>
						</color>
						<in>9705</in>
						<out>10934</out>
					</marker>
					<marker>
						<name>self expression</name>
						<comment>self expression,&#13;expression,&#13;process,&#13;mind and hand,&#13;physicality,&#13;creative exploration,</comment>
						<color>
							<alpha>0</alpha>
							<red>255</red>
							<green>0</green>
							<blue>0</blue>
						</color>
						<in>11444</in>
						<out>11848</out>
					</marker>
					<marker>
						<name>lost interest in interactivity</name>
						<comment>interactivity,&#13;noninteractivity,&#13;design,&#13;image,&#13;post-digital&#13;</comment>
						<color>
							<alpha>0</alpha>
							<red>255</red>
							<green>0</green>
							<blue>0</blue>
						</color>
						<in>12150</in>
						<out>12763</out>
					</marker>
					<marker>
						<name>Marker 19</name>
						<comment/>
						<color>
							<alpha>0</alpha>
							<red>255</red>
							<green>0</green>
							<blue>0</blue>
						</color>
						<in>13818</in>
						<out>-1</out>
					</marker>
					<marker>
						<name>Marker 15</name>
						<comment/>
						<color>
							<alpha>0</alpha>
							<red>255</red>
							<green>0</green>
							<blue>0</blue>
						</color>
						<in>13819</in>
						<out>-1</out>
					</marker>
					<marker>
						<name>Isn't it supposed to be new?</name>
						<comment>Newness,&#13;old media,&#13;new media,&#13;originality,&#13;limits of the computer,&#13;beautiful exhuberance, &#13;beauty,&#13;visual culture,&#13;</comment>
						<color>
							<alpha>0</alpha>
							<red>255</red>
							<green>0</green>
							<blue>0</blue>
						</color>
						<in>15171</in>
						<out>15895</out>
					</marker>
					<filter>
						<effect>
							<name>Audio Levels</name>
							<effectid>audiolevels</effectid>
							<effectcategory>audiolevels</effectcategory>
							<effecttype>audiolevels</effecttype>
							<mediatype>audio</mediatype>
							<parameter>
								<name>Level</name>
								<parameterid>level</parameterid>
								<valuemin>0</valuemin>
								<valuemax>3.98109</valuemax>
								<value>1</value>
							</parameter>
						</effect>
					</filter>
					<filter>
						<effect>
							<name>Audio Pan</name>
							<effectid>audiopan</effectid>
							<effectcategory>audiopan</effectcategory>
							<effecttype>audiopan</effecttype>
							<mediatype>audio</mediatype>
							<parameter>
								<name>Pan</name>
								<parameterid>pan</parameterid>
								<valuemin>-1</valuemin>
								<valuemax>1</valuemax>
								<value>1</value>
							</parameter>
						</effect>
					</filter>
					<sourcetrack>
						<mediatype>audio</mediatype>
						<trackindex>2</trackindex>
					</sourcetrack>
					<link>
						<linkclipref>MVI_7681 8</linkclipref>
						<mediatype>video</mediatype>
						<trackindex>1</trackindex>
						<clipindex>7</clipindex>
					</link>
					<link>
						<linkclipref>MVI_7681 9</linkclipref>
						<mediatype>audio</mediatype>
						<trackindex>1</trackindex>
						<clipindex>7</clipindex>
						<groupindex>1</groupindex>
					</link>
					<link>
						<linkclipref>MVI_7681 10</linkclipref>
						<mediatype>audio</mediatype>
						<trackindex>2</trackindex>
						<clipindex>7</clipindex>
						<groupindex>1</groupindex>
					</link>
					<itemhistory>
						<uuid>093F2313-6980-48E2-BBBB-2DE8EEFB04BB</uuid>
						<uuid>B7B7B192-B976-4CF4-BF63-22538DEA4A65</uuid>
					</itemhistory>
				</clipitem>
				<clipitem id="MVI_7682 4">
					<name>MVI_7682</name>
					<duration>8136</duration>
					<rate>
						<ntsc>TRUE</ntsc>
						<timebase>24</timebase>
					</rate>
					<in>0</in>
					<out>8136</out>
					<start>28937</start>
					<end>37073</end>
					<masterclipid>MVI_7682 1</masterclipid>
					<logginginfo>
						<scene/>
						<shottake/>
						<lognote/>
						<good>FALSE</good>
					</logginginfo>
					<labels>
						<label2/>
					</labels>
					<comments>
						<mastercomment1/>
						<mastercomment2/>
						<mastercomment3/>
						<mastercomment4/>
					</comments>
					<file id="MVI_7682 2"/>
					<marker>
						<name>Aesthetics and Computation group</name>
						<comment>newness,&#13;education,&#13;Media Lab,&#13;aesthetics and computation,&#13;discovery,&#13;beginning,&#13;</comment>
						<color>
							<alpha>0</alpha>
							<red>255</red>
							<green>0</green>
							<blue>0</blue>
						</color>
						<in>1227</in>
						<out>2082</out>
					</marker>
					<marker>
						<name>not a big deal</name>
						<comment>art and code,&#13;computational art,&#13;hybridity</comment>
						<color>
							<alpha>0</alpha>
							<red>255</red>
							<green>0</green>
							<blue>0</blue>
						</color>
						<in>2446</in>
						<out>2849</out>
					</marker>
					<marker>
						<name>Design by Numbers</name>
						<comment>education,&#13;teaching,&#13;IDE (integrated development environment),&#13;art and code,&#13;toolkit,</comment>
						<color>
							<alpha>0</alpha>
							<red>255</red>
							<green>0</green>
							<blue>0</blue>
						</color>
						<in>3322</in>
						<out>4242</out>
					</marker>
					<marker>
						<name>Processing</name>
						<comment>processing,&#13;Media lab,&#13;Link from Casey</comment>
						<color>
							<alpha>0</alpha>
							<red>255</red>
							<green>0</green>
							<blue>0</blue>
						</color>
						<in>4598</in>
						<out>5490</out>
					</marker>
					<marker>
						<name>Batman superman</name>
						<comment>processing,&#13;collaboration,&#13;teams,&#13;partnership,</comment>
						<color>
							<alpha>0</alpha>
							<red>255</red>
							<green>0</green>
							<blue>0</blue>
						</color>
						<in>6026</in>
						<out>6934</out>
					</marker>
					<marker>
						<name>Processing toolkit</name>
						<comment>toolkit,&#13;open source,&#13;educational technology,&#13;</comment>
						<color>
							<alpha>0</alpha>
							<red>255</red>
							<green>0</green>
							<blue>0</blue>
						</color>
						<in>7402</in>
						<out>8130</out>
					</marker>
					<filter>
						<effect>
							<name>Audio Levels</name>
							<effectid>audiolevels</effectid>
							<effectcategory>audiolevels</effectcategory>
							<effecttype>audiolevels</effecttype>
							<mediatype>audio</mediatype>
							<parameter>
								<name>Level</name>
								<parameterid>level</parameterid>
								<valuemin>0</valuemin>
								<valuemax>3.98109</valuemax>
								<value>1</value>
							</parameter>
						</effect>
					</filter>
					<filter>
						<effect>
							<name>Audio Pan</name>
							<effectid>audiopan</effectid>
							<effectcategory>audiopan</effectcategory>
							<effecttype>audiopan</effecttype>
							<mediatype>audio</mediatype>
							<parameter>
								<name>Pan</name>
								<parameterid>pan</parameterid>
								<valuemin>-1</valuemin>
								<valuemax>1</valuemax>
								<value>1</value>
							</parameter>
						</effect>
					</filter>
					<sourcetrack>
						<mediatype>audio</mediatype>
						<trackindex>2</trackindex>
					</sourcetrack>
					<link>
						<linkclipref>MVI_7682 </linkclipref>
						<mediatype>video</mediatype>
						<trackindex>1</trackindex>
						<clipindex>8</clipindex>
					</link>
					<link>
						<linkclipref>MVI_7682 3</linkclipref>
						<mediatype>audio</mediatype>
						<trackindex>1</trackindex>
						<clipindex>8</clipindex>
						<groupindex>1</groupindex>
					</link>
					<link>
						<linkclipref>MVI_7682 4</linkclipref>
						<mediatype>audio</mediatype>
						<trackindex>2</trackindex>
						<clipindex>8</clipindex>
						<groupindex>1</groupindex>
					</link>
					<itemhistory>
						<uuid>3BA6FDDB-E74C-4B96-A93A-1B20ED78F377</uuid>
					</itemhistory>
				</clipitem>
				<clipitem id="MVI_7683 4">
					<name>MVI_7683</name>
					<duration>15370</duration>
					<rate>
						<ntsc>TRUE</ntsc>
						<timebase>24</timebase>
					</rate>
					<in>0</in>
					<out>15370</out>
					<start>37073</start>
					<end>52443</end>
					<masterclipid>MVI_7683 1</masterclipid>
					<logginginfo>
						<scene/>
						<shottake/>
						<lognote/>
						<good>FALSE</good>
					</logginginfo>
					<labels>
						<label2/>
					</labels>
					<comments>
						<mastercomment1/>
						<mastercomment2/>
						<mastercomment3/>
						<mastercomment4/>
					</comments>
					<file id="MVI_7683 2"/>
					<marker>
						<name>ACU part 1</name>
						<comment>ACU,&#13;Open Frameworks,&#13;Open Source,&#13;Media lab,</comment>
						<color>
							<alpha>0</alpha>
							<red>255</red>
							<green>0</green>
							<blue>0</blue>
						</color>
						<in>705</in>
						<out>917</out>
					</marker>
					<marker>
						<name>ACU p 2</name>
						<comment>ACU,&#13;Open Frameworks,&#13;Open Source,&#13;Media lab,</comment>
						<color>
							<alpha>0</alpha>
							<red>255</red>
							<green>0</green>
							<blue>0</blue>
						</color>
						<in>1275</in>
						<out>2047</out>
					</marker>
					<marker>
						<name>sharing for collective advancement</name>
						<comment>How has sharing of code changed the nature of creativity?&#13;sharing,&#13;doing with others,&#13;learning&#13;</comment>
						<color>
							<alpha>0</alpha>
							<red>255</red>
							<green>0</green>
							<blue>0</blue>
						</color>
						<in>4845</in>
						<out>5413</out>
					</marker>
					<marker>
						<name>passing the baton</name>
						<comment>passing the baton,&#13;kill the master,&#13;education,&#13;artistic kinship,</comment>
						<color>
							<alpha>0</alpha>
							<red>255</red>
							<green>0</green>
							<blue>0</blue>
						</color>
						<in>5893</in>
						<out>6219</out>
					</marker>
					<marker>
						<name>mentors</name>
						<comment>who are your mentors?&#13;influences,&#13;mentorship,&#13;education,&#13;passing the baton,&#13;&#13;</comment>
						<color>
							<alpha>0</alpha>
							<red>255</red>
							<green>0</green>
							<blue>0</blue>
						</color>
						<in>6802</in>
						<out>7310</out>
					</marker>
					<marker>
						<name>Forever</name>
						<comment>Paul Rand,&#13;Design,&#13;Bravado,&#13;Teachers,&#13;Humor&#13;</comment>
						<color>
							<alpha>0</alpha>
							<red>255</red>
							<green>0</green>
							<blue>0</blue>
						</color>
						<in>7738</in>
						<out>9099</out>
					</marker>
					<marker>
						<name>Glad to be alive,</name>
						<comment>Do you try to make your work humorous?&#13;existential, &#13;gratitude, &#13;being,&#13;</comment>
						<color>
							<alpha>0</alpha>
							<red>255</red>
							<green>0</green>
							<blue>0</blue>
						</color>
						<in>11818</in>
						<out>12083</out>
					</marker>
					<marker>
						<name>Life in four quarters</name>
						<comment>How do you think about time? &#13;time,&#13;mortality,&#13;aspiration,&#13;work,&#13;accomplishment,&#13;life&#13;&#13;</comment>
						<color>
							<alpha>0</alpha>
							<red>255</red>
							<green>0</green>
							<blue>0</blue>
						</color>
						<in>12772</in>
						<out>13902</out>
					</marker>
					<marker>
						<name>I can still draw</name>
						<comment>Do you still have a daily practice of making art?&#13;post-digital,&#13;mind and hand,&#13;drawing,&#13;</comment>
						<color>
							<alpha>0</alpha>
							<red>255</red>
							<green>0</green>
							<blue>0</blue>
						</color>
						<in>14214</in>
						<out>14331</out>
					</marker>
					<marker>
						<name>How do I balance these personas?</name>
						<comment>How do I balance these personas?&#13;leadership,&#13;balance,&#13;work,&#13;identity,&#13;career,</comment>
						<color>
							<alpha>0</alpha>
							<red>255</red>
							<green>0</green>
							<blue>0</blue>
						</color>
						<in>14670</in>
						<out>15306</out>
					</marker>
					<filter>
						<effect>
							<name>Audio Levels</name>
							<effectid>audiolevels</effectid>
							<effectcategory>audiolevels</effectcategory>
							<effecttype>audiolevels</effecttype>
							<mediatype>audio</mediatype>
							<parameter>
								<name>Level</name>
								<parameterid>level</parameterid>
								<valuemin>0</valuemin>
								<valuemax>3.98109</valuemax>
								<value>1</value>
							</parameter>
						</effect>
					</filter>
					<filter>
						<effect>
							<name>Audio Pan</name>
							<effectid>audiopan</effectid>
							<effectcategory>audiopan</effectcategory>
							<effecttype>audiopan</effecttype>
							<mediatype>audio</mediatype>
							<parameter>
								<name>Pan</name>
								<parameterid>pan</parameterid>
								<valuemin>-1</valuemin>
								<valuemax>1</valuemax>
								<value>1</value>
							</parameter>
						</effect>
					</filter>
					<sourcetrack>
						<mediatype>audio</mediatype>
						<trackindex>2</trackindex>
					</sourcetrack>
					<link>
						<linkclipref>MVI_7683 </linkclipref>
						<mediatype>video</mediatype>
						<trackindex>1</trackindex>
						<clipindex>9</clipindex>
					</link>
					<link>
						<linkclipref>MVI_7683 3</linkclipref>
						<mediatype>audio</mediatype>
						<trackindex>1</trackindex>
						<clipindex>9</clipindex>
						<groupindex>1</groupindex>
					</link>
					<link>
						<linkclipref>MVI_7683 4</linkclipref>
						<mediatype>audio</mediatype>
						<trackindex>2</trackindex>
						<clipindex>9</clipindex>
						<groupindex>1</groupindex>
					</link>
					<itemhistory>
						<uuid>ECC91160-9C27-4632-86D3-222FC93EA5FF</uuid>
					</itemhistory>
				</clipitem>
				<clipitem id="MVI_7684 7">
					<name>MVI_7684</name>
					<duration>17768</duration>
					<rate>
						<ntsc>TRUE</ntsc>
						<timebase>24</timebase>
					</rate>
					<in>0</in>
					<out>611</out>
					<start>52443</start>
					<end>53054</end>
					<masterclipid>MVI_7684 1</masterclipid>
					<logginginfo>
						<scene/>
						<shottake/>
						<lognote/>
						<good>FALSE</good>
					</logginginfo>
					<labels>
						<label2/>
					</labels>
					<comments>
						<mastercomment1/>
						<mastercomment2/>
						<mastercomment3/>
						<mastercomment4/>
					</comments>
					<file id="MVI_7684 2"/>
					<marker>
						<name>post digital </name>
						<comment>What comes after digital?,&#13;question,&#13;</comment>
						<color>
							<alpha>0</alpha>
							<red>255</red>
							<green>0</green>
							<blue>0</blue>
						</color>
						<in>633</in>
						<out>1153</out>
					</marker>
					<marker>
						<name>All about the why?</name>
						<comment>why?,&#13;design and art,&#13;questions,&#13;</comment>
						<color>
							<alpha>0</alpha>
							<red>255</red>
							<green>0</green>
							<blue>0</blue>
						</color>
						<in>4511</in>
						<out>4728</out>
					</marker>
					<marker>
						<name>Slurpies and pizza</name>
						<comment>weird, funny, food</comment>
						<color>
							<alpha>0</alpha>
							<red>255</red>
							<green>0</green>
							<blue>0</blue>
						</color>
						<in>7330</in>
						<out>7930</out>
					</marker>
					<marker>
						<name>Clouds</name>
						<comment>what is clouds?,&#13;future of cinema,&#13;clouds,</comment>
						<color>
							<alpha>0</alpha>
							<red>255</red>
							<green>0</green>
							<blue>0</blue>
						</color>
						<in>11603</in>
						<out>12063</out>
					</marker>
					<marker>
						<name>about relationships</name>
						<comment/>
						<color>
							<alpha>0</alpha>
							<red>255</red>
							<green>0</green>
							<blue>0</blue>
						</color>
						<in>12389</in>
						<out>12708</out>
					</marker>
					<marker>
						<name>recording appalachian music</name>
						<comment>becoming more human,&#13;humanism,&#13;culture,&#13;post-digital,&#13;what you do with the tools,</comment>
						<color>
							<alpha>0</alpha>
							<red>255</red>
							<green>0</green>
							<blue>0</blue>
						</color>
						<in>12845</in>
						<out>14240</out>
					</marker>
					<marker>
						<name>Coding for humanity</name>
						<comment>program or be programmed,&#13;coding culture,&#13;own the tool,&#13;just a tool,&#13;people,&#13;humanism,</comment>
						<color>
							<alpha>0</alpha>
							<red>255</red>
							<green>0</green>
							<blue>0</blue>
						</color>
						<in>15927</in>
						<out>16984</out>
					</marker>
					<filter>
						<effect>
							<name>Audio Levels</name>
							<effectid>audiolevels</effectid>
							<effectcategory>audiolevels</effectcategory>
							<effecttype>audiolevels</effecttype>
							<mediatype>audio</mediatype>
							<parameter>
								<name>Level</name>
								<parameterid>level</parameterid>
								<valuemin>0</valuemin>
								<valuemax>3.98109</valuemax>
								<value>1</value>
							</parameter>
						</effect>
					</filter>
					<filter>
						<effect>
							<name>Audio Pan</name>
							<effectid>audiopan</effectid>
							<effectcategory>audiopan</effectcategory>
							<effecttype>audiopan</effecttype>
							<mediatype>audio</mediatype>
							<parameter>
								<name>Pan</name>
								<parameterid>pan</parameterid>
								<valuemin>-1</valuemin>
								<valuemax>1</valuemax>
								<value>1</value>
							</parameter>
						</effect>
					</filter>
					<sourcetrack>
						<mediatype>audio</mediatype>
						<trackindex>2</trackindex>
					</sourcetrack>
					<link>
						<linkclipref>MVI_7684 5</linkclipref>
						<mediatype>video</mediatype>
						<trackindex>2</trackindex>
						<clipindex>6</clipindex>
					</link>
					<link>
						<linkclipref>MVI_7684 6</linkclipref>
						<mediatype>audio</mediatype>
						<trackindex>1</trackindex>
						<clipindex>10</clipindex>
						<groupindex>1</groupindex>
					</link>
					<link>
						<linkclipref>MVI_7684 7</linkclipref>
						<mediatype>audio</mediatype>
						<trackindex>2</trackindex>
						<clipindex>10</clipindex>
						<groupindex>1</groupindex>
					</link>
					<itemhistory>
						<uuid>B97E176C-C81C-4EB7-9E12-9115E7417AEA</uuid>
						<uuid>D8F2A530-AC22-43C5-AE09-E2384E09B059</uuid>
					</itemhistory>
				</clipitem>
				<clipitem id="MVI_7684 10">
					<name>MVI_7684</name>
					<duration>17768</duration>
					<rate>
						<ntsc>TRUE</ntsc>
						<timebase>24</timebase>
					</rate>
					<in>611</in>
					<out>2059</out>
					<start>53054</start>
					<end>54502</end>
					<masterclipid>MVI_7684 1</masterclipid>
					<logginginfo>
						<scene/>
						<shottake/>
						<lognote/>
						<good>FALSE</good>
					</logginginfo>
					<labels>
						<label2/>
					</labels>
					<comments>
						<mastercomment1/>
						<mastercomment2/>
						<mastercomment3/>
						<mastercomment4/>
					</comments>
					<file id="MVI_7684 2"/>
					<marker>
						<name>post digital </name>
						<comment>What comes after digital?,&#13;question,&#13;</comment>
						<color>
							<alpha>0</alpha>
							<red>255</red>
							<green>0</green>
							<blue>0</blue>
						</color>
						<in>633</in>
						<out>1153</out>
					</marker>
					<marker>
						<name>All about the why?</name>
						<comment>why?,&#13;design and art,&#13;questions,&#13;</comment>
						<color>
							<alpha>0</alpha>
							<red>255</red>
							<green>0</green>
							<blue>0</blue>
						</color>
						<in>4511</in>
						<out>4728</out>
					</marker>
					<marker>
						<name>Slurpies and pizza</name>
						<comment>weird, funny, food</comment>
						<color>
							<alpha>0</alpha>
							<red>255</red>
							<green>0</green>
							<blue>0</blue>
						</color>
						<in>7330</in>
						<out>7930</out>
					</marker>
					<marker>
						<name>Clouds</name>
						<comment>what is clouds?,&#13;future of cinema,&#13;clouds,</comment>
						<color>
							<alpha>0</alpha>
							<red>255</red>
							<green>0</green>
							<blue>0</blue>
						</color>
						<in>11603</in>
						<out>12063</out>
					</marker>
					<marker>
						<name>about relationships</name>
						<comment/>
						<color>
							<alpha>0</alpha>
							<red>255</red>
							<green>0</green>
							<blue>0</blue>
						</color>
						<in>12389</in>
						<out>12708</out>
					</marker>
					<marker>
						<name>recording appalachian music</name>
						<comment>becoming more human,&#13;humanism,&#13;culture,&#13;post-digital,&#13;what you do with the tools,</comment>
						<color>
							<alpha>0</alpha>
							<red>255</red>
							<green>0</green>
							<blue>0</blue>
						</color>
						<in>12845</in>
						<out>14240</out>
					</marker>
					<marker>
						<name>Coding for humanity</name>
						<comment>program or be programmed,&#13;coding culture,&#13;own the tool,&#13;just a tool,&#13;people,&#13;humanism,</comment>
						<color>
							<alpha>0</alpha>
							<red>255</red>
							<green>0</green>
							<blue>0</blue>
						</color>
						<in>15927</in>
						<out>16984</out>
					</marker>
					<filter>
						<effect>
							<name>Audio Levels</name>
							<effectid>audiolevels</effectid>
							<effectcategory>audiolevels</effectcategory>
							<effecttype>audiolevels</effecttype>
							<mediatype>audio</mediatype>
							<parameter>
								<name>Level</name>
								<parameterid>level</parameterid>
								<valuemin>0</valuemin>
								<valuemax>3.98109</valuemax>
								<value>1</value>
							</parameter>
						</effect>
					</filter>
					<filter>
						<effect>
							<name>Audio Pan</name>
							<effectid>audiopan</effectid>
							<effectcategory>audiopan</effectcategory>
							<effecttype>audiopan</effecttype>
							<mediatype>audio</mediatype>
							<parameter>
								<name>Pan</name>
								<parameterid>pan</parameterid>
								<valuemin>-1</valuemin>
								<valuemax>1</valuemax>
								<value>1</value>
							</parameter>
						</effect>
					</filter>
					<sourcetrack>
						<mediatype>audio</mediatype>
						<trackindex>2</trackindex>
					</sourcetrack>
					<link>
						<linkclipref>MVI_7684 8</linkclipref>
						<mediatype>video</mediatype>
						<trackindex>2</trackindex>
						<clipindex>7</clipindex>
					</link>
					<link>
						<linkclipref>MVI_7684 9</linkclipref>
						<mediatype>audio</mediatype>
						<trackindex>1</trackindex>
						<clipindex>11</clipindex>
						<groupindex>1</groupindex>
					</link>
					<link>
						<linkclipref>MVI_7684 10</linkclipref>
						<mediatype>audio</mediatype>
						<trackindex>2</trackindex>
						<clipindex>11</clipindex>
						<groupindex>1</groupindex>
					</link>
					<itemhistory>
						<uuid>E335541A-0E5F-48C0-A762-472B11163882</uuid>
						<uuid>D8F2A530-AC22-43C5-AE09-E2384E09B059</uuid>
					</itemhistory>
				</clipitem>
				<clipitem id="MVI_7684 13">
					<name>MVI_7684</name>
					<duration>17768</duration>
					<rate>
						<ntsc>TRUE</ntsc>
						<timebase>24</timebase>
					</rate>
					<in>2059</in>
					<out>4907</out>
					<start>54502</start>
					<end>57350</end>
					<masterclipid>MVI_7684 1</masterclipid>
					<logginginfo>
						<scene/>
						<shottake/>
						<lognote/>
						<good>FALSE</good>
					</logginginfo>
					<labels>
						<label2/>
					</labels>
					<comments>
						<mastercomment1/>
						<mastercomment2/>
						<mastercomment3/>
						<mastercomment4/>
					</comments>
					<file id="MVI_7684 2"/>
					<marker>
						<name>post digital </name>
						<comment>What comes after digital?,&#13;question,&#13;</comment>
						<color>
							<alpha>0</alpha>
							<red>255</red>
							<green>0</green>
							<blue>0</blue>
						</color>
						<in>633</in>
						<out>1153</out>
					</marker>
					<marker>
						<name>All about the why?</name>
						<comment>why?,&#13;design and art,&#13;questions,&#13;</comment>
						<color>
							<alpha>0</alpha>
							<red>255</red>
							<green>0</green>
							<blue>0</blue>
						</color>
						<in>4511</in>
						<out>4728</out>
					</marker>
					<marker>
						<name>Slurpies and pizza</name>
						<comment>weird, funny, food</comment>
						<color>
							<alpha>0</alpha>
							<red>255</red>
							<green>0</green>
							<blue>0</blue>
						</color>
						<in>7330</in>
						<out>7930</out>
					</marker>
					<marker>
						<name>Clouds</name>
						<comment>what is clouds?,&#13;future of cinema,&#13;clouds,</comment>
						<color>
							<alpha>0</alpha>
							<red>255</red>
							<green>0</green>
							<blue>0</blue>
						</color>
						<in>11603</in>
						<out>12063</out>
					</marker>
					<marker>
						<name>about relationships</name>
						<comment/>
						<color>
							<alpha>0</alpha>
							<red>255</red>
							<green>0</green>
							<blue>0</blue>
						</color>
						<in>12389</in>
						<out>12708</out>
					</marker>
					<marker>
						<name>recording appalachian music</name>
						<comment>becoming more human,&#13;humanism,&#13;culture,&#13;post-digital,&#13;what you do with the tools,</comment>
						<color>
							<alpha>0</alpha>
							<red>255</red>
							<green>0</green>
							<blue>0</blue>
						</color>
						<in>12845</in>
						<out>14240</out>
					</marker>
					<marker>
						<name>Coding for humanity</name>
						<comment>program or be programmed,&#13;coding culture,&#13;own the tool,&#13;just a tool,&#13;people,&#13;humanism,</comment>
						<color>
							<alpha>0</alpha>
							<red>255</red>
							<green>0</green>
							<blue>0</blue>
						</color>
						<in>15927</in>
						<out>16984</out>
					</marker>
					<filter>
						<effect>
							<name>Audio Levels</name>
							<effectid>audiolevels</effectid>
							<effectcategory>audiolevels</effectcategory>
							<effecttype>audiolevels</effecttype>
							<mediatype>audio</mediatype>
							<parameter>
								<name>Level</name>
								<parameterid>level</parameterid>
								<valuemin>0</valuemin>
								<valuemax>3.98109</valuemax>
								<value>1</value>
							</parameter>
						</effect>
					</filter>
					<filter>
						<effect>
							<name>Audio Pan</name>
							<effectid>audiopan</effectid>
							<effectcategory>audiopan</effectcategory>
							<effecttype>audiopan</effecttype>
							<mediatype>audio</mediatype>
							<parameter>
								<name>Pan</name>
								<parameterid>pan</parameterid>
								<valuemin>-1</valuemin>
								<valuemax>1</valuemax>
								<value>1</value>
							</parameter>
						</effect>
					</filter>
					<sourcetrack>
						<mediatype>audio</mediatype>
						<trackindex>2</trackindex>
					</sourcetrack>
					<link>
						<linkclipref>MVI_7684 11</linkclipref>
						<mediatype>video</mediatype>
						<trackindex>2</trackindex>
						<clipindex>8</clipindex>
					</link>
					<link>
						<linkclipref>MVI_7684 12</linkclipref>
						<mediatype>audio</mediatype>
						<trackindex>1</trackindex>
						<clipindex>12</clipindex>
						<groupindex>1</groupindex>
					</link>
					<link>
						<linkclipref>MVI_7684 13</linkclipref>
						<mediatype>audio</mediatype>
						<trackindex>2</trackindex>
						<clipindex>12</clipindex>
						<groupindex>1</groupindex>
					</link>
					<itemhistory>
						<uuid>19D6CCB4-0B26-470A-B29F-B52F549F92C9</uuid>
						<uuid>D8F2A530-AC22-43C5-AE09-E2384E09B059</uuid>
					</itemhistory>
				</clipitem>
				<clipitem id="MVI_7684 16">
					<name>MVI_7684</name>
					<duration>17768</duration>
					<rate>
						<ntsc>TRUE</ntsc>
						<timebase>24</timebase>
					</rate>
					<in>4907</in>
					<out>5035</out>
					<start>57350</start>
					<end>57478</end>
					<masterclipid>MVI_7684 1</masterclipid>
					<logginginfo>
						<scene/>
						<shottake/>
						<lognote/>
						<good>FALSE</good>
					</logginginfo>
					<labels>
						<label2/>
					</labels>
					<comments>
						<mastercomment1/>
						<mastercomment2/>
						<mastercomment3/>
						<mastercomment4/>
					</comments>
					<file id="MVI_7684 2"/>
					<marker>
						<name>post digital </name>
						<comment>What comes after digital?,&#13;question,&#13;</comment>
						<color>
							<alpha>0</alpha>
							<red>255</red>
							<green>0</green>
							<blue>0</blue>
						</color>
						<in>633</in>
						<out>1153</out>
					</marker>
					<marker>
						<name>All about the why?</name>
						<comment>why?,&#13;design and art,&#13;questions,&#13;</comment>
						<color>
							<alpha>0</alpha>
							<red>255</red>
							<green>0</green>
							<blue>0</blue>
						</color>
						<in>4511</in>
						<out>4728</out>
					</marker>
					<marker>
						<name>Slurpies and pizza</name>
						<comment>weird, funny, food</comment>
						<color>
							<alpha>0</alpha>
							<red>255</red>
							<green>0</green>
							<blue>0</blue>
						</color>
						<in>7330</in>
						<out>7930</out>
					</marker>
					<marker>
						<name>Clouds</name>
						<comment>what is clouds?,&#13;future of cinema,&#13;clouds,</comment>
						<color>
							<alpha>0</alpha>
							<red>255</red>
							<green>0</green>
							<blue>0</blue>
						</color>
						<in>11603</in>
						<out>12063</out>
					</marker>
					<marker>
						<name>about relationships</name>
						<comment/>
						<color>
							<alpha>0</alpha>
							<red>255</red>
							<green>0</green>
							<blue>0</blue>
						</color>
						<in>12389</in>
						<out>12708</out>
					</marker>
					<marker>
						<name>recording appalachian music</name>
						<comment>becoming more human,&#13;humanism,&#13;culture,&#13;post-digital,&#13;what you do with the tools,</comment>
						<color>
							<alpha>0</alpha>
							<red>255</red>
							<green>0</green>
							<blue>0</blue>
						</color>
						<in>12845</in>
						<out>14240</out>
					</marker>
					<marker>
						<name>Coding for humanity</name>
						<comment>program or be programmed,&#13;coding culture,&#13;own the tool,&#13;just a tool,&#13;people,&#13;humanism,</comment>
						<color>
							<alpha>0</alpha>
							<red>255</red>
							<green>0</green>
							<blue>0</blue>
						</color>
						<in>15927</in>
						<out>16984</out>
					</marker>
					<filter>
						<effect>
							<name>Audio Levels</name>
							<effectid>audiolevels</effectid>
							<effectcategory>audiolevels</effectcategory>
							<effecttype>audiolevels</effecttype>
							<mediatype>audio</mediatype>
							<parameter>
								<name>Level</name>
								<parameterid>level</parameterid>
								<valuemin>0</valuemin>
								<valuemax>3.98109</valuemax>
								<value>1</value>
							</parameter>
						</effect>
					</filter>
					<filter>
						<effect>
							<name>Audio Pan</name>
							<effectid>audiopan</effectid>
							<effectcategory>audiopan</effectcategory>
							<effecttype>audiopan</effecttype>
							<mediatype>audio</mediatype>
							<parameter>
								<name>Pan</name>
								<parameterid>pan</parameterid>
								<valuemin>-1</valuemin>
								<valuemax>1</valuemax>
								<value>1</value>
							</parameter>
						</effect>
					</filter>
					<sourcetrack>
						<mediatype>audio</mediatype>
						<trackindex>2</trackindex>
					</sourcetrack>
					<link>
						<linkclipref>MVI_7684 14</linkclipref>
						<mediatype>video</mediatype>
						<trackindex>2</trackindex>
						<clipindex>9</clipindex>
					</link>
					<link>
						<linkclipref>MVI_7684 15</linkclipref>
						<mediatype>audio</mediatype>
						<trackindex>1</trackindex>
						<clipindex>13</clipindex>
						<groupindex>1</groupindex>
					</link>
					<link>
						<linkclipref>MVI_7684 16</linkclipref>
						<mediatype>audio</mediatype>
						<trackindex>2</trackindex>
						<clipindex>13</clipindex>
						<groupindex>1</groupindex>
					</link>
					<itemhistory>
						<uuid>57335458-2CBF-45B0-92AB-FDB5ED2C0A8C</uuid>
						<uuid>D8F2A530-AC22-43C5-AE09-E2384E09B059</uuid>
					</itemhistory>
				</clipitem>
				<clipitem id="MVI_7684 19">
					<name>MVI_7684</name>
					<duration>17768</duration>
					<rate>
						<ntsc>TRUE</ntsc>
						<timebase>24</timebase>
					</rate>
					<in>5035</in>
					<out>17768</out>
					<start>57478</start>
					<end>70211</end>
					<masterclipid>MVI_7684 1</masterclipid>
					<logginginfo>
						<scene/>
						<shottake/>
						<lognote/>
						<good>FALSE</good>
					</logginginfo>
					<labels>
						<label2/>
					</labels>
					<comments>
						<mastercomment1/>
						<mastercomment2/>
						<mastercomment3/>
						<mastercomment4/>
					</comments>
					<file id="MVI_7684 2"/>
					<marker>
						<name>post digital </name>
						<comment>What comes after digital?,&#13;question,&#13;</comment>
						<color>
							<alpha>0</alpha>
							<red>255</red>
							<green>0</green>
							<blue>0</blue>
						</color>
						<in>633</in>
						<out>1153</out>
					</marker>
					<marker>
						<name>All about the why?</name>
						<comment>why?,&#13;design and art,&#13;questions,&#13;</comment>
						<color>
							<alpha>0</alpha>
							<red>255</red>
							<green>0</green>
							<blue>0</blue>
						</color>
						<in>4511</in>
						<out>4728</out>
					</marker>
					<marker>
						<name>Slurpies and pizza</name>
						<comment>weird, funny, food</comment>
						<color>
							<alpha>0</alpha>
							<red>255</red>
							<green>0</green>
							<blue>0</blue>
						</color>
						<in>7330</in>
						<out>7930</out>
					</marker>
					<marker>
						<name>Clouds</name>
						<comment>what is clouds?,&#13;future of cinema,&#13;clouds,</comment>
						<color>
							<alpha>0</alpha>
							<red>255</red>
							<green>0</green>
							<blue>0</blue>
						</color>
						<in>11603</in>
						<out>12063</out>
					</marker>
					<marker>
						<name>about relationships</name>
						<comment/>
						<color>
							<alpha>0</alpha>
							<red>255</red>
							<green>0</green>
							<blue>0</blue>
						</color>
						<in>12389</in>
						<out>12708</out>
					</marker>
					<marker>
						<name>recording appalachian music</name>
						<comment>becoming more human,&#13;humanism,&#13;culture,&#13;post-digital,&#13;what you do with the tools,</comment>
						<color>
							<alpha>0</alpha>
							<red>255</red>
							<green>0</green>
							<blue>0</blue>
						</color>
						<in>12845</in>
						<out>14240</out>
					</marker>
					<marker>
						<name>Coding for humanity</name>
						<comment>program or be programmed,&#13;coding culture,&#13;own the tool,&#13;just a tool,&#13;people,&#13;humanism,</comment>
						<color>
							<alpha>0</alpha>
							<red>255</red>
							<green>0</green>
							<blue>0</blue>
						</color>
						<in>15927</in>
						<out>16984</out>
					</marker>
					<filter>
						<effect>
							<name>Audio Levels</name>
							<effectid>audiolevels</effectid>
							<effectcategory>audiolevels</effectcategory>
							<effecttype>audiolevels</effecttype>
							<mediatype>audio</mediatype>
							<parameter>
								<name>Level</name>
								<parameterid>level</parameterid>
								<valuemin>0</valuemin>
								<valuemax>3.98109</valuemax>
								<value>1</value>
							</parameter>
						</effect>
					</filter>
					<filter>
						<effect>
							<name>Audio Pan</name>
							<effectid>audiopan</effectid>
							<effectcategory>audiopan</effectcategory>
							<effecttype>audiopan</effecttype>
							<mediatype>audio</mediatype>
							<parameter>
								<name>Pan</name>
								<parameterid>pan</parameterid>
								<valuemin>-1</valuemin>
								<valuemax>1</valuemax>
								<value>1</value>
							</parameter>
						</effect>
					</filter>
					<sourcetrack>
						<mediatype>audio</mediatype>
						<trackindex>2</trackindex>
					</sourcetrack>
					<link>
						<linkclipref>MVI_7684 17</linkclipref>
						<mediatype>video</mediatype>
						<trackindex>2</trackindex>
						<clipindex>10</clipindex>
					</link>
					<link>
						<linkclipref>MVI_7684 18</linkclipref>
						<mediatype>audio</mediatype>
						<trackindex>1</trackindex>
						<clipindex>14</clipindex>
						<groupindex>1</groupindex>
					</link>
					<link>
						<linkclipref>MVI_7684 19</linkclipref>
						<mediatype>audio</mediatype>
						<trackindex>2</trackindex>
						<clipindex>14</clipindex>
						<groupindex>1</groupindex>
					</link>
					<itemhistory>
						<uuid>6FD9E360-0D56-40BD-8235-E6D13AA73CBF</uuid>
						<uuid>D8F2A530-AC22-43C5-AE09-E2384E09B059</uuid>
					</itemhistory>
				</clipitem>
				<enabled>TRUE</enabled>
				<locked>FALSE</locked>
				<outputchannelindex>2</outputchannelindex>
			</track>
			<track>
				<enabled>TRUE</enabled>
				<locked>FALSE</locked>
				<outputchannelindex>1</outputchannelindex>
			</track>
			<track>
				<enabled>TRUE</enabled>
				<locked>FALSE</locked>
				<outputchannelindex>2</outputchannelindex>
			</track>
			<filter>
				<effect>
					<name>Audio Levels</name>
					<effectid>audiolevels</effectid>
					<effectcategory>audiolevels</effectcategory>
					<effecttype>audiolevels</effecttype>
					<mediatype>audio</mediatype>
					<parameter>
						<name>Level</name>
						<parameterid>level</parameterid>
						<valuemin>0</valuemin>
						<valuemax>3.98109</valuemax>
						<value>1</value>
					</parameter>
				</effect>
			</filter>
		</audio>
	</media>
	<ismasterclip>FALSE</ismasterclip>
	<marker>
		<name>Marker 4</name>
		<color>
			<alpha>0</alpha>
			<red>255</red>
			<green>0</green>
			<blue>0</blue>
		</color>
		<in>7213</in>
		<out>-1</out>
	</marker>
	<marker>
		<name>Marker 2</name>
		<color>
			<alpha>0</alpha>
			<red>255</red>
			<green>0</green>
			<blue>0</blue>
		</color>
		<in>44811</in>
		<out>-1</out>
	</marker>
	<marker>
		<name>Marker 3</name>
		<color>
			<alpha>0</alpha>
			<red>255</red>
			<green>0</green>
			<blue>0</blue>
		</color>
		<in>70211</in>
		<out>-1</out>
	</marker>
</sequence>
<sequence id="Marius">
	<uuid>018D36FA-C089-4368-B2A2-CDFB87CB4A54</uuid>
	<updatebehavior>add</updatebehavior>
	<name>Marius</name>
	<duration>45390</duration>
	<rate>
		<ntsc>TRUE</ntsc>
		<timebase>24</timebase>
	</rate>
	<timecode>
		<rate>
			<ntsc>TRUE</ntsc>
			<timebase>24</timebase>
		</rate>
		<string>01:00:00:00</string>
		<frame>86400</frame>
		<source>source</source>
		<displayformat>NDF</displayformat>
	</timecode>
	<in>7144</in>
	<out>7932</out>
	<media>
		<video>
			<format>
				<samplecharacteristics>
					<width>1920</width>
					<height>1080</height>
					<anamorphic>FALSE</anamorphic>
					<pixelaspectratio>Square</pixelaspectratio>
					<fielddominance>none</fielddominance>
					<rate>
						<ntsc>TRUE</ntsc>
						<timebase>24</timebase>
					</rate>
					<colordepth>24</colordepth>
					<codec>
						<name>Apple ProRes 422</name>
						<appspecificdata>
							<appname>Final Cut Pro</appname>
							<appmanufacturer>Apple Inc.</appmanufacturer>
							<appversion>7.0</appversion>
							<data>
								<qtcodec>
									<codecname>Apple ProRes 422</codecname>
									<codectypename>Apple ProRes 422 (HQ)</codectypename>
									<codectypecode>apch</codectypecode>
									<codecvendorcode>appl</codecvendorcode>
									<spatialquality>1024</spatialquality>
									<temporalquality>0</temporalquality>
									<keyframerate>0</keyframerate>
									<datarate>0</datarate>
								</qtcodec>
							</data>
						</appspecificdata>
					</codec>
				</samplecharacteristics>
				<appspecificdata>
					<appname>Final Cut Pro</appname>
					<appmanufacturer>Apple Inc.</appmanufacturer>
					<appversion>7.0</appversion>
					<data>
						<fcpimageprocessing>
							<useyuv>TRUE</useyuv>
							<usesuperwhite>FALSE</usesuperwhite>
							<rendermode>Float10BPP</rendermode>
						</fcpimageprocessing>
					</data>
				</appspecificdata>
			</format>
			<track>
				<clipitem id="MVI_0983 ">
					<name>MVI_0983</name>
					<duration>8637</duration>
					<rate>
						<ntsc>TRUE</ntsc>
						<timebase>24</timebase>
					</rate>
					<in>0</in>
					<out>8637</out>
					<start>0</start>
					<end>8637</end>
					<pixelaspectratio>Square</pixelaspectratio>
					<enabled>TRUE</enabled>
					<anamorphic>FALSE</anamorphic>
					<alphatype>none</alphatype>
					<masterclipid>MVI_0983 1</masterclipid>
					<logginginfo>
						<scene/>
						<shottake/>
						<lognote/>
						<good>FALSE</good>
					</logginginfo>
					<labels>
						<label2/>
					</labels>
					<comments>
						<mastercomment1/>
						<mastercomment2/>
						<mastercomment3/>
						<mastercomment4/>
					</comments>
					<file id="MVI_0983 2">
						<name>MVI_0983.mov</name>
						<pathurl>file://localhost/Volumes/Nebula/MediaPackages/EyeoMediaBin/Marius02/color/MVI_0983.mov</pathurl>
						<rate>
							<timebase>24</timebase>
							<ntsc>TRUE</ntsc>
						</rate>
						<duration>8637</duration>
						<media>
							<video>
								<duration>8637</duration>
								<samplecharacteristics>
									<width>1920</width>
									<height>1080</height>
								</samplecharacteristics>
							</video>
							<audio>
								<samplecharacteristics>
									<samplerate>48000</samplerate>
									<depth>16</depth>
								</samplecharacteristics>
								<channelcount>2</channelcount>
							</audio>
						</media>
					</file>
					<marker>
						<name>Do you work with randomness?</name>
						<comment/>
						<color>
							<alpha>0</alpha>
							<red>255</red>
							<green>127</green>
							<blue>0</blue>
						</color>
						<in>1496</in>
						<out>-1</out>
					</marker>
					<marker>
						<name>algorithms as a parameter space</name>
						<comment>How do you shape randomness?,&#13;surprise,&#13;serendipity,&#13;parameter space,&#13;possibility,&#13;randomness,&#13;generative,&#13;</comment>
						<color>
							<alpha>0</alpha>
							<red>255</red>
							<green>127</green>
							<blue>0</blue>
						</color>
						<in>2261</in>
						<out>3285</out>
					</marker>
					<marker>
						<name/>
						<comment>in a sense are you running through an evolutionary process?, </comment>
						<color>
							<alpha>0</alpha>
							<red>255</red>
							<green>0</green>
							<blue>0</blue>
						</color>
						<in>3391</in>
						<out>-1</out>
					</marker>
					<marker>
						<name>dropped out of computer science</name>
						<comment>how did you get into working with code?,&#13;beginning,&#13;graphic design,&#13;art world,&#13;</comment>
						<color>
							<alpha>0</alpha>
							<red>255</red>
							<green>0</green>
							<blue>0</blue>
						</color>
						<in>3939</in>
						<out>4607</out>
					</marker>
					<marker>
						<name>these things are in my head</name>
						<comment>why are you attracted to abstraction?&#13;abstraction,&#13;self expression,&#13;subjectivity,&#13;mind,&#13;identity,&#13;why?,&#13;process,&#13;creativity,&#13;Link:JTNimoy - Dream</comment>
						<color>
							<alpha>0</alpha>
							<red>255</red>
							<green>0</green>
							<blue>0</blue>
						</color>
						<in>4909</in>
						<out>5405</out>
					</marker>
					<marker>
						<name>Continuous process of exploration</name>
						<comment>how does the work feed into itself?,&#13;exploration,&#13;iterative,&#13;generative art,&#13;feedback loops,&#13;intuition,&#13;creativity,&#13;form,&#13;design&#13;</comment>
						<color>
							<alpha>0</alpha>
							<red>255</red>
							<green>0</green>
							<blue>0</blue>
						</color>
						<in>5627</in>
						<out>6080</out>
					</marker>
					<marker>
						<name>jumping from medium to medium</name>
						<comment>multimedia,&#13;digital fabrication,&#13;process</comment>
						<color>
							<alpha>0</alpha>
							<red>255</red>
							<green>0</green>
							<blue>0</blue>
						</color>
						<in>6080</in>
						<out>6465</out>
					</marker>
					<marker>
						<name>gardening</name>
						<comment>how do you choose what to display, working iteratively generatively in a process that can go on forever?,&#13;emergence,&#13;control,&#13;gardening,&#13;generative process,&#13;form,&#13;choosing,&#13;randomness,</comment>
						<color>
							<alpha>0</alpha>
							<red>255</red>
							<green>0</green>
							<blue>0</blue>
						</color>
						<in>7148</in>
						<out>7933</out>
					</marker>
					<marker>
						<name>It's dirtier than that</name>
						<comment>gardening,&#13;foraging, &#13;beauty</comment>
						<color>
							<alpha>0</alpha>
							<red>255</red>
							<green>0</green>
							<blue>0</blue>
						</color>
						<in>8182</in>
						<out>8361</out>
					</marker>
					<sourcetrack>
						<mediatype>video</mediatype>
					</sourcetrack>
					<link>
						<linkclipref>MVI_0983 </linkclipref>
						<mediatype>video</mediatype>
						<trackindex>1</trackindex>
						<clipindex>1</clipindex>
					</link>
					<link>
						<linkclipref>MVI_0983 3</linkclipref>
						<mediatype>audio</mediatype>
						<trackindex>1</trackindex>
						<clipindex>1</clipindex>
						<groupindex>1</groupindex>
					</link>
					<link>
						<linkclipref>MVI_0983 4</linkclipref>
						<mediatype>audio</mediatype>
						<trackindex>2</trackindex>
						<clipindex>1</clipindex>
						<groupindex>1</groupindex>
					</link>
					<fielddominance>none</fielddominance>
					<itemhistory>
						<uuid>4D844F4E-6CB4-420F-A5CB-3663F2223892</uuid>
					</itemhistory>
				</clipitem>
				<clipitem id="MVI_0984 ">
					<name>MVI_0984</name>
					<duration>17208</duration>
					<rate>
						<ntsc>TRUE</ntsc>
						<timebase>24</timebase>
					</rate>
					<in>0</in>
					<out>4701</out>
					<start>8637</start>
					<end>13338</end>
					<pixelaspectratio>Square</pixelaspectratio>
					<enabled>TRUE</enabled>
					<anamorphic>FALSE</anamorphic>
					<alphatype>none</alphatype>
					<masterclipid>MVI_0984 1</masterclipid>
					<logginginfo>
						<scene/>
						<shottake/>
						<lognote/>
						<good>FALSE</good>
					</logginginfo>
					<labels>
						<label2/>
					</labels>
					<comments>
						<mastercomment1/>
						<mastercomment2/>
						<mastercomment3/>
						<mastercomment4/>
					</comments>
					<file id="MVI_0984 2">
						<name>MVI_0984.mov</name>
						<pathurl>file://localhost/Volumes/Nebula/MediaPackages/EyeoMediaBin/Marius03/color/MVI_0984.mov</pathurl>
						<rate>
							<timebase>24</timebase>
							<ntsc>TRUE</ntsc>
						</rate>
						<duration>17208</duration>
						<media>
							<video>
								<duration>17208</duration>
								<samplecharacteristics>
									<width>1920</width>
									<height>1080</height>
								</samplecharacteristics>
							</video>
							<audio>
								<samplecharacteristics>
									<samplerate>48000</samplerate>
									<depth>16</depth>
								</samplecharacteristics>
								<channelcount>2</channelcount>
							</audio>
						</media>
					</file>
					<marker>
						<name>constraining randomness</name>
						<comment>how do you see the generative process?,&#13;control,&#13;discovery,&#13;collaboration with machines,&#13;algorithm,&#13;authorship,&#13;generative art,&#13;process,&#13;harvesting</comment>
						<color>
							<alpha>0</alpha>
							<red>255</red>
							<green>0</green>
							<blue>0</blue>
						</color>
						<in>208</in>
						<out>1469</out>
					</marker>
					<marker>
						<name>code can be messy</name>
						<comment>serendipity,&#13;experimentation,&#13;elegance,&#13;complexity,&#13;link: Maeda - inexactitude,</comment>
						<color>
							<alpha>0</alpha>
							<red>255</red>
							<green>0</green>
							<blue>0</blue>
						</color>
						<in>1652</in>
						<out>1841</out>
					</marker>
					<marker>
						<name>Techno-rococo</name>
						<comment>Beauty,&#13;critique,&#13;visual exhuberance,</comment>
						<color>
							<alpha>0</alpha>
							<red>255</red>
							<green>0</green>
							<blue>0</blue>
						</color>
						<in>4464</in>
						<out>4680</out>
					</marker>
					<marker>
						<name>the idea of beauty</name>
						<comment>beauty,&#13;art vs design,&#13;</comment>
						<color>
							<alpha>0</alpha>
							<red>255</red>
							<green>0</green>
							<blue>0</blue>
						</color>
						<in>4694</in>
						<out>-1</out>
					</marker>
					<marker>
						<name>Art world gave up on beauty</name>
						<comment>Beauty,&#13;form,&#13;</comment>
						<color>
							<alpha>0</alpha>
							<red>255</red>
							<green>0</green>
							<blue>0</blue>
						</color>
						<in>4699</in>
						<out>5142</out>
					</marker>
					<marker>
						<name>aesthetic experience</name>
						<comment>What is beautiful?&#13;aesthetics,&#13;beauty,&#13;pleasure,&#13;eye of the beholder,&#13;subjectivity,&#13;images,</comment>
						<color>
							<alpha>0</alpha>
							<red>255</red>
							<green>0</green>
							<blue>0</blue>
						</color>
						<in>5365</in>
						<out>5951</out>
					</marker>
					<marker>
						<name>reach your visual cortex</name>
						<comment>sensation,&#13;physicality,&#13;perception,&#13;visual cortex,&#13;Josh Nimoy,&#13;synesthesia,&#13;music,&#13;techno,&#13;subliminal,&#13;Link:JTNimoy - cortex2&#13;</comment>
						<color>
							<alpha>0</alpha>
							<red>255</red>
							<green>0</green>
							<blue>0</blue>
						</color>
						<in>5997</in>
						<out>6903</out>
					</marker>
					<marker>
						<name>Marker 2</name>
						<comment>Do you believe in a universal aesthetic trancending culture, a universal sublime?,&#13;beauty,&#13;</comment>
						<color>
							<alpha>0</alpha>
							<red>255</red>
							<green>0</green>
							<blue>0</blue>
						</color>
						<in>7346</in>
						<out>-1</out>
					</marker>
					<marker>
						<name>Aesthetic with no references,</name>
						<comment>machine aesthetics,&#13;artificiality,&#13;new aesthetic,&#13;digital, antihuman&#13;</comment>
						<color>
							<alpha>0</alpha>
							<red>255</red>
							<green>0</green>
							<blue>0</blue>
						</color>
						<in>8596</in>
						<out>9671</out>
					</marker>
					<marker>
						<name>Machines change the way we see</name>
						<comment>Are the technological and human opposite?&#13;new aesthetic,&#13;perception,&#13;artificiality, &#13;machine aesthetics,&#13;man vs machine,&#13;coevolution,&#13;symbiosis,&#13;link:Julian - Shapes the way we think,&#13;link:Maeda - technology is made by people</comment>
						<color>
							<alpha>0</alpha>
							<red>255</red>
							<green>0</green>
							<blue>0</blue>
						</color>
						<in>10044</in>
						<out>11238</out>
					</marker>
					<marker>
						<name>New Aesthetic</name>
						<comment>new aesthetic,&#13;visual culture,&#13;</comment>
						<color>
							<alpha>0</alpha>
							<red>255</red>
							<green>0</green>
							<blue>0</blue>
						</color>
						<in>12165</in>
						<out>13102</out>
					</marker>
					<marker>
						<name>Living in a state of newness since age 10</name>
						<comment>Is it a problem that we fetishize newness?,&#13;New,&#13;gadget,&#13;critique,&#13;living in the future,&#13;technological progress,</comment>
						<color>
							<alpha>0</alpha>
							<red>255</red>
							<green>0</green>
							<blue>0</blue>
						</color>
						<in>13431</in>
						<out>14674</out>
					</marker>
					<marker>
						<name>Thoroughly enjoying it at the moment</name>
						<comment>digital fabrication,&#13;newness,&#13;toys,&#13;timeless digital now,&#13;technological progress,&#13;techpositive,&#13;technoptimism,</comment>
						<color>
							<alpha>0</alpha>
							<red>255</red>
							<green>0</green>
							<blue>0</blue>
						</color>
						<in>14887</in>
						<out>15737</out>
					</marker>
					<marker>
						<name>Marker 3</name>
						<comment>digital into physical,&#13;3D printing,</comment>
						<color>
							<alpha>0</alpha>
							<red>255</red>
							<green>0</green>
							<blue>0</blue>
						</color>
						<in>16151</in>
						<out>16817</out>
					</marker>
					<filter>
						<effect>
							<name>Basic Motion</name>
							<effectid>basic</effectid>
							<effectcategory>motion</effectcategory>
							<effecttype>motion</effecttype>
							<mediatype>video</mediatype>
							<parameter>
								<parameterid>center</parameterid>
								<name>Center</name>
								<value>
									<horiz>0</horiz>
									<vert>-0.000925926</vert>
								</value>
							</parameter>
						</effect>
					</filter>
					<sourcetrack>
						<mediatype>video</mediatype>
					</sourcetrack>
					<link>
						<linkclipref>MVI_0984 </linkclipref>
						<mediatype>video</mediatype>
						<trackindex>1</trackindex>
						<clipindex>2</clipindex>
					</link>
					<link>
						<linkclipref>MVI_0984 3</linkclipref>
						<mediatype>audio</mediatype>
						<trackindex>1</trackindex>
						<clipindex>2</clipindex>
						<groupindex>1</groupindex>
					</link>
					<link>
						<linkclipref>MVI_0984 4</linkclipref>
						<mediatype>audio</mediatype>
						<trackindex>2</trackindex>
						<clipindex>2</clipindex>
						<groupindex>1</groupindex>
					</link>
					<fielddominance>none</fielddominance>
					<itemhistory>
						<uuid>64C11156-0950-4779-A6D0-75989E30EFDC</uuid>
						<uuid>7B9A3827-E0E0-4E04-879A-434B61345D5A</uuid>
					</itemhistory>
				</clipitem>
				<clipitem id="MVI_0984 5">
					<name>MVI_0984</name>
					<duration>17208</duration>
					<rate>
						<ntsc>TRUE</ntsc>
						<timebase>24</timebase>
					</rate>
					<in>4701</in>
					<out>5952</out>
					<start>13338</start>
					<end>14589</end>
					<pixelaspectratio>Square</pixelaspectratio>
					<enabled>TRUE</enabled>
					<anamorphic>FALSE</anamorphic>
					<alphatype>none</alphatype>
					<masterclipid>MVI_0984 1</masterclipid>
					<logginginfo>
						<scene/>
						<shottake/>
						<lognote/>
						<good>FALSE</good>
					</logginginfo>
					<labels>
						<label2/>
					</labels>
					<comments>
						<mastercomment1/>
						<mastercomment2/>
						<mastercomment3/>
						<mastercomment4/>
					</comments>
					<file id="MVI_0984 2"/>
					<marker>
						<name>constraining randomness</name>
						<comment>how do you see the generative process?,&#13;control,&#13;discovery,&#13;collaboration with machines,&#13;algorithm,&#13;authorship,&#13;generative art,&#13;process,&#13;harvesting</comment>
						<color>
							<alpha>0</alpha>
							<red>255</red>
							<green>0</green>
							<blue>0</blue>
						</color>
						<in>208</in>
						<out>1469</out>
					</marker>
					<marker>
						<name>code can be messy</name>
						<comment>serendipity,&#13;experimentation,&#13;elegance,&#13;complexity,&#13;link: Maeda - inexactitude,</comment>
						<color>
							<alpha>0</alpha>
							<red>255</red>
							<green>0</green>
							<blue>0</blue>
						</color>
						<in>1652</in>
						<out>1841</out>
					</marker>
					<marker>
						<name>Techno-rococo</name>
						<comment>Beauty,&#13;critique,&#13;visual exhuberance,</comment>
						<color>
							<alpha>0</alpha>
							<red>255</red>
							<green>0</green>
							<blue>0</blue>
						</color>
						<in>4464</in>
						<out>4680</out>
					</marker>
					<marker>
						<name>the idea of beauty</name>
						<comment>beauty,&#13;art vs design,&#13;</comment>
						<color>
							<alpha>0</alpha>
							<red>255</red>
							<green>0</green>
							<blue>0</blue>
						</color>
						<in>4694</in>
						<out>-1</out>
					</marker>
					<marker>
						<name>Art world gave up on beauty</name>
						<comment>Beauty,&#13;form,&#13;</comment>
						<color>
							<alpha>0</alpha>
							<red>255</red>
							<green>0</green>
							<blue>0</blue>
						</color>
						<in>4699</in>
						<out>5142</out>
					</marker>
					<marker>
						<name>aesthetic experience</name>
						<comment>What is beautiful?&#13;aesthetics,&#13;beauty,&#13;pleasure,&#13;eye of the beholder,&#13;subjectivity,&#13;images,</comment>
						<color>
							<alpha>0</alpha>
							<red>255</red>
							<green>0</green>
							<blue>0</blue>
						</color>
						<in>5365</in>
						<out>5951</out>
					</marker>
					<marker>
						<name>reach your visual cortex</name>
						<comment>sensation,&#13;physicality,&#13;perception,&#13;visual cortex,&#13;Josh Nimoy,&#13;synesthesia,&#13;music,&#13;techno,&#13;subliminal,&#13;Link:JTNimoy - cortex2&#13;</comment>
						<color>
							<alpha>0</alpha>
							<red>255</red>
							<green>0</green>
							<blue>0</blue>
						</color>
						<in>5997</in>
						<out>6903</out>
					</marker>
					<marker>
						<name>Marker 2</name>
						<comment>Do you believe in a universal aesthetic trancending culture, a universal sublime?,&#13;beauty,&#13;</comment>
						<color>
							<alpha>0</alpha>
							<red>255</red>
							<green>0</green>
							<blue>0</blue>
						</color>
						<in>7346</in>
						<out>-1</out>
					</marker>
					<marker>
						<name>Aesthetic with no references,</name>
						<comment>machine aesthetics,&#13;artificiality,&#13;new aesthetic,&#13;digital, antihuman&#13;</comment>
						<color>
							<alpha>0</alpha>
							<red>255</red>
							<green>0</green>
							<blue>0</blue>
						</color>
						<in>8596</in>
						<out>9671</out>
					</marker>
					<marker>
						<name>Machines change the way we see</name>
						<comment>Are the technological and human opposite?&#13;new aesthetic,&#13;perception,&#13;artificiality, &#13;machine aesthetics,&#13;man vs machine,&#13;coevolution,&#13;symbiosis,&#13;link:Julian - Shapes the way we think,&#13;link:Maeda - technology is made by people</comment>
						<color>
							<alpha>0</alpha>
							<red>255</red>
							<green>0</green>
							<blue>0</blue>
						</color>
						<in>10044</in>
						<out>11238</out>
					</marker>
					<marker>
						<name>New Aesthetic</name>
						<comment>new aesthetic,&#13;visual culture,&#13;</comment>
						<color>
							<alpha>0</alpha>
							<red>255</red>
							<green>0</green>
							<blue>0</blue>
						</color>
						<in>12165</in>
						<out>13102</out>
					</marker>
					<marker>
						<name>Living in a state of newness since age 10</name>
						<comment>Is it a problem that we fetishize newness?,&#13;New,&#13;gadget,&#13;critique,&#13;living in the future,&#13;technological progress,</comment>
						<color>
							<alpha>0</alpha>
							<red>255</red>
							<green>0</green>
							<blue>0</blue>
						</color>
						<in>13431</in>
						<out>14674</out>
					</marker>
					<marker>
						<name>Thoroughly enjoying it at the moment</name>
						<comment>digital fabrication,&#13;newness,&#13;toys,&#13;timeless digital now,&#13;technological progress,&#13;techpositive,&#13;technoptimism,</comment>
						<color>
							<alpha>0</alpha>
							<red>255</red>
							<green>0</green>
							<blue>0</blue>
						</color>
						<in>14887</in>
						<out>15737</out>
					</marker>
					<marker>
						<name>Marker 3</name>
						<comment>digital into physical,&#13;3D printing,</comment>
						<color>
							<alpha>0</alpha>
							<red>255</red>
							<green>0</green>
							<blue>0</blue>
						</color>
						<in>16151</in>
						<out>16817</out>
					</marker>
					<filter>
						<effect>
							<name>Basic Motion</name>
							<effectid>basic</effectid>
							<effectcategory>motion</effectcategory>
							<effecttype>motion</effecttype>
							<mediatype>video</mediatype>
							<parameter>
								<parameterid>center</parameterid>
								<name>Center</name>
								<value>
									<horiz>0</horiz>
									<vert>-0.000925926</vert>
								</value>
							</parameter>
						</effect>
					</filter>
					<sourcetrack>
						<mediatype>video</mediatype>
					</sourcetrack>
					<link>
						<linkclipref>MVI_0984 5</linkclipref>
						<mediatype>video</mediatype>
						<trackindex>1</trackindex>
						<clipindex>3</clipindex>
					</link>
					<link>
						<linkclipref>MVI_0984 6</linkclipref>
						<mediatype>audio</mediatype>
						<trackindex>1</trackindex>
						<clipindex>3</clipindex>
						<groupindex>1</groupindex>
					</link>
					<link>
						<linkclipref>MVI_0984 7</linkclipref>
						<mediatype>audio</mediatype>
						<trackindex>2</trackindex>
						<clipindex>3</clipindex>
						<groupindex>1</groupindex>
					</link>
					<fielddominance>none</fielddominance>
					<itemhistory>
						<uuid>8EA50F77-C2E7-4F78-8A36-9583901604B5</uuid>
						<uuid>7B9A3827-E0E0-4E04-879A-434B61345D5A</uuid>
					</itemhistory>
				</clipitem>
				<clipitem id="MVI_0984 8">
					<name>MVI_0984</name>
					<duration>17208</duration>
					<rate>
						<ntsc>TRUE</ntsc>
						<timebase>24</timebase>
					</rate>
					<in>5952</in>
					<out>17208</out>
					<start>14589</start>
					<end>25845</end>
					<pixelaspectratio>Square</pixelaspectratio>
					<enabled>TRUE</enabled>
					<anamorphic>FALSE</anamorphic>
					<alphatype>none</alphatype>
					<masterclipid>MVI_0984 1</masterclipid>
					<logginginfo>
						<scene/>
						<shottake/>
						<lognote/>
						<good>FALSE</good>
					</logginginfo>
					<labels>
						<label2/>
					</labels>
					<comments>
						<mastercomment1/>
						<mastercomment2/>
						<mastercomment3/>
						<mastercomment4/>
					</comments>
					<file id="MVI_0984 2"/>
					<marker>
						<name>constraining randomness</name>
						<comment>how do you see the generative process?,&#13;control,&#13;discovery,&#13;collaboration with machines,&#13;algorithm,&#13;authorship,&#13;generative art,&#13;process,&#13;harvesting</comment>
						<color>
							<alpha>0</alpha>
							<red>255</red>
							<green>0</green>
							<blue>0</blue>
						</color>
						<in>208</in>
						<out>1469</out>
					</marker>
					<marker>
						<name>code can be messy</name>
						<comment>serendipity,&#13;experimentation,&#13;elegance,&#13;complexity,&#13;link: Maeda - inexactitude,</comment>
						<color>
							<alpha>0</alpha>
							<red>255</red>
							<green>0</green>
							<blue>0</blue>
						</color>
						<in>1652</in>
						<out>1841</out>
					</marker>
					<marker>
						<name>Techno-rococo</name>
						<comment>Beauty,&#13;critique,&#13;visual exhuberance,</comment>
						<color>
							<alpha>0</alpha>
							<red>255</red>
							<green>0</green>
							<blue>0</blue>
						</color>
						<in>4464</in>
						<out>4680</out>
					</marker>
					<marker>
						<name>the idea of beauty</name>
						<comment>beauty,&#13;art vs design,&#13;</comment>
						<color>
							<alpha>0</alpha>
							<red>255</red>
							<green>0</green>
							<blue>0</blue>
						</color>
						<in>4694</in>
						<out>-1</out>
					</marker>
					<marker>
						<name>Art world gave up on beauty</name>
						<comment>Beauty,&#13;form,&#13;</comment>
						<color>
							<alpha>0</alpha>
							<red>255</red>
							<green>0</green>
							<blue>0</blue>
						</color>
						<in>4699</in>
						<out>5142</out>
					</marker>
					<marker>
						<name>aesthetic experience</name>
						<comment>What is beautiful?&#13;aesthetics,&#13;beauty,&#13;pleasure,&#13;eye of the beholder,&#13;subjectivity,&#13;images,</comment>
						<color>
							<alpha>0</alpha>
							<red>255</red>
							<green>0</green>
							<blue>0</blue>
						</color>
						<in>5365</in>
						<out>5951</out>
					</marker>
					<marker>
						<name>reach your visual cortex</name>
						<comment>sensation,&#13;physicality,&#13;perception,&#13;visual cortex,&#13;Josh Nimoy,&#13;synesthesia,&#13;music,&#13;techno,&#13;subliminal,&#13;Link:JTNimoy - cortex2&#13;</comment>
						<color>
							<alpha>0</alpha>
							<red>255</red>
							<green>0</green>
							<blue>0</blue>
						</color>
						<in>5997</in>
						<out>6903</out>
					</marker>
					<marker>
						<name>Marker 2</name>
						<comment>Do you believe in a universal aesthetic trancending culture, a universal sublime?,&#13;beauty,&#13;</comment>
						<color>
							<alpha>0</alpha>
							<red>255</red>
							<green>0</green>
							<blue>0</blue>
						</color>
						<in>7346</in>
						<out>-1</out>
					</marker>
					<marker>
						<name>Aesthetic with no references,</name>
						<comment>machine aesthetics,&#13;artificiality,&#13;new aesthetic,&#13;digital, antihuman&#13;</comment>
						<color>
							<alpha>0</alpha>
							<red>255</red>
							<green>0</green>
							<blue>0</blue>
						</color>
						<in>8596</in>
						<out>9671</out>
					</marker>
					<marker>
						<name>Machines change the way we see</name>
						<comment>Are the technological and human opposite?&#13;new aesthetic,&#13;perception,&#13;artificiality, &#13;machine aesthetics,&#13;man vs machine,&#13;coevolution,&#13;symbiosis,&#13;link:Julian - Shapes the way we think,&#13;link:Maeda - technology is made by people</comment>
						<color>
							<alpha>0</alpha>
							<red>255</red>
							<green>0</green>
							<blue>0</blue>
						</color>
						<in>10044</in>
						<out>11238</out>
					</marker>
					<marker>
						<name>New Aesthetic</name>
						<comment>new aesthetic,&#13;visual culture,&#13;</comment>
						<color>
							<alpha>0</alpha>
							<red>255</red>
							<green>0</green>
							<blue>0</blue>
						</color>
						<in>12165</in>
						<out>13102</out>
					</marker>
					<marker>
						<name>Living in a state of newness since age 10</name>
						<comment>Is it a problem that we fetishize newness?,&#13;New,&#13;gadget,&#13;critique,&#13;living in the future,&#13;technological progress,</comment>
						<color>
							<alpha>0</alpha>
							<red>255</red>
							<green>0</green>
							<blue>0</blue>
						</color>
						<in>13431</in>
						<out>14674</out>
					</marker>
					<marker>
						<name>Thoroughly enjoying it at the moment</name>
						<comment>digital fabrication,&#13;newness,&#13;toys,&#13;timeless digital now,&#13;technological progress,&#13;techpositive,&#13;technoptimism,</comment>
						<color>
							<alpha>0</alpha>
							<red>255</red>
							<green>0</green>
							<blue>0</blue>
						</color>
						<in>14887</in>
						<out>15737</out>
					</marker>
					<marker>
						<name>Marker 3</name>
						<comment>digital into physical,&#13;3D printing,</comment>
						<color>
							<alpha>0</alpha>
							<red>255</red>
							<green>0</green>
							<blue>0</blue>
						</color>
						<in>16151</in>
						<out>16817</out>
					</marker>
					<filter>
						<effect>
							<name>Basic Motion</name>
							<effectid>basic</effectid>
							<effectcategory>motion</effectcategory>
							<effecttype>motion</effecttype>
							<mediatype>video</mediatype>
							<parameter>
								<parameterid>center</parameterid>
								<name>Center</name>
								<value>
									<horiz>0</horiz>
									<vert>-0.000925926</vert>
								</value>
							</parameter>
						</effect>
					</filter>
					<sourcetrack>
						<mediatype>video</mediatype>
					</sourcetrack>
					<link>
						<linkclipref>MVI_0984 8</linkclipref>
						<mediatype>video</mediatype>
						<trackindex>1</trackindex>
						<clipindex>4</clipindex>
					</link>
					<link>
						<linkclipref>MVI_0984 9</linkclipref>
						<mediatype>audio</mediatype>
						<trackindex>1</trackindex>
						<clipindex>4</clipindex>
						<groupindex>1</groupindex>
					</link>
					<link>
						<linkclipref>MVI_0984 10</linkclipref>
						<mediatype>audio</mediatype>
						<trackindex>2</trackindex>
						<clipindex>4</clipindex>
						<groupindex>1</groupindex>
					</link>
					<fielddominance>none</fielddominance>
					<itemhistory>
						<uuid>6C779F14-38BE-4268-9A00-7B84EB5A3DCD</uuid>
						<uuid>7B9A3827-E0E0-4E04-879A-434B61345D5A</uuid>
					</itemhistory>
				</clipitem>
				<clipitem id="MVI_0986 ">
					<name>MVI_0986</name>
					<duration>14419</duration>
					<rate>
						<ntsc>TRUE</ntsc>
						<timebase>24</timebase>
					</rate>
					<in>0</in>
					<out>14419</out>
					<start>25845</start>
					<end>40264</end>
					<pixelaspectratio>Square</pixelaspectratio>
					<anamorphic>FALSE</anamorphic>
					<alphatype>none</alphatype>
					<masterclipid>MVI_0986 1</masterclipid>
					<logginginfo>
						<scene/>
						<shottake/>
						<lognote/>
						<good>FALSE</good>
					</logginginfo>
					<labels>
						<label2/>
					</labels>
					<comments>
						<mastercomment1/>
						<mastercomment2/>
						<mastercomment3/>
						<mastercomment4/>
					</comments>
					<file id="MVI_0986 2">
						<name>MVI_0986.mov</name>
						<pathurl>file://localhost/Volumes/Nebula/MediaPackages/EyeoMediaBin/Marius04/color/MVI_0986.mov</pathurl>
						<rate>
							<timebase>24</timebase>
							<ntsc>TRUE</ntsc>
						</rate>
						<duration>14419</duration>
						<media>
							<video>
								<duration>14419</duration>
								<samplecharacteristics>
									<width>1920</width>
									<height>1080</height>
								</samplecharacteristics>
							</video>
							<audio>
								<samplecharacteristics>
									<samplerate>48000</samplerate>
									<depth>16</depth>
								</samplecharacteristics>
								<channelcount>2</channelcount>
							</audio>
						</media>
					</file>
					<marker>
						<name>cross discplines</name>
						<comment>disciplines,&#13;dialogue,&#13;subcultures,&#13;tribes,&#13;boundaries,&#13;credence,&#13;definition,&#13;classification,</comment>
						<color>
							<alpha>0</alpha>
							<red>255</red>
							<green>0</green>
							<blue>0</blue>
						</color>
						<in>1179</in>
						<out>1598</out>
					</marker>
					<marker>
						<name>I hate the word nerd</name>
						<comment>Nerd,&#13;tribe,&#13;counterculture,&#13;subcutures,&#13;hacker,&#13;esoteric,&#13;criticality,</comment>
						<color>
							<alpha>0</alpha>
							<red>255</red>
							<green>0</green>
							<blue>0</blue>
						</color>
						<in>3693</in>
						<out>4089</out>
					</marker>
					<marker>
						<name>Stylistic darwinism</name>
						<comment>aesthetics,&#13;evolution,&#13;progress,</comment>
						<color>
							<alpha>0</alpha>
							<red>255</red>
							<green>0</green>
							<blue>0</blue>
						</color>
						<in>6405</in>
						<out>6677</out>
					</marker>
					<marker>
						<name>my work exists in a utopian space,</name>
						<comment>virtual,&#13;utopia,&#13;abstraction,&#13;form,&#13;imaginary,&#13;multiverse,</comment>
						<color>
							<alpha>0</alpha>
							<red>255</red>
							<green>0</green>
							<blue>0</blue>
						</color>
						<in>8923</in>
						<out>9672</out>
					</marker>
					<marker>
						<name>if it's not interesting I abandon it,</name>
						<comment>evolution,&#13;interesting,&#13;process,&#13;creation,&#13;birth</comment>
						<color>
							<alpha>0</alpha>
							<red>255</red>
							<green>0</green>
							<blue>0</blue>
						</color>
						<in>9738</in>
						<out>9812</out>
					</marker>
					<marker>
						<name>Marker 6</name>
						<comment>cyborg,&#13;cyberpunk,&#13;gadgets,&#13;perception,&#13;man vs machine,&#13;science fiction,&#13;progress,</comment>
						<color>
							<alpha>0</alpha>
							<red>255</red>
							<green>0</green>
							<blue>0</blue>
						</color>
						<in>10730</in>
						<out>11287</out>
					</marker>
					<marker>
						<name>We've embraced Dystopia</name>
						<comment>utopia,&#13;dystopia,&#13;science fiction,&#13;cyberpunk,&#13;google,&#13;internet culture,&#13;digital culture,&#13;economics,</comment>
						<color>
							<alpha>0</alpha>
							<red>255</red>
							<green>0</green>
							<blue>0</blue>
						</color>
						<in>11287</in>
						<out>11970</out>
					</marker>
					<marker>
						<name>Predicting the internet</name>
						<comment>speculation,&#13;internet,&#13;futurism,&#13;technological progress,&#13;history,</comment>
						<color>
							<alpha>0</alpha>
							<red>255</red>
							<green>0</green>
							<blue>0</blue>
						</color>
						<in>13060</in>
						<out>13654</out>
					</marker>
					<sourcetrack>
						<mediatype>video</mediatype>
					</sourcetrack>
					<link>
						<linkclipref>MVI_0986 </linkclipref>
						<mediatype>video</mediatype>
						<trackindex>1</trackindex>
						<clipindex>5</clipindex>
					</link>
					<link>
						<linkclipref>MVI_0986 3</linkclipref>
						<mediatype>audio</mediatype>
						<trackindex>1</trackindex>
						<clipindex>5</clipindex>
						<groupindex>1</groupindex>
					</link>
					<link>
						<linkclipref>MVI_0986 4</linkclipref>
						<mediatype>audio</mediatype>
						<trackindex>2</trackindex>
						<clipindex>5</clipindex>
						<groupindex>1</groupindex>
					</link>
					<fielddominance>none</fielddominance>
					<itemhistory>
						<uuid>7CE40AF2-0A25-4C7E-8BF8-D67994FA825E</uuid>
					</itemhistory>
				</clipitem>
				<clipitem id="MVI_0987 ">
					<name>MVI_0987</name>
					<duration>5126</duration>
					<rate>
						<ntsc>TRUE</ntsc>
						<timebase>24</timebase>
					</rate>
					<in>0</in>
					<out>5126</out>
					<start>40264</start>
					<end>45390</end>
					<pixelaspectratio>Square</pixelaspectratio>
					<enabled>TRUE</enabled>
					<anamorphic>FALSE</anamorphic>
					<alphatype>none</alphatype>
					<masterclipid>MVI_0987 1</masterclipid>
					<logginginfo>
						<scene/>
						<shottake/>
						<lognote/>
						<good>FALSE</good>
					</logginginfo>
					<labels>
						<label2/>
					</labels>
					<comments>
						<mastercomment1/>
						<mastercomment2/>
						<mastercomment3/>
						<mastercomment4/>
					</comments>
					<file id="MVI_0987 2">
						<name>MVI_0987.mov</name>
						<pathurl>file://localhost/Volumes/Nebula/MediaPackages/EyeoMediaBin/Marius05/color/MVI_0987.mov</pathurl>
						<rate>
							<timebase>24</timebase>
							<ntsc>TRUE</ntsc>
						</rate>
						<duration>5126</duration>
						<media>
							<video>
								<duration>5126</duration>
								<samplecharacteristics>
									<width>1920</width>
									<height>1080</height>
								</samplecharacteristics>
							</video>
							<audio>
								<samplecharacteristics>
									<samplerate>48000</samplerate>
									<depth>16</depth>
								</samplecharacteristics>
								<channelcount>2</channelcount>
							</audio>
						</media>
					</file>
					<marker>
						<name>color 3D printing</name>
						<comment>3D printing,&#13;prediction,&#13;technological progress,&#13;hypothetical aesthetic technology,</comment>
						<color>
							<alpha>0</alpha>
							<red>255</red>
							<green>0</green>
							<blue>0</blue>
						</color>
						<in>447</in>
						<out>853</out>
					</marker>
					<marker>
						<name>3D printing</name>
						<comment>3D printing,&#13;digital meets physical,&#13;sculpture,</comment>
						<color>
							<alpha>0</alpha>
							<red>255</red>
							<green>0</green>
							<blue>0</blue>
						</color>
						<in>1864</in>
						<out>2655</out>
					</marker>
					<marker>
						<name>Becoming mid-career</name>
						<comment>veterans,&#13;generations,&#13;teachers and mentors,&#13;shifts,&#13;newness,</comment>
						<color>
							<alpha>0</alpha>
							<red>255</red>
							<green>0</green>
							<blue>0</blue>
						</color>
						<in>3418</in>
						<out>4619</out>
					</marker>
					<sourcetrack>
						<mediatype>video</mediatype>
					</sourcetrack>
					<link>
						<linkclipref>MVI_0987 </linkclipref>
						<mediatype>video</mediatype>
						<trackindex>1</trackindex>
						<clipindex>6</clipindex>
					</link>
					<link>
						<linkclipref>MVI_0987 3</linkclipref>
						<mediatype>audio</mediatype>
						<trackindex>1</trackindex>
						<clipindex>6</clipindex>
						<groupindex>1</groupindex>
					</link>
					<link>
						<linkclipref>MVI_0987 4</linkclipref>
						<mediatype>audio</mediatype>
						<trackindex>2</trackindex>
						<clipindex>6</clipindex>
						<groupindex>1</groupindex>
					</link>
					<fielddominance>none</fielddominance>
					<itemhistory>
						<uuid>8CB2AFA6-9456-4C66-B248-CDC87C1D6506</uuid>
					</itemhistory>
				</clipitem>
				<enabled>TRUE</enabled>
				<locked>FALSE</locked>
			</track>
			<track>
				<clipitem id="MVI_0983 5">
					<name>MVI_0983</name>
					<duration>8637</duration>
					<rate>
						<ntsc>TRUE</ntsc>
						<timebase>24</timebase>
					</rate>
					<in>0</in>
					<out>8637</out>
					<start>0</start>
					<end>8637</end>
					<pixelaspectratio>Square</pixelaspectratio>
					<enabled>TRUE</enabled>
					<anamorphic>FALSE</anamorphic>
					<alphatype>none</alphatype>
					<masterclipid>MVI_0983 1</masterclipid>
					<logginginfo>
						<scene/>
						<shottake/>
						<lognote/>
						<good>FALSE</good>
					</logginginfo>
					<labels>
						<label2/>
					</labels>
					<comments>
						<mastercomment1/>
						<mastercomment2/>
						<mastercomment3/>
						<mastercomment4/>
					</comments>
					<file id="MVI_0983 2"/>
					<marker>
						<name>parameter space</name>
						<comment>How do you shape randomness?,&#13;surprise,&#13;serendipity,&#13;parameter space,&#13;possibility,&#13;randomness,&#13;generative,&#13;Link: Jesse "understanding to control 4"&#13;</comment>
						<color>
							<alpha>0</alpha>
							<red>255</red>
							<green>0</green>
							<blue>0</blue>
						</color>
						<in>3019</in>
						<out>3285</out>
					</marker>
					<sourcetrack>
						<mediatype>video</mediatype>
					</sourcetrack>
					<fielddominance>none</fielddominance>
					<itemhistory>
						<uuid>F98033D3-A695-4845-B994-C841B9C7918A</uuid>
					</itemhistory>
				</clipitem>
				<clipitem id="MVI_0984 11">
					<name>MVI_0984</name>
					<duration>17208</duration>
					<rate>
						<ntsc>TRUE</ntsc>
						<timebase>24</timebase>
					</rate>
					<in>0</in>
					<out>4701</out>
					<start>8637</start>
					<end>13338</end>
					<pixelaspectratio>Square</pixelaspectratio>
					<enabled>TRUE</enabled>
					<anamorphic>FALSE</anamorphic>
					<alphatype>none</alphatype>
					<masterclipid>MVI_0984 1</masterclipid>
					<logginginfo>
						<scene/>
						<shottake/>
						<lognote/>
						<good>FALSE</good>
					</logginginfo>
					<labels>
						<label2/>
					</labels>
					<comments>
						<mastercomment1/>
						<mastercomment2/>
						<mastercomment3/>
						<mastercomment4/>
					</comments>
					<file id="MVI_0984 2"/>
					<marker>
						<name>Marker 1</name>
						<comment/>
						<color>
							<alpha>0</alpha>
							<red>255</red>
							<green>0</green>
							<blue>0</blue>
						</color>
						<in>208</in>
						<out>-1</out>
					</marker>
					<marker>
						<name>keeping the door open</name>
						<comment>exploration,&#13;discovery,&#13;surprise,&#13;possibility,</comment>
						<color>
							<alpha>0</alpha>
							<red>255</red>
							<green>0</green>
							<blue>0</blue>
						</color>
						<in>2004</in>
						<out>2299</out>
					</marker>
					<marker>
						<name>Marker 3</name>
						<comment>Could an advanced artificial intelligence system develop "creativity"?&#13;evolution,&#13;artificial life,&#13;collaboration with machines,&#13;co-discovery,&#13;AI,&#13;machine aesthetics,&#13;new aesthetic,</comment>
						<color>
							<alpha>0</alpha>
							<red>255</red>
							<green>0</green>
							<blue>0</blue>
						</color>
						<in>2667</in>
						<out>-1</out>
					</marker>
					<marker>
						<name>artificial life</name>
						<comment/>
						<color>
							<alpha>0</alpha>
							<red>255</red>
							<green>0</green>
							<blue>0</blue>
						</color>
						<in>2671</in>
						<out>3536</out>
					</marker>
					<marker>
						<name>new tools change perception</name>
						<comment>perception,&#13;artificiality, &#13;machine aesthetics,&#13;new aesthetic,&#13;man vs machine,&#13;link:Julian - Shapes the way we think,&#13;</comment>
						<color>
							<alpha>0</alpha>
							<red>255</red>
							<green>0</green>
							<blue>0</blue>
						</color>
						<in>10724</in>
						<out>11238</out>
					</marker>
					<sourcetrack>
						<mediatype>video</mediatype>
					</sourcetrack>
					<fielddominance>none</fielddominance>
					<itemhistory>
						<uuid>1C9BE974-5257-4BDB-BECE-FEE22797FFE5</uuid>
						<uuid>E1F455D7-64AC-4677-8479-F08BC3FDC776</uuid>
					</itemhistory>
				</clipitem>
				<clipitem id="MVI_0984 12">
					<name>MVI_0984</name>
					<duration>17208</duration>
					<rate>
						<ntsc>TRUE</ntsc>
						<timebase>24</timebase>
					</rate>
					<in>4701</in>
					<out>5952</out>
					<start>13338</start>
					<end>14589</end>
					<pixelaspectratio>Square</pixelaspectratio>
					<enabled>TRUE</enabled>
					<anamorphic>FALSE</anamorphic>
					<alphatype>none</alphatype>
					<masterclipid>MVI_0984 1</masterclipid>
					<logginginfo>
						<scene/>
						<shottake/>
						<lognote/>
						<good>FALSE</good>
					</logginginfo>
					<labels>
						<label2/>
					</labels>
					<comments>
						<mastercomment1/>
						<mastercomment2/>
						<mastercomment3/>
						<mastercomment4/>
					</comments>
					<file id="MVI_0984 2"/>
					<marker>
						<name>Marker 1</name>
						<comment/>
						<color>
							<alpha>0</alpha>
							<red>255</red>
							<green>0</green>
							<blue>0</blue>
						</color>
						<in>208</in>
						<out>-1</out>
					</marker>
					<marker>
						<name>keeping the door open</name>
						<comment>exploration,&#13;discovery,&#13;surprise,&#13;possibility,</comment>
						<color>
							<alpha>0</alpha>
							<red>255</red>
							<green>0</green>
							<blue>0</blue>
						</color>
						<in>2004</in>
						<out>2299</out>
					</marker>
					<marker>
						<name>Marker 3</name>
						<comment>Could an advanced artificial intelligence system develop "creativity"?&#13;evolution,&#13;artificial life,&#13;collaboration with machines,&#13;co-discovery,&#13;AI,&#13;machine aesthetics,&#13;new aesthetic,</comment>
						<color>
							<alpha>0</alpha>
							<red>255</red>
							<green>0</green>
							<blue>0</blue>
						</color>
						<in>2667</in>
						<out>-1</out>
					</marker>
					<marker>
						<name>artificial life</name>
						<comment/>
						<color>
							<alpha>0</alpha>
							<red>255</red>
							<green>0</green>
							<blue>0</blue>
						</color>
						<in>2671</in>
						<out>3536</out>
					</marker>
					<marker>
						<name>new tools change perception</name>
						<comment>perception,&#13;artificiality, &#13;machine aesthetics,&#13;new aesthetic,&#13;man vs machine,&#13;link:Julian - Shapes the way we think,&#13;</comment>
						<color>
							<alpha>0</alpha>
							<red>255</red>
							<green>0</green>
							<blue>0</blue>
						</color>
						<in>10724</in>
						<out>11238</out>
					</marker>
					<sourcetrack>
						<mediatype>video</mediatype>
					</sourcetrack>
					<fielddominance>none</fielddominance>
					<itemhistory>
						<uuid>46BBD473-C1C4-4C88-AFCA-02D3551EF410</uuid>
						<uuid>E1F455D7-64AC-4677-8479-F08BC3FDC776</uuid>
					</itemhistory>
				</clipitem>
				<clipitem id="MVI_0984 13">
					<name>MVI_0984</name>
					<duration>17208</duration>
					<rate>
						<ntsc>TRUE</ntsc>
						<timebase>24</timebase>
					</rate>
					<in>5952</in>
					<out>17208</out>
					<start>14589</start>
					<end>25845</end>
					<pixelaspectratio>Square</pixelaspectratio>
					<enabled>TRUE</enabled>
					<anamorphic>FALSE</anamorphic>
					<alphatype>none</alphatype>
					<masterclipid>MVI_0984 1</masterclipid>
					<logginginfo>
						<scene/>
						<shottake/>
						<lognote/>
						<good>FALSE</good>
					</logginginfo>
					<labels>
						<label2/>
					</labels>
					<comments>
						<mastercomment1/>
						<mastercomment2/>
						<mastercomment3/>
						<mastercomment4/>
					</comments>
					<file id="MVI_0984 2"/>
					<marker>
						<name>Marker 1</name>
						<comment/>
						<color>
							<alpha>0</alpha>
							<red>255</red>
							<green>0</green>
							<blue>0</blue>
						</color>
						<in>208</in>
						<out>-1</out>
					</marker>
					<marker>
						<name>keeping the door open</name>
						<comment>exploration,&#13;discovery,&#13;surprise,&#13;possibility,</comment>
						<color>
							<alpha>0</alpha>
							<red>255</red>
							<green>0</green>
							<blue>0</blue>
						</color>
						<in>2004</in>
						<out>2299</out>
					</marker>
					<marker>
						<name>Marker 3</name>
						<comment>Could an advanced artificial intelligence system develop "creativity"?&#13;evolution,&#13;artificial life,&#13;collaboration with machines,&#13;co-discovery,&#13;AI,&#13;machine aesthetics,&#13;new aesthetic,</comment>
						<color>
							<alpha>0</alpha>
							<red>255</red>
							<green>0</green>
							<blue>0</blue>
						</color>
						<in>2667</in>
						<out>-1</out>
					</marker>
					<marker>
						<name>artificial life</name>
						<comment/>
						<color>
							<alpha>0</alpha>
							<red>255</red>
							<green>0</green>
							<blue>0</blue>
						</color>
						<in>2671</in>
						<out>3536</out>
					</marker>
					<marker>
						<name>new tools change perception</name>
						<comment>perception,&#13;artificiality, &#13;machine aesthetics,&#13;new aesthetic,&#13;man vs machine,&#13;link:Julian - Shapes the way we think,&#13;</comment>
						<color>
							<alpha>0</alpha>
							<red>255</red>
							<green>0</green>
							<blue>0</blue>
						</color>
						<in>10724</in>
						<out>11238</out>
					</marker>
					<sourcetrack>
						<mediatype>video</mediatype>
					</sourcetrack>
					<fielddominance>none</fielddominance>
					<itemhistory>
						<uuid>060E2915-07A1-4789-81D8-7AD07856694B</uuid>
						<uuid>E1F455D7-64AC-4677-8479-F08BC3FDC776</uuid>
					</itemhistory>
				</clipitem>
				<clipitem id="MVI_0986 5">
					<name>MVI_0986</name>
					<duration>14419</duration>
					<rate>
						<ntsc>TRUE</ntsc>
						<timebase>24</timebase>
					</rate>
					<in>0</in>
					<out>14419</out>
					<start>25845</start>
					<end>40264</end>
					<pixelaspectratio>Square</pixelaspectratio>
					<enabled>TRUE</enabled>
					<anamorphic>FALSE</anamorphic>
					<alphatype>none</alphatype>
					<masterclipid>MVI_0986 1</masterclipid>
					<logginginfo>
						<scene/>
						<shottake/>
						<lognote/>
						<good>FALSE</good>
					</logginginfo>
					<labels>
						<label2/>
					</labels>
					<comments>
						<mastercomment1/>
						<mastercomment2/>
						<mastercomment3/>
						<mastercomment4/>
					</comments>
					<file id="MVI_0986 2"/>
					<sourcetrack>
						<mediatype>video</mediatype>
					</sourcetrack>
					<fielddominance>none</fielddominance>
					<itemhistory>
						<uuid>3C9E57A8-82C7-4958-8EE5-021B8A680E9A</uuid>
					</itemhistory>
				</clipitem>
				<clipitem id="MVI_0987 5">
					<name>MVI_0987</name>
					<duration>5126</duration>
					<rate>
						<ntsc>TRUE</ntsc>
						<timebase>24</timebase>
					</rate>
					<in>0</in>
					<out>5126</out>
					<start>40264</start>
					<end>45390</end>
					<pixelaspectratio>Square</pixelaspectratio>
					<enabled>TRUE</enabled>
					<anamorphic>FALSE</anamorphic>
					<alphatype>none</alphatype>
					<masterclipid>MVI_0987 1</masterclipid>
					<logginginfo>
						<scene/>
						<shottake/>
						<lognote/>
						<good>FALSE</good>
					</logginginfo>
					<labels>
						<label2/>
					</labels>
					<comments>
						<mastercomment1/>
						<mastercomment2/>
						<mastercomment3/>
						<mastercomment4/>
					</comments>
					<file id="MVI_0987 2"/>
					<sourcetrack>
						<mediatype>video</mediatype>
					</sourcetrack>
					<fielddominance>none</fielddominance>
					<itemhistory>
						<uuid>9170BDDE-D33B-4AF3-B418-52C12F96E581</uuid>
					</itemhistory>
				</clipitem>
				<enabled>TRUE</enabled>
				<locked>FALSE</locked>
			</track>
		</video>
		<audio>
			<format>
				<samplecharacteristics>
					<depth>16</depth>
					<samplerate>48000</samplerate>
				</samplecharacteristics>
			</format>
			<outputs>
				<group>
					<index>1</index>
					<numchannels>2</numchannels>
					<downmix>0</downmix>
					<channel>
						<index>1</index>
					</channel>
					<channel>
						<index>2</index>
					</channel>
				</group>
			</outputs>
			<in>7144</in>
			<out>7932</out>
			<track>
				<clipitem id="MVI_0983 3">
					<name>MVI_0983</name>
					<duration>8637</duration>
					<rate>
						<ntsc>TRUE</ntsc>
						<timebase>24</timebase>
					</rate>
					<in>0</in>
					<out>8637</out>
					<start>0</start>
					<end>8637</end>
					<masterclipid>MVI_0983 1</masterclipid>
					<logginginfo>
						<scene/>
						<shottake/>
						<lognote/>
						<good>FALSE</good>
					</logginginfo>
					<labels>
						<label2/>
					</labels>
					<comments>
						<mastercomment1/>
						<mastercomment2/>
						<mastercomment3/>
						<mastercomment4/>
					</comments>
					<file id="MVI_0983 2"/>
					<marker>
						<name>Do you work with randomness?</name>
						<comment/>
						<color>
							<alpha>0</alpha>
							<red>255</red>
							<green>127</green>
							<blue>0</blue>
						</color>
						<in>1496</in>
						<out>-1</out>
					</marker>
					<marker>
						<name>algorithms as a parameter space</name>
						<comment>How do you shape randomness?,&#13;surprise,&#13;serendipity,&#13;parameter space,&#13;possibility,&#13;randomness,&#13;generative,&#13;</comment>
						<color>
							<alpha>0</alpha>
							<red>255</red>
							<green>127</green>
							<blue>0</blue>
						</color>
						<in>2261</in>
						<out>3285</out>
					</marker>
					<marker>
						<name/>
						<comment>in a sense are you running through an evolutionary process?, </comment>
						<color>
							<alpha>0</alpha>
							<red>255</red>
							<green>0</green>
							<blue>0</blue>
						</color>
						<in>3391</in>
						<out>-1</out>
					</marker>
					<marker>
						<name>dropped out of computer science</name>
						<comment>how did you get into working with code?,&#13;beginning,&#13;graphic design,&#13;art world,&#13;</comment>
						<color>
							<alpha>0</alpha>
							<red>255</red>
							<green>0</green>
							<blue>0</blue>
						</color>
						<in>3939</in>
						<out>4607</out>
					</marker>
					<marker>
						<name>these things are in my head</name>
						<comment>why are you attracted to abstraction?&#13;abstraction,&#13;self expression,&#13;subjectivity,&#13;mind,&#13;identity,&#13;why?,&#13;process,&#13;creativity,&#13;Link:JTNimoy - Dream</comment>
						<color>
							<alpha>0</alpha>
							<red>255</red>
							<green>0</green>
							<blue>0</blue>
						</color>
						<in>4909</in>
						<out>5405</out>
					</marker>
					<marker>
						<name>Continuous process of exploration</name>
						<comment>how does the work feed into itself?,&#13;exploration,&#13;iterative,&#13;generative art,&#13;feedback loops,&#13;intuition,&#13;creativity,&#13;form,&#13;design&#13;</comment>
						<color>
							<alpha>0</alpha>
							<red>255</red>
							<green>0</green>
							<blue>0</blue>
						</color>
						<in>5627</in>
						<out>6080</out>
					</marker>
					<marker>
						<name>jumping from medium to medium</name>
						<comment>multimedia,&#13;digital fabrication,&#13;process</comment>
						<color>
							<alpha>0</alpha>
							<red>255</red>
							<green>0</green>
							<blue>0</blue>
						</color>
						<in>6080</in>
						<out>6465</out>
					</marker>
					<marker>
						<name>gardening</name>
						<comment>how do you choose what to display, working iteratively generatively in a process that can go on forever?,&#13;emergence,&#13;control,&#13;gardening,&#13;generative process,&#13;form,&#13;choosing,&#13;randomness,</comment>
						<color>
							<alpha>0</alpha>
							<red>255</red>
							<green>0</green>
							<blue>0</blue>
						</color>
						<in>7148</in>
						<out>7933</out>
					</marker>
					<marker>
						<name>It's dirtier than that</name>
						<comment>gardening,&#13;foraging, &#13;beauty</comment>
						<color>
							<alpha>0</alpha>
							<red>255</red>
							<green>0</green>
							<blue>0</blue>
						</color>
						<in>8182</in>
						<out>8361</out>
					</marker>
					<filter>
						<effect>
							<name>Audio Levels</name>
							<effectid>audiolevels</effectid>
							<effectcategory>audiolevels</effectcategory>
							<effecttype>audiolevels</effecttype>
							<mediatype>audio</mediatype>
							<parameter>
								<name>Level</name>
								<parameterid>level</parameterid>
								<valuemin>0</valuemin>
								<valuemax>3.98109</valuemax>
								<value>1</value>
							</parameter>
						</effect>
					</filter>
					<filter>
						<effect>
							<name>Audio Pan</name>
							<effectid>audiopan</effectid>
							<effectcategory>audiopan</effectcategory>
							<effecttype>audiopan</effecttype>
							<mediatype>audio</mediatype>
							<parameter>
								<name>Pan</name>
								<parameterid>pan</parameterid>
								<valuemin>-1</valuemin>
								<valuemax>1</valuemax>
								<value>-1</value>
							</parameter>
						</effect>
					</filter>
					<sourcetrack>
						<mediatype>audio</mediatype>
						<trackindex>1</trackindex>
					</sourcetrack>
					<link>
						<linkclipref>MVI_0983 </linkclipref>
						<mediatype>video</mediatype>
						<trackindex>1</trackindex>
						<clipindex>1</clipindex>
					</link>
					<link>
						<linkclipref>MVI_0983 3</linkclipref>
						<mediatype>audio</mediatype>
						<trackindex>1</trackindex>
						<clipindex>1</clipindex>
						<groupindex>1</groupindex>
					</link>
					<link>
						<linkclipref>MVI_0983 4</linkclipref>
						<mediatype>audio</mediatype>
						<trackindex>2</trackindex>
						<clipindex>1</clipindex>
						<groupindex>1</groupindex>
					</link>
					<itemhistory>
						<uuid>5BB29727-15DD-4FAD-801A-89ACDBD4D3A3</uuid>
					</itemhistory>
				</clipitem>
				<clipitem id="MVI_0984 3">
					<name>MVI_0984</name>
					<duration>17208</duration>
					<rate>
						<ntsc>TRUE</ntsc>
						<timebase>24</timebase>
					</rate>
					<in>0</in>
					<out>4701</out>
					<start>8637</start>
					<end>13338</end>
					<enabled>TRUE</enabled>
					<masterclipid>MVI_0984 1</masterclipid>
					<logginginfo>
						<scene/>
						<shottake/>
						<lognote/>
						<good>FALSE</good>
					</logginginfo>
					<labels>
						<label2/>
					</labels>
					<comments>
						<mastercomment1/>
						<mastercomment2/>
						<mastercomment3/>
						<mastercomment4/>
					</comments>
					<file id="MVI_0984 2"/>
					<marker>
						<name>constraining randomness</name>
						<comment>how do you see the generative process?,&#13;control,&#13;discovery,&#13;collaboration with machines,&#13;algorithm,&#13;authorship,&#13;generative art,&#13;process,&#13;harvesting</comment>
						<color>
							<alpha>0</alpha>
							<red>255</red>
							<green>0</green>
							<blue>0</blue>
						</color>
						<in>208</in>
						<out>1469</out>
					</marker>
					<marker>
						<name>code can be messy</name>
						<comment>serendipity,&#13;experimentation,&#13;elegance,&#13;complexity,&#13;link: Maeda - inexactitude,</comment>
						<color>
							<alpha>0</alpha>
							<red>255</red>
							<green>0</green>
							<blue>0</blue>
						</color>
						<in>1652</in>
						<out>1841</out>
					</marker>
					<marker>
						<name>Techno-rococo</name>
						<comment>Beauty,&#13;critique,&#13;visual exhuberance,</comment>
						<color>
							<alpha>0</alpha>
							<red>255</red>
							<green>0</green>
							<blue>0</blue>
						</color>
						<in>4464</in>
						<out>4680</out>
					</marker>
					<marker>
						<name>the idea of beauty</name>
						<comment>beauty,&#13;art vs design,&#13;</comment>
						<color>
							<alpha>0</alpha>
							<red>255</red>
							<green>0</green>
							<blue>0</blue>
						</color>
						<in>4694</in>
						<out>-1</out>
					</marker>
					<marker>
						<name>Art world gave up on beauty</name>
						<comment>Beauty,&#13;form,&#13;</comment>
						<color>
							<alpha>0</alpha>
							<red>255</red>
							<green>0</green>
							<blue>0</blue>
						</color>
						<in>4699</in>
						<out>5142</out>
					</marker>
					<marker>
						<name>aesthetic experience</name>
						<comment>What is beautiful?&#13;aesthetics,&#13;beauty,&#13;pleasure,&#13;eye of the beholder,&#13;subjectivity,&#13;images,</comment>
						<color>
							<alpha>0</alpha>
							<red>255</red>
							<green>0</green>
							<blue>0</blue>
						</color>
						<in>5365</in>
						<out>5951</out>
					</marker>
					<marker>
						<name>reach your visual cortex</name>
						<comment>sensation,&#13;physicality,&#13;perception,&#13;visual cortex,&#13;Josh Nimoy,&#13;synesthesia,&#13;music,&#13;techno,&#13;subliminal,&#13;Link:JTNimoy - cortex2&#13;</comment>
						<color>
							<alpha>0</alpha>
							<red>255</red>
							<green>0</green>
							<blue>0</blue>
						</color>
						<in>5997</in>
						<out>6903</out>
					</marker>
					<marker>
						<name>Marker 2</name>
						<comment>Do you believe in a universal aesthetic trancending culture, a universal sublime?,&#13;beauty,&#13;</comment>
						<color>
							<alpha>0</alpha>
							<red>255</red>
							<green>0</green>
							<blue>0</blue>
						</color>
						<in>7346</in>
						<out>-1</out>
					</marker>
					<marker>
						<name>Aesthetic with no references,</name>
						<comment>machine aesthetics,&#13;artificiality,&#13;new aesthetic,&#13;digital, antihuman&#13;</comment>
						<color>
							<alpha>0</alpha>
							<red>255</red>
							<green>0</green>
							<blue>0</blue>
						</color>
						<in>8596</in>
						<out>9671</out>
					</marker>
					<marker>
						<name>Machines change the way we see</name>
						<comment>Are the technological and human opposite?&#13;new aesthetic,&#13;perception,&#13;artificiality, &#13;machine aesthetics,&#13;man vs machine,&#13;coevolution,&#13;symbiosis,&#13;link:Julian - Shapes the way we think,&#13;link:Maeda - technology is made by people</comment>
						<color>
							<alpha>0</alpha>
							<red>255</red>
							<green>0</green>
							<blue>0</blue>
						</color>
						<in>10044</in>
						<out>11238</out>
					</marker>
					<marker>
						<name>New Aesthetic</name>
						<comment>new aesthetic,&#13;visual culture,&#13;</comment>
						<color>
							<alpha>0</alpha>
							<red>255</red>
							<green>0</green>
							<blue>0</blue>
						</color>
						<in>12165</in>
						<out>13102</out>
					</marker>
					<marker>
						<name>Living in a state of newness since age 10</name>
						<comment>Is it a problem that we fetishize newness?,&#13;New,&#13;gadget,&#13;critique,&#13;living in the future,&#13;technological progress,</comment>
						<color>
							<alpha>0</alpha>
							<red>255</red>
							<green>0</green>
							<blue>0</blue>
						</color>
						<in>13431</in>
						<out>14674</out>
					</marker>
					<marker>
						<name>Thoroughly enjoying it at the moment</name>
						<comment>digital fabrication,&#13;newness,&#13;toys,&#13;timeless digital now,&#13;technological progress,&#13;techpositive,&#13;technoptimism,</comment>
						<color>
							<alpha>0</alpha>
							<red>255</red>
							<green>0</green>
							<blue>0</blue>
						</color>
						<in>14887</in>
						<out>15737</out>
					</marker>
					<marker>
						<name>Marker 3</name>
						<comment>digital into physical,&#13;3D printing,</comment>
						<color>
							<alpha>0</alpha>
							<red>255</red>
							<green>0</green>
							<blue>0</blue>
						</color>
						<in>16151</in>
						<out>16817</out>
					</marker>
					<filter>
						<effect>
							<name>Audio Levels</name>
							<effectid>audiolevels</effectid>
							<effectcategory>audiolevels</effectcategory>
							<effecttype>audiolevels</effecttype>
							<mediatype>audio</mediatype>
							<parameter>
								<name>Level</name>
								<parameterid>level</parameterid>
								<valuemin>0</valuemin>
								<valuemax>3.98109</valuemax>
								<value>1</value>
							</parameter>
						</effect>
					</filter>
					<filter>
						<effect>
							<name>Audio Pan</name>
							<effectid>audiopan</effectid>
							<effectcategory>audiopan</effectcategory>
							<effecttype>audiopan</effecttype>
							<mediatype>audio</mediatype>
							<parameter>
								<name>Pan</name>
								<parameterid>pan</parameterid>
								<valuemin>-1</valuemin>
								<valuemax>1</valuemax>
								<value>-1</value>
							</parameter>
						</effect>
					</filter>
					<sourcetrack>
						<mediatype>audio</mediatype>
						<trackindex>1</trackindex>
					</sourcetrack>
					<link>
						<linkclipref>MVI_0984 </linkclipref>
						<mediatype>video</mediatype>
						<trackindex>1</trackindex>
						<clipindex>2</clipindex>
					</link>
					<link>
						<linkclipref>MVI_0984 3</linkclipref>
						<mediatype>audio</mediatype>
						<trackindex>1</trackindex>
						<clipindex>2</clipindex>
						<groupindex>1</groupindex>
					</link>
					<link>
						<linkclipref>MVI_0984 4</linkclipref>
						<mediatype>audio</mediatype>
						<trackindex>2</trackindex>
						<clipindex>2</clipindex>
						<groupindex>1</groupindex>
					</link>
					<itemhistory>
						<uuid>6C91EE3F-6B9E-4C49-95ED-E0BAF75598FE</uuid>
						<uuid>56AA10D4-FF2F-45FA-A193-0918197E4C09</uuid>
					</itemhistory>
				</clipitem>
				<clipitem id="MVI_0984 6">
					<name>MVI_0984</name>
					<duration>17208</duration>
					<rate>
						<ntsc>TRUE</ntsc>
						<timebase>24</timebase>
					</rate>
					<in>4701</in>
					<out>5952</out>
					<start>13338</start>
					<end>14589</end>
					<enabled>TRUE</enabled>
					<masterclipid>MVI_0984 1</masterclipid>
					<logginginfo>
						<scene/>
						<shottake/>
						<lognote/>
						<good>FALSE</good>
					</logginginfo>
					<labels>
						<label2/>
					</labels>
					<comments>
						<mastercomment1/>
						<mastercomment2/>
						<mastercomment3/>
						<mastercomment4/>
					</comments>
					<file id="MVI_0984 2"/>
					<marker>
						<name>constraining randomness</name>
						<comment>how do you see the generative process?,&#13;control,&#13;discovery,&#13;collaboration with machines,&#13;algorithm,&#13;authorship,&#13;generative art,&#13;process,&#13;harvesting</comment>
						<color>
							<alpha>0</alpha>
							<red>255</red>
							<green>0</green>
							<blue>0</blue>
						</color>
						<in>208</in>
						<out>1469</out>
					</marker>
					<marker>
						<name>code can be messy</name>
						<comment>serendipity,&#13;experimentation,&#13;elegance,&#13;complexity,&#13;link: Maeda - inexactitude,</comment>
						<color>
							<alpha>0</alpha>
							<red>255</red>
							<green>0</green>
							<blue>0</blue>
						</color>
						<in>1652</in>
						<out>1841</out>
					</marker>
					<marker>
						<name>Techno-rococo</name>
						<comment>Beauty,&#13;critique,&#13;visual exhuberance,</comment>
						<color>
							<alpha>0</alpha>
							<red>255</red>
							<green>0</green>
							<blue>0</blue>
						</color>
						<in>4464</in>
						<out>4680</out>
					</marker>
					<marker>
						<name>the idea of beauty</name>
						<comment>beauty,&#13;art vs design,&#13;</comment>
						<color>
							<alpha>0</alpha>
							<red>255</red>
							<green>0</green>
							<blue>0</blue>
						</color>
						<in>4694</in>
						<out>-1</out>
					</marker>
					<marker>
						<name>Art world gave up on beauty</name>
						<comment>Beauty,&#13;form,&#13;</comment>
						<color>
							<alpha>0</alpha>
							<red>255</red>
							<green>0</green>
							<blue>0</blue>
						</color>
						<in>4699</in>
						<out>5142</out>
					</marker>
					<marker>
						<name>aesthetic experience</name>
						<comment>What is beautiful?&#13;aesthetics,&#13;beauty,&#13;pleasure,&#13;eye of the beholder,&#13;subjectivity,&#13;images,</comment>
						<color>
							<alpha>0</alpha>
							<red>255</red>
							<green>0</green>
							<blue>0</blue>
						</color>
						<in>5365</in>
						<out>5951</out>
					</marker>
					<marker>
						<name>reach your visual cortex</name>
						<comment>sensation,&#13;physicality,&#13;perception,&#13;visual cortex,&#13;Josh Nimoy,&#13;synesthesia,&#13;music,&#13;techno,&#13;subliminal,&#13;Link:JTNimoy - cortex2&#13;</comment>
						<color>
							<alpha>0</alpha>
							<red>255</red>
							<green>0</green>
							<blue>0</blue>
						</color>
						<in>5997</in>
						<out>6903</out>
					</marker>
					<marker>
						<name>Marker 2</name>
						<comment>Do you believe in a universal aesthetic trancending culture, a universal sublime?,&#13;beauty,&#13;</comment>
						<color>
							<alpha>0</alpha>
							<red>255</red>
							<green>0</green>
							<blue>0</blue>
						</color>
						<in>7346</in>
						<out>-1</out>
					</marker>
					<marker>
						<name>Aesthetic with no references,</name>
						<comment>machine aesthetics,&#13;artificiality,&#13;new aesthetic,&#13;digital, antihuman&#13;</comment>
						<color>
							<alpha>0</alpha>
							<red>255</red>
							<green>0</green>
							<blue>0</blue>
						</color>
						<in>8596</in>
						<out>9671</out>
					</marker>
					<marker>
						<name>Machines change the way we see</name>
						<comment>Are the technological and human opposite?&#13;new aesthetic,&#13;perception,&#13;artificiality, &#13;machine aesthetics,&#13;man vs machine,&#13;coevolution,&#13;symbiosis,&#13;link:Julian - Shapes the way we think,&#13;link:Maeda - technology is made by people</comment>
						<color>
							<alpha>0</alpha>
							<red>255</red>
							<green>0</green>
							<blue>0</blue>
						</color>
						<in>10044</in>
						<out>11238</out>
					</marker>
					<marker>
						<name>New Aesthetic</name>
						<comment>new aesthetic,&#13;visual culture,&#13;</comment>
						<color>
							<alpha>0</alpha>
							<red>255</red>
							<green>0</green>
							<blue>0</blue>
						</color>
						<in>12165</in>
						<out>13102</out>
					</marker>
					<marker>
						<name>Living in a state of newness since age 10</name>
						<comment>Is it a problem that we fetishize newness?,&#13;New,&#13;gadget,&#13;critique,&#13;living in the future,&#13;technological progress,</comment>
						<color>
							<alpha>0</alpha>
							<red>255</red>
							<green>0</green>
							<blue>0</blue>
						</color>
						<in>13431</in>
						<out>14674</out>
					</marker>
					<marker>
						<name>Thoroughly enjoying it at the moment</name>
						<comment>digital fabrication,&#13;newness,&#13;toys,&#13;timeless digital now,&#13;technological progress,&#13;techpositive,&#13;technoptimism,</comment>
						<color>
							<alpha>0</alpha>
							<red>255</red>
							<green>0</green>
							<blue>0</blue>
						</color>
						<in>14887</in>
						<out>15737</out>
					</marker>
					<marker>
						<name>Marker 3</name>
						<comment>digital into physical,&#13;3D printing,</comment>
						<color>
							<alpha>0</alpha>
							<red>255</red>
							<green>0</green>
							<blue>0</blue>
						</color>
						<in>16151</in>
						<out>16817</out>
					</marker>
					<filter>
						<effect>
							<name>Audio Levels</name>
							<effectid>audiolevels</effectid>
							<effectcategory>audiolevels</effectcategory>
							<effecttype>audiolevels</effecttype>
							<mediatype>audio</mediatype>
							<parameter>
								<name>Level</name>
								<parameterid>level</parameterid>
								<valuemin>0</valuemin>
								<valuemax>3.98109</valuemax>
								<value>1</value>
							</parameter>
						</effect>
					</filter>
					<filter>
						<effect>
							<name>Audio Pan</name>
							<effectid>audiopan</effectid>
							<effectcategory>audiopan</effectcategory>
							<effecttype>audiopan</effecttype>
							<mediatype>audio</mediatype>
							<parameter>
								<name>Pan</name>
								<parameterid>pan</parameterid>
								<valuemin>-1</valuemin>
								<valuemax>1</valuemax>
								<value>-1</value>
							</parameter>
						</effect>
					</filter>
					<sourcetrack>
						<mediatype>audio</mediatype>
						<trackindex>1</trackindex>
					</sourcetrack>
					<link>
						<linkclipref>MVI_0984 5</linkclipref>
						<mediatype>video</mediatype>
						<trackindex>1</trackindex>
						<clipindex>3</clipindex>
					</link>
					<link>
						<linkclipref>MVI_0984 6</linkclipref>
						<mediatype>audio</mediatype>
						<trackindex>1</trackindex>
						<clipindex>3</clipindex>
						<groupindex>1</groupindex>
					</link>
					<link>
						<linkclipref>MVI_0984 7</linkclipref>
						<mediatype>audio</mediatype>
						<trackindex>2</trackindex>
						<clipindex>3</clipindex>
						<groupindex>1</groupindex>
					</link>
					<itemhistory>
						<uuid>317552C2-FF53-465A-B76F-F93DEEB8D08B</uuid>
						<uuid>56AA10D4-FF2F-45FA-A193-0918197E4C09</uuid>
					</itemhistory>
				</clipitem>
				<clipitem id="MVI_0984 9">
					<name>MVI_0984</name>
					<duration>17208</duration>
					<rate>
						<ntsc>TRUE</ntsc>
						<timebase>24</timebase>
					</rate>
					<in>5952</in>
					<out>17208</out>
					<start>14589</start>
					<end>25845</end>
					<enabled>TRUE</enabled>
					<masterclipid>MVI_0984 1</masterclipid>
					<logginginfo>
						<scene/>
						<shottake/>
						<lognote/>
						<good>FALSE</good>
					</logginginfo>
					<labels>
						<label2/>
					</labels>
					<comments>
						<mastercomment1/>
						<mastercomment2/>
						<mastercomment3/>
						<mastercomment4/>
					</comments>
					<file id="MVI_0984 2"/>
					<marker>
						<name>constraining randomness</name>
						<comment>how do you see the generative process?,&#13;control,&#13;discovery,&#13;collaboration with machines,&#13;algorithm,&#13;authorship,&#13;generative art,&#13;process,&#13;harvesting</comment>
						<color>
							<alpha>0</alpha>
							<red>255</red>
							<green>0</green>
							<blue>0</blue>
						</color>
						<in>208</in>
						<out>1469</out>
					</marker>
					<marker>
						<name>code can be messy</name>
						<comment>serendipity,&#13;experimentation,&#13;elegance,&#13;complexity,&#13;link: Maeda - inexactitude,</comment>
						<color>
							<alpha>0</alpha>
							<red>255</red>
							<green>0</green>
							<blue>0</blue>
						</color>
						<in>1652</in>
						<out>1841</out>
					</marker>
					<marker>
						<name>Techno-rococo</name>
						<comment>Beauty,&#13;critique,&#13;visual exhuberance,</comment>
						<color>
							<alpha>0</alpha>
							<red>255</red>
							<green>0</green>
							<blue>0</blue>
						</color>
						<in>4464</in>
						<out>4680</out>
					</marker>
					<marker>
						<name>the idea of beauty</name>
						<comment>beauty,&#13;art vs design,&#13;</comment>
						<color>
							<alpha>0</alpha>
							<red>255</red>
							<green>0</green>
							<blue>0</blue>
						</color>
						<in>4694</in>
						<out>-1</out>
					</marker>
					<marker>
						<name>Art world gave up on beauty</name>
						<comment>Beauty,&#13;form,&#13;</comment>
						<color>
							<alpha>0</alpha>
							<red>255</red>
							<green>0</green>
							<blue>0</blue>
						</color>
						<in>4699</in>
						<out>5142</out>
					</marker>
					<marker>
						<name>aesthetic experience</name>
						<comment>What is beautiful?&#13;aesthetics,&#13;beauty,&#13;pleasure,&#13;eye of the beholder,&#13;subjectivity,&#13;images,</comment>
						<color>
							<alpha>0</alpha>
							<red>255</red>
							<green>0</green>
							<blue>0</blue>
						</color>
						<in>5365</in>
						<out>5951</out>
					</marker>
					<marker>
						<name>reach your visual cortex</name>
						<comment>sensation,&#13;physicality,&#13;perception,&#13;visual cortex,&#13;Josh Nimoy,&#13;synesthesia,&#13;music,&#13;techno,&#13;subliminal,&#13;Link:JTNimoy - cortex2&#13;</comment>
						<color>
							<alpha>0</alpha>
							<red>255</red>
							<green>0</green>
							<blue>0</blue>
						</color>
						<in>5997</in>
						<out>6903</out>
					</marker>
					<marker>
						<name>Marker 2</name>
						<comment>Do you believe in a universal aesthetic trancending culture, a universal sublime?,&#13;beauty,&#13;</comment>
						<color>
							<alpha>0</alpha>
							<red>255</red>
							<green>0</green>
							<blue>0</blue>
						</color>
						<in>7346</in>
						<out>-1</out>
					</marker>
					<marker>
						<name>Aesthetic with no references,</name>
						<comment>machine aesthetics,&#13;artificiality,&#13;new aesthetic,&#13;digital, antihuman&#13;</comment>
						<color>
							<alpha>0</alpha>
							<red>255</red>
							<green>0</green>
							<blue>0</blue>
						</color>
						<in>8596</in>
						<out>9671</out>
					</marker>
					<marker>
						<name>Machines change the way we see</name>
						<comment>Are the technological and human opposite?&#13;new aesthetic,&#13;perception,&#13;artificiality, &#13;machine aesthetics,&#13;man vs machine,&#13;coevolution,&#13;symbiosis,&#13;link:Julian - Shapes the way we think,&#13;link:Maeda - technology is made by people</comment>
						<color>
							<alpha>0</alpha>
							<red>255</red>
							<green>0</green>
							<blue>0</blue>
						</color>
						<in>10044</in>
						<out>11238</out>
					</marker>
					<marker>
						<name>New Aesthetic</name>
						<comment>new aesthetic,&#13;visual culture,&#13;</comment>
						<color>
							<alpha>0</alpha>
							<red>255</red>
							<green>0</green>
							<blue>0</blue>
						</color>
						<in>12165</in>
						<out>13102</out>
					</marker>
					<marker>
						<name>Living in a state of newness since age 10</name>
						<comment>Is it a problem that we fetishize newness?,&#13;New,&#13;gadget,&#13;critique,&#13;living in the future,&#13;technological progress,</comment>
						<color>
							<alpha>0</alpha>
							<red>255</red>
							<green>0</green>
							<blue>0</blue>
						</color>
						<in>13431</in>
						<out>14674</out>
					</marker>
					<marker>
						<name>Thoroughly enjoying it at the moment</name>
						<comment>digital fabrication,&#13;newness,&#13;toys,&#13;timeless digital now,&#13;technological progress,&#13;techpositive,&#13;technoptimism,</comment>
						<color>
							<alpha>0</alpha>
							<red>255</red>
							<green>0</green>
							<blue>0</blue>
						</color>
						<in>14887</in>
						<out>15737</out>
					</marker>
					<marker>
						<name>Marker 3</name>
						<comment>digital into physical,&#13;3D printing,</comment>
						<color>
							<alpha>0</alpha>
							<red>255</red>
							<green>0</green>
							<blue>0</blue>
						</color>
						<in>16151</in>
						<out>16817</out>
					</marker>
					<filter>
						<effect>
							<name>Audio Levels</name>
							<effectid>audiolevels</effectid>
							<effectcategory>audiolevels</effectcategory>
							<effecttype>audiolevels</effecttype>
							<mediatype>audio</mediatype>
							<parameter>
								<name>Level</name>
								<parameterid>level</parameterid>
								<valuemin>0</valuemin>
								<valuemax>3.98109</valuemax>
								<value>1</value>
							</parameter>
						</effect>
					</filter>
					<filter>
						<effect>
							<name>Audio Pan</name>
							<effectid>audiopan</effectid>
							<effectcategory>audiopan</effectcategory>
							<effecttype>audiopan</effecttype>
							<mediatype>audio</mediatype>
							<parameter>
								<name>Pan</name>
								<parameterid>pan</parameterid>
								<valuemin>-1</valuemin>
								<valuemax>1</valuemax>
								<value>-1</value>
							</parameter>
						</effect>
					</filter>
					<sourcetrack>
						<mediatype>audio</mediatype>
						<trackindex>1</trackindex>
					</sourcetrack>
					<link>
						<linkclipref>MVI_0984 8</linkclipref>
						<mediatype>video</mediatype>
						<trackindex>1</trackindex>
						<clipindex>4</clipindex>
					</link>
					<link>
						<linkclipref>MVI_0984 9</linkclipref>
						<mediatype>audio</mediatype>
						<trackindex>1</trackindex>
						<clipindex>4</clipindex>
						<groupindex>1</groupindex>
					</link>
					<link>
						<linkclipref>MVI_0984 10</linkclipref>
						<mediatype>audio</mediatype>
						<trackindex>2</trackindex>
						<clipindex>4</clipindex>
						<groupindex>1</groupindex>
					</link>
					<itemhistory>
						<uuid>F759A739-984C-4879-AB6E-6F82857BD69C</uuid>
						<uuid>56AA10D4-FF2F-45FA-A193-0918197E4C09</uuid>
					</itemhistory>
				</clipitem>
				<clipitem id="MVI_0986 3">
					<name>MVI_0986</name>
					<duration>14419</duration>
					<rate>
						<ntsc>TRUE</ntsc>
						<timebase>24</timebase>
					</rate>
					<in>0</in>
					<out>14419</out>
					<start>25845</start>
					<end>40264</end>
					<masterclipid>MVI_0986 1</masterclipid>
					<logginginfo>
						<scene/>
						<shottake/>
						<lognote/>
						<good>FALSE</good>
					</logginginfo>
					<labels>
						<label2/>
					</labels>
					<comments>
						<mastercomment1/>
						<mastercomment2/>
						<mastercomment3/>
						<mastercomment4/>
					</comments>
					<file id="MVI_0986 2"/>
					<marker>
						<name>cross discplines</name>
						<comment>disciplines,&#13;dialogue,&#13;subcultures,&#13;tribes,&#13;boundaries,&#13;credence,&#13;definition,&#13;classification,</comment>
						<color>
							<alpha>0</alpha>
							<red>255</red>
							<green>0</green>
							<blue>0</blue>
						</color>
						<in>1179</in>
						<out>1598</out>
					</marker>
					<marker>
						<name>I hate the word nerd</name>
						<comment>Nerd,&#13;tribe,&#13;counterculture,&#13;subcutures,&#13;hacker,&#13;esoteric,&#13;criticality,</comment>
						<color>
							<alpha>0</alpha>
							<red>255</red>
							<green>0</green>
							<blue>0</blue>
						</color>
						<in>3693</in>
						<out>4089</out>
					</marker>
					<marker>
						<name>Stylistic darwinism</name>
						<comment>aesthetics,&#13;evolution,&#13;progress,</comment>
						<color>
							<alpha>0</alpha>
							<red>255</red>
							<green>0</green>
							<blue>0</blue>
						</color>
						<in>6405</in>
						<out>6677</out>
					</marker>
					<marker>
						<name>my work exists in a utopian space,</name>
						<comment>virtual,&#13;utopia,&#13;abstraction,&#13;form,&#13;imaginary,&#13;multiverse,</comment>
						<color>
							<alpha>0</alpha>
							<red>255</red>
							<green>0</green>
							<blue>0</blue>
						</color>
						<in>8923</in>
						<out>9672</out>
					</marker>
					<marker>
						<name>if it's not interesting I abandon it,</name>
						<comment>evolution,&#13;interesting,&#13;process,&#13;creation,&#13;birth</comment>
						<color>
							<alpha>0</alpha>
							<red>255</red>
							<green>0</green>
							<blue>0</blue>
						</color>
						<in>9738</in>
						<out>9812</out>
					</marker>
					<marker>
						<name>Marker 6</name>
						<comment>cyborg,&#13;cyberpunk,&#13;gadgets,&#13;perception,&#13;man vs machine,&#13;science fiction,&#13;progress,</comment>
						<color>
							<alpha>0</alpha>
							<red>255</red>
							<green>0</green>
							<blue>0</blue>
						</color>
						<in>10730</in>
						<out>11287</out>
					</marker>
					<marker>
						<name>We've embraced Dystopia</name>
						<comment>utopia,&#13;dystopia,&#13;science fiction,&#13;cyberpunk,&#13;google,&#13;internet culture,&#13;digital culture,&#13;economics,</comment>
						<color>
							<alpha>0</alpha>
							<red>255</red>
							<green>0</green>
							<blue>0</blue>
						</color>
						<in>11287</in>
						<out>11970</out>
					</marker>
					<marker>
						<name>Predicting the internet</name>
						<comment>speculation,&#13;internet,&#13;futurism,&#13;technological progress,&#13;history,</comment>
						<color>
							<alpha>0</alpha>
							<red>255</red>
							<green>0</green>
							<blue>0</blue>
						</color>
						<in>13060</in>
						<out>13654</out>
					</marker>
					<filter>
						<effect>
							<name>Audio Levels</name>
							<effectid>audiolevels</effectid>
							<effectcategory>audiolevels</effectcategory>
							<effecttype>audiolevels</effecttype>
							<mediatype>audio</mediatype>
							<parameter>
								<name>Level</name>
								<parameterid>level</parameterid>
								<valuemin>0</valuemin>
								<valuemax>3.98109</valuemax>
								<value>1</value>
							</parameter>
						</effect>
					</filter>
					<filter>
						<effect>
							<name>Audio Pan</name>
							<effectid>audiopan</effectid>
							<effectcategory>audiopan</effectcategory>
							<effecttype>audiopan</effecttype>
							<mediatype>audio</mediatype>
							<parameter>
								<name>Pan</name>
								<parameterid>pan</parameterid>
								<valuemin>-1</valuemin>
								<valuemax>1</valuemax>
								<value>-1</value>
							</parameter>
						</effect>
					</filter>
					<sourcetrack>
						<mediatype>audio</mediatype>
						<trackindex>1</trackindex>
					</sourcetrack>
					<link>
						<linkclipref>MVI_0986 </linkclipref>
						<mediatype>video</mediatype>
						<trackindex>1</trackindex>
						<clipindex>5</clipindex>
					</link>
					<link>
						<linkclipref>MVI_0986 3</linkclipref>
						<mediatype>audio</mediatype>
						<trackindex>1</trackindex>
						<clipindex>5</clipindex>
						<groupindex>1</groupindex>
					</link>
					<link>
						<linkclipref>MVI_0986 4</linkclipref>
						<mediatype>audio</mediatype>
						<trackindex>2</trackindex>
						<clipindex>5</clipindex>
						<groupindex>1</groupindex>
					</link>
					<itemhistory>
						<uuid>436FB775-7D3F-45E4-BE45-B75D2FE531D6</uuid>
					</itemhistory>
				</clipitem>
				<clipitem id="MVI_0987 3">
					<name>MVI_0987</name>
					<duration>5126</duration>
					<rate>
						<ntsc>TRUE</ntsc>
						<timebase>24</timebase>
					</rate>
					<in>0</in>
					<out>5126</out>
					<start>40264</start>
					<end>45390</end>
					<masterclipid>MVI_0987 1</masterclipid>
					<logginginfo>
						<scene/>
						<shottake/>
						<lognote/>
						<good>FALSE</good>
					</logginginfo>
					<labels>
						<label2/>
					</labels>
					<comments>
						<mastercomment1/>
						<mastercomment2/>
						<mastercomment3/>
						<mastercomment4/>
					</comments>
					<file id="MVI_0987 2"/>
					<marker>
						<name>color 3D printing</name>
						<comment>3D printing,&#13;prediction,&#13;technological progress,&#13;hypothetical aesthetic technology,</comment>
						<color>
							<alpha>0</alpha>
							<red>255</red>
							<green>0</green>
							<blue>0</blue>
						</color>
						<in>447</in>
						<out>853</out>
					</marker>
					<marker>
						<name>3D printing</name>
						<comment>3D printing,&#13;digital meets physical,&#13;sculpture,</comment>
						<color>
							<alpha>0</alpha>
							<red>255</red>
							<green>0</green>
							<blue>0</blue>
						</color>
						<in>1864</in>
						<out>2655</out>
					</marker>
					<marker>
						<name>Becoming mid-career</name>
						<comment>veterans,&#13;generations,&#13;teachers and mentors,&#13;shifts,&#13;newness,</comment>
						<color>
							<alpha>0</alpha>
							<red>255</red>
							<green>0</green>
							<blue>0</blue>
						</color>
						<in>3418</in>
						<out>4619</out>
					</marker>
					<filter>
						<effect>
							<name>Audio Levels</name>
							<effectid>audiolevels</effectid>
							<effectcategory>audiolevels</effectcategory>
							<effecttype>audiolevels</effecttype>
							<mediatype>audio</mediatype>
							<parameter>
								<name>Level</name>
								<parameterid>level</parameterid>
								<valuemin>0</valuemin>
								<valuemax>3.98109</valuemax>
								<value>1</value>
							</parameter>
						</effect>
					</filter>
					<filter>
						<effect>
							<name>Audio Pan</name>
							<effectid>audiopan</effectid>
							<effectcategory>audiopan</effectcategory>
							<effecttype>audiopan</effecttype>
							<mediatype>audio</mediatype>
							<parameter>
								<name>Pan</name>
								<parameterid>pan</parameterid>
								<valuemin>-1</valuemin>
								<valuemax>1</valuemax>
								<value>-1</value>
							</parameter>
						</effect>
					</filter>
					<sourcetrack>
						<mediatype>audio</mediatype>
						<trackindex>1</trackindex>
					</sourcetrack>
					<link>
						<linkclipref>MVI_0987 </linkclipref>
						<mediatype>video</mediatype>
						<trackindex>1</trackindex>
						<clipindex>6</clipindex>
					</link>
					<link>
						<linkclipref>MVI_0987 3</linkclipref>
						<mediatype>audio</mediatype>
						<trackindex>1</trackindex>
						<clipindex>6</clipindex>
						<groupindex>1</groupindex>
					</link>
					<link>
						<linkclipref>MVI_0987 4</linkclipref>
						<mediatype>audio</mediatype>
						<trackindex>2</trackindex>
						<clipindex>6</clipindex>
						<groupindex>1</groupindex>
					</link>
					<itemhistory>
						<uuid>781D7428-A7D8-49C0-9D75-43384D330584</uuid>
					</itemhistory>
				</clipitem>
				<enabled>TRUE</enabled>
				<locked>FALSE</locked>
				<outputchannelindex>1</outputchannelindex>
			</track>
			<track>
				<clipitem id="MVI_0983 4">
					<name>MVI_0983</name>
					<duration>8637</duration>
					<rate>
						<ntsc>TRUE</ntsc>
						<timebase>24</timebase>
					</rate>
					<in>0</in>
					<out>8637</out>
					<start>0</start>
					<end>8637</end>
					<masterclipid>MVI_0983 1</masterclipid>
					<logginginfo>
						<scene/>
						<shottake/>
						<lognote/>
						<good>FALSE</good>
					</logginginfo>
					<labels>
						<label2/>
					</labels>
					<comments>
						<mastercomment1/>
						<mastercomment2/>
						<mastercomment3/>
						<mastercomment4/>
					</comments>
					<file id="MVI_0983 2"/>
					<marker>
						<name>Do you work with randomness?</name>
						<comment/>
						<color>
							<alpha>0</alpha>
							<red>255</red>
							<green>127</green>
							<blue>0</blue>
						</color>
						<in>1496</in>
						<out>-1</out>
					</marker>
					<marker>
						<name>algorithms as a parameter space</name>
						<comment>How do you shape randomness?,&#13;surprise,&#13;serendipity,&#13;parameter space,&#13;possibility,&#13;randomness,&#13;generative,&#13;</comment>
						<color>
							<alpha>0</alpha>
							<red>255</red>
							<green>127</green>
							<blue>0</blue>
						</color>
						<in>2261</in>
						<out>3285</out>
					</marker>
					<marker>
						<name/>
						<comment>in a sense are you running through an evolutionary process?, </comment>
						<color>
							<alpha>0</alpha>
							<red>255</red>
							<green>0</green>
							<blue>0</blue>
						</color>
						<in>3391</in>
						<out>-1</out>
					</marker>
					<marker>
						<name>dropped out of computer science</name>
						<comment>how did you get into working with code?,&#13;beginning,&#13;graphic design,&#13;art world,&#13;</comment>
						<color>
							<alpha>0</alpha>
							<red>255</red>
							<green>0</green>
							<blue>0</blue>
						</color>
						<in>3939</in>
						<out>4607</out>
					</marker>
					<marker>
						<name>these things are in my head</name>
						<comment>why are you attracted to abstraction?&#13;abstraction,&#13;self expression,&#13;subjectivity,&#13;mind,&#13;identity,&#13;why?,&#13;process,&#13;creativity,&#13;Link:JTNimoy - Dream</comment>
						<color>
							<alpha>0</alpha>
							<red>255</red>
							<green>0</green>
							<blue>0</blue>
						</color>
						<in>4909</in>
						<out>5405</out>
					</marker>
					<marker>
						<name>Continuous process of exploration</name>
						<comment>how does the work feed into itself?,&#13;exploration,&#13;iterative,&#13;generative art,&#13;feedback loops,&#13;intuition,&#13;creativity,&#13;form,&#13;design&#13;</comment>
						<color>
							<alpha>0</alpha>
							<red>255</red>
							<green>0</green>
							<blue>0</blue>
						</color>
						<in>5627</in>
						<out>6080</out>
					</marker>
					<marker>
						<name>jumping from medium to medium</name>
						<comment>multimedia,&#13;digital fabrication,&#13;process</comment>
						<color>
							<alpha>0</alpha>
							<red>255</red>
							<green>0</green>
							<blue>0</blue>
						</color>
						<in>6080</in>
						<out>6465</out>
					</marker>
					<marker>
						<name>gardening</name>
						<comment>how do you choose what to display, working iteratively generatively in a process that can go on forever?,&#13;emergence,&#13;control,&#13;gardening,&#13;generative process,&#13;form,&#13;choosing,&#13;randomness,</comment>
						<color>
							<alpha>0</alpha>
							<red>255</red>
							<green>0</green>
							<blue>0</blue>
						</color>
						<in>7148</in>
						<out>7933</out>
					</marker>
					<marker>
						<name>It's dirtier than that</name>
						<comment>gardening,&#13;foraging, &#13;beauty</comment>
						<color>
							<alpha>0</alpha>
							<red>255</red>
							<green>0</green>
							<blue>0</blue>
						</color>
						<in>8182</in>
						<out>8361</out>
					</marker>
					<filter>
						<effect>
							<name>Audio Levels</name>
							<effectid>audiolevels</effectid>
							<effectcategory>audiolevels</effectcategory>
							<effecttype>audiolevels</effecttype>
							<mediatype>audio</mediatype>
							<parameter>
								<name>Level</name>
								<parameterid>level</parameterid>
								<valuemin>0</valuemin>
								<valuemax>3.98109</valuemax>
								<value>1</value>
							</parameter>
						</effect>
					</filter>
					<filter>
						<effect>
							<name>Audio Pan</name>
							<effectid>audiopan</effectid>
							<effectcategory>audiopan</effectcategory>
							<effecttype>audiopan</effecttype>
							<mediatype>audio</mediatype>
							<parameter>
								<name>Pan</name>
								<parameterid>pan</parameterid>
								<valuemin>-1</valuemin>
								<valuemax>1</valuemax>
								<value>1</value>
							</parameter>
						</effect>
					</filter>
					<sourcetrack>
						<mediatype>audio</mediatype>
						<trackindex>2</trackindex>
					</sourcetrack>
					<link>
						<linkclipref>MVI_0983 </linkclipref>
						<mediatype>video</mediatype>
						<trackindex>1</trackindex>
						<clipindex>1</clipindex>
					</link>
					<link>
						<linkclipref>MVI_0983 3</linkclipref>
						<mediatype>audio</mediatype>
						<trackindex>1</trackindex>
						<clipindex>1</clipindex>
						<groupindex>1</groupindex>
					</link>
					<link>
						<linkclipref>MVI_0983 4</linkclipref>
						<mediatype>audio</mediatype>
						<trackindex>2</trackindex>
						<clipindex>1</clipindex>
						<groupindex>1</groupindex>
					</link>
					<itemhistory>
						<uuid>D7EA08BE-5C1C-4512-B229-D1DD354D2163</uuid>
					</itemhistory>
				</clipitem>
				<clipitem id="MVI_0984 4">
					<name>MVI_0984</name>
					<duration>17208</duration>
					<rate>
						<ntsc>TRUE</ntsc>
						<timebase>24</timebase>
					</rate>
					<in>0</in>
					<out>4701</out>
					<start>8637</start>
					<end>13338</end>
					<enabled>TRUE</enabled>
					<masterclipid>MVI_0984 1</masterclipid>
					<logginginfo>
						<scene/>
						<shottake/>
						<lognote/>
						<good>FALSE</good>
					</logginginfo>
					<labels>
						<label2/>
					</labels>
					<comments>
						<mastercomment1/>
						<mastercomment2/>
						<mastercomment3/>
						<mastercomment4/>
					</comments>
					<file id="MVI_0984 2"/>
					<marker>
						<name>constraining randomness</name>
						<comment>how do you see the generative process?,&#13;control,&#13;discovery,&#13;collaboration with machines,&#13;algorithm,&#13;authorship,&#13;generative art,&#13;process,&#13;harvesting</comment>
						<color>
							<alpha>0</alpha>
							<red>255</red>
							<green>0</green>
							<blue>0</blue>
						</color>
						<in>208</in>
						<out>1469</out>
					</marker>
					<marker>
						<name>code can be messy</name>
						<comment>serendipity,&#13;experimentation,&#13;elegance,&#13;complexity,&#13;link: Maeda - inexactitude,</comment>
						<color>
							<alpha>0</alpha>
							<red>255</red>
							<green>0</green>
							<blue>0</blue>
						</color>
						<in>1652</in>
						<out>1841</out>
					</marker>
					<marker>
						<name>Techno-rococo</name>
						<comment>Beauty,&#13;critique,&#13;visual exhuberance,</comment>
						<color>
							<alpha>0</alpha>
							<red>255</red>
							<green>0</green>
							<blue>0</blue>
						</color>
						<in>4464</in>
						<out>4680</out>
					</marker>
					<marker>
						<name>the idea of beauty</name>
						<comment>beauty,&#13;art vs design,&#13;</comment>
						<color>
							<alpha>0</alpha>
							<red>255</red>
							<green>0</green>
							<blue>0</blue>
						</color>
						<in>4694</in>
						<out>-1</out>
					</marker>
					<marker>
						<name>Art world gave up on beauty</name>
						<comment>Beauty,&#13;form,&#13;</comment>
						<color>
							<alpha>0</alpha>
							<red>255</red>
							<green>0</green>
							<blue>0</blue>
						</color>
						<in>4699</in>
						<out>5142</out>
					</marker>
					<marker>
						<name>aesthetic experience</name>
						<comment>What is beautiful?&#13;aesthetics,&#13;beauty,&#13;pleasure,&#13;eye of the beholder,&#13;subjectivity,&#13;images,</comment>
						<color>
							<alpha>0</alpha>
							<red>255</red>
							<green>0</green>
							<blue>0</blue>
						</color>
						<in>5365</in>
						<out>5951</out>
					</marker>
					<marker>
						<name>reach your visual cortex</name>
						<comment>sensation,&#13;physicality,&#13;perception,&#13;visual cortex,&#13;Josh Nimoy,&#13;synesthesia,&#13;music,&#13;techno,&#13;subliminal,&#13;Link:JTNimoy - cortex2&#13;</comment>
						<color>
							<alpha>0</alpha>
							<red>255</red>
							<green>0</green>
							<blue>0</blue>
						</color>
						<in>5997</in>
						<out>6903</out>
					</marker>
					<marker>
						<name>Marker 2</name>
						<comment>Do you believe in a universal aesthetic trancending culture, a universal sublime?,&#13;beauty,&#13;</comment>
						<color>
							<alpha>0</alpha>
							<red>255</red>
							<green>0</green>
							<blue>0</blue>
						</color>
						<in>7346</in>
						<out>-1</out>
					</marker>
					<marker>
						<name>Aesthetic with no references,</name>
						<comment>machine aesthetics,&#13;artificiality,&#13;new aesthetic,&#13;digital, antihuman&#13;</comment>
						<color>
							<alpha>0</alpha>
							<red>255</red>
							<green>0</green>
							<blue>0</blue>
						</color>
						<in>8596</in>
						<out>9671</out>
					</marker>
					<marker>
						<name>Machines change the way we see</name>
						<comment>Are the technological and human opposite?&#13;new aesthetic,&#13;perception,&#13;artificiality, &#13;machine aesthetics,&#13;man vs machine,&#13;coevolution,&#13;symbiosis,&#13;link:Julian - Shapes the way we think,&#13;link:Maeda - technology is made by people</comment>
						<color>
							<alpha>0</alpha>
							<red>255</red>
							<green>0</green>
							<blue>0</blue>
						</color>
						<in>10044</in>
						<out>11238</out>
					</marker>
					<marker>
						<name>New Aesthetic</name>
						<comment>new aesthetic,&#13;visual culture,&#13;</comment>
						<color>
							<alpha>0</alpha>
							<red>255</red>
							<green>0</green>
							<blue>0</blue>
						</color>
						<in>12165</in>
						<out>13102</out>
					</marker>
					<marker>
						<name>Living in a state of newness since age 10</name>
						<comment>Is it a problem that we fetishize newness?,&#13;New,&#13;gadget,&#13;critique,&#13;living in the future,&#13;technological progress,</comment>
						<color>
							<alpha>0</alpha>
							<red>255</red>
							<green>0</green>
							<blue>0</blue>
						</color>
						<in>13431</in>
						<out>14674</out>
					</marker>
					<marker>
						<name>Thoroughly enjoying it at the moment</name>
						<comment>digital fabrication,&#13;newness,&#13;toys,&#13;timeless digital now,&#13;technological progress,&#13;techpositive,&#13;technoptimism,</comment>
						<color>
							<alpha>0</alpha>
							<red>255</red>
							<green>0</green>
							<blue>0</blue>
						</color>
						<in>14887</in>
						<out>15737</out>
					</marker>
					<marker>
						<name>Marker 3</name>
						<comment>digital into physical,&#13;3D printing,</comment>
						<color>
							<alpha>0</alpha>
							<red>255</red>
							<green>0</green>
							<blue>0</blue>
						</color>
						<in>16151</in>
						<out>16817</out>
					</marker>
					<filter>
						<effect>
							<name>Audio Levels</name>
							<effectid>audiolevels</effectid>
							<effectcategory>audiolevels</effectcategory>
							<effecttype>audiolevels</effecttype>
							<mediatype>audio</mediatype>
							<parameter>
								<name>Level</name>
								<parameterid>level</parameterid>
								<valuemin>0</valuemin>
								<valuemax>3.98109</valuemax>
								<value>1</value>
							</parameter>
						</effect>
					</filter>
					<filter>
						<effect>
							<name>Audio Pan</name>
							<effectid>audiopan</effectid>
							<effectcategory>audiopan</effectcategory>
							<effecttype>audiopan</effecttype>
							<mediatype>audio</mediatype>
							<parameter>
								<name>Pan</name>
								<parameterid>pan</parameterid>
								<valuemin>-1</valuemin>
								<valuemax>1</valuemax>
								<value>1</value>
							</parameter>
						</effect>
					</filter>
					<sourcetrack>
						<mediatype>audio</mediatype>
						<trackindex>2</trackindex>
					</sourcetrack>
					<link>
						<linkclipref>MVI_0984 </linkclipref>
						<mediatype>video</mediatype>
						<trackindex>1</trackindex>
						<clipindex>2</clipindex>
					</link>
					<link>
						<linkclipref>MVI_0984 3</linkclipref>
						<mediatype>audio</mediatype>
						<trackindex>1</trackindex>
						<clipindex>2</clipindex>
						<groupindex>1</groupindex>
					</link>
					<link>
						<linkclipref>MVI_0984 4</linkclipref>
						<mediatype>audio</mediatype>
						<trackindex>2</trackindex>
						<clipindex>2</clipindex>
						<groupindex>1</groupindex>
					</link>
					<itemhistory>
						<uuid>06DA555D-A58F-456E-A8C9-A8286E2C384F</uuid>
						<uuid>4FDF4B3F-D2B6-4477-9F45-322E3854CC88</uuid>
					</itemhistory>
				</clipitem>
				<clipitem id="MVI_0984 7">
					<name>MVI_0984</name>
					<duration>17208</duration>
					<rate>
						<ntsc>TRUE</ntsc>
						<timebase>24</timebase>
					</rate>
					<in>4701</in>
					<out>5952</out>
					<start>13338</start>
					<end>14589</end>
					<enabled>TRUE</enabled>
					<masterclipid>MVI_0984 1</masterclipid>
					<logginginfo>
						<scene/>
						<shottake/>
						<lognote/>
						<good>FALSE</good>
					</logginginfo>
					<labels>
						<label2/>
					</labels>
					<comments>
						<mastercomment1/>
						<mastercomment2/>
						<mastercomment3/>
						<mastercomment4/>
					</comments>
					<file id="MVI_0984 2"/>
					<marker>
						<name>constraining randomness</name>
						<comment>how do you see the generative process?,&#13;control,&#13;discovery,&#13;collaboration with machines,&#13;algorithm,&#13;authorship,&#13;generative art,&#13;process,&#13;harvesting</comment>
						<color>
							<alpha>0</alpha>
							<red>255</red>
							<green>0</green>
							<blue>0</blue>
						</color>
						<in>208</in>
						<out>1469</out>
					</marker>
					<marker>
						<name>code can be messy</name>
						<comment>serendipity,&#13;experimentation,&#13;elegance,&#13;complexity,&#13;link: Maeda - inexactitude,</comment>
						<color>
							<alpha>0</alpha>
							<red>255</red>
							<green>0</green>
							<blue>0</blue>
						</color>
						<in>1652</in>
						<out>1841</out>
					</marker>
					<marker>
						<name>Techno-rococo</name>
						<comment>Beauty,&#13;critique,&#13;visual exhuberance,</comment>
						<color>
							<alpha>0</alpha>
							<red>255</red>
							<green>0</green>
							<blue>0</blue>
						</color>
						<in>4464</in>
						<out>4680</out>
					</marker>
					<marker>
						<name>the idea of beauty</name>
						<comment>beauty,&#13;art vs design,&#13;</comment>
						<color>
							<alpha>0</alpha>
							<red>255</red>
							<green>0</green>
							<blue>0</blue>
						</color>
						<in>4694</in>
						<out>-1</out>
					</marker>
					<marker>
						<name>Art world gave up on beauty</name>
						<comment>Beauty,&#13;form,&#13;</comment>
						<color>
							<alpha>0</alpha>
							<red>255</red>
							<green>0</green>
							<blue>0</blue>
						</color>
						<in>4699</in>
						<out>5142</out>
					</marker>
					<marker>
						<name>aesthetic experience</name>
						<comment>What is beautiful?&#13;aesthetics,&#13;beauty,&#13;pleasure,&#13;eye of the beholder,&#13;subjectivity,&#13;images,</comment>
						<color>
							<alpha>0</alpha>
							<red>255</red>
							<green>0</green>
							<blue>0</blue>
						</color>
						<in>5365</in>
						<out>5951</out>
					</marker>
					<marker>
						<name>reach your visual cortex</name>
						<comment>sensation,&#13;physicality,&#13;perception,&#13;visual cortex,&#13;Josh Nimoy,&#13;synesthesia,&#13;music,&#13;techno,&#13;subliminal,&#13;Link:JTNimoy - cortex2&#13;</comment>
						<color>
							<alpha>0</alpha>
							<red>255</red>
							<green>0</green>
							<blue>0</blue>
						</color>
						<in>5997</in>
						<out>6903</out>
					</marker>
					<marker>
						<name>Marker 2</name>
						<comment>Do you believe in a universal aesthetic trancending culture, a universal sublime?,&#13;beauty,&#13;</comment>
						<color>
							<alpha>0</alpha>
							<red>255</red>
							<green>0</green>
							<blue>0</blue>
						</color>
						<in>7346</in>
						<out>-1</out>
					</marker>
					<marker>
						<name>Aesthetic with no references,</name>
						<comment>machine aesthetics,&#13;artificiality,&#13;new aesthetic,&#13;digital, antihuman&#13;</comment>
						<color>
							<alpha>0</alpha>
							<red>255</red>
							<green>0</green>
							<blue>0</blue>
						</color>
						<in>8596</in>
						<out>9671</out>
					</marker>
					<marker>
						<name>Machines change the way we see</name>
						<comment>Are the technological and human opposite?&#13;new aesthetic,&#13;perception,&#13;artificiality, &#13;machine aesthetics,&#13;man vs machine,&#13;coevolution,&#13;symbiosis,&#13;link:Julian - Shapes the way we think,&#13;link:Maeda - technology is made by people</comment>
						<color>
							<alpha>0</alpha>
							<red>255</red>
							<green>0</green>
							<blue>0</blue>
						</color>
						<in>10044</in>
						<out>11238</out>
					</marker>
					<marker>
						<name>New Aesthetic</name>
						<comment>new aesthetic,&#13;visual culture,&#13;</comment>
						<color>
							<alpha>0</alpha>
							<red>255</red>
							<green>0</green>
							<blue>0</blue>
						</color>
						<in>12165</in>
						<out>13102</out>
					</marker>
					<marker>
						<name>Living in a state of newness since age 10</name>
						<comment>Is it a problem that we fetishize newness?,&#13;New,&#13;gadget,&#13;critique,&#13;living in the future,&#13;technological progress,</comment>
						<color>
							<alpha>0</alpha>
							<red>255</red>
							<green>0</green>
							<blue>0</blue>
						</color>
						<in>13431</in>
						<out>14674</out>
					</marker>
					<marker>
						<name>Thoroughly enjoying it at the moment</name>
						<comment>digital fabrication,&#13;newness,&#13;toys,&#13;timeless digital now,&#13;technological progress,&#13;techpositive,&#13;technoptimism,</comment>
						<color>
							<alpha>0</alpha>
							<red>255</red>
							<green>0</green>
							<blue>0</blue>
						</color>
						<in>14887</in>
						<out>15737</out>
					</marker>
					<marker>
						<name>Marker 3</name>
						<comment>digital into physical,&#13;3D printing,</comment>
						<color>
							<alpha>0</alpha>
							<red>255</red>
							<green>0</green>
							<blue>0</blue>
						</color>
						<in>16151</in>
						<out>16817</out>
					</marker>
					<filter>
						<effect>
							<name>Audio Levels</name>
							<effectid>audiolevels</effectid>
							<effectcategory>audiolevels</effectcategory>
							<effecttype>audiolevels</effecttype>
							<mediatype>audio</mediatype>
							<parameter>
								<name>Level</name>
								<parameterid>level</parameterid>
								<valuemin>0</valuemin>
								<valuemax>3.98109</valuemax>
								<value>1</value>
							</parameter>
						</effect>
					</filter>
					<filter>
						<effect>
							<name>Audio Pan</name>
							<effectid>audiopan</effectid>
							<effectcategory>audiopan</effectcategory>
							<effecttype>audiopan</effecttype>
							<mediatype>audio</mediatype>
							<parameter>
								<name>Pan</name>
								<parameterid>pan</parameterid>
								<valuemin>-1</valuemin>
								<valuemax>1</valuemax>
								<value>1</value>
							</parameter>
						</effect>
					</filter>
					<sourcetrack>
						<mediatype>audio</mediatype>
						<trackindex>2</trackindex>
					</sourcetrack>
					<link>
						<linkclipref>MVI_0984 5</linkclipref>
						<mediatype>video</mediatype>
						<trackindex>1</trackindex>
						<clipindex>3</clipindex>
					</link>
					<link>
						<linkclipref>MVI_0984 6</linkclipref>
						<mediatype>audio</mediatype>
						<trackindex>1</trackindex>
						<clipindex>3</clipindex>
						<groupindex>1</groupindex>
					</link>
					<link>
						<linkclipref>MVI_0984 7</linkclipref>
						<mediatype>audio</mediatype>
						<trackindex>2</trackindex>
						<clipindex>3</clipindex>
						<groupindex>1</groupindex>
					</link>
					<itemhistory>
						<uuid>0402893F-C675-4D1B-B092-D1486B369FBA</uuid>
						<uuid>4FDF4B3F-D2B6-4477-9F45-322E3854CC88</uuid>
					</itemhistory>
				</clipitem>
				<clipitem id="MVI_0984 10">
					<name>MVI_0984</name>
					<duration>17208</duration>
					<rate>
						<ntsc>TRUE</ntsc>
						<timebase>24</timebase>
					</rate>
					<in>5952</in>
					<out>17208</out>
					<start>14589</start>
					<end>25845</end>
					<enabled>TRUE</enabled>
					<masterclipid>MVI_0984 1</masterclipid>
					<logginginfo>
						<scene/>
						<shottake/>
						<lognote/>
						<good>FALSE</good>
					</logginginfo>
					<labels>
						<label2/>
					</labels>
					<comments>
						<mastercomment1/>
						<mastercomment2/>
						<mastercomment3/>
						<mastercomment4/>
					</comments>
					<file id="MVI_0984 2"/>
					<marker>
						<name>constraining randomness</name>
						<comment>how do you see the generative process?,&#13;control,&#13;discovery,&#13;collaboration with machines,&#13;algorithm,&#13;authorship,&#13;generative art,&#13;process,&#13;harvesting</comment>
						<color>
							<alpha>0</alpha>
							<red>255</red>
							<green>0</green>
							<blue>0</blue>
						</color>
						<in>208</in>
						<out>1469</out>
					</marker>
					<marker>
						<name>code can be messy</name>
						<comment>serendipity,&#13;experimentation,&#13;elegance,&#13;complexity,&#13;link: Maeda - inexactitude,</comment>
						<color>
							<alpha>0</alpha>
							<red>255</red>
							<green>0</green>
							<blue>0</blue>
						</color>
						<in>1652</in>
						<out>1841</out>
					</marker>
					<marker>
						<name>Techno-rococo</name>
						<comment>Beauty,&#13;critique,&#13;visual exhuberance,</comment>
						<color>
							<alpha>0</alpha>
							<red>255</red>
							<green>0</green>
							<blue>0</blue>
						</color>
						<in>4464</in>
						<out>4680</out>
					</marker>
					<marker>
						<name>the idea of beauty</name>
						<comment>beauty,&#13;art vs design,&#13;</comment>
						<color>
							<alpha>0</alpha>
							<red>255</red>
							<green>0</green>
							<blue>0</blue>
						</color>
						<in>4694</in>
						<out>-1</out>
					</marker>
					<marker>
						<name>Art world gave up on beauty</name>
						<comment>Beauty,&#13;form,&#13;</comment>
						<color>
							<alpha>0</alpha>
							<red>255</red>
							<green>0</green>
							<blue>0</blue>
						</color>
						<in>4699</in>
						<out>5142</out>
					</marker>
					<marker>
						<name>aesthetic experience</name>
						<comment>What is beautiful?&#13;aesthetics,&#13;beauty,&#13;pleasure,&#13;eye of the beholder,&#13;subjectivity,&#13;images,</comment>
						<color>
							<alpha>0</alpha>
							<red>255</red>
							<green>0</green>
							<blue>0</blue>
						</color>
						<in>5365</in>
						<out>5951</out>
					</marker>
					<marker>
						<name>reach your visual cortex</name>
						<comment>sensation,&#13;physicality,&#13;perception,&#13;visual cortex,&#13;Josh Nimoy,&#13;synesthesia,&#13;music,&#13;techno,&#13;subliminal,&#13;Link:JTNimoy - cortex2&#13;</comment>
						<color>
							<alpha>0</alpha>
							<red>255</red>
							<green>0</green>
							<blue>0</blue>
						</color>
						<in>5997</in>
						<out>6903</out>
					</marker>
					<marker>
						<name>Marker 2</name>
						<comment>Do you believe in a universal aesthetic trancending culture, a universal sublime?,&#13;beauty,&#13;</comment>
						<color>
							<alpha>0</alpha>
							<red>255</red>
							<green>0</green>
							<blue>0</blue>
						</color>
						<in>7346</in>
						<out>-1</out>
					</marker>
					<marker>
						<name>Aesthetic with no references,</name>
						<comment>machine aesthetics,&#13;artificiality,&#13;new aesthetic,&#13;digital, antihuman&#13;</comment>
						<color>
							<alpha>0</alpha>
							<red>255</red>
							<green>0</green>
							<blue>0</blue>
						</color>
						<in>8596</in>
						<out>9671</out>
					</marker>
					<marker>
						<name>Machines change the way we see</name>
						<comment>Are the technological and human opposite?&#13;new aesthetic,&#13;perception,&#13;artificiality, &#13;machine aesthetics,&#13;man vs machine,&#13;coevolution,&#13;symbiosis,&#13;link:Julian - Shapes the way we think,&#13;link:Maeda - technology is made by people</comment>
						<color>
							<alpha>0</alpha>
							<red>255</red>
							<green>0</green>
							<blue>0</blue>
						</color>
						<in>10044</in>
						<out>11238</out>
					</marker>
					<marker>
						<name>New Aesthetic</name>
						<comment>new aesthetic,&#13;visual culture,&#13;</comment>
						<color>
							<alpha>0</alpha>
							<red>255</red>
							<green>0</green>
							<blue>0</blue>
						</color>
						<in>12165</in>
						<out>13102</out>
					</marker>
					<marker>
						<name>Living in a state of newness since age 10</name>
						<comment>Is it a problem that we fetishize newness?,&#13;New,&#13;gadget,&#13;critique,&#13;living in the future,&#13;technological progress,</comment>
						<color>
							<alpha>0</alpha>
							<red>255</red>
							<green>0</green>
							<blue>0</blue>
						</color>
						<in>13431</in>
						<out>14674</out>
					</marker>
					<marker>
						<name>Thoroughly enjoying it at the moment</name>
						<comment>digital fabrication,&#13;newness,&#13;toys,&#13;timeless digital now,&#13;technological progress,&#13;techpositive,&#13;technoptimism,</comment>
						<color>
							<alpha>0</alpha>
							<red>255</red>
							<green>0</green>
							<blue>0</blue>
						</color>
						<in>14887</in>
						<out>15737</out>
					</marker>
					<marker>
						<name>Marker 3</name>
						<comment>digital into physical,&#13;3D printing,</comment>
						<color>
							<alpha>0</alpha>
							<red>255</red>
							<green>0</green>
							<blue>0</blue>
						</color>
						<in>16151</in>
						<out>16817</out>
					</marker>
					<filter>
						<effect>
							<name>Audio Levels</name>
							<effectid>audiolevels</effectid>
							<effectcategory>audiolevels</effectcategory>
							<effecttype>audiolevels</effecttype>
							<mediatype>audio</mediatype>
							<parameter>
								<name>Level</name>
								<parameterid>level</parameterid>
								<valuemin>0</valuemin>
								<valuemax>3.98109</valuemax>
								<value>1</value>
							</parameter>
						</effect>
					</filter>
					<filter>
						<effect>
							<name>Audio Pan</name>
							<effectid>audiopan</effectid>
							<effectcategory>audiopan</effectcategory>
							<effecttype>audiopan</effecttype>
							<mediatype>audio</mediatype>
							<parameter>
								<name>Pan</name>
								<parameterid>pan</parameterid>
								<valuemin>-1</valuemin>
								<valuemax>1</valuemax>
								<value>1</value>
							</parameter>
						</effect>
					</filter>
					<sourcetrack>
						<mediatype>audio</mediatype>
						<trackindex>2</trackindex>
					</sourcetrack>
					<link>
						<linkclipref>MVI_0984 8</linkclipref>
						<mediatype>video</mediatype>
						<trackindex>1</trackindex>
						<clipindex>4</clipindex>
					</link>
					<link>
						<linkclipref>MVI_0984 9</linkclipref>
						<mediatype>audio</mediatype>
						<trackindex>1</trackindex>
						<clipindex>4</clipindex>
						<groupindex>1</groupindex>
					</link>
					<link>
						<linkclipref>MVI_0984 10</linkclipref>
						<mediatype>audio</mediatype>
						<trackindex>2</trackindex>
						<clipindex>4</clipindex>
						<groupindex>1</groupindex>
					</link>
					<itemhistory>
						<uuid>A694F601-D066-425C-9D49-418E32B0069D</uuid>
						<uuid>4FDF4B3F-D2B6-4477-9F45-322E3854CC88</uuid>
					</itemhistory>
				</clipitem>
				<clipitem id="MVI_0986 4">
					<name>MVI_0986</name>
					<duration>14419</duration>
					<rate>
						<ntsc>TRUE</ntsc>
						<timebase>24</timebase>
					</rate>
					<in>0</in>
					<out>14419</out>
					<start>25845</start>
					<end>40264</end>
					<masterclipid>MVI_0986 1</masterclipid>
					<logginginfo>
						<scene/>
						<shottake/>
						<lognote/>
						<good>FALSE</good>
					</logginginfo>
					<labels>
						<label2/>
					</labels>
					<comments>
						<mastercomment1/>
						<mastercomment2/>
						<mastercomment3/>
						<mastercomment4/>
					</comments>
					<file id="MVI_0986 2"/>
					<marker>
						<name>cross discplines</name>
						<comment>disciplines,&#13;dialogue,&#13;subcultures,&#13;tribes,&#13;boundaries,&#13;credence,&#13;definition,&#13;classification,</comment>
						<color>
							<alpha>0</alpha>
							<red>255</red>
							<green>0</green>
							<blue>0</blue>
						</color>
						<in>1179</in>
						<out>1598</out>
					</marker>
					<marker>
						<name>I hate the word nerd</name>
						<comment>Nerd,&#13;tribe,&#13;counterculture,&#13;subcutures,&#13;hacker,&#13;esoteric,&#13;criticality,</comment>
						<color>
							<alpha>0</alpha>
							<red>255</red>
							<green>0</green>
							<blue>0</blue>
						</color>
						<in>3693</in>
						<out>4089</out>
					</marker>
					<marker>
						<name>Stylistic darwinism</name>
						<comment>aesthetics,&#13;evolution,&#13;progress,</comment>
						<color>
							<alpha>0</alpha>
							<red>255</red>
							<green>0</green>
							<blue>0</blue>
						</color>
						<in>6405</in>
						<out>6677</out>
					</marker>
					<marker>
						<name>my work exists in a utopian space,</name>
						<comment>virtual,&#13;utopia,&#13;abstraction,&#13;form,&#13;imaginary,&#13;multiverse,</comment>
						<color>
							<alpha>0</alpha>
							<red>255</red>
							<green>0</green>
							<blue>0</blue>
						</color>
						<in>8923</in>
						<out>9672</out>
					</marker>
					<marker>
						<name>if it's not interesting I abandon it,</name>
						<comment>evolution,&#13;interesting,&#13;process,&#13;creation,&#13;birth</comment>
						<color>
							<alpha>0</alpha>
							<red>255</red>
							<green>0</green>
							<blue>0</blue>
						</color>
						<in>9738</in>
						<out>9812</out>
					</marker>
					<marker>
						<name>Marker 6</name>
						<comment>cyborg,&#13;cyberpunk,&#13;gadgets,&#13;perception,&#13;man vs machine,&#13;science fiction,&#13;progress,</comment>
						<color>
							<alpha>0</alpha>
							<red>255</red>
							<green>0</green>
							<blue>0</blue>
						</color>
						<in>10730</in>
						<out>11287</out>
					</marker>
					<marker>
						<name>We've embraced Dystopia</name>
						<comment>utopia,&#13;dystopia,&#13;science fiction,&#13;cyberpunk,&#13;google,&#13;internet culture,&#13;digital culture,&#13;economics,</comment>
						<color>
							<alpha>0</alpha>
							<red>255</red>
							<green>0</green>
							<blue>0</blue>
						</color>
						<in>11287</in>
						<out>11970</out>
					</marker>
					<marker>
						<name>Predicting the internet</name>
						<comment>speculation,&#13;internet,&#13;futurism,&#13;technological progress,&#13;history,</comment>
						<color>
							<alpha>0</alpha>
							<red>255</red>
							<green>0</green>
							<blue>0</blue>
						</color>
						<in>13060</in>
						<out>13654</out>
					</marker>
					<filter>
						<effect>
							<name>Audio Levels</name>
							<effectid>audiolevels</effectid>
							<effectcategory>audiolevels</effectcategory>
							<effecttype>audiolevels</effecttype>
							<mediatype>audio</mediatype>
							<parameter>
								<name>Level</name>
								<parameterid>level</parameterid>
								<valuemin>0</valuemin>
								<valuemax>3.98109</valuemax>
								<value>1</value>
							</parameter>
						</effect>
					</filter>
					<filter>
						<effect>
							<name>Audio Pan</name>
							<effectid>audiopan</effectid>
							<effectcategory>audiopan</effectcategory>
							<effecttype>audiopan</effecttype>
							<mediatype>audio</mediatype>
							<parameter>
								<name>Pan</name>
								<parameterid>pan</parameterid>
								<valuemin>-1</valuemin>
								<valuemax>1</valuemax>
								<value>1</value>
							</parameter>
						</effect>
					</filter>
					<sourcetrack>
						<mediatype>audio</mediatype>
						<trackindex>2</trackindex>
					</sourcetrack>
					<link>
						<linkclipref>MVI_0986 </linkclipref>
						<mediatype>video</mediatype>
						<trackindex>1</trackindex>
						<clipindex>5</clipindex>
					</link>
					<link>
						<linkclipref>MVI_0986 3</linkclipref>
						<mediatype>audio</mediatype>
						<trackindex>1</trackindex>
						<clipindex>5</clipindex>
						<groupindex>1</groupindex>
					</link>
					<link>
						<linkclipref>MVI_0986 4</linkclipref>
						<mediatype>audio</mediatype>
						<trackindex>2</trackindex>
						<clipindex>5</clipindex>
						<groupindex>1</groupindex>
					</link>
					<itemhistory>
						<uuid>C0A76335-5627-4767-89F8-7DB7B7F65EBB</uuid>
					</itemhistory>
				</clipitem>
				<clipitem id="MVI_0987 4">
					<name>MVI_0987</name>
					<duration>5126</duration>
					<rate>
						<ntsc>TRUE</ntsc>
						<timebase>24</timebase>
					</rate>
					<in>0</in>
					<out>5126</out>
					<start>40264</start>
					<end>45390</end>
					<masterclipid>MVI_0987 1</masterclipid>
					<logginginfo>
						<scene/>
						<shottake/>
						<lognote/>
						<good>FALSE</good>
					</logginginfo>
					<labels>
						<label2/>
					</labels>
					<comments>
						<mastercomment1/>
						<mastercomment2/>
						<mastercomment3/>
						<mastercomment4/>
					</comments>
					<file id="MVI_0987 2"/>
					<marker>
						<name>color 3D printing</name>
						<comment>3D printing,&#13;prediction,&#13;technological progress,&#13;hypothetical aesthetic technology,</comment>
						<color>
							<alpha>0</alpha>
							<red>255</red>
							<green>0</green>
							<blue>0</blue>
						</color>
						<in>447</in>
						<out>853</out>
					</marker>
					<marker>
						<name>3D printing</name>
						<comment>3D printing,&#13;digital meets physical,&#13;sculpture,</comment>
						<color>
							<alpha>0</alpha>
							<red>255</red>
							<green>0</green>
							<blue>0</blue>
						</color>
						<in>1864</in>
						<out>2655</out>
					</marker>
					<marker>
						<name>Becoming mid-career</name>
						<comment>veterans,&#13;generations,&#13;teachers and mentors,&#13;shifts,&#13;newness,</comment>
						<color>
							<alpha>0</alpha>
							<red>255</red>
							<green>0</green>
							<blue>0</blue>
						</color>
						<in>3418</in>
						<out>4619</out>
					</marker>
					<filter>
						<effect>
							<name>Audio Levels</name>
							<effectid>audiolevels</effectid>
							<effectcategory>audiolevels</effectcategory>
							<effecttype>audiolevels</effecttype>
							<mediatype>audio</mediatype>
							<parameter>
								<name>Level</name>
								<parameterid>level</parameterid>
								<valuemin>0</valuemin>
								<valuemax>3.98109</valuemax>
								<value>1</value>
							</parameter>
						</effect>
					</filter>
					<filter>
						<effect>
							<name>Audio Pan</name>
							<effectid>audiopan</effectid>
							<effectcategory>audiopan</effectcategory>
							<effecttype>audiopan</effecttype>
							<mediatype>audio</mediatype>
							<parameter>
								<name>Pan</name>
								<parameterid>pan</parameterid>
								<valuemin>-1</valuemin>
								<valuemax>1</valuemax>
								<value>1</value>
							</parameter>
						</effect>
					</filter>
					<sourcetrack>
						<mediatype>audio</mediatype>
						<trackindex>2</trackindex>
					</sourcetrack>
					<link>
						<linkclipref>MVI_0987 </linkclipref>
						<mediatype>video</mediatype>
						<trackindex>1</trackindex>
						<clipindex>6</clipindex>
					</link>
					<link>
						<linkclipref>MVI_0987 3</linkclipref>
						<mediatype>audio</mediatype>
						<trackindex>1</trackindex>
						<clipindex>6</clipindex>
						<groupindex>1</groupindex>
					</link>
					<link>
						<linkclipref>MVI_0987 4</linkclipref>
						<mediatype>audio</mediatype>
						<trackindex>2</trackindex>
						<clipindex>6</clipindex>
						<groupindex>1</groupindex>
					</link>
					<itemhistory>
						<uuid>89CB03B6-B8F0-4B81-8ACC-0ED39D82D4A8</uuid>
					</itemhistory>
				</clipitem>
				<enabled>TRUE</enabled>
				<locked>FALSE</locked>
				<outputchannelindex>2</outputchannelindex>
			</track>
			<track>
				<enabled>TRUE</enabled>
				<locked>FALSE</locked>
				<outputchannelindex>1</outputchannelindex>
			</track>
			<track>
				<enabled>TRUE</enabled>
				<locked>FALSE</locked>
				<outputchannelindex>2</outputchannelindex>
			</track>
			<filter>
				<effect>
					<name>Audio Levels</name>
					<effectid>audiolevels</effectid>
					<effectcategory>audiolevels</effectcategory>
					<effecttype>audiolevels</effecttype>
					<mediatype>audio</mediatype>
					<parameter>
						<name>Level</name>
						<parameterid>level</parameterid>
						<valuemin>0</valuemin>
						<valuemax>3.98109</valuemax>
						<value>1</value>
					</parameter>
				</effect>
			</filter>
		</audio>
	</media>
	<ismasterclip>FALSE</ismasterclip>
</sequence>
<sequence id="Nervous_Jesse">
	<uuid>79B0850A-735D-4EC5-85AB-DB6A64C815DE</uuid>
	<updatebehavior>add</updatebehavior>
	<name>Nervous_Jesse</name>
	<duration>33979</duration>
	<rate>
		<ntsc>TRUE</ntsc>
		<timebase>24</timebase>
	</rate>
	<timecode>
		<rate>
			<ntsc>TRUE</ntsc>
			<timebase>24</timebase>
		</rate>
		<string>01:00:00:00</string>
		<frame>86400</frame>
		<source>source</source>
		<displayformat>NDF</displayformat>
	</timecode>
	<in>-1</in>
	<out>-1</out>
	<media>
		<video>
			<format>
				<samplecharacteristics>
					<width>1920</width>
					<height>1080</height>
					<anamorphic>FALSE</anamorphic>
					<pixelaspectratio>Square</pixelaspectratio>
					<fielddominance>none</fielddominance>
					<rate>
						<ntsc>TRUE</ntsc>
						<timebase>24</timebase>
					</rate>
					<colordepth>24</colordepth>
					<codec>
						<name>Apple ProRes 422</name>
						<appspecificdata>
							<appname>Final Cut Pro</appname>
							<appmanufacturer>Apple Inc.</appmanufacturer>
							<appversion>7.0</appversion>
							<data>
								<qtcodec>
									<codecname>Apple ProRes 422</codecname>
									<codectypename>Apple ProRes 422 (HQ)</codectypename>
									<codectypecode>apch</codectypecode>
									<codecvendorcode>appl</codecvendorcode>
									<spatialquality>1024</spatialquality>
									<temporalquality>0</temporalquality>
									<keyframerate>0</keyframerate>
									<datarate>0</datarate>
								</qtcodec>
							</data>
						</appspecificdata>
					</codec>
				</samplecharacteristics>
				<appspecificdata>
					<appname>Final Cut Pro</appname>
					<appmanufacturer>Apple Inc.</appmanufacturer>
					<appversion>7.0</appversion>
					<data>
						<fcpimageprocessing>
							<useyuv>TRUE</useyuv>
							<usesuperwhite>FALSE</usesuperwhite>
							<rendermode>Float10BPP</rendermode>
						</fcpimageprocessing>
					</data>
				</appspecificdata>
			</format>
			<track>
				<clipitem id="MVI_0994 ">
					<name>MVI_0994</name>
					<duration>6066</duration>
					<rate>
						<ntsc>TRUE</ntsc>
						<timebase>24</timebase>
					</rate>
					<in>0</in>
					<out>6066</out>
					<start>0</start>
					<end>6066</end>
					<pixelaspectratio>Square</pixelaspectratio>
					<anamorphic>FALSE</anamorphic>
					<alphatype>none</alphatype>
					<masterclipid>MVI_0994 1</masterclipid>
					<logginginfo>
						<scene/>
						<shottake/>
						<lognote/>
						<good>FALSE</good>
					</logginginfo>
					<labels>
						<label2/>
					</labels>
					<comments>
						<mastercomment1/>
						<mastercomment2/>
						<mastercomment3/>
						<mastercomment4/>
					</comments>
					<file id="MVI_0994 2">
						<name>MVI_0994.mov</name>
						<pathurl>file://localhost/Volumes/Nebula/MediaPackages/EyeoMediaBin/Jesse01/color/MVI_0994.mov</pathurl>
						<rate>
							<timebase>24</timebase>
							<ntsc>TRUE</ntsc>
						</rate>
						<duration>6066</duration>
						<media>
							<video>
								<duration>6066</duration>
								<samplecharacteristics>
									<width>1920</width>
									<height>1080</height>
								</samplecharacteristics>
							</video>
							<audio>
								<samplecharacteristics>
									<samplerate>48000</samplerate>
									<depth>16</depth>
								</samplecharacteristics>
								<channelcount>2</channelcount>
							</audio>
						</media>
					</file>
					<marker>
						<name>Marker 2</name>
						<comment>generative art,&#13;system,&#13;&#13;</comment>
						<color>
							<alpha>0</alpha>
							<red>255</red>
							<green>0</green>
							<blue>0</blue>
						</color>
						<in>5340</in>
						<out>5522</out>
					</marker>
					<sourcetrack>
						<mediatype>video</mediatype>
					</sourcetrack>
					<link>
						<linkclipref>MVI_0994 </linkclipref>
						<mediatype>video</mediatype>
						<trackindex>1</trackindex>
						<clipindex>1</clipindex>
					</link>
					<link>
						<linkclipref>MVI_0994 3</linkclipref>
						<mediatype>audio</mediatype>
						<trackindex>1</trackindex>
						<clipindex>1</clipindex>
						<groupindex>1</groupindex>
					</link>
					<link>
						<linkclipref>MVI_0994 4</linkclipref>
						<mediatype>audio</mediatype>
						<trackindex>2</trackindex>
						<clipindex>1</clipindex>
						<groupindex>1</groupindex>
					</link>
					<fielddominance>none</fielddominance>
					<itemhistory>
						<uuid>AB7B5F31-D0E2-45BE-8177-645D1BE20448</uuid>
					</itemhistory>
				</clipitem>
				<clipitem id="MVI_0995 ">
					<name>MVI_0995</name>
					<duration>15302</duration>
					<rate>
						<ntsc>TRUE</ntsc>
						<timebase>24</timebase>
					</rate>
					<in>0</in>
					<out>15302</out>
					<start>6066</start>
					<end>21368</end>
					<pixelaspectratio>Square</pixelaspectratio>
					<enabled>TRUE</enabled>
					<anamorphic>FALSE</anamorphic>
					<alphatype>none</alphatype>
					<masterclipid>MVI_0995 1</masterclipid>
					<logginginfo>
						<scene/>
						<shottake/>
						<lognote/>
						<good>FALSE</good>
					</logginginfo>
					<labels>
						<label2/>
					</labels>
					<comments>
						<mastercomment1/>
						<mastercomment2/>
						<mastercomment3/>
						<mastercomment4/>
					</comments>
					<file id="MVI_0995 2">
						<name>MVI_0995.mov</name>
						<pathurl>file://localhost/Volumes/Nebula/MediaPackages/EyeoMediaBin/Jesse02/color/MVI_0995.mov</pathurl>
						<rate>
							<timebase>24</timebase>
							<ntsc>TRUE</ntsc>
						</rate>
						<duration>15302</duration>
						<media>
							<video>
								<duration>15302</duration>
								<samplecharacteristics>
									<width>1920</width>
									<height>1080</height>
								</samplecharacteristics>
							</video>
							<audio>
								<samplecharacteristics>
									<samplerate>48000</samplerate>
									<depth>16</depth>
								</samplecharacteristics>
								<channelcount>2</channelcount>
							</audio>
						</media>
					</file>
					<marker>
						<name>Marker 1</name>
						<comment>generative art,&#13;system,&#13;process,&#13;emergence,</comment>
						<color>
							<alpha>0</alpha>
							<red>255</red>
							<green>0</green>
							<blue>0</blue>
						</color>
						<in>506</in>
						<out>-1</out>
					</marker>
					<marker>
						<name>breaking the system</name>
						<comment>surprise, &#13;subversion,&#13;system,</comment>
						<color>
							<alpha>0</alpha>
							<red>255</red>
							<green>0</green>
							<blue>0</blue>
						</color>
						<in>1411</in>
						<out>1766</out>
					</marker>
					<marker>
						<name>understanding to control 1</name>
						<comment>contol,&#13;dysfunction,&#13;</comment>
						<color>
							<alpha>0</alpha>
							<red>255</red>
							<green>0</green>
							<blue>0</blue>
						</color>
						<in>5271</in>
						<out>5584</out>
					</marker>
					<marker>
						<name>understanding to control 2</name>
						<comment>What do you find most surprising?,&#13;contol,&#13;dysfunction,&#13;</comment>
						<color>
							<alpha>0</alpha>
							<red>255</red>
							<green>0</green>
							<blue>0</blue>
						</color>
						<in>6521</in>
						<out>6619</out>
					</marker>
					<marker>
						<name>understanding to control 3</name>
						<comment>What do you find most surprising?,&#13;confusion,&#13;error,&#13;dysfunction,&#13;debugging,&#13;complexity,&#13;glitch,&#13;</comment>
						<color>
							<alpha>0</alpha>
							<red>255</red>
							<green>0</green>
							<blue>0</blue>
						</color>
						<in>6676</in>
						<out>7260</out>
					</marker>
					<marker>
						<name>understanding to control 4</name>
						<comment>control,&#13;serendipity,&#13;unexpected,&#13;chance,&#13;process,&#13;intention,&#13;Link: Marius "Parameter space"</comment>
						<color>
							<alpha>0</alpha>
							<red>255</red>
							<green>0</green>
							<blue>0</blue>
						</color>
						<in>7318</in>
						<out>7776</out>
					</marker>
					<marker>
						<name>our explorations are random</name>
						<comment> control, &#13;discovery,&#13;process,&#13;harvesting, &#13;systems,&#13;chance,&#13;&#13;link: Marius "code can be messy" and "constraining randomness"</comment>
						<color>
							<alpha>0</alpha>
							<red>255</red>
							<green>0</green>
							<blue>0</blue>
						</color>
						<in>8092</in>
						<out>8979</out>
					</marker>
					<marker>
						<name>Time in the universe</name>
						<comment>infinity,&#13;time, &#13;NP,&#13;Link: John Maeda "How do computers help us to visualize" information?</comment>
						<color>
							<alpha>0</alpha>
							<red>255</red>
							<green>0</green>
							<blue>0</blue>
						</color>
						<in>9729</in>
						<out>10451</out>
					</marker>
					<marker>
						<name>doing something new with a system</name>
						<comment>infinity,&#13;possibility,&#13;process,&#13;system,&#13;openendedness,&#13;harvesting,&#13;Marius: "continuous process of exploration"&#13;</comment>
						<color>
							<alpha>0</alpha>
							<red>255</red>
							<green>0</green>
							<blue>0</blue>
						</color>
						<in>10955</in>
						<out>11686</out>
					</marker>
					<marker>
						<name>beauty </name>
						<comment>beauty,&#13;abstraction,&#13;art versus engineering,&#13;&#13;</comment>
						<color>
							<alpha>0</alpha>
							<red>255</red>
							<green>0</green>
							<blue>0</blue>
						</color>
						<in>12672</in>
						<out>13127</out>
					</marker>
					<marker>
						<name>we like things tidy</name>
						<comment>elegance,&#13;messiness,&#13;systems,&#13;order,&#13;logic,&#13;link to marius: code can be messy,&#13;link to shiffman: desire for order</comment>
						<color>
							<alpha>0</alpha>
							<red>255</red>
							<green>0</green>
							<blue>0</blue>
						</color>
						<in>13591</in>
						<out>15186</out>
					</marker>
					<sourcetrack>
						<mediatype>video</mediatype>
					</sourcetrack>
					<link>
						<linkclipref>MVI_0995 </linkclipref>
						<mediatype>video</mediatype>
						<trackindex>1</trackindex>
						<clipindex>2</clipindex>
					</link>
					<link>
						<linkclipref>MVI_0995 3</linkclipref>
						<mediatype>audio</mediatype>
						<trackindex>1</trackindex>
						<clipindex>2</clipindex>
						<groupindex>1</groupindex>
					</link>
					<link>
						<linkclipref>MVI_0995 4</linkclipref>
						<mediatype>audio</mediatype>
						<trackindex>2</trackindex>
						<clipindex>2</clipindex>
						<groupindex>1</groupindex>
					</link>
					<fielddominance>none</fielddominance>
					<itemhistory>
						<uuid>C4C538EE-D2C2-4740-8459-A43A59CE2C68</uuid>
					</itemhistory>
				</clipitem>
				<clipitem id="MVI_0996 ">
					<name>MVI_0996</name>
					<duration>12611</duration>
					<rate>
						<ntsc>TRUE</ntsc>
						<timebase>24</timebase>
					</rate>
					<in>0</in>
					<out>12611</out>
					<start>21368</start>
					<end>33979</end>
					<pixelaspectratio>Square</pixelaspectratio>
					<enabled>TRUE</enabled>
					<anamorphic>FALSE</anamorphic>
					<alphatype>none</alphatype>
					<masterclipid>MVI_0996 1</masterclipid>
					<logginginfo>
						<scene/>
						<shottake/>
						<lognote/>
						<good>FALSE</good>
					</logginginfo>
					<labels>
						<label2/>
					</labels>
					<comments>
						<mastercomment1/>
						<mastercomment2/>
						<mastercomment3/>
						<mastercomment4/>
					</comments>
					<file id="MVI_0996 2">
						<name>MVI_0996.mov</name>
						<pathurl>file://localhost/Volumes/Nebula/MediaPackages/EyeoMediaBin/Jesse03/color/MVI_0996.mov</pathurl>
						<rate>
							<timebase>24</timebase>
							<ntsc>TRUE</ntsc>
						</rate>
						<duration>12611</duration>
						<media>
							<video>
								<duration>12611</duration>
								<samplecharacteristics>
									<width>1920</width>
									<height>1080</height>
								</samplecharacteristics>
							</video>
							<audio>
								<samplecharacteristics>
									<samplerate>48000</samplerate>
									<depth>16</depth>
								</samplecharacteristics>
								<channelcount>2</channelcount>
							</audio>
						</media>
					</file>
					<marker>
						<name>limiting open source</name>
						<comment>open source,&#13;closed source,&#13;&#13;</comment>
						<color>
							<alpha>0</alpha>
							<red>255</red>
							<green>0</green>
							<blue>0</blue>
						</color>
						<in>2712</in>
						<out>4070</out>
					</marker>
					<marker>
						<name>Open source education</name>
						<comment>open source,&#13;learning,&#13;&#13;</comment>
						<color>
							<alpha>0</alpha>
							<red>255</red>
							<green>0</green>
							<blue>0</blue>
						</color>
						<in>4398</in>
						<out>5130</out>
					</marker>
					<marker>
						<name>Getting Ripped off</name>
						<comment>style biting,&#13;</comment>
						<color>
							<alpha>0</alpha>
							<red>255</red>
							<green>0</green>
							<blue>0</blue>
						</color>
						<in>5999</in>
						<out>7171</out>
					</marker>
					<marker>
						<name>Marker 4</name>
						<comment/>
						<color>
							<alpha>0</alpha>
							<red>255</red>
							<green>0</green>
							<blue>0</blue>
						</color>
						<in>9144</in>
						<out>-1</out>
					</marker>
					<marker>
						<name>reaction lamp</name>
						<comment>process,&#13;biology,&#13;mimicry,&#13;artificial life,</comment>
						<color>
							<alpha>0</alpha>
							<red>255</red>
							<green>0</green>
							<blue>0</blue>
						</color>
						<in>11263</in>
						<out>11651</out>
					</marker>
					<sourcetrack>
						<mediatype>video</mediatype>
					</sourcetrack>
					<link>
						<linkclipref>MVI_0996 </linkclipref>
						<mediatype>video</mediatype>
						<trackindex>1</trackindex>
						<clipindex>3</clipindex>
					</link>
					<link>
						<linkclipref>MVI_0996 3</linkclipref>
						<mediatype>audio</mediatype>
						<trackindex>1</trackindex>
						<clipindex>3</clipindex>
						<groupindex>1</groupindex>
					</link>
					<link>
						<linkclipref>MVI_0996 4</linkclipref>
						<mediatype>audio</mediatype>
						<trackindex>2</trackindex>
						<clipindex>3</clipindex>
						<groupindex>1</groupindex>
					</link>
					<fielddominance>none</fielddominance>
					<itemhistory>
						<uuid>6F2121EA-740E-4344-A345-61FB1E68E110</uuid>
					</itemhistory>
				</clipitem>
				<enabled>TRUE</enabled>
				<locked>FALSE</locked>
			</track>
			<track>
				<clipitem id="MVI_0995 5">
					<name>MVI_0995</name>
					<duration>15302</duration>
					<rate>
						<ntsc>TRUE</ntsc>
						<timebase>24</timebase>
					</rate>
					<in>0</in>
					<out>15302</out>
					<start>6066</start>
					<end>21368</end>
					<pixelaspectratio>Square</pixelaspectratio>
					<enabled>TRUE</enabled>
					<anamorphic>FALSE</anamorphic>
					<alphatype>none</alphatype>
					<masterclipid>MVI_0995 1</masterclipid>
					<logginginfo>
						<scene/>
						<shottake/>
						<lognote/>
						<good>FALSE</good>
					</logginginfo>
					<labels>
						<label2/>
					</labels>
					<comments>
						<mastercomment1/>
						<mastercomment2/>
						<mastercomment3/>
						<mastercomment4/>
					</comments>
					<file id="MVI_0995 2"/>
					<marker>
						<name>Marker 1</name>
						<comment>generative art,&#13;system,&#13;process,&#13;emergence,</comment>
						<color>
							<alpha>0</alpha>
							<red>255</red>
							<green>0</green>
							<blue>0</blue>
						</color>
						<in>506</in>
						<out>-1</out>
					</marker>
					<marker>
						<name/>
						<comment>comprimise,&#13;simualation,&#13;choosing,&#13;</comment>
						<color>
							<alpha>0</alpha>
							<red>255</red>
							<green>0</green>
							<blue>0</blue>
						</color>
						<in>1900</in>
						<out>2136</out>
					</marker>
					<marker>
						<name/>
						<comment>error,&#13;bugs,&#13;things breaking,&#13;dysfunction,&#13;system,&#13;</comment>
						<color>
							<alpha>0</alpha>
							<red>255</red>
							<green>0</green>
							<blue>0</blue>
						</color>
						<in>5619</in>
						<out>6609</out>
					</marker>
					<marker>
						<name>Biology is messy</name>
						<comment>elegance,&#13;messiness,&#13;systems,&#13;order,&#13;logic,&#13;biology,&#13;link to marius: code can be messy,&#13;link to shiffman: desire for order</comment>
						<color>
							<alpha>0</alpha>
							<red>255</red>
							<green>0</green>
							<blue>0</blue>
						</color>
						<in>14249</in>
						<out>15193</out>
					</marker>
					<sourcetrack>
						<mediatype>video</mediatype>
					</sourcetrack>
					<fielddominance>none</fielddominance>
					<itemhistory>
						<uuid>CAD4FAEA-0887-46B6-BC61-F57CA6029644</uuid>
					</itemhistory>
				</clipitem>
				<enabled>TRUE</enabled>
				<locked>FALSE</locked>
			</track>
		</video>
		<audio>
			<format>
				<samplecharacteristics>
					<depth>16</depth>
					<samplerate>48000</samplerate>
				</samplecharacteristics>
			</format>
			<outputs>
				<group>
					<index>1</index>
					<numchannels>2</numchannels>
					<downmix>0</downmix>
					<channel>
						<index>1</index>
					</channel>
					<channel>
						<index>2</index>
					</channel>
				</group>
			</outputs>
			<in>-1</in>
			<out>-1</out>
			<track>
				<clipitem id="MVI_0994 3">
					<name>MVI_0994</name>
					<duration>6066</duration>
					<rate>
						<ntsc>TRUE</ntsc>
						<timebase>24</timebase>
					</rate>
					<in>0</in>
					<out>6066</out>
					<start>0</start>
					<end>6066</end>
					<masterclipid>MVI_0994 1</masterclipid>
					<logginginfo>
						<scene/>
						<shottake/>
						<lognote/>
						<good>FALSE</good>
					</logginginfo>
					<labels>
						<label2/>
					</labels>
					<comments>
						<mastercomment1/>
						<mastercomment2/>
						<mastercomment3/>
						<mastercomment4/>
					</comments>
					<file id="MVI_0994 2"/>
					<marker>
						<name>Marker 2</name>
						<comment>generative art,&#13;system,&#13;&#13;</comment>
						<color>
							<alpha>0</alpha>
							<red>255</red>
							<green>0</green>
							<blue>0</blue>
						</color>
						<in>5340</in>
						<out>5522</out>
					</marker>
					<filter>
						<effect>
							<name>Audio Levels</name>
							<effectid>audiolevels</effectid>
							<effectcategory>audiolevels</effectcategory>
							<effecttype>audiolevels</effecttype>
							<mediatype>audio</mediatype>
							<parameter>
								<name>Level</name>
								<parameterid>level</parameterid>
								<valuemin>0</valuemin>
								<valuemax>3.98109</valuemax>
								<value>1</value>
							</parameter>
						</effect>
					</filter>
					<filter>
						<effect>
							<name>Audio Pan</name>
							<effectid>audiopan</effectid>
							<effectcategory>audiopan</effectcategory>
							<effecttype>audiopan</effecttype>
							<mediatype>audio</mediatype>
							<parameter>
								<name>Pan</name>
								<parameterid>pan</parameterid>
								<valuemin>-1</valuemin>
								<valuemax>1</valuemax>
								<value>-1</value>
							</parameter>
						</effect>
					</filter>
					<sourcetrack>
						<mediatype>audio</mediatype>
						<trackindex>1</trackindex>
					</sourcetrack>
					<link>
						<linkclipref>MVI_0994 </linkclipref>
						<mediatype>video</mediatype>
						<trackindex>1</trackindex>
						<clipindex>1</clipindex>
					</link>
					<link>
						<linkclipref>MVI_0994 3</linkclipref>
						<mediatype>audio</mediatype>
						<trackindex>1</trackindex>
						<clipindex>1</clipindex>
						<groupindex>1</groupindex>
					</link>
					<link>
						<linkclipref>MVI_0994 4</linkclipref>
						<mediatype>audio</mediatype>
						<trackindex>2</trackindex>
						<clipindex>1</clipindex>
						<groupindex>1</groupindex>
					</link>
					<itemhistory>
						<uuid>55413B89-DA29-404E-93E8-0845C045CB5B</uuid>
					</itemhistory>
				</clipitem>
				<clipitem id="MVI_0995 3">
					<name>MVI_0995</name>
					<duration>15302</duration>
					<rate>
						<ntsc>TRUE</ntsc>
						<timebase>24</timebase>
					</rate>
					<in>0</in>
					<out>15302</out>
					<start>6066</start>
					<end>21368</end>
					<masterclipid>MVI_0995 1</masterclipid>
					<logginginfo>
						<scene/>
						<shottake/>
						<lognote/>
						<good>FALSE</good>
					</logginginfo>
					<labels>
						<label2/>
					</labels>
					<comments>
						<mastercomment1/>
						<mastercomment2/>
						<mastercomment3/>
						<mastercomment4/>
					</comments>
					<file id="MVI_0995 2"/>
					<marker>
						<name>Marker 1</name>
						<comment>generative art,&#13;system,&#13;process,&#13;emergence,</comment>
						<color>
							<alpha>0</alpha>
							<red>255</red>
							<green>0</green>
							<blue>0</blue>
						</color>
						<in>506</in>
						<out>-1</out>
					</marker>
					<marker>
						<name>breaking the system</name>
						<comment>surprise, &#13;subversion,&#13;system,</comment>
						<color>
							<alpha>0</alpha>
							<red>255</red>
							<green>0</green>
							<blue>0</blue>
						</color>
						<in>1411</in>
						<out>1766</out>
					</marker>
					<marker>
						<name>understanding to control 1</name>
						<comment>contol,&#13;dysfunction,&#13;</comment>
						<color>
							<alpha>0</alpha>
							<red>255</red>
							<green>0</green>
							<blue>0</blue>
						</color>
						<in>5271</in>
						<out>5584</out>
					</marker>
					<marker>
						<name>understanding to control 2</name>
						<comment>What do you find most surprising?,&#13;contol,&#13;dysfunction,&#13;</comment>
						<color>
							<alpha>0</alpha>
							<red>255</red>
							<green>0</green>
							<blue>0</blue>
						</color>
						<in>6521</in>
						<out>6619</out>
					</marker>
					<marker>
						<name>understanding to control 3</name>
						<comment>What do you find most surprising?,&#13;confusion,&#13;error,&#13;dysfunction,&#13;debugging,&#13;complexity,&#13;glitch,&#13;</comment>
						<color>
							<alpha>0</alpha>
							<red>255</red>
							<green>0</green>
							<blue>0</blue>
						</color>
						<in>6676</in>
						<out>7260</out>
					</marker>
					<marker>
						<name>understanding to control 4</name>
						<comment>control,&#13;serendipity,&#13;unexpected,&#13;chance,&#13;process,&#13;intention,&#13;Link: Marius "Parameter space"</comment>
						<color>
							<alpha>0</alpha>
							<red>255</red>
							<green>0</green>
							<blue>0</blue>
						</color>
						<in>7318</in>
						<out>7776</out>
					</marker>
					<marker>
						<name>our explorations are random</name>
						<comment> control, &#13;discovery,&#13;process,&#13;harvesting, &#13;systems,&#13;chance,&#13;&#13;link: Marius "code can be messy" and "constraining randomness"</comment>
						<color>
							<alpha>0</alpha>
							<red>255</red>
							<green>0</green>
							<blue>0</blue>
						</color>
						<in>8092</in>
						<out>8979</out>
					</marker>
					<marker>
						<name>Time in the universe</name>
						<comment>infinity,&#13;time, &#13;NP,&#13;Link: John Maeda "How do computers help us to visualize" information?</comment>
						<color>
							<alpha>0</alpha>
							<red>255</red>
							<green>0</green>
							<blue>0</blue>
						</color>
						<in>9729</in>
						<out>10451</out>
					</marker>
					<marker>
						<name>doing something new with a system</name>
						<comment>infinity,&#13;possibility,&#13;process,&#13;system,&#13;openendedness,&#13;harvesting,&#13;Marius: "continuous process of exploration"&#13;</comment>
						<color>
							<alpha>0</alpha>
							<red>255</red>
							<green>0</green>
							<blue>0</blue>
						</color>
						<in>10955</in>
						<out>11686</out>
					</marker>
					<marker>
						<name>beauty </name>
						<comment>beauty,&#13;abstraction,&#13;art versus engineering,&#13;&#13;</comment>
						<color>
							<alpha>0</alpha>
							<red>255</red>
							<green>0</green>
							<blue>0</blue>
						</color>
						<in>12672</in>
						<out>13127</out>
					</marker>
					<marker>
						<name>we like things tidy</name>
						<comment>elegance,&#13;messiness,&#13;systems,&#13;order,&#13;logic,&#13;link to marius: code can be messy,&#13;link to shiffman: desire for order</comment>
						<color>
							<alpha>0</alpha>
							<red>255</red>
							<green>0</green>
							<blue>0</blue>
						</color>
						<in>13591</in>
						<out>15186</out>
					</marker>
					<filter>
						<effect>
							<name>Audio Levels</name>
							<effectid>audiolevels</effectid>
							<effectcategory>audiolevels</effectcategory>
							<effecttype>audiolevels</effecttype>
							<mediatype>audio</mediatype>
							<parameter>
								<name>Level</name>
								<parameterid>level</parameterid>
								<valuemin>0</valuemin>
								<valuemax>3.98109</valuemax>
								<value>1</value>
							</parameter>
						</effect>
					</filter>
					<filter>
						<effect>
							<name>Audio Pan</name>
							<effectid>audiopan</effectid>
							<effectcategory>audiopan</effectcategory>
							<effecttype>audiopan</effecttype>
							<mediatype>audio</mediatype>
							<parameter>
								<name>Pan</name>
								<parameterid>pan</parameterid>
								<valuemin>-1</valuemin>
								<valuemax>1</valuemax>
								<value>-1</value>
							</parameter>
						</effect>
					</filter>
					<sourcetrack>
						<mediatype>audio</mediatype>
						<trackindex>1</trackindex>
					</sourcetrack>
					<link>
						<linkclipref>MVI_0995 </linkclipref>
						<mediatype>video</mediatype>
						<trackindex>1</trackindex>
						<clipindex>2</clipindex>
					</link>
					<link>
						<linkclipref>MVI_0995 3</linkclipref>
						<mediatype>audio</mediatype>
						<trackindex>1</trackindex>
						<clipindex>2</clipindex>
						<groupindex>1</groupindex>
					</link>
					<link>
						<linkclipref>MVI_0995 4</linkclipref>
						<mediatype>audio</mediatype>
						<trackindex>2</trackindex>
						<clipindex>2</clipindex>
						<groupindex>1</groupindex>
					</link>
					<itemhistory>
						<uuid>A18C4EDB-BF01-4EBC-A395-BCCFE708D3AD</uuid>
					</itemhistory>
				</clipitem>
				<clipitem id="MVI_0996 3">
					<name>MVI_0996</name>
					<duration>12611</duration>
					<rate>
						<ntsc>TRUE</ntsc>
						<timebase>24</timebase>
					</rate>
					<in>0</in>
					<out>12611</out>
					<start>21368</start>
					<end>33979</end>
					<masterclipid>MVI_0996 1</masterclipid>
					<logginginfo>
						<scene/>
						<shottake/>
						<lognote/>
						<good>FALSE</good>
					</logginginfo>
					<labels>
						<label2/>
					</labels>
					<comments>
						<mastercomment1/>
						<mastercomment2/>
						<mastercomment3/>
						<mastercomment4/>
					</comments>
					<file id="MVI_0996 2"/>
					<marker>
						<name>limiting open source</name>
						<comment>open source,&#13;closed source,&#13;&#13;</comment>
						<color>
							<alpha>0</alpha>
							<red>255</red>
							<green>0</green>
							<blue>0</blue>
						</color>
						<in>2712</in>
						<out>4070</out>
					</marker>
					<marker>
						<name>Open source education</name>
						<comment>open source,&#13;learning,&#13;&#13;</comment>
						<color>
							<alpha>0</alpha>
							<red>255</red>
							<green>0</green>
							<blue>0</blue>
						</color>
						<in>4398</in>
						<out>5130</out>
					</marker>
					<marker>
						<name>Getting Ripped off</name>
						<comment>style biting,&#13;</comment>
						<color>
							<alpha>0</alpha>
							<red>255</red>
							<green>0</green>
							<blue>0</blue>
						</color>
						<in>5999</in>
						<out>7171</out>
					</marker>
					<marker>
						<name>Marker 4</name>
						<comment/>
						<color>
							<alpha>0</alpha>
							<red>255</red>
							<green>0</green>
							<blue>0</blue>
						</color>
						<in>9144</in>
						<out>-1</out>
					</marker>
					<marker>
						<name>reaction lamp</name>
						<comment>process,&#13;biology,&#13;mimicry,&#13;artificial life,</comment>
						<color>
							<alpha>0</alpha>
							<red>255</red>
							<green>0</green>
							<blue>0</blue>
						</color>
						<in>11263</in>
						<out>11651</out>
					</marker>
					<filter>
						<effect>
							<name>Audio Levels</name>
							<effectid>audiolevels</effectid>
							<effectcategory>audiolevels</effectcategory>
							<effecttype>audiolevels</effecttype>
							<mediatype>audio</mediatype>
							<parameter>
								<name>Level</name>
								<parameterid>level</parameterid>
								<valuemin>0</valuemin>
								<valuemax>3.98109</valuemax>
								<value>1</value>
							</parameter>
						</effect>
					</filter>
					<filter>
						<effect>
							<name>Audio Pan</name>
							<effectid>audiopan</effectid>
							<effectcategory>audiopan</effectcategory>
							<effecttype>audiopan</effecttype>
							<mediatype>audio</mediatype>
							<parameter>
								<name>Pan</name>
								<parameterid>pan</parameterid>
								<valuemin>-1</valuemin>
								<valuemax>1</valuemax>
								<value>-1</value>
							</parameter>
						</effect>
					</filter>
					<sourcetrack>
						<mediatype>audio</mediatype>
						<trackindex>1</trackindex>
					</sourcetrack>
					<link>
						<linkclipref>MVI_0996 </linkclipref>
						<mediatype>video</mediatype>
						<trackindex>1</trackindex>
						<clipindex>3</clipindex>
					</link>
					<link>
						<linkclipref>MVI_0996 3</linkclipref>
						<mediatype>audio</mediatype>
						<trackindex>1</trackindex>
						<clipindex>3</clipindex>
						<groupindex>1</groupindex>
					</link>
					<link>
						<linkclipref>MVI_0996 4</linkclipref>
						<mediatype>audio</mediatype>
						<trackindex>2</trackindex>
						<clipindex>3</clipindex>
						<groupindex>1</groupindex>
					</link>
					<itemhistory>
						<uuid>54BBAFAE-237E-4ABC-845B-A8A590E7C231</uuid>
					</itemhistory>
				</clipitem>
				<enabled>TRUE</enabled>
				<locked>FALSE</locked>
				<outputchannelindex>1</outputchannelindex>
			</track>
			<track>
				<clipitem id="MVI_0994 4">
					<name>MVI_0994</name>
					<duration>6066</duration>
					<rate>
						<ntsc>TRUE</ntsc>
						<timebase>24</timebase>
					</rate>
					<in>0</in>
					<out>6066</out>
					<start>0</start>
					<end>6066</end>
					<masterclipid>MVI_0994 1</masterclipid>
					<logginginfo>
						<scene/>
						<shottake/>
						<lognote/>
						<good>FALSE</good>
					</logginginfo>
					<labels>
						<label2/>
					</labels>
					<comments>
						<mastercomment1/>
						<mastercomment2/>
						<mastercomment3/>
						<mastercomment4/>
					</comments>
					<file id="MVI_0994 2"/>
					<marker>
						<name>Marker 2</name>
						<comment>generative art,&#13;system,&#13;&#13;</comment>
						<color>
							<alpha>0</alpha>
							<red>255</red>
							<green>0</green>
							<blue>0</blue>
						</color>
						<in>5340</in>
						<out>5522</out>
					</marker>
					<filter>
						<effect>
							<name>Audio Levels</name>
							<effectid>audiolevels</effectid>
							<effectcategory>audiolevels</effectcategory>
							<effecttype>audiolevels</effecttype>
							<mediatype>audio</mediatype>
							<parameter>
								<name>Level</name>
								<parameterid>level</parameterid>
								<valuemin>0</valuemin>
								<valuemax>3.98109</valuemax>
								<value>1</value>
							</parameter>
						</effect>
					</filter>
					<filter>
						<effect>
							<name>Audio Pan</name>
							<effectid>audiopan</effectid>
							<effectcategory>audiopan</effectcategory>
							<effecttype>audiopan</effecttype>
							<mediatype>audio</mediatype>
							<parameter>
								<name>Pan</name>
								<parameterid>pan</parameterid>
								<valuemin>-1</valuemin>
								<valuemax>1</valuemax>
								<value>1</value>
							</parameter>
						</effect>
					</filter>
					<sourcetrack>
						<mediatype>audio</mediatype>
						<trackindex>2</trackindex>
					</sourcetrack>
					<link>
						<linkclipref>MVI_0994 </linkclipref>
						<mediatype>video</mediatype>
						<trackindex>1</trackindex>
						<clipindex>1</clipindex>
					</link>
					<link>
						<linkclipref>MVI_0994 3</linkclipref>
						<mediatype>audio</mediatype>
						<trackindex>1</trackindex>
						<clipindex>1</clipindex>
						<groupindex>1</groupindex>
					</link>
					<link>
						<linkclipref>MVI_0994 4</linkclipref>
						<mediatype>audio</mediatype>
						<trackindex>2</trackindex>
						<clipindex>1</clipindex>
						<groupindex>1</groupindex>
					</link>
					<itemhistory>
						<uuid>82A11BE8-88A9-4946-86CB-A732F2F5103B</uuid>
					</itemhistory>
				</clipitem>
				<clipitem id="MVI_0995 4">
					<name>MVI_0995</name>
					<duration>15302</duration>
					<rate>
						<ntsc>TRUE</ntsc>
						<timebase>24</timebase>
					</rate>
					<in>0</in>
					<out>15302</out>
					<start>6066</start>
					<end>21368</end>
					<masterclipid>MVI_0995 1</masterclipid>
					<logginginfo>
						<scene/>
						<shottake/>
						<lognote/>
						<good>FALSE</good>
					</logginginfo>
					<labels>
						<label2/>
					</labels>
					<comments>
						<mastercomment1/>
						<mastercomment2/>
						<mastercomment3/>
						<mastercomment4/>
					</comments>
					<file id="MVI_0995 2"/>
					<marker>
						<name>Marker 1</name>
						<comment>generative art,&#13;system,&#13;process,&#13;emergence,</comment>
						<color>
							<alpha>0</alpha>
							<red>255</red>
							<green>0</green>
							<blue>0</blue>
						</color>
						<in>506</in>
						<out>-1</out>
					</marker>
					<marker>
						<name>breaking the system</name>
						<comment>surprise, &#13;subversion,&#13;system,</comment>
						<color>
							<alpha>0</alpha>
							<red>255</red>
							<green>0</green>
							<blue>0</blue>
						</color>
						<in>1411</in>
						<out>1766</out>
					</marker>
					<marker>
						<name>understanding to control 1</name>
						<comment>contol,&#13;dysfunction,&#13;</comment>
						<color>
							<alpha>0</alpha>
							<red>255</red>
							<green>0</green>
							<blue>0</blue>
						</color>
						<in>5271</in>
						<out>5584</out>
					</marker>
					<marker>
						<name>understanding to control 2</name>
						<comment>What do you find most surprising?,&#13;contol,&#13;dysfunction,&#13;</comment>
						<color>
							<alpha>0</alpha>
							<red>255</red>
							<green>0</green>
							<blue>0</blue>
						</color>
						<in>6521</in>
						<out>6619</out>
					</marker>
					<marker>
						<name>understanding to control 3</name>
						<comment>What do you find most surprising?,&#13;confusion,&#13;error,&#13;dysfunction,&#13;debugging,&#13;complexity,&#13;glitch,&#13;</comment>
						<color>
							<alpha>0</alpha>
							<red>255</red>
							<green>0</green>
							<blue>0</blue>
						</color>
						<in>6676</in>
						<out>7260</out>
					</marker>
					<marker>
						<name>understanding to control 4</name>
						<comment>control,&#13;serendipity,&#13;unexpected,&#13;chance,&#13;process,&#13;intention,&#13;Link: Marius "Parameter space"</comment>
						<color>
							<alpha>0</alpha>
							<red>255</red>
							<green>0</green>
							<blue>0</blue>
						</color>
						<in>7318</in>
						<out>7776</out>
					</marker>
					<marker>
						<name>our explorations are random</name>
						<comment> control, &#13;discovery,&#13;process,&#13;harvesting, &#13;systems,&#13;chance,&#13;&#13;link: Marius "code can be messy" and "constraining randomness"</comment>
						<color>
							<alpha>0</alpha>
							<red>255</red>
							<green>0</green>
							<blue>0</blue>
						</color>
						<in>8092</in>
						<out>8979</out>
					</marker>
					<marker>
						<name>Time in the universe</name>
						<comment>infinity,&#13;time, &#13;NP,&#13;Link: John Maeda "How do computers help us to visualize" information?</comment>
						<color>
							<alpha>0</alpha>
							<red>255</red>
							<green>0</green>
							<blue>0</blue>
						</color>
						<in>9729</in>
						<out>10451</out>
					</marker>
					<marker>
						<name>doing something new with a system</name>
						<comment>infinity,&#13;possibility,&#13;process,&#13;system,&#13;openendedness,&#13;harvesting,&#13;Marius: "continuous process of exploration"&#13;</comment>
						<color>
							<alpha>0</alpha>
							<red>255</red>
							<green>0</green>
							<blue>0</blue>
						</color>
						<in>10955</in>
						<out>11686</out>
					</marker>
					<marker>
						<name>beauty </name>
						<comment>beauty,&#13;abstraction,&#13;art versus engineering,&#13;&#13;</comment>
						<color>
							<alpha>0</alpha>
							<red>255</red>
							<green>0</green>
							<blue>0</blue>
						</color>
						<in>12672</in>
						<out>13127</out>
					</marker>
					<marker>
						<name>we like things tidy</name>
						<comment>elegance,&#13;messiness,&#13;systems,&#13;order,&#13;logic,&#13;link to marius: code can be messy,&#13;link to shiffman: desire for order</comment>
						<color>
							<alpha>0</alpha>
							<red>255</red>
							<green>0</green>
							<blue>0</blue>
						</color>
						<in>13591</in>
						<out>15186</out>
					</marker>
					<filter>
						<effect>
							<name>Audio Levels</name>
							<effectid>audiolevels</effectid>
							<effectcategory>audiolevels</effectcategory>
							<effecttype>audiolevels</effecttype>
							<mediatype>audio</mediatype>
							<parameter>
								<name>Level</name>
								<parameterid>level</parameterid>
								<valuemin>0</valuemin>
								<valuemax>3.98109</valuemax>
								<value>1</value>
							</parameter>
						</effect>
					</filter>
					<filter>
						<effect>
							<name>Audio Pan</name>
							<effectid>audiopan</effectid>
							<effectcategory>audiopan</effectcategory>
							<effecttype>audiopan</effecttype>
							<mediatype>audio</mediatype>
							<parameter>
								<name>Pan</name>
								<parameterid>pan</parameterid>
								<valuemin>-1</valuemin>
								<valuemax>1</valuemax>
								<value>1</value>
							</parameter>
						</effect>
					</filter>
					<sourcetrack>
						<mediatype>audio</mediatype>
						<trackindex>2</trackindex>
					</sourcetrack>
					<link>
						<linkclipref>MVI_0995 </linkclipref>
						<mediatype>video</mediatype>
						<trackindex>1</trackindex>
						<clipindex>2</clipindex>
					</link>
					<link>
						<linkclipref>MVI_0995 3</linkclipref>
						<mediatype>audio</mediatype>
						<trackindex>1</trackindex>
						<clipindex>2</clipindex>
						<groupindex>1</groupindex>
					</link>
					<link>
						<linkclipref>MVI_0995 4</linkclipref>
						<mediatype>audio</mediatype>
						<trackindex>2</trackindex>
						<clipindex>2</clipindex>
						<groupindex>1</groupindex>
					</link>
					<itemhistory>
						<uuid>9AEB4211-059E-44F1-A6B7-526D86BFF4B9</uuid>
					</itemhistory>
				</clipitem>
				<clipitem id="MVI_0996 4">
					<name>MVI_0996</name>
					<duration>12611</duration>
					<rate>
						<ntsc>TRUE</ntsc>
						<timebase>24</timebase>
					</rate>
					<in>0</in>
					<out>12611</out>
					<start>21368</start>
					<end>33979</end>
					<masterclipid>MVI_0996 1</masterclipid>
					<logginginfo>
						<scene/>
						<shottake/>
						<lognote/>
						<good>FALSE</good>
					</logginginfo>
					<labels>
						<label2/>
					</labels>
					<comments>
						<mastercomment1/>
						<mastercomment2/>
						<mastercomment3/>
						<mastercomment4/>
					</comments>
					<file id="MVI_0996 2"/>
					<marker>
						<name>limiting open source</name>
						<comment>open source,&#13;closed source,&#13;&#13;</comment>
						<color>
							<alpha>0</alpha>
							<red>255</red>
							<green>0</green>
							<blue>0</blue>
						</color>
						<in>2712</in>
						<out>4070</out>
					</marker>
					<marker>
						<name>Open source education</name>
						<comment>open source,&#13;learning,&#13;&#13;</comment>
						<color>
							<alpha>0</alpha>
							<red>255</red>
							<green>0</green>
							<blue>0</blue>
						</color>
						<in>4398</in>
						<out>5130</out>
					</marker>
					<marker>
						<name>Getting Ripped off</name>
						<comment>style biting,&#13;</comment>
						<color>
							<alpha>0</alpha>
							<red>255</red>
							<green>0</green>
							<blue>0</blue>
						</color>
						<in>5999</in>
						<out>7171</out>
					</marker>
					<marker>
						<name>Marker 4</name>
						<comment/>
						<color>
							<alpha>0</alpha>
							<red>255</red>
							<green>0</green>
							<blue>0</blue>
						</color>
						<in>9144</in>
						<out>-1</out>
					</marker>
					<marker>
						<name>reaction lamp</name>
						<comment>process,&#13;biology,&#13;mimicry,&#13;artificial life,</comment>
						<color>
							<alpha>0</alpha>
							<red>255</red>
							<green>0</green>
							<blue>0</blue>
						</color>
						<in>11263</in>
						<out>11651</out>
					</marker>
					<filter>
						<effect>
							<name>Audio Levels</name>
							<effectid>audiolevels</effectid>
							<effectcategory>audiolevels</effectcategory>
							<effecttype>audiolevels</effecttype>
							<mediatype>audio</mediatype>
							<parameter>
								<name>Level</name>
								<parameterid>level</parameterid>
								<valuemin>0</valuemin>
								<valuemax>3.98109</valuemax>
								<value>1</value>
							</parameter>
						</effect>
					</filter>
					<filter>
						<effect>
							<name>Audio Pan</name>
							<effectid>audiopan</effectid>
							<effectcategory>audiopan</effectcategory>
							<effecttype>audiopan</effecttype>
							<mediatype>audio</mediatype>
							<parameter>
								<name>Pan</name>
								<parameterid>pan</parameterid>
								<valuemin>-1</valuemin>
								<valuemax>1</valuemax>
								<value>1</value>
							</parameter>
						</effect>
					</filter>
					<sourcetrack>
						<mediatype>audio</mediatype>
						<trackindex>2</trackindex>
					</sourcetrack>
					<link>
						<linkclipref>MVI_0996 </linkclipref>
						<mediatype>video</mediatype>
						<trackindex>1</trackindex>
						<clipindex>3</clipindex>
					</link>
					<link>
						<linkclipref>MVI_0996 3</linkclipref>
						<mediatype>audio</mediatype>
						<trackindex>1</trackindex>
						<clipindex>3</clipindex>
						<groupindex>1</groupindex>
					</link>
					<link>
						<linkclipref>MVI_0996 4</linkclipref>
						<mediatype>audio</mediatype>
						<trackindex>2</trackindex>
						<clipindex>3</clipindex>
						<groupindex>1</groupindex>
					</link>
					<itemhistory>
						<uuid>DCCA9D12-00C6-4A23-BBB5-6AA0B401EE68</uuid>
					</itemhistory>
				</clipitem>
				<enabled>TRUE</enabled>
				<locked>FALSE</locked>
				<outputchannelindex>2</outputchannelindex>
			</track>
			<track>
				<enabled>TRUE</enabled>
				<locked>FALSE</locked>
				<outputchannelindex>1</outputchannelindex>
			</track>
			<track>
				<enabled>TRUE</enabled>
				<locked>FALSE</locked>
				<outputchannelindex>2</outputchannelindex>
			</track>
			<filter>
				<effect>
					<name>Audio Levels</name>
					<effectid>audiolevels</effectid>
					<effectcategory>audiolevels</effectcategory>
					<effecttype>audiolevels</effecttype>
					<mediatype>audio</mediatype>
					<parameter>
						<name>Level</name>
						<parameterid>level</parameterid>
						<valuemin>0</valuemin>
						<valuemax>3.98109</valuemax>
						<value>1</value>
					</parameter>
				</effect>
			</filter>
		</audio>
	</media>
	<ismasterclip>FALSE</ismasterclip>
</sequence>
<sequence id="Nervous_Jessica">
	<uuid>D3E5EFAD-D5E7-4707-9705-7AF3750E8404</uuid>
	<updatebehavior>add</updatebehavior>
	<name>Nervous_Jessica</name>
	<duration>26277</duration>
	<rate>
		<ntsc>TRUE</ntsc>
		<timebase>24</timebase>
	</rate>
	<timecode>
		<rate>
			<ntsc>TRUE</ntsc>
			<timebase>24</timebase>
		</rate>
		<string>01:00:00:00</string>
		<frame>86400</frame>
		<source>source</source>
		<displayformat>NDF</displayformat>
	</timecode>
	<in>-1</in>
	<out>-1</out>
	<media>
		<video>
			<format>
				<samplecharacteristics>
					<width>1920</width>
					<height>1080</height>
					<anamorphic>FALSE</anamorphic>
					<pixelaspectratio>Square</pixelaspectratio>
					<fielddominance>none</fielddominance>
					<rate>
						<ntsc>TRUE</ntsc>
						<timebase>24</timebase>
					</rate>
					<colordepth>24</colordepth>
					<codec>
						<name>Apple ProRes 422</name>
						<appspecificdata>
							<appname>Final Cut Pro</appname>
							<appmanufacturer>Apple Inc.</appmanufacturer>
							<appversion>7.0</appversion>
							<data>
								<qtcodec>
									<codecname>Apple ProRes 422</codecname>
									<codectypename>Apple ProRes 422 (HQ)</codectypename>
									<codectypecode>apch</codectypecode>
									<codecvendorcode>appl</codecvendorcode>
									<spatialquality>1024</spatialquality>
									<temporalquality>0</temporalquality>
									<keyframerate>0</keyframerate>
									<datarate>0</datarate>
								</qtcodec>
							</data>
						</appspecificdata>
					</codec>
				</samplecharacteristics>
				<appspecificdata>
					<appname>Final Cut Pro</appname>
					<appmanufacturer>Apple Inc.</appmanufacturer>
					<appversion>7.0</appversion>
					<data>
						<fcpimageprocessing>
							<useyuv>TRUE</useyuv>
							<usesuperwhite>FALSE</usesuperwhite>
							<rendermode>Float10BPP</rendermode>
						</fcpimageprocessing>
					</data>
				</appspecificdata>
			</format>
			<track>
				<clipitem id="MVI_0992 ">
					<name>MVI_0992</name>
					<duration>15851</duration>
					<rate>
						<ntsc>TRUE</ntsc>
						<timebase>24</timebase>
					</rate>
					<in>0</in>
					<out>14054</out>
					<start>0</start>
					<end>14054</end>
					<pixelaspectratio>Square</pixelaspectratio>
					<anamorphic>FALSE</anamorphic>
					<alphatype>none</alphatype>
					<masterclipid>MVI_0992 1</masterclipid>
					<logginginfo>
						<scene/>
						<shottake/>
						<lognote/>
						<good>FALSE</good>
					</logginginfo>
					<labels>
						<label2/>
					</labels>
					<comments>
						<mastercomment1/>
						<mastercomment2/>
						<mastercomment3/>
						<mastercomment4/>
					</comments>
					<file id="MVI_0992 2">
						<name>MVI_0992.mov</name>
						<pathurl>file://localhost/Volumes/Nebula/MediaPackages/EyeoMediaBin/Jessica01/color/MVI_0992.mov</pathurl>
						<rate>
							<timebase>24</timebase>
							<ntsc>TRUE</ntsc>
						</rate>
						<duration>15851</duration>
						<media>
							<video>
								<duration>15851</duration>
								<samplecharacteristics>
									<width>1920</width>
									<height>1080</height>
								</samplecharacteristics>
							</video>
							<audio>
								<samplecharacteristics>
									<samplerate>48000</samplerate>
									<depth>16</depth>
								</samplecharacteristics>
								<channelcount>2</channelcount>
							</audio>
						</media>
					</file>
					<marker>
						<name>MIT beginning</name>
						<comment>beginning,&#13;learning,&#13;John Maeda,</comment>
						<color>
							<alpha>0</alpha>
							<red>255</red>
							<green>0</green>
							<blue>0</blue>
						</color>
						<in>1963</in>
						<out>2583</out>
					</marker>
					<marker>
						<name>Can't draw</name>
						<comment>Drawing,&#13;talent,&#13;mind and hand,&#13;Link: Shiffman - sketching with code,</comment>
						<color>
							<alpha>0</alpha>
							<red>255</red>
							<green>0</green>
							<blue>0</blue>
						</color>
						<in>4216</in>
						<out>5086</out>
					</marker>
					<marker>
						<name>John Maeda</name>
						<comment>John Maeda,&#13;Aesthetics and computation,&#13;processing,&#13;learning,&#13;media lab,</comment>
						<color>
							<alpha>0</alpha>
							<red>255</red>
							<green>0</green>
							<blue>0</blue>
						</color>
						<in>7613</in>
						<out>8064</out>
					</marker>
					<marker>
						<name>RNA and Viruses</name>
						<comment>Biology,&#13;code of life,&#13;art and science,</comment>
						<color>
							<alpha>0</alpha>
							<red>255</red>
							<green>0</green>
							<blue>0</blue>
						</color>
						<in>8347</in>
						<out>10317</out>
					</marker>
					<sourcetrack>
						<mediatype>video</mediatype>
					</sourcetrack>
					<link>
						<linkclipref>MVI_0992 </linkclipref>
						<mediatype>video</mediatype>
						<trackindex>1</trackindex>
						<clipindex>1</clipindex>
					</link>
					<link>
						<linkclipref>MVI_0992 3</linkclipref>
						<mediatype>audio</mediatype>
						<trackindex>1</trackindex>
						<clipindex>1</clipindex>
						<groupindex>1</groupindex>
					</link>
					<link>
						<linkclipref>MVI_0992 4</linkclipref>
						<mediatype>audio</mediatype>
						<trackindex>2</trackindex>
						<clipindex>1</clipindex>
						<groupindex>1</groupindex>
					</link>
					<fielddominance>none</fielddominance>
					<itemhistory>
						<uuid>36F44AE9-A502-41AF-A77F-FA0D75EAC4B6</uuid>
						<uuid>867F2BC2-0580-4C0E-9FF7-5610E2D4E916</uuid>
					</itemhistory>
				</clipitem>
				<clipitem id="MVI_0992 5">
					<name>MVI_0992</name>
					<duration>15851</duration>
					<rate>
						<ntsc>TRUE</ntsc>
						<timebase>24</timebase>
					</rate>
					<in>14054</in>
					<out>15246</out>
					<start>14054</start>
					<end>15246</end>
					<pixelaspectratio>Square</pixelaspectratio>
					<anamorphic>FALSE</anamorphic>
					<alphatype>none</alphatype>
					<masterclipid>MVI_0992 1</masterclipid>
					<logginginfo>
						<scene/>
						<shottake/>
						<lognote/>
						<good>FALSE</good>
					</logginginfo>
					<labels>
						<label2/>
					</labels>
					<comments>
						<mastercomment1/>
						<mastercomment2/>
						<mastercomment3/>
						<mastercomment4/>
					</comments>
					<file id="MVI_0992 2"/>
					<marker>
						<name>MIT beginning</name>
						<comment>beginning,&#13;learning,&#13;John Maeda,</comment>
						<color>
							<alpha>0</alpha>
							<red>255</red>
							<green>0</green>
							<blue>0</blue>
						</color>
						<in>1963</in>
						<out>2583</out>
					</marker>
					<marker>
						<name>Can't draw</name>
						<comment>Drawing,&#13;talent,&#13;mind and hand,&#13;Link: Shiffman - sketching with code,</comment>
						<color>
							<alpha>0</alpha>
							<red>255</red>
							<green>0</green>
							<blue>0</blue>
						</color>
						<in>4216</in>
						<out>5086</out>
					</marker>
					<marker>
						<name>John Maeda</name>
						<comment>John Maeda,&#13;Aesthetics and computation,&#13;processing,&#13;learning,&#13;media lab,</comment>
						<color>
							<alpha>0</alpha>
							<red>255</red>
							<green>0</green>
							<blue>0</blue>
						</color>
						<in>7613</in>
						<out>8064</out>
					</marker>
					<marker>
						<name>RNA and Viruses</name>
						<comment>Biology,&#13;code of life,&#13;art and science,</comment>
						<color>
							<alpha>0</alpha>
							<red>255</red>
							<green>0</green>
							<blue>0</blue>
						</color>
						<in>8347</in>
						<out>10317</out>
					</marker>
					<sourcetrack>
						<mediatype>video</mediatype>
					</sourcetrack>
					<link>
						<linkclipref>MVI_0992 5</linkclipref>
						<mediatype>video</mediatype>
						<trackindex>1</trackindex>
						<clipindex>2</clipindex>
					</link>
					<link>
						<linkclipref>MVI_0992 6</linkclipref>
						<mediatype>audio</mediatype>
						<trackindex>1</trackindex>
						<clipindex>2</clipindex>
						<groupindex>1</groupindex>
					</link>
					<link>
						<linkclipref>MVI_0992 7</linkclipref>
						<mediatype>audio</mediatype>
						<trackindex>2</trackindex>
						<clipindex>2</clipindex>
						<groupindex>1</groupindex>
					</link>
					<fielddominance>none</fielddominance>
					<itemhistory>
						<uuid>92485779-B6E7-4A48-A365-783F926297EA</uuid>
						<uuid>867F2BC2-0580-4C0E-9FF7-5610E2D4E916</uuid>
					</itemhistory>
				</clipitem>
				<clipitem id="MVI_0992 8">
					<name>MVI_0992</name>
					<duration>15851</duration>
					<rate>
						<ntsc>TRUE</ntsc>
						<timebase>24</timebase>
					</rate>
					<in>15246</in>
					<out>15851</out>
					<start>15246</start>
					<end>15851</end>
					<pixelaspectratio>Square</pixelaspectratio>
					<anamorphic>FALSE</anamorphic>
					<alphatype>none</alphatype>
					<masterclipid>MVI_0992 1</masterclipid>
					<logginginfo>
						<scene/>
						<shottake/>
						<lognote/>
						<good>FALSE</good>
					</logginginfo>
					<labels>
						<label2/>
					</labels>
					<comments>
						<mastercomment1/>
						<mastercomment2/>
						<mastercomment3/>
						<mastercomment4/>
					</comments>
					<file id="MVI_0992 2"/>
					<marker>
						<name>MIT beginning</name>
						<comment>beginning,&#13;learning,&#13;John Maeda,</comment>
						<color>
							<alpha>0</alpha>
							<red>255</red>
							<green>0</green>
							<blue>0</blue>
						</color>
						<in>1963</in>
						<out>2583</out>
					</marker>
					<marker>
						<name>Can't draw</name>
						<comment>Drawing,&#13;talent,&#13;mind and hand,&#13;Link: Shiffman - sketching with code,</comment>
						<color>
							<alpha>0</alpha>
							<red>255</red>
							<green>0</green>
							<blue>0</blue>
						</color>
						<in>4216</in>
						<out>5086</out>
					</marker>
					<marker>
						<name>John Maeda</name>
						<comment>John Maeda,&#13;Aesthetics and computation,&#13;processing,&#13;learning,&#13;media lab,</comment>
						<color>
							<alpha>0</alpha>
							<red>255</red>
							<green>0</green>
							<blue>0</blue>
						</color>
						<in>7613</in>
						<out>8064</out>
					</marker>
					<marker>
						<name>RNA and Viruses</name>
						<comment>Biology,&#13;code of life,&#13;art and science,</comment>
						<color>
							<alpha>0</alpha>
							<red>255</red>
							<green>0</green>
							<blue>0</blue>
						</color>
						<in>8347</in>
						<out>10317</out>
					</marker>
					<sourcetrack>
						<mediatype>video</mediatype>
					</sourcetrack>
					<link>
						<linkclipref>MVI_0992 8</linkclipref>
						<mediatype>video</mediatype>
						<trackindex>1</trackindex>
						<clipindex>3</clipindex>
					</link>
					<link>
						<linkclipref>MVI_0992 9</linkclipref>
						<mediatype>audio</mediatype>
						<trackindex>1</trackindex>
						<clipindex>3</clipindex>
						<groupindex>1</groupindex>
					</link>
					<link>
						<linkclipref>MVI_0992 10</linkclipref>
						<mediatype>audio</mediatype>
						<trackindex>2</trackindex>
						<clipindex>3</clipindex>
						<groupindex>1</groupindex>
					</link>
					<fielddominance>none</fielddominance>
					<itemhistory>
						<uuid>3C69E299-2E32-41EF-AEF6-70661A7A5CAA</uuid>
						<uuid>867F2BC2-0580-4C0E-9FF7-5610E2D4E916</uuid>
					</itemhistory>
				</clipitem>
				<clipitem id="MVI_0993 ">
					<name>MVI_0993</name>
					<duration>10426</duration>
					<rate>
						<ntsc>TRUE</ntsc>
						<timebase>24</timebase>
					</rate>
					<in>0</in>
					<out>10426</out>
					<start>15851</start>
					<end>26277</end>
					<pixelaspectratio>Square</pixelaspectratio>
					<enabled>TRUE</enabled>
					<anamorphic>FALSE</anamorphic>
					<alphatype>none</alphatype>
					<masterclipid>MVI_0993 1</masterclipid>
					<logginginfo>
						<scene/>
						<shottake/>
						<lognote/>
						<good>FALSE</good>
					</logginginfo>
					<labels>
						<label2/>
					</labels>
					<comments>
						<mastercomment1/>
						<mastercomment2/>
						<mastercomment3/>
						<mastercomment4/>
					</comments>
					<file id="MVI_0993 2">
						<name>MVI_0993.mov</name>
						<pathurl>file://localhost/Volumes/Nebula/MediaPackages/EyeoMediaBin/Jessica02/color/MVI_0993.mov</pathurl>
						<rate>
							<timebase>24</timebase>
							<ntsc>TRUE</ntsc>
						</rate>
						<duration>10426</duration>
						<media>
							<video>
								<duration>10426</duration>
								<samplecharacteristics>
									<width>1920</width>
									<height>1080</height>
								</samplecharacteristics>
							</video>
							<audio>
								<samplecharacteristics>
									<samplerate>48000</samplerate>
									<depth>16</depth>
								</samplecharacteristics>
								<channelcount>2</channelcount>
							</audio>
						</media>
					</file>
					<marker>
						<name>Design process</name>
						<comment>design,&#13;design process,&#13;digital into physical,&#13;3D fabrication,&#13;objects,&#13;product,</comment>
						<color>
							<alpha>0</alpha>
							<red>255</red>
							<green>0</green>
							<blue>0</blue>
						</color>
						<in>2498</in>
						<out>3369</out>
					</marker>
					<marker>
						<name>Big 3D printers Long quote</name>
						<comment>digital into physical,&#13;3D printing, &#13;product, &#13;object,&#13;architecture,&#13;biology,&#13;organic,&#13;growth,&#13;Link: marius 3D printing,&#13;Link: marius Color 3D printing,</comment>
						<color>
							<alpha>0</alpha>
							<red>255</red>
							<green>0</green>
							<blue>0</blue>
						</color>
						<in>5490</in>
						<out>6569</out>
					</marker>
					<marker>
						<name>I create the work that I love</name>
						<comment>self expression,&#13;aesthetics,&#13;style,&#13;link Marius: the idea of beauty,&#13;link Marius: aesthetic experience,&#13;</comment>
						<color>
							<alpha>0</alpha>
							<red>255</red>
							<green>0</green>
							<blue>0</blue>
						</color>
						<in>7944</in>
						<out>8528</out>
					</marker>
					<sourcetrack>
						<mediatype>video</mediatype>
					</sourcetrack>
					<link>
						<linkclipref>MVI_0993 </linkclipref>
						<mediatype>video</mediatype>
						<trackindex>1</trackindex>
						<clipindex>4</clipindex>
					</link>
					<link>
						<linkclipref>MVI_0993 3</linkclipref>
						<mediatype>audio</mediatype>
						<trackindex>1</trackindex>
						<clipindex>4</clipindex>
						<groupindex>1</groupindex>
					</link>
					<link>
						<linkclipref>MVI_0993 4</linkclipref>
						<mediatype>audio</mediatype>
						<trackindex>2</trackindex>
						<clipindex>4</clipindex>
						<groupindex>1</groupindex>
					</link>
					<fielddominance>none</fielddominance>
					<itemhistory>
						<uuid>8ABF954F-7565-4AEE-BA65-784CB81ED162</uuid>
					</itemhistory>
				</clipitem>
				<enabled>TRUE</enabled>
				<locked>FALSE</locked>
			</track>
			<track>
				<clipitem id="MVI_0992 11">
					<name>MVI_0992</name>
					<duration>15851</duration>
					<rate>
						<ntsc>TRUE</ntsc>
						<timebase>24</timebase>
					</rate>
					<in>0</in>
					<out>14054</out>
					<start>0</start>
					<end>14054</end>
					<pixelaspectratio>Square</pixelaspectratio>
					<enabled>TRUE</enabled>
					<anamorphic>FALSE</anamorphic>
					<alphatype>none</alphatype>
					<masterclipid>MVI_0992 1</masterclipid>
					<logginginfo>
						<scene/>
						<shottake/>
						<lognote/>
						<good>FALSE</good>
					</logginginfo>
					<labels>
						<label2/>
					</labels>
					<comments>
						<mastercomment1/>
						<mastercomment2/>
						<mastercomment3/>
						<mastercomment4/>
					</comments>
					<file id="MVI_0992 2"/>
					<marker>
						<name>Biology</name>
						<comment>Biology,&#13;code of life,&#13;art and science,</comment>
						<color>
							<alpha>0</alpha>
							<red>255</red>
							<green>0</green>
							<blue>0</blue>
						</color>
						<in>9180</in>
						<out>9903</out>
					</marker>
					<marker>
						<name>Science papers</name>
						<comment>Biology,&#13;science,&#13;research,&#13;influences,&#13;process,</comment>
						<color>
							<alpha>0</alpha>
							<red>255</red>
							<green>0</green>
							<blue>0</blue>
						</color>
						<in>12313</in>
						<out>13590</out>
					</marker>
					<marker>
						<name>Marker 7</name>
						<comment>biology,&#13;life and code,&#13;synthetic biology,&#13;emergence,&#13;complexity,&#13;link: Casey on life,&#13;link: Jer Thorpe Fireflies,&#13;</comment>
						<color>
							<alpha>0</alpha>
							<red>255</red>
							<green>0</green>
							<blue>0</blue>
						</color>
						<in>14066</in>
						<out>15245</out>
					</marker>
					<sourcetrack>
						<mediatype>video</mediatype>
					</sourcetrack>
					<fielddominance>none</fielddominance>
					<itemhistory>
						<uuid>38F75C27-EDD3-4C64-A745-0ED4D0EDA8D7</uuid>
						<uuid>D406D2A9-D5BB-4DAF-8ABC-D388E129F685</uuid>
					</itemhistory>
				</clipitem>
				<clipitem id="MVI_0992 12">
					<name>MVI_0992</name>
					<duration>15851</duration>
					<rate>
						<ntsc>TRUE</ntsc>
						<timebase>24</timebase>
					</rate>
					<in>14054</in>
					<out>15246</out>
					<start>14054</start>
					<end>15246</end>
					<pixelaspectratio>Square</pixelaspectratio>
					<enabled>TRUE</enabled>
					<anamorphic>FALSE</anamorphic>
					<alphatype>none</alphatype>
					<masterclipid>MVI_0992 1</masterclipid>
					<logginginfo>
						<scene/>
						<shottake/>
						<lognote/>
						<good>FALSE</good>
					</logginginfo>
					<labels>
						<label2/>
					</labels>
					<comments>
						<mastercomment1/>
						<mastercomment2/>
						<mastercomment3/>
						<mastercomment4/>
					</comments>
					<file id="MVI_0992 2"/>
					<marker>
						<name>Biology</name>
						<comment>Biology,&#13;code of life,&#13;art and science,</comment>
						<color>
							<alpha>0</alpha>
							<red>255</red>
							<green>0</green>
							<blue>0</blue>
						</color>
						<in>9180</in>
						<out>9903</out>
					</marker>
					<marker>
						<name>Science papers</name>
						<comment>Biology,&#13;science,&#13;research,&#13;influences,&#13;process,</comment>
						<color>
							<alpha>0</alpha>
							<red>255</red>
							<green>0</green>
							<blue>0</blue>
						</color>
						<in>12313</in>
						<out>13590</out>
					</marker>
					<marker>
						<name>Marker 7</name>
						<comment>biology,&#13;life and code,&#13;synthetic biology,&#13;emergence,&#13;complexity,&#13;link: Casey on life,&#13;link: Jer Thorpe Fireflies,&#13;</comment>
						<color>
							<alpha>0</alpha>
							<red>255</red>
							<green>0</green>
							<blue>0</blue>
						</color>
						<in>14066</in>
						<out>15245</out>
					</marker>
					<sourcetrack>
						<mediatype>video</mediatype>
					</sourcetrack>
					<fielddominance>none</fielddominance>
					<itemhistory>
						<uuid>A2DFA3CF-1074-44E4-B4AC-B56EF5E93AE7</uuid>
						<uuid>D406D2A9-D5BB-4DAF-8ABC-D388E129F685</uuid>
					</itemhistory>
				</clipitem>
				<clipitem id="MVI_0992 13">
					<name>MVI_0992</name>
					<duration>15851</duration>
					<rate>
						<ntsc>TRUE</ntsc>
						<timebase>24</timebase>
					</rate>
					<in>15246</in>
					<out>15849</out>
					<start>15246</start>
					<end>15849</end>
					<pixelaspectratio>Square</pixelaspectratio>
					<enabled>TRUE</enabled>
					<anamorphic>FALSE</anamorphic>
					<alphatype>none</alphatype>
					<masterclipid>MVI_0992 1</masterclipid>
					<logginginfo>
						<scene/>
						<shottake/>
						<lognote/>
						<good>FALSE</good>
					</logginginfo>
					<labels>
						<label2/>
					</labels>
					<comments>
						<mastercomment1/>
						<mastercomment2/>
						<mastercomment3/>
						<mastercomment4/>
					</comments>
					<file id="MVI_0992 2"/>
					<marker>
						<name>Biology</name>
						<comment>Biology,&#13;code of life,&#13;art and science,</comment>
						<color>
							<alpha>0</alpha>
							<red>255</red>
							<green>0</green>
							<blue>0</blue>
						</color>
						<in>9180</in>
						<out>9903</out>
					</marker>
					<marker>
						<name>Science papers</name>
						<comment>Biology,&#13;science,&#13;research,&#13;influences,&#13;process,</comment>
						<color>
							<alpha>0</alpha>
							<red>255</red>
							<green>0</green>
							<blue>0</blue>
						</color>
						<in>12313</in>
						<out>13590</out>
					</marker>
					<marker>
						<name>Marker 7</name>
						<comment>biology,&#13;life and code,&#13;synthetic biology,&#13;emergence,&#13;complexity,&#13;link: Casey on life,&#13;link: Jer Thorpe Fireflies,&#13;</comment>
						<color>
							<alpha>0</alpha>
							<red>255</red>
							<green>0</green>
							<blue>0</blue>
						</color>
						<in>14066</in>
						<out>15245</out>
					</marker>
					<sourcetrack>
						<mediatype>video</mediatype>
					</sourcetrack>
					<fielddominance>none</fielddominance>
					<itemhistory>
						<uuid>6D964ED2-8ABC-46F4-AD79-605D600DE09B</uuid>
						<uuid>D406D2A9-D5BB-4DAF-8ABC-D388E129F685</uuid>
					</itemhistory>
				</clipitem>
				<clipitem id="MVI_0993 5">
					<name>MVI_0993</name>
					<duration>10426</duration>
					<rate>
						<ntsc>TRUE</ntsc>
						<timebase>24</timebase>
					</rate>
					<in>0</in>
					<out>10426</out>
					<start>15849</start>
					<end>26275</end>
					<pixelaspectratio>Square</pixelaspectratio>
					<anamorphic>FALSE</anamorphic>
					<alphatype>none</alphatype>
					<masterclipid>MVI_0993 1</masterclipid>
					<logginginfo>
						<scene/>
						<shottake/>
						<lognote/>
						<good>FALSE</good>
					</logginginfo>
					<labels>
						<label2/>
					</labels>
					<comments>
						<mastercomment1/>
						<mastercomment2/>
						<mastercomment3/>
						<mastercomment4/>
					</comments>
					<file id="MVI_0993 2"/>
					<marker>
						<name>Design process</name>
						<comment>design,&#13;design process,&#13;digital into physical,&#13;3D fabrication,&#13;objects,&#13;product,</comment>
						<color>
							<alpha>0</alpha>
							<red>255</red>
							<green>0</green>
							<blue>0</blue>
						</color>
						<in>2080</in>
						<out>3657</out>
					</marker>
					<marker>
						<name>Bigger 3D printers</name>
						<comment>digital into physical,&#13;3D printing, &#13;product, &#13;object,&#13;Link: marius 3D printing,&#13;Link: marius Color 3D printing,</comment>
						<color>
							<alpha>0</alpha>
							<red>255</red>
							<green>0</green>
							<blue>0</blue>
						</color>
						<in>5492</in>
						<out>-1</out>
					</marker>
					<marker>
						<name>Marker 2</name>
						<comment>3D printing,&#13;digital into physical,&#13;Link: marius watz "3D printing",&#13;Link: marius watz "color 3D printing"</comment>
						<color>
							<alpha>0</alpha>
							<red>255</red>
							<green>0</green>
							<blue>0</blue>
						</color>
						<in>5493</in>
						<out>6216</out>
					</marker>
					<marker>
						<name>Growing buildings</name>
						<comment>architecture,&#13;biology,&#13;organic,&#13;growth,</comment>
						<color>
							<alpha>0</alpha>
							<red>255</red>
							<green>0</green>
							<blue>0</blue>
						</color>
						<in>6233</in>
						<out>6571</out>
					</marker>
					<marker>
						<name>knowing it's beautiful</name>
						<comment>beauty,&#13;aesthetics,&#13;subjectivity,</comment>
						<color>
							<alpha>0</alpha>
							<red>255</red>
							<green>0</green>
							<blue>0</blue>
						</color>
						<in>8369</in>
						<out>8531</out>
					</marker>
					<marker>
						<name>Why is it beautiful</name>
						<comment>What makes something beautiful?&#13;Beauty,&#13;nature,&#13;feeling,&#13;wonder,&#13;Link: Marius - aesthetic experience,</comment>
						<color>
							<alpha>0</alpha>
							<red>255</red>
							<green>0</green>
							<blue>0</blue>
						</color>
						<in>9498</in>
						<out>10244</out>
					</marker>
					<sourcetrack>
						<mediatype>video</mediatype>
					</sourcetrack>
					<fielddominance>none</fielddominance>
					<itemhistory>
						<uuid>CFAE26C4-01E1-421B-A943-A19085743A21</uuid>
					</itemhistory>
				</clipitem>
				<enabled>TRUE</enabled>
				<locked>FALSE</locked>
			</track>
		</video>
		<audio>
			<format>
				<samplecharacteristics>
					<depth>16</depth>
					<samplerate>48000</samplerate>
				</samplecharacteristics>
			</format>
			<outputs>
				<group>
					<index>1</index>
					<numchannels>2</numchannels>
					<downmix>0</downmix>
					<channel>
						<index>1</index>
					</channel>
					<channel>
						<index>2</index>
					</channel>
				</group>
			</outputs>
			<in>-1</in>
			<out>-1</out>
			<track>
				<clipitem id="MVI_0992 3">
					<name>MVI_0992</name>
					<duration>15851</duration>
					<rate>
						<ntsc>TRUE</ntsc>
						<timebase>24</timebase>
					</rate>
					<in>0</in>
					<out>14054</out>
					<start>0</start>
					<end>14054</end>
					<masterclipid>MVI_0992 1</masterclipid>
					<logginginfo>
						<scene/>
						<shottake/>
						<lognote/>
						<good>FALSE</good>
					</logginginfo>
					<labels>
						<label2/>
					</labels>
					<comments>
						<mastercomment1/>
						<mastercomment2/>
						<mastercomment3/>
						<mastercomment4/>
					</comments>
					<file id="MVI_0992 2"/>
					<marker>
						<name>MIT beginning</name>
						<comment>beginning,&#13;learning,&#13;John Maeda,</comment>
						<color>
							<alpha>0</alpha>
							<red>255</red>
							<green>0</green>
							<blue>0</blue>
						</color>
						<in>1963</in>
						<out>2583</out>
					</marker>
					<marker>
						<name>Can't draw</name>
						<comment>Drawing,&#13;talent,&#13;mind and hand,&#13;Link: Shiffman - sketching with code,</comment>
						<color>
							<alpha>0</alpha>
							<red>255</red>
							<green>0</green>
							<blue>0</blue>
						</color>
						<in>4216</in>
						<out>5086</out>
					</marker>
					<marker>
						<name>John Maeda</name>
						<comment>John Maeda,&#13;Aesthetics and computation,&#13;processing,&#13;learning,&#13;media lab,</comment>
						<color>
							<alpha>0</alpha>
							<red>255</red>
							<green>0</green>
							<blue>0</blue>
						</color>
						<in>7613</in>
						<out>8064</out>
					</marker>
					<marker>
						<name>RNA and Viruses</name>
						<comment>Biology,&#13;code of life,&#13;art and science,</comment>
						<color>
							<alpha>0</alpha>
							<red>255</red>
							<green>0</green>
							<blue>0</blue>
						</color>
						<in>8347</in>
						<out>10317</out>
					</marker>
					<filter>
						<effect>
							<name>Audio Levels</name>
							<effectid>audiolevels</effectid>
							<effectcategory>audiolevels</effectcategory>
							<effecttype>audiolevels</effecttype>
							<mediatype>audio</mediatype>
							<parameter>
								<name>Level</name>
								<parameterid>level</parameterid>
								<valuemin>0</valuemin>
								<valuemax>3.98109</valuemax>
								<value>1</value>
							</parameter>
						</effect>
					</filter>
					<filter>
						<effect>
							<name>Audio Pan</name>
							<effectid>audiopan</effectid>
							<effectcategory>audiopan</effectcategory>
							<effecttype>audiopan</effecttype>
							<mediatype>audio</mediatype>
							<parameter>
								<name>Pan</name>
								<parameterid>pan</parameterid>
								<valuemin>-1</valuemin>
								<valuemax>1</valuemax>
								<value>-1</value>
							</parameter>
						</effect>
					</filter>
					<sourcetrack>
						<mediatype>audio</mediatype>
						<trackindex>1</trackindex>
					</sourcetrack>
					<link>
						<linkclipref>MVI_0992 </linkclipref>
						<mediatype>video</mediatype>
						<trackindex>1</trackindex>
						<clipindex>1</clipindex>
					</link>
					<link>
						<linkclipref>MVI_0992 3</linkclipref>
						<mediatype>audio</mediatype>
						<trackindex>1</trackindex>
						<clipindex>1</clipindex>
						<groupindex>1</groupindex>
					</link>
					<link>
						<linkclipref>MVI_0992 4</linkclipref>
						<mediatype>audio</mediatype>
						<trackindex>2</trackindex>
						<clipindex>1</clipindex>
						<groupindex>1</groupindex>
					</link>
					<itemhistory>
						<uuid>C632307C-81E7-4EC8-8648-0089DFDC0C4E</uuid>
						<uuid>476D95B5-87C1-4C2B-9632-3A0BB9E2CCBF</uuid>
					</itemhistory>
				</clipitem>
				<clipitem id="MVI_0992 6">
					<name>MVI_0992</name>
					<duration>15851</duration>
					<rate>
						<ntsc>TRUE</ntsc>
						<timebase>24</timebase>
					</rate>
					<in>14054</in>
					<out>15246</out>
					<start>14054</start>
					<end>15246</end>
					<masterclipid>MVI_0992 1</masterclipid>
					<logginginfo>
						<scene/>
						<shottake/>
						<lognote/>
						<good>FALSE</good>
					</logginginfo>
					<labels>
						<label2/>
					</labels>
					<comments>
						<mastercomment1/>
						<mastercomment2/>
						<mastercomment3/>
						<mastercomment4/>
					</comments>
					<file id="MVI_0992 2"/>
					<marker>
						<name>MIT beginning</name>
						<comment>beginning,&#13;learning,&#13;John Maeda,</comment>
						<color>
							<alpha>0</alpha>
							<red>255</red>
							<green>0</green>
							<blue>0</blue>
						</color>
						<in>1963</in>
						<out>2583</out>
					</marker>
					<marker>
						<name>Can't draw</name>
						<comment>Drawing,&#13;talent,&#13;mind and hand,&#13;Link: Shiffman - sketching with code,</comment>
						<color>
							<alpha>0</alpha>
							<red>255</red>
							<green>0</green>
							<blue>0</blue>
						</color>
						<in>4216</in>
						<out>5086</out>
					</marker>
					<marker>
						<name>John Maeda</name>
						<comment>John Maeda,&#13;Aesthetics and computation,&#13;processing,&#13;learning,&#13;media lab,</comment>
						<color>
							<alpha>0</alpha>
							<red>255</red>
							<green>0</green>
							<blue>0</blue>
						</color>
						<in>7613</in>
						<out>8064</out>
					</marker>
					<marker>
						<name>RNA and Viruses</name>
						<comment>Biology,&#13;code of life,&#13;art and science,</comment>
						<color>
							<alpha>0</alpha>
							<red>255</red>
							<green>0</green>
							<blue>0</blue>
						</color>
						<in>8347</in>
						<out>10317</out>
					</marker>
					<filter>
						<effect>
							<name>Audio Levels</name>
							<effectid>audiolevels</effectid>
							<effectcategory>audiolevels</effectcategory>
							<effecttype>audiolevels</effecttype>
							<mediatype>audio</mediatype>
							<parameter>
								<name>Level</name>
								<parameterid>level</parameterid>
								<valuemin>0</valuemin>
								<valuemax>3.98109</valuemax>
								<value>1</value>
							</parameter>
						</effect>
					</filter>
					<filter>
						<effect>
							<name>Audio Pan</name>
							<effectid>audiopan</effectid>
							<effectcategory>audiopan</effectcategory>
							<effecttype>audiopan</effecttype>
							<mediatype>audio</mediatype>
							<parameter>
								<name>Pan</name>
								<parameterid>pan</parameterid>
								<valuemin>-1</valuemin>
								<valuemax>1</valuemax>
								<value>-1</value>
							</parameter>
						</effect>
					</filter>
					<sourcetrack>
						<mediatype>audio</mediatype>
						<trackindex>1</trackindex>
					</sourcetrack>
					<link>
						<linkclipref>MVI_0992 5</linkclipref>
						<mediatype>video</mediatype>
						<trackindex>1</trackindex>
						<clipindex>2</clipindex>
					</link>
					<link>
						<linkclipref>MVI_0992 6</linkclipref>
						<mediatype>audio</mediatype>
						<trackindex>1</trackindex>
						<clipindex>2</clipindex>
						<groupindex>1</groupindex>
					</link>
					<link>
						<linkclipref>MVI_0992 7</linkclipref>
						<mediatype>audio</mediatype>
						<trackindex>2</trackindex>
						<clipindex>2</clipindex>
						<groupindex>1</groupindex>
					</link>
					<itemhistory>
						<uuid>54E44FAF-0FDF-46A5-80C2-C89810EB249B</uuid>
						<uuid>476D95B5-87C1-4C2B-9632-3A0BB9E2CCBF</uuid>
					</itemhistory>
				</clipitem>
				<clipitem id="MVI_0992 9">
					<name>MVI_0992</name>
					<duration>15851</duration>
					<rate>
						<ntsc>TRUE</ntsc>
						<timebase>24</timebase>
					</rate>
					<in>15246</in>
					<out>15851</out>
					<start>15246</start>
					<end>15851</end>
					<masterclipid>MVI_0992 1</masterclipid>
					<logginginfo>
						<scene/>
						<shottake/>
						<lognote/>
						<good>FALSE</good>
					</logginginfo>
					<labels>
						<label2/>
					</labels>
					<comments>
						<mastercomment1/>
						<mastercomment2/>
						<mastercomment3/>
						<mastercomment4/>
					</comments>
					<file id="MVI_0992 2"/>
					<marker>
						<name>MIT beginning</name>
						<comment>beginning,&#13;learning,&#13;John Maeda,</comment>
						<color>
							<alpha>0</alpha>
							<red>255</red>
							<green>0</green>
							<blue>0</blue>
						</color>
						<in>1963</in>
						<out>2583</out>
					</marker>
					<marker>
						<name>Can't draw</name>
						<comment>Drawing,&#13;talent,&#13;mind and hand,&#13;Link: Shiffman - sketching with code,</comment>
						<color>
							<alpha>0</alpha>
							<red>255</red>
							<green>0</green>
							<blue>0</blue>
						</color>
						<in>4216</in>
						<out>5086</out>
					</marker>
					<marker>
						<name>John Maeda</name>
						<comment>John Maeda,&#13;Aesthetics and computation,&#13;processing,&#13;learning,&#13;media lab,</comment>
						<color>
							<alpha>0</alpha>
							<red>255</red>
							<green>0</green>
							<blue>0</blue>
						</color>
						<in>7613</in>
						<out>8064</out>
					</marker>
					<marker>
						<name>RNA and Viruses</name>
						<comment>Biology,&#13;code of life,&#13;art and science,</comment>
						<color>
							<alpha>0</alpha>
							<red>255</red>
							<green>0</green>
							<blue>0</blue>
						</color>
						<in>8347</in>
						<out>10317</out>
					</marker>
					<filter>
						<effect>
							<name>Audio Levels</name>
							<effectid>audiolevels</effectid>
							<effectcategory>audiolevels</effectcategory>
							<effecttype>audiolevels</effecttype>
							<mediatype>audio</mediatype>
							<parameter>
								<name>Level</name>
								<parameterid>level</parameterid>
								<valuemin>0</valuemin>
								<valuemax>3.98109</valuemax>
								<value>1</value>
							</parameter>
						</effect>
					</filter>
					<filter>
						<effect>
							<name>Audio Pan</name>
							<effectid>audiopan</effectid>
							<effectcategory>audiopan</effectcategory>
							<effecttype>audiopan</effecttype>
							<mediatype>audio</mediatype>
							<parameter>
								<name>Pan</name>
								<parameterid>pan</parameterid>
								<valuemin>-1</valuemin>
								<valuemax>1</valuemax>
								<value>-1</value>
							</parameter>
						</effect>
					</filter>
					<sourcetrack>
						<mediatype>audio</mediatype>
						<trackindex>1</trackindex>
					</sourcetrack>
					<link>
						<linkclipref>MVI_0992 8</linkclipref>
						<mediatype>video</mediatype>
						<trackindex>1</trackindex>
						<clipindex>3</clipindex>
					</link>
					<link>
						<linkclipref>MVI_0992 9</linkclipref>
						<mediatype>audio</mediatype>
						<trackindex>1</trackindex>
						<clipindex>3</clipindex>
						<groupindex>1</groupindex>
					</link>
					<link>
						<linkclipref>MVI_0992 10</linkclipref>
						<mediatype>audio</mediatype>
						<trackindex>2</trackindex>
						<clipindex>3</clipindex>
						<groupindex>1</groupindex>
					</link>
					<itemhistory>
						<uuid>84D9BA30-A043-4307-B71B-72974E997DC1</uuid>
						<uuid>476D95B5-87C1-4C2B-9632-3A0BB9E2CCBF</uuid>
					</itemhistory>
				</clipitem>
				<clipitem id="MVI_0993 3">
					<name>MVI_0993</name>
					<duration>10426</duration>
					<rate>
						<ntsc>TRUE</ntsc>
						<timebase>24</timebase>
					</rate>
					<in>0</in>
					<out>10426</out>
					<start>15851</start>
					<end>26277</end>
					<masterclipid>MVI_0993 1</masterclipid>
					<logginginfo>
						<scene/>
						<shottake/>
						<lognote/>
						<good>FALSE</good>
					</logginginfo>
					<labels>
						<label2/>
					</labels>
					<comments>
						<mastercomment1/>
						<mastercomment2/>
						<mastercomment3/>
						<mastercomment4/>
					</comments>
					<file id="MVI_0993 2"/>
					<marker>
						<name>Design process</name>
						<comment>design,&#13;design process,&#13;digital into physical,&#13;3D fabrication,&#13;objects,&#13;product,</comment>
						<color>
							<alpha>0</alpha>
							<red>255</red>
							<green>0</green>
							<blue>0</blue>
						</color>
						<in>2498</in>
						<out>3369</out>
					</marker>
					<marker>
						<name>Big 3D printers Long quote</name>
						<comment>digital into physical,&#13;3D printing, &#13;product, &#13;object,&#13;architecture,&#13;biology,&#13;organic,&#13;growth,&#13;Link: marius 3D printing,&#13;Link: marius Color 3D printing,</comment>
						<color>
							<alpha>0</alpha>
							<red>255</red>
							<green>0</green>
							<blue>0</blue>
						</color>
						<in>5490</in>
						<out>6569</out>
					</marker>
					<marker>
						<name>I create the work that I love</name>
						<comment>self expression,&#13;aesthetics,&#13;style,&#13;link Marius: the idea of beauty,&#13;link Marius: aesthetic experience,&#13;</comment>
						<color>
							<alpha>0</alpha>
							<red>255</red>
							<green>0</green>
							<blue>0</blue>
						</color>
						<in>7944</in>
						<out>8528</out>
					</marker>
					<filter>
						<effect>
							<name>Audio Levels</name>
							<effectid>audiolevels</effectid>
							<effectcategory>audiolevels</effectcategory>
							<effecttype>audiolevels</effecttype>
							<mediatype>audio</mediatype>
							<parameter>
								<name>Level</name>
								<parameterid>level</parameterid>
								<valuemin>0</valuemin>
								<valuemax>3.98109</valuemax>
								<value>1</value>
							</parameter>
						</effect>
					</filter>
					<filter>
						<effect>
							<name>Audio Pan</name>
							<effectid>audiopan</effectid>
							<effectcategory>audiopan</effectcategory>
							<effecttype>audiopan</effecttype>
							<mediatype>audio</mediatype>
							<parameter>
								<name>Pan</name>
								<parameterid>pan</parameterid>
								<valuemin>-1</valuemin>
								<valuemax>1</valuemax>
								<value>-1</value>
							</parameter>
						</effect>
					</filter>
					<sourcetrack>
						<mediatype>audio</mediatype>
						<trackindex>1</trackindex>
					</sourcetrack>
					<link>
						<linkclipref>MVI_0993 </linkclipref>
						<mediatype>video</mediatype>
						<trackindex>1</trackindex>
						<clipindex>4</clipindex>
					</link>
					<link>
						<linkclipref>MVI_0993 3</linkclipref>
						<mediatype>audio</mediatype>
						<trackindex>1</trackindex>
						<clipindex>4</clipindex>
						<groupindex>1</groupindex>
					</link>
					<link>
						<linkclipref>MVI_0993 4</linkclipref>
						<mediatype>audio</mediatype>
						<trackindex>2</trackindex>
						<clipindex>4</clipindex>
						<groupindex>1</groupindex>
					</link>
					<itemhistory>
						<uuid>88A62EC6-52B6-4281-AC08-4F2CE2EDC40D</uuid>
					</itemhistory>
				</clipitem>
				<enabled>TRUE</enabled>
				<locked>FALSE</locked>
				<outputchannelindex>1</outputchannelindex>
			</track>
			<track>
				<clipitem id="MVI_0992 4">
					<name>MVI_0992</name>
					<duration>15851</duration>
					<rate>
						<ntsc>TRUE</ntsc>
						<timebase>24</timebase>
					</rate>
					<in>0</in>
					<out>14054</out>
					<start>0</start>
					<end>14054</end>
					<masterclipid>MVI_0992 1</masterclipid>
					<logginginfo>
						<scene/>
						<shottake/>
						<lognote/>
						<good>FALSE</good>
					</logginginfo>
					<labels>
						<label2/>
					</labels>
					<comments>
						<mastercomment1/>
						<mastercomment2/>
						<mastercomment3/>
						<mastercomment4/>
					</comments>
					<file id="MVI_0992 2"/>
					<marker>
						<name>MIT beginning</name>
						<comment>beginning,&#13;learning,&#13;John Maeda,</comment>
						<color>
							<alpha>0</alpha>
							<red>255</red>
							<green>0</green>
							<blue>0</blue>
						</color>
						<in>1963</in>
						<out>2583</out>
					</marker>
					<marker>
						<name>Can't draw</name>
						<comment>Drawing,&#13;talent,&#13;mind and hand,&#13;Link: Shiffman - sketching with code,</comment>
						<color>
							<alpha>0</alpha>
							<red>255</red>
							<green>0</green>
							<blue>0</blue>
						</color>
						<in>4216</in>
						<out>5086</out>
					</marker>
					<marker>
						<name>John Maeda</name>
						<comment>John Maeda,&#13;Aesthetics and computation,&#13;processing,&#13;learning,&#13;media lab,</comment>
						<color>
							<alpha>0</alpha>
							<red>255</red>
							<green>0</green>
							<blue>0</blue>
						</color>
						<in>7613</in>
						<out>8064</out>
					</marker>
					<marker>
						<name>RNA and Viruses</name>
						<comment>Biology,&#13;code of life,&#13;art and science,</comment>
						<color>
							<alpha>0</alpha>
							<red>255</red>
							<green>0</green>
							<blue>0</blue>
						</color>
						<in>8347</in>
						<out>10317</out>
					</marker>
					<filter>
						<effect>
							<name>Audio Levels</name>
							<effectid>audiolevels</effectid>
							<effectcategory>audiolevels</effectcategory>
							<effecttype>audiolevels</effecttype>
							<mediatype>audio</mediatype>
							<parameter>
								<name>Level</name>
								<parameterid>level</parameterid>
								<valuemin>0</valuemin>
								<valuemax>3.98109</valuemax>
								<value>1</value>
							</parameter>
						</effect>
					</filter>
					<filter>
						<effect>
							<name>Audio Pan</name>
							<effectid>audiopan</effectid>
							<effectcategory>audiopan</effectcategory>
							<effecttype>audiopan</effecttype>
							<mediatype>audio</mediatype>
							<parameter>
								<name>Pan</name>
								<parameterid>pan</parameterid>
								<valuemin>-1</valuemin>
								<valuemax>1</valuemax>
								<value>1</value>
							</parameter>
						</effect>
					</filter>
					<sourcetrack>
						<mediatype>audio</mediatype>
						<trackindex>2</trackindex>
					</sourcetrack>
					<link>
						<linkclipref>MVI_0992 </linkclipref>
						<mediatype>video</mediatype>
						<trackindex>1</trackindex>
						<clipindex>1</clipindex>
					</link>
					<link>
						<linkclipref>MVI_0992 3</linkclipref>
						<mediatype>audio</mediatype>
						<trackindex>1</trackindex>
						<clipindex>1</clipindex>
						<groupindex>1</groupindex>
					</link>
					<link>
						<linkclipref>MVI_0992 4</linkclipref>
						<mediatype>audio</mediatype>
						<trackindex>2</trackindex>
						<clipindex>1</clipindex>
						<groupindex>1</groupindex>
					</link>
					<itemhistory>
						<uuid>59810CB9-825E-4C3E-8EA7-4B3C173D5834</uuid>
						<uuid>FE76C53F-6868-430C-ABD5-628A369AAD50</uuid>
					</itemhistory>
				</clipitem>
				<clipitem id="MVI_0992 7">
					<name>MVI_0992</name>
					<duration>15851</duration>
					<rate>
						<ntsc>TRUE</ntsc>
						<timebase>24</timebase>
					</rate>
					<in>14054</in>
					<out>15246</out>
					<start>14054</start>
					<end>15246</end>
					<masterclipid>MVI_0992 1</masterclipid>
					<logginginfo>
						<scene/>
						<shottake/>
						<lognote/>
						<good>FALSE</good>
					</logginginfo>
					<labels>
						<label2/>
					</labels>
					<comments>
						<mastercomment1/>
						<mastercomment2/>
						<mastercomment3/>
						<mastercomment4/>
					</comments>
					<file id="MVI_0992 2"/>
					<marker>
						<name>MIT beginning</name>
						<comment>beginning,&#13;learning,&#13;John Maeda,</comment>
						<color>
							<alpha>0</alpha>
							<red>255</red>
							<green>0</green>
							<blue>0</blue>
						</color>
						<in>1963</in>
						<out>2583</out>
					</marker>
					<marker>
						<name>Can't draw</name>
						<comment>Drawing,&#13;talent,&#13;mind and hand,&#13;Link: Shiffman - sketching with code,</comment>
						<color>
							<alpha>0</alpha>
							<red>255</red>
							<green>0</green>
							<blue>0</blue>
						</color>
						<in>4216</in>
						<out>5086</out>
					</marker>
					<marker>
						<name>John Maeda</name>
						<comment>John Maeda,&#13;Aesthetics and computation,&#13;processing,&#13;learning,&#13;media lab,</comment>
						<color>
							<alpha>0</alpha>
							<red>255</red>
							<green>0</green>
							<blue>0</blue>
						</color>
						<in>7613</in>
						<out>8064</out>
					</marker>
					<marker>
						<name>RNA and Viruses</name>
						<comment>Biology,&#13;code of life,&#13;art and science,</comment>
						<color>
							<alpha>0</alpha>
							<red>255</red>
							<green>0</green>
							<blue>0</blue>
						</color>
						<in>8347</in>
						<out>10317</out>
					</marker>
					<filter>
						<effect>
							<name>Audio Levels</name>
							<effectid>audiolevels</effectid>
							<effectcategory>audiolevels</effectcategory>
							<effecttype>audiolevels</effecttype>
							<mediatype>audio</mediatype>
							<parameter>
								<name>Level</name>
								<parameterid>level</parameterid>
								<valuemin>0</valuemin>
								<valuemax>3.98109</valuemax>
								<value>1</value>
							</parameter>
						</effect>
					</filter>
					<filter>
						<effect>
							<name>Audio Pan</name>
							<effectid>audiopan</effectid>
							<effectcategory>audiopan</effectcategory>
							<effecttype>audiopan</effecttype>
							<mediatype>audio</mediatype>
							<parameter>
								<name>Pan</name>
								<parameterid>pan</parameterid>
								<valuemin>-1</valuemin>
								<valuemax>1</valuemax>
								<value>1</value>
							</parameter>
						</effect>
					</filter>
					<sourcetrack>
						<mediatype>audio</mediatype>
						<trackindex>2</trackindex>
					</sourcetrack>
					<link>
						<linkclipref>MVI_0992 5</linkclipref>
						<mediatype>video</mediatype>
						<trackindex>1</trackindex>
						<clipindex>2</clipindex>
					</link>
					<link>
						<linkclipref>MVI_0992 6</linkclipref>
						<mediatype>audio</mediatype>
						<trackindex>1</trackindex>
						<clipindex>2</clipindex>
						<groupindex>1</groupindex>
					</link>
					<link>
						<linkclipref>MVI_0992 7</linkclipref>
						<mediatype>audio</mediatype>
						<trackindex>2</trackindex>
						<clipindex>2</clipindex>
						<groupindex>1</groupindex>
					</link>
					<itemhistory>
						<uuid>A27214F6-11D9-4465-8F4E-46D74128D695</uuid>
						<uuid>FE76C53F-6868-430C-ABD5-628A369AAD50</uuid>
					</itemhistory>
				</clipitem>
				<clipitem id="MVI_0992 10">
					<name>MVI_0992</name>
					<duration>15851</duration>
					<rate>
						<ntsc>TRUE</ntsc>
						<timebase>24</timebase>
					</rate>
					<in>15246</in>
					<out>15851</out>
					<start>15246</start>
					<end>15851</end>
					<masterclipid>MVI_0992 1</masterclipid>
					<logginginfo>
						<scene/>
						<shottake/>
						<lognote/>
						<good>FALSE</good>
					</logginginfo>
					<labels>
						<label2/>
					</labels>
					<comments>
						<mastercomment1/>
						<mastercomment2/>
						<mastercomment3/>
						<mastercomment4/>
					</comments>
					<file id="MVI_0992 2"/>
					<marker>
						<name>MIT beginning</name>
						<comment>beginning,&#13;learning,&#13;John Maeda,</comment>
						<color>
							<alpha>0</alpha>
							<red>255</red>
							<green>0</green>
							<blue>0</blue>
						</color>
						<in>1963</in>
						<out>2583</out>
					</marker>
					<marker>
						<name>Can't draw</name>
						<comment>Drawing,&#13;talent,&#13;mind and hand,&#13;Link: Shiffman - sketching with code,</comment>
						<color>
							<alpha>0</alpha>
							<red>255</red>
							<green>0</green>
							<blue>0</blue>
						</color>
						<in>4216</in>
						<out>5086</out>
					</marker>
					<marker>
						<name>John Maeda</name>
						<comment>John Maeda,&#13;Aesthetics and computation,&#13;processing,&#13;learning,&#13;media lab,</comment>
						<color>
							<alpha>0</alpha>
							<red>255</red>
							<green>0</green>
							<blue>0</blue>
						</color>
						<in>7613</in>
						<out>8064</out>
					</marker>
					<marker>
						<name>RNA and Viruses</name>
						<comment>Biology,&#13;code of life,&#13;art and science,</comment>
						<color>
							<alpha>0</alpha>
							<red>255</red>
							<green>0</green>
							<blue>0</blue>
						</color>
						<in>8347</in>
						<out>10317</out>
					</marker>
					<filter>
						<effect>
							<name>Audio Levels</name>
							<effectid>audiolevels</effectid>
							<effectcategory>audiolevels</effectcategory>
							<effecttype>audiolevels</effecttype>
							<mediatype>audio</mediatype>
							<parameter>
								<name>Level</name>
								<parameterid>level</parameterid>
								<valuemin>0</valuemin>
								<valuemax>3.98109</valuemax>
								<value>1</value>
							</parameter>
						</effect>
					</filter>
					<filter>
						<effect>
							<name>Audio Pan</name>
							<effectid>audiopan</effectid>
							<effectcategory>audiopan</effectcategory>
							<effecttype>audiopan</effecttype>
							<mediatype>audio</mediatype>
							<parameter>
								<name>Pan</name>
								<parameterid>pan</parameterid>
								<valuemin>-1</valuemin>
								<valuemax>1</valuemax>
								<value>1</value>
							</parameter>
						</effect>
					</filter>
					<sourcetrack>
						<mediatype>audio</mediatype>
						<trackindex>2</trackindex>
					</sourcetrack>
					<link>
						<linkclipref>MVI_0992 8</linkclipref>
						<mediatype>video</mediatype>
						<trackindex>1</trackindex>
						<clipindex>3</clipindex>
					</link>
					<link>
						<linkclipref>MVI_0992 9</linkclipref>
						<mediatype>audio</mediatype>
						<trackindex>1</trackindex>
						<clipindex>3</clipindex>
						<groupindex>1</groupindex>
					</link>
					<link>
						<linkclipref>MVI_0992 10</linkclipref>
						<mediatype>audio</mediatype>
						<trackindex>2</trackindex>
						<clipindex>3</clipindex>
						<groupindex>1</groupindex>
					</link>
					<itemhistory>
						<uuid>68898E42-6FF0-4FD6-95BA-EBE68CC7F2A1</uuid>
						<uuid>FE76C53F-6868-430C-ABD5-628A369AAD50</uuid>
					</itemhistory>
				</clipitem>
				<clipitem id="MVI_0993 4">
					<name>MVI_0993</name>
					<duration>10426</duration>
					<rate>
						<ntsc>TRUE</ntsc>
						<timebase>24</timebase>
					</rate>
					<in>0</in>
					<out>10426</out>
					<start>15851</start>
					<end>26277</end>
					<masterclipid>MVI_0993 1</masterclipid>
					<logginginfo>
						<scene/>
						<shottake/>
						<lognote/>
						<good>FALSE</good>
					</logginginfo>
					<labels>
						<label2/>
					</labels>
					<comments>
						<mastercomment1/>
						<mastercomment2/>
						<mastercomment3/>
						<mastercomment4/>
					</comments>
					<file id="MVI_0993 2"/>
					<marker>
						<name>Design process</name>
						<comment>design,&#13;design process,&#13;digital into physical,&#13;3D fabrication,&#13;objects,&#13;product,</comment>
						<color>
							<alpha>0</alpha>
							<red>255</red>
							<green>0</green>
							<blue>0</blue>
						</color>
						<in>2498</in>
						<out>3369</out>
					</marker>
					<marker>
						<name>Big 3D printers Long quote</name>
						<comment>digital into physical,&#13;3D printing, &#13;product, &#13;object,&#13;architecture,&#13;biology,&#13;organic,&#13;growth,&#13;Link: marius 3D printing,&#13;Link: marius Color 3D printing,</comment>
						<color>
							<alpha>0</alpha>
							<red>255</red>
							<green>0</green>
							<blue>0</blue>
						</color>
						<in>5490</in>
						<out>6569</out>
					</marker>
					<marker>
						<name>I create the work that I love</name>
						<comment>self expression,&#13;aesthetics,&#13;style,&#13;link Marius: the idea of beauty,&#13;link Marius: aesthetic experience,&#13;</comment>
						<color>
							<alpha>0</alpha>
							<red>255</red>
							<green>0</green>
							<blue>0</blue>
						</color>
						<in>7944</in>
						<out>8528</out>
					</marker>
					<filter>
						<effect>
							<name>Audio Levels</name>
							<effectid>audiolevels</effectid>
							<effectcategory>audiolevels</effectcategory>
							<effecttype>audiolevels</effecttype>
							<mediatype>audio</mediatype>
							<parameter>
								<name>Level</name>
								<parameterid>level</parameterid>
								<valuemin>0</valuemin>
								<valuemax>3.98109</valuemax>
								<value>1</value>
							</parameter>
						</effect>
					</filter>
					<filter>
						<effect>
							<name>Audio Pan</name>
							<effectid>audiopan</effectid>
							<effectcategory>audiopan</effectcategory>
							<effecttype>audiopan</effecttype>
							<mediatype>audio</mediatype>
							<parameter>
								<name>Pan</name>
								<parameterid>pan</parameterid>
								<valuemin>-1</valuemin>
								<valuemax>1</valuemax>
								<value>1</value>
							</parameter>
						</effect>
					</filter>
					<sourcetrack>
						<mediatype>audio</mediatype>
						<trackindex>2</trackindex>
					</sourcetrack>
					<link>
						<linkclipref>MVI_0993 </linkclipref>
						<mediatype>video</mediatype>
						<trackindex>1</trackindex>
						<clipindex>4</clipindex>
					</link>
					<link>
						<linkclipref>MVI_0993 3</linkclipref>
						<mediatype>audio</mediatype>
						<trackindex>1</trackindex>
						<clipindex>4</clipindex>
						<groupindex>1</groupindex>
					</link>
					<link>
						<linkclipref>MVI_0993 4</linkclipref>
						<mediatype>audio</mediatype>
						<trackindex>2</trackindex>
						<clipindex>4</clipindex>
						<groupindex>1</groupindex>
					</link>
					<itemhistory>
						<uuid>04D4D35E-F9B0-46CA-95F4-E18D86BB5566</uuid>
					</itemhistory>
				</clipitem>
				<enabled>TRUE</enabled>
				<locked>FALSE</locked>
				<outputchannelindex>2</outputchannelindex>
			</track>
			<track>
				<enabled>TRUE</enabled>
				<locked>FALSE</locked>
				<outputchannelindex>1</outputchannelindex>
			</track>
			<track>
				<enabled>TRUE</enabled>
				<locked>FALSE</locked>
				<outputchannelindex>2</outputchannelindex>
			</track>
			<filter>
				<effect>
					<name>Audio Levels</name>
					<effectid>audiolevels</effectid>
					<effectcategory>audiolevels</effectcategory>
					<effecttype>audiolevels</effecttype>
					<mediatype>audio</mediatype>
					<parameter>
						<name>Level</name>
						<parameterid>level</parameterid>
						<valuemin>0</valuemin>
						<valuemax>3.98109</valuemax>
						<value>1</value>
					</parameter>
				</effect>
			</filter>
		</audio>
	</media>
	<ismasterclip>FALSE</ismasterclip>
</sequence>
<sequence id="Shantell">
	<uuid>548B30CA-2D1E-46AD-9C08-F73498E90E5F</uuid>
	<updatebehavior>add</updatebehavior>
	<name>Shantell</name>
	<duration>61256</duration>
	<rate>
		<ntsc>TRUE</ntsc>
		<timebase>24</timebase>
	</rate>
	<timecode>
		<rate>
			<ntsc>TRUE</ntsc>
			<timebase>24</timebase>
		</rate>
		<string>01:00:00:00</string>
		<frame>86400</frame>
		<source>source</source>
		<displayformat>NDF</displayformat>
	</timecode>
	<in>0</in>
	<out>40435</out>
	<media>
		<video>
			<format>
				<samplecharacteristics>
					<width>1920</width>
					<height>1080</height>
					<anamorphic>FALSE</anamorphic>
					<pixelaspectratio>Square</pixelaspectratio>
					<fielddominance>none</fielddominance>
					<rate>
						<ntsc>TRUE</ntsc>
						<timebase>24</timebase>
					</rate>
					<colordepth>24</colordepth>
					<codec>
						<name>Apple ProRes 422</name>
						<appspecificdata>
							<appname>Final Cut Pro</appname>
							<appmanufacturer>Apple Inc.</appmanufacturer>
							<appversion>7.0</appversion>
							<data>
								<qtcodec>
									<codecname>Apple ProRes 422</codecname>
									<codectypename>Apple ProRes 422 (HQ)</codectypename>
									<codectypecode>apch</codectypecode>
									<codecvendorcode>appl</codecvendorcode>
									<spatialquality>1024</spatialquality>
									<temporalquality>0</temporalquality>
									<keyframerate>0</keyframerate>
									<datarate>0</datarate>
								</qtcodec>
							</data>
						</appspecificdata>
					</codec>
				</samplecharacteristics>
				<appspecificdata>
					<appname>Final Cut Pro</appname>
					<appmanufacturer>Apple Inc.</appmanufacturer>
					<appversion>7.0</appversion>
					<data>
						<fcpimageprocessing>
							<useyuv>TRUE</useyuv>
							<usesuperwhite>FALSE</usesuperwhite>
							<rendermode>Float10BPP</rendermode>
						</fcpimageprocessing>
					</data>
				</appspecificdata>
			</format>
			<track>
				<clipitem id="MVI_0964 ">
					<name>MVI_0964</name>
					<duration>16636</duration>
					<rate>
						<ntsc>TRUE</ntsc>
						<timebase>24</timebase>
					</rate>
					<in>0</in>
					<out>16636</out>
					<start>0</start>
					<end>16636</end>
					<pixelaspectratio>Square</pixelaspectratio>
					<anamorphic>FALSE</anamorphic>
					<alphatype>none</alphatype>
					<masterclipid>MVI_0964 1</masterclipid>
					<logginginfo>
						<scene/>
						<shottake/>
						<lognote/>
						<good>FALSE</good>
					</logginginfo>
					<labels>
						<label2/>
					</labels>
					<comments>
						<mastercomment1/>
						<mastercomment2/>
						<mastercomment3/>
						<mastercomment4/>
					</comments>
					<file id="MVI_0964 2">
						<name>MVI_0964.mov</name>
						<pathurl>file://localhost/Volumes/Nebula/MediaPackages/EyeoMediaBin/Shantell01/color/MVI_0964.mov</pathurl>
						<rate>
							<timebase>24</timebase>
							<ntsc>TRUE</ntsc>
						</rate>
						<duration>16636</duration>
						<media>
							<video>
								<duration>16636</duration>
								<samplecharacteristics>
									<width>1920</width>
									<height>1080</height>
								</samplecharacteristics>
							</video>
							<audio>
								<samplecharacteristics>
									<samplerate>48000</samplerate>
									<depth>16</depth>
								</samplecharacteristics>
								<channelcount>2</channelcount>
							</audio>
						</media>
					</file>
					<marker>
						<name>drawing with the computer</name>
						<comment>collaboration with machines,drawing,process,line,mind and hand,thinking by doing, tools&#13;</comment>
						<color>
							<alpha>0</alpha>
							<red>255</red>
							<green>0</green>
							<blue>0</blue>
						</color>
						<in>1812</in>
						<out>2510</out>
					</marker>
					<marker>
						<name>Markmaking software</name>
						<comment>drawing, software, collaboration with machines, improvisation, gesture,</comment>
						<color>
							<alpha>0</alpha>
							<red>255</red>
							<green>0</green>
							<blue>0</blue>
						</color>
						<in>2614</in>
						<out>3092</out>
					</marker>
					<marker>
						<name>big kid</name>
						<comment>fun,whimsy,children,play</comment>
						<color>
							<alpha>0</alpha>
							<red>255</red>
							<green>0</green>
							<blue>0</blue>
						</color>
						<in>3320</in>
						<out>3976</out>
					</marker>
					<marker>
						<name>Drawing with machines</name>
						<comment>drawing, collaboration with machines,machine aesthetics,beginnings</comment>
						<color>
							<alpha>0</alpha>
							<red>255</red>
							<green>0</green>
							<blue>0</blue>
						</color>
						<in>4255</in>
						<out>5106</out>
					</marker>
					<marker>
						<name>drawing with computers</name>
						<comment>failure,mistakes,experimentation,exploration,drawing,improvization,collaboration with machines,zen,</comment>
						<color>
							<alpha>0</alpha>
							<red>255</red>
							<green>0</green>
							<blue>0</blue>
						</color>
						<in>5316</in>
						<out>6218</out>
					</marker>
					<marker>
						<name>meeting zach</name>
						<comment>connections, drawing, performance, zach lieberman, collaboration</comment>
						<color>
							<alpha>0</alpha>
							<red>255</red>
							<green>0</green>
							<blue>0</blue>
						</color>
						<in>6345</in>
						<out>7015</out>
					</marker>
					<marker>
						<name>work with zach</name>
						<comment>digital meets physical, drawing, thinking by doing, connections, collabortion</comment>
						<color>
							<alpha>0</alpha>
							<red>255</red>
							<green>0</green>
							<blue>0</blue>
						</color>
						<in>7087</in>
						<out>8046</out>
					</marker>
					<marker>
						<name>Coding: what does it feel like?</name>
						<comment>coding, programming, gesture, sketching, improvization,</comment>
						<color>
							<alpha>0</alpha>
							<red>255</red>
							<green>0</green>
							<blue>0</blue>
						</color>
						<in>8517</in>
						<out>10163</out>
					</marker>
					<marker>
						<name>full circle</name>
						<comment>post-digital,digital meets physical,drawing,sketching,physicality,creativity</comment>
						<color>
							<alpha>0</alpha>
							<red>255</red>
							<green>0</green>
							<blue>0</blue>
						</color>
						<in>10915</in>
						<out>12034</out>
					</marker>
					<marker>
						<name>take the line further</name>
						<comment>branching, progress, mastery, drawing, skill, mind and hand,discovery, distraction&#13;</comment>
						<color>
							<alpha>0</alpha>
							<red>255</red>
							<green>0</green>
							<blue>0</blue>
						</color>
						<in>13944</in>
						<out>14926</out>
					</marker>
					<sourcetrack>
						<mediatype>video</mediatype>
					</sourcetrack>
					<link>
						<linkclipref>MVI_0964 </linkclipref>
						<mediatype>video</mediatype>
						<trackindex>1</trackindex>
						<clipindex>1</clipindex>
					</link>
					<link>
						<linkclipref>MVI_0964 3</linkclipref>
						<mediatype>audio</mediatype>
						<trackindex>1</trackindex>
						<clipindex>1</clipindex>
						<groupindex>1</groupindex>
					</link>
					<link>
						<linkclipref>MVI_0964 4</linkclipref>
						<mediatype>audio</mediatype>
						<trackindex>2</trackindex>
						<clipindex>1</clipindex>
						<groupindex>1</groupindex>
					</link>
					<fielddominance>none</fielddominance>
					<itemhistory>
						<uuid>F3B259EA-89ED-4B5E-95C5-AB1DA3D0C537</uuid>
					</itemhistory>
				</clipitem>
				<clipitem id="MVI_0965 ">
					<name>MVI_0965</name>
					<duration>6490</duration>
					<rate>
						<ntsc>TRUE</ntsc>
						<timebase>24</timebase>
					</rate>
					<in>0</in>
					<out>6490</out>
					<start>16636</start>
					<end>23126</end>
					<pixelaspectratio>Square</pixelaspectratio>
					<enabled>TRUE</enabled>
					<anamorphic>FALSE</anamorphic>
					<alphatype>none</alphatype>
					<masterclipid>MVI_0965 1</masterclipid>
					<logginginfo>
						<scene/>
						<shottake/>
						<lognote/>
						<good>FALSE</good>
					</logginginfo>
					<labels>
						<label2/>
					</labels>
					<comments>
						<mastercomment1/>
						<mastercomment2/>
						<mastercomment3/>
						<mastercomment4/>
					</comments>
					<file id="MVI_0965 2">
						<name>MVI_0965.mov</name>
						<pathurl>file://localhost/Volumes/Nebula/MediaPackages/EyeoMediaBin/Shantell02/color/MVI_0965.mov</pathurl>
						<rate>
							<timebase>24</timebase>
							<ntsc>TRUE</ntsc>
						</rate>
						<duration>6490</duration>
						<media>
							<video>
								<duration>6490</duration>
								<samplecharacteristics>
									<width>1920</width>
									<height>1080</height>
								</samplecharacteristics>
							</video>
							<audio>
								<samplecharacteristics>
									<samplerate>48000</samplerate>
									<depth>16</depth>
								</samplecharacteristics>
								<channelcount>2</channelcount>
							</audio>
						</media>
					</file>
					<marker>
						<name>Marker 5</name>
						<comment/>
						<color>
							<alpha>0</alpha>
							<red>255</red>
							<green>0</green>
							<blue>0</blue>
						</color>
						<in>1045</in>
						<out>1427</out>
					</marker>
					<marker>
						<name>Marker 6</name>
						<comment/>
						<color>
							<alpha>0</alpha>
							<red>255</red>
							<green>0</green>
							<blue>0</blue>
						</color>
						<in>2308</in>
						<out>3173</out>
					</marker>
					<marker>
						<name>Kids</name>
						<comment>children, play, imagination, possibility, interactivity</comment>
						<color>
							<alpha>0</alpha>
							<red>255</red>
							<green>0</green>
							<blue>0</blue>
						</color>
						<in>3332</in>
						<out>3641</out>
					</marker>
					<marker>
						<name>luck</name>
						<comment>luck,chance,serendipity,randomness,sharing,gift, </comment>
						<color>
							<alpha>0</alpha>
							<red>255</red>
							<green>0</green>
							<blue>0</blue>
						</color>
						<in>4298</in>
						<out>5839</out>
					</marker>
					<sourcetrack>
						<mediatype>video</mediatype>
					</sourcetrack>
					<link>
						<linkclipref>MVI_0965 </linkclipref>
						<mediatype>video</mediatype>
						<trackindex>1</trackindex>
						<clipindex>2</clipindex>
					</link>
					<link>
						<linkclipref>MVI_0965 3</linkclipref>
						<mediatype>audio</mediatype>
						<trackindex>1</trackindex>
						<clipindex>2</clipindex>
						<groupindex>1</groupindex>
					</link>
					<link>
						<linkclipref>MVI_0965 4</linkclipref>
						<mediatype>audio</mediatype>
						<trackindex>2</trackindex>
						<clipindex>2</clipindex>
						<groupindex>1</groupindex>
					</link>
					<fielddominance>none</fielddominance>
					<itemhistory>
						<uuid>E96DF95B-9E02-4340-A811-EF20B0692882</uuid>
					</itemhistory>
				</clipitem>
				<clipitem id="MVI_0966 ">
					<name>MVI_0966</name>
					<duration>14479</duration>
					<rate>
						<ntsc>TRUE</ntsc>
						<timebase>24</timebase>
					</rate>
					<in>0</in>
					<out>14479</out>
					<start>23126</start>
					<end>37605</end>
					<pixelaspectratio>Square</pixelaspectratio>
					<anamorphic>FALSE</anamorphic>
					<alphatype>none</alphatype>
					<masterclipid>MVI_0966 1</masterclipid>
					<logginginfo>
						<scene/>
						<shottake/>
						<lognote/>
						<good>FALSE</good>
					</logginginfo>
					<labels>
						<label2/>
					</labels>
					<comments>
						<mastercomment1/>
						<mastercomment2/>
						<mastercomment3/>
						<mastercomment4/>
					</comments>
					<file id="MVI_0966 2">
						<name>MVI_0966.mov</name>
						<pathurl>file://localhost/Volumes/Nebula/MediaPackages/EyeoMediaBin/Shantell03/color/MVI_0966.mov</pathurl>
						<rate>
							<timebase>24</timebase>
							<ntsc>TRUE</ntsc>
						</rate>
						<duration>14479</duration>
						<media>
							<video>
								<duration>14479</duration>
								<samplecharacteristics>
									<width>1920</width>
									<height>1080</height>
								</samplecharacteristics>
							</video>
							<audio>
								<samplecharacteristics>
									<samplerate>48000</samplerate>
									<depth>16</depth>
								</samplecharacteristics>
								<channelcount>2</channelcount>
							</audio>
						</media>
					</file>
					<marker>
						<name>create your own luck</name>
						<comment>luck, chance, serendipity</comment>
						<color>
							<alpha>0</alpha>
							<red>255</red>
							<green>0</green>
							<blue>0</blue>
						</color>
						<in>170</in>
						<out>1088</out>
					</marker>
					<marker>
						<name>magic and tech</name>
						<comment>magic,technology,collaboration,wonder,skill</comment>
						<color>
							<alpha>0</alpha>
							<red>255</red>
							<green>0</green>
							<blue>0</blue>
						</color>
						<in>2920</in>
						<out>3742</out>
					</marker>
					<marker>
						<name>Goals</name>
						<comment>career,children,life,money,failure, success,</comment>
						<color>
							<alpha>0</alpha>
							<red>255</red>
							<green>0</green>
							<blue>0</blue>
						</color>
						<in>5347</in>
						<out>6723</out>
					</marker>
					<marker>
						<name/>
						<comment>creativity, artist, </comment>
						<color>
							<alpha>0</alpha>
							<red>255</red>
							<green>0</green>
							<blue>0</blue>
						</color>
						<in>7306</in>
						<out>8076</out>
					</marker>
					<marker>
						<name>Live performance,</name>
						<comment>live, performance, drawing, audiovisualization, collaboration, music,</comment>
						<color>
							<alpha>0</alpha>
							<red>255</red>
							<green>0</green>
							<blue>0</blue>
						</color>
						<in>10260</in>
						<out>11311</out>
					</marker>
					<marker>
						<name>drawing with noise</name>
						<comment>sound, noise, audiovisualization, performance</comment>
						<color>
							<alpha>0</alpha>
							<red>255</red>
							<green>0</green>
							<blue>0</blue>
						</color>
						<in>11426</in>
						<out>12756</out>
					</marker>
					<marker>
						<name>live drawing</name>
						<comment>drawing, live, performance, </comment>
						<color>
							<alpha>0</alpha>
							<red>255</red>
							<green>0</green>
							<blue>0</blue>
						</color>
						<in>12866</in>
						<out>13569</out>
					</marker>
					<sourcetrack>
						<mediatype>video</mediatype>
					</sourcetrack>
					<link>
						<linkclipref>MVI_0966 </linkclipref>
						<mediatype>video</mediatype>
						<trackindex>1</trackindex>
						<clipindex>3</clipindex>
					</link>
					<link>
						<linkclipref>MVI_0966 3</linkclipref>
						<mediatype>audio</mediatype>
						<trackindex>1</trackindex>
						<clipindex>3</clipindex>
						<groupindex>1</groupindex>
					</link>
					<link>
						<linkclipref>MVI_0966 4</linkclipref>
						<mediatype>audio</mediatype>
						<trackindex>2</trackindex>
						<clipindex>3</clipindex>
						<groupindex>1</groupindex>
					</link>
					<fielddominance>none</fielddominance>
					<itemhistory>
						<uuid>F6D6B1B4-2F0F-4E4E-B5F6-972C04D5468F</uuid>
					</itemhistory>
				</clipitem>
				<clipitem id="MVI_0967 ">
					<name>MVI_0967</name>
					<duration>2834</duration>
					<rate>
						<ntsc>TRUE</ntsc>
						<timebase>24</timebase>
					</rate>
					<in>0</in>
					<out>2834</out>
					<start>37605</start>
					<end>40439</end>
					<pixelaspectratio>Square</pixelaspectratio>
					<enabled>TRUE</enabled>
					<anamorphic>FALSE</anamorphic>
					<alphatype>none</alphatype>
					<masterclipid>MVI_0967 1</masterclipid>
					<logginginfo>
						<scene/>
						<shottake/>
						<lognote/>
						<good>FALSE</good>
					</logginginfo>
					<labels>
						<label2/>
					</labels>
					<comments>
						<mastercomment1/>
						<mastercomment2/>
						<mastercomment3/>
						<mastercomment4/>
					</comments>
					<file id="MVI_0967 2">
						<name>MVI_0967.mov</name>
						<pathurl>file://localhost/Volumes/Nebula/MediaPackages/EyeoMediaBin/Shantell05/color/MVI_0967.mov</pathurl>
						<rate>
							<timebase>24</timebase>
							<ntsc>TRUE</ntsc>
						</rate>
						<duration>2834</duration>
						<media>
							<video>
								<duration>2834</duration>
								<samplecharacteristics>
									<width>1920</width>
									<height>1080</height>
								</samplecharacteristics>
							</video>
							<audio>
								<samplecharacteristics>
									<samplerate>48000</samplerate>
									<depth>16</depth>
								</samplecharacteristics>
								<channelcount>2</channelcount>
							</audio>
						</media>
					</file>
					<marker>
						<name>group improvisation</name>
						<comment>live, improvisation, embodiment, interactivity, audience, gesture</comment>
						<color>
							<alpha>0</alpha>
							<red>255</red>
							<green>0</green>
							<blue>0</blue>
						</color>
						<in>629</in>
						<out>2188</out>
					</marker>
					<sourcetrack>
						<mediatype>video</mediatype>
					</sourcetrack>
					<link>
						<linkclipref>MVI_0967 </linkclipref>
						<mediatype>video</mediatype>
						<trackindex>1</trackindex>
						<clipindex>4</clipindex>
					</link>
					<link>
						<linkclipref>MVI_0967 3</linkclipref>
						<mediatype>audio</mediatype>
						<trackindex>1</trackindex>
						<clipindex>4</clipindex>
						<groupindex>1</groupindex>
					</link>
					<link>
						<linkclipref>MVI_0967 4</linkclipref>
						<mediatype>audio</mediatype>
						<trackindex>2</trackindex>
						<clipindex>4</clipindex>
						<groupindex>1</groupindex>
					</link>
					<fielddominance>none</fielddominance>
					<itemhistory>
						<uuid>5AB59425-189D-46E2-B90F-A656CA8D363B</uuid>
					</itemhistory>
				</clipitem>
				<enabled>TRUE</enabled>
				<locked>FALSE</locked>
			</track>
			<track>
				<clipitem id="MVI_0964 5">
					<name>MVI_0964</name>
					<duration>16636</duration>
					<rate>
						<ntsc>TRUE</ntsc>
						<timebase>24</timebase>
					</rate>
					<in>0</in>
					<out>16636</out>
					<start>0</start>
					<end>16636</end>
					<pixelaspectratio>Square</pixelaspectratio>
					<anamorphic>FALSE</anamorphic>
					<alphatype>none</alphatype>
					<masterclipid>MVI_0964 1</masterclipid>
					<logginginfo>
						<scene/>
						<shottake/>
						<lognote/>
						<good>FALSE</good>
					</logginginfo>
					<labels>
						<label2/>
					</labels>
					<comments>
						<mastercomment1/>
						<mastercomment2/>
						<mastercomment3/>
						<mastercomment4/>
					</comments>
					<file id="MVI_0964 2"/>
					<marker>
						<name>live drawing</name>
						<comment>collaboration with machines, software, performance, </comment>
						<color>
							<alpha>0</alpha>
							<red>255</red>
							<green>0</green>
							<blue>0</blue>
						</color>
						<in>661</in>
						<out>1498</out>
					</marker>
					<marker>
						<name>every line is a mistake</name>
						<comment>zen, failure, success, drawing,</comment>
						<color>
							<alpha>0</alpha>
							<red>255</red>
							<green>0</green>
							<blue>0</blue>
						</color>
						<in>5839</in>
						<out>6220</out>
					</marker>
					<marker>
						<name>Coding gesturally</name>
						<comment>coding, programming, gesture, sketching, improvization, digital meets physical, digital divide,</comment>
						<color>
							<alpha>0</alpha>
							<red>255</red>
							<green>0</green>
							<blue>0</blue>
						</color>
						<in>9659</in>
						<out>10238</out>
					</marker>
					<marker>
						<name>full circle</name>
						<comment>post-digital,digital meets physical,drawing,sketching,physicality,creativity</comment>
						<color>
							<alpha>0</alpha>
							<red>255</red>
							<green>0</green>
							<blue>0</blue>
						</color>
						<in>11695</in>
						<out>12037</out>
					</marker>
					<marker>
						<name>full circle</name>
						<comment>post-digital,digital meets physical,physicality,technological progress</comment>
						<color>
							<alpha>0</alpha>
							<red>255</red>
							<green>0</green>
							<blue>0</blue>
						</color>
						<in>12289</in>
						<out>12488</out>
					</marker>
					<marker>
						<name>simple</name>
						<comment>simplicity, line, values, conviction, focus, zen&#13;&#13;</comment>
						<color>
							<alpha>0</alpha>
							<red>255</red>
							<green>0</green>
							<blue>0</blue>
						</color>
						<in>13448</in>
						<out>13920</out>
					</marker>
					<marker>
						<name>sharing</name>
						<comment>storytelling,experience,feeling,sharing,expression,self expression,self-knowledge</comment>
						<color>
							<alpha>0</alpha>
							<red>255</red>
							<green>0</green>
							<blue>0</blue>
						</color>
						<in>15314</in>
						<out>16473</out>
					</marker>
					<sourcetrack>
						<mediatype>video</mediatype>
					</sourcetrack>
					<link>
						<linkclipref>MVI_0964 5</linkclipref>
						<mediatype>video</mediatype>
						<trackindex>2</trackindex>
						<clipindex>1</clipindex>
					</link>
					<link>
						<linkclipref>MVI_0964 6</linkclipref>
						<mediatype>audio</mediatype>
						<trackindex>1</trackindex>
						<clipindex>5</clipindex>
						<groupindex>1</groupindex>
					</link>
					<link>
						<linkclipref>MVI_0964 7</linkclipref>
						<mediatype>audio</mediatype>
						<trackindex>2</trackindex>
						<clipindex>5</clipindex>
						<groupindex>1</groupindex>
					</link>
					<fielddominance>none</fielddominance>
					<itemhistory>
						<uuid>1339C7E2-CED0-4728-B5C7-9A72C1915F36</uuid>
					</itemhistory>
				</clipitem>
				<clipitem id="MVI_0965 5">
					<name>MVI_0965</name>
					<duration>6490</duration>
					<rate>
						<ntsc>TRUE</ntsc>
						<timebase>24</timebase>
					</rate>
					<in>1</in>
					<out>6490</out>
					<start>16636</start>
					<end>23125</end>
					<pixelaspectratio>Square</pixelaspectratio>
					<enabled>TRUE</enabled>
					<anamorphic>FALSE</anamorphic>
					<alphatype>none</alphatype>
					<masterclipid>MVI_0965 1</masterclipid>
					<logginginfo>
						<scene/>
						<shottake/>
						<lognote/>
						<good>FALSE</good>
					</logginginfo>
					<labels>
						<label2/>
					</labels>
					<comments>
						<mastercomment1/>
						<mastercomment2/>
						<mastercomment3/>
						<mastercomment4/>
					</comments>
					<file id="MVI_0965 2"/>
					<marker>
						<name>doingwithothers</name>
						<comment>hackathon, collaboration, community, </comment>
						<color>
							<alpha>0</alpha>
							<red>255</red>
							<green>0</green>
							<blue>0</blue>
						</color>
						<in>1046</in>
						<out>1428</out>
					</marker>
					<marker>
						<name>collaboration,</name>
						<comment>collaboration, improvement, growth</comment>
						<color>
							<alpha>0</alpha>
							<red>255</red>
							<green>0</green>
							<blue>0</blue>
						</color>
						<in>2309</in>
						<out>3174</out>
					</marker>
					<marker>
						<name>Sharing creates luck</name>
						<comment>luck,chance,serendipity,randomness,sharing,gift</comment>
						<color>
							<alpha>0</alpha>
							<red>255</red>
							<green>0</green>
							<blue>0</blue>
						</color>
						<in>4578</in>
						<out>4950</out>
					</marker>
					<sourcetrack>
						<mediatype>video</mediatype>
					</sourcetrack>
					<fielddominance>none</fielddominance>
					<itemhistory>
						<uuid>C23C4E0B-FC13-4FC2-8C54-E3A0E8F05DA3</uuid>
					</itemhistory>
				</clipitem>
				<clipitem id="MVI_0967 5">
					<name>MVI_0967</name>
					<duration>2834</duration>
					<rate>
						<ntsc>TRUE</ntsc>
						<timebase>24</timebase>
					</rate>
					<in>0</in>
					<out>2834</out>
					<start>37605</start>
					<end>40439</end>
					<pixelaspectratio>Square</pixelaspectratio>
					<enabled>TRUE</enabled>
					<anamorphic>FALSE</anamorphic>
					<alphatype>none</alphatype>
					<masterclipid>MVI_0967 1</masterclipid>
					<logginginfo>
						<scene/>
						<shottake/>
						<lognote/>
						<good>FALSE</good>
					</logginginfo>
					<labels>
						<label2/>
					</labels>
					<comments>
						<mastercomment1/>
						<mastercomment2/>
						<mastercomment3/>
						<mastercomment4/>
					</comments>
					<file id="MVI_0967 2"/>
					<marker>
						<name>Future gesture</name>
						<comment>embodiment, physicality, mutlisensory, experience, perception, improvisation, gesture,</comment>
						<color>
							<alpha>0</alpha>
							<red>255</red>
							<green>0</green>
							<blue>0</blue>
						</color>
						<in>328</in>
						<out>1319</out>
					</marker>
					<sourcetrack>
						<mediatype>video</mediatype>
					</sourcetrack>
					<link>
						<linkclipref>MVI_0967 5</linkclipref>
						<mediatype>video</mediatype>
						<trackindex>2</trackindex>
						<clipindex>3</clipindex>
					</link>
					<fielddominance>none</fielddominance>
					<itemhistory>
						<uuid>C1EF8152-BC64-4A0F-8B01-C434407D06B0</uuid>
					</itemhistory>
				</clipitem>
				<enabled>TRUE</enabled>
				<locked>FALSE</locked>
			</track>
		</video>
		<audio>
			<format>
				<samplecharacteristics>
					<depth>16</depth>
					<samplerate>48000</samplerate>
				</samplecharacteristics>
			</format>
			<outputs>
				<group>
					<index>1</index>
					<numchannels>2</numchannels>
					<downmix>0</downmix>
					<channel>
						<index>1</index>
					</channel>
					<channel>
						<index>2</index>
					</channel>
				</group>
			</outputs>
			<in>0</in>
			<out>40435</out>
			<track>
				<clipitem id="MVI_0964 3">
					<name>MVI_0964</name>
					<duration>16636</duration>
					<rate>
						<ntsc>TRUE</ntsc>
						<timebase>24</timebase>
					</rate>
					<in>0</in>
					<out>16636</out>
					<start>0</start>
					<end>16636</end>
					<masterclipid>MVI_0964 1</masterclipid>
					<logginginfo>
						<scene/>
						<shottake/>
						<lognote/>
						<good>FALSE</good>
					</logginginfo>
					<labels>
						<label2/>
					</labels>
					<comments>
						<mastercomment1/>
						<mastercomment2/>
						<mastercomment3/>
						<mastercomment4/>
					</comments>
					<file id="MVI_0964 2"/>
					<marker>
						<name>drawing with the computer</name>
						<comment>collaboration with machines,drawing,process,line,mind and hand,thinking by doing, tools&#13;</comment>
						<color>
							<alpha>0</alpha>
							<red>255</red>
							<green>0</green>
							<blue>0</blue>
						</color>
						<in>1812</in>
						<out>2510</out>
					</marker>
					<marker>
						<name>Markmaking software</name>
						<comment>drawing, software, collaboration with machines, improvisation, gesture,</comment>
						<color>
							<alpha>0</alpha>
							<red>255</red>
							<green>0</green>
							<blue>0</blue>
						</color>
						<in>2614</in>
						<out>3092</out>
					</marker>
					<marker>
						<name>big kid</name>
						<comment>fun,whimsy,children,play</comment>
						<color>
							<alpha>0</alpha>
							<red>255</red>
							<green>0</green>
							<blue>0</blue>
						</color>
						<in>3320</in>
						<out>3976</out>
					</marker>
					<marker>
						<name>Drawing with machines</name>
						<comment>drawing, collaboration with machines,machine aesthetics,beginnings</comment>
						<color>
							<alpha>0</alpha>
							<red>255</red>
							<green>0</green>
							<blue>0</blue>
						</color>
						<in>4255</in>
						<out>5106</out>
					</marker>
					<marker>
						<name>drawing with computers</name>
						<comment>failure,mistakes,experimentation,exploration,drawing,improvization,collaboration with machines,zen,</comment>
						<color>
							<alpha>0</alpha>
							<red>255</red>
							<green>0</green>
							<blue>0</blue>
						</color>
						<in>5316</in>
						<out>6218</out>
					</marker>
					<marker>
						<name>meeting zach</name>
						<comment>connections, drawing, performance, zach lieberman, collaboration</comment>
						<color>
							<alpha>0</alpha>
							<red>255</red>
							<green>0</green>
							<blue>0</blue>
						</color>
						<in>6345</in>
						<out>7015</out>
					</marker>
					<marker>
						<name>work with zach</name>
						<comment>digital meets physical, drawing, thinking by doing, connections, collabortion</comment>
						<color>
							<alpha>0</alpha>
							<red>255</red>
							<green>0</green>
							<blue>0</blue>
						</color>
						<in>7087</in>
						<out>8046</out>
					</marker>
					<marker>
						<name>Coding: what does it feel like?</name>
						<comment>coding, programming, gesture, sketching, improvization,</comment>
						<color>
							<alpha>0</alpha>
							<red>255</red>
							<green>0</green>
							<blue>0</blue>
						</color>
						<in>8517</in>
						<out>10163</out>
					</marker>
					<marker>
						<name>full circle</name>
						<comment>post-digital,digital meets physical,drawing,sketching,physicality,creativity</comment>
						<color>
							<alpha>0</alpha>
							<red>255</red>
							<green>0</green>
							<blue>0</blue>
						</color>
						<in>10915</in>
						<out>12034</out>
					</marker>
					<marker>
						<name>take the line further</name>
						<comment>branching, progress, mastery, drawing, skill, mind and hand,discovery, distraction&#13;</comment>
						<color>
							<alpha>0</alpha>
							<red>255</red>
							<green>0</green>
							<blue>0</blue>
						</color>
						<in>13944</in>
						<out>14926</out>
					</marker>
					<filter>
						<effect>
							<name>Audio Levels</name>
							<effectid>audiolevels</effectid>
							<effectcategory>audiolevels</effectcategory>
							<effecttype>audiolevels</effecttype>
							<mediatype>audio</mediatype>
							<parameter>
								<name>Level</name>
								<parameterid>level</parameterid>
								<valuemin>0</valuemin>
								<valuemax>3.98109</valuemax>
								<value>1</value>
							</parameter>
						</effect>
					</filter>
					<filter>
						<effect>
							<name>Audio Pan</name>
							<effectid>audiopan</effectid>
							<effectcategory>audiopan</effectcategory>
							<effecttype>audiopan</effecttype>
							<mediatype>audio</mediatype>
							<parameter>
								<name>Pan</name>
								<parameterid>pan</parameterid>
								<valuemin>-1</valuemin>
								<valuemax>1</valuemax>
								<value>-1</value>
							</parameter>
						</effect>
					</filter>
					<sourcetrack>
						<mediatype>audio</mediatype>
						<trackindex>1</trackindex>
					</sourcetrack>
					<link>
						<linkclipref>MVI_0964 </linkclipref>
						<mediatype>video</mediatype>
						<trackindex>1</trackindex>
						<clipindex>1</clipindex>
					</link>
					<link>
						<linkclipref>MVI_0964 3</linkclipref>
						<mediatype>audio</mediatype>
						<trackindex>1</trackindex>
						<clipindex>1</clipindex>
						<groupindex>1</groupindex>
					</link>
					<link>
						<linkclipref>MVI_0964 4</linkclipref>
						<mediatype>audio</mediatype>
						<trackindex>2</trackindex>
						<clipindex>1</clipindex>
						<groupindex>1</groupindex>
					</link>
					<itemhistory>
						<uuid>1B40F503-F868-46C2-8FD4-AC5C3D26E78B</uuid>
					</itemhistory>
				</clipitem>
				<clipitem id="MVI_0965 3">
					<name>MVI_0965</name>
					<duration>6490</duration>
					<rate>
						<ntsc>TRUE</ntsc>
						<timebase>24</timebase>
					</rate>
					<in>0</in>
					<out>6490</out>
					<start>16636</start>
					<end>23126</end>
					<masterclipid>MVI_0965 1</masterclipid>
					<logginginfo>
						<scene/>
						<shottake/>
						<lognote/>
						<good>FALSE</good>
					</logginginfo>
					<labels>
						<label2/>
					</labels>
					<comments>
						<mastercomment1/>
						<mastercomment2/>
						<mastercomment3/>
						<mastercomment4/>
					</comments>
					<file id="MVI_0965 2"/>
					<marker>
						<name>Marker 5</name>
						<comment/>
						<color>
							<alpha>0</alpha>
							<red>255</red>
							<green>0</green>
							<blue>0</blue>
						</color>
						<in>1045</in>
						<out>1427</out>
					</marker>
					<marker>
						<name>Marker 6</name>
						<comment/>
						<color>
							<alpha>0</alpha>
							<red>255</red>
							<green>0</green>
							<blue>0</blue>
						</color>
						<in>2308</in>
						<out>3173</out>
					</marker>
					<marker>
						<name>Kids</name>
						<comment>children, play, imagination, possibility, interactivity</comment>
						<color>
							<alpha>0</alpha>
							<red>255</red>
							<green>0</green>
							<blue>0</blue>
						</color>
						<in>3332</in>
						<out>3641</out>
					</marker>
					<marker>
						<name>luck</name>
						<comment>luck,chance,serendipity,randomness,sharing,gift, </comment>
						<color>
							<alpha>0</alpha>
							<red>255</red>
							<green>0</green>
							<blue>0</blue>
						</color>
						<in>4298</in>
						<out>5839</out>
					</marker>
					<filter>
						<effect>
							<name>Audio Levels</name>
							<effectid>audiolevels</effectid>
							<effectcategory>audiolevels</effectcategory>
							<effecttype>audiolevels</effecttype>
							<mediatype>audio</mediatype>
							<parameter>
								<name>Level</name>
								<parameterid>level</parameterid>
								<valuemin>0</valuemin>
								<valuemax>3.98109</valuemax>
								<value>1</value>
							</parameter>
						</effect>
					</filter>
					<filter>
						<effect>
							<name>Audio Pan</name>
							<effectid>audiopan</effectid>
							<effectcategory>audiopan</effectcategory>
							<effecttype>audiopan</effecttype>
							<mediatype>audio</mediatype>
							<parameter>
								<name>Pan</name>
								<parameterid>pan</parameterid>
								<valuemin>-1</valuemin>
								<valuemax>1</valuemax>
								<value>-1</value>
							</parameter>
						</effect>
					</filter>
					<sourcetrack>
						<mediatype>audio</mediatype>
						<trackindex>1</trackindex>
					</sourcetrack>
					<link>
						<linkclipref>MVI_0965 </linkclipref>
						<mediatype>video</mediatype>
						<trackindex>1</trackindex>
						<clipindex>2</clipindex>
					</link>
					<link>
						<linkclipref>MVI_0965 3</linkclipref>
						<mediatype>audio</mediatype>
						<trackindex>1</trackindex>
						<clipindex>2</clipindex>
						<groupindex>1</groupindex>
					</link>
					<link>
						<linkclipref>MVI_0965 4</linkclipref>
						<mediatype>audio</mediatype>
						<trackindex>2</trackindex>
						<clipindex>2</clipindex>
						<groupindex>1</groupindex>
					</link>
					<itemhistory>
						<uuid>5CA7908C-3606-456D-B11A-F2428FF2EC0F</uuid>
					</itemhistory>
				</clipitem>
				<clipitem id="MVI_0966 3">
					<name>MVI_0966</name>
					<duration>14479</duration>
					<rate>
						<ntsc>TRUE</ntsc>
						<timebase>24</timebase>
					</rate>
					<in>0</in>
					<out>14479</out>
					<start>23126</start>
					<end>37605</end>
					<masterclipid>MVI_0966 1</masterclipid>
					<logginginfo>
						<scene/>
						<shottake/>
						<lognote/>
						<good>FALSE</good>
					</logginginfo>
					<labels>
						<label2/>
					</labels>
					<comments>
						<mastercomment1/>
						<mastercomment2/>
						<mastercomment3/>
						<mastercomment4/>
					</comments>
					<file id="MVI_0966 2"/>
					<marker>
						<name>create your own luck</name>
						<comment>luck, chance, serendipity</comment>
						<color>
							<alpha>0</alpha>
							<red>255</red>
							<green>0</green>
							<blue>0</blue>
						</color>
						<in>170</in>
						<out>1088</out>
					</marker>
					<marker>
						<name>magic and tech</name>
						<comment>magic,technology,collaboration,wonder,skill</comment>
						<color>
							<alpha>0</alpha>
							<red>255</red>
							<green>0</green>
							<blue>0</blue>
						</color>
						<in>2920</in>
						<out>3742</out>
					</marker>
					<marker>
						<name>Goals</name>
						<comment>career,children,life,money,failure, success,</comment>
						<color>
							<alpha>0</alpha>
							<red>255</red>
							<green>0</green>
							<blue>0</blue>
						</color>
						<in>5347</in>
						<out>6723</out>
					</marker>
					<marker>
						<name/>
						<comment>creativity, artist, </comment>
						<color>
							<alpha>0</alpha>
							<red>255</red>
							<green>0</green>
							<blue>0</blue>
						</color>
						<in>7306</in>
						<out>8076</out>
					</marker>
					<marker>
						<name>Live performance,</name>
						<comment>live, performance, drawing, audiovisualization, collaboration, music,</comment>
						<color>
							<alpha>0</alpha>
							<red>255</red>
							<green>0</green>
							<blue>0</blue>
						</color>
						<in>10260</in>
						<out>11311</out>
					</marker>
					<marker>
						<name>drawing with noise</name>
						<comment>sound, noise, audiovisualization, performance</comment>
						<color>
							<alpha>0</alpha>
							<red>255</red>
							<green>0</green>
							<blue>0</blue>
						</color>
						<in>11426</in>
						<out>12756</out>
					</marker>
					<marker>
						<name>live drawing</name>
						<comment>drawing, live, performance, </comment>
						<color>
							<alpha>0</alpha>
							<red>255</red>
							<green>0</green>
							<blue>0</blue>
						</color>
						<in>12866</in>
						<out>13569</out>
					</marker>
					<filter>
						<effect>
							<name>Audio Levels</name>
							<effectid>audiolevels</effectid>
							<effectcategory>audiolevels</effectcategory>
							<effecttype>audiolevels</effecttype>
							<mediatype>audio</mediatype>
							<parameter>
								<name>Level</name>
								<parameterid>level</parameterid>
								<valuemin>0</valuemin>
								<valuemax>3.98109</valuemax>
								<value>1</value>
							</parameter>
						</effect>
					</filter>
					<filter>
						<effect>
							<name>Audio Pan</name>
							<effectid>audiopan</effectid>
							<effectcategory>audiopan</effectcategory>
							<effecttype>audiopan</effecttype>
							<mediatype>audio</mediatype>
							<parameter>
								<name>Pan</name>
								<parameterid>pan</parameterid>
								<valuemin>-1</valuemin>
								<valuemax>1</valuemax>
								<value>-1</value>
							</parameter>
						</effect>
					</filter>
					<sourcetrack>
						<mediatype>audio</mediatype>
						<trackindex>1</trackindex>
					</sourcetrack>
					<link>
						<linkclipref>MVI_0966 </linkclipref>
						<mediatype>video</mediatype>
						<trackindex>1</trackindex>
						<clipindex>3</clipindex>
					</link>
					<link>
						<linkclipref>MVI_0966 3</linkclipref>
						<mediatype>audio</mediatype>
						<trackindex>1</trackindex>
						<clipindex>3</clipindex>
						<groupindex>1</groupindex>
					</link>
					<link>
						<linkclipref>MVI_0966 4</linkclipref>
						<mediatype>audio</mediatype>
						<trackindex>2</trackindex>
						<clipindex>3</clipindex>
						<groupindex>1</groupindex>
					</link>
					<itemhistory>
						<uuid>C5BCC680-4CA5-466C-9563-35A81278A87C</uuid>
					</itemhistory>
				</clipitem>
				<clipitem id="MVI_0967 3">
					<name>MVI_0967</name>
					<duration>2834</duration>
					<rate>
						<ntsc>TRUE</ntsc>
						<timebase>24</timebase>
					</rate>
					<in>0</in>
					<out>2834</out>
					<start>37605</start>
					<end>40439</end>
					<masterclipid>MVI_0967 1</masterclipid>
					<logginginfo>
						<scene/>
						<shottake/>
						<lognote/>
						<good>FALSE</good>
					</logginginfo>
					<labels>
						<label2/>
					</labels>
					<comments>
						<mastercomment1/>
						<mastercomment2/>
						<mastercomment3/>
						<mastercomment4/>
					</comments>
					<file id="MVI_0967 2"/>
					<marker>
						<name>group improvisation</name>
						<comment>live, improvisation, embodiment, interactivity, audience, gesture</comment>
						<color>
							<alpha>0</alpha>
							<red>255</red>
							<green>0</green>
							<blue>0</blue>
						</color>
						<in>629</in>
						<out>2188</out>
					</marker>
					<filter>
						<effect>
							<name>Audio Levels</name>
							<effectid>audiolevels</effectid>
							<effectcategory>audiolevels</effectcategory>
							<effecttype>audiolevels</effecttype>
							<mediatype>audio</mediatype>
							<parameter>
								<name>Level</name>
								<parameterid>level</parameterid>
								<valuemin>0</valuemin>
								<valuemax>3.98109</valuemax>
								<value>1</value>
							</parameter>
						</effect>
					</filter>
					<filter>
						<effect>
							<name>Audio Pan</name>
							<effectid>audiopan</effectid>
							<effectcategory>audiopan</effectcategory>
							<effecttype>audiopan</effecttype>
							<mediatype>audio</mediatype>
							<parameter>
								<name>Pan</name>
								<parameterid>pan</parameterid>
								<valuemin>-1</valuemin>
								<valuemax>1</valuemax>
								<value>-1</value>
							</parameter>
						</effect>
					</filter>
					<sourcetrack>
						<mediatype>audio</mediatype>
						<trackindex>1</trackindex>
					</sourcetrack>
					<link>
						<linkclipref>MVI_0967 </linkclipref>
						<mediatype>video</mediatype>
						<trackindex>1</trackindex>
						<clipindex>4</clipindex>
					</link>
					<link>
						<linkclipref>MVI_0967 3</linkclipref>
						<mediatype>audio</mediatype>
						<trackindex>1</trackindex>
						<clipindex>4</clipindex>
						<groupindex>1</groupindex>
					</link>
					<link>
						<linkclipref>MVI_0967 4</linkclipref>
						<mediatype>audio</mediatype>
						<trackindex>2</trackindex>
						<clipindex>4</clipindex>
						<groupindex>1</groupindex>
					</link>
					<itemhistory>
						<uuid>008BEDEA-FFB6-4262-AB92-9C83F6C48042</uuid>
					</itemhistory>
				</clipitem>
				<clipitem id="MVI_0964 6">
					<name>MVI_0964</name>
					<duration>16636</duration>
					<rate>
						<ntsc>TRUE</ntsc>
						<timebase>24</timebase>
					</rate>
					<in>0</in>
					<out>16636</out>
					<start>44620</start>
					<end>61256</end>
					<masterclipid>MVI_0964 1</masterclipid>
					<logginginfo>
						<scene/>
						<shottake/>
						<lognote/>
						<good>FALSE</good>
					</logginginfo>
					<labels>
						<label2/>
					</labels>
					<comments>
						<mastercomment1/>
						<mastercomment2/>
						<mastercomment3/>
						<mastercomment4/>
					</comments>
					<file id="MVI_0964 2"/>
					<marker>
						<name>live drawing</name>
						<comment>collaboration with machines, software, performance, </comment>
						<color>
							<alpha>0</alpha>
							<red>255</red>
							<green>0</green>
							<blue>0</blue>
						</color>
						<in>661</in>
						<out>1498</out>
					</marker>
					<marker>
						<name>every line is a mistake</name>
						<comment>zen, failure, success, drawing,</comment>
						<color>
							<alpha>0</alpha>
							<red>255</red>
							<green>0</green>
							<blue>0</blue>
						</color>
						<in>5839</in>
						<out>6220</out>
					</marker>
					<marker>
						<name>Coding gesturally</name>
						<comment>coding, programming, gesture, sketching, improvization, digital meets physical, digital divide,</comment>
						<color>
							<alpha>0</alpha>
							<red>255</red>
							<green>0</green>
							<blue>0</blue>
						</color>
						<in>9659</in>
						<out>10238</out>
					</marker>
					<marker>
						<name>full circle</name>
						<comment>post-digital,digital meets physical,drawing,sketching,physicality,creativity</comment>
						<color>
							<alpha>0</alpha>
							<red>255</red>
							<green>0</green>
							<blue>0</blue>
						</color>
						<in>11695</in>
						<out>12037</out>
					</marker>
					<marker>
						<name>full circle</name>
						<comment>post-digital,digital meets physical,physicality,technological progress</comment>
						<color>
							<alpha>0</alpha>
							<red>255</red>
							<green>0</green>
							<blue>0</blue>
						</color>
						<in>12289</in>
						<out>12488</out>
					</marker>
					<marker>
						<name>simple</name>
						<comment>simplicity, line, values, conviction, focus, zen&#13;&#13;</comment>
						<color>
							<alpha>0</alpha>
							<red>255</red>
							<green>0</green>
							<blue>0</blue>
						</color>
						<in>13448</in>
						<out>13920</out>
					</marker>
					<marker>
						<name>sharing</name>
						<comment>storytelling,experience,feeling,sharing,expression,self expression,self-knowledge</comment>
						<color>
							<alpha>0</alpha>
							<red>255</red>
							<green>0</green>
							<blue>0</blue>
						</color>
						<in>15314</in>
						<out>16473</out>
					</marker>
					<filter>
						<effect>
							<name>Audio Levels</name>
							<effectid>audiolevels</effectid>
							<effectcategory>audiolevels</effectcategory>
							<effecttype>audiolevels</effecttype>
							<mediatype>audio</mediatype>
							<parameter>
								<name>Level</name>
								<parameterid>level</parameterid>
								<valuemin>0</valuemin>
								<valuemax>3.98109</valuemax>
								<value>1</value>
							</parameter>
						</effect>
					</filter>
					<filter>
						<effect>
							<name>Audio Pan</name>
							<effectid>audiopan</effectid>
							<effectcategory>audiopan</effectcategory>
							<effecttype>audiopan</effecttype>
							<mediatype>audio</mediatype>
							<parameter>
								<name>Pan</name>
								<parameterid>pan</parameterid>
								<valuemin>-1</valuemin>
								<valuemax>1</valuemax>
								<value>-1</value>
							</parameter>
						</effect>
					</filter>
					<sourcetrack>
						<mediatype>audio</mediatype>
						<trackindex>1</trackindex>
					</sourcetrack>
					<link>
						<linkclipref>MVI_0964 5</linkclipref>
						<mediatype>video</mediatype>
						<trackindex>2</trackindex>
						<clipindex>1</clipindex>
					</link>
					<link>
						<linkclipref>MVI_0964 6</linkclipref>
						<mediatype>audio</mediatype>
						<trackindex>1</trackindex>
						<clipindex>5</clipindex>
						<groupindex>1</groupindex>
					</link>
					<link>
						<linkclipref>MVI_0964 7</linkclipref>
						<mediatype>audio</mediatype>
						<trackindex>2</trackindex>
						<clipindex>5</clipindex>
						<groupindex>1</groupindex>
					</link>
					<itemhistory>
						<uuid>6C568707-6838-42DB-B3E5-270FC179578B</uuid>
					</itemhistory>
				</clipitem>
				<enabled>TRUE</enabled>
				<locked>FALSE</locked>
				<outputchannelindex>1</outputchannelindex>
			</track>
			<track>
				<clipitem id="MVI_0964 4">
					<name>MVI_0964</name>
					<duration>16636</duration>
					<rate>
						<ntsc>TRUE</ntsc>
						<timebase>24</timebase>
					</rate>
					<in>0</in>
					<out>16636</out>
					<start>0</start>
					<end>16636</end>
					<masterclipid>MVI_0964 1</masterclipid>
					<logginginfo>
						<scene/>
						<shottake/>
						<lognote/>
						<good>FALSE</good>
					</logginginfo>
					<labels>
						<label2/>
					</labels>
					<comments>
						<mastercomment1/>
						<mastercomment2/>
						<mastercomment3/>
						<mastercomment4/>
					</comments>
					<file id="MVI_0964 2"/>
					<marker>
						<name>drawing with the computer</name>
						<comment>collaboration with machines,drawing,process,line,mind and hand,thinking by doing, tools&#13;</comment>
						<color>
							<alpha>0</alpha>
							<red>255</red>
							<green>0</green>
							<blue>0</blue>
						</color>
						<in>1812</in>
						<out>2510</out>
					</marker>
					<marker>
						<name>Markmaking software</name>
						<comment>drawing, software, collaboration with machines, improvisation, gesture,</comment>
						<color>
							<alpha>0</alpha>
							<red>255</red>
							<green>0</green>
							<blue>0</blue>
						</color>
						<in>2614</in>
						<out>3092</out>
					</marker>
					<marker>
						<name>big kid</name>
						<comment>fun,whimsy,children,play</comment>
						<color>
							<alpha>0</alpha>
							<red>255</red>
							<green>0</green>
							<blue>0</blue>
						</color>
						<in>3320</in>
						<out>3976</out>
					</marker>
					<marker>
						<name>Drawing with machines</name>
						<comment>drawing, collaboration with machines,machine aesthetics,beginnings</comment>
						<color>
							<alpha>0</alpha>
							<red>255</red>
							<green>0</green>
							<blue>0</blue>
						</color>
						<in>4255</in>
						<out>5106</out>
					</marker>
					<marker>
						<name>drawing with computers</name>
						<comment>failure,mistakes,experimentation,exploration,drawing,improvization,collaboration with machines,zen,</comment>
						<color>
							<alpha>0</alpha>
							<red>255</red>
							<green>0</green>
							<blue>0</blue>
						</color>
						<in>5316</in>
						<out>6218</out>
					</marker>
					<marker>
						<name>meeting zach</name>
						<comment>connections, drawing, performance, zach lieberman, collaboration</comment>
						<color>
							<alpha>0</alpha>
							<red>255</red>
							<green>0</green>
							<blue>0</blue>
						</color>
						<in>6345</in>
						<out>7015</out>
					</marker>
					<marker>
						<name>work with zach</name>
						<comment>digital meets physical, drawing, thinking by doing, connections, collabortion</comment>
						<color>
							<alpha>0</alpha>
							<red>255</red>
							<green>0</green>
							<blue>0</blue>
						</color>
						<in>7087</in>
						<out>8046</out>
					</marker>
					<marker>
						<name>Coding: what does it feel like?</name>
						<comment>coding, programming, gesture, sketching, improvization,</comment>
						<color>
							<alpha>0</alpha>
							<red>255</red>
							<green>0</green>
							<blue>0</blue>
						</color>
						<in>8517</in>
						<out>10163</out>
					</marker>
					<marker>
						<name>full circle</name>
						<comment>post-digital,digital meets physical,drawing,sketching,physicality,creativity</comment>
						<color>
							<alpha>0</alpha>
							<red>255</red>
							<green>0</green>
							<blue>0</blue>
						</color>
						<in>10915</in>
						<out>12034</out>
					</marker>
					<marker>
						<name>take the line further</name>
						<comment>branching, progress, mastery, drawing, skill, mind and hand,discovery, distraction&#13;</comment>
						<color>
							<alpha>0</alpha>
							<red>255</red>
							<green>0</green>
							<blue>0</blue>
						</color>
						<in>13944</in>
						<out>14926</out>
					</marker>
					<filter>
						<effect>
							<name>Audio Levels</name>
							<effectid>audiolevels</effectid>
							<effectcategory>audiolevels</effectcategory>
							<effecttype>audiolevels</effecttype>
							<mediatype>audio</mediatype>
							<parameter>
								<name>Level</name>
								<parameterid>level</parameterid>
								<valuemin>0</valuemin>
								<valuemax>3.98109</valuemax>
								<value>1</value>
							</parameter>
						</effect>
					</filter>
					<filter>
						<effect>
							<name>Audio Pan</name>
							<effectid>audiopan</effectid>
							<effectcategory>audiopan</effectcategory>
							<effecttype>audiopan</effecttype>
							<mediatype>audio</mediatype>
							<parameter>
								<name>Pan</name>
								<parameterid>pan</parameterid>
								<valuemin>-1</valuemin>
								<valuemax>1</valuemax>
								<value>1</value>
							</parameter>
						</effect>
					</filter>
					<sourcetrack>
						<mediatype>audio</mediatype>
						<trackindex>2</trackindex>
					</sourcetrack>
					<link>
						<linkclipref>MVI_0964 </linkclipref>
						<mediatype>video</mediatype>
						<trackindex>1</trackindex>
						<clipindex>1</clipindex>
					</link>
					<link>
						<linkclipref>MVI_0964 3</linkclipref>
						<mediatype>audio</mediatype>
						<trackindex>1</trackindex>
						<clipindex>1</clipindex>
						<groupindex>1</groupindex>
					</link>
					<link>
						<linkclipref>MVI_0964 4</linkclipref>
						<mediatype>audio</mediatype>
						<trackindex>2</trackindex>
						<clipindex>1</clipindex>
						<groupindex>1</groupindex>
					</link>
					<itemhistory>
						<uuid>70741473-A9C4-4785-8A0C-F9890B0AA4CA</uuid>
					</itemhistory>
				</clipitem>
				<clipitem id="MVI_0965 4">
					<name>MVI_0965</name>
					<duration>6490</duration>
					<rate>
						<ntsc>TRUE</ntsc>
						<timebase>24</timebase>
					</rate>
					<in>0</in>
					<out>6490</out>
					<start>16636</start>
					<end>23126</end>
					<masterclipid>MVI_0965 1</masterclipid>
					<logginginfo>
						<scene/>
						<shottake/>
						<lognote/>
						<good>FALSE</good>
					</logginginfo>
					<labels>
						<label2/>
					</labels>
					<comments>
						<mastercomment1/>
						<mastercomment2/>
						<mastercomment3/>
						<mastercomment4/>
					</comments>
					<file id="MVI_0965 2"/>
					<marker>
						<name>Marker 5</name>
						<comment/>
						<color>
							<alpha>0</alpha>
							<red>255</red>
							<green>0</green>
							<blue>0</blue>
						</color>
						<in>1045</in>
						<out>1427</out>
					</marker>
					<marker>
						<name>Marker 6</name>
						<comment/>
						<color>
							<alpha>0</alpha>
							<red>255</red>
							<green>0</green>
							<blue>0</blue>
						</color>
						<in>2308</in>
						<out>3173</out>
					</marker>
					<marker>
						<name>Kids</name>
						<comment>children, play, imagination, possibility, interactivity</comment>
						<color>
							<alpha>0</alpha>
							<red>255</red>
							<green>0</green>
							<blue>0</blue>
						</color>
						<in>3332</in>
						<out>3641</out>
					</marker>
					<marker>
						<name>luck</name>
						<comment>luck,chance,serendipity,randomness,sharing,gift, </comment>
						<color>
							<alpha>0</alpha>
							<red>255</red>
							<green>0</green>
							<blue>0</blue>
						</color>
						<in>4298</in>
						<out>5839</out>
					</marker>
					<filter>
						<effect>
							<name>Audio Levels</name>
							<effectid>audiolevels</effectid>
							<effectcategory>audiolevels</effectcategory>
							<effecttype>audiolevels</effecttype>
							<mediatype>audio</mediatype>
							<parameter>
								<name>Level</name>
								<parameterid>level</parameterid>
								<valuemin>0</valuemin>
								<valuemax>3.98109</valuemax>
								<value>1</value>
							</parameter>
						</effect>
					</filter>
					<filter>
						<effect>
							<name>Audio Pan</name>
							<effectid>audiopan</effectid>
							<effectcategory>audiopan</effectcategory>
							<effecttype>audiopan</effecttype>
							<mediatype>audio</mediatype>
							<parameter>
								<name>Pan</name>
								<parameterid>pan</parameterid>
								<valuemin>-1</valuemin>
								<valuemax>1</valuemax>
								<value>1</value>
							</parameter>
						</effect>
					</filter>
					<sourcetrack>
						<mediatype>audio</mediatype>
						<trackindex>2</trackindex>
					</sourcetrack>
					<link>
						<linkclipref>MVI_0965 </linkclipref>
						<mediatype>video</mediatype>
						<trackindex>1</trackindex>
						<clipindex>2</clipindex>
					</link>
					<link>
						<linkclipref>MVI_0965 3</linkclipref>
						<mediatype>audio</mediatype>
						<trackindex>1</trackindex>
						<clipindex>2</clipindex>
						<groupindex>1</groupindex>
					</link>
					<link>
						<linkclipref>MVI_0965 4</linkclipref>
						<mediatype>audio</mediatype>
						<trackindex>2</trackindex>
						<clipindex>2</clipindex>
						<groupindex>1</groupindex>
					</link>
					<itemhistory>
						<uuid>52A90EDC-AF7F-41C5-8F88-D3B47061EC5A</uuid>
					</itemhistory>
				</clipitem>
				<clipitem id="MVI_0966 4">
					<name>MVI_0966</name>
					<duration>14479</duration>
					<rate>
						<ntsc>TRUE</ntsc>
						<timebase>24</timebase>
					</rate>
					<in>0</in>
					<out>14479</out>
					<start>23126</start>
					<end>37605</end>
					<masterclipid>MVI_0966 1</masterclipid>
					<logginginfo>
						<scene/>
						<shottake/>
						<lognote/>
						<good>FALSE</good>
					</logginginfo>
					<labels>
						<label2/>
					</labels>
					<comments>
						<mastercomment1/>
						<mastercomment2/>
						<mastercomment3/>
						<mastercomment4/>
					</comments>
					<file id="MVI_0966 2"/>
					<marker>
						<name>create your own luck</name>
						<comment>luck, chance, serendipity</comment>
						<color>
							<alpha>0</alpha>
							<red>255</red>
							<green>0</green>
							<blue>0</blue>
						</color>
						<in>170</in>
						<out>1088</out>
					</marker>
					<marker>
						<name>magic and tech</name>
						<comment>magic,technology,collaboration,wonder,skill</comment>
						<color>
							<alpha>0</alpha>
							<red>255</red>
							<green>0</green>
							<blue>0</blue>
						</color>
						<in>2920</in>
						<out>3742</out>
					</marker>
					<marker>
						<name>Goals</name>
						<comment>career,children,life,money,failure, success,</comment>
						<color>
							<alpha>0</alpha>
							<red>255</red>
							<green>0</green>
							<blue>0</blue>
						</color>
						<in>5347</in>
						<out>6723</out>
					</marker>
					<marker>
						<name/>
						<comment>creativity, artist, </comment>
						<color>
							<alpha>0</alpha>
							<red>255</red>
							<green>0</green>
							<blue>0</blue>
						</color>
						<in>7306</in>
						<out>8076</out>
					</marker>
					<marker>
						<name>Live performance,</name>
						<comment>live, performance, drawing, audiovisualization, collaboration, music,</comment>
						<color>
							<alpha>0</alpha>
							<red>255</red>
							<green>0</green>
							<blue>0</blue>
						</color>
						<in>10260</in>
						<out>11311</out>
					</marker>
					<marker>
						<name>drawing with noise</name>
						<comment>sound, noise, audiovisualization, performance</comment>
						<color>
							<alpha>0</alpha>
							<red>255</red>
							<green>0</green>
							<blue>0</blue>
						</color>
						<in>11426</in>
						<out>12756</out>
					</marker>
					<marker>
						<name>live drawing</name>
						<comment>drawing, live, performance, </comment>
						<color>
							<alpha>0</alpha>
							<red>255</red>
							<green>0</green>
							<blue>0</blue>
						</color>
						<in>12866</in>
						<out>13569</out>
					</marker>
					<filter>
						<effect>
							<name>Audio Levels</name>
							<effectid>audiolevels</effectid>
							<effectcategory>audiolevels</effectcategory>
							<effecttype>audiolevels</effecttype>
							<mediatype>audio</mediatype>
							<parameter>
								<name>Level</name>
								<parameterid>level</parameterid>
								<valuemin>0</valuemin>
								<valuemax>3.98109</valuemax>
								<value>1</value>
							</parameter>
						</effect>
					</filter>
					<filter>
						<effect>
							<name>Audio Pan</name>
							<effectid>audiopan</effectid>
							<effectcategory>audiopan</effectcategory>
							<effecttype>audiopan</effecttype>
							<mediatype>audio</mediatype>
							<parameter>
								<name>Pan</name>
								<parameterid>pan</parameterid>
								<valuemin>-1</valuemin>
								<valuemax>1</valuemax>
								<value>1</value>
							</parameter>
						</effect>
					</filter>
					<sourcetrack>
						<mediatype>audio</mediatype>
						<trackindex>2</trackindex>
					</sourcetrack>
					<link>
						<linkclipref>MVI_0966 </linkclipref>
						<mediatype>video</mediatype>
						<trackindex>1</trackindex>
						<clipindex>3</clipindex>
					</link>
					<link>
						<linkclipref>MVI_0966 3</linkclipref>
						<mediatype>audio</mediatype>
						<trackindex>1</trackindex>
						<clipindex>3</clipindex>
						<groupindex>1</groupindex>
					</link>
					<link>
						<linkclipref>MVI_0966 4</linkclipref>
						<mediatype>audio</mediatype>
						<trackindex>2</trackindex>
						<clipindex>3</clipindex>
						<groupindex>1</groupindex>
					</link>
					<itemhistory>
						<uuid>FEA547C2-9B6F-4035-80DE-52A24936621D</uuid>
					</itemhistory>
				</clipitem>
				<clipitem id="MVI_0967 4">
					<name>MVI_0967</name>
					<duration>2834</duration>
					<rate>
						<ntsc>TRUE</ntsc>
						<timebase>24</timebase>
					</rate>
					<in>0</in>
					<out>2834</out>
					<start>37605</start>
					<end>40439</end>
					<masterclipid>MVI_0967 1</masterclipid>
					<logginginfo>
						<scene/>
						<shottake/>
						<lognote/>
						<good>FALSE</good>
					</logginginfo>
					<labels>
						<label2/>
					</labels>
					<comments>
						<mastercomment1/>
						<mastercomment2/>
						<mastercomment3/>
						<mastercomment4/>
					</comments>
					<file id="MVI_0967 2"/>
					<marker>
						<name>group improvisation</name>
						<comment>live, improvisation, embodiment, interactivity, audience, gesture</comment>
						<color>
							<alpha>0</alpha>
							<red>255</red>
							<green>0</green>
							<blue>0</blue>
						</color>
						<in>629</in>
						<out>2188</out>
					</marker>
					<filter>
						<effect>
							<name>Audio Levels</name>
							<effectid>audiolevels</effectid>
							<effectcategory>audiolevels</effectcategory>
							<effecttype>audiolevels</effecttype>
							<mediatype>audio</mediatype>
							<parameter>
								<name>Level</name>
								<parameterid>level</parameterid>
								<valuemin>0</valuemin>
								<valuemax>3.98109</valuemax>
								<value>1</value>
							</parameter>
						</effect>
					</filter>
					<filter>
						<effect>
							<name>Audio Pan</name>
							<effectid>audiopan</effectid>
							<effectcategory>audiopan</effectcategory>
							<effecttype>audiopan</effecttype>
							<mediatype>audio</mediatype>
							<parameter>
								<name>Pan</name>
								<parameterid>pan</parameterid>
								<valuemin>-1</valuemin>
								<valuemax>1</valuemax>
								<value>1</value>
							</parameter>
						</effect>
					</filter>
					<sourcetrack>
						<mediatype>audio</mediatype>
						<trackindex>2</trackindex>
					</sourcetrack>
					<link>
						<linkclipref>MVI_0967 </linkclipref>
						<mediatype>video</mediatype>
						<trackindex>1</trackindex>
						<clipindex>4</clipindex>
					</link>
					<link>
						<linkclipref>MVI_0967 3</linkclipref>
						<mediatype>audio</mediatype>
						<trackindex>1</trackindex>
						<clipindex>4</clipindex>
						<groupindex>1</groupindex>
					</link>
					<link>
						<linkclipref>MVI_0967 4</linkclipref>
						<mediatype>audio</mediatype>
						<trackindex>2</trackindex>
						<clipindex>4</clipindex>
						<groupindex>1</groupindex>
					</link>
					<itemhistory>
						<uuid>14882BB4-ECB6-4261-AA54-19A71C7414CA</uuid>
					</itemhistory>
				</clipitem>
				<clipitem id="MVI_0964 7">
					<name>MVI_0964</name>
					<duration>16636</duration>
					<rate>
						<ntsc>TRUE</ntsc>
						<timebase>24</timebase>
					</rate>
					<in>0</in>
					<out>16636</out>
					<start>44620</start>
					<end>61256</end>
					<masterclipid>MVI_0964 1</masterclipid>
					<logginginfo>
						<scene/>
						<shottake/>
						<lognote/>
						<good>FALSE</good>
					</logginginfo>
					<labels>
						<label2/>
					</labels>
					<comments>
						<mastercomment1/>
						<mastercomment2/>
						<mastercomment3/>
						<mastercomment4/>
					</comments>
					<file id="MVI_0964 2"/>
					<marker>
						<name>live drawing</name>
						<comment>collaboration with machines, software, performance, </comment>
						<color>
							<alpha>0</alpha>
							<red>255</red>
							<green>0</green>
							<blue>0</blue>
						</color>
						<in>661</in>
						<out>1498</out>
					</marker>
					<marker>
						<name>every line is a mistake</name>
						<comment>zen, failure, success, drawing,</comment>
						<color>
							<alpha>0</alpha>
							<red>255</red>
							<green>0</green>
							<blue>0</blue>
						</color>
						<in>5839</in>
						<out>6220</out>
					</marker>
					<marker>
						<name>Coding gesturally</name>
						<comment>coding, programming, gesture, sketching, improvization, digital meets physical, digital divide,</comment>
						<color>
							<alpha>0</alpha>
							<red>255</red>
							<green>0</green>
							<blue>0</blue>
						</color>
						<in>9659</in>
						<out>10238</out>
					</marker>
					<marker>
						<name>full circle</name>
						<comment>post-digital,digital meets physical,drawing,sketching,physicality,creativity</comment>
						<color>
							<alpha>0</alpha>
							<red>255</red>
							<green>0</green>
							<blue>0</blue>
						</color>
						<in>11695</in>
						<out>12037</out>
					</marker>
					<marker>
						<name>full circle</name>
						<comment>post-digital,digital meets physical,physicality,technological progress</comment>
						<color>
							<alpha>0</alpha>
							<red>255</red>
							<green>0</green>
							<blue>0</blue>
						</color>
						<in>12289</in>
						<out>12488</out>
					</marker>
					<marker>
						<name>simple</name>
						<comment>simplicity, line, values, conviction, focus, zen&#13;&#13;</comment>
						<color>
							<alpha>0</alpha>
							<red>255</red>
							<green>0</green>
							<blue>0</blue>
						</color>
						<in>13448</in>
						<out>13920</out>
					</marker>
					<marker>
						<name>sharing</name>
						<comment>storytelling,experience,feeling,sharing,expression,self expression,self-knowledge</comment>
						<color>
							<alpha>0</alpha>
							<red>255</red>
							<green>0</green>
							<blue>0</blue>
						</color>
						<in>15314</in>
						<out>16473</out>
					</marker>
					<filter>
						<effect>
							<name>Audio Levels</name>
							<effectid>audiolevels</effectid>
							<effectcategory>audiolevels</effectcategory>
							<effecttype>audiolevels</effecttype>
							<mediatype>audio</mediatype>
							<parameter>
								<name>Level</name>
								<parameterid>level</parameterid>
								<valuemin>0</valuemin>
								<valuemax>3.98109</valuemax>
								<value>1</value>
							</parameter>
						</effect>
					</filter>
					<filter>
						<effect>
							<name>Audio Pan</name>
							<effectid>audiopan</effectid>
							<effectcategory>audiopan</effectcategory>
							<effecttype>audiopan</effecttype>
							<mediatype>audio</mediatype>
							<parameter>
								<name>Pan</name>
								<parameterid>pan</parameterid>
								<valuemin>-1</valuemin>
								<valuemax>1</valuemax>
								<value>1</value>
							</parameter>
						</effect>
					</filter>
					<sourcetrack>
						<mediatype>audio</mediatype>
						<trackindex>2</trackindex>
					</sourcetrack>
					<link>
						<linkclipref>MVI_0964 5</linkclipref>
						<mediatype>video</mediatype>
						<trackindex>2</trackindex>
						<clipindex>1</clipindex>
					</link>
					<link>
						<linkclipref>MVI_0964 6</linkclipref>
						<mediatype>audio</mediatype>
						<trackindex>1</trackindex>
						<clipindex>5</clipindex>
						<groupindex>1</groupindex>
					</link>
					<link>
						<linkclipref>MVI_0964 7</linkclipref>
						<mediatype>audio</mediatype>
						<trackindex>2</trackindex>
						<clipindex>5</clipindex>
						<groupindex>1</groupindex>
					</link>
					<itemhistory>
						<uuid>52B71B1A-DC2E-4737-914C-8C988B6D944A</uuid>
					</itemhistory>
				</clipitem>
				<enabled>TRUE</enabled>
				<locked>FALSE</locked>
				<outputchannelindex>2</outputchannelindex>
			</track>
			<track>
				<enabled>TRUE</enabled>
				<locked>FALSE</locked>
				<outputchannelindex>1</outputchannelindex>
			</track>
			<track>
				<enabled>TRUE</enabled>
				<locked>FALSE</locked>
				<outputchannelindex>2</outputchannelindex>
			</track>
			<filter>
				<effect>
					<name>Audio Levels</name>
					<effectid>audiolevels</effectid>
					<effectcategory>audiolevels</effectcategory>
					<effecttype>audiolevels</effecttype>
					<mediatype>audio</mediatype>
					<parameter>
						<name>Level</name>
						<parameterid>level</parameterid>
						<valuemin>0</valuemin>
						<valuemax>3.98109</valuemax>
						<value>1</value>
					</parameter>
				</effect>
			</filter>
		</audio>
	</media>
	<ismasterclip>FALSE</ismasterclip>
	<marker>
		<name>Marker 1</name>
		<color>
			<alpha>0</alpha>
			<red>255</red>
			<green>0</green>
			<blue>0</blue>
		</color>
		<in>17681</in>
		<out>-1</out>
	</marker>
</sequence>
<sequence id="Shiffman">
	<uuid>0581F9B3-A976-46D3-9157-2E4D4F4145D8</uuid>
	<updatebehavior>add</updatebehavior>
	<name>Shiffman</name>
	<duration>59324</duration>
	<rate>
		<ntsc>TRUE</ntsc>
		<timebase>24</timebase>
	</rate>
	<timecode>
		<rate>
			<ntsc>TRUE</ntsc>
			<timebase>24</timebase>
		</rate>
		<string>01:00:00:00</string>
		<frame>86400</frame>
		<source>source</source>
		<displayformat>NDF</displayformat>
	</timecode>
	<in>7406</in>
	<out>-1</out>
	<media>
		<video>
			<format>
				<samplecharacteristics>
					<width>1920</width>
					<height>1080</height>
					<anamorphic>FALSE</anamorphic>
					<pixelaspectratio>Square</pixelaspectratio>
					<fielddominance>none</fielddominance>
					<rate>
						<ntsc>TRUE</ntsc>
						<timebase>24</timebase>
					</rate>
					<colordepth>24</colordepth>
					<codec>
						<name>Apple ProRes 422</name>
						<appspecificdata>
							<appname>Final Cut Pro</appname>
							<appmanufacturer>Apple Inc.</appmanufacturer>
							<appversion>7.0</appversion>
							<data>
								<qtcodec>
									<codecname>Apple ProRes 422</codecname>
									<codectypename>Apple ProRes 422</codectypename>
									<codectypecode>apcn</codectypecode>
									<codecvendorcode>appl</codecvendorcode>
									<spatialquality>1024</spatialquality>
									<temporalquality>0</temporalquality>
									<keyframerate>0</keyframerate>
									<datarate>0</datarate>
								</qtcodec>
							</data>
						</appspecificdata>
					</codec>
				</samplecharacteristics>
				<appspecificdata>
					<appname>Final Cut Pro</appname>
					<appmanufacturer>Apple Inc.</appmanufacturer>
					<appversion>7.0</appversion>
					<data>
						<fcpimageprocessing>
							<useyuv>TRUE</useyuv>
							<usesuperwhite>FALSE</usesuperwhite>
							<rendermode>Float10BPP</rendermode>
						</fcpimageprocessing>
					</data>
				</appspecificdata>
			</format>
			<track>
				<clipitem id="MVI_1192 ">
					<name>MVI_1192</name>
					<duration>14098</duration>
					<rate>
						<ntsc>TRUE</ntsc>
						<timebase>24</timebase>
					</rate>
					<in>0</in>
					<out>14098</out>
					<start>0</start>
					<end>14098</end>
					<pixelaspectratio>Square</pixelaspectratio>
					<enabled>TRUE</enabled>
					<anamorphic>FALSE</anamorphic>
					<alphatype>none</alphatype>
					<masterclipid>MVI_1192 1</masterclipid>
					<logginginfo>
						<scene/>
						<shottake/>
						<lognote/>
						<good>FALSE</good>
					</logginginfo>
					<labels>
						<label2/>
					</labels>
					<comments>
						<mastercomment1/>
						<mastercomment2/>
						<mastercomment3/>
						<mastercomment4/>
					</comments>
					<file id="MVI_1192 2">
						<name>MVI_1192.mov</name>
						<pathurl>file://localhost/Volumes/Nebula/MediaPackages/ITPClouds/Dan01/color/MVI_1192.mov</pathurl>
						<rate>
							<timebase>24</timebase>
							<ntsc>TRUE</ntsc>
						</rate>
						<duration>14098</duration>
						<media>
							<video>
								<duration>14098</duration>
								<samplecharacteristics>
									<width>1920</width>
									<height>1080</height>
								</samplecharacteristics>
							</video>
							<audio>
								<samplecharacteristics>
									<samplerate>48000</samplerate>
									<depth>16</depth>
								</samplecharacteristics>
								<channelcount>2</channelcount>
							</audio>
						</media>
					</file>
					<marker>
						<name>Maybe I'd like that</name>
						<comment>beginning,&#13;programming,&#13;code,&#13;learning,</comment>
						<color>
							<alpha>0</alpha>
							<red>255</red>
							<green>0</green>
							<blue>0</blue>
						</color>
						<in>1256</in>
						<out>1699</out>
					</marker>
					<marker>
						<name>Magnets</name>
						<comment>physics,&#13;nature,&#13;beginning,&#13;discovery,&#13;learning,</comment>
						<color>
							<alpha>0</alpha>
							<red>255</red>
							<green>0</green>
							<blue>0</blue>
						</color>
						<in>2336</in>
						<out>2920</out>
					</marker>
					<marker>
						<name>sketching with code</name>
						<comment>epiphany,&#13;drawing,&#13;feedback,&#13;visual thinking,&#13;learning,&#13;tweaking,&#13;generative art,&#13;mood: excitement,&#13;mood: inspiring,&#13;</comment>
						<color>
							<alpha>0</alpha>
							<red>255</red>
							<green>0</green>
							<blue>0</blue>
						</color>
						<in>3041</in>
						<out>3470</out>
					</marker>
					<marker>
						<name>Not a visual thinker</name>
						<comment>How does visual feedback help you to learn programming?,&#13;visual thinking,&#13;education,&#13;learning,&#13;drawing,&#13;</comment>
						<color>
							<alpha>0</alpha>
							<red>255</red>
							<green>0</green>
							<blue>0</blue>
						</color>
						<in>5542</in>
						<out>7254</out>
					</marker>
					<marker>
						<name>what computers can do</name>
						<comment>What do computers offer artists that they cannot accomplish by other means?,&#13;What is a computer?,&#13;iteration,&#13;process,&#13;physicality,&#13;drawing,</comment>
						<color>
							<alpha>0</alpha>
							<red>255</red>
							<green>0</green>
							<blue>0</blue>
						</color>
						<in>7820</in>
						<out>8801</out>
					</marker>
					<marker>
						<name>There's an element of surprise</name>
						<comment>Does coding enable you to take risks because there's no physical consequence?,&#13;surprise,&#13;serendipity, &#13;process,&#13;creativity,</comment>
						<color>
							<alpha>0</alpha>
							<red>255</red>
							<green>0</green>
							<blue>0</blue>
						</color>
						<in>10119</in>
						<out>10196</out>
					</marker>
					<marker>
						<name>Marker 7</name>
						<comment>No big deal -- link to Maeda,&#13;teaching,&#13;mood: positive "you can do it",</comment>
						<color>
							<alpha>0</alpha>
							<red>255</red>
							<green>0</green>
							<blue>0</blue>
						</color>
						<in>10237</in>
						<out>10992</out>
					</marker>
					<marker>
						<name>Marker 8</name>
						<comment>simulation,&#13;nature,&#13;multiverse,&#13;phenomena,&#13;song: fourtet peace for earth,</comment>
						<color>
							<alpha>0</alpha>
							<red>255</red>
							<green>0</green>
							<blue>0</blue>
						</color>
						<in>11872</in>
						<out>12543</out>
					</marker>
					<marker>
						<name>Nature of code p. 2</name>
						<comment>simulation,&#13;physics,&#13;nature,</comment>
						<color>
							<alpha>0</alpha>
							<red>255</red>
							<green>0</green>
							<blue>0</blue>
						</color>
						<in>12815</in>
						<out>13850</out>
					</marker>
					<sourcetrack>
						<mediatype>video</mediatype>
					</sourcetrack>
					<link>
						<linkclipref>MVI_1192 </linkclipref>
						<mediatype>video</mediatype>
						<trackindex>1</trackindex>
						<clipindex>1</clipindex>
					</link>
					<link>
						<linkclipref>MVI_1192 3</linkclipref>
						<mediatype>audio</mediatype>
						<trackindex>1</trackindex>
						<clipindex>1</clipindex>
						<groupindex>1</groupindex>
					</link>
					<link>
						<linkclipref>MVI_1192 4</linkclipref>
						<mediatype>audio</mediatype>
						<trackindex>2</trackindex>
						<clipindex>1</clipindex>
						<groupindex>1</groupindex>
					</link>
					<fielddominance>none</fielddominance>
					<itemhistory>
						<uuid>6B134998-9D19-47ED-9DF0-8E48821CEB42</uuid>
					</itemhistory>
				</clipitem>
				<clipitem id="MVI_1193 ">
					<name>MVI_1193</name>
					<duration>14119</duration>
					<rate>
						<ntsc>TRUE</ntsc>
						<timebase>24</timebase>
					</rate>
					<in>0</in>
					<out>6392</out>
					<start>14098</start>
					<end>20490</end>
					<pixelaspectratio>Square</pixelaspectratio>
					<enabled>TRUE</enabled>
					<anamorphic>FALSE</anamorphic>
					<alphatype>none</alphatype>
					<masterclipid>MVI_1193 1</masterclipid>
					<logginginfo>
						<scene/>
						<shottake/>
						<lognote/>
						<good>FALSE</good>
					</logginginfo>
					<labels>
						<label2/>
					</labels>
					<comments>
						<mastercomment1/>
						<mastercomment2/>
						<mastercomment3/>
						<mastercomment4/>
					</comments>
					<file id="MVI_1193 2">
						<name>MVI_1193.mov</name>
						<pathurl>file://localhost/Volumes/Nebula/MediaPackages/ITPClouds/Dan02/color/MVI_1193.mov</pathurl>
						<rate>
							<timebase>24</timebase>
							<ntsc>TRUE</ntsc>
						</rate>
						<duration>14119</duration>
						<media>
							<video>
								<duration>14119</duration>
								<samplecharacteristics>
									<width>1920</width>
									<height>1080</height>
								</samplecharacteristics>
							</video>
							<audio>
								<samplecharacteristics>
									<samplerate>48000</samplerate>
									<depth>16</depth>
								</samplecharacteristics>
								<channelcount>2</channelcount>
							</audio>
						</media>
					</file>
					<marker>
						<name>Marker 1</name>
						<comment>reminds me of ancient greek tomes euclid's elements,&#13;story,&#13;book,&#13;teaching,&#13;logic,&#13;cosmogeny,&#13;wisdom,&#13;motion,&#13;song: fourtet peace on earth,&#13;</comment>
						<color>
							<alpha>0</alpha>
							<red>255</red>
							<green>0</green>
							<blue>0</blue>
						</color>
						<in>893</in>
						<out>2883</out>
					</marker>
					<marker>
						<name>Games</name>
						<comment>How does gaming influence your work?,&#13;games,&#13;simulation, &#13;emergence,&#13;complexity,</comment>
						<color>
							<alpha>0</alpha>
							<red>255</red>
							<green>0</green>
							<blue>0</blue>
						</color>
						<in>3697</in>
						<out>4378</out>
					</marker>
					<marker>
						<name>building a universe</name>
						<comment>cosmogeny,&#13;nature,&#13;simulation,&#13;god,&#13;</comment>
						<color>
							<alpha>0</alpha>
							<red>255</red>
							<green>0</green>
							<blue>0</blue>
						</color>
						<in>4957</in>
						<out>5154</out>
					</marker>
					<marker>
						<name>programming the universe</name>
						<comment>cosmogeny,&#13;nature,&#13;simulation,&#13;god,&#13;</comment>
						<color>
							<alpha>0</alpha>
							<red>255</red>
							<green>0</green>
							<blue>0</blue>
						</color>
						<in>5429</in>
						<out>5878</out>
					</marker>
					<marker>
						<name>how far could we get?</name>
						<comment>cosmogeny,&#13;nature,&#13;simulation,&#13;algorithm,&#13;phenomena,&#13;systems&#13;</comment>
						<color>
							<alpha>0</alpha>
							<red>255</red>
							<green>0</green>
							<blue>0</blue>
						</color>
						<in>6392</in>
						<out>7059</out>
					</marker>
					<marker>
						<name>million monkeys</name>
						<comment>do you believe it's possible to build the universe inside a computer?,&#13;infinity,&#13;chance,&#13;possibility,&#13;complexity,&#13;philosophy,&#13;</comment>
						<color>
							<alpha>0</alpha>
							<red>255</red>
							<green>0</green>
							<blue>0</blue>
						</color>
						<in>7108</in>
						<out>7800</out>
					</marker>
					<marker>
						<name/>
						<comment>is there an absolute reality that can be understood mathematically?,&#13;math,&#13;algorithm,&#13;nature,</comment>
						<color>
							<alpha>0</alpha>
							<red>255</red>
							<green>0</green>
							<blue>0</blue>
						</color>
						<in>8679</in>
						<out>-1</out>
					</marker>
					<marker>
						<name>reality will only get you so far</name>
						<comment>reality,&#13;virtual,&#13;real meets virtual,&#13;digital meets physical,&#13;inexactitude,&#13;art versus engineering,&#13;simulation,</comment>
						<color>
							<alpha>0</alpha>
							<red>255</red>
							<green>0</green>
							<blue>0</blue>
						</color>
						<in>8981</in>
						<out>9223</out>
					</marker>
					<marker>
						<name>Constraints,</name>
						<comment>real and virtual,&#13;simulation,&#13;physics,&#13;nature,&#13;parameters,&#13;constraints,&#13;code is messy,&#13;</comment>
						<color>
							<alpha>0</alpha>
							<red>255</red>
							<green>0</green>
							<blue>0</blue>
						</color>
						<in>9521</in>
						<out>10658</out>
					</marker>
					<marker>
						<name>make it random</name>
						<comment>what's the importance of randomness and probabilty?,&#13;randomness,&#13;processing,&#13;creative process,&#13;</comment>
						<color>
							<alpha>0</alpha>
							<red>255</red>
							<green>0</green>
							<blue>0</blue>
						</color>
						<in>11126</in>
						<out>11636</out>
					</marker>
					<marker>
						<name>randomness can be not very thoughtful</name>
						<comment>randomness,&#13;critique,&#13;&#13;</comment>
						<color>
							<alpha>0</alpha>
							<red>255</red>
							<green>0</green>
							<blue>0</blue>
						</color>
						<in>11815</in>
						<out>12179</out>
					</marker>
					<marker>
						<name>mutation</name>
						<comment>randomness,&#13;evolution, &#13;simulation,&#13;</comment>
						<color>
							<alpha>0</alpha>
							<red>255</red>
							<green>0</green>
							<blue>0</blue>
						</color>
						<in>13547</in>
						<out>13966</out>
					</marker>
					<sourcetrack>
						<mediatype>video</mediatype>
					</sourcetrack>
					<link>
						<linkclipref>MVI_1193 </linkclipref>
						<mediatype>video</mediatype>
						<trackindex>1</trackindex>
						<clipindex>2</clipindex>
					</link>
					<link>
						<linkclipref>MVI_1193 3</linkclipref>
						<mediatype>audio</mediatype>
						<trackindex>1</trackindex>
						<clipindex>2</clipindex>
						<groupindex>1</groupindex>
					</link>
					<link>
						<linkclipref>MVI_1193 4</linkclipref>
						<mediatype>audio</mediatype>
						<trackindex>2</trackindex>
						<clipindex>2</clipindex>
						<groupindex>1</groupindex>
					</link>
					<fielddominance>none</fielddominance>
					<itemhistory>
						<uuid>20172B87-DDA8-4C72-A68B-96AF109AE9B5</uuid>
						<uuid>C2848266-074F-4510-A37A-CEB2B01B23FE</uuid>
					</itemhistory>
				</clipitem>
				<clipitem id="MVI_1193 5">
					<name>MVI_1193</name>
					<duration>14119</duration>
					<rate>
						<ntsc>TRUE</ntsc>
						<timebase>24</timebase>
					</rate>
					<in>6392</in>
					<out>7020</out>
					<start>20490</start>
					<end>21118</end>
					<pixelaspectratio>Square</pixelaspectratio>
					<enabled>TRUE</enabled>
					<anamorphic>FALSE</anamorphic>
					<alphatype>none</alphatype>
					<masterclipid>MVI_1193 1</masterclipid>
					<logginginfo>
						<scene/>
						<shottake/>
						<lognote/>
						<good>FALSE</good>
					</logginginfo>
					<labels>
						<label2/>
					</labels>
					<comments>
						<mastercomment1/>
						<mastercomment2/>
						<mastercomment3/>
						<mastercomment4/>
					</comments>
					<file id="MVI_1193 2"/>
					<marker>
						<name>Marker 1</name>
						<comment>reminds me of ancient greek tomes euclid's elements,&#13;story,&#13;book,&#13;teaching,&#13;logic,&#13;cosmogeny,&#13;wisdom,&#13;motion,&#13;song: fourtet peace on earth,&#13;</comment>
						<color>
							<alpha>0</alpha>
							<red>255</red>
							<green>0</green>
							<blue>0</blue>
						</color>
						<in>893</in>
						<out>2883</out>
					</marker>
					<marker>
						<name>Games</name>
						<comment>How does gaming influence your work?,&#13;games,&#13;simulation, &#13;emergence,&#13;complexity,</comment>
						<color>
							<alpha>0</alpha>
							<red>255</red>
							<green>0</green>
							<blue>0</blue>
						</color>
						<in>3697</in>
						<out>4378</out>
					</marker>
					<marker>
						<name>building a universe</name>
						<comment>cosmogeny,&#13;nature,&#13;simulation,&#13;god,&#13;</comment>
						<color>
							<alpha>0</alpha>
							<red>255</red>
							<green>0</green>
							<blue>0</blue>
						</color>
						<in>4957</in>
						<out>5154</out>
					</marker>
					<marker>
						<name>programming the universe</name>
						<comment>cosmogeny,&#13;nature,&#13;simulation,&#13;god,&#13;</comment>
						<color>
							<alpha>0</alpha>
							<red>255</red>
							<green>0</green>
							<blue>0</blue>
						</color>
						<in>5429</in>
						<out>5878</out>
					</marker>
					<marker>
						<name>how far could we get?</name>
						<comment>cosmogeny,&#13;nature,&#13;simulation,&#13;algorithm,&#13;phenomena,&#13;systems&#13;</comment>
						<color>
							<alpha>0</alpha>
							<red>255</red>
							<green>0</green>
							<blue>0</blue>
						</color>
						<in>6392</in>
						<out>7059</out>
					</marker>
					<marker>
						<name>million monkeys</name>
						<comment>do you believe it's possible to build the universe inside a computer?,&#13;infinity,&#13;chance,&#13;possibility,&#13;complexity,&#13;philosophy,&#13;</comment>
						<color>
							<alpha>0</alpha>
							<red>255</red>
							<green>0</green>
							<blue>0</blue>
						</color>
						<in>7108</in>
						<out>7800</out>
					</marker>
					<marker>
						<name/>
						<comment>is there an absolute reality that can be understood mathematically?,&#13;math,&#13;algorithm,&#13;nature,</comment>
						<color>
							<alpha>0</alpha>
							<red>255</red>
							<green>0</green>
							<blue>0</blue>
						</color>
						<in>8679</in>
						<out>-1</out>
					</marker>
					<marker>
						<name>reality will only get you so far</name>
						<comment>reality,&#13;virtual,&#13;real meets virtual,&#13;digital meets physical,&#13;inexactitude,&#13;art versus engineering,&#13;simulation,</comment>
						<color>
							<alpha>0</alpha>
							<red>255</red>
							<green>0</green>
							<blue>0</blue>
						</color>
						<in>8981</in>
						<out>9223</out>
					</marker>
					<marker>
						<name>Constraints,</name>
						<comment>real and virtual,&#13;simulation,&#13;physics,&#13;nature,&#13;parameters,&#13;constraints,&#13;code is messy,&#13;</comment>
						<color>
							<alpha>0</alpha>
							<red>255</red>
							<green>0</green>
							<blue>0</blue>
						</color>
						<in>9521</in>
						<out>10658</out>
					</marker>
					<marker>
						<name>make it random</name>
						<comment>what's the importance of randomness and probabilty?,&#13;randomness,&#13;processing,&#13;creative process,&#13;</comment>
						<color>
							<alpha>0</alpha>
							<red>255</red>
							<green>0</green>
							<blue>0</blue>
						</color>
						<in>11126</in>
						<out>11636</out>
					</marker>
					<marker>
						<name>randomness can be not very thoughtful</name>
						<comment>randomness,&#13;critique,&#13;&#13;</comment>
						<color>
							<alpha>0</alpha>
							<red>255</red>
							<green>0</green>
							<blue>0</blue>
						</color>
						<in>11815</in>
						<out>12179</out>
					</marker>
					<marker>
						<name>mutation</name>
						<comment>randomness,&#13;evolution, &#13;simulation,&#13;</comment>
						<color>
							<alpha>0</alpha>
							<red>255</red>
							<green>0</green>
							<blue>0</blue>
						</color>
						<in>13547</in>
						<out>13966</out>
					</marker>
					<sourcetrack>
						<mediatype>video</mediatype>
					</sourcetrack>
					<link>
						<linkclipref>MVI_1193 5</linkclipref>
						<mediatype>video</mediatype>
						<trackindex>1</trackindex>
						<clipindex>3</clipindex>
					</link>
					<link>
						<linkclipref>MVI_1193 6</linkclipref>
						<mediatype>audio</mediatype>
						<trackindex>1</trackindex>
						<clipindex>3</clipindex>
						<groupindex>1</groupindex>
					</link>
					<link>
						<linkclipref>MVI_1193 7</linkclipref>
						<mediatype>audio</mediatype>
						<trackindex>2</trackindex>
						<clipindex>3</clipindex>
						<groupindex>1</groupindex>
					</link>
					<fielddominance>none</fielddominance>
					<itemhistory>
						<uuid>98318320-4DB5-4E97-9C18-A2D8E1924055</uuid>
						<uuid>C2848266-074F-4510-A37A-CEB2B01B23FE</uuid>
					</itemhistory>
				</clipitem>
				<clipitem id="MVI_1193 8">
					<name>MVI_1193</name>
					<duration>14119</duration>
					<rate>
						<ntsc>TRUE</ntsc>
						<timebase>24</timebase>
					</rate>
					<in>7020</in>
					<out>14119</out>
					<start>21118</start>
					<end>28217</end>
					<pixelaspectratio>Square</pixelaspectratio>
					<enabled>TRUE</enabled>
					<anamorphic>FALSE</anamorphic>
					<alphatype>none</alphatype>
					<masterclipid>MVI_1193 1</masterclipid>
					<logginginfo>
						<scene/>
						<shottake/>
						<lognote/>
						<good>FALSE</good>
					</logginginfo>
					<labels>
						<label2/>
					</labels>
					<comments>
						<mastercomment1/>
						<mastercomment2/>
						<mastercomment3/>
						<mastercomment4/>
					</comments>
					<file id="MVI_1193 2"/>
					<marker>
						<name>Marker 1</name>
						<comment>reminds me of ancient greek tomes euclid's elements,&#13;story,&#13;book,&#13;teaching,&#13;logic,&#13;cosmogeny,&#13;wisdom,&#13;motion,&#13;song: fourtet peace on earth,&#13;</comment>
						<color>
							<alpha>0</alpha>
							<red>255</red>
							<green>0</green>
							<blue>0</blue>
						</color>
						<in>893</in>
						<out>2883</out>
					</marker>
					<marker>
						<name>Games</name>
						<comment>How does gaming influence your work?,&#13;games,&#13;simulation, &#13;emergence,&#13;complexity,</comment>
						<color>
							<alpha>0</alpha>
							<red>255</red>
							<green>0</green>
							<blue>0</blue>
						</color>
						<in>3697</in>
						<out>4378</out>
					</marker>
					<marker>
						<name>building a universe</name>
						<comment>cosmogeny,&#13;nature,&#13;simulation,&#13;god,&#13;</comment>
						<color>
							<alpha>0</alpha>
							<red>255</red>
							<green>0</green>
							<blue>0</blue>
						</color>
						<in>4957</in>
						<out>5154</out>
					</marker>
					<marker>
						<name>programming the universe</name>
						<comment>cosmogeny,&#13;nature,&#13;simulation,&#13;god,&#13;</comment>
						<color>
							<alpha>0</alpha>
							<red>255</red>
							<green>0</green>
							<blue>0</blue>
						</color>
						<in>5429</in>
						<out>5878</out>
					</marker>
					<marker>
						<name>how far could we get?</name>
						<comment>cosmogeny,&#13;nature,&#13;simulation,&#13;algorithm,&#13;phenomena,&#13;systems&#13;</comment>
						<color>
							<alpha>0</alpha>
							<red>255</red>
							<green>0</green>
							<blue>0</blue>
						</color>
						<in>6392</in>
						<out>7059</out>
					</marker>
					<marker>
						<name>million monkeys</name>
						<comment>do you believe it's possible to build the universe inside a computer?,&#13;infinity,&#13;chance,&#13;possibility,&#13;complexity,&#13;philosophy,&#13;</comment>
						<color>
							<alpha>0</alpha>
							<red>255</red>
							<green>0</green>
							<blue>0</blue>
						</color>
						<in>7108</in>
						<out>7800</out>
					</marker>
					<marker>
						<name/>
						<comment>is there an absolute reality that can be understood mathematically?,&#13;math,&#13;algorithm,&#13;nature,</comment>
						<color>
							<alpha>0</alpha>
							<red>255</red>
							<green>0</green>
							<blue>0</blue>
						</color>
						<in>8679</in>
						<out>-1</out>
					</marker>
					<marker>
						<name>reality will only get you so far</name>
						<comment>reality,&#13;virtual,&#13;real meets virtual,&#13;digital meets physical,&#13;inexactitude,&#13;art versus engineering,&#13;simulation,</comment>
						<color>
							<alpha>0</alpha>
							<red>255</red>
							<green>0</green>
							<blue>0</blue>
						</color>
						<in>8981</in>
						<out>9223</out>
					</marker>
					<marker>
						<name>Constraints,</name>
						<comment>real and virtual,&#13;simulation,&#13;physics,&#13;nature,&#13;parameters,&#13;constraints,&#13;code is messy,&#13;</comment>
						<color>
							<alpha>0</alpha>
							<red>255</red>
							<green>0</green>
							<blue>0</blue>
						</color>
						<in>9521</in>
						<out>10658</out>
					</marker>
					<marker>
						<name>make it random</name>
						<comment>what's the importance of randomness and probabilty?,&#13;randomness,&#13;processing,&#13;creative process,&#13;</comment>
						<color>
							<alpha>0</alpha>
							<red>255</red>
							<green>0</green>
							<blue>0</blue>
						</color>
						<in>11126</in>
						<out>11636</out>
					</marker>
					<marker>
						<name>randomness can be not very thoughtful</name>
						<comment>randomness,&#13;critique,&#13;&#13;</comment>
						<color>
							<alpha>0</alpha>
							<red>255</red>
							<green>0</green>
							<blue>0</blue>
						</color>
						<in>11815</in>
						<out>12179</out>
					</marker>
					<marker>
						<name>mutation</name>
						<comment>randomness,&#13;evolution, &#13;simulation,&#13;</comment>
						<color>
							<alpha>0</alpha>
							<red>255</red>
							<green>0</green>
							<blue>0</blue>
						</color>
						<in>13547</in>
						<out>13966</out>
					</marker>
					<sourcetrack>
						<mediatype>video</mediatype>
					</sourcetrack>
					<link>
						<linkclipref>MVI_1193 8</linkclipref>
						<mediatype>video</mediatype>
						<trackindex>1</trackindex>
						<clipindex>4</clipindex>
					</link>
					<link>
						<linkclipref>MVI_1193 9</linkclipref>
						<mediatype>audio</mediatype>
						<trackindex>1</trackindex>
						<clipindex>4</clipindex>
						<groupindex>1</groupindex>
					</link>
					<link>
						<linkclipref>MVI_1193 10</linkclipref>
						<mediatype>audio</mediatype>
						<trackindex>2</trackindex>
						<clipindex>4</clipindex>
						<groupindex>1</groupindex>
					</link>
					<fielddominance>none</fielddominance>
					<itemhistory>
						<uuid>0A4EFB9C-DC82-4226-B79E-5E3A5499C190</uuid>
						<uuid>C2848266-074F-4510-A37A-CEB2B01B23FE</uuid>
					</itemhistory>
				</clipitem>
				<clipitem id="MVI_1194 ">
					<name>MVI_1194</name>
					<duration>12544</duration>
					<rate>
						<ntsc>TRUE</ntsc>
						<timebase>24</timebase>
					</rate>
					<in>0</in>
					<out>12544</out>
					<start>28217</start>
					<end>40761</end>
					<pixelaspectratio>Square</pixelaspectratio>
					<enabled>TRUE</enabled>
					<anamorphic>FALSE</anamorphic>
					<alphatype>none</alphatype>
					<masterclipid>MVI_1194 1</masterclipid>
					<logginginfo>
						<scene/>
						<shottake/>
						<lognote/>
						<good>FALSE</good>
					</logginginfo>
					<labels>
						<label2/>
					</labels>
					<comments>
						<mastercomment1/>
						<mastercomment2/>
						<mastercomment3/>
						<mastercomment4/>
					</comments>
					<file id="MVI_1194 2">
						<name>MVI_1194.mov</name>
						<pathurl>file://localhost/Volumes/Nebula/MediaPackages/ITPClouds/Dan03/color/MVI_1194.mov</pathurl>
						<rate>
							<timebase>24</timebase>
							<ntsc>TRUE</ntsc>
						</rate>
						<duration>12544</duration>
						<media>
							<video>
								<duration>12544</duration>
								<samplecharacteristics>
									<width>1920</width>
									<height>1080</height>
								</samplecharacteristics>
							</video>
							<audio>
								<samplecharacteristics>
									<samplerate>48000</samplerate>
									<depth>16</depth>
								</samplecharacteristics>
								<channelcount>2</channelcount>
							</audio>
						</media>
					</file>
					<marker>
						<name>genetics short 1</name>
						<comment>evolution,&#13;genetics,&#13;algorithm,&#13;time saving,&#13;efficiency,</comment>
						<color>
							<alpha>0</alpha>
							<red>255</red>
							<green>0</green>
							<blue>0</blue>
						</color>
						<in>9154</in>
						<out>9943</out>
					</marker>
					<marker>
						<name>genetics short 2</name>
						<comment>evolution,&#13;genetics,&#13;algorithm,&#13;time saving,&#13;biology, &#13;artificial life,&#13;sex,</comment>
						<color>
							<alpha>0</alpha>
							<red>255</red>
							<green>0</green>
							<blue>0</blue>
						</color>
						<in>11598</in>
						<out>11940</out>
					</marker>
					<sourcetrack>
						<mediatype>video</mediatype>
					</sourcetrack>
					<link>
						<linkclipref>MVI_1194 </linkclipref>
						<mediatype>video</mediatype>
						<trackindex>1</trackindex>
						<clipindex>5</clipindex>
					</link>
					<link>
						<linkclipref>MVI_1194 3</linkclipref>
						<mediatype>audio</mediatype>
						<trackindex>1</trackindex>
						<clipindex>5</clipindex>
						<groupindex>1</groupindex>
					</link>
					<link>
						<linkclipref>MVI_1194 4</linkclipref>
						<mediatype>audio</mediatype>
						<trackindex>2</trackindex>
						<clipindex>5</clipindex>
						<groupindex>1</groupindex>
					</link>
					<fielddominance>none</fielddominance>
					<itemhistory>
						<uuid>DA1312CE-7E82-45BE-A9DF-D63D2ADBD5E6</uuid>
					</itemhistory>
				</clipitem>
				<clipitem id="MVI_1195 ">
					<name>MVI_1195</name>
					<duration>18563</duration>
					<rate>
						<ntsc>TRUE</ntsc>
						<timebase>24</timebase>
					</rate>
					<in>0</in>
					<out>10244</out>
					<start>40761</start>
					<end>51005</end>
					<pixelaspectratio>Square</pixelaspectratio>
					<enabled>TRUE</enabled>
					<anamorphic>FALSE</anamorphic>
					<alphatype>none</alphatype>
					<masterclipid>MVI_1195 1</masterclipid>
					<logginginfo>
						<scene/>
						<shottake/>
						<lognote/>
						<good>FALSE</good>
					</logginginfo>
					<labels>
						<label2/>
					</labels>
					<comments>
						<mastercomment1/>
						<mastercomment2/>
						<mastercomment3/>
						<mastercomment4/>
					</comments>
					<file id="MVI_1195 2">
						<name>MVI_1195.mov</name>
						<pathurl>file://localhost/Volumes/Nebula/MediaPackages/ITPClouds/Dan04/color/MVI_1195.mov</pathurl>
						<rate>
							<timebase>24</timebase>
							<ntsc>TRUE</ntsc>
						</rate>
						<duration>18563</duration>
						<media>
							<video>
								<duration>18563</duration>
								<samplecharacteristics>
									<width>1920</width>
									<height>1080</height>
								</samplecharacteristics>
							</video>
							<audio>
								<samplecharacteristics>
									<samplerate>48000</samplerate>
									<depth>16</depth>
								</samplecharacteristics>
								<channelcount>2</channelcount>
							</audio>
						</media>
					</file>
					<marker>
						<name>Carl Sims</name>
						<comment>Carl Sims,&#13;Galapagos,&#13;evolution,&#13;genetics,&#13;aesthetics,&#13;beauty,&#13;Link:Marius - artificial life,&#13;coding aesthetics,&#13;</comment>
						<color>
							<alpha>0</alpha>
							<red>255</red>
							<green>0</green>
							<blue>0</blue>
						</color>
						<in>468</in>
						<out>1746</out>
					</marker>
					<marker>
						<name>evolution </name>
						<comment>evolution,&#13;artificial life,&#13;</comment>
						<color>
							<alpha>0</alpha>
							<red>255</red>
							<green>0</green>
							<blue>0</blue>
						</color>
						<in>2378</in>
						<out>2778</out>
					</marker>
					<marker>
						<name>Marker 4</name>
						<comment>processing,&#13;accessibility,&#13;learning,&#13;education&#13;</comment>
						<color>
							<alpha>0</alpha>
							<red>255</red>
							<green>0</green>
							<blue>0</blue>
						</color>
						<in>8187</in>
						<out>8848</out>
					</marker>
					<marker>
						<name>sharing</name>
						<comment>open source,&#13;sharing,&#13;education,&#13;community,</comment>
						<color>
							<alpha>0</alpha>
							<red>255</red>
							<green>0</green>
							<blue>0</blue>
						</color>
						<in>10251</in>
						<out>10879</out>
					</marker>
					<marker>
						<name>Open Source Contract</name>
						<comment>Open source,&#13;value,&#13;education,&#13;sharing,&#13;</comment>
						<color>
							<alpha>0</alpha>
							<red>255</red>
							<green>0</green>
							<blue>0</blue>
						</color>
						<in>12550</in>
						<out>12791</out>
					</marker>
					<marker>
						<name>problem solving</name>
						<comment>community,&#13;problem solving,&#13;open source,&#13;education,</comment>
						<color>
							<alpha>0</alpha>
							<red>255</red>
							<green>0</green>
							<blue>0</blue>
						</color>
						<in>13748</in>
						<out>14019</out>
					</marker>
					<marker>
						<name>Desire for order</name>
						<comment>what do you find beautiful about code?,&#13;beauty of code,&#13;logic,&#13;OCD,&#13;syntax,</comment>
						<color>
							<alpha>0</alpha>
							<red>255</red>
							<green>0</green>
							<blue>0</blue>
						</color>
						<in>15555</in>
						<out>16917</out>
					</marker>
					<marker>
						<name>what do you archive?</name>
						<comment>archive,&#13;preservation,&#13;history,&#13;new media old media,</comment>
						<color>
							<alpha>0</alpha>
							<red>255</red>
							<green>0</green>
							<blue>0</blue>
						</color>
						<in>17274</in>
						<out>17751</out>
					</marker>
					<sourcetrack>
						<mediatype>video</mediatype>
					</sourcetrack>
					<link>
						<linkclipref>MVI_1195 </linkclipref>
						<mediatype>video</mediatype>
						<trackindex>1</trackindex>
						<clipindex>6</clipindex>
					</link>
					<link>
						<linkclipref>MVI_1195 3</linkclipref>
						<mediatype>audio</mediatype>
						<trackindex>1</trackindex>
						<clipindex>6</clipindex>
						<groupindex>1</groupindex>
					</link>
					<link>
						<linkclipref>MVI_1195 4</linkclipref>
						<mediatype>audio</mediatype>
						<trackindex>2</trackindex>
						<clipindex>6</clipindex>
						<groupindex>1</groupindex>
					</link>
					<fielddominance>none</fielddominance>
					<itemhistory>
						<uuid>07973321-F075-4FBE-BC52-D508EA03457D</uuid>
						<uuid>0D330A90-8985-4F56-A226-FF259386D754</uuid>
					</itemhistory>
				</clipitem>
				<clipitem id="MVI_1195 5">
					<name>MVI_1195</name>
					<duration>18563</duration>
					<rate>
						<ntsc>TRUE</ntsc>
						<timebase>24</timebase>
					</rate>
					<in>10244</in>
					<out>10886</out>
					<start>51005</start>
					<end>51647</end>
					<pixelaspectratio>Square</pixelaspectratio>
					<enabled>TRUE</enabled>
					<anamorphic>FALSE</anamorphic>
					<alphatype>none</alphatype>
					<masterclipid>MVI_1195 1</masterclipid>
					<logginginfo>
						<scene/>
						<shottake/>
						<lognote/>
						<good>FALSE</good>
					</logginginfo>
					<labels>
						<label2/>
					</labels>
					<comments>
						<mastercomment1/>
						<mastercomment2/>
						<mastercomment3/>
						<mastercomment4/>
					</comments>
					<file id="MVI_1195 2"/>
					<marker>
						<name>Carl Sims</name>
						<comment>Carl Sims,&#13;Galapagos,&#13;evolution,&#13;genetics,&#13;aesthetics,&#13;beauty,&#13;Link:Marius - artificial life,&#13;coding aesthetics,&#13;</comment>
						<color>
							<alpha>0</alpha>
							<red>255</red>
							<green>0</green>
							<blue>0</blue>
						</color>
						<in>468</in>
						<out>1746</out>
					</marker>
					<marker>
						<name>evolution </name>
						<comment>evolution,&#13;artificial life,&#13;</comment>
						<color>
							<alpha>0</alpha>
							<red>255</red>
							<green>0</green>
							<blue>0</blue>
						</color>
						<in>2378</in>
						<out>2778</out>
					</marker>
					<marker>
						<name>Marker 4</name>
						<comment>processing,&#13;accessibility,&#13;learning,&#13;education&#13;</comment>
						<color>
							<alpha>0</alpha>
							<red>255</red>
							<green>0</green>
							<blue>0</blue>
						</color>
						<in>8187</in>
						<out>8848</out>
					</marker>
					<marker>
						<name>sharing</name>
						<comment>open source,&#13;sharing,&#13;education,&#13;community,</comment>
						<color>
							<alpha>0</alpha>
							<red>255</red>
							<green>0</green>
							<blue>0</blue>
						</color>
						<in>10251</in>
						<out>10879</out>
					</marker>
					<marker>
						<name>Open Source Contract</name>
						<comment>Open source,&#13;value,&#13;education,&#13;sharing,&#13;</comment>
						<color>
							<alpha>0</alpha>
							<red>255</red>
							<green>0</green>
							<blue>0</blue>
						</color>
						<in>12550</in>
						<out>12791</out>
					</marker>
					<marker>
						<name>problem solving</name>
						<comment>community,&#13;problem solving,&#13;open source,&#13;education,</comment>
						<color>
							<alpha>0</alpha>
							<red>255</red>
							<green>0</green>
							<blue>0</blue>
						</color>
						<in>13748</in>
						<out>14019</out>
					</marker>
					<marker>
						<name>Desire for order</name>
						<comment>what do you find beautiful about code?,&#13;beauty of code,&#13;logic,&#13;OCD,&#13;syntax,</comment>
						<color>
							<alpha>0</alpha>
							<red>255</red>
							<green>0</green>
							<blue>0</blue>
						</color>
						<in>15555</in>
						<out>16917</out>
					</marker>
					<marker>
						<name>what do you archive?</name>
						<comment>archive,&#13;preservation,&#13;history,&#13;new media old media,</comment>
						<color>
							<alpha>0</alpha>
							<red>255</red>
							<green>0</green>
							<blue>0</blue>
						</color>
						<in>17274</in>
						<out>17751</out>
					</marker>
					<sourcetrack>
						<mediatype>video</mediatype>
					</sourcetrack>
					<link>
						<linkclipref>MVI_1195 5</linkclipref>
						<mediatype>video</mediatype>
						<trackindex>1</trackindex>
						<clipindex>7</clipindex>
					</link>
					<link>
						<linkclipref>MVI_1195 6</linkclipref>
						<mediatype>audio</mediatype>
						<trackindex>1</trackindex>
						<clipindex>7</clipindex>
						<groupindex>1</groupindex>
					</link>
					<link>
						<linkclipref>MVI_1195 7</linkclipref>
						<mediatype>audio</mediatype>
						<trackindex>2</trackindex>
						<clipindex>7</clipindex>
						<groupindex>1</groupindex>
					</link>
					<fielddominance>none</fielddominance>
					<itemhistory>
						<uuid>536687C8-2CE6-48B5-A986-8C6BA9D3BD5E</uuid>
						<uuid>0D330A90-8985-4F56-A226-FF259386D754</uuid>
					</itemhistory>
				</clipitem>
				<clipitem id="MVI_1195 8">
					<name>MVI_1195</name>
					<duration>18563</duration>
					<rate>
						<ntsc>TRUE</ntsc>
						<timebase>24</timebase>
					</rate>
					<in>10886</in>
					<out>18563</out>
					<start>51647</start>
					<end>59324</end>
					<pixelaspectratio>Square</pixelaspectratio>
					<enabled>TRUE</enabled>
					<anamorphic>FALSE</anamorphic>
					<alphatype>none</alphatype>
					<masterclipid>MVI_1195 1</masterclipid>
					<logginginfo>
						<scene/>
						<shottake/>
						<lognote/>
						<good>FALSE</good>
					</logginginfo>
					<labels>
						<label2/>
					</labels>
					<comments>
						<mastercomment1/>
						<mastercomment2/>
						<mastercomment3/>
						<mastercomment4/>
					</comments>
					<file id="MVI_1195 2"/>
					<marker>
						<name>Carl Sims</name>
						<comment>Carl Sims,&#13;Galapagos,&#13;evolution,&#13;genetics,&#13;aesthetics,&#13;beauty,&#13;Link:Marius - artificial life,&#13;coding aesthetics,&#13;</comment>
						<color>
							<alpha>0</alpha>
							<red>255</red>
							<green>0</green>
							<blue>0</blue>
						</color>
						<in>468</in>
						<out>1746</out>
					</marker>
					<marker>
						<name>evolution </name>
						<comment>evolution,&#13;artificial life,&#13;</comment>
						<color>
							<alpha>0</alpha>
							<red>255</red>
							<green>0</green>
							<blue>0</blue>
						</color>
						<in>2378</in>
						<out>2778</out>
					</marker>
					<marker>
						<name>Marker 4</name>
						<comment>processing,&#13;accessibility,&#13;learning,&#13;education&#13;</comment>
						<color>
							<alpha>0</alpha>
							<red>255</red>
							<green>0</green>
							<blue>0</blue>
						</color>
						<in>8187</in>
						<out>8848</out>
					</marker>
					<marker>
						<name>sharing</name>
						<comment>open source,&#13;sharing,&#13;education,&#13;community,</comment>
						<color>
							<alpha>0</alpha>
							<red>255</red>
							<green>0</green>
							<blue>0</blue>
						</color>
						<in>10251</in>
						<out>10879</out>
					</marker>
					<marker>
						<name>Open Source Contract</name>
						<comment>Open source,&#13;value,&#13;education,&#13;sharing,&#13;</comment>
						<color>
							<alpha>0</alpha>
							<red>255</red>
							<green>0</green>
							<blue>0</blue>
						</color>
						<in>12550</in>
						<out>12791</out>
					</marker>
					<marker>
						<name>problem solving</name>
						<comment>community,&#13;problem solving,&#13;open source,&#13;education,</comment>
						<color>
							<alpha>0</alpha>
							<red>255</red>
							<green>0</green>
							<blue>0</blue>
						</color>
						<in>13748</in>
						<out>14019</out>
					</marker>
					<marker>
						<name>Desire for order</name>
						<comment>what do you find beautiful about code?,&#13;beauty of code,&#13;logic,&#13;OCD,&#13;syntax,</comment>
						<color>
							<alpha>0</alpha>
							<red>255</red>
							<green>0</green>
							<blue>0</blue>
						</color>
						<in>15555</in>
						<out>16917</out>
					</marker>
					<marker>
						<name>what do you archive?</name>
						<comment>archive,&#13;preservation,&#13;history,&#13;new media old media,</comment>
						<color>
							<alpha>0</alpha>
							<red>255</red>
							<green>0</green>
							<blue>0</blue>
						</color>
						<in>17274</in>
						<out>17751</out>
					</marker>
					<sourcetrack>
						<mediatype>video</mediatype>
					</sourcetrack>
					<link>
						<linkclipref>MVI_1195 8</linkclipref>
						<mediatype>video</mediatype>
						<trackindex>1</trackindex>
						<clipindex>8</clipindex>
					</link>
					<link>
						<linkclipref>MVI_1195 9</linkclipref>
						<mediatype>audio</mediatype>
						<trackindex>1</trackindex>
						<clipindex>8</clipindex>
						<groupindex>1</groupindex>
					</link>
					<link>
						<linkclipref>MVI_1195 10</linkclipref>
						<mediatype>audio</mediatype>
						<trackindex>2</trackindex>
						<clipindex>8</clipindex>
						<groupindex>1</groupindex>
					</link>
					<fielddominance>none</fielddominance>
					<itemhistory>
						<uuid>8E3C0399-AEBC-4C94-89C8-C0FB52F62AAB</uuid>
						<uuid>0D330A90-8985-4F56-A226-FF259386D754</uuid>
					</itemhistory>
				</clipitem>
				<enabled>TRUE</enabled>
				<locked>FALSE</locked>
			</track>
			<track>
				<clipitem id="MVI_1192 5">
					<name>MVI_1192</name>
					<duration>14098</duration>
					<rate>
						<ntsc>TRUE</ntsc>
						<timebase>24</timebase>
					</rate>
					<in>0</in>
					<out>14098</out>
					<start>0</start>
					<end>14098</end>
					<pixelaspectratio>Square</pixelaspectratio>
					<enabled>TRUE</enabled>
					<anamorphic>FALSE</anamorphic>
					<alphatype>none</alphatype>
					<masterclipid>MVI_1192 1</masterclipid>
					<logginginfo>
						<scene/>
						<shottake/>
						<lognote/>
						<good>FALSE</good>
					</logginginfo>
					<labels>
						<label2/>
					</labels>
					<comments>
						<mastercomment1/>
						<mastercomment2/>
						<mastercomment3/>
						<mastercomment4/>
					</comments>
					<file id="MVI_1192 2"/>
					<marker>
						<name>Marker 4</name>
						<comment>computer,&#13;magic,&#13;discovery,&#13;mood: epiphany,&#13;programming,&#13;learning,&#13;</comment>
						<color>
							<alpha>0</alpha>
							<red>255</red>
							<green>0</green>
							<blue>0</blue>
						</color>
						<in>6494</in>
						<out>7254</out>
					</marker>
					<marker>
						<name>Marker 5</name>
						<comment/>
						<color>
							<alpha>0</alpha>
							<red>255</red>
							<green>0</green>
							<blue>0</blue>
						</color>
						<in>7399</in>
						<out>7463</out>
					</marker>
					<marker>
						<name>offers me a way to think</name>
						<comment>creativity,&#13;thinking through code,&#13;thinking by doing,&#13;what it's like to program,&#13;songs: dan deacon pink batman, songs: fourtet locked,&#13;Link: casey "clumsy",&#13;</comment>
						<color>
							<alpha>0</alpha>
							<red>255</red>
							<green>0</green>
							<blue>0</blue>
						</color>
						<in>8853</in>
						<out>9809</out>
					</marker>
					<marker>
						<name>in a goofy way,</name>
						<comment>experimental,&#13;play,&#13;playfulness,&#13;inexactitude,&#13;art vs engineering,&#13;song: books "s is for everything",</comment>
						<color>
							<alpha>0</alpha>
							<red>255</red>
							<green>0</green>
							<blue>0</blue>
						</color>
						<in>10788</in>
						<out>11016</out>
					</marker>
					<marker>
						<name>Nature of Code</name>
						<comment>nature,&#13;simulation,&#13;representation,</comment>
						<color>
							<alpha>0</alpha>
							<red>255</red>
							<green>0</green>
							<blue>0</blue>
						</color>
						<in>12111</in>
						<out>12292</out>
					</marker>
					<marker>
						<name>nature of code p.2 shorter</name>
						<comment>nature,&#13;simulation,&#13;clouds,&#13;complexity,&#13;processing,&#13;virtual,&#13;emergence,&#13;song: four tet peace for earth,&#13;mood: mystical, happy, &#13;</comment>
						<color>
							<alpha>0</alpha>
							<red>255</red>
							<green>0</green>
							<blue>0</blue>
						</color>
						<in>12863</in>
						<out>13451</out>
					</marker>
					<sourcetrack>
						<mediatype>video</mediatype>
					</sourcetrack>
					<fielddominance>none</fielddominance>
					<itemhistory>
						<uuid>098CB930-8464-4E2A-A668-6690E75BEF57</uuid>
					</itemhistory>
				</clipitem>
				<clipitem id="MVI_1193 11">
					<name>MVI_1193</name>
					<duration>14119</duration>
					<rate>
						<ntsc>TRUE</ntsc>
						<timebase>24</timebase>
					</rate>
					<in>0</in>
					<out>6392</out>
					<start>14098</start>
					<end>20490</end>
					<pixelaspectratio>Square</pixelaspectratio>
					<enabled>TRUE</enabled>
					<anamorphic>FALSE</anamorphic>
					<alphatype>none</alphatype>
					<masterclipid>MVI_1193 1</masterclipid>
					<logginginfo>
						<scene/>
						<shottake/>
						<lognote/>
						<good>FALSE</good>
					</logginginfo>
					<labels>
						<label2/>
					</labels>
					<comments>
						<mastercomment1/>
						<mastercomment2/>
						<mastercomment3/>
						<mastercomment4/>
					</comments>
					<file id="MVI_1193 2"/>
					<marker>
						<name>Marker 1</name>
						<comment>reminds me of ancient greek tomes euclid's elements,&#13;story,&#13;book,&#13;teaching,&#13;logic,&#13;cosmogeny,&#13;wisdom,&#13;motion,&#13;song: fourtet peace on earth,&#13;</comment>
						<color>
							<alpha>0</alpha>
							<red>255</red>
							<green>0</green>
							<blue>0</blue>
						</color>
						<in>893</in>
						<out>2883</out>
					</marker>
					<sourcetrack>
						<mediatype>video</mediatype>
					</sourcetrack>
					<fielddominance>none</fielddominance>
					<itemhistory>
						<uuid>5202B2D3-98C5-4F02-9073-257B96D88C19</uuid>
						<uuid>7CBE6477-7EB0-419C-8792-2801648CAE18</uuid>
					</itemhistory>
				</clipitem>
				<clipitem id="MVI_1193 12">
					<name>MVI_1193</name>
					<duration>14119</duration>
					<rate>
						<ntsc>TRUE</ntsc>
						<timebase>24</timebase>
					</rate>
					<in>6392</in>
					<out>7020</out>
					<start>20490</start>
					<end>21118</end>
					<pixelaspectratio>Square</pixelaspectratio>
					<enabled>TRUE</enabled>
					<anamorphic>FALSE</anamorphic>
					<alphatype>none</alphatype>
					<masterclipid>MVI_1193 1</masterclipid>
					<logginginfo>
						<scene/>
						<shottake/>
						<lognote/>
						<good>FALSE</good>
					</logginginfo>
					<labels>
						<label2/>
					</labels>
					<comments>
						<mastercomment1/>
						<mastercomment2/>
						<mastercomment3/>
						<mastercomment4/>
					</comments>
					<file id="MVI_1193 2"/>
					<marker>
						<name>Marker 1</name>
						<comment>reminds me of ancient greek tomes euclid's elements,&#13;story,&#13;book,&#13;teaching,&#13;logic,&#13;cosmogeny,&#13;wisdom,&#13;motion,&#13;song: fourtet peace on earth,&#13;</comment>
						<color>
							<alpha>0</alpha>
							<red>255</red>
							<green>0</green>
							<blue>0</blue>
						</color>
						<in>893</in>
						<out>2883</out>
					</marker>
					<sourcetrack>
						<mediatype>video</mediatype>
					</sourcetrack>
					<fielddominance>none</fielddominance>
					<itemhistory>
						<uuid>A2B23A32-9A4C-4559-BA8C-FDCBD6C3A97D</uuid>
						<uuid>7CBE6477-7EB0-419C-8792-2801648CAE18</uuid>
					</itemhistory>
				</clipitem>
				<clipitem id="MVI_1193 13">
					<name>MVI_1193</name>
					<duration>14119</duration>
					<rate>
						<ntsc>TRUE</ntsc>
						<timebase>24</timebase>
					</rate>
					<in>7020</in>
					<out>14119</out>
					<start>21118</start>
					<end>28217</end>
					<pixelaspectratio>Square</pixelaspectratio>
					<enabled>TRUE</enabled>
					<anamorphic>FALSE</anamorphic>
					<alphatype>none</alphatype>
					<masterclipid>MVI_1193 1</masterclipid>
					<logginginfo>
						<scene/>
						<shottake/>
						<lognote/>
						<good>FALSE</good>
					</logginginfo>
					<labels>
						<label2/>
					</labels>
					<comments>
						<mastercomment1/>
						<mastercomment2/>
						<mastercomment3/>
						<mastercomment4/>
					</comments>
					<file id="MVI_1193 2"/>
					<marker>
						<name>Marker 1</name>
						<comment>reminds me of ancient greek tomes euclid's elements,&#13;story,&#13;book,&#13;teaching,&#13;logic,&#13;cosmogeny,&#13;wisdom,&#13;motion,&#13;song: fourtet peace on earth,&#13;</comment>
						<color>
							<alpha>0</alpha>
							<red>255</red>
							<green>0</green>
							<blue>0</blue>
						</color>
						<in>893</in>
						<out>2883</out>
					</marker>
					<sourcetrack>
						<mediatype>video</mediatype>
					</sourcetrack>
					<fielddominance>none</fielddominance>
					<itemhistory>
						<uuid>2D49E915-71AF-4708-BC4C-0920D100B499</uuid>
						<uuid>7CBE6477-7EB0-419C-8792-2801648CAE18</uuid>
					</itemhistory>
				</clipitem>
				<clipitem id="MVI_1194 5">
					<name>MVI_1194</name>
					<duration>12544</duration>
					<rate>
						<ntsc>TRUE</ntsc>
						<timebase>24</timebase>
					</rate>
					<in>0</in>
					<out>12544</out>
					<start>28217</start>
					<end>40761</end>
					<pixelaspectratio>Square</pixelaspectratio>
					<enabled>TRUE</enabled>
					<anamorphic>FALSE</anamorphic>
					<alphatype>none</alphatype>
					<masterclipid>MVI_1194 1</masterclipid>
					<logginginfo>
						<scene/>
						<shottake/>
						<lognote/>
						<good>FALSE</good>
					</logginginfo>
					<labels>
						<label2/>
					</labels>
					<comments>
						<mastercomment1/>
						<mastercomment2/>
						<mastercomment3/>
						<mastercomment4/>
					</comments>
					<file id="MVI_1194 2"/>
					<marker>
						<name>gambling p1</name>
						<comment>chance,&#13;games,&#13;probability,</comment>
						<color>
							<alpha>0</alpha>
							<red>255</red>
							<green>0</green>
							<blue>0</blue>
						</color>
						<in>1184</in>
						<out>1640</out>
					</marker>
					<marker>
						<name>gambling p2</name>
						<comment>chance,&#13;probability,&#13;games,</comment>
						<color>
							<alpha>0</alpha>
							<red>255</red>
							<green>0</green>
							<blue>0</blue>
						</color>
						<in>3580</in>
						<out>4114</out>
					</marker>
					<marker>
						<name>Genetic alogoritms 1</name>
						<comment>genetics,&#13;evolution,&#13;</comment>
						<color>
							<alpha>0</alpha>
							<red>255</red>
							<green>0</green>
							<blue>0</blue>
						</color>
						<in>6927</in>
						<out>7636</out>
					</marker>
					<marker>
						<name>Genetic algorithsm p 2</name>
						<comment>genetics,&#13;evoluiton,&#13;biology and code,&#13;</comment>
						<color>
							<alpha>0</alpha>
							<red>255</red>
							<green>0</green>
							<blue>0</blue>
						</color>
						<in>7976</in>
						<out>11943</out>
					</marker>
					<sourcetrack>
						<mediatype>video</mediatype>
					</sourcetrack>
					<fielddominance>none</fielddominance>
					<itemhistory>
						<uuid>CA16FD8B-53B9-40D4-9F06-F72F9C1B3FC1</uuid>
					</itemhistory>
				</clipitem>
				<clipitem id="MVI_1195 11">
					<name>MVI_1195</name>
					<duration>18563</duration>
					<rate>
						<ntsc>TRUE</ntsc>
						<timebase>24</timebase>
					</rate>
					<in>0</in>
					<out>10244</out>
					<start>40761</start>
					<end>51005</end>
					<pixelaspectratio>Square</pixelaspectratio>
					<enabled>TRUE</enabled>
					<anamorphic>FALSE</anamorphic>
					<alphatype>none</alphatype>
					<masterclipid>MVI_1195 1</masterclipid>
					<logginginfo>
						<scene/>
						<shottake/>
						<lognote/>
						<good>FALSE</good>
					</logginginfo>
					<labels>
						<label2/>
					</labels>
					<comments>
						<mastercomment1/>
						<mastercomment2/>
						<mastercomment3/>
						<mastercomment4/>
					</comments>
					<file id="MVI_1195 2"/>
					<sourcetrack>
						<mediatype>video</mediatype>
					</sourcetrack>
					<fielddominance>none</fielddominance>
					<itemhistory>
						<uuid>0AD30F4B-6BC5-4355-91D5-A590397E658E</uuid>
						<uuid>735DC887-DA8C-4F7A-B48F-A72502F65366</uuid>
					</itemhistory>
				</clipitem>
				<clipitem id="MVI_1195 12">
					<name>MVI_1195</name>
					<duration>18563</duration>
					<rate>
						<ntsc>TRUE</ntsc>
						<timebase>24</timebase>
					</rate>
					<in>10244</in>
					<out>10886</out>
					<start>51005</start>
					<end>51647</end>
					<pixelaspectratio>Square</pixelaspectratio>
					<enabled>TRUE</enabled>
					<anamorphic>FALSE</anamorphic>
					<alphatype>none</alphatype>
					<masterclipid>MVI_1195 1</masterclipid>
					<logginginfo>
						<scene/>
						<shottake/>
						<lognote/>
						<good>FALSE</good>
					</logginginfo>
					<labels>
						<label2/>
					</labels>
					<comments>
						<mastercomment1/>
						<mastercomment2/>
						<mastercomment3/>
						<mastercomment4/>
					</comments>
					<file id="MVI_1195 2"/>
					<sourcetrack>
						<mediatype>video</mediatype>
					</sourcetrack>
					<fielddominance>none</fielddominance>
					<itemhistory>
						<uuid>456FCE9B-C954-444B-A188-4B85BF8763E7</uuid>
						<uuid>735DC887-DA8C-4F7A-B48F-A72502F65366</uuid>
					</itemhistory>
				</clipitem>
				<clipitem id="MVI_1195 13">
					<name>MVI_1195</name>
					<duration>18563</duration>
					<rate>
						<ntsc>TRUE</ntsc>
						<timebase>24</timebase>
					</rate>
					<in>10886</in>
					<out>18563</out>
					<start>51647</start>
					<end>59324</end>
					<pixelaspectratio>Square</pixelaspectratio>
					<enabled>TRUE</enabled>
					<anamorphic>FALSE</anamorphic>
					<alphatype>none</alphatype>
					<masterclipid>MVI_1195 1</masterclipid>
					<logginginfo>
						<scene/>
						<shottake/>
						<lognote/>
						<good>FALSE</good>
					</logginginfo>
					<labels>
						<label2/>
					</labels>
					<comments>
						<mastercomment1/>
						<mastercomment2/>
						<mastercomment3/>
						<mastercomment4/>
					</comments>
					<file id="MVI_1195 2"/>
					<sourcetrack>
						<mediatype>video</mediatype>
					</sourcetrack>
					<fielddominance>none</fielddominance>
					<itemhistory>
						<uuid>6F54BEA0-E59D-4404-AAAC-9B919F0A858F</uuid>
						<uuid>735DC887-DA8C-4F7A-B48F-A72502F65366</uuid>
					</itemhistory>
				</clipitem>
				<enabled>TRUE</enabled>
				<locked>FALSE</locked>
			</track>
		</video>
		<audio>
			<format>
				<samplecharacteristics>
					<depth>16</depth>
					<samplerate>48000</samplerate>
				</samplecharacteristics>
			</format>
			<outputs>
				<group>
					<index>1</index>
					<numchannels>2</numchannels>
					<downmix>0</downmix>
					<channel>
						<index>1</index>
					</channel>
					<channel>
						<index>2</index>
					</channel>
				</group>
			</outputs>
			<in>7406</in>
			<out>-1</out>
			<track>
				<clipitem id="MVI_1192 3">
					<name>MVI_1192</name>
					<duration>14098</duration>
					<rate>
						<ntsc>TRUE</ntsc>
						<timebase>24</timebase>
					</rate>
					<in>0</in>
					<out>14098</out>
					<start>0</start>
					<end>14098</end>
					<masterclipid>MVI_1192 1</masterclipid>
					<logginginfo>
						<scene/>
						<shottake/>
						<lognote/>
						<good>FALSE</good>
					</logginginfo>
					<labels>
						<label2/>
					</labels>
					<comments>
						<mastercomment1/>
						<mastercomment2/>
						<mastercomment3/>
						<mastercomment4/>
					</comments>
					<file id="MVI_1192 2"/>
					<marker>
						<name>Maybe I'd like that</name>
						<comment>beginning,&#13;programming,&#13;code,&#13;learning,</comment>
						<color>
							<alpha>0</alpha>
							<red>255</red>
							<green>0</green>
							<blue>0</blue>
						</color>
						<in>1256</in>
						<out>1699</out>
					</marker>
					<marker>
						<name>Magnets</name>
						<comment>physics,&#13;nature,&#13;beginning,&#13;discovery,&#13;learning,</comment>
						<color>
							<alpha>0</alpha>
							<red>255</red>
							<green>0</green>
							<blue>0</blue>
						</color>
						<in>2336</in>
						<out>2920</out>
					</marker>
					<marker>
						<name>sketching with code</name>
						<comment>epiphany,&#13;drawing,&#13;feedback,&#13;visual thinking,&#13;learning,&#13;tweaking,&#13;generative art,&#13;mood: excitement,&#13;mood: inspiring,&#13;</comment>
						<color>
							<alpha>0</alpha>
							<red>255</red>
							<green>0</green>
							<blue>0</blue>
						</color>
						<in>3041</in>
						<out>3470</out>
					</marker>
					<marker>
						<name>Not a visual thinker</name>
						<comment>How does visual feedback help you to learn programming?,&#13;visual thinking,&#13;education,&#13;learning,&#13;drawing,&#13;</comment>
						<color>
							<alpha>0</alpha>
							<red>255</red>
							<green>0</green>
							<blue>0</blue>
						</color>
						<in>5542</in>
						<out>7254</out>
					</marker>
					<marker>
						<name>what computers can do</name>
						<comment>What do computers offer artists that they cannot accomplish by other means?,&#13;What is a computer?,&#13;iteration,&#13;process,&#13;physicality,&#13;drawing,</comment>
						<color>
							<alpha>0</alpha>
							<red>255</red>
							<green>0</green>
							<blue>0</blue>
						</color>
						<in>7820</in>
						<out>8801</out>
					</marker>
					<marker>
						<name>There's an element of surprise</name>
						<comment>Does coding enable you to take risks because there's no physical consequence?,&#13;surprise,&#13;serendipity, &#13;process,&#13;creativity,</comment>
						<color>
							<alpha>0</alpha>
							<red>255</red>
							<green>0</green>
							<blue>0</blue>
						</color>
						<in>10119</in>
						<out>10196</out>
					</marker>
					<marker>
						<name>Marker 7</name>
						<comment>No big deal -- link to Maeda,&#13;teaching,&#13;mood: positive "you can do it",</comment>
						<color>
							<alpha>0</alpha>
							<red>255</red>
							<green>0</green>
							<blue>0</blue>
						</color>
						<in>10237</in>
						<out>10992</out>
					</marker>
					<marker>
						<name>Marker 8</name>
						<comment>simulation,&#13;nature,&#13;multiverse,&#13;phenomena,&#13;song: fourtet peace for earth,</comment>
						<color>
							<alpha>0</alpha>
							<red>255</red>
							<green>0</green>
							<blue>0</blue>
						</color>
						<in>11872</in>
						<out>12543</out>
					</marker>
					<marker>
						<name>Nature of code p. 2</name>
						<comment>simulation,&#13;physics,&#13;nature,</comment>
						<color>
							<alpha>0</alpha>
							<red>255</red>
							<green>0</green>
							<blue>0</blue>
						</color>
						<in>12815</in>
						<out>13850</out>
					</marker>
					<filter>
						<effect>
							<name>Audio Levels</name>
							<effectid>audiolevels</effectid>
							<effectcategory>audiolevels</effectcategory>
							<effecttype>audiolevels</effecttype>
							<mediatype>audio</mediatype>
							<parameter>
								<name>Level</name>
								<parameterid>level</parameterid>
								<valuemin>0</valuemin>
								<valuemax>3.98109</valuemax>
								<value>1</value>
							</parameter>
						</effect>
					</filter>
					<filter>
						<effect>
							<name>Audio Pan</name>
							<effectid>audiopan</effectid>
							<effectcategory>audiopan</effectcategory>
							<effecttype>audiopan</effecttype>
							<mediatype>audio</mediatype>
							<parameter>
								<name>Pan</name>
								<parameterid>pan</parameterid>
								<valuemin>-1</valuemin>
								<valuemax>1</valuemax>
								<value>-1</value>
							</parameter>
						</effect>
					</filter>
					<sourcetrack>
						<mediatype>audio</mediatype>
						<trackindex>1</trackindex>
					</sourcetrack>
					<link>
						<linkclipref>MVI_1192 </linkclipref>
						<mediatype>video</mediatype>
						<trackindex>1</trackindex>
						<clipindex>1</clipindex>
					</link>
					<link>
						<linkclipref>MVI_1192 3</linkclipref>
						<mediatype>audio</mediatype>
						<trackindex>1</trackindex>
						<clipindex>1</clipindex>
						<groupindex>1</groupindex>
					</link>
					<link>
						<linkclipref>MVI_1192 4</linkclipref>
						<mediatype>audio</mediatype>
						<trackindex>2</trackindex>
						<clipindex>1</clipindex>
						<groupindex>1</groupindex>
					</link>
					<itemhistory>
						<uuid>8A81C807-868A-48ED-AF15-EDF786C38FF2</uuid>
					</itemhistory>
				</clipitem>
				<clipitem id="MVI_1193 3">
					<name>MVI_1193</name>
					<duration>14119</duration>
					<rate>
						<ntsc>TRUE</ntsc>
						<timebase>24</timebase>
					</rate>
					<in>0</in>
					<out>6392</out>
					<start>14098</start>
					<end>20490</end>
					<masterclipid>MVI_1193 1</masterclipid>
					<logginginfo>
						<scene/>
						<shottake/>
						<lognote/>
						<good>FALSE</good>
					</logginginfo>
					<labels>
						<label2/>
					</labels>
					<comments>
						<mastercomment1/>
						<mastercomment2/>
						<mastercomment3/>
						<mastercomment4/>
					</comments>
					<file id="MVI_1193 2"/>
					<marker>
						<name>Marker 1</name>
						<comment>reminds me of ancient greek tomes euclid's elements,&#13;story,&#13;book,&#13;teaching,&#13;logic,&#13;cosmogeny,&#13;wisdom,&#13;motion,&#13;song: fourtet peace on earth,&#13;</comment>
						<color>
							<alpha>0</alpha>
							<red>255</red>
							<green>0</green>
							<blue>0</blue>
						</color>
						<in>893</in>
						<out>2883</out>
					</marker>
					<marker>
						<name>Games</name>
						<comment>How does gaming influence your work?,&#13;games,&#13;simulation, &#13;emergence,&#13;complexity,</comment>
						<color>
							<alpha>0</alpha>
							<red>255</red>
							<green>0</green>
							<blue>0</blue>
						</color>
						<in>3697</in>
						<out>4378</out>
					</marker>
					<marker>
						<name>building a universe</name>
						<comment>cosmogeny,&#13;nature,&#13;simulation,&#13;god,&#13;</comment>
						<color>
							<alpha>0</alpha>
							<red>255</red>
							<green>0</green>
							<blue>0</blue>
						</color>
						<in>4957</in>
						<out>5154</out>
					</marker>
					<marker>
						<name>programming the universe</name>
						<comment>cosmogeny,&#13;nature,&#13;simulation,&#13;god,&#13;</comment>
						<color>
							<alpha>0</alpha>
							<red>255</red>
							<green>0</green>
							<blue>0</blue>
						</color>
						<in>5429</in>
						<out>5878</out>
					</marker>
					<marker>
						<name>how far could we get?</name>
						<comment>cosmogeny,&#13;nature,&#13;simulation,&#13;algorithm,&#13;phenomena,&#13;systems&#13;</comment>
						<color>
							<alpha>0</alpha>
							<red>255</red>
							<green>0</green>
							<blue>0</blue>
						</color>
						<in>6392</in>
						<out>7059</out>
					</marker>
					<marker>
						<name>million monkeys</name>
						<comment>do you believe it's possible to build the universe inside a computer?,&#13;infinity,&#13;chance,&#13;possibility,&#13;complexity,&#13;philosophy,&#13;</comment>
						<color>
							<alpha>0</alpha>
							<red>255</red>
							<green>0</green>
							<blue>0</blue>
						</color>
						<in>7108</in>
						<out>7800</out>
					</marker>
					<marker>
						<name/>
						<comment>is there an absolute reality that can be understood mathematically?,&#13;math,&#13;algorithm,&#13;nature,</comment>
						<color>
							<alpha>0</alpha>
							<red>255</red>
							<green>0</green>
							<blue>0</blue>
						</color>
						<in>8679</in>
						<out>-1</out>
					</marker>
					<marker>
						<name>reality will only get you so far</name>
						<comment>reality,&#13;virtual,&#13;real meets virtual,&#13;digital meets physical,&#13;inexactitude,&#13;art versus engineering,&#13;simulation,</comment>
						<color>
							<alpha>0</alpha>
							<red>255</red>
							<green>0</green>
							<blue>0</blue>
						</color>
						<in>8981</in>
						<out>9223</out>
					</marker>
					<marker>
						<name>Constraints,</name>
						<comment>real and virtual,&#13;simulation,&#13;physics,&#13;nature,&#13;parameters,&#13;constraints,&#13;code is messy,&#13;</comment>
						<color>
							<alpha>0</alpha>
							<red>255</red>
							<green>0</green>
							<blue>0</blue>
						</color>
						<in>9521</in>
						<out>10658</out>
					</marker>
					<marker>
						<name>make it random</name>
						<comment>what's the importance of randomness and probabilty?,&#13;randomness,&#13;processing,&#13;creative process,&#13;</comment>
						<color>
							<alpha>0</alpha>
							<red>255</red>
							<green>0</green>
							<blue>0</blue>
						</color>
						<in>11126</in>
						<out>11636</out>
					</marker>
					<marker>
						<name>randomness can be not very thoughtful</name>
						<comment>randomness,&#13;critique,&#13;&#13;</comment>
						<color>
							<alpha>0</alpha>
							<red>255</red>
							<green>0</green>
							<blue>0</blue>
						</color>
						<in>11815</in>
						<out>12179</out>
					</marker>
					<marker>
						<name>mutation</name>
						<comment>randomness,&#13;evolution, &#13;simulation,&#13;</comment>
						<color>
							<alpha>0</alpha>
							<red>255</red>
							<green>0</green>
							<blue>0</blue>
						</color>
						<in>13547</in>
						<out>13966</out>
					</marker>
					<filter>
						<effect>
							<name>Audio Levels</name>
							<effectid>audiolevels</effectid>
							<effectcategory>audiolevels</effectcategory>
							<effecttype>audiolevels</effecttype>
							<mediatype>audio</mediatype>
							<parameter>
								<name>Level</name>
								<parameterid>level</parameterid>
								<valuemin>0</valuemin>
								<valuemax>3.98109</valuemax>
								<value>1</value>
							</parameter>
						</effect>
					</filter>
					<filter>
						<effect>
							<name>Audio Pan</name>
							<effectid>audiopan</effectid>
							<effectcategory>audiopan</effectcategory>
							<effecttype>audiopan</effecttype>
							<mediatype>audio</mediatype>
							<parameter>
								<name>Pan</name>
								<parameterid>pan</parameterid>
								<valuemin>-1</valuemin>
								<valuemax>1</valuemax>
								<value>-1</value>
							</parameter>
						</effect>
					</filter>
					<sourcetrack>
						<mediatype>audio</mediatype>
						<trackindex>1</trackindex>
					</sourcetrack>
					<link>
						<linkclipref>MVI_1193 </linkclipref>
						<mediatype>video</mediatype>
						<trackindex>1</trackindex>
						<clipindex>2</clipindex>
					</link>
					<link>
						<linkclipref>MVI_1193 3</linkclipref>
						<mediatype>audio</mediatype>
						<trackindex>1</trackindex>
						<clipindex>2</clipindex>
						<groupindex>1</groupindex>
					</link>
					<link>
						<linkclipref>MVI_1193 4</linkclipref>
						<mediatype>audio</mediatype>
						<trackindex>2</trackindex>
						<clipindex>2</clipindex>
						<groupindex>1</groupindex>
					</link>
					<itemhistory>
						<uuid>CCD1F79B-DADE-42D2-AE0D-F2AF919125A3</uuid>
						<uuid>C7282D3D-70AE-41D0-B5E8-59197A18CE3A</uuid>
					</itemhistory>
				</clipitem>
				<clipitem id="MVI_1193 6">
					<name>MVI_1193</name>
					<duration>14119</duration>
					<rate>
						<ntsc>TRUE</ntsc>
						<timebase>24</timebase>
					</rate>
					<in>6392</in>
					<out>7020</out>
					<start>20490</start>
					<end>21118</end>
					<masterclipid>MVI_1193 1</masterclipid>
					<logginginfo>
						<scene/>
						<shottake/>
						<lognote/>
						<good>FALSE</good>
					</logginginfo>
					<labels>
						<label2/>
					</labels>
					<comments>
						<mastercomment1/>
						<mastercomment2/>
						<mastercomment3/>
						<mastercomment4/>
					</comments>
					<file id="MVI_1193 2"/>
					<marker>
						<name>Marker 1</name>
						<comment>reminds me of ancient greek tomes euclid's elements,&#13;story,&#13;book,&#13;teaching,&#13;logic,&#13;cosmogeny,&#13;wisdom,&#13;motion,&#13;song: fourtet peace on earth,&#13;</comment>
						<color>
							<alpha>0</alpha>
							<red>255</red>
							<green>0</green>
							<blue>0</blue>
						</color>
						<in>893</in>
						<out>2883</out>
					</marker>
					<marker>
						<name>Games</name>
						<comment>How does gaming influence your work?,&#13;games,&#13;simulation, &#13;emergence,&#13;complexity,</comment>
						<color>
							<alpha>0</alpha>
							<red>255</red>
							<green>0</green>
							<blue>0</blue>
						</color>
						<in>3697</in>
						<out>4378</out>
					</marker>
					<marker>
						<name>building a universe</name>
						<comment>cosmogeny,&#13;nature,&#13;simulation,&#13;god,&#13;</comment>
						<color>
							<alpha>0</alpha>
							<red>255</red>
							<green>0</green>
							<blue>0</blue>
						</color>
						<in>4957</in>
						<out>5154</out>
					</marker>
					<marker>
						<name>programming the universe</name>
						<comment>cosmogeny,&#13;nature,&#13;simulation,&#13;god,&#13;</comment>
						<color>
							<alpha>0</alpha>
							<red>255</red>
							<green>0</green>
							<blue>0</blue>
						</color>
						<in>5429</in>
						<out>5878</out>
					</marker>
					<marker>
						<name>how far could we get?</name>
						<comment>cosmogeny,&#13;nature,&#13;simulation,&#13;algorithm,&#13;phenomena,&#13;systems&#13;</comment>
						<color>
							<alpha>0</alpha>
							<red>255</red>
							<green>0</green>
							<blue>0</blue>
						</color>
						<in>6392</in>
						<out>7059</out>
					</marker>
					<marker>
						<name>million monkeys</name>
						<comment>do you believe it's possible to build the universe inside a computer?,&#13;infinity,&#13;chance,&#13;possibility,&#13;complexity,&#13;philosophy,&#13;</comment>
						<color>
							<alpha>0</alpha>
							<red>255</red>
							<green>0</green>
							<blue>0</blue>
						</color>
						<in>7108</in>
						<out>7800</out>
					</marker>
					<marker>
						<name/>
						<comment>is there an absolute reality that can be understood mathematically?,&#13;math,&#13;algorithm,&#13;nature,</comment>
						<color>
							<alpha>0</alpha>
							<red>255</red>
							<green>0</green>
							<blue>0</blue>
						</color>
						<in>8679</in>
						<out>-1</out>
					</marker>
					<marker>
						<name>reality will only get you so far</name>
						<comment>reality,&#13;virtual,&#13;real meets virtual,&#13;digital meets physical,&#13;inexactitude,&#13;art versus engineering,&#13;simulation,</comment>
						<color>
							<alpha>0</alpha>
							<red>255</red>
							<green>0</green>
							<blue>0</blue>
						</color>
						<in>8981</in>
						<out>9223</out>
					</marker>
					<marker>
						<name>Constraints,</name>
						<comment>real and virtual,&#13;simulation,&#13;physics,&#13;nature,&#13;parameters,&#13;constraints,&#13;code is messy,&#13;</comment>
						<color>
							<alpha>0</alpha>
							<red>255</red>
							<green>0</green>
							<blue>0</blue>
						</color>
						<in>9521</in>
						<out>10658</out>
					</marker>
					<marker>
						<name>make it random</name>
						<comment>what's the importance of randomness and probabilty?,&#13;randomness,&#13;processing,&#13;creative process,&#13;</comment>
						<color>
							<alpha>0</alpha>
							<red>255</red>
							<green>0</green>
							<blue>0</blue>
						</color>
						<in>11126</in>
						<out>11636</out>
					</marker>
					<marker>
						<name>randomness can be not very thoughtful</name>
						<comment>randomness,&#13;critique,&#13;&#13;</comment>
						<color>
							<alpha>0</alpha>
							<red>255</red>
							<green>0</green>
							<blue>0</blue>
						</color>
						<in>11815</in>
						<out>12179</out>
					</marker>
					<marker>
						<name>mutation</name>
						<comment>randomness,&#13;evolution, &#13;simulation,&#13;</comment>
						<color>
							<alpha>0</alpha>
							<red>255</red>
							<green>0</green>
							<blue>0</blue>
						</color>
						<in>13547</in>
						<out>13966</out>
					</marker>
					<filter>
						<effect>
							<name>Audio Levels</name>
							<effectid>audiolevels</effectid>
							<effectcategory>audiolevels</effectcategory>
							<effecttype>audiolevels</effecttype>
							<mediatype>audio</mediatype>
							<parameter>
								<name>Level</name>
								<parameterid>level</parameterid>
								<valuemin>0</valuemin>
								<valuemax>3.98109</valuemax>
								<value>1</value>
							</parameter>
						</effect>
					</filter>
					<filter>
						<effect>
							<name>Audio Pan</name>
							<effectid>audiopan</effectid>
							<effectcategory>audiopan</effectcategory>
							<effecttype>audiopan</effecttype>
							<mediatype>audio</mediatype>
							<parameter>
								<name>Pan</name>
								<parameterid>pan</parameterid>
								<valuemin>-1</valuemin>
								<valuemax>1</valuemax>
								<value>-1</value>
							</parameter>
						</effect>
					</filter>
					<sourcetrack>
						<mediatype>audio</mediatype>
						<trackindex>1</trackindex>
					</sourcetrack>
					<link>
						<linkclipref>MVI_1193 5</linkclipref>
						<mediatype>video</mediatype>
						<trackindex>1</trackindex>
						<clipindex>3</clipindex>
					</link>
					<link>
						<linkclipref>MVI_1193 6</linkclipref>
						<mediatype>audio</mediatype>
						<trackindex>1</trackindex>
						<clipindex>3</clipindex>
						<groupindex>1</groupindex>
					</link>
					<link>
						<linkclipref>MVI_1193 7</linkclipref>
						<mediatype>audio</mediatype>
						<trackindex>2</trackindex>
						<clipindex>3</clipindex>
						<groupindex>1</groupindex>
					</link>
					<itemhistory>
						<uuid>242D1547-0134-4159-9C78-F839EB14E9BE</uuid>
						<uuid>C7282D3D-70AE-41D0-B5E8-59197A18CE3A</uuid>
					</itemhistory>
				</clipitem>
				<clipitem id="MVI_1193 9">
					<name>MVI_1193</name>
					<duration>14119</duration>
					<rate>
						<ntsc>TRUE</ntsc>
						<timebase>24</timebase>
					</rate>
					<in>7020</in>
					<out>14119</out>
					<start>21118</start>
					<end>28217</end>
					<masterclipid>MVI_1193 1</masterclipid>
					<logginginfo>
						<scene/>
						<shottake/>
						<lognote/>
						<good>FALSE</good>
					</logginginfo>
					<labels>
						<label2/>
					</labels>
					<comments>
						<mastercomment1/>
						<mastercomment2/>
						<mastercomment3/>
						<mastercomment4/>
					</comments>
					<file id="MVI_1193 2"/>
					<marker>
						<name>Marker 1</name>
						<comment>reminds me of ancient greek tomes euclid's elements,&#13;story,&#13;book,&#13;teaching,&#13;logic,&#13;cosmogeny,&#13;wisdom,&#13;motion,&#13;song: fourtet peace on earth,&#13;</comment>
						<color>
							<alpha>0</alpha>
							<red>255</red>
							<green>0</green>
							<blue>0</blue>
						</color>
						<in>893</in>
						<out>2883</out>
					</marker>
					<marker>
						<name>Games</name>
						<comment>How does gaming influence your work?,&#13;games,&#13;simulation, &#13;emergence,&#13;complexity,</comment>
						<color>
							<alpha>0</alpha>
							<red>255</red>
							<green>0</green>
							<blue>0</blue>
						</color>
						<in>3697</in>
						<out>4378</out>
					</marker>
					<marker>
						<name>building a universe</name>
						<comment>cosmogeny,&#13;nature,&#13;simulation,&#13;god,&#13;</comment>
						<color>
							<alpha>0</alpha>
							<red>255</red>
							<green>0</green>
							<blue>0</blue>
						</color>
						<in>4957</in>
						<out>5154</out>
					</marker>
					<marker>
						<name>programming the universe</name>
						<comment>cosmogeny,&#13;nature,&#13;simulation,&#13;god,&#13;</comment>
						<color>
							<alpha>0</alpha>
							<red>255</red>
							<green>0</green>
							<blue>0</blue>
						</color>
						<in>5429</in>
						<out>5878</out>
					</marker>
					<marker>
						<name>how far could we get?</name>
						<comment>cosmogeny,&#13;nature,&#13;simulation,&#13;algorithm,&#13;phenomena,&#13;systems&#13;</comment>
						<color>
							<alpha>0</alpha>
							<red>255</red>
							<green>0</green>
							<blue>0</blue>
						</color>
						<in>6392</in>
						<out>7059</out>
					</marker>
					<marker>
						<name>million monkeys</name>
						<comment>do you believe it's possible to build the universe inside a computer?,&#13;infinity,&#13;chance,&#13;possibility,&#13;complexity,&#13;philosophy,&#13;</comment>
						<color>
							<alpha>0</alpha>
							<red>255</red>
							<green>0</green>
							<blue>0</blue>
						</color>
						<in>7108</in>
						<out>7800</out>
					</marker>
					<marker>
						<name/>
						<comment>is there an absolute reality that can be understood mathematically?,&#13;math,&#13;algorithm,&#13;nature,</comment>
						<color>
							<alpha>0</alpha>
							<red>255</red>
							<green>0</green>
							<blue>0</blue>
						</color>
						<in>8679</in>
						<out>-1</out>
					</marker>
					<marker>
						<name>reality will only get you so far</name>
						<comment>reality,&#13;virtual,&#13;real meets virtual,&#13;digital meets physical,&#13;inexactitude,&#13;art versus engineering,&#13;simulation,</comment>
						<color>
							<alpha>0</alpha>
							<red>255</red>
							<green>0</green>
							<blue>0</blue>
						</color>
						<in>8981</in>
						<out>9223</out>
					</marker>
					<marker>
						<name>Constraints,</name>
						<comment>real and virtual,&#13;simulation,&#13;physics,&#13;nature,&#13;parameters,&#13;constraints,&#13;code is messy,&#13;</comment>
						<color>
							<alpha>0</alpha>
							<red>255</red>
							<green>0</green>
							<blue>0</blue>
						</color>
						<in>9521</in>
						<out>10658</out>
					</marker>
					<marker>
						<name>make it random</name>
						<comment>what's the importance of randomness and probabilty?,&#13;randomness,&#13;processing,&#13;creative process,&#13;</comment>
						<color>
							<alpha>0</alpha>
							<red>255</red>
							<green>0</green>
							<blue>0</blue>
						</color>
						<in>11126</in>
						<out>11636</out>
					</marker>
					<marker>
						<name>randomness can be not very thoughtful</name>
						<comment>randomness,&#13;critique,&#13;&#13;</comment>
						<color>
							<alpha>0</alpha>
							<red>255</red>
							<green>0</green>
							<blue>0</blue>
						</color>
						<in>11815</in>
						<out>12179</out>
					</marker>
					<marker>
						<name>mutation</name>
						<comment>randomness,&#13;evolution, &#13;simulation,&#13;</comment>
						<color>
							<alpha>0</alpha>
							<red>255</red>
							<green>0</green>
							<blue>0</blue>
						</color>
						<in>13547</in>
						<out>13966</out>
					</marker>
					<filter>
						<effect>
							<name>Audio Levels</name>
							<effectid>audiolevels</effectid>
							<effectcategory>audiolevels</effectcategory>
							<effecttype>audiolevels</effecttype>
							<mediatype>audio</mediatype>
							<parameter>
								<name>Level</name>
								<parameterid>level</parameterid>
								<valuemin>0</valuemin>
								<valuemax>3.98109</valuemax>
								<value>1</value>
							</parameter>
						</effect>
					</filter>
					<filter>
						<effect>
							<name>Audio Pan</name>
							<effectid>audiopan</effectid>
							<effectcategory>audiopan</effectcategory>
							<effecttype>audiopan</effecttype>
							<mediatype>audio</mediatype>
							<parameter>
								<name>Pan</name>
								<parameterid>pan</parameterid>
								<valuemin>-1</valuemin>
								<valuemax>1</valuemax>
								<value>-1</value>
							</parameter>
						</effect>
					</filter>
					<sourcetrack>
						<mediatype>audio</mediatype>
						<trackindex>1</trackindex>
					</sourcetrack>
					<link>
						<linkclipref>MVI_1193 8</linkclipref>
						<mediatype>video</mediatype>
						<trackindex>1</trackindex>
						<clipindex>4</clipindex>
					</link>
					<link>
						<linkclipref>MVI_1193 9</linkclipref>
						<mediatype>audio</mediatype>
						<trackindex>1</trackindex>
						<clipindex>4</clipindex>
						<groupindex>1</groupindex>
					</link>
					<link>
						<linkclipref>MVI_1193 10</linkclipref>
						<mediatype>audio</mediatype>
						<trackindex>2</trackindex>
						<clipindex>4</clipindex>
						<groupindex>1</groupindex>
					</link>
					<itemhistory>
						<uuid>27E32EE4-5597-48EB-ABB3-357C4BA4AC9B</uuid>
						<uuid>C7282D3D-70AE-41D0-B5E8-59197A18CE3A</uuid>
					</itemhistory>
				</clipitem>
				<clipitem id="MVI_1194 3">
					<name>MVI_1194</name>
					<duration>12544</duration>
					<rate>
						<ntsc>TRUE</ntsc>
						<timebase>24</timebase>
					</rate>
					<in>0</in>
					<out>12544</out>
					<start>28217</start>
					<end>40761</end>
					<masterclipid>MVI_1194 1</masterclipid>
					<logginginfo>
						<scene/>
						<shottake/>
						<lognote/>
						<good>FALSE</good>
					</logginginfo>
					<labels>
						<label2/>
					</labels>
					<comments>
						<mastercomment1/>
						<mastercomment2/>
						<mastercomment3/>
						<mastercomment4/>
					</comments>
					<file id="MVI_1194 2"/>
					<marker>
						<name>genetics short 1</name>
						<comment>evolution,&#13;genetics,&#13;algorithm,&#13;time saving,&#13;efficiency,</comment>
						<color>
							<alpha>0</alpha>
							<red>255</red>
							<green>0</green>
							<blue>0</blue>
						</color>
						<in>9154</in>
						<out>9943</out>
					</marker>
					<marker>
						<name>genetics short 2</name>
						<comment>evolution,&#13;genetics,&#13;algorithm,&#13;time saving,&#13;biology, &#13;artificial life,&#13;sex,</comment>
						<color>
							<alpha>0</alpha>
							<red>255</red>
							<green>0</green>
							<blue>0</blue>
						</color>
						<in>11598</in>
						<out>11940</out>
					</marker>
					<filter>
						<effect>
							<name>Audio Levels</name>
							<effectid>audiolevels</effectid>
							<effectcategory>audiolevels</effectcategory>
							<effecttype>audiolevels</effecttype>
							<mediatype>audio</mediatype>
							<parameter>
								<name>Level</name>
								<parameterid>level</parameterid>
								<valuemin>0</valuemin>
								<valuemax>3.98109</valuemax>
								<value>1</value>
							</parameter>
						</effect>
					</filter>
					<filter>
						<effect>
							<name>Audio Pan</name>
							<effectid>audiopan</effectid>
							<effectcategory>audiopan</effectcategory>
							<effecttype>audiopan</effecttype>
							<mediatype>audio</mediatype>
							<parameter>
								<name>Pan</name>
								<parameterid>pan</parameterid>
								<valuemin>-1</valuemin>
								<valuemax>1</valuemax>
								<value>-1</value>
							</parameter>
						</effect>
					</filter>
					<sourcetrack>
						<mediatype>audio</mediatype>
						<trackindex>1</trackindex>
					</sourcetrack>
					<link>
						<linkclipref>MVI_1194 </linkclipref>
						<mediatype>video</mediatype>
						<trackindex>1</trackindex>
						<clipindex>5</clipindex>
					</link>
					<link>
						<linkclipref>MVI_1194 3</linkclipref>
						<mediatype>audio</mediatype>
						<trackindex>1</trackindex>
						<clipindex>5</clipindex>
						<groupindex>1</groupindex>
					</link>
					<link>
						<linkclipref>MVI_1194 4</linkclipref>
						<mediatype>audio</mediatype>
						<trackindex>2</trackindex>
						<clipindex>5</clipindex>
						<groupindex>1</groupindex>
					</link>
					<itemhistory>
						<uuid>A6BA5A74-A7C4-4BE4-A78F-A1E608F2F4B1</uuid>
					</itemhistory>
				</clipitem>
				<clipitem id="MVI_1195 3">
					<name>MVI_1195</name>
					<duration>18563</duration>
					<rate>
						<ntsc>TRUE</ntsc>
						<timebase>24</timebase>
					</rate>
					<in>0</in>
					<out>10244</out>
					<start>40761</start>
					<end>51005</end>
					<masterclipid>MVI_1195 1</masterclipid>
					<logginginfo>
						<scene/>
						<shottake/>
						<lognote/>
						<good>FALSE</good>
					</logginginfo>
					<labels>
						<label2/>
					</labels>
					<comments>
						<mastercomment1/>
						<mastercomment2/>
						<mastercomment3/>
						<mastercomment4/>
					</comments>
					<file id="MVI_1195 2"/>
					<marker>
						<name>Carl Sims</name>
						<comment>Carl Sims,&#13;Galapagos,&#13;evolution,&#13;genetics,&#13;aesthetics,&#13;beauty,&#13;Link:Marius - artificial life,&#13;coding aesthetics,&#13;</comment>
						<color>
							<alpha>0</alpha>
							<red>255</red>
							<green>0</green>
							<blue>0</blue>
						</color>
						<in>468</in>
						<out>1746</out>
					</marker>
					<marker>
						<name>evolution </name>
						<comment>evolution,&#13;artificial life,&#13;</comment>
						<color>
							<alpha>0</alpha>
							<red>255</red>
							<green>0</green>
							<blue>0</blue>
						</color>
						<in>2378</in>
						<out>2778</out>
					</marker>
					<marker>
						<name>Marker 4</name>
						<comment>processing,&#13;accessibility,&#13;learning,&#13;education&#13;</comment>
						<color>
							<alpha>0</alpha>
							<red>255</red>
							<green>0</green>
							<blue>0</blue>
						</color>
						<in>8187</in>
						<out>8848</out>
					</marker>
					<marker>
						<name>sharing</name>
						<comment>open source,&#13;sharing,&#13;education,&#13;community,</comment>
						<color>
							<alpha>0</alpha>
							<red>255</red>
							<green>0</green>
							<blue>0</blue>
						</color>
						<in>10251</in>
						<out>10879</out>
					</marker>
					<marker>
						<name>Open Source Contract</name>
						<comment>Open source,&#13;value,&#13;education,&#13;sharing,&#13;</comment>
						<color>
							<alpha>0</alpha>
							<red>255</red>
							<green>0</green>
							<blue>0</blue>
						</color>
						<in>12550</in>
						<out>12791</out>
					</marker>
					<marker>
						<name>problem solving</name>
						<comment>community,&#13;problem solving,&#13;open source,&#13;education,</comment>
						<color>
							<alpha>0</alpha>
							<red>255</red>
							<green>0</green>
							<blue>0</blue>
						</color>
						<in>13748</in>
						<out>14019</out>
					</marker>
					<marker>
						<name>Desire for order</name>
						<comment>what do you find beautiful about code?,&#13;beauty of code,&#13;logic,&#13;OCD,&#13;syntax,</comment>
						<color>
							<alpha>0</alpha>
							<red>255</red>
							<green>0</green>
							<blue>0</blue>
						</color>
						<in>15555</in>
						<out>16917</out>
					</marker>
					<marker>
						<name>what do you archive?</name>
						<comment>archive,&#13;preservation,&#13;history,&#13;new media old media,</comment>
						<color>
							<alpha>0</alpha>
							<red>255</red>
							<green>0</green>
							<blue>0</blue>
						</color>
						<in>17274</in>
						<out>17751</out>
					</marker>
					<filter>
						<effect>
							<name>Audio Levels</name>
							<effectid>audiolevels</effectid>
							<effectcategory>audiolevels</effectcategory>
							<effecttype>audiolevels</effecttype>
							<mediatype>audio</mediatype>
							<parameter>
								<name>Level</name>
								<parameterid>level</parameterid>
								<valuemin>0</valuemin>
								<valuemax>3.98109</valuemax>
								<value>1</value>
							</parameter>
						</effect>
					</filter>
					<filter>
						<effect>
							<name>Audio Pan</name>
							<effectid>audiopan</effectid>
							<effectcategory>audiopan</effectcategory>
							<effecttype>audiopan</effecttype>
							<mediatype>audio</mediatype>
							<parameter>
								<name>Pan</name>
								<parameterid>pan</parameterid>
								<valuemin>-1</valuemin>
								<valuemax>1</valuemax>
								<value>-1</value>
							</parameter>
						</effect>
					</filter>
					<sourcetrack>
						<mediatype>audio</mediatype>
						<trackindex>1</trackindex>
					</sourcetrack>
					<link>
						<linkclipref>MVI_1195 </linkclipref>
						<mediatype>video</mediatype>
						<trackindex>1</trackindex>
						<clipindex>6</clipindex>
					</link>
					<link>
						<linkclipref>MVI_1195 3</linkclipref>
						<mediatype>audio</mediatype>
						<trackindex>1</trackindex>
						<clipindex>6</clipindex>
						<groupindex>1</groupindex>
					</link>
					<link>
						<linkclipref>MVI_1195 4</linkclipref>
						<mediatype>audio</mediatype>
						<trackindex>2</trackindex>
						<clipindex>6</clipindex>
						<groupindex>1</groupindex>
					</link>
					<itemhistory>
						<uuid>312B8590-3D0E-45F5-BA40-9209E5C6E579</uuid>
						<uuid>BB9A198A-FF03-4D8A-8350-CA73C2C9944A</uuid>
					</itemhistory>
				</clipitem>
				<clipitem id="MVI_1195 6">
					<name>MVI_1195</name>
					<duration>18563</duration>
					<rate>
						<ntsc>TRUE</ntsc>
						<timebase>24</timebase>
					</rate>
					<in>10244</in>
					<out>10886</out>
					<start>51005</start>
					<end>51647</end>
					<masterclipid>MVI_1195 1</masterclipid>
					<logginginfo>
						<scene/>
						<shottake/>
						<lognote/>
						<good>FALSE</good>
					</logginginfo>
					<labels>
						<label2/>
					</labels>
					<comments>
						<mastercomment1/>
						<mastercomment2/>
						<mastercomment3/>
						<mastercomment4/>
					</comments>
					<file id="MVI_1195 2"/>
					<marker>
						<name>Carl Sims</name>
						<comment>Carl Sims,&#13;Galapagos,&#13;evolution,&#13;genetics,&#13;aesthetics,&#13;beauty,&#13;Link:Marius - artificial life,&#13;coding aesthetics,&#13;</comment>
						<color>
							<alpha>0</alpha>
							<red>255</red>
							<green>0</green>
							<blue>0</blue>
						</color>
						<in>468</in>
						<out>1746</out>
					</marker>
					<marker>
						<name>evolution </name>
						<comment>evolution,&#13;artificial life,&#13;</comment>
						<color>
							<alpha>0</alpha>
							<red>255</red>
							<green>0</green>
							<blue>0</blue>
						</color>
						<in>2378</in>
						<out>2778</out>
					</marker>
					<marker>
						<name>Marker 4</name>
						<comment>processing,&#13;accessibility,&#13;learning,&#13;education&#13;</comment>
						<color>
							<alpha>0</alpha>
							<red>255</red>
							<green>0</green>
							<blue>0</blue>
						</color>
						<in>8187</in>
						<out>8848</out>
					</marker>
					<marker>
						<name>sharing</name>
						<comment>open source,&#13;sharing,&#13;education,&#13;community,</comment>
						<color>
							<alpha>0</alpha>
							<red>255</red>
							<green>0</green>
							<blue>0</blue>
						</color>
						<in>10251</in>
						<out>10879</out>
					</marker>
					<marker>
						<name>Open Source Contract</name>
						<comment>Open source,&#13;value,&#13;education,&#13;sharing,&#13;</comment>
						<color>
							<alpha>0</alpha>
							<red>255</red>
							<green>0</green>
							<blue>0</blue>
						</color>
						<in>12550</in>
						<out>12791</out>
					</marker>
					<marker>
						<name>problem solving</name>
						<comment>community,&#13;problem solving,&#13;open source,&#13;education,</comment>
						<color>
							<alpha>0</alpha>
							<red>255</red>
							<green>0</green>
							<blue>0</blue>
						</color>
						<in>13748</in>
						<out>14019</out>
					</marker>
					<marker>
						<name>Desire for order</name>
						<comment>what do you find beautiful about code?,&#13;beauty of code,&#13;logic,&#13;OCD,&#13;syntax,</comment>
						<color>
							<alpha>0</alpha>
							<red>255</red>
							<green>0</green>
							<blue>0</blue>
						</color>
						<in>15555</in>
						<out>16917</out>
					</marker>
					<marker>
						<name>what do you archive?</name>
						<comment>archive,&#13;preservation,&#13;history,&#13;new media old media,</comment>
						<color>
							<alpha>0</alpha>
							<red>255</red>
							<green>0</green>
							<blue>0</blue>
						</color>
						<in>17274</in>
						<out>17751</out>
					</marker>
					<filter>
						<effect>
							<name>Audio Levels</name>
							<effectid>audiolevels</effectid>
							<effectcategory>audiolevels</effectcategory>
							<effecttype>audiolevels</effecttype>
							<mediatype>audio</mediatype>
							<parameter>
								<name>Level</name>
								<parameterid>level</parameterid>
								<valuemin>0</valuemin>
								<valuemax>3.98109</valuemax>
								<value>1</value>
							</parameter>
						</effect>
					</filter>
					<filter>
						<effect>
							<name>Audio Pan</name>
							<effectid>audiopan</effectid>
							<effectcategory>audiopan</effectcategory>
							<effecttype>audiopan</effecttype>
							<mediatype>audio</mediatype>
							<parameter>
								<name>Pan</name>
								<parameterid>pan</parameterid>
								<valuemin>-1</valuemin>
								<valuemax>1</valuemax>
								<value>-1</value>
							</parameter>
						</effect>
					</filter>
					<sourcetrack>
						<mediatype>audio</mediatype>
						<trackindex>1</trackindex>
					</sourcetrack>
					<link>
						<linkclipref>MVI_1195 5</linkclipref>
						<mediatype>video</mediatype>
						<trackindex>1</trackindex>
						<clipindex>7</clipindex>
					</link>
					<link>
						<linkclipref>MVI_1195 6</linkclipref>
						<mediatype>audio</mediatype>
						<trackindex>1</trackindex>
						<clipindex>7</clipindex>
						<groupindex>1</groupindex>
					</link>
					<link>
						<linkclipref>MVI_1195 7</linkclipref>
						<mediatype>audio</mediatype>
						<trackindex>2</trackindex>
						<clipindex>7</clipindex>
						<groupindex>1</groupindex>
					</link>
					<itemhistory>
						<uuid>064B4E69-9090-42B0-B7AA-80F1BDB2BDBB</uuid>
						<uuid>BB9A198A-FF03-4D8A-8350-CA73C2C9944A</uuid>
					</itemhistory>
				</clipitem>
				<clipitem id="MVI_1195 9">
					<name>MVI_1195</name>
					<duration>18563</duration>
					<rate>
						<ntsc>TRUE</ntsc>
						<timebase>24</timebase>
					</rate>
					<in>10886</in>
					<out>18563</out>
					<start>51647</start>
					<end>59324</end>
					<masterclipid>MVI_1195 1</masterclipid>
					<logginginfo>
						<scene/>
						<shottake/>
						<lognote/>
						<good>FALSE</good>
					</logginginfo>
					<labels>
						<label2/>
					</labels>
					<comments>
						<mastercomment1/>
						<mastercomment2/>
						<mastercomment3/>
						<mastercomment4/>
					</comments>
					<file id="MVI_1195 2"/>
					<marker>
						<name>Carl Sims</name>
						<comment>Carl Sims,&#13;Galapagos,&#13;evolution,&#13;genetics,&#13;aesthetics,&#13;beauty,&#13;Link:Marius - artificial life,&#13;coding aesthetics,&#13;</comment>
						<color>
							<alpha>0</alpha>
							<red>255</red>
							<green>0</green>
							<blue>0</blue>
						</color>
						<in>468</in>
						<out>1746</out>
					</marker>
					<marker>
						<name>evolution </name>
						<comment>evolution,&#13;artificial life,&#13;</comment>
						<color>
							<alpha>0</alpha>
							<red>255</red>
							<green>0</green>
							<blue>0</blue>
						</color>
						<in>2378</in>
						<out>2778</out>
					</marker>
					<marker>
						<name>Marker 4</name>
						<comment>processing,&#13;accessibility,&#13;learning,&#13;education&#13;</comment>
						<color>
							<alpha>0</alpha>
							<red>255</red>
							<green>0</green>
							<blue>0</blue>
						</color>
						<in>8187</in>
						<out>8848</out>
					</marker>
					<marker>
						<name>sharing</name>
						<comment>open source,&#13;sharing,&#13;education,&#13;community,</comment>
						<color>
							<alpha>0</alpha>
							<red>255</red>
							<green>0</green>
							<blue>0</blue>
						</color>
						<in>10251</in>
						<out>10879</out>
					</marker>
					<marker>
						<name>Open Source Contract</name>
						<comment>Open source,&#13;value,&#13;education,&#13;sharing,&#13;</comment>
						<color>
							<alpha>0</alpha>
							<red>255</red>
							<green>0</green>
							<blue>0</blue>
						</color>
						<in>12550</in>
						<out>12791</out>
					</marker>
					<marker>
						<name>problem solving</name>
						<comment>community,&#13;problem solving,&#13;open source,&#13;education,</comment>
						<color>
							<alpha>0</alpha>
							<red>255</red>
							<green>0</green>
							<blue>0</blue>
						</color>
						<in>13748</in>
						<out>14019</out>
					</marker>
					<marker>
						<name>Desire for order</name>
						<comment>what do you find beautiful about code?,&#13;beauty of code,&#13;logic,&#13;OCD,&#13;syntax,</comment>
						<color>
							<alpha>0</alpha>
							<red>255</red>
							<green>0</green>
							<blue>0</blue>
						</color>
						<in>15555</in>
						<out>16917</out>
					</marker>
					<marker>
						<name>what do you archive?</name>
						<comment>archive,&#13;preservation,&#13;history,&#13;new media old media,</comment>
						<color>
							<alpha>0</alpha>
							<red>255</red>
							<green>0</green>
							<blue>0</blue>
						</color>
						<in>17274</in>
						<out>17751</out>
					</marker>
					<filter>
						<effect>
							<name>Audio Levels</name>
							<effectid>audiolevels</effectid>
							<effectcategory>audiolevels</effectcategory>
							<effecttype>audiolevels</effecttype>
							<mediatype>audio</mediatype>
							<parameter>
								<name>Level</name>
								<parameterid>level</parameterid>
								<valuemin>0</valuemin>
								<valuemax>3.98109</valuemax>
								<value>1</value>
							</parameter>
						</effect>
					</filter>
					<filter>
						<effect>
							<name>Audio Pan</name>
							<effectid>audiopan</effectid>
							<effectcategory>audiopan</effectcategory>
							<effecttype>audiopan</effecttype>
							<mediatype>audio</mediatype>
							<parameter>
								<name>Pan</name>
								<parameterid>pan</parameterid>
								<valuemin>-1</valuemin>
								<valuemax>1</valuemax>
								<value>-1</value>
							</parameter>
						</effect>
					</filter>
					<sourcetrack>
						<mediatype>audio</mediatype>
						<trackindex>1</trackindex>
					</sourcetrack>
					<link>
						<linkclipref>MVI_1195 8</linkclipref>
						<mediatype>video</mediatype>
						<trackindex>1</trackindex>
						<clipindex>8</clipindex>
					</link>
					<link>
						<linkclipref>MVI_1195 9</linkclipref>
						<mediatype>audio</mediatype>
						<trackindex>1</trackindex>
						<clipindex>8</clipindex>
						<groupindex>1</groupindex>
					</link>
					<link>
						<linkclipref>MVI_1195 10</linkclipref>
						<mediatype>audio</mediatype>
						<trackindex>2</trackindex>
						<clipindex>8</clipindex>
						<groupindex>1</groupindex>
					</link>
					<itemhistory>
						<uuid>5F587A0C-3DA5-4011-BF74-A7F541637048</uuid>
						<uuid>BB9A198A-FF03-4D8A-8350-CA73C2C9944A</uuid>
					</itemhistory>
				</clipitem>
				<enabled>TRUE</enabled>
				<locked>FALSE</locked>
				<outputchannelindex>1</outputchannelindex>
			</track>
			<track>
				<clipitem id="MVI_1192 4">
					<name>MVI_1192</name>
					<duration>14098</duration>
					<rate>
						<ntsc>TRUE</ntsc>
						<timebase>24</timebase>
					</rate>
					<in>0</in>
					<out>14098</out>
					<start>0</start>
					<end>14098</end>
					<masterclipid>MVI_1192 1</masterclipid>
					<logginginfo>
						<scene/>
						<shottake/>
						<lognote/>
						<good>FALSE</good>
					</logginginfo>
					<labels>
						<label2/>
					</labels>
					<comments>
						<mastercomment1/>
						<mastercomment2/>
						<mastercomment3/>
						<mastercomment4/>
					</comments>
					<file id="MVI_1192 2"/>
					<marker>
						<name>Maybe I'd like that</name>
						<comment>beginning,&#13;programming,&#13;code,&#13;learning,</comment>
						<color>
							<alpha>0</alpha>
							<red>255</red>
							<green>0</green>
							<blue>0</blue>
						</color>
						<in>1256</in>
						<out>1699</out>
					</marker>
					<marker>
						<name>Magnets</name>
						<comment>physics,&#13;nature,&#13;beginning,&#13;discovery,&#13;learning,</comment>
						<color>
							<alpha>0</alpha>
							<red>255</red>
							<green>0</green>
							<blue>0</blue>
						</color>
						<in>2336</in>
						<out>2920</out>
					</marker>
					<marker>
						<name>sketching with code</name>
						<comment>epiphany,&#13;drawing,&#13;feedback,&#13;visual thinking,&#13;learning,&#13;tweaking,&#13;generative art,&#13;mood: excitement,&#13;mood: inspiring,&#13;</comment>
						<color>
							<alpha>0</alpha>
							<red>255</red>
							<green>0</green>
							<blue>0</blue>
						</color>
						<in>3041</in>
						<out>3470</out>
					</marker>
					<marker>
						<name>Not a visual thinker</name>
						<comment>How does visual feedback help you to learn programming?,&#13;visual thinking,&#13;education,&#13;learning,&#13;drawing,&#13;</comment>
						<color>
							<alpha>0</alpha>
							<red>255</red>
							<green>0</green>
							<blue>0</blue>
						</color>
						<in>5542</in>
						<out>7254</out>
					</marker>
					<marker>
						<name>what computers can do</name>
						<comment>What do computers offer artists that they cannot accomplish by other means?,&#13;What is a computer?,&#13;iteration,&#13;process,&#13;physicality,&#13;drawing,</comment>
						<color>
							<alpha>0</alpha>
							<red>255</red>
							<green>0</green>
							<blue>0</blue>
						</color>
						<in>7820</in>
						<out>8801</out>
					</marker>
					<marker>
						<name>There's an element of surprise</name>
						<comment>Does coding enable you to take risks because there's no physical consequence?,&#13;surprise,&#13;serendipity, &#13;process,&#13;creativity,</comment>
						<color>
							<alpha>0</alpha>
							<red>255</red>
							<green>0</green>
							<blue>0</blue>
						</color>
						<in>10119</in>
						<out>10196</out>
					</marker>
					<marker>
						<name>Marker 7</name>
						<comment>No big deal -- link to Maeda,&#13;teaching,&#13;mood: positive "you can do it",</comment>
						<color>
							<alpha>0</alpha>
							<red>255</red>
							<green>0</green>
							<blue>0</blue>
						</color>
						<in>10237</in>
						<out>10992</out>
					</marker>
					<marker>
						<name>Marker 8</name>
						<comment>simulation,&#13;nature,&#13;multiverse,&#13;phenomena,&#13;song: fourtet peace for earth,</comment>
						<color>
							<alpha>0</alpha>
							<red>255</red>
							<green>0</green>
							<blue>0</blue>
						</color>
						<in>11872</in>
						<out>12543</out>
					</marker>
					<marker>
						<name>Nature of code p. 2</name>
						<comment>simulation,&#13;physics,&#13;nature,</comment>
						<color>
							<alpha>0</alpha>
							<red>255</red>
							<green>0</green>
							<blue>0</blue>
						</color>
						<in>12815</in>
						<out>13850</out>
					</marker>
					<filter>
						<effect>
							<name>Audio Levels</name>
							<effectid>audiolevels</effectid>
							<effectcategory>audiolevels</effectcategory>
							<effecttype>audiolevels</effecttype>
							<mediatype>audio</mediatype>
							<parameter>
								<name>Level</name>
								<parameterid>level</parameterid>
								<valuemin>0</valuemin>
								<valuemax>3.98109</valuemax>
								<value>1</value>
							</parameter>
						</effect>
					</filter>
					<filter>
						<effect>
							<name>Audio Pan</name>
							<effectid>audiopan</effectid>
							<effectcategory>audiopan</effectcategory>
							<effecttype>audiopan</effecttype>
							<mediatype>audio</mediatype>
							<parameter>
								<name>Pan</name>
								<parameterid>pan</parameterid>
								<valuemin>-1</valuemin>
								<valuemax>1</valuemax>
								<value>1</value>
							</parameter>
						</effect>
					</filter>
					<sourcetrack>
						<mediatype>audio</mediatype>
						<trackindex>2</trackindex>
					</sourcetrack>
					<link>
						<linkclipref>MVI_1192 </linkclipref>
						<mediatype>video</mediatype>
						<trackindex>1</trackindex>
						<clipindex>1</clipindex>
					</link>
					<link>
						<linkclipref>MVI_1192 3</linkclipref>
						<mediatype>audio</mediatype>
						<trackindex>1</trackindex>
						<clipindex>1</clipindex>
						<groupindex>1</groupindex>
					</link>
					<link>
						<linkclipref>MVI_1192 4</linkclipref>
						<mediatype>audio</mediatype>
						<trackindex>2</trackindex>
						<clipindex>1</clipindex>
						<groupindex>1</groupindex>
					</link>
					<itemhistory>
						<uuid>2890BBAF-2E2F-44CC-9780-EF1DEC53211D</uuid>
					</itemhistory>
				</clipitem>
				<clipitem id="MVI_1193 4">
					<name>MVI_1193</name>
					<duration>14119</duration>
					<rate>
						<ntsc>TRUE</ntsc>
						<timebase>24</timebase>
					</rate>
					<in>0</in>
					<out>6392</out>
					<start>14098</start>
					<end>20490</end>
					<masterclipid>MVI_1193 1</masterclipid>
					<logginginfo>
						<scene/>
						<shottake/>
						<lognote/>
						<good>FALSE</good>
					</logginginfo>
					<labels>
						<label2/>
					</labels>
					<comments>
						<mastercomment1/>
						<mastercomment2/>
						<mastercomment3/>
						<mastercomment4/>
					</comments>
					<file id="MVI_1193 2"/>
					<marker>
						<name>Marker 1</name>
						<comment>reminds me of ancient greek tomes euclid's elements,&#13;story,&#13;book,&#13;teaching,&#13;logic,&#13;cosmogeny,&#13;wisdom,&#13;motion,&#13;song: fourtet peace on earth,&#13;</comment>
						<color>
							<alpha>0</alpha>
							<red>255</red>
							<green>0</green>
							<blue>0</blue>
						</color>
						<in>893</in>
						<out>2883</out>
					</marker>
					<marker>
						<name>Games</name>
						<comment>How does gaming influence your work?,&#13;games,&#13;simulation, &#13;emergence,&#13;complexity,</comment>
						<color>
							<alpha>0</alpha>
							<red>255</red>
							<green>0</green>
							<blue>0</blue>
						</color>
						<in>3697</in>
						<out>4378</out>
					</marker>
					<marker>
						<name>building a universe</name>
						<comment>cosmogeny,&#13;nature,&#13;simulation,&#13;god,&#13;</comment>
						<color>
							<alpha>0</alpha>
							<red>255</red>
							<green>0</green>
							<blue>0</blue>
						</color>
						<in>4957</in>
						<out>5154</out>
					</marker>
					<marker>
						<name>programming the universe</name>
						<comment>cosmogeny,&#13;nature,&#13;simulation,&#13;god,&#13;</comment>
						<color>
							<alpha>0</alpha>
							<red>255</red>
							<green>0</green>
							<blue>0</blue>
						</color>
						<in>5429</in>
						<out>5878</out>
					</marker>
					<marker>
						<name>how far could we get?</name>
						<comment>cosmogeny,&#13;nature,&#13;simulation,&#13;algorithm,&#13;phenomena,&#13;systems&#13;</comment>
						<color>
							<alpha>0</alpha>
							<red>255</red>
							<green>0</green>
							<blue>0</blue>
						</color>
						<in>6392</in>
						<out>7059</out>
					</marker>
					<marker>
						<name>million monkeys</name>
						<comment>do you believe it's possible to build the universe inside a computer?,&#13;infinity,&#13;chance,&#13;possibility,&#13;complexity,&#13;philosophy,&#13;</comment>
						<color>
							<alpha>0</alpha>
							<red>255</red>
							<green>0</green>
							<blue>0</blue>
						</color>
						<in>7108</in>
						<out>7800</out>
					</marker>
					<marker>
						<name/>
						<comment>is there an absolute reality that can be understood mathematically?,&#13;math,&#13;algorithm,&#13;nature,</comment>
						<color>
							<alpha>0</alpha>
							<red>255</red>
							<green>0</green>
							<blue>0</blue>
						</color>
						<in>8679</in>
						<out>-1</out>
					</marker>
					<marker>
						<name>reality will only get you so far</name>
						<comment>reality,&#13;virtual,&#13;real meets virtual,&#13;digital meets physical,&#13;inexactitude,&#13;art versus engineering,&#13;simulation,</comment>
						<color>
							<alpha>0</alpha>
							<red>255</red>
							<green>0</green>
							<blue>0</blue>
						</color>
						<in>8981</in>
						<out>9223</out>
					</marker>
					<marker>
						<name>Constraints,</name>
						<comment>real and virtual,&#13;simulation,&#13;physics,&#13;nature,&#13;parameters,&#13;constraints,&#13;code is messy,&#13;</comment>
						<color>
							<alpha>0</alpha>
							<red>255</red>
							<green>0</green>
							<blue>0</blue>
						</color>
						<in>9521</in>
						<out>10658</out>
					</marker>
					<marker>
						<name>make it random</name>
						<comment>what's the importance of randomness and probabilty?,&#13;randomness,&#13;processing,&#13;creative process,&#13;</comment>
						<color>
							<alpha>0</alpha>
							<red>255</red>
							<green>0</green>
							<blue>0</blue>
						</color>
						<in>11126</in>
						<out>11636</out>
					</marker>
					<marker>
						<name>randomness can be not very thoughtful</name>
						<comment>randomness,&#13;critique,&#13;&#13;</comment>
						<color>
							<alpha>0</alpha>
							<red>255</red>
							<green>0</green>
							<blue>0</blue>
						</color>
						<in>11815</in>
						<out>12179</out>
					</marker>
					<marker>
						<name>mutation</name>
						<comment>randomness,&#13;evolution, &#13;simulation,&#13;</comment>
						<color>
							<alpha>0</alpha>
							<red>255</red>
							<green>0</green>
							<blue>0</blue>
						</color>
						<in>13547</in>
						<out>13966</out>
					</marker>
					<filter>
						<effect>
							<name>Audio Levels</name>
							<effectid>audiolevels</effectid>
							<effectcategory>audiolevels</effectcategory>
							<effecttype>audiolevels</effecttype>
							<mediatype>audio</mediatype>
							<parameter>
								<name>Level</name>
								<parameterid>level</parameterid>
								<valuemin>0</valuemin>
								<valuemax>3.98109</valuemax>
								<value>1</value>
							</parameter>
						</effect>
					</filter>
					<filter>
						<effect>
							<name>Audio Pan</name>
							<effectid>audiopan</effectid>
							<effectcategory>audiopan</effectcategory>
							<effecttype>audiopan</effecttype>
							<mediatype>audio</mediatype>
							<parameter>
								<name>Pan</name>
								<parameterid>pan</parameterid>
								<valuemin>-1</valuemin>
								<valuemax>1</valuemax>
								<value>1</value>
							</parameter>
						</effect>
					</filter>
					<sourcetrack>
						<mediatype>audio</mediatype>
						<trackindex>2</trackindex>
					</sourcetrack>
					<link>
						<linkclipref>MVI_1193 </linkclipref>
						<mediatype>video</mediatype>
						<trackindex>1</trackindex>
						<clipindex>2</clipindex>
					</link>
					<link>
						<linkclipref>MVI_1193 3</linkclipref>
						<mediatype>audio</mediatype>
						<trackindex>1</trackindex>
						<clipindex>2</clipindex>
						<groupindex>1</groupindex>
					</link>
					<link>
						<linkclipref>MVI_1193 4</linkclipref>
						<mediatype>audio</mediatype>
						<trackindex>2</trackindex>
						<clipindex>2</clipindex>
						<groupindex>1</groupindex>
					</link>
					<itemhistory>
						<uuid>D70B7D25-B026-4398-B616-0BA2131FA3CE</uuid>
						<uuid>061C3487-FAB8-4B42-89D6-27A896AA46F1</uuid>
					</itemhistory>
				</clipitem>
				<clipitem id="MVI_1193 7">
					<name>MVI_1193</name>
					<duration>14119</duration>
					<rate>
						<ntsc>TRUE</ntsc>
						<timebase>24</timebase>
					</rate>
					<in>6392</in>
					<out>7020</out>
					<start>20490</start>
					<end>21118</end>
					<masterclipid>MVI_1193 1</masterclipid>
					<logginginfo>
						<scene/>
						<shottake/>
						<lognote/>
						<good>FALSE</good>
					</logginginfo>
					<labels>
						<label2/>
					</labels>
					<comments>
						<mastercomment1/>
						<mastercomment2/>
						<mastercomment3/>
						<mastercomment4/>
					</comments>
					<file id="MVI_1193 2"/>
					<marker>
						<name>Marker 1</name>
						<comment>reminds me of ancient greek tomes euclid's elements,&#13;story,&#13;book,&#13;teaching,&#13;logic,&#13;cosmogeny,&#13;wisdom,&#13;motion,&#13;song: fourtet peace on earth,&#13;</comment>
						<color>
							<alpha>0</alpha>
							<red>255</red>
							<green>0</green>
							<blue>0</blue>
						</color>
						<in>893</in>
						<out>2883</out>
					</marker>
					<marker>
						<name>Games</name>
						<comment>How does gaming influence your work?,&#13;games,&#13;simulation, &#13;emergence,&#13;complexity,</comment>
						<color>
							<alpha>0</alpha>
							<red>255</red>
							<green>0</green>
							<blue>0</blue>
						</color>
						<in>3697</in>
						<out>4378</out>
					</marker>
					<marker>
						<name>building a universe</name>
						<comment>cosmogeny,&#13;nature,&#13;simulation,&#13;god,&#13;</comment>
						<color>
							<alpha>0</alpha>
							<red>255</red>
							<green>0</green>
							<blue>0</blue>
						</color>
						<in>4957</in>
						<out>5154</out>
					</marker>
					<marker>
						<name>programming the universe</name>
						<comment>cosmogeny,&#13;nature,&#13;simulation,&#13;god,&#13;</comment>
						<color>
							<alpha>0</alpha>
							<red>255</red>
							<green>0</green>
							<blue>0</blue>
						</color>
						<in>5429</in>
						<out>5878</out>
					</marker>
					<marker>
						<name>how far could we get?</name>
						<comment>cosmogeny,&#13;nature,&#13;simulation,&#13;algorithm,&#13;phenomena,&#13;systems&#13;</comment>
						<color>
							<alpha>0</alpha>
							<red>255</red>
							<green>0</green>
							<blue>0</blue>
						</color>
						<in>6392</in>
						<out>7059</out>
					</marker>
					<marker>
						<name>million monkeys</name>
						<comment>do you believe it's possible to build the universe inside a computer?,&#13;infinity,&#13;chance,&#13;possibility,&#13;complexity,&#13;philosophy,&#13;</comment>
						<color>
							<alpha>0</alpha>
							<red>255</red>
							<green>0</green>
							<blue>0</blue>
						</color>
						<in>7108</in>
						<out>7800</out>
					</marker>
					<marker>
						<name/>
						<comment>is there an absolute reality that can be understood mathematically?,&#13;math,&#13;algorithm,&#13;nature,</comment>
						<color>
							<alpha>0</alpha>
							<red>255</red>
							<green>0</green>
							<blue>0</blue>
						</color>
						<in>8679</in>
						<out>-1</out>
					</marker>
					<marker>
						<name>reality will only get you so far</name>
						<comment>reality,&#13;virtual,&#13;real meets virtual,&#13;digital meets physical,&#13;inexactitude,&#13;art versus engineering,&#13;simulation,</comment>
						<color>
							<alpha>0</alpha>
							<red>255</red>
							<green>0</green>
							<blue>0</blue>
						</color>
						<in>8981</in>
						<out>9223</out>
					</marker>
					<marker>
						<name>Constraints,</name>
						<comment>real and virtual,&#13;simulation,&#13;physics,&#13;nature,&#13;parameters,&#13;constraints,&#13;code is messy,&#13;</comment>
						<color>
							<alpha>0</alpha>
							<red>255</red>
							<green>0</green>
							<blue>0</blue>
						</color>
						<in>9521</in>
						<out>10658</out>
					</marker>
					<marker>
						<name>make it random</name>
						<comment>what's the importance of randomness and probabilty?,&#13;randomness,&#13;processing,&#13;creative process,&#13;</comment>
						<color>
							<alpha>0</alpha>
							<red>255</red>
							<green>0</green>
							<blue>0</blue>
						</color>
						<in>11126</in>
						<out>11636</out>
					</marker>
					<marker>
						<name>randomness can be not very thoughtful</name>
						<comment>randomness,&#13;critique,&#13;&#13;</comment>
						<color>
							<alpha>0</alpha>
							<red>255</red>
							<green>0</green>
							<blue>0</blue>
						</color>
						<in>11815</in>
						<out>12179</out>
					</marker>
					<marker>
						<name>mutation</name>
						<comment>randomness,&#13;evolution, &#13;simulation,&#13;</comment>
						<color>
							<alpha>0</alpha>
							<red>255</red>
							<green>0</green>
							<blue>0</blue>
						</color>
						<in>13547</in>
						<out>13966</out>
					</marker>
					<filter>
						<effect>
							<name>Audio Levels</name>
							<effectid>audiolevels</effectid>
							<effectcategory>audiolevels</effectcategory>
							<effecttype>audiolevels</effecttype>
							<mediatype>audio</mediatype>
							<parameter>
								<name>Level</name>
								<parameterid>level</parameterid>
								<valuemin>0</valuemin>
								<valuemax>3.98109</valuemax>
								<value>1</value>
							</parameter>
						</effect>
					</filter>
					<filter>
						<effect>
							<name>Audio Pan</name>
							<effectid>audiopan</effectid>
							<effectcategory>audiopan</effectcategory>
							<effecttype>audiopan</effecttype>
							<mediatype>audio</mediatype>
							<parameter>
								<name>Pan</name>
								<parameterid>pan</parameterid>
								<valuemin>-1</valuemin>
								<valuemax>1</valuemax>
								<value>1</value>
							</parameter>
						</effect>
					</filter>
					<sourcetrack>
						<mediatype>audio</mediatype>
						<trackindex>2</trackindex>
					</sourcetrack>
					<link>
						<linkclipref>MVI_1193 5</linkclipref>
						<mediatype>video</mediatype>
						<trackindex>1</trackindex>
						<clipindex>3</clipindex>
					</link>
					<link>
						<linkclipref>MVI_1193 6</linkclipref>
						<mediatype>audio</mediatype>
						<trackindex>1</trackindex>
						<clipindex>3</clipindex>
						<groupindex>1</groupindex>
					</link>
					<link>
						<linkclipref>MVI_1193 7</linkclipref>
						<mediatype>audio</mediatype>
						<trackindex>2</trackindex>
						<clipindex>3</clipindex>
						<groupindex>1</groupindex>
					</link>
					<itemhistory>
						<uuid>C40CE33B-9D1B-4969-A335-DD48C3A390F2</uuid>
						<uuid>061C3487-FAB8-4B42-89D6-27A896AA46F1</uuid>
					</itemhistory>
				</clipitem>
				<clipitem id="MVI_1193 10">
					<name>MVI_1193</name>
					<duration>14119</duration>
					<rate>
						<ntsc>TRUE</ntsc>
						<timebase>24</timebase>
					</rate>
					<in>7020</in>
					<out>14119</out>
					<start>21118</start>
					<end>28217</end>
					<masterclipid>MVI_1193 1</masterclipid>
					<logginginfo>
						<scene/>
						<shottake/>
						<lognote/>
						<good>FALSE</good>
					</logginginfo>
					<labels>
						<label2/>
					</labels>
					<comments>
						<mastercomment1/>
						<mastercomment2/>
						<mastercomment3/>
						<mastercomment4/>
					</comments>
					<file id="MVI_1193 2"/>
					<marker>
						<name>Marker 1</name>
						<comment>reminds me of ancient greek tomes euclid's elements,&#13;story,&#13;book,&#13;teaching,&#13;logic,&#13;cosmogeny,&#13;wisdom,&#13;motion,&#13;song: fourtet peace on earth,&#13;</comment>
						<color>
							<alpha>0</alpha>
							<red>255</red>
							<green>0</green>
							<blue>0</blue>
						</color>
						<in>893</in>
						<out>2883</out>
					</marker>
					<marker>
						<name>Games</name>
						<comment>How does gaming influence your work?,&#13;games,&#13;simulation, &#13;emergence,&#13;complexity,</comment>
						<color>
							<alpha>0</alpha>
							<red>255</red>
							<green>0</green>
							<blue>0</blue>
						</color>
						<in>3697</in>
						<out>4378</out>
					</marker>
					<marker>
						<name>building a universe</name>
						<comment>cosmogeny,&#13;nature,&#13;simulation,&#13;god,&#13;</comment>
						<color>
							<alpha>0</alpha>
							<red>255</red>
							<green>0</green>
							<blue>0</blue>
						</color>
						<in>4957</in>
						<out>5154</out>
					</marker>
					<marker>
						<name>programming the universe</name>
						<comment>cosmogeny,&#13;nature,&#13;simulation,&#13;god,&#13;</comment>
						<color>
							<alpha>0</alpha>
							<red>255</red>
							<green>0</green>
							<blue>0</blue>
						</color>
						<in>5429</in>
						<out>5878</out>
					</marker>
					<marker>
						<name>how far could we get?</name>
						<comment>cosmogeny,&#13;nature,&#13;simulation,&#13;algorithm,&#13;phenomena,&#13;systems&#13;</comment>
						<color>
							<alpha>0</alpha>
							<red>255</red>
							<green>0</green>
							<blue>0</blue>
						</color>
						<in>6392</in>
						<out>7059</out>
					</marker>
					<marker>
						<name>million monkeys</name>
						<comment>do you believe it's possible to build the universe inside a computer?,&#13;infinity,&#13;chance,&#13;possibility,&#13;complexity,&#13;philosophy,&#13;</comment>
						<color>
							<alpha>0</alpha>
							<red>255</red>
							<green>0</green>
							<blue>0</blue>
						</color>
						<in>7108</in>
						<out>7800</out>
					</marker>
					<marker>
						<name/>
						<comment>is there an absolute reality that can be understood mathematically?,&#13;math,&#13;algorithm,&#13;nature,</comment>
						<color>
							<alpha>0</alpha>
							<red>255</red>
							<green>0</green>
							<blue>0</blue>
						</color>
						<in>8679</in>
						<out>-1</out>
					</marker>
					<marker>
						<name>reality will only get you so far</name>
						<comment>reality,&#13;virtual,&#13;real meets virtual,&#13;digital meets physical,&#13;inexactitude,&#13;art versus engineering,&#13;simulation,</comment>
						<color>
							<alpha>0</alpha>
							<red>255</red>
							<green>0</green>
							<blue>0</blue>
						</color>
						<in>8981</in>
						<out>9223</out>
					</marker>
					<marker>
						<name>Constraints,</name>
						<comment>real and virtual,&#13;simulation,&#13;physics,&#13;nature,&#13;parameters,&#13;constraints,&#13;code is messy,&#13;</comment>
						<color>
							<alpha>0</alpha>
							<red>255</red>
							<green>0</green>
							<blue>0</blue>
						</color>
						<in>9521</in>
						<out>10658</out>
					</marker>
					<marker>
						<name>make it random</name>
						<comment>what's the importance of randomness and probabilty?,&#13;randomness,&#13;processing,&#13;creative process,&#13;</comment>
						<color>
							<alpha>0</alpha>
							<red>255</red>
							<green>0</green>
							<blue>0</blue>
						</color>
						<in>11126</in>
						<out>11636</out>
					</marker>
					<marker>
						<name>randomness can be not very thoughtful</name>
						<comment>randomness,&#13;critique,&#13;&#13;</comment>
						<color>
							<alpha>0</alpha>
							<red>255</red>
							<green>0</green>
							<blue>0</blue>
						</color>
						<in>11815</in>
						<out>12179</out>
					</marker>
					<marker>
						<name>mutation</name>
						<comment>randomness,&#13;evolution, &#13;simulation,&#13;</comment>
						<color>
							<alpha>0</alpha>
							<red>255</red>
							<green>0</green>
							<blue>0</blue>
						</color>
						<in>13547</in>
						<out>13966</out>
					</marker>
					<filter>
						<effect>
							<name>Audio Levels</name>
							<effectid>audiolevels</effectid>
							<effectcategory>audiolevels</effectcategory>
							<effecttype>audiolevels</effecttype>
							<mediatype>audio</mediatype>
							<parameter>
								<name>Level</name>
								<parameterid>level</parameterid>
								<valuemin>0</valuemin>
								<valuemax>3.98109</valuemax>
								<value>1</value>
							</parameter>
						</effect>
					</filter>
					<filter>
						<effect>
							<name>Audio Pan</name>
							<effectid>audiopan</effectid>
							<effectcategory>audiopan</effectcategory>
							<effecttype>audiopan</effecttype>
							<mediatype>audio</mediatype>
							<parameter>
								<name>Pan</name>
								<parameterid>pan</parameterid>
								<valuemin>-1</valuemin>
								<valuemax>1</valuemax>
								<value>1</value>
							</parameter>
						</effect>
					</filter>
					<sourcetrack>
						<mediatype>audio</mediatype>
						<trackindex>2</trackindex>
					</sourcetrack>
					<link>
						<linkclipref>MVI_1193 8</linkclipref>
						<mediatype>video</mediatype>
						<trackindex>1</trackindex>
						<clipindex>4</clipindex>
					</link>
					<link>
						<linkclipref>MVI_1193 9</linkclipref>
						<mediatype>audio</mediatype>
						<trackindex>1</trackindex>
						<clipindex>4</clipindex>
						<groupindex>1</groupindex>
					</link>
					<link>
						<linkclipref>MVI_1193 10</linkclipref>
						<mediatype>audio</mediatype>
						<trackindex>2</trackindex>
						<clipindex>4</clipindex>
						<groupindex>1</groupindex>
					</link>
					<itemhistory>
						<uuid>B7A74569-B220-4E86-BC32-27E51AD250CE</uuid>
						<uuid>061C3487-FAB8-4B42-89D6-27A896AA46F1</uuid>
					</itemhistory>
				</clipitem>
				<clipitem id="MVI_1194 4">
					<name>MVI_1194</name>
					<duration>12544</duration>
					<rate>
						<ntsc>TRUE</ntsc>
						<timebase>24</timebase>
					</rate>
					<in>0</in>
					<out>12544</out>
					<start>28217</start>
					<end>40761</end>
					<masterclipid>MVI_1194 1</masterclipid>
					<logginginfo>
						<scene/>
						<shottake/>
						<lognote/>
						<good>FALSE</good>
					</logginginfo>
					<labels>
						<label2/>
					</labels>
					<comments>
						<mastercomment1/>
						<mastercomment2/>
						<mastercomment3/>
						<mastercomment4/>
					</comments>
					<file id="MVI_1194 2"/>
					<marker>
						<name>genetics short 1</name>
						<comment>evolution,&#13;genetics,&#13;algorithm,&#13;time saving,&#13;efficiency,</comment>
						<color>
							<alpha>0</alpha>
							<red>255</red>
							<green>0</green>
							<blue>0</blue>
						</color>
						<in>9154</in>
						<out>9943</out>
					</marker>
					<marker>
						<name>genetics short 2</name>
						<comment>evolution,&#13;genetics,&#13;algorithm,&#13;time saving,&#13;biology, &#13;artificial life,&#13;sex,</comment>
						<color>
							<alpha>0</alpha>
							<red>255</red>
							<green>0</green>
							<blue>0</blue>
						</color>
						<in>11598</in>
						<out>11940</out>
					</marker>
					<filter>
						<effect>
							<name>Audio Levels</name>
							<effectid>audiolevels</effectid>
							<effectcategory>audiolevels</effectcategory>
							<effecttype>audiolevels</effecttype>
							<mediatype>audio</mediatype>
							<parameter>
								<name>Level</name>
								<parameterid>level</parameterid>
								<valuemin>0</valuemin>
								<valuemax>3.98109</valuemax>
								<value>1</value>
							</parameter>
						</effect>
					</filter>
					<filter>
						<effect>
							<name>Audio Pan</name>
							<effectid>audiopan</effectid>
							<effectcategory>audiopan</effectcategory>
							<effecttype>audiopan</effecttype>
							<mediatype>audio</mediatype>
							<parameter>
								<name>Pan</name>
								<parameterid>pan</parameterid>
								<valuemin>-1</valuemin>
								<valuemax>1</valuemax>
								<value>1</value>
							</parameter>
						</effect>
					</filter>
					<sourcetrack>
						<mediatype>audio</mediatype>
						<trackindex>2</trackindex>
					</sourcetrack>
					<link>
						<linkclipref>MVI_1194 </linkclipref>
						<mediatype>video</mediatype>
						<trackindex>1</trackindex>
						<clipindex>5</clipindex>
					</link>
					<link>
						<linkclipref>MVI_1194 3</linkclipref>
						<mediatype>audio</mediatype>
						<trackindex>1</trackindex>
						<clipindex>5</clipindex>
						<groupindex>1</groupindex>
					</link>
					<link>
						<linkclipref>MVI_1194 4</linkclipref>
						<mediatype>audio</mediatype>
						<trackindex>2</trackindex>
						<clipindex>5</clipindex>
						<groupindex>1</groupindex>
					</link>
					<itemhistory>
						<uuid>3E1AAC1D-97B4-44B3-9DDD-0CD7D143E987</uuid>
					</itemhistory>
				</clipitem>
				<clipitem id="MVI_1195 4">
					<name>MVI_1195</name>
					<duration>18563</duration>
					<rate>
						<ntsc>TRUE</ntsc>
						<timebase>24</timebase>
					</rate>
					<in>0</in>
					<out>10244</out>
					<start>40761</start>
					<end>51005</end>
					<masterclipid>MVI_1195 1</masterclipid>
					<logginginfo>
						<scene/>
						<shottake/>
						<lognote/>
						<good>FALSE</good>
					</logginginfo>
					<labels>
						<label2/>
					</labels>
					<comments>
						<mastercomment1/>
						<mastercomment2/>
						<mastercomment3/>
						<mastercomment4/>
					</comments>
					<file id="MVI_1195 2"/>
					<marker>
						<name>Carl Sims</name>
						<comment>Carl Sims,&#13;Galapagos,&#13;evolution,&#13;genetics,&#13;aesthetics,&#13;beauty,&#13;Link:Marius - artificial life,&#13;coding aesthetics,&#13;</comment>
						<color>
							<alpha>0</alpha>
							<red>255</red>
							<green>0</green>
							<blue>0</blue>
						</color>
						<in>468</in>
						<out>1746</out>
					</marker>
					<marker>
						<name>evolution </name>
						<comment>evolution,&#13;artificial life,&#13;</comment>
						<color>
							<alpha>0</alpha>
							<red>255</red>
							<green>0</green>
							<blue>0</blue>
						</color>
						<in>2378</in>
						<out>2778</out>
					</marker>
					<marker>
						<name>Marker 4</name>
						<comment>processing,&#13;accessibility,&#13;learning,&#13;education&#13;</comment>
						<color>
							<alpha>0</alpha>
							<red>255</red>
							<green>0</green>
							<blue>0</blue>
						</color>
						<in>8187</in>
						<out>8848</out>
					</marker>
					<marker>
						<name>sharing</name>
						<comment>open source,&#13;sharing,&#13;education,&#13;community,</comment>
						<color>
							<alpha>0</alpha>
							<red>255</red>
							<green>0</green>
							<blue>0</blue>
						</color>
						<in>10251</in>
						<out>10879</out>
					</marker>
					<marker>
						<name>Open Source Contract</name>
						<comment>Open source,&#13;value,&#13;education,&#13;sharing,&#13;</comment>
						<color>
							<alpha>0</alpha>
							<red>255</red>
							<green>0</green>
							<blue>0</blue>
						</color>
						<in>12550</in>
						<out>12791</out>
					</marker>
					<marker>
						<name>problem solving</name>
						<comment>community,&#13;problem solving,&#13;open source,&#13;education,</comment>
						<color>
							<alpha>0</alpha>
							<red>255</red>
							<green>0</green>
							<blue>0</blue>
						</color>
						<in>13748</in>
						<out>14019</out>
					</marker>
					<marker>
						<name>Desire for order</name>
						<comment>what do you find beautiful about code?,&#13;beauty of code,&#13;logic,&#13;OCD,&#13;syntax,</comment>
						<color>
							<alpha>0</alpha>
							<red>255</red>
							<green>0</green>
							<blue>0</blue>
						</color>
						<in>15555</in>
						<out>16917</out>
					</marker>
					<marker>
						<name>what do you archive?</name>
						<comment>archive,&#13;preservation,&#13;history,&#13;new media old media,</comment>
						<color>
							<alpha>0</alpha>
							<red>255</red>
							<green>0</green>
							<blue>0</blue>
						</color>
						<in>17274</in>
						<out>17751</out>
					</marker>
					<filter>
						<effect>
							<name>Audio Levels</name>
							<effectid>audiolevels</effectid>
							<effectcategory>audiolevels</effectcategory>
							<effecttype>audiolevels</effecttype>
							<mediatype>audio</mediatype>
							<parameter>
								<name>Level</name>
								<parameterid>level</parameterid>
								<valuemin>0</valuemin>
								<valuemax>3.98109</valuemax>
								<value>1</value>
							</parameter>
						</effect>
					</filter>
					<filter>
						<effect>
							<name>Audio Pan</name>
							<effectid>audiopan</effectid>
							<effectcategory>audiopan</effectcategory>
							<effecttype>audiopan</effecttype>
							<mediatype>audio</mediatype>
							<parameter>
								<name>Pan</name>
								<parameterid>pan</parameterid>
								<valuemin>-1</valuemin>
								<valuemax>1</valuemax>
								<value>1</value>
							</parameter>
						</effect>
					</filter>
					<sourcetrack>
						<mediatype>audio</mediatype>
						<trackindex>2</trackindex>
					</sourcetrack>
					<link>
						<linkclipref>MVI_1195 </linkclipref>
						<mediatype>video</mediatype>
						<trackindex>1</trackindex>
						<clipindex>6</clipindex>
					</link>
					<link>
						<linkclipref>MVI_1195 3</linkclipref>
						<mediatype>audio</mediatype>
						<trackindex>1</trackindex>
						<clipindex>6</clipindex>
						<groupindex>1</groupindex>
					</link>
					<link>
						<linkclipref>MVI_1195 4</linkclipref>
						<mediatype>audio</mediatype>
						<trackindex>2</trackindex>
						<clipindex>6</clipindex>
						<groupindex>1</groupindex>
					</link>
					<itemhistory>
						<uuid>8480860D-A0C7-4C8B-A02B-2E36D8A75044</uuid>
						<uuid>6F1C18DE-6288-4009-A8E8-5AD34321EF31</uuid>
					</itemhistory>
				</clipitem>
				<clipitem id="MVI_1195 7">
					<name>MVI_1195</name>
					<duration>18563</duration>
					<rate>
						<ntsc>TRUE</ntsc>
						<timebase>24</timebase>
					</rate>
					<in>10244</in>
					<out>10886</out>
					<start>51005</start>
					<end>51647</end>
					<masterclipid>MVI_1195 1</masterclipid>
					<logginginfo>
						<scene/>
						<shottake/>
						<lognote/>
						<good>FALSE</good>
					</logginginfo>
					<labels>
						<label2/>
					</labels>
					<comments>
						<mastercomment1/>
						<mastercomment2/>
						<mastercomment3/>
						<mastercomment4/>
					</comments>
					<file id="MVI_1195 2"/>
					<marker>
						<name>Carl Sims</name>
						<comment>Carl Sims,&#13;Galapagos,&#13;evolution,&#13;genetics,&#13;aesthetics,&#13;beauty,&#13;Link:Marius - artificial life,&#13;coding aesthetics,&#13;</comment>
						<color>
							<alpha>0</alpha>
							<red>255</red>
							<green>0</green>
							<blue>0</blue>
						</color>
						<in>468</in>
						<out>1746</out>
					</marker>
					<marker>
						<name>evolution </name>
						<comment>evolution,&#13;artificial life,&#13;</comment>
						<color>
							<alpha>0</alpha>
							<red>255</red>
							<green>0</green>
							<blue>0</blue>
						</color>
						<in>2378</in>
						<out>2778</out>
					</marker>
					<marker>
						<name>Marker 4</name>
						<comment>processing,&#13;accessibility,&#13;learning,&#13;education&#13;</comment>
						<color>
							<alpha>0</alpha>
							<red>255</red>
							<green>0</green>
							<blue>0</blue>
						</color>
						<in>8187</in>
						<out>8848</out>
					</marker>
					<marker>
						<name>sharing</name>
						<comment>open source,&#13;sharing,&#13;education,&#13;community,</comment>
						<color>
							<alpha>0</alpha>
							<red>255</red>
							<green>0</green>
							<blue>0</blue>
						</color>
						<in>10251</in>
						<out>10879</out>
					</marker>
					<marker>
						<name>Open Source Contract</name>
						<comment>Open source,&#13;value,&#13;education,&#13;sharing,&#13;</comment>
						<color>
							<alpha>0</alpha>
							<red>255</red>
							<green>0</green>
							<blue>0</blue>
						</color>
						<in>12550</in>
						<out>12791</out>
					</marker>
					<marker>
						<name>problem solving</name>
						<comment>community,&#13;problem solving,&#13;open source,&#13;education,</comment>
						<color>
							<alpha>0</alpha>
							<red>255</red>
							<green>0</green>
							<blue>0</blue>
						</color>
						<in>13748</in>
						<out>14019</out>
					</marker>
					<marker>
						<name>Desire for order</name>
						<comment>what do you find beautiful about code?,&#13;beauty of code,&#13;logic,&#13;OCD,&#13;syntax,</comment>
						<color>
							<alpha>0</alpha>
							<red>255</red>
							<green>0</green>
							<blue>0</blue>
						</color>
						<in>15555</in>
						<out>16917</out>
					</marker>
					<marker>
						<name>what do you archive?</name>
						<comment>archive,&#13;preservation,&#13;history,&#13;new media old media,</comment>
						<color>
							<alpha>0</alpha>
							<red>255</red>
							<green>0</green>
							<blue>0</blue>
						</color>
						<in>17274</in>
						<out>17751</out>
					</marker>
					<filter>
						<effect>
							<name>Audio Levels</name>
							<effectid>audiolevels</effectid>
							<effectcategory>audiolevels</effectcategory>
							<effecttype>audiolevels</effecttype>
							<mediatype>audio</mediatype>
							<parameter>
								<name>Level</name>
								<parameterid>level</parameterid>
								<valuemin>0</valuemin>
								<valuemax>3.98109</valuemax>
								<value>1</value>
							</parameter>
						</effect>
					</filter>
					<filter>
						<effect>
							<name>Audio Pan</name>
							<effectid>audiopan</effectid>
							<effectcategory>audiopan</effectcategory>
							<effecttype>audiopan</effecttype>
							<mediatype>audio</mediatype>
							<parameter>
								<name>Pan</name>
								<parameterid>pan</parameterid>
								<valuemin>-1</valuemin>
								<valuemax>1</valuemax>
								<value>1</value>
							</parameter>
						</effect>
					</filter>
					<sourcetrack>
						<mediatype>audio</mediatype>
						<trackindex>2</trackindex>
					</sourcetrack>
					<link>
						<linkclipref>MVI_1195 5</linkclipref>
						<mediatype>video</mediatype>
						<trackindex>1</trackindex>
						<clipindex>7</clipindex>
					</link>
					<link>
						<linkclipref>MVI_1195 6</linkclipref>
						<mediatype>audio</mediatype>
						<trackindex>1</trackindex>
						<clipindex>7</clipindex>
						<groupindex>1</groupindex>
					</link>
					<link>
						<linkclipref>MVI_1195 7</linkclipref>
						<mediatype>audio</mediatype>
						<trackindex>2</trackindex>
						<clipindex>7</clipindex>
						<groupindex>1</groupindex>
					</link>
					<itemhistory>
						<uuid>DB87867A-40AC-4D18-B91D-4072ED6FDFD0</uuid>
						<uuid>6F1C18DE-6288-4009-A8E8-5AD34321EF31</uuid>
					</itemhistory>
				</clipitem>
				<clipitem id="MVI_1195 10">
					<name>MVI_1195</name>
					<duration>18563</duration>
					<rate>
						<ntsc>TRUE</ntsc>
						<timebase>24</timebase>
					</rate>
					<in>10886</in>
					<out>18563</out>
					<start>51647</start>
					<end>59324</end>
					<masterclipid>MVI_1195 1</masterclipid>
					<logginginfo>
						<scene/>
						<shottake/>
						<lognote/>
						<good>FALSE</good>
					</logginginfo>
					<labels>
						<label2/>
					</labels>
					<comments>
						<mastercomment1/>
						<mastercomment2/>
						<mastercomment3/>
						<mastercomment4/>
					</comments>
					<file id="MVI_1195 2"/>
					<marker>
						<name>Carl Sims</name>
						<comment>Carl Sims,&#13;Galapagos,&#13;evolution,&#13;genetics,&#13;aesthetics,&#13;beauty,&#13;Link:Marius - artificial life,&#13;coding aesthetics,&#13;</comment>
						<color>
							<alpha>0</alpha>
							<red>255</red>
							<green>0</green>
							<blue>0</blue>
						</color>
						<in>468</in>
						<out>1746</out>
					</marker>
					<marker>
						<name>evolution </name>
						<comment>evolution,&#13;artificial life,&#13;</comment>
						<color>
							<alpha>0</alpha>
							<red>255</red>
							<green>0</green>
							<blue>0</blue>
						</color>
						<in>2378</in>
						<out>2778</out>
					</marker>
					<marker>
						<name>Marker 4</name>
						<comment>processing,&#13;accessibility,&#13;learning,&#13;education&#13;</comment>
						<color>
							<alpha>0</alpha>
							<red>255</red>
							<green>0</green>
							<blue>0</blue>
						</color>
						<in>8187</in>
						<out>8848</out>
					</marker>
					<marker>
						<name>sharing</name>
						<comment>open source,&#13;sharing,&#13;education,&#13;community,</comment>
						<color>
							<alpha>0</alpha>
							<red>255</red>
							<green>0</green>
							<blue>0</blue>
						</color>
						<in>10251</in>
						<out>10879</out>
					</marker>
					<marker>
						<name>Open Source Contract</name>
						<comment>Open source,&#13;value,&#13;education,&#13;sharing,&#13;</comment>
						<color>
							<alpha>0</alpha>
							<red>255</red>
							<green>0</green>
							<blue>0</blue>
						</color>
						<in>12550</in>
						<out>12791</out>
					</marker>
					<marker>
						<name>problem solving</name>
						<comment>community,&#13;problem solving,&#13;open source,&#13;education,</comment>
						<color>
							<alpha>0</alpha>
							<red>255</red>
							<green>0</green>
							<blue>0</blue>
						</color>
						<in>13748</in>
						<out>14019</out>
					</marker>
					<marker>
						<name>Desire for order</name>
						<comment>what do you find beautiful about code?,&#13;beauty of code,&#13;logic,&#13;OCD,&#13;syntax,</comment>
						<color>
							<alpha>0</alpha>
							<red>255</red>
							<green>0</green>
							<blue>0</blue>
						</color>
						<in>15555</in>
						<out>16917</out>
					</marker>
					<marker>
						<name>what do you archive?</name>
						<comment>archive,&#13;preservation,&#13;history,&#13;new media old media,</comment>
						<color>
							<alpha>0</alpha>
							<red>255</red>
							<green>0</green>
							<blue>0</blue>
						</color>
						<in>17274</in>
						<out>17751</out>
					</marker>
					<filter>
						<effect>
							<name>Audio Levels</name>
							<effectid>audiolevels</effectid>
							<effectcategory>audiolevels</effectcategory>
							<effecttype>audiolevels</effecttype>
							<mediatype>audio</mediatype>
							<parameter>
								<name>Level</name>
								<parameterid>level</parameterid>
								<valuemin>0</valuemin>
								<valuemax>3.98109</valuemax>
								<value>1</value>
							</parameter>
						</effect>
					</filter>
					<filter>
						<effect>
							<name>Audio Pan</name>
							<effectid>audiopan</effectid>
							<effectcategory>audiopan</effectcategory>
							<effecttype>audiopan</effecttype>
							<mediatype>audio</mediatype>
							<parameter>
								<name>Pan</name>
								<parameterid>pan</parameterid>
								<valuemin>-1</valuemin>
								<valuemax>1</valuemax>
								<value>1</value>
							</parameter>
						</effect>
					</filter>
					<sourcetrack>
						<mediatype>audio</mediatype>
						<trackindex>2</trackindex>
					</sourcetrack>
					<link>
						<linkclipref>MVI_1195 8</linkclipref>
						<mediatype>video</mediatype>
						<trackindex>1</trackindex>
						<clipindex>8</clipindex>
					</link>
					<link>
						<linkclipref>MVI_1195 9</linkclipref>
						<mediatype>audio</mediatype>
						<trackindex>1</trackindex>
						<clipindex>8</clipindex>
						<groupindex>1</groupindex>
					</link>
					<link>
						<linkclipref>MVI_1195 10</linkclipref>
						<mediatype>audio</mediatype>
						<trackindex>2</trackindex>
						<clipindex>8</clipindex>
						<groupindex>1</groupindex>
					</link>
					<itemhistory>
						<uuid>C0BF321F-BC67-4C6A-AE07-C7A9EAFD96EB</uuid>
						<uuid>6F1C18DE-6288-4009-A8E8-5AD34321EF31</uuid>
					</itemhistory>
				</clipitem>
				<enabled>TRUE</enabled>
				<locked>FALSE</locked>
				<outputchannelindex>2</outputchannelindex>
			</track>
			<track>
				<enabled>TRUE</enabled>
				<locked>FALSE</locked>
				<outputchannelindex>1</outputchannelindex>
			</track>
			<track>
				<enabled>TRUE</enabled>
				<locked>FALSE</locked>
				<outputchannelindex>2</outputchannelindex>
			</track>
			<filter>
				<effect>
					<name>Audio Levels</name>
					<effectid>audiolevels</effectid>
					<effectcategory>audiolevels</effectcategory>
					<effecttype>audiolevels</effecttype>
					<mediatype>audio</mediatype>
					<parameter>
						<name>Level</name>
						<parameterid>level</parameterid>
						<valuemin>0</valuemin>
						<valuemax>3.98109</valuemax>
						<value>1</value>
					</parameter>
				</effect>
			</filter>
		</audio>
	</media>
	<ismasterclip>FALSE</ismasterclip>
</sequence>
<sequence id="Sophy">
	<uuid>90E93AB6-853D-4550-963A-62C5E7D5AAB7</uuid>
	<updatebehavior>add</updatebehavior>
	<name>Sophy</name>
	<duration>64984</duration>
	<rate>
		<ntsc>TRUE</ntsc>
		<timebase>24</timebase>
	</rate>
	<timecode>
		<rate>
			<ntsc>TRUE</ntsc>
			<timebase>24</timebase>
		</rate>
		<string>00:00:00:00</string>
		<frame>0</frame>
		<source>source</source>
		<displayformat>NDF</displayformat>
	</timecode>
	<in>-1</in>
	<out>-1</out>
	<media>
		<video>
			<format>
				<samplecharacteristics>
					<width>1920</width>
					<height>1080</height>
					<anamorphic>FALSE</anamorphic>
					<pixelaspectratio>Square</pixelaspectratio>
					<fielddominance>none</fielddominance>
					<rate>
						<ntsc>TRUE</ntsc>
						<timebase>24</timebase>
					</rate>
					<colordepth>24</colordepth>
					<codec>
						<name>Apple ProRes 422</name>
						<appspecificdata>
							<appname>Final Cut Pro</appname>
							<appmanufacturer>Apple Inc.</appmanufacturer>
							<appversion>7.0</appversion>
							<data>
								<qtcodec>
									<codecname>Apple ProRes 422</codecname>
									<codectypename>Apple ProRes 422</codectypename>
									<codectypecode>apcn</codectypecode>
									<codecvendorcode>appl</codecvendorcode>
									<spatialquality>1024</spatialquality>
									<temporalquality>0</temporalquality>
									<keyframerate>0</keyframerate>
									<datarate>0</datarate>
								</qtcodec>
							</data>
						</appspecificdata>
					</codec>
				</samplecharacteristics>
				<appspecificdata>
					<appname>Final Cut Pro</appname>
					<appmanufacturer>Apple Inc.</appmanufacturer>
					<appversion>7.0</appversion>
					<data>
						<fcpimageprocessing>
							<useyuv>TRUE</useyuv>
							<usesuperwhite>FALSE</usesuperwhite>
							<rendermode>Float10BPP</rendermode>
						</fcpimageprocessing>
					</data>
				</appspecificdata>
			</format>
			<track>
				<clipitem id="MVI_1214 ">
					<name>MVI_1214</name>
					<duration>12991</duration>
					<rate>
						<ntsc>TRUE</ntsc>
						<timebase>24</timebase>
					</rate>
					<in>0</in>
					<out>12991</out>
					<start>0</start>
					<end>12991</end>
					<pixelaspectratio>Square</pixelaspectratio>
					<anamorphic>FALSE</anamorphic>
					<alphatype>none</alphatype>
					<masterclipid>MVI_1214 1</masterclipid>
					<logginginfo>
						<scene/>
						<shottake/>
						<lognote/>
						<good>FALSE</good>
					</logginginfo>
					<labels>
						<label2/>
					</labels>
					<comments>
						<mastercomment1/>
						<mastercomment2/>
						<mastercomment3/>
						<mastercomment4/>
					</comments>
					<file id="MVI_1214 2">
						<name>MVI_1214.mov</name>
						<pathurl>file://localhost/Volumes/Nebula/MediaPackages/ITPClouds/Sophy01/MVI_1214.mov</pathurl>
						<rate>
							<timebase>24</timebase>
							<ntsc>TRUE</ntsc>
						</rate>
						<duration>12991</duration>
						<media>
							<video>
								<duration>12991</duration>
								<samplecharacteristics>
									<width>1920</width>
									<height>1080</height>
								</samplecharacteristics>
							</video>
							<audio>
								<samplecharacteristics>
									<samplerate>48000</samplerate>
									<depth>16</depth>
								</samplecharacteristics>
								<channelcount>2</channelcount>
							</audio>
						</media>
					</file>
					<marker>
						<name>Marker 1</name>
						<comment/>
						<color>
							<alpha>0</alpha>
							<red>255</red>
							<green>0</green>
							<blue>0</blue>
						</color>
						<in>5485</in>
						<out>6275</out>
					</marker>
					<marker>
						<name>everyday media</name>
						<comment>everyday,experience,culture,media,art and experience</comment>
						<color>
							<alpha>0</alpha>
							<red>255</red>
							<green>0</green>
							<blue>0</blue>
						</color>
						<in>7493</in>
						<out>8455</out>
					</marker>
					<marker>
						<name>&lt;3</name>
						<comment>emotion,love,texting,everyday,&#13;Would you describe an emotional experience you've had through technology?,</comment>
						<color>
							<alpha>0</alpha>
							<red>255</red>
							<green>0</green>
							<blue>0</blue>
						</color>
						<in>9378</in>
						<out>10085</out>
					</marker>
					<sourcetrack>
						<mediatype>video</mediatype>
					</sourcetrack>
					<link>
						<linkclipref>MVI_1214 </linkclipref>
						<mediatype>video</mediatype>
						<trackindex>1</trackindex>
						<clipindex>1</clipindex>
					</link>
					<link>
						<linkclipref>MVI_1214 3</linkclipref>
						<mediatype>audio</mediatype>
						<trackindex>1</trackindex>
						<clipindex>1</clipindex>
						<groupindex>1</groupindex>
					</link>
					<link>
						<linkclipref>MVI_1214 4</linkclipref>
						<mediatype>audio</mediatype>
						<trackindex>2</trackindex>
						<clipindex>1</clipindex>
						<groupindex>1</groupindex>
					</link>
					<fielddominance>none</fielddominance>
					<itemhistory>
						<uuid>4A640E40-CEE2-40FC-BA08-780D8ED430B8</uuid>
					</itemhistory>
				</clipitem>
				<clipitem id="MVI_1215 ">
					<name>MVI_1215</name>
					<duration>17078</duration>
					<rate>
						<ntsc>TRUE</ntsc>
						<timebase>24</timebase>
					</rate>
					<in>0</in>
					<out>17078</out>
					<start>12991</start>
					<end>30069</end>
					<pixelaspectratio>Square</pixelaspectratio>
					<anamorphic>FALSE</anamorphic>
					<alphatype>none</alphatype>
					<masterclipid>MVI_1215 1</masterclipid>
					<logginginfo>
						<scene/>
						<shottake/>
						<lognote/>
						<good>FALSE</good>
					</logginginfo>
					<labels>
						<label2/>
					</labels>
					<comments>
						<mastercomment1/>
						<mastercomment2/>
						<mastercomment3/>
						<mastercomment4/>
					</comments>
					<file id="MVI_1215 2">
						<name>MVI_1215.mov</name>
						<pathurl>file://localhost/Volumes/Nebula/MediaPackages/ITPClouds/Sophy02/MVI_1215.mov</pathurl>
						<rate>
							<timebase>24</timebase>
							<ntsc>TRUE</ntsc>
						</rate>
						<duration>17078</duration>
						<media>
							<video>
								<duration>17078</duration>
								<samplecharacteristics>
									<width>1920</width>
									<height>1080</height>
								</samplecharacteristics>
							</video>
							<audio>
								<samplecharacteristics>
									<samplerate>48000</samplerate>
									<depth>16</depth>
								</samplecharacteristics>
								<channelcount>2</channelcount>
							</audio>
						</media>
					</file>
					<marker>
						<name>RainbowSpaceCats</name>
						<comment>weird</comment>
						<color>
							<alpha>0</alpha>
							<red>255</red>
							<green>0</green>
							<blue>0</blue>
						</color>
						<in>1654</in>
						<out>1819</out>
					</marker>
					<marker>
						<name>tumblr1</name>
						<comment>&#13;&#13;</comment>
						<color>
							<alpha>0</alpha>
							<red>255</red>
							<green>0</green>
							<blue>0</blue>
						</color>
						<in>3749</in>
						<out>4385</out>
					</marker>
					<marker>
						<name>tumblr2</name>
						<comment/>
						<color>
							<alpha>0</alpha>
							<red>255</red>
							<green>0</green>
							<blue>0</blue>
						</color>
						<in>5172</in>
						<out>5659</out>
					</marker>
					<marker>
						<name>avatar1</name>
						<comment>identity,time,subjectivity</comment>
						<color>
							<alpha>0</alpha>
							<red>255</red>
							<green>0</green>
							<blue>0</blue>
						</color>
						<in>9007</in>
						<out>9456</out>
					</marker>
					<marker>
						<name>avatar2</name>
						<comment/>
						<color>
							<alpha>0</alpha>
							<red>255</red>
							<green>0</green>
							<blue>0</blue>
						</color>
						<in>9557</in>
						<out>10155</out>
					</marker>
					<sourcetrack>
						<mediatype>video</mediatype>
					</sourcetrack>
					<link>
						<linkclipref>MVI_1215 </linkclipref>
						<mediatype>video</mediatype>
						<trackindex>1</trackindex>
						<clipindex>2</clipindex>
					</link>
					<link>
						<linkclipref>MVI_1215 3</linkclipref>
						<mediatype>audio</mediatype>
						<trackindex>1</trackindex>
						<clipindex>2</clipindex>
						<groupindex>1</groupindex>
					</link>
					<link>
						<linkclipref>MVI_1215 4</linkclipref>
						<mediatype>audio</mediatype>
						<trackindex>2</trackindex>
						<clipindex>2</clipindex>
						<groupindex>1</groupindex>
					</link>
					<fielddominance>none</fielddominance>
					<itemhistory>
						<uuid>4C1E2466-CEE5-4EC1-AFF4-69F60557E63F</uuid>
					</itemhistory>
				</clipitem>
				<clipitem id="MVI_1216 ">
					<name>MVI_1216</name>
					<duration>16867</duration>
					<rate>
						<ntsc>TRUE</ntsc>
						<timebase>24</timebase>
					</rate>
					<in>0</in>
					<out>16867</out>
					<start>30069</start>
					<end>46936</end>
					<pixelaspectratio>Square</pixelaspectratio>
					<anamorphic>FALSE</anamorphic>
					<alphatype>none</alphatype>
					<masterclipid>MVI_1216 1</masterclipid>
					<logginginfo>
						<scene/>
						<shottake/>
						<lognote/>
						<good>FALSE</good>
					</logginginfo>
					<labels>
						<label2/>
					</labels>
					<comments>
						<mastercomment1/>
						<mastercomment2/>
						<mastercomment3/>
						<mastercomment4/>
					</comments>
					<file id="MVI_1216 2">
						<name>MVI_1216.mov</name>
						<pathurl>file://localhost/Volumes/Nebula/MediaPackages/ITPClouds/Sophy03/MVI_1216.mov</pathurl>
						<rate>
							<timebase>24</timebase>
							<ntsc>TRUE</ntsc>
						</rate>
						<duration>16867</duration>
						<media>
							<video>
								<duration>16867</duration>
								<samplecharacteristics>
									<width>1920</width>
									<height>1080</height>
								</samplecharacteristics>
							</video>
							<audio>
								<samplecharacteristics>
									<samplerate>48000</samplerate>
									<depth>16</depth>
								</samplecharacteristics>
								<channelcount>2</channelcount>
							</audio>
						</media>
					</file>
					<marker>
						<name>nanobots</name>
						<comment>hallucination,imagination,hypothetical technology,dreams,nano</comment>
						<color>
							<alpha>0</alpha>
							<red>255</red>
							<green>0</green>
							<blue>0</blue>
						</color>
						<in>114</in>
						<out>619</out>
					</marker>
					<marker>
						<name>nonlinearity</name>
						<comment>narrative,future of cinema</comment>
						<color>
							<alpha>0</alpha>
							<red>255</red>
							<green>0</green>
							<blue>0</blue>
						</color>
						<in>3062</in>
						<out>3754</out>
					</marker>
					<marker>
						<name>computer dream</name>
						<comment>computer,dream</comment>
						<color>
							<alpha>0</alpha>
							<red>255</red>
							<green>0</green>
							<blue>0</blue>
						</color>
						<in>5181</in>
						<out>5774</out>
					</marker>
					<marker>
						<name>distributed culture</name>
						<comment>society,man versus machine,equality,culture</comment>
						<color>
							<alpha>0</alpha>
							<red>255</red>
							<green>0</green>
							<blue>0</blue>
						</color>
						<in>10572</in>
						<out>11780</out>
					</marker>
					<marker>
						<name>are we having fun?</name>
						<comment>control,existence,philsophy,world</comment>
						<color>
							<alpha>0</alpha>
							<red>255</red>
							<green>0</green>
							<blue>0</blue>
						</color>
						<in>12210</in>
						<out>12685</out>
					</marker>
					<sourcetrack>
						<mediatype>video</mediatype>
					</sourcetrack>
					<link>
						<linkclipref>MVI_1216 </linkclipref>
						<mediatype>video</mediatype>
						<trackindex>1</trackindex>
						<clipindex>3</clipindex>
					</link>
					<link>
						<linkclipref>MVI_1216 3</linkclipref>
						<mediatype>audio</mediatype>
						<trackindex>1</trackindex>
						<clipindex>3</clipindex>
						<groupindex>1</groupindex>
					</link>
					<link>
						<linkclipref>MVI_1216 4</linkclipref>
						<mediatype>audio</mediatype>
						<trackindex>2</trackindex>
						<clipindex>3</clipindex>
						<groupindex>1</groupindex>
					</link>
					<fielddominance>none</fielddominance>
					<itemhistory>
						<uuid>FACEDB9A-4A97-4870-88AF-AFDBB2CD7ACB</uuid>
					</itemhistory>
				</clipitem>
				<clipitem id="MVI_1219 ">
					<name>MVI_1219</name>
					<duration>18048</duration>
					<rate>
						<ntsc>TRUE</ntsc>
						<timebase>24</timebase>
					</rate>
					<in>0</in>
					<out>6806</out>
					<start>46936</start>
					<end>53742</end>
					<pixelaspectratio>Square</pixelaspectratio>
					<anamorphic>FALSE</anamorphic>
					<alphatype>none</alphatype>
					<masterclipid>MVI_1219 1</masterclipid>
					<logginginfo>
						<scene/>
						<shottake/>
						<lognote/>
						<good>FALSE</good>
					</logginginfo>
					<labels>
						<label2/>
					</labels>
					<comments>
						<mastercomment1/>
						<mastercomment2/>
						<mastercomment3/>
						<mastercomment4/>
					</comments>
					<file id="MVI_1219 2">
						<name>MVI_1219.mov</name>
						<pathurl>file://localhost/Volumes/Nebula/MediaPackages/ITPClouds/Sophy05/MVI_1219.mov</pathurl>
						<rate>
							<timebase>24</timebase>
							<ntsc>TRUE</ntsc>
						</rate>
						<duration>18048</duration>
						<media>
							<video>
								<duration>18048</duration>
								<samplecharacteristics>
									<width>1920</width>
									<height>1080</height>
								</samplecharacteristics>
							</video>
							<audio>
								<samplecharacteristics>
									<samplerate>48000</samplerate>
									<depth>16</depth>
								</samplecharacteristics>
								<channelcount>2</channelcount>
							</audio>
						</media>
					</file>
					<marker>
						<name>Strange cultures</name>
						<comment>culture,subculture,internet,language</comment>
						<color>
							<alpha>0</alpha>
							<red>255</red>
							<green>0</green>
							<blue>0</blue>
						</color>
						<in>5150</in>
						<out>6238</out>
					</marker>
					<marker>
						<name>the Cloud</name>
						<comment>the Cloud,alone together,noosphere,internet, network&#13;</comment>
						<color>
							<alpha>0</alpha>
							<red>255</red>
							<green>0</green>
							<blue>0</blue>
						</color>
						<in>6806</in>
						<out>7876</out>
					</marker>
					<marker>
						<name>Evolution</name>
						<comment>evolution,universe,nature</comment>
						<color>
							<alpha>0</alpha>
							<red>255</red>
							<green>0</green>
							<blue>0</blue>
						</color>
						<in>8289</in>
						<out>8783</out>
					</marker>
					<marker>
						<name>made of photons</name>
						<comment>reality,perception,realness,vision,visual thinking,physics</comment>
						<color>
							<alpha>0</alpha>
							<red>255</red>
							<green>0</green>
							<blue>0</blue>
						</color>
						<in>12961</in>
						<out>13436</out>
					</marker>
					<marker>
						<name>city</name>
						<comment>open paths,gps,city, society,network, internet&#13;</comment>
						<color>
							<alpha>0</alpha>
							<red>255</red>
							<green>0</green>
							<blue>0</blue>
						</color>
						<in>15281</in>
						<out>16589</out>
					</marker>
					<sourcetrack>
						<mediatype>video</mediatype>
					</sourcetrack>
					<link>
						<linkclipref>MVI_1219 </linkclipref>
						<mediatype>video</mediatype>
						<trackindex>1</trackindex>
						<clipindex>4</clipindex>
					</link>
					<link>
						<linkclipref>MVI_1219 3</linkclipref>
						<mediatype>audio</mediatype>
						<trackindex>1</trackindex>
						<clipindex>4</clipindex>
						<groupindex>1</groupindex>
					</link>
					<link>
						<linkclipref>MVI_1219 4</linkclipref>
						<mediatype>audio</mediatype>
						<trackindex>2</trackindex>
						<clipindex>4</clipindex>
						<groupindex>1</groupindex>
					</link>
					<fielddominance>none</fielddominance>
					<itemhistory>
						<uuid>46FFAB29-C559-497C-B5EB-4A0EE90EC391</uuid>
						<uuid>EC6AE249-7A16-49F1-8ECD-383CFBD7ED78</uuid>
					</itemhistory>
				</clipitem>
				<clipitem id="MVI_1219 5">
					<name>MVI_1219</name>
					<duration>18048</duration>
					<rate>
						<ntsc>TRUE</ntsc>
						<timebase>24</timebase>
					</rate>
					<in>6806</in>
					<out>7421</out>
					<start>53742</start>
					<end>54357</end>
					<pixelaspectratio>Square</pixelaspectratio>
					<anamorphic>FALSE</anamorphic>
					<alphatype>none</alphatype>
					<masterclipid>MVI_1219 1</masterclipid>
					<logginginfo>
						<scene/>
						<shottake/>
						<lognote/>
						<good>FALSE</good>
					</logginginfo>
					<labels>
						<label2/>
					</labels>
					<comments>
						<mastercomment1/>
						<mastercomment2/>
						<mastercomment3/>
						<mastercomment4/>
					</comments>
					<file id="MVI_1219 2"/>
					<marker>
						<name>Strange cultures</name>
						<comment>culture,subculture,internet,language</comment>
						<color>
							<alpha>0</alpha>
							<red>255</red>
							<green>0</green>
							<blue>0</blue>
						</color>
						<in>5150</in>
						<out>6238</out>
					</marker>
					<marker>
						<name>the Cloud</name>
						<comment>the Cloud,alone together,noosphere,internet, network&#13;</comment>
						<color>
							<alpha>0</alpha>
							<red>255</red>
							<green>0</green>
							<blue>0</blue>
						</color>
						<in>6806</in>
						<out>7876</out>
					</marker>
					<marker>
						<name>Evolution</name>
						<comment>evolution,universe,nature</comment>
						<color>
							<alpha>0</alpha>
							<red>255</red>
							<green>0</green>
							<blue>0</blue>
						</color>
						<in>8289</in>
						<out>8783</out>
					</marker>
					<marker>
						<name>made of photons</name>
						<comment>reality,perception,realness,vision,visual thinking,physics</comment>
						<color>
							<alpha>0</alpha>
							<red>255</red>
							<green>0</green>
							<blue>0</blue>
						</color>
						<in>12961</in>
						<out>13436</out>
					</marker>
					<marker>
						<name>city</name>
						<comment>open paths,gps,city, society,network, internet&#13;</comment>
						<color>
							<alpha>0</alpha>
							<red>255</red>
							<green>0</green>
							<blue>0</blue>
						</color>
						<in>15281</in>
						<out>16589</out>
					</marker>
					<sourcetrack>
						<mediatype>video</mediatype>
					</sourcetrack>
					<fielddominance>none</fielddominance>
					<itemhistory>
						<uuid>F01DCA11-EF60-47FD-8EA6-1267E6FC6A3F</uuid>
						<uuid>EC6AE249-7A16-49F1-8ECD-383CFBD7ED78</uuid>
					</itemhistory>
				</clipitem>
				<clipitem id="MVI_1219 6">
					<name>MVI_1219</name>
					<duration>18048</duration>
					<rate>
						<ntsc>TRUE</ntsc>
						<timebase>24</timebase>
					</rate>
					<in>7421</in>
					<out>18048</out>
					<start>54357</start>
					<end>64984</end>
					<pixelaspectratio>Square</pixelaspectratio>
					<anamorphic>FALSE</anamorphic>
					<alphatype>none</alphatype>
					<masterclipid>MVI_1219 1</masterclipid>
					<logginginfo>
						<scene/>
						<shottake/>
						<lognote/>
						<good>FALSE</good>
					</logginginfo>
					<labels>
						<label2/>
					</labels>
					<comments>
						<mastercomment1/>
						<mastercomment2/>
						<mastercomment3/>
						<mastercomment4/>
					</comments>
					<file id="MVI_1219 2"/>
					<marker>
						<name>Strange cultures</name>
						<comment>culture,subculture,internet,language</comment>
						<color>
							<alpha>0</alpha>
							<red>255</red>
							<green>0</green>
							<blue>0</blue>
						</color>
						<in>5150</in>
						<out>6238</out>
					</marker>
					<marker>
						<name>the Cloud</name>
						<comment>the Cloud,alone together,noosphere,internet, network&#13;</comment>
						<color>
							<alpha>0</alpha>
							<red>255</red>
							<green>0</green>
							<blue>0</blue>
						</color>
						<in>6806</in>
						<out>7876</out>
					</marker>
					<marker>
						<name>Evolution</name>
						<comment>evolution,universe,nature</comment>
						<color>
							<alpha>0</alpha>
							<red>255</red>
							<green>0</green>
							<blue>0</blue>
						</color>
						<in>8289</in>
						<out>8783</out>
					</marker>
					<marker>
						<name>made of photons</name>
						<comment>reality,perception,realness,vision,visual thinking,physics</comment>
						<color>
							<alpha>0</alpha>
							<red>255</red>
							<green>0</green>
							<blue>0</blue>
						</color>
						<in>12961</in>
						<out>13436</out>
					</marker>
					<marker>
						<name>city</name>
						<comment>open paths,gps,city, society,network, internet&#13;</comment>
						<color>
							<alpha>0</alpha>
							<red>255</red>
							<green>0</green>
							<blue>0</blue>
						</color>
						<in>15281</in>
						<out>16589</out>
					</marker>
					<sourcetrack>
						<mediatype>video</mediatype>
					</sourcetrack>
					<fielddominance>none</fielddominance>
					<itemhistory>
						<uuid>1CE3B277-3C3E-4A6E-A634-67844E1B408D</uuid>
						<uuid>EC6AE249-7A16-49F1-8ECD-383CFBD7ED78</uuid>
					</itemhistory>
				</clipitem>
				<enabled>TRUE</enabled>
				<locked>FALSE</locked>
			</track>
		</video>
		<audio>
			<format>
				<samplecharacteristics>
					<depth>16</depth>
					<samplerate>48000</samplerate>
				</samplecharacteristics>
			</format>
			<outputs>
				<group>
					<index>1</index>
					<numchannels>2</numchannels>
					<downmix>0</downmix>
					<channel>
						<index>1</index>
					</channel>
					<channel>
						<index>2</index>
					</channel>
				</group>
			</outputs>
			<in>-1</in>
			<out>-1</out>
			<track>
				<clipitem id="MVI_1214 3">
					<name>MVI_1214</name>
					<duration>12991</duration>
					<rate>
						<ntsc>TRUE</ntsc>
						<timebase>24</timebase>
					</rate>
					<in>0</in>
					<out>12991</out>
					<start>0</start>
					<end>12991</end>
					<masterclipid>MVI_1214 1</masterclipid>
					<logginginfo>
						<scene/>
						<shottake/>
						<lognote/>
						<good>FALSE</good>
					</logginginfo>
					<labels>
						<label2/>
					</labels>
					<comments>
						<mastercomment1/>
						<mastercomment2/>
						<mastercomment3/>
						<mastercomment4/>
					</comments>
					<file id="MVI_1214 2"/>
					<marker>
						<name>Marker 1</name>
						<comment/>
						<color>
							<alpha>0</alpha>
							<red>255</red>
							<green>0</green>
							<blue>0</blue>
						</color>
						<in>5485</in>
						<out>6275</out>
					</marker>
					<marker>
						<name>everyday media</name>
						<comment>everyday,experience,culture,media,art and experience</comment>
						<color>
							<alpha>0</alpha>
							<red>255</red>
							<green>0</green>
							<blue>0</blue>
						</color>
						<in>7493</in>
						<out>8455</out>
					</marker>
					<marker>
						<name>&lt;3</name>
						<comment>emotion,love,texting,everyday,&#13;Would you describe an emotional experience you've had through technology?,</comment>
						<color>
							<alpha>0</alpha>
							<red>255</red>
							<green>0</green>
							<blue>0</blue>
						</color>
						<in>9378</in>
						<out>10085</out>
					</marker>
					<filter>
						<effect>
							<name>Audio Levels</name>
							<effectid>audiolevels</effectid>
							<effectcategory>audiolevels</effectcategory>
							<effecttype>audiolevels</effecttype>
							<mediatype>audio</mediatype>
							<parameter>
								<name>Level</name>
								<parameterid>level</parameterid>
								<valuemin>0</valuemin>
								<valuemax>3.98109</valuemax>
								<value>1</value>
							</parameter>
						</effect>
					</filter>
					<filter>
						<effect>
							<name>Audio Pan</name>
							<effectid>audiopan</effectid>
							<effectcategory>audiopan</effectcategory>
							<effecttype>audiopan</effecttype>
							<mediatype>audio</mediatype>
							<parameter>
								<name>Pan</name>
								<parameterid>pan</parameterid>
								<valuemin>-1</valuemin>
								<valuemax>1</valuemax>
								<value>-1</value>
							</parameter>
						</effect>
					</filter>
					<sourcetrack>
						<mediatype>audio</mediatype>
						<trackindex>1</trackindex>
					</sourcetrack>
					<link>
						<linkclipref>MVI_1214 </linkclipref>
						<mediatype>video</mediatype>
						<trackindex>1</trackindex>
						<clipindex>1</clipindex>
					</link>
					<link>
						<linkclipref>MVI_1214 3</linkclipref>
						<mediatype>audio</mediatype>
						<trackindex>1</trackindex>
						<clipindex>1</clipindex>
						<groupindex>1</groupindex>
					</link>
					<link>
						<linkclipref>MVI_1214 4</linkclipref>
						<mediatype>audio</mediatype>
						<trackindex>2</trackindex>
						<clipindex>1</clipindex>
						<groupindex>1</groupindex>
					</link>
					<itemhistory>
						<uuid>9417F98F-4D61-405E-B2C3-C0B6DF67EBAD</uuid>
					</itemhistory>
				</clipitem>
				<clipitem id="MVI_1215 3">
					<name>MVI_1215</name>
					<duration>17078</duration>
					<rate>
						<ntsc>TRUE</ntsc>
						<timebase>24</timebase>
					</rate>
					<in>0</in>
					<out>17078</out>
					<start>12991</start>
					<end>30069</end>
					<masterclipid>MVI_1215 1</masterclipid>
					<logginginfo>
						<scene/>
						<shottake/>
						<lognote/>
						<good>FALSE</good>
					</logginginfo>
					<labels>
						<label2/>
					</labels>
					<comments>
						<mastercomment1/>
						<mastercomment2/>
						<mastercomment3/>
						<mastercomment4/>
					</comments>
					<file id="MVI_1215 2"/>
					<marker>
						<name>RainbowSpaceCats</name>
						<comment>weird</comment>
						<color>
							<alpha>0</alpha>
							<red>255</red>
							<green>0</green>
							<blue>0</blue>
						</color>
						<in>1654</in>
						<out>1819</out>
					</marker>
					<marker>
						<name>tumblr1</name>
						<comment>&#13;&#13;</comment>
						<color>
							<alpha>0</alpha>
							<red>255</red>
							<green>0</green>
							<blue>0</blue>
						</color>
						<in>3749</in>
						<out>4385</out>
					</marker>
					<marker>
						<name>tumblr2</name>
						<comment/>
						<color>
							<alpha>0</alpha>
							<red>255</red>
							<green>0</green>
							<blue>0</blue>
						</color>
						<in>5172</in>
						<out>5659</out>
					</marker>
					<marker>
						<name>avatar1</name>
						<comment>identity,time,subjectivity</comment>
						<color>
							<alpha>0</alpha>
							<red>255</red>
							<green>0</green>
							<blue>0</blue>
						</color>
						<in>9007</in>
						<out>9456</out>
					</marker>
					<marker>
						<name>avatar2</name>
						<comment/>
						<color>
							<alpha>0</alpha>
							<red>255</red>
							<green>0</green>
							<blue>0</blue>
						</color>
						<in>9557</in>
						<out>10155</out>
					</marker>
					<filter>
						<effect>
							<name>Audio Levels</name>
							<effectid>audiolevels</effectid>
							<effectcategory>audiolevels</effectcategory>
							<effecttype>audiolevels</effecttype>
							<mediatype>audio</mediatype>
							<parameter>
								<name>Level</name>
								<parameterid>level</parameterid>
								<valuemin>0</valuemin>
								<valuemax>3.98109</valuemax>
								<value>1</value>
							</parameter>
						</effect>
					</filter>
					<filter>
						<effect>
							<name>Audio Pan</name>
							<effectid>audiopan</effectid>
							<effectcategory>audiopan</effectcategory>
							<effecttype>audiopan</effecttype>
							<mediatype>audio</mediatype>
							<parameter>
								<name>Pan</name>
								<parameterid>pan</parameterid>
								<valuemin>-1</valuemin>
								<valuemax>1</valuemax>
								<value>-1</value>
							</parameter>
						</effect>
					</filter>
					<sourcetrack>
						<mediatype>audio</mediatype>
						<trackindex>1</trackindex>
					</sourcetrack>
					<link>
						<linkclipref>MVI_1215 </linkclipref>
						<mediatype>video</mediatype>
						<trackindex>1</trackindex>
						<clipindex>2</clipindex>
					</link>
					<link>
						<linkclipref>MVI_1215 3</linkclipref>
						<mediatype>audio</mediatype>
						<trackindex>1</trackindex>
						<clipindex>2</clipindex>
						<groupindex>1</groupindex>
					</link>
					<link>
						<linkclipref>MVI_1215 4</linkclipref>
						<mediatype>audio</mediatype>
						<trackindex>2</trackindex>
						<clipindex>2</clipindex>
						<groupindex>1</groupindex>
					</link>
					<itemhistory>
						<uuid>54D2E73A-0DF0-4252-AE8E-0062A76C81A4</uuid>
					</itemhistory>
				</clipitem>
				<clipitem id="MVI_1216 3">
					<name>MVI_1216</name>
					<duration>16867</duration>
					<rate>
						<ntsc>TRUE</ntsc>
						<timebase>24</timebase>
					</rate>
					<in>0</in>
					<out>16867</out>
					<start>30069</start>
					<end>46936</end>
					<masterclipid>MVI_1216 1</masterclipid>
					<logginginfo>
						<scene/>
						<shottake/>
						<lognote/>
						<good>FALSE</good>
					</logginginfo>
					<labels>
						<label2/>
					</labels>
					<comments>
						<mastercomment1/>
						<mastercomment2/>
						<mastercomment3/>
						<mastercomment4/>
					</comments>
					<file id="MVI_1216 2"/>
					<marker>
						<name>nanobots</name>
						<comment>hallucination,imagination,hypothetical technology,dreams,nano</comment>
						<color>
							<alpha>0</alpha>
							<red>255</red>
							<green>0</green>
							<blue>0</blue>
						</color>
						<in>114</in>
						<out>619</out>
					</marker>
					<marker>
						<name>nonlinearity</name>
						<comment>narrative,future of cinema</comment>
						<color>
							<alpha>0</alpha>
							<red>255</red>
							<green>0</green>
							<blue>0</blue>
						</color>
						<in>3062</in>
						<out>3754</out>
					</marker>
					<marker>
						<name>computer dream</name>
						<comment>computer,dream</comment>
						<color>
							<alpha>0</alpha>
							<red>255</red>
							<green>0</green>
							<blue>0</blue>
						</color>
						<in>5181</in>
						<out>5774</out>
					</marker>
					<marker>
						<name>distributed culture</name>
						<comment>society,man versus machine,equality,culture</comment>
						<color>
							<alpha>0</alpha>
							<red>255</red>
							<green>0</green>
							<blue>0</blue>
						</color>
						<in>10572</in>
						<out>11780</out>
					</marker>
					<marker>
						<name>are we having fun?</name>
						<comment>control,existence,philsophy,world</comment>
						<color>
							<alpha>0</alpha>
							<red>255</red>
							<green>0</green>
							<blue>0</blue>
						</color>
						<in>12210</in>
						<out>12685</out>
					</marker>
					<filter>
						<effect>
							<name>Audio Levels</name>
							<effectid>audiolevels</effectid>
							<effectcategory>audiolevels</effectcategory>
							<effecttype>audiolevels</effecttype>
							<mediatype>audio</mediatype>
							<parameter>
								<name>Level</name>
								<parameterid>level</parameterid>
								<valuemin>0</valuemin>
								<valuemax>3.98109</valuemax>
								<value>1</value>
							</parameter>
						</effect>
					</filter>
					<filter>
						<effect>
							<name>Audio Pan</name>
							<effectid>audiopan</effectid>
							<effectcategory>audiopan</effectcategory>
							<effecttype>audiopan</effecttype>
							<mediatype>audio</mediatype>
							<parameter>
								<name>Pan</name>
								<parameterid>pan</parameterid>
								<valuemin>-1</valuemin>
								<valuemax>1</valuemax>
								<value>-1</value>
							</parameter>
						</effect>
					</filter>
					<sourcetrack>
						<mediatype>audio</mediatype>
						<trackindex>1</trackindex>
					</sourcetrack>
					<link>
						<linkclipref>MVI_1216 </linkclipref>
						<mediatype>video</mediatype>
						<trackindex>1</trackindex>
						<clipindex>3</clipindex>
					</link>
					<link>
						<linkclipref>MVI_1216 3</linkclipref>
						<mediatype>audio</mediatype>
						<trackindex>1</trackindex>
						<clipindex>3</clipindex>
						<groupindex>1</groupindex>
					</link>
					<link>
						<linkclipref>MVI_1216 4</linkclipref>
						<mediatype>audio</mediatype>
						<trackindex>2</trackindex>
						<clipindex>3</clipindex>
						<groupindex>1</groupindex>
					</link>
					<itemhistory>
						<uuid>2F67F65F-90D7-4CE9-B57B-E38ED4EEB4B1</uuid>
					</itemhistory>
				</clipitem>
				<clipitem id="MVI_1219 3">
					<name>MVI_1219</name>
					<duration>18048</duration>
					<rate>
						<ntsc>TRUE</ntsc>
						<timebase>24</timebase>
					</rate>
					<in>0</in>
					<out>6806</out>
					<start>46936</start>
					<end>53742</end>
					<masterclipid>MVI_1219 1</masterclipid>
					<logginginfo>
						<scene/>
						<shottake/>
						<lognote/>
						<good>FALSE</good>
					</logginginfo>
					<labels>
						<label2/>
					</labels>
					<comments>
						<mastercomment1/>
						<mastercomment2/>
						<mastercomment3/>
						<mastercomment4/>
					</comments>
					<file id="MVI_1219 2"/>
					<marker>
						<name>Strange cultures</name>
						<comment>culture,subculture,internet,language</comment>
						<color>
							<alpha>0</alpha>
							<red>255</red>
							<green>0</green>
							<blue>0</blue>
						</color>
						<in>5150</in>
						<out>6238</out>
					</marker>
					<marker>
						<name>the Cloud</name>
						<comment>the Cloud,alone together,noosphere,internet, network&#13;</comment>
						<color>
							<alpha>0</alpha>
							<red>255</red>
							<green>0</green>
							<blue>0</blue>
						</color>
						<in>6806</in>
						<out>7876</out>
					</marker>
					<marker>
						<name>Evolution</name>
						<comment>evolution,universe,nature</comment>
						<color>
							<alpha>0</alpha>
							<red>255</red>
							<green>0</green>
							<blue>0</blue>
						</color>
						<in>8289</in>
						<out>8783</out>
					</marker>
					<marker>
						<name>made of photons</name>
						<comment>reality,perception,realness,vision,visual thinking,physics</comment>
						<color>
							<alpha>0</alpha>
							<red>255</red>
							<green>0</green>
							<blue>0</blue>
						</color>
						<in>12961</in>
						<out>13436</out>
					</marker>
					<marker>
						<name>city</name>
						<comment>open paths,gps,city, society,network, internet&#13;</comment>
						<color>
							<alpha>0</alpha>
							<red>255</red>
							<green>0</green>
							<blue>0</blue>
						</color>
						<in>15281</in>
						<out>16589</out>
					</marker>
					<filter>
						<effect>
							<name>Audio Levels</name>
							<effectid>audiolevels</effectid>
							<effectcategory>audiolevels</effectcategory>
							<effecttype>audiolevels</effecttype>
							<mediatype>audio</mediatype>
							<parameter>
								<name>Level</name>
								<parameterid>level</parameterid>
								<valuemin>0</valuemin>
								<valuemax>3.98109</valuemax>
								<value>1</value>
							</parameter>
						</effect>
					</filter>
					<filter>
						<effect>
							<name>Audio Pan</name>
							<effectid>audiopan</effectid>
							<effectcategory>audiopan</effectcategory>
							<effecttype>audiopan</effecttype>
							<mediatype>audio</mediatype>
							<parameter>
								<name>Pan</name>
								<parameterid>pan</parameterid>
								<valuemin>-1</valuemin>
								<valuemax>1</valuemax>
								<value>-1</value>
							</parameter>
						</effect>
					</filter>
					<sourcetrack>
						<mediatype>audio</mediatype>
						<trackindex>1</trackindex>
					</sourcetrack>
					<link>
						<linkclipref>MVI_1219 </linkclipref>
						<mediatype>video</mediatype>
						<trackindex>1</trackindex>
						<clipindex>4</clipindex>
					</link>
					<link>
						<linkclipref>MVI_1219 3</linkclipref>
						<mediatype>audio</mediatype>
						<trackindex>1</trackindex>
						<clipindex>4</clipindex>
						<groupindex>1</groupindex>
					</link>
					<link>
						<linkclipref>MVI_1219 4</linkclipref>
						<mediatype>audio</mediatype>
						<trackindex>2</trackindex>
						<clipindex>4</clipindex>
						<groupindex>1</groupindex>
					</link>
					<itemhistory>
						<uuid>206315EA-2652-41E7-9F3F-5FE48C455B3D</uuid>
						<uuid>0396BF39-0E2D-494F-A4C9-2BF57B35FE1C</uuid>
					</itemhistory>
				</clipitem>
				<clipitem id="MVI_1219 7">
					<name>MVI_1219</name>
					<duration>18048</duration>
					<rate>
						<ntsc>TRUE</ntsc>
						<timebase>24</timebase>
					</rate>
					<in>6806</in>
					<out>7421</out>
					<start>53742</start>
					<end>54357</end>
					<masterclipid>MVI_1219 1</masterclipid>
					<logginginfo>
						<scene/>
						<shottake/>
						<lognote/>
						<good>FALSE</good>
					</logginginfo>
					<labels>
						<label2/>
					</labels>
					<comments>
						<mastercomment1/>
						<mastercomment2/>
						<mastercomment3/>
						<mastercomment4/>
					</comments>
					<file id="MVI_1219 2"/>
					<marker>
						<name>Strange cultures</name>
						<comment>culture,subculture,internet,language</comment>
						<color>
							<alpha>0</alpha>
							<red>255</red>
							<green>0</green>
							<blue>0</blue>
						</color>
						<in>5150</in>
						<out>6238</out>
					</marker>
					<marker>
						<name>the Cloud</name>
						<comment>the Cloud,alone together,noosphere,internet, network&#13;</comment>
						<color>
							<alpha>0</alpha>
							<red>255</red>
							<green>0</green>
							<blue>0</blue>
						</color>
						<in>6806</in>
						<out>7876</out>
					</marker>
					<marker>
						<name>Evolution</name>
						<comment>evolution,universe,nature</comment>
						<color>
							<alpha>0</alpha>
							<red>255</red>
							<green>0</green>
							<blue>0</blue>
						</color>
						<in>8289</in>
						<out>8783</out>
					</marker>
					<marker>
						<name>made of photons</name>
						<comment>reality,perception,realness,vision,visual thinking,physics</comment>
						<color>
							<alpha>0</alpha>
							<red>255</red>
							<green>0</green>
							<blue>0</blue>
						</color>
						<in>12961</in>
						<out>13436</out>
					</marker>
					<marker>
						<name>city</name>
						<comment>open paths,gps,city, society,network, internet&#13;</comment>
						<color>
							<alpha>0</alpha>
							<red>255</red>
							<green>0</green>
							<blue>0</blue>
						</color>
						<in>15281</in>
						<out>16589</out>
					</marker>
					<filter>
						<effect>
							<name>Audio Levels</name>
							<effectid>audiolevels</effectid>
							<effectcategory>audiolevels</effectcategory>
							<effecttype>audiolevels</effecttype>
							<mediatype>audio</mediatype>
							<parameter>
								<name>Level</name>
								<parameterid>level</parameterid>
								<valuemin>0</valuemin>
								<valuemax>3.98109</valuemax>
								<value>1</value>
							</parameter>
						</effect>
					</filter>
					<filter>
						<effect>
							<name>Audio Pan</name>
							<effectid>audiopan</effectid>
							<effectcategory>audiopan</effectcategory>
							<effecttype>audiopan</effecttype>
							<mediatype>audio</mediatype>
							<parameter>
								<name>Pan</name>
								<parameterid>pan</parameterid>
								<valuemin>-1</valuemin>
								<valuemax>1</valuemax>
								<value>-1</value>
							</parameter>
						</effect>
					</filter>
					<sourcetrack>
						<mediatype>audio</mediatype>
						<trackindex>1</trackindex>
					</sourcetrack>
					<link>
						<linkclipref>MVI_1219 7</linkclipref>
						<mediatype>audio</mediatype>
						<trackindex>1</trackindex>
						<clipindex>5</clipindex>
						<groupindex>1</groupindex>
					</link>
					<link>
						<linkclipref>MVI_1219 8</linkclipref>
						<mediatype>audio</mediatype>
						<trackindex>2</trackindex>
						<clipindex>5</clipindex>
						<groupindex>1</groupindex>
					</link>
					<itemhistory>
						<uuid>E7665BB7-61B0-4EC6-BAD5-39D77B340177</uuid>
						<uuid>0396BF39-0E2D-494F-A4C9-2BF57B35FE1C</uuid>
					</itemhistory>
				</clipitem>
				<clipitem id="MVI_1219 9">
					<name>MVI_1219</name>
					<duration>18048</duration>
					<rate>
						<ntsc>TRUE</ntsc>
						<timebase>24</timebase>
					</rate>
					<in>7421</in>
					<out>18048</out>
					<start>54357</start>
					<end>64984</end>
					<masterclipid>MVI_1219 1</masterclipid>
					<logginginfo>
						<scene/>
						<shottake/>
						<lognote/>
						<good>FALSE</good>
					</logginginfo>
					<labels>
						<label2/>
					</labels>
					<comments>
						<mastercomment1/>
						<mastercomment2/>
						<mastercomment3/>
						<mastercomment4/>
					</comments>
					<file id="MVI_1219 2"/>
					<marker>
						<name>Strange cultures</name>
						<comment>culture,subculture,internet,language</comment>
						<color>
							<alpha>0</alpha>
							<red>255</red>
							<green>0</green>
							<blue>0</blue>
						</color>
						<in>5150</in>
						<out>6238</out>
					</marker>
					<marker>
						<name>the Cloud</name>
						<comment>the Cloud,alone together,noosphere,internet, network&#13;</comment>
						<color>
							<alpha>0</alpha>
							<red>255</red>
							<green>0</green>
							<blue>0</blue>
						</color>
						<in>6806</in>
						<out>7876</out>
					</marker>
					<marker>
						<name>Evolution</name>
						<comment>evolution,universe,nature</comment>
						<color>
							<alpha>0</alpha>
							<red>255</red>
							<green>0</green>
							<blue>0</blue>
						</color>
						<in>8289</in>
						<out>8783</out>
					</marker>
					<marker>
						<name>made of photons</name>
						<comment>reality,perception,realness,vision,visual thinking,physics</comment>
						<color>
							<alpha>0</alpha>
							<red>255</red>
							<green>0</green>
							<blue>0</blue>
						</color>
						<in>12961</in>
						<out>13436</out>
					</marker>
					<marker>
						<name>city</name>
						<comment>open paths,gps,city, society,network, internet&#13;</comment>
						<color>
							<alpha>0</alpha>
							<red>255</red>
							<green>0</green>
							<blue>0</blue>
						</color>
						<in>15281</in>
						<out>16589</out>
					</marker>
					<filter>
						<effect>
							<name>Audio Levels</name>
							<effectid>audiolevels</effectid>
							<effectcategory>audiolevels</effectcategory>
							<effecttype>audiolevels</effecttype>
							<mediatype>audio</mediatype>
							<parameter>
								<name>Level</name>
								<parameterid>level</parameterid>
								<valuemin>0</valuemin>
								<valuemax>3.98109</valuemax>
								<value>1</value>
							</parameter>
						</effect>
					</filter>
					<filter>
						<effect>
							<name>Audio Pan</name>
							<effectid>audiopan</effectid>
							<effectcategory>audiopan</effectcategory>
							<effecttype>audiopan</effecttype>
							<mediatype>audio</mediatype>
							<parameter>
								<name>Pan</name>
								<parameterid>pan</parameterid>
								<valuemin>-1</valuemin>
								<valuemax>1</valuemax>
								<value>-1</value>
							</parameter>
						</effect>
					</filter>
					<sourcetrack>
						<mediatype>audio</mediatype>
						<trackindex>1</trackindex>
					</sourcetrack>
					<link>
						<linkclipref>MVI_1219 9</linkclipref>
						<mediatype>audio</mediatype>
						<trackindex>1</trackindex>
						<clipindex>6</clipindex>
						<groupindex>1</groupindex>
					</link>
					<link>
						<linkclipref>MVI_1219 10</linkclipref>
						<mediatype>audio</mediatype>
						<trackindex>2</trackindex>
						<clipindex>6</clipindex>
						<groupindex>1</groupindex>
					</link>
					<itemhistory>
						<uuid>A1DD8544-37A8-41C9-99B8-AA7483844FD4</uuid>
						<uuid>0396BF39-0E2D-494F-A4C9-2BF57B35FE1C</uuid>
					</itemhistory>
				</clipitem>
				<enabled>TRUE</enabled>
				<locked>FALSE</locked>
				<outputchannelindex>1</outputchannelindex>
			</track>
			<track>
				<clipitem id="MVI_1214 4">
					<name>MVI_1214</name>
					<duration>12991</duration>
					<rate>
						<ntsc>TRUE</ntsc>
						<timebase>24</timebase>
					</rate>
					<in>0</in>
					<out>12991</out>
					<start>0</start>
					<end>12991</end>
					<masterclipid>MVI_1214 1</masterclipid>
					<logginginfo>
						<scene/>
						<shottake/>
						<lognote/>
						<good>FALSE</good>
					</logginginfo>
					<labels>
						<label2/>
					</labels>
					<comments>
						<mastercomment1/>
						<mastercomment2/>
						<mastercomment3/>
						<mastercomment4/>
					</comments>
					<file id="MVI_1214 2"/>
					<marker>
						<name>Marker 1</name>
						<comment/>
						<color>
							<alpha>0</alpha>
							<red>255</red>
							<green>0</green>
							<blue>0</blue>
						</color>
						<in>5485</in>
						<out>6275</out>
					</marker>
					<marker>
						<name>everyday media</name>
						<comment>everyday,experience,culture,media,art and experience</comment>
						<color>
							<alpha>0</alpha>
							<red>255</red>
							<green>0</green>
							<blue>0</blue>
						</color>
						<in>7493</in>
						<out>8455</out>
					</marker>
					<marker>
						<name>&lt;3</name>
						<comment>emotion,love,texting,everyday,&#13;Would you describe an emotional experience you've had through technology?,</comment>
						<color>
							<alpha>0</alpha>
							<red>255</red>
							<green>0</green>
							<blue>0</blue>
						</color>
						<in>9378</in>
						<out>10085</out>
					</marker>
					<filter>
						<effect>
							<name>Audio Levels</name>
							<effectid>audiolevels</effectid>
							<effectcategory>audiolevels</effectcategory>
							<effecttype>audiolevels</effecttype>
							<mediatype>audio</mediatype>
							<parameter>
								<name>Level</name>
								<parameterid>level</parameterid>
								<valuemin>0</valuemin>
								<valuemax>3.98109</valuemax>
								<value>1</value>
							</parameter>
						</effect>
					</filter>
					<filter>
						<effect>
							<name>Audio Pan</name>
							<effectid>audiopan</effectid>
							<effectcategory>audiopan</effectcategory>
							<effecttype>audiopan</effecttype>
							<mediatype>audio</mediatype>
							<parameter>
								<name>Pan</name>
								<parameterid>pan</parameterid>
								<valuemin>-1</valuemin>
								<valuemax>1</valuemax>
								<value>1</value>
							</parameter>
						</effect>
					</filter>
					<sourcetrack>
						<mediatype>audio</mediatype>
						<trackindex>2</trackindex>
					</sourcetrack>
					<link>
						<linkclipref>MVI_1214 </linkclipref>
						<mediatype>video</mediatype>
						<trackindex>1</trackindex>
						<clipindex>1</clipindex>
					</link>
					<link>
						<linkclipref>MVI_1214 3</linkclipref>
						<mediatype>audio</mediatype>
						<trackindex>1</trackindex>
						<clipindex>1</clipindex>
						<groupindex>1</groupindex>
					</link>
					<link>
						<linkclipref>MVI_1214 4</linkclipref>
						<mediatype>audio</mediatype>
						<trackindex>2</trackindex>
						<clipindex>1</clipindex>
						<groupindex>1</groupindex>
					</link>
					<itemhistory>
						<uuid>21713B30-DCB1-416F-99DE-41B8C08958FE</uuid>
					</itemhistory>
				</clipitem>
				<clipitem id="MVI_1215 4">
					<name>MVI_1215</name>
					<duration>17078</duration>
					<rate>
						<ntsc>TRUE</ntsc>
						<timebase>24</timebase>
					</rate>
					<in>0</in>
					<out>17078</out>
					<start>12991</start>
					<end>30069</end>
					<masterclipid>MVI_1215 1</masterclipid>
					<logginginfo>
						<scene/>
						<shottake/>
						<lognote/>
						<good>FALSE</good>
					</logginginfo>
					<labels>
						<label2/>
					</labels>
					<comments>
						<mastercomment1/>
						<mastercomment2/>
						<mastercomment3/>
						<mastercomment4/>
					</comments>
					<file id="MVI_1215 2"/>
					<marker>
						<name>RainbowSpaceCats</name>
						<comment>weird</comment>
						<color>
							<alpha>0</alpha>
							<red>255</red>
							<green>0</green>
							<blue>0</blue>
						</color>
						<in>1654</in>
						<out>1819</out>
					</marker>
					<marker>
						<name>tumblr1</name>
						<comment>&#13;&#13;</comment>
						<color>
							<alpha>0</alpha>
							<red>255</red>
							<green>0</green>
							<blue>0</blue>
						</color>
						<in>3749</in>
						<out>4385</out>
					</marker>
					<marker>
						<name>tumblr2</name>
						<comment/>
						<color>
							<alpha>0</alpha>
							<red>255</red>
							<green>0</green>
							<blue>0</blue>
						</color>
						<in>5172</in>
						<out>5659</out>
					</marker>
					<marker>
						<name>avatar1</name>
						<comment>identity,time,subjectivity</comment>
						<color>
							<alpha>0</alpha>
							<red>255</red>
							<green>0</green>
							<blue>0</blue>
						</color>
						<in>9007</in>
						<out>9456</out>
					</marker>
					<marker>
						<name>avatar2</name>
						<comment/>
						<color>
							<alpha>0</alpha>
							<red>255</red>
							<green>0</green>
							<blue>0</blue>
						</color>
						<in>9557</in>
						<out>10155</out>
					</marker>
					<filter>
						<effect>
							<name>Audio Levels</name>
							<effectid>audiolevels</effectid>
							<effectcategory>audiolevels</effectcategory>
							<effecttype>audiolevels</effecttype>
							<mediatype>audio</mediatype>
							<parameter>
								<name>Level</name>
								<parameterid>level</parameterid>
								<valuemin>0</valuemin>
								<valuemax>3.98109</valuemax>
								<value>1</value>
							</parameter>
						</effect>
					</filter>
					<filter>
						<effect>
							<name>Audio Pan</name>
							<effectid>audiopan</effectid>
							<effectcategory>audiopan</effectcategory>
							<effecttype>audiopan</effecttype>
							<mediatype>audio</mediatype>
							<parameter>
								<name>Pan</name>
								<parameterid>pan</parameterid>
								<valuemin>-1</valuemin>
								<valuemax>1</valuemax>
								<value>1</value>
							</parameter>
						</effect>
					</filter>
					<sourcetrack>
						<mediatype>audio</mediatype>
						<trackindex>2</trackindex>
					</sourcetrack>
					<link>
						<linkclipref>MVI_1215 </linkclipref>
						<mediatype>video</mediatype>
						<trackindex>1</trackindex>
						<clipindex>2</clipindex>
					</link>
					<link>
						<linkclipref>MVI_1215 3</linkclipref>
						<mediatype>audio</mediatype>
						<trackindex>1</trackindex>
						<clipindex>2</clipindex>
						<groupindex>1</groupindex>
					</link>
					<link>
						<linkclipref>MVI_1215 4</linkclipref>
						<mediatype>audio</mediatype>
						<trackindex>2</trackindex>
						<clipindex>2</clipindex>
						<groupindex>1</groupindex>
					</link>
					<itemhistory>
						<uuid>54D25A64-BBD0-4EBA-8522-A1F2A0D0FCF6</uuid>
					</itemhistory>
				</clipitem>
				<clipitem id="MVI_1216 4">
					<name>MVI_1216</name>
					<duration>16867</duration>
					<rate>
						<ntsc>TRUE</ntsc>
						<timebase>24</timebase>
					</rate>
					<in>0</in>
					<out>16867</out>
					<start>30069</start>
					<end>46936</end>
					<masterclipid>MVI_1216 1</masterclipid>
					<logginginfo>
						<scene/>
						<shottake/>
						<lognote/>
						<good>FALSE</good>
					</logginginfo>
					<labels>
						<label2/>
					</labels>
					<comments>
						<mastercomment1/>
						<mastercomment2/>
						<mastercomment3/>
						<mastercomment4/>
					</comments>
					<file id="MVI_1216 2"/>
					<marker>
						<name>nanobots</name>
						<comment>hallucination,imagination,hypothetical technology,dreams,nano</comment>
						<color>
							<alpha>0</alpha>
							<red>255</red>
							<green>0</green>
							<blue>0</blue>
						</color>
						<in>114</in>
						<out>619</out>
					</marker>
					<marker>
						<name>nonlinearity</name>
						<comment>narrative,future of cinema</comment>
						<color>
							<alpha>0</alpha>
							<red>255</red>
							<green>0</green>
							<blue>0</blue>
						</color>
						<in>3062</in>
						<out>3754</out>
					</marker>
					<marker>
						<name>computer dream</name>
						<comment>computer,dream</comment>
						<color>
							<alpha>0</alpha>
							<red>255</red>
							<green>0</green>
							<blue>0</blue>
						</color>
						<in>5181</in>
						<out>5774</out>
					</marker>
					<marker>
						<name>distributed culture</name>
						<comment>society,man versus machine,equality,culture</comment>
						<color>
							<alpha>0</alpha>
							<red>255</red>
							<green>0</green>
							<blue>0</blue>
						</color>
						<in>10572</in>
						<out>11780</out>
					</marker>
					<marker>
						<name>are we having fun?</name>
						<comment>control,existence,philsophy,world</comment>
						<color>
							<alpha>0</alpha>
							<red>255</red>
							<green>0</green>
							<blue>0</blue>
						</color>
						<in>12210</in>
						<out>12685</out>
					</marker>
					<filter>
						<effect>
							<name>Audio Levels</name>
							<effectid>audiolevels</effectid>
							<effectcategory>audiolevels</effectcategory>
							<effecttype>audiolevels</effecttype>
							<mediatype>audio</mediatype>
							<parameter>
								<name>Level</name>
								<parameterid>level</parameterid>
								<valuemin>0</valuemin>
								<valuemax>3.98109</valuemax>
								<value>1</value>
							</parameter>
						</effect>
					</filter>
					<filter>
						<effect>
							<name>Audio Pan</name>
							<effectid>audiopan</effectid>
							<effectcategory>audiopan</effectcategory>
							<effecttype>audiopan</effecttype>
							<mediatype>audio</mediatype>
							<parameter>
								<name>Pan</name>
								<parameterid>pan</parameterid>
								<valuemin>-1</valuemin>
								<valuemax>1</valuemax>
								<value>1</value>
							</parameter>
						</effect>
					</filter>
					<sourcetrack>
						<mediatype>audio</mediatype>
						<trackindex>2</trackindex>
					</sourcetrack>
					<link>
						<linkclipref>MVI_1216 </linkclipref>
						<mediatype>video</mediatype>
						<trackindex>1</trackindex>
						<clipindex>3</clipindex>
					</link>
					<link>
						<linkclipref>MVI_1216 3</linkclipref>
						<mediatype>audio</mediatype>
						<trackindex>1</trackindex>
						<clipindex>3</clipindex>
						<groupindex>1</groupindex>
					</link>
					<link>
						<linkclipref>MVI_1216 4</linkclipref>
						<mediatype>audio</mediatype>
						<trackindex>2</trackindex>
						<clipindex>3</clipindex>
						<groupindex>1</groupindex>
					</link>
					<itemhistory>
						<uuid>B1FFA092-B463-444D-B823-DEE01BB31E47</uuid>
					</itemhistory>
				</clipitem>
				<clipitem id="MVI_1219 4">
					<name>MVI_1219</name>
					<duration>18048</duration>
					<rate>
						<ntsc>TRUE</ntsc>
						<timebase>24</timebase>
					</rate>
					<in>0</in>
					<out>6806</out>
					<start>46936</start>
					<end>53742</end>
					<masterclipid>MVI_1219 1</masterclipid>
					<logginginfo>
						<scene/>
						<shottake/>
						<lognote/>
						<good>FALSE</good>
					</logginginfo>
					<labels>
						<label2/>
					</labels>
					<comments>
						<mastercomment1/>
						<mastercomment2/>
						<mastercomment3/>
						<mastercomment4/>
					</comments>
					<file id="MVI_1219 2"/>
					<marker>
						<name>Strange cultures</name>
						<comment>culture,subculture,internet,language</comment>
						<color>
							<alpha>0</alpha>
							<red>255</red>
							<green>0</green>
							<blue>0</blue>
						</color>
						<in>5150</in>
						<out>6238</out>
					</marker>
					<marker>
						<name>the Cloud</name>
						<comment>the Cloud,alone together,noosphere,internet, network&#13;</comment>
						<color>
							<alpha>0</alpha>
							<red>255</red>
							<green>0</green>
							<blue>0</blue>
						</color>
						<in>6806</in>
						<out>7876</out>
					</marker>
					<marker>
						<name>Evolution</name>
						<comment>evolution,universe,nature</comment>
						<color>
							<alpha>0</alpha>
							<red>255</red>
							<green>0</green>
							<blue>0</blue>
						</color>
						<in>8289</in>
						<out>8783</out>
					</marker>
					<marker>
						<name>made of photons</name>
						<comment>reality,perception,realness,vision,visual thinking,physics</comment>
						<color>
							<alpha>0</alpha>
							<red>255</red>
							<green>0</green>
							<blue>0</blue>
						</color>
						<in>12961</in>
						<out>13436</out>
					</marker>
					<marker>
						<name>city</name>
						<comment>open paths,gps,city, society,network, internet&#13;</comment>
						<color>
							<alpha>0</alpha>
							<red>255</red>
							<green>0</green>
							<blue>0</blue>
						</color>
						<in>15281</in>
						<out>16589</out>
					</marker>
					<filter>
						<effect>
							<name>Audio Levels</name>
							<effectid>audiolevels</effectid>
							<effectcategory>audiolevels</effectcategory>
							<effecttype>audiolevels</effecttype>
							<mediatype>audio</mediatype>
							<parameter>
								<name>Level</name>
								<parameterid>level</parameterid>
								<valuemin>0</valuemin>
								<valuemax>3.98109</valuemax>
								<value>1</value>
							</parameter>
						</effect>
					</filter>
					<filter>
						<effect>
							<name>Audio Pan</name>
							<effectid>audiopan</effectid>
							<effectcategory>audiopan</effectcategory>
							<effecttype>audiopan</effecttype>
							<mediatype>audio</mediatype>
							<parameter>
								<name>Pan</name>
								<parameterid>pan</parameterid>
								<valuemin>-1</valuemin>
								<valuemax>1</valuemax>
								<value>1</value>
							</parameter>
						</effect>
					</filter>
					<sourcetrack>
						<mediatype>audio</mediatype>
						<trackindex>2</trackindex>
					</sourcetrack>
					<link>
						<linkclipref>MVI_1219 </linkclipref>
						<mediatype>video</mediatype>
						<trackindex>1</trackindex>
						<clipindex>4</clipindex>
					</link>
					<link>
						<linkclipref>MVI_1219 3</linkclipref>
						<mediatype>audio</mediatype>
						<trackindex>1</trackindex>
						<clipindex>4</clipindex>
						<groupindex>1</groupindex>
					</link>
					<link>
						<linkclipref>MVI_1219 4</linkclipref>
						<mediatype>audio</mediatype>
						<trackindex>2</trackindex>
						<clipindex>4</clipindex>
						<groupindex>1</groupindex>
					</link>
					<itemhistory>
						<uuid>D7E28F2C-8643-4860-82DA-A99479B5A904</uuid>
						<uuid>C3C806BD-CE97-4FDB-A5B7-ED45DE7F7FFF</uuid>
					</itemhistory>
				</clipitem>
				<clipitem id="MVI_1219 8">
					<name>MVI_1219</name>
					<duration>18048</duration>
					<rate>
						<ntsc>TRUE</ntsc>
						<timebase>24</timebase>
					</rate>
					<in>6806</in>
					<out>7421</out>
					<start>53742</start>
					<end>54357</end>
					<masterclipid>MVI_1219 1</masterclipid>
					<logginginfo>
						<scene/>
						<shottake/>
						<lognote/>
						<good>FALSE</good>
					</logginginfo>
					<labels>
						<label2/>
					</labels>
					<comments>
						<mastercomment1/>
						<mastercomment2/>
						<mastercomment3/>
						<mastercomment4/>
					</comments>
					<file id="MVI_1219 2"/>
					<marker>
						<name>Strange cultures</name>
						<comment>culture,subculture,internet,language</comment>
						<color>
							<alpha>0</alpha>
							<red>255</red>
							<green>0</green>
							<blue>0</blue>
						</color>
						<in>5150</in>
						<out>6238</out>
					</marker>
					<marker>
						<name>the Cloud</name>
						<comment>the Cloud,alone together,noosphere,internet, network&#13;</comment>
						<color>
							<alpha>0</alpha>
							<red>255</red>
							<green>0</green>
							<blue>0</blue>
						</color>
						<in>6806</in>
						<out>7876</out>
					</marker>
					<marker>
						<name>Evolution</name>
						<comment>evolution,universe,nature</comment>
						<color>
							<alpha>0</alpha>
							<red>255</red>
							<green>0</green>
							<blue>0</blue>
						</color>
						<in>8289</in>
						<out>8783</out>
					</marker>
					<marker>
						<name>made of photons</name>
						<comment>reality,perception,realness,vision,visual thinking,physics</comment>
						<color>
							<alpha>0</alpha>
							<red>255</red>
							<green>0</green>
							<blue>0</blue>
						</color>
						<in>12961</in>
						<out>13436</out>
					</marker>
					<marker>
						<name>city</name>
						<comment>open paths,gps,city, society,network, internet&#13;</comment>
						<color>
							<alpha>0</alpha>
							<red>255</red>
							<green>0</green>
							<blue>0</blue>
						</color>
						<in>15281</in>
						<out>16589</out>
					</marker>
					<filter>
						<effect>
							<name>Audio Levels</name>
							<effectid>audiolevels</effectid>
							<effectcategory>audiolevels</effectcategory>
							<effecttype>audiolevels</effecttype>
							<mediatype>audio</mediatype>
							<parameter>
								<name>Level</name>
								<parameterid>level</parameterid>
								<valuemin>0</valuemin>
								<valuemax>3.98109</valuemax>
								<value>1</value>
							</parameter>
						</effect>
					</filter>
					<filter>
						<effect>
							<name>Audio Pan</name>
							<effectid>audiopan</effectid>
							<effectcategory>audiopan</effectcategory>
							<effecttype>audiopan</effecttype>
							<mediatype>audio</mediatype>
							<parameter>
								<name>Pan</name>
								<parameterid>pan</parameterid>
								<valuemin>-1</valuemin>
								<valuemax>1</valuemax>
								<value>1</value>
							</parameter>
						</effect>
					</filter>
					<sourcetrack>
						<mediatype>audio</mediatype>
						<trackindex>2</trackindex>
					</sourcetrack>
					<link>
						<linkclipref>MVI_1219 7</linkclipref>
						<mediatype>audio</mediatype>
						<trackindex>1</trackindex>
						<clipindex>5</clipindex>
						<groupindex>1</groupindex>
					</link>
					<link>
						<linkclipref>MVI_1219 8</linkclipref>
						<mediatype>audio</mediatype>
						<trackindex>2</trackindex>
						<clipindex>5</clipindex>
						<groupindex>1</groupindex>
					</link>
					<itemhistory>
						<uuid>C085EB7D-2E43-479A-A844-1EF927F53A53</uuid>
						<uuid>C3C806BD-CE97-4FDB-A5B7-ED45DE7F7FFF</uuid>
					</itemhistory>
				</clipitem>
				<clipitem id="MVI_1219 10">
					<name>MVI_1219</name>
					<duration>18048</duration>
					<rate>
						<ntsc>TRUE</ntsc>
						<timebase>24</timebase>
					</rate>
					<in>7421</in>
					<out>18048</out>
					<start>54357</start>
					<end>64984</end>
					<masterclipid>MVI_1219 1</masterclipid>
					<logginginfo>
						<scene/>
						<shottake/>
						<lognote/>
						<good>FALSE</good>
					</logginginfo>
					<labels>
						<label2/>
					</labels>
					<comments>
						<mastercomment1/>
						<mastercomment2/>
						<mastercomment3/>
						<mastercomment4/>
					</comments>
					<file id="MVI_1219 2"/>
					<marker>
						<name>Strange cultures</name>
						<comment>culture,subculture,internet,language</comment>
						<color>
							<alpha>0</alpha>
							<red>255</red>
							<green>0</green>
							<blue>0</blue>
						</color>
						<in>5150</in>
						<out>6238</out>
					</marker>
					<marker>
						<name>the Cloud</name>
						<comment>the Cloud,alone together,noosphere,internet, network&#13;</comment>
						<color>
							<alpha>0</alpha>
							<red>255</red>
							<green>0</green>
							<blue>0</blue>
						</color>
						<in>6806</in>
						<out>7876</out>
					</marker>
					<marker>
						<name>Evolution</name>
						<comment>evolution,universe,nature</comment>
						<color>
							<alpha>0</alpha>
							<red>255</red>
							<green>0</green>
							<blue>0</blue>
						</color>
						<in>8289</in>
						<out>8783</out>
					</marker>
					<marker>
						<name>made of photons</name>
						<comment>reality,perception,realness,vision,visual thinking,physics</comment>
						<color>
							<alpha>0</alpha>
							<red>255</red>
							<green>0</green>
							<blue>0</blue>
						</color>
						<in>12961</in>
						<out>13436</out>
					</marker>
					<marker>
						<name>city</name>
						<comment>open paths,gps,city, society,network, internet&#13;</comment>
						<color>
							<alpha>0</alpha>
							<red>255</red>
							<green>0</green>
							<blue>0</blue>
						</color>
						<in>15281</in>
						<out>16589</out>
					</marker>
					<filter>
						<effect>
							<name>Audio Levels</name>
							<effectid>audiolevels</effectid>
							<effectcategory>audiolevels</effectcategory>
							<effecttype>audiolevels</effecttype>
							<mediatype>audio</mediatype>
							<parameter>
								<name>Level</name>
								<parameterid>level</parameterid>
								<valuemin>0</valuemin>
								<valuemax>3.98109</valuemax>
								<value>1</value>
							</parameter>
						</effect>
					</filter>
					<filter>
						<effect>
							<name>Audio Pan</name>
							<effectid>audiopan</effectid>
							<effectcategory>audiopan</effectcategory>
							<effecttype>audiopan</effecttype>
							<mediatype>audio</mediatype>
							<parameter>
								<name>Pan</name>
								<parameterid>pan</parameterid>
								<valuemin>-1</valuemin>
								<valuemax>1</valuemax>
								<value>1</value>
							</parameter>
						</effect>
					</filter>
					<sourcetrack>
						<mediatype>audio</mediatype>
						<trackindex>2</trackindex>
					</sourcetrack>
					<link>
						<linkclipref>MVI_1219 9</linkclipref>
						<mediatype>audio</mediatype>
						<trackindex>1</trackindex>
						<clipindex>6</clipindex>
						<groupindex>1</groupindex>
					</link>
					<link>
						<linkclipref>MVI_1219 10</linkclipref>
						<mediatype>audio</mediatype>
						<trackindex>2</trackindex>
						<clipindex>6</clipindex>
						<groupindex>1</groupindex>
					</link>
					<itemhistory>
						<uuid>AD662EF9-6C84-4C10-9664-E76989175469</uuid>
						<uuid>C3C806BD-CE97-4FDB-A5B7-ED45DE7F7FFF</uuid>
					</itemhistory>
				</clipitem>
				<enabled>TRUE</enabled>
				<locked>FALSE</locked>
				<outputchannelindex>2</outputchannelindex>
			</track>
			<track>
				<enabled>TRUE</enabled>
				<locked>FALSE</locked>
				<outputchannelindex>1</outputchannelindex>
			</track>
			<track>
				<enabled>TRUE</enabled>
				<locked>FALSE</locked>
				<outputchannelindex>2</outputchannelindex>
			</track>
			<filter>
				<effect>
					<name>Audio Levels</name>
					<effectid>audiolevels</effectid>
					<effectcategory>audiolevels</effectcategory>
					<effecttype>audiolevels</effecttype>
					<mediatype>audio</mediatype>
					<parameter>
						<name>Level</name>
						<parameterid>level</parameterid>
						<valuemin>0</valuemin>
						<valuemax>3.98109</valuemax>
						<value>1</value>
					</parameter>
				</effect>
			</filter>
		</audio>
	</media>
	<ismasterclip>FALSE</ismasterclip>
	<marker>
		<name>Marker 1</name>
		<color>
			<alpha>0</alpha>
			<red>255</red>
			<green>0</green>
			<blue>0</blue>
		</color>
		<in>30183</in>
		<out>-1</out>
	</marker>
</sequence>
<sequence id="Theo">
	<uuid>FF514278-1E5D-4EFC-BE65-38D0E4633700</uuid>
	<updatebehavior>add</updatebehavior>
	<name>Theo</name>
	<duration>50139</duration>
	<rate>
		<ntsc>TRUE</ntsc>
		<timebase>24</timebase>
	</rate>
	<timecode>
		<rate>
			<ntsc>TRUE</ntsc>
			<timebase>24</timebase>
		</rate>
		<string>01:00:00:00</string>
		<frame>86400</frame>
		<source>source</source>
		<displayformat>NDF</displayformat>
	</timecode>
	<in>-1</in>
	<out>-1</out>
	<media>
		<video>
			<format>
				<samplecharacteristics>
					<width>1920</width>
					<height>1080</height>
					<anamorphic>FALSE</anamorphic>
					<pixelaspectratio>Square</pixelaspectratio>
					<fielddominance>none</fielddominance>
					<rate>
						<ntsc>TRUE</ntsc>
						<timebase>24</timebase>
					</rate>
					<colordepth>24</colordepth>
					<codec>
						<name>Apple ProRes 422</name>
						<appspecificdata>
							<appname>Final Cut Pro</appname>
							<appmanufacturer>Apple Inc.</appmanufacturer>
							<appversion>7.0</appversion>
							<data>
								<qtcodec>
									<codecname>Apple ProRes 422</codecname>
									<codectypename>Apple ProRes 422 (HQ)</codectypename>
									<codectypecode>apch</codectypecode>
									<codecvendorcode>appl</codecvendorcode>
									<spatialquality>1024</spatialquality>
									<temporalquality>0</temporalquality>
									<keyframerate>0</keyframerate>
									<datarate>0</datarate>
								</qtcodec>
							</data>
						</appspecificdata>
					</codec>
				</samplecharacteristics>
				<appspecificdata>
					<appname>Final Cut Pro</appname>
					<appmanufacturer>Apple Inc.</appmanufacturer>
					<appversion>7.0</appversion>
					<data>
						<fcpimageprocessing>
							<useyuv>TRUE</useyuv>
							<usesuperwhite>FALSE</usesuperwhite>
							<rendermode>Float10BPP</rendermode>
						</fcpimageprocessing>
					</data>
				</appspecificdata>
			</format>
			<track>
				<clipitem id="MVI_0960 ">
					<name>MVI_0960</name>
					<duration>11457</duration>
					<rate>
						<ntsc>TRUE</ntsc>
						<timebase>24</timebase>
					</rate>
					<in>0</in>
					<out>7057</out>
					<start>0</start>
					<end>7057</end>
					<pixelaspectratio>Square</pixelaspectratio>
					<anamorphic>FALSE</anamorphic>
					<alphatype>none</alphatype>
					<masterclipid>MVI_0960 1</masterclipid>
					<logginginfo>
						<scene/>
						<shottake/>
						<lognote/>
						<good>FALSE</good>
					</logginginfo>
					<labels>
						<label2/>
					</labels>
					<comments>
						<mastercomment1/>
						<mastercomment2/>
						<mastercomment3/>
						<mastercomment4/>
					</comments>
					<file id="MVI_0960 2">
						<name>MVI_0960.mov</name>
						<pathurl>file://localhost/Volumes/Nebula/MediaPackages/EyeoMediaBin/Theo01/color/MVI_0960.mov</pathurl>
						<rate>
							<timebase>24</timebase>
							<ntsc>TRUE</ntsc>
						</rate>
						<duration>11457</duration>
						<media>
							<video>
								<duration>11457</duration>
								<samplecharacteristics>
									<width>1920</width>
									<height>1080</height>
								</samplecharacteristics>
							</video>
							<audio>
								<samplecharacteristics>
									<samplerate>48000</samplerate>
									<depth>16</depth>
								</samplecharacteristics>
								<channelcount>2</channelcount>
							</audio>
						</media>
					</file>
					<marker>
						<name/>
						<comment>nature,&#13;installation,&#13;physicality,</comment>
						<color>
							<alpha>0</alpha>
							<red>255</red>
							<green>0</green>
							<blue>0</blue>
						</color>
						<in>1584</in>
						<out>2376</out>
					</marker>
					<marker>
						<name>Marker 2</name>
						<comment/>
						<color>
							<alpha>0</alpha>
							<red>255</red>
							<green>0</green>
							<blue>0</blue>
						</color>
						<in>3748</in>
						<out>4892</out>
					</marker>
					<marker>
						<name>Marker 3</name>
						<comment/>
						<color>
							<alpha>0</alpha>
							<red>255</red>
							<green>0</green>
							<blue>0</blue>
						</color>
						<in>5325</in>
						<out>6116</out>
					</marker>
					<marker>
						<name>Kids interacting</name>
						<comment>play,&#13;fantasy,&#13;children,&#13;interactivity,&#13;</comment>
						<color>
							<alpha>0</alpha>
							<red>255</red>
							<green>0</green>
							<blue>0</blue>
						</color>
						<in>7318</in>
						<out>7541</out>
					</marker>
					<marker>
						<name>leaving a mark</name>
						<comment>children,&#13;play,&#13;beginnings,</comment>
						<color>
							<alpha>0</alpha>
							<red>255</red>
							<green>0</green>
							<blue>0</blue>
						</color>
						<in>7711</in>
						<out>8079</out>
					</marker>
					<marker>
						<name>learning</name>
						<comment>beginnings,&#13;learning,&#13;golan levin,</comment>
						<color>
							<alpha>0</alpha>
							<red>255</red>
							<green>0</green>
							<blue>0</blue>
						</color>
						<in>10436</in>
						<out>10929</out>
					</marker>
					<sourcetrack>
						<mediatype>video</mediatype>
					</sourcetrack>
					<link>
						<linkclipref>MVI_0960 </linkclipref>
						<mediatype>video</mediatype>
						<trackindex>1</trackindex>
						<clipindex>1</clipindex>
					</link>
					<link>
						<linkclipref>MVI_0960 3</linkclipref>
						<mediatype>audio</mediatype>
						<trackindex>1</trackindex>
						<clipindex>1</clipindex>
						<groupindex>1</groupindex>
					</link>
					<link>
						<linkclipref>MVI_0960 4</linkclipref>
						<mediatype>audio</mediatype>
						<trackindex>2</trackindex>
						<clipindex>1</clipindex>
						<groupindex>1</groupindex>
					</link>
					<fielddominance>none</fielddominance>
					<itemhistory>
						<uuid>A3EB382E-AD9C-4143-8A03-2F551243E045</uuid>
						<uuid>8DE8F2CE-63B2-47D4-9BAA-71841FEBFCDA</uuid>
					</itemhistory>
				</clipitem>
				<clipitem id="MVI_0960 5">
					<name>MVI_0960</name>
					<duration>11457</duration>
					<rate>
						<ntsc>TRUE</ntsc>
						<timebase>24</timebase>
					</rate>
					<in>7057</in>
					<out>8072</out>
					<start>7057</start>
					<end>8072</end>
					<pixelaspectratio>Square</pixelaspectratio>
					<anamorphic>FALSE</anamorphic>
					<alphatype>none</alphatype>
					<masterclipid>MVI_0960 1</masterclipid>
					<logginginfo>
						<scene/>
						<shottake/>
						<lognote/>
						<good>FALSE</good>
					</logginginfo>
					<labels>
						<label2/>
					</labels>
					<comments>
						<mastercomment1/>
						<mastercomment2/>
						<mastercomment3/>
						<mastercomment4/>
					</comments>
					<file id="MVI_0960 2"/>
					<marker>
						<name/>
						<comment>nature,&#13;installation,&#13;physicality,</comment>
						<color>
							<alpha>0</alpha>
							<red>255</red>
							<green>0</green>
							<blue>0</blue>
						</color>
						<in>1584</in>
						<out>2376</out>
					</marker>
					<marker>
						<name>Marker 2</name>
						<comment/>
						<color>
							<alpha>0</alpha>
							<red>255</red>
							<green>0</green>
							<blue>0</blue>
						</color>
						<in>3748</in>
						<out>4892</out>
					</marker>
					<marker>
						<name>Marker 3</name>
						<comment/>
						<color>
							<alpha>0</alpha>
							<red>255</red>
							<green>0</green>
							<blue>0</blue>
						</color>
						<in>5325</in>
						<out>6116</out>
					</marker>
					<marker>
						<name>Kids interacting</name>
						<comment>play,&#13;fantasy,&#13;children,&#13;interactivity,&#13;</comment>
						<color>
							<alpha>0</alpha>
							<red>255</red>
							<green>0</green>
							<blue>0</blue>
						</color>
						<in>7318</in>
						<out>7541</out>
					</marker>
					<marker>
						<name>leaving a mark</name>
						<comment>children,&#13;play,&#13;beginnings,</comment>
						<color>
							<alpha>0</alpha>
							<red>255</red>
							<green>0</green>
							<blue>0</blue>
						</color>
						<in>7711</in>
						<out>8079</out>
					</marker>
					<marker>
						<name>learning</name>
						<comment>beginnings,&#13;learning,&#13;golan levin,</comment>
						<color>
							<alpha>0</alpha>
							<red>255</red>
							<green>0</green>
							<blue>0</blue>
						</color>
						<in>10436</in>
						<out>10929</out>
					</marker>
					<sourcetrack>
						<mediatype>video</mediatype>
					</sourcetrack>
					<link>
						<linkclipref>MVI_0960 5</linkclipref>
						<mediatype>video</mediatype>
						<trackindex>1</trackindex>
						<clipindex>2</clipindex>
					</link>
					<link>
						<linkclipref>MVI_0960 6</linkclipref>
						<mediatype>audio</mediatype>
						<trackindex>1</trackindex>
						<clipindex>2</clipindex>
						<groupindex>1</groupindex>
					</link>
					<link>
						<linkclipref>MVI_0960 7</linkclipref>
						<mediatype>audio</mediatype>
						<trackindex>2</trackindex>
						<clipindex>2</clipindex>
						<groupindex>1</groupindex>
					</link>
					<fielddominance>none</fielddominance>
					<itemhistory>
						<uuid>0015571F-F582-4F8E-B0C7-3DD660B7BE09</uuid>
						<uuid>8DE8F2CE-63B2-47D4-9BAA-71841FEBFCDA</uuid>
					</itemhistory>
				</clipitem>
				<clipitem id="MVI_0960 8">
					<name>MVI_0960</name>
					<duration>11457</duration>
					<rate>
						<ntsc>TRUE</ntsc>
						<timebase>24</timebase>
					</rate>
					<in>8072</in>
					<out>11457</out>
					<start>8072</start>
					<end>11457</end>
					<pixelaspectratio>Square</pixelaspectratio>
					<anamorphic>FALSE</anamorphic>
					<alphatype>none</alphatype>
					<masterclipid>MVI_0960 1</masterclipid>
					<logginginfo>
						<scene/>
						<shottake/>
						<lognote/>
						<good>FALSE</good>
					</logginginfo>
					<labels>
						<label2/>
					</labels>
					<comments>
						<mastercomment1/>
						<mastercomment2/>
						<mastercomment3/>
						<mastercomment4/>
					</comments>
					<file id="MVI_0960 2"/>
					<marker>
						<name/>
						<comment>nature,&#13;installation,&#13;physicality,</comment>
						<color>
							<alpha>0</alpha>
							<red>255</red>
							<green>0</green>
							<blue>0</blue>
						</color>
						<in>1584</in>
						<out>2376</out>
					</marker>
					<marker>
						<name>Marker 2</name>
						<comment/>
						<color>
							<alpha>0</alpha>
							<red>255</red>
							<green>0</green>
							<blue>0</blue>
						</color>
						<in>3748</in>
						<out>4892</out>
					</marker>
					<marker>
						<name>Marker 3</name>
						<comment/>
						<color>
							<alpha>0</alpha>
							<red>255</red>
							<green>0</green>
							<blue>0</blue>
						</color>
						<in>5325</in>
						<out>6116</out>
					</marker>
					<marker>
						<name>Kids interacting</name>
						<comment>play,&#13;fantasy,&#13;children,&#13;interactivity,&#13;</comment>
						<color>
							<alpha>0</alpha>
							<red>255</red>
							<green>0</green>
							<blue>0</blue>
						</color>
						<in>7318</in>
						<out>7541</out>
					</marker>
					<marker>
						<name>leaving a mark</name>
						<comment>children,&#13;play,&#13;beginnings,</comment>
						<color>
							<alpha>0</alpha>
							<red>255</red>
							<green>0</green>
							<blue>0</blue>
						</color>
						<in>7711</in>
						<out>8079</out>
					</marker>
					<marker>
						<name>learning</name>
						<comment>beginnings,&#13;learning,&#13;golan levin,</comment>
						<color>
							<alpha>0</alpha>
							<red>255</red>
							<green>0</green>
							<blue>0</blue>
						</color>
						<in>10436</in>
						<out>10929</out>
					</marker>
					<sourcetrack>
						<mediatype>video</mediatype>
					</sourcetrack>
					<link>
						<linkclipref>MVI_0960 8</linkclipref>
						<mediatype>video</mediatype>
						<trackindex>1</trackindex>
						<clipindex>3</clipindex>
					</link>
					<link>
						<linkclipref>MVI_0960 9</linkclipref>
						<mediatype>audio</mediatype>
						<trackindex>1</trackindex>
						<clipindex>3</clipindex>
						<groupindex>1</groupindex>
					</link>
					<link>
						<linkclipref>MVI_0960 10</linkclipref>
						<mediatype>audio</mediatype>
						<trackindex>2</trackindex>
						<clipindex>3</clipindex>
						<groupindex>1</groupindex>
					</link>
					<fielddominance>none</fielddominance>
					<itemhistory>
						<uuid>FD439B83-BE79-4888-94C0-965894143193</uuid>
						<uuid>8DE8F2CE-63B2-47D4-9BAA-71841FEBFCDA</uuid>
					</itemhistory>
				</clipitem>
				<clipitem id="MVI_0961 ">
					<name>MVI_0961</name>
					<duration>13999</duration>
					<rate>
						<ntsc>TRUE</ntsc>
						<timebase>24</timebase>
					</rate>
					<in>0</in>
					<out>13999</out>
					<start>11457</start>
					<end>25456</end>
					<pixelaspectratio>Square</pixelaspectratio>
					<anamorphic>FALSE</anamorphic>
					<alphatype>none</alphatype>
					<masterclipid>MVI_0961 1</masterclipid>
					<logginginfo>
						<scene/>
						<shottake/>
						<lognote/>
						<good>FALSE</good>
					</logginginfo>
					<labels>
						<label2/>
					</labels>
					<comments>
						<mastercomment1/>
						<mastercomment2/>
						<mastercomment3/>
						<mastercomment4/>
					</comments>
					<file id="MVI_0961 2">
						<name>MVI_0961.mov</name>
						<pathurl>file://localhost/Volumes/Nebula/MediaPackages/EyeoMediaBin/Theo02/color/MVI_0961.mov</pathurl>
						<rate>
							<timebase>24</timebase>
							<ntsc>TRUE</ntsc>
						</rate>
						<duration>13999</duration>
						<media>
							<video>
								<duration>13999</duration>
								<samplecharacteristics>
									<width>1920</width>
									<height>1080</height>
								</samplecharacteristics>
							</video>
							<audio>
								<samplecharacteristics>
									<samplerate>48000</samplerate>
									<depth>16</depth>
								</samplecharacteristics>
								<channelcount>2</channelcount>
							</audio>
						</media>
					</file>
					<marker>
						<name>addictive process</name>
						<comment>addiction,&#13;invention,&#13;process,</comment>
						<color>
							<alpha>0</alpha>
							<red>255</red>
							<green>0</green>
							<blue>0</blue>
						</color>
						<in>1268</in>
						<out>2037</out>
					</marker>
					<marker>
						<name>eyewriter and laser tag</name>
						<comment>eyewriter</comment>
						<color>
							<alpha>0</alpha>
							<red>255</red>
							<green>0</green>
							<blue>0</blue>
						</color>
						<in>2809</in>
						<out>3144</out>
					</marker>
					<marker>
						<name>struggle with technology</name>
						<comment>dysfunction,&#13;stress,&#13;uncertainty,&#13;struggle with technology</comment>
						<color>
							<alpha>0</alpha>
							<red>255</red>
							<green>0</green>
							<blue>0</blue>
						</color>
						<in>3448</in>
						<out>4128</out>
					</marker>
					<marker>
						<name>newness</name>
						<comment>newness,&#13;novelty,&#13;technological progress,</comment>
						<color>
							<alpha>0</alpha>
							<red>255</red>
							<green>0</green>
							<blue>0</blue>
						</color>
						<in>4893</in>
						<out>6105</out>
					</marker>
					<marker>
						<name>3D sensing</name>
						<comment>immersion,&#13;3D sensing,&#13;interactivity,</comment>
						<color>
							<alpha>0</alpha>
							<red>255</red>
							<green>0</green>
							<blue>0</blue>
						</color>
						<in>10522</in>
						<out>11106</out>
					</marker>
					<marker>
						<name>hide the technology,</name>
						<comment>experience,&#13;immersion,&#13;interactivity,&#13;interfaces,</comment>
						<color>
							<alpha>0</alpha>
							<red>255</red>
							<green>0</green>
							<blue>0</blue>
						</color>
						<in>11283</in>
						<out>12003</out>
					</marker>
					<marker>
						<name>open frameworks</name>
						<comment>open frameworks,&#13;open source,&#13;toolkit,</comment>
						<color>
							<alpha>0</alpha>
							<red>255</red>
							<green>0</green>
							<blue>0</blue>
						</color>
						<in>12398</in>
						<out>13597</out>
					</marker>
					<sourcetrack>
						<mediatype>video</mediatype>
					</sourcetrack>
					<link>
						<linkclipref>MVI_0961 </linkclipref>
						<mediatype>video</mediatype>
						<trackindex>1</trackindex>
						<clipindex>4</clipindex>
					</link>
					<link>
						<linkclipref>MVI_0961 3</linkclipref>
						<mediatype>audio</mediatype>
						<trackindex>1</trackindex>
						<clipindex>4</clipindex>
						<groupindex>1</groupindex>
					</link>
					<link>
						<linkclipref>MVI_0961 4</linkclipref>
						<mediatype>audio</mediatype>
						<trackindex>2</trackindex>
						<clipindex>4</clipindex>
						<groupindex>1</groupindex>
					</link>
					<fielddominance>none</fielddominance>
					<itemhistory>
						<uuid>A27FA4C2-6B60-41F9-97CA-975D83C89F09</uuid>
					</itemhistory>
				</clipitem>
				<clipitem id="MVI_0962 ">
					<name>MVI_0962</name>
					<duration>9304</duration>
					<rate>
						<ntsc>TRUE</ntsc>
						<timebase>24</timebase>
					</rate>
					<in>0</in>
					<out>9304</out>
					<start>25456</start>
					<end>34760</end>
					<pixelaspectratio>Square</pixelaspectratio>
					<anamorphic>FALSE</anamorphic>
					<alphatype>none</alphatype>
					<masterclipid>MVI_0962 1</masterclipid>
					<logginginfo>
						<scene/>
						<shottake/>
						<lognote/>
						<good>FALSE</good>
					</logginginfo>
					<labels>
						<label2/>
					</labels>
					<comments>
						<mastercomment1/>
						<mastercomment2/>
						<mastercomment3/>
						<mastercomment4/>
					</comments>
					<file id="MVI_0962 2">
						<name>MVI_0962.mov</name>
						<pathurl>file://localhost/Volumes/Nebula/MediaPackages/EyeoMediaBin/Theo03/color/MVI_0962.mov</pathurl>
						<rate>
							<timebase>24</timebase>
							<ntsc>TRUE</ntsc>
						</rate>
						<duration>9304</duration>
						<media>
							<video>
								<duration>9304</duration>
								<samplecharacteristics>
									<width>1920</width>
									<height>1080</height>
								</samplecharacteristics>
							</video>
							<audio>
								<samplecharacteristics>
									<samplerate>48000</samplerate>
									<depth>16</depth>
								</samplecharacteristics>
								<channelcount>2</channelcount>
							</audio>
						</media>
					</file>
					<marker>
						<name>development feedback,</name>
						<comment>open frameworks,&#13;open source,&#13;</comment>
						<color>
							<alpha>0</alpha>
							<red>255</red>
							<green>0</green>
							<blue>0</blue>
						</color>
						<in>1247</in>
						<out>1539</out>
					</marker>
					<marker>
						<name>Marker 2</name>
						<comment/>
						<color>
							<alpha>0</alpha>
							<red>255</red>
							<green>0</green>
							<blue>0</blue>
						</color>
						<in>3688</in>
						<out>4263</out>
					</marker>
					<marker>
						<name>generative and pre-rendered</name>
						<comment>design,&#13;style</comment>
						<color>
							<alpha>0</alpha>
							<red>255</red>
							<green>0</green>
							<blue>0</blue>
						</color>
						<in>7054</in>
						<out>7381</out>
					</marker>
					<sourcetrack>
						<mediatype>video</mediatype>
					</sourcetrack>
					<link>
						<linkclipref>MVI_0962 </linkclipref>
						<mediatype>video</mediatype>
						<trackindex>1</trackindex>
						<clipindex>5</clipindex>
					</link>
					<link>
						<linkclipref>MVI_0962 3</linkclipref>
						<mediatype>audio</mediatype>
						<trackindex>1</trackindex>
						<clipindex>5</clipindex>
						<groupindex>1</groupindex>
					</link>
					<link>
						<linkclipref>MVI_0962 4</linkclipref>
						<mediatype>audio</mediatype>
						<trackindex>2</trackindex>
						<clipindex>5</clipindex>
						<groupindex>1</groupindex>
					</link>
					<fielddominance>none</fielddominance>
					<itemhistory>
						<uuid>2BFFCCE0-D5BA-4015-A6A3-227B5B21A4AD</uuid>
					</itemhistory>
				</clipitem>
				<clipitem id="MVI_0963 ">
					<name>MVI_0963</name>
					<duration>15379</duration>
					<rate>
						<ntsc>TRUE</ntsc>
						<timebase>24</timebase>
					</rate>
					<in>0</in>
					<out>15379</out>
					<start>34760</start>
					<end>50139</end>
					<pixelaspectratio>Square</pixelaspectratio>
					<anamorphic>FALSE</anamorphic>
					<alphatype>none</alphatype>
					<masterclipid>MVI_0963 1</masterclipid>
					<logginginfo>
						<scene/>
						<shottake/>
						<lognote/>
						<good>FALSE</good>
					</logginginfo>
					<labels>
						<label2/>
					</labels>
					<comments>
						<mastercomment1/>
						<mastercomment2/>
						<mastercomment3/>
						<mastercomment4/>
					</comments>
					<file id="MVI_0963 2">
						<name>MVI_0963.mov</name>
						<pathurl>file://localhost/Volumes/Nebula/MediaPackages/EyeoMediaBin/Theo04/color/MVI_0963.mov</pathurl>
						<rate>
							<timebase>24</timebase>
							<ntsc>TRUE</ntsc>
						</rate>
						<duration>15379</duration>
						<media>
							<video>
								<duration>15379</duration>
								<samplecharacteristics>
									<width>1920</width>
									<height>1080</height>
								</samplecharacteristics>
							</video>
							<audio>
								<samplecharacteristics>
									<samplerate>48000</samplerate>
									<depth>16</depth>
								</samplecharacteristics>
								<channelcount>2</channelcount>
							</audio>
						</media>
					</file>
					<marker>
						<name>new media and old media,</name>
						<comment>how does new media fit into a traditional art context?,&#13;new media old media,&#13;cultural value,&#13;link: John Maeda "Digital Divide",&#13;art world,&#13;</comment>
						<color>
							<alpha>0</alpha>
							<red>255</red>
							<green>0</green>
							<blue>0</blue>
						</color>
						<in>4465</in>
						<out>5166</out>
					</marker>
					<marker>
						<name>art world</name>
						<comment>new media old media,&#13;</comment>
						<color>
							<alpha>0</alpha>
							<red>255</red>
							<green>0</green>
							<blue>0</blue>
						</color>
						<in>5610</in>
						<out>5833</out>
					</marker>
					<marker>
						<name>crazy researcher</name>
						<comment>future,&#13;classificiation,&#13;science fiction,&#13;invention&#13;&#13;</comment>
						<color>
							<alpha>0</alpha>
							<red>255</red>
							<green>0</green>
							<blue>0</blue>
						</color>
						<in>7900</in>
						<out>8609</out>
					</marker>
					<marker>
						<name>eyebeam R&amp;D</name>
						<comment>eyebeam,&#13;video art,&#13;R&amp;D,</comment>
						<color>
							<alpha>0</alpha>
							<red>255</red>
							<green>0</green>
							<blue>0</blue>
						</color>
						<in>9720</in>
						<out>10884</out>
					</marker>
					<marker>
						<name>approach to art</name>
						<comment>art world,&#13;career,&#13;concept,&#13;maker,&#13;thinkerer,</comment>
						<color>
							<alpha>0</alpha>
							<red>255</red>
							<green>0</green>
							<blue>0</blue>
						</color>
						<in>12709</in>
						<out>13733</out>
					</marker>
					<marker>
						<name>FFFFAT</name>
						<comment>prank,&#13;net.art,&#13;irony,&#13;humor,&#13;hack,&#13;</comment>
						<color>
							<alpha>0</alpha>
							<red>255</red>
							<green>0</green>
							<blue>0</blue>
						</color>
						<in>13952</in>
						<out>15084</out>
					</marker>
					<sourcetrack>
						<mediatype>video</mediatype>
					</sourcetrack>
					<link>
						<linkclipref>MVI_0963 </linkclipref>
						<mediatype>video</mediatype>
						<trackindex>1</trackindex>
						<clipindex>6</clipindex>
					</link>
					<link>
						<linkclipref>MVI_0963 3</linkclipref>
						<mediatype>audio</mediatype>
						<trackindex>1</trackindex>
						<clipindex>6</clipindex>
						<groupindex>1</groupindex>
					</link>
					<link>
						<linkclipref>MVI_0963 4</linkclipref>
						<mediatype>audio</mediatype>
						<trackindex>2</trackindex>
						<clipindex>6</clipindex>
						<groupindex>1</groupindex>
					</link>
					<fielddominance>none</fielddominance>
					<itemhistory>
						<uuid>6CDEEFE0-D34D-4322-B648-E281F3952726</uuid>
					</itemhistory>
				</clipitem>
				<enabled>TRUE</enabled>
				<locked>FALSE</locked>
			</track>
			<track>
				<clipitem id="MVI_0960 11">
					<name>MVI_0960</name>
					<duration>11457</duration>
					<rate>
						<ntsc>TRUE</ntsc>
						<timebase>24</timebase>
					</rate>
					<in>0</in>
					<out>7057</out>
					<start>0</start>
					<end>7057</end>
					<pixelaspectratio>Square</pixelaspectratio>
					<anamorphic>FALSE</anamorphic>
					<alphatype>none</alphatype>
					<masterclipid>MVI_0960 1</masterclipid>
					<logginginfo>
						<scene/>
						<shottake/>
						<lognote/>
						<good>FALSE</good>
					</logginginfo>
					<labels>
						<label2/>
					</labels>
					<comments>
						<mastercomment1/>
						<mastercomment2/>
						<mastercomment3/>
						<mastercomment4/>
					</comments>
					<file id="MVI_0960 2"/>
					<marker>
						<name>hidden technology</name>
						<comment>magic,&#13;experiential,</comment>
						<color>
							<alpha>0</alpha>
							<red>255</red>
							<green>0</green>
							<blue>0</blue>
						</color>
						<in>2266</in>
						<out>2376</out>
					</marker>
					<marker>
						<name>evolution</name>
						<comment>evolution,&#13;biology,&#13;nature</comment>
						<color>
							<alpha>0</alpha>
							<red>255</red>
							<green>0</green>
							<blue>0</blue>
						</color>
						<in>4417</in>
						<out>4892</out>
					</marker>
					<marker>
						<name>magic</name>
						<comment>nature,&#13;virtual reality,&#13;simulation,&#13;magic,&#13;surprise&#13;</comment>
						<color>
							<alpha>0</alpha>
							<red>255</red>
							<green>0</green>
							<blue>0</blue>
						</color>
						<in>5492</in>
						<out>6114</out>
					</marker>
					<sourcetrack>
						<mediatype>video</mediatype>
					</sourcetrack>
					<fielddominance>none</fielddominance>
					<itemhistory>
						<uuid>8F438230-8EE1-44A4-97B2-9EE564319EB2</uuid>
						<uuid>359D3622-090C-4F45-A5DF-273CC7179351</uuid>
					</itemhistory>
				</clipitem>
				<clipitem id="MVI_0960 12">
					<name>MVI_0960</name>
					<duration>11457</duration>
					<rate>
						<ntsc>TRUE</ntsc>
						<timebase>24</timebase>
					</rate>
					<in>7057</in>
					<out>8072</out>
					<start>7057</start>
					<end>8072</end>
					<pixelaspectratio>Square</pixelaspectratio>
					<anamorphic>FALSE</anamorphic>
					<alphatype>none</alphatype>
					<masterclipid>MVI_0960 1</masterclipid>
					<logginginfo>
						<scene/>
						<shottake/>
						<lognote/>
						<good>FALSE</good>
					</logginginfo>
					<labels>
						<label2/>
					</labels>
					<comments>
						<mastercomment1/>
						<mastercomment2/>
						<mastercomment3/>
						<mastercomment4/>
					</comments>
					<file id="MVI_0960 2"/>
					<marker>
						<name>hidden technology</name>
						<comment>magic,&#13;experiential,</comment>
						<color>
							<alpha>0</alpha>
							<red>255</red>
							<green>0</green>
							<blue>0</blue>
						</color>
						<in>2266</in>
						<out>2376</out>
					</marker>
					<marker>
						<name>evolution</name>
						<comment>evolution,&#13;biology,&#13;nature</comment>
						<color>
							<alpha>0</alpha>
							<red>255</red>
							<green>0</green>
							<blue>0</blue>
						</color>
						<in>4417</in>
						<out>4892</out>
					</marker>
					<marker>
						<name>magic</name>
						<comment>nature,&#13;virtual reality,&#13;simulation,&#13;magic,&#13;surprise&#13;</comment>
						<color>
							<alpha>0</alpha>
							<red>255</red>
							<green>0</green>
							<blue>0</blue>
						</color>
						<in>5492</in>
						<out>6114</out>
					</marker>
					<sourcetrack>
						<mediatype>video</mediatype>
					</sourcetrack>
					<fielddominance>none</fielddominance>
					<itemhistory>
						<uuid>44C4A9C0-ECE5-4F70-93E2-F4ED5C4F8689</uuid>
						<uuid>359D3622-090C-4F45-A5DF-273CC7179351</uuid>
					</itemhistory>
				</clipitem>
				<clipitem id="MVI_0960 13">
					<name>MVI_0960</name>
					<duration>11457</duration>
					<rate>
						<ntsc>TRUE</ntsc>
						<timebase>24</timebase>
					</rate>
					<in>8072</in>
					<out>11457</out>
					<start>8072</start>
					<end>11457</end>
					<pixelaspectratio>Square</pixelaspectratio>
					<anamorphic>FALSE</anamorphic>
					<alphatype>none</alphatype>
					<masterclipid>MVI_0960 1</masterclipid>
					<logginginfo>
						<scene/>
						<shottake/>
						<lognote/>
						<good>FALSE</good>
					</logginginfo>
					<labels>
						<label2/>
					</labels>
					<comments>
						<mastercomment1/>
						<mastercomment2/>
						<mastercomment3/>
						<mastercomment4/>
					</comments>
					<file id="MVI_0960 2"/>
					<marker>
						<name>hidden technology</name>
						<comment>magic,&#13;experiential,</comment>
						<color>
							<alpha>0</alpha>
							<red>255</red>
							<green>0</green>
							<blue>0</blue>
						</color>
						<in>2266</in>
						<out>2376</out>
					</marker>
					<marker>
						<name>evolution</name>
						<comment>evolution,&#13;biology,&#13;nature</comment>
						<color>
							<alpha>0</alpha>
							<red>255</red>
							<green>0</green>
							<blue>0</blue>
						</color>
						<in>4417</in>
						<out>4892</out>
					</marker>
					<marker>
						<name>magic</name>
						<comment>nature,&#13;virtual reality,&#13;simulation,&#13;magic,&#13;surprise&#13;</comment>
						<color>
							<alpha>0</alpha>
							<red>255</red>
							<green>0</green>
							<blue>0</blue>
						</color>
						<in>5492</in>
						<out>6114</out>
					</marker>
					<sourcetrack>
						<mediatype>video</mediatype>
					</sourcetrack>
					<fielddominance>none</fielddominance>
					<itemhistory>
						<uuid>25A61BEB-95B1-4DB1-B680-4FB88CCA4F8C</uuid>
						<uuid>359D3622-090C-4F45-A5DF-273CC7179351</uuid>
					</itemhistory>
				</clipitem>
				<enabled>TRUE</enabled>
				<locked>FALSE</locked>
			</track>
		</video>
		<audio>
			<format>
				<samplecharacteristics>
					<depth>16</depth>
					<samplerate>48000</samplerate>
				</samplecharacteristics>
			</format>
			<outputs>
				<group>
					<index>1</index>
					<numchannels>2</numchannels>
					<downmix>0</downmix>
					<channel>
						<index>1</index>
					</channel>
					<channel>
						<index>2</index>
					</channel>
				</group>
			</outputs>
			<in>-1</in>
			<out>-1</out>
			<track>
				<clipitem id="MVI_0960 3">
					<name>MVI_0960</name>
					<duration>11457</duration>
					<rate>
						<ntsc>TRUE</ntsc>
						<timebase>24</timebase>
					</rate>
					<in>0</in>
					<out>7057</out>
					<start>0</start>
					<end>7057</end>
					<masterclipid>MVI_0960 1</masterclipid>
					<logginginfo>
						<scene/>
						<shottake/>
						<lognote/>
						<good>FALSE</good>
					</logginginfo>
					<labels>
						<label2/>
					</labels>
					<comments>
						<mastercomment1/>
						<mastercomment2/>
						<mastercomment3/>
						<mastercomment4/>
					</comments>
					<file id="MVI_0960 2"/>
					<marker>
						<name/>
						<comment>nature,&#13;installation,&#13;physicality,</comment>
						<color>
							<alpha>0</alpha>
							<red>255</red>
							<green>0</green>
							<blue>0</blue>
						</color>
						<in>1584</in>
						<out>2376</out>
					</marker>
					<marker>
						<name>Marker 2</name>
						<comment/>
						<color>
							<alpha>0</alpha>
							<red>255</red>
							<green>0</green>
							<blue>0</blue>
						</color>
						<in>3748</in>
						<out>4892</out>
					</marker>
					<marker>
						<name>Marker 3</name>
						<comment/>
						<color>
							<alpha>0</alpha>
							<red>255</red>
							<green>0</green>
							<blue>0</blue>
						</color>
						<in>5325</in>
						<out>6116</out>
					</marker>
					<marker>
						<name>Kids interacting</name>
						<comment>play,&#13;fantasy,&#13;children,&#13;interactivity,&#13;</comment>
						<color>
							<alpha>0</alpha>
							<red>255</red>
							<green>0</green>
							<blue>0</blue>
						</color>
						<in>7318</in>
						<out>7541</out>
					</marker>
					<marker>
						<name>leaving a mark</name>
						<comment>children,&#13;play,&#13;beginnings,</comment>
						<color>
							<alpha>0</alpha>
							<red>255</red>
							<green>0</green>
							<blue>0</blue>
						</color>
						<in>7711</in>
						<out>8079</out>
					</marker>
					<marker>
						<name>learning</name>
						<comment>beginnings,&#13;learning,&#13;golan levin,</comment>
						<color>
							<alpha>0</alpha>
							<red>255</red>
							<green>0</green>
							<blue>0</blue>
						</color>
						<in>10436</in>
						<out>10929</out>
					</marker>
					<filter>
						<effect>
							<name>Audio Levels</name>
							<effectid>audiolevels</effectid>
							<effectcategory>audiolevels</effectcategory>
							<effecttype>audiolevels</effecttype>
							<mediatype>audio</mediatype>
							<parameter>
								<name>Level</name>
								<parameterid>level</parameterid>
								<valuemin>0</valuemin>
								<valuemax>3.98109</valuemax>
								<value>1</value>
							</parameter>
						</effect>
					</filter>
					<filter>
						<effect>
							<name>Audio Pan</name>
							<effectid>audiopan</effectid>
							<effectcategory>audiopan</effectcategory>
							<effecttype>audiopan</effecttype>
							<mediatype>audio</mediatype>
							<parameter>
								<name>Pan</name>
								<parameterid>pan</parameterid>
								<valuemin>-1</valuemin>
								<valuemax>1</valuemax>
								<value>-1</value>
							</parameter>
						</effect>
					</filter>
					<sourcetrack>
						<mediatype>audio</mediatype>
						<trackindex>1</trackindex>
					</sourcetrack>
					<link>
						<linkclipref>MVI_0960 </linkclipref>
						<mediatype>video</mediatype>
						<trackindex>1</trackindex>
						<clipindex>1</clipindex>
					</link>
					<link>
						<linkclipref>MVI_0960 3</linkclipref>
						<mediatype>audio</mediatype>
						<trackindex>1</trackindex>
						<clipindex>1</clipindex>
						<groupindex>1</groupindex>
					</link>
					<link>
						<linkclipref>MVI_0960 4</linkclipref>
						<mediatype>audio</mediatype>
						<trackindex>2</trackindex>
						<clipindex>1</clipindex>
						<groupindex>1</groupindex>
					</link>
					<itemhistory>
						<uuid>BC64788E-8565-4F38-8B2E-280B6139B722</uuid>
						<uuid>D24D2737-C327-417E-9FAF-D4D445257F14</uuid>
					</itemhistory>
				</clipitem>
				<clipitem id="MVI_0960 6">
					<name>MVI_0960</name>
					<duration>11457</duration>
					<rate>
						<ntsc>TRUE</ntsc>
						<timebase>24</timebase>
					</rate>
					<in>7057</in>
					<out>8072</out>
					<start>7057</start>
					<end>8072</end>
					<masterclipid>MVI_0960 1</masterclipid>
					<logginginfo>
						<scene/>
						<shottake/>
						<lognote/>
						<good>FALSE</good>
					</logginginfo>
					<labels>
						<label2/>
					</labels>
					<comments>
						<mastercomment1/>
						<mastercomment2/>
						<mastercomment3/>
						<mastercomment4/>
					</comments>
					<file id="MVI_0960 2"/>
					<marker>
						<name/>
						<comment>nature,&#13;installation,&#13;physicality,</comment>
						<color>
							<alpha>0</alpha>
							<red>255</red>
							<green>0</green>
							<blue>0</blue>
						</color>
						<in>1584</in>
						<out>2376</out>
					</marker>
					<marker>
						<name>Marker 2</name>
						<comment/>
						<color>
							<alpha>0</alpha>
							<red>255</red>
							<green>0</green>
							<blue>0</blue>
						</color>
						<in>3748</in>
						<out>4892</out>
					</marker>
					<marker>
						<name>Marker 3</name>
						<comment/>
						<color>
							<alpha>0</alpha>
							<red>255</red>
							<green>0</green>
							<blue>0</blue>
						</color>
						<in>5325</in>
						<out>6116</out>
					</marker>
					<marker>
						<name>Kids interacting</name>
						<comment>play,&#13;fantasy,&#13;children,&#13;interactivity,&#13;</comment>
						<color>
							<alpha>0</alpha>
							<red>255</red>
							<green>0</green>
							<blue>0</blue>
						</color>
						<in>7318</in>
						<out>7541</out>
					</marker>
					<marker>
						<name>leaving a mark</name>
						<comment>children,&#13;play,&#13;beginnings,</comment>
						<color>
							<alpha>0</alpha>
							<red>255</red>
							<green>0</green>
							<blue>0</blue>
						</color>
						<in>7711</in>
						<out>8079</out>
					</marker>
					<marker>
						<name>learning</name>
						<comment>beginnings,&#13;learning,&#13;golan levin,</comment>
						<color>
							<alpha>0</alpha>
							<red>255</red>
							<green>0</green>
							<blue>0</blue>
						</color>
						<in>10436</in>
						<out>10929</out>
					</marker>
					<filter>
						<effect>
							<name>Audio Levels</name>
							<effectid>audiolevels</effectid>
							<effectcategory>audiolevels</effectcategory>
							<effecttype>audiolevels</effecttype>
							<mediatype>audio</mediatype>
							<parameter>
								<name>Level</name>
								<parameterid>level</parameterid>
								<valuemin>0</valuemin>
								<valuemax>3.98109</valuemax>
								<value>1</value>
							</parameter>
						</effect>
					</filter>
					<filter>
						<effect>
							<name>Audio Pan</name>
							<effectid>audiopan</effectid>
							<effectcategory>audiopan</effectcategory>
							<effecttype>audiopan</effecttype>
							<mediatype>audio</mediatype>
							<parameter>
								<name>Pan</name>
								<parameterid>pan</parameterid>
								<valuemin>-1</valuemin>
								<valuemax>1</valuemax>
								<value>-1</value>
							</parameter>
						</effect>
					</filter>
					<sourcetrack>
						<mediatype>audio</mediatype>
						<trackindex>1</trackindex>
					</sourcetrack>
					<link>
						<linkclipref>MVI_0960 5</linkclipref>
						<mediatype>video</mediatype>
						<trackindex>1</trackindex>
						<clipindex>2</clipindex>
					</link>
					<link>
						<linkclipref>MVI_0960 6</linkclipref>
						<mediatype>audio</mediatype>
						<trackindex>1</trackindex>
						<clipindex>2</clipindex>
						<groupindex>1</groupindex>
					</link>
					<link>
						<linkclipref>MVI_0960 7</linkclipref>
						<mediatype>audio</mediatype>
						<trackindex>2</trackindex>
						<clipindex>2</clipindex>
						<groupindex>1</groupindex>
					</link>
					<itemhistory>
						<uuid>3E613429-D737-4BF2-9899-2AE47FA81529</uuid>
						<uuid>D24D2737-C327-417E-9FAF-D4D445257F14</uuid>
					</itemhistory>
				</clipitem>
				<clipitem id="MVI_0960 9">
					<name>MVI_0960</name>
					<duration>11457</duration>
					<rate>
						<ntsc>TRUE</ntsc>
						<timebase>24</timebase>
					</rate>
					<in>8072</in>
					<out>11457</out>
					<start>8072</start>
					<end>11457</end>
					<masterclipid>MVI_0960 1</masterclipid>
					<logginginfo>
						<scene/>
						<shottake/>
						<lognote/>
						<good>FALSE</good>
					</logginginfo>
					<labels>
						<label2/>
					</labels>
					<comments>
						<mastercomment1/>
						<mastercomment2/>
						<mastercomment3/>
						<mastercomment4/>
					</comments>
					<file id="MVI_0960 2"/>
					<marker>
						<name/>
						<comment>nature,&#13;installation,&#13;physicality,</comment>
						<color>
							<alpha>0</alpha>
							<red>255</red>
							<green>0</green>
							<blue>0</blue>
						</color>
						<in>1584</in>
						<out>2376</out>
					</marker>
					<marker>
						<name>Marker 2</name>
						<comment/>
						<color>
							<alpha>0</alpha>
							<red>255</red>
							<green>0</green>
							<blue>0</blue>
						</color>
						<in>3748</in>
						<out>4892</out>
					</marker>
					<marker>
						<name>Marker 3</name>
						<comment/>
						<color>
							<alpha>0</alpha>
							<red>255</red>
							<green>0</green>
							<blue>0</blue>
						</color>
						<in>5325</in>
						<out>6116</out>
					</marker>
					<marker>
						<name>Kids interacting</name>
						<comment>play,&#13;fantasy,&#13;children,&#13;interactivity,&#13;</comment>
						<color>
							<alpha>0</alpha>
							<red>255</red>
							<green>0</green>
							<blue>0</blue>
						</color>
						<in>7318</in>
						<out>7541</out>
					</marker>
					<marker>
						<name>leaving a mark</name>
						<comment>children,&#13;play,&#13;beginnings,</comment>
						<color>
							<alpha>0</alpha>
							<red>255</red>
							<green>0</green>
							<blue>0</blue>
						</color>
						<in>7711</in>
						<out>8079</out>
					</marker>
					<marker>
						<name>learning</name>
						<comment>beginnings,&#13;learning,&#13;golan levin,</comment>
						<color>
							<alpha>0</alpha>
							<red>255</red>
							<green>0</green>
							<blue>0</blue>
						</color>
						<in>10436</in>
						<out>10929</out>
					</marker>
					<filter>
						<effect>
							<name>Audio Levels</name>
							<effectid>audiolevels</effectid>
							<effectcategory>audiolevels</effectcategory>
							<effecttype>audiolevels</effecttype>
							<mediatype>audio</mediatype>
							<parameter>
								<name>Level</name>
								<parameterid>level</parameterid>
								<valuemin>0</valuemin>
								<valuemax>3.98109</valuemax>
								<value>1</value>
							</parameter>
						</effect>
					</filter>
					<filter>
						<effect>
							<name>Audio Pan</name>
							<effectid>audiopan</effectid>
							<effectcategory>audiopan</effectcategory>
							<effecttype>audiopan</effecttype>
							<mediatype>audio</mediatype>
							<parameter>
								<name>Pan</name>
								<parameterid>pan</parameterid>
								<valuemin>-1</valuemin>
								<valuemax>1</valuemax>
								<value>-1</value>
							</parameter>
						</effect>
					</filter>
					<sourcetrack>
						<mediatype>audio</mediatype>
						<trackindex>1</trackindex>
					</sourcetrack>
					<link>
						<linkclipref>MVI_0960 8</linkclipref>
						<mediatype>video</mediatype>
						<trackindex>1</trackindex>
						<clipindex>3</clipindex>
					</link>
					<link>
						<linkclipref>MVI_0960 9</linkclipref>
						<mediatype>audio</mediatype>
						<trackindex>1</trackindex>
						<clipindex>3</clipindex>
						<groupindex>1</groupindex>
					</link>
					<link>
						<linkclipref>MVI_0960 10</linkclipref>
						<mediatype>audio</mediatype>
						<trackindex>2</trackindex>
						<clipindex>3</clipindex>
						<groupindex>1</groupindex>
					</link>
					<itemhistory>
						<uuid>147BE9E5-4105-4AF5-80EE-9D181AF7A384</uuid>
						<uuid>D24D2737-C327-417E-9FAF-D4D445257F14</uuid>
					</itemhistory>
				</clipitem>
				<clipitem id="MVI_0961 3">
					<name>MVI_0961</name>
					<duration>13999</duration>
					<rate>
						<ntsc>TRUE</ntsc>
						<timebase>24</timebase>
					</rate>
					<in>0</in>
					<out>13999</out>
					<start>11457</start>
					<end>25456</end>
					<masterclipid>MVI_0961 1</masterclipid>
					<logginginfo>
						<scene/>
						<shottake/>
						<lognote/>
						<good>FALSE</good>
					</logginginfo>
					<labels>
						<label2/>
					</labels>
					<comments>
						<mastercomment1/>
						<mastercomment2/>
						<mastercomment3/>
						<mastercomment4/>
					</comments>
					<file id="MVI_0961 2"/>
					<marker>
						<name>addictive process</name>
						<comment>addiction,&#13;invention,&#13;process,</comment>
						<color>
							<alpha>0</alpha>
							<red>255</red>
							<green>0</green>
							<blue>0</blue>
						</color>
						<in>1268</in>
						<out>2037</out>
					</marker>
					<marker>
						<name>eyewriter and laser tag</name>
						<comment>eyewriter</comment>
						<color>
							<alpha>0</alpha>
							<red>255</red>
							<green>0</green>
							<blue>0</blue>
						</color>
						<in>2809</in>
						<out>3144</out>
					</marker>
					<marker>
						<name>struggle with technology</name>
						<comment>dysfunction,&#13;stress,&#13;uncertainty,&#13;struggle with technology</comment>
						<color>
							<alpha>0</alpha>
							<red>255</red>
							<green>0</green>
							<blue>0</blue>
						</color>
						<in>3448</in>
						<out>4128</out>
					</marker>
					<marker>
						<name>newness</name>
						<comment>newness,&#13;novelty,&#13;technological progress,</comment>
						<color>
							<alpha>0</alpha>
							<red>255</red>
							<green>0</green>
							<blue>0</blue>
						</color>
						<in>4893</in>
						<out>6105</out>
					</marker>
					<marker>
						<name>3D sensing</name>
						<comment>immersion,&#13;3D sensing,&#13;interactivity,</comment>
						<color>
							<alpha>0</alpha>
							<red>255</red>
							<green>0</green>
							<blue>0</blue>
						</color>
						<in>10522</in>
						<out>11106</out>
					</marker>
					<marker>
						<name>hide the technology,</name>
						<comment>experience,&#13;immersion,&#13;interactivity,&#13;interfaces,</comment>
						<color>
							<alpha>0</alpha>
							<red>255</red>
							<green>0</green>
							<blue>0</blue>
						</color>
						<in>11283</in>
						<out>12003</out>
					</marker>
					<marker>
						<name>open frameworks</name>
						<comment>open frameworks,&#13;open source,&#13;toolkit,</comment>
						<color>
							<alpha>0</alpha>
							<red>255</red>
							<green>0</green>
							<blue>0</blue>
						</color>
						<in>12398</in>
						<out>13597</out>
					</marker>
					<filter>
						<effect>
							<name>Audio Levels</name>
							<effectid>audiolevels</effectid>
							<effectcategory>audiolevels</effectcategory>
							<effecttype>audiolevels</effecttype>
							<mediatype>audio</mediatype>
							<parameter>
								<name>Level</name>
								<parameterid>level</parameterid>
								<valuemin>0</valuemin>
								<valuemax>3.98109</valuemax>
								<value>1</value>
							</parameter>
						</effect>
					</filter>
					<filter>
						<effect>
							<name>Audio Pan</name>
							<effectid>audiopan</effectid>
							<effectcategory>audiopan</effectcategory>
							<effecttype>audiopan</effecttype>
							<mediatype>audio</mediatype>
							<parameter>
								<name>Pan</name>
								<parameterid>pan</parameterid>
								<valuemin>-1</valuemin>
								<valuemax>1</valuemax>
								<value>-1</value>
							</parameter>
						</effect>
					</filter>
					<sourcetrack>
						<mediatype>audio</mediatype>
						<trackindex>1</trackindex>
					</sourcetrack>
					<link>
						<linkclipref>MVI_0961 </linkclipref>
						<mediatype>video</mediatype>
						<trackindex>1</trackindex>
						<clipindex>4</clipindex>
					</link>
					<link>
						<linkclipref>MVI_0961 3</linkclipref>
						<mediatype>audio</mediatype>
						<trackindex>1</trackindex>
						<clipindex>4</clipindex>
						<groupindex>1</groupindex>
					</link>
					<link>
						<linkclipref>MVI_0961 4</linkclipref>
						<mediatype>audio</mediatype>
						<trackindex>2</trackindex>
						<clipindex>4</clipindex>
						<groupindex>1</groupindex>
					</link>
					<itemhistory>
						<uuid>215AFB87-3182-4317-9D64-E6E806C67B6F</uuid>
					</itemhistory>
				</clipitem>
				<clipitem id="MVI_0962 3">
					<name>MVI_0962</name>
					<duration>9304</duration>
					<rate>
						<ntsc>TRUE</ntsc>
						<timebase>24</timebase>
					</rate>
					<in>0</in>
					<out>9304</out>
					<start>25456</start>
					<end>34760</end>
					<masterclipid>MVI_0962 1</masterclipid>
					<logginginfo>
						<scene/>
						<shottake/>
						<lognote/>
						<good>FALSE</good>
					</logginginfo>
					<labels>
						<label2/>
					</labels>
					<comments>
						<mastercomment1/>
						<mastercomment2/>
						<mastercomment3/>
						<mastercomment4/>
					</comments>
					<file id="MVI_0962 2"/>
					<marker>
						<name>development feedback,</name>
						<comment>open frameworks,&#13;open source,&#13;</comment>
						<color>
							<alpha>0</alpha>
							<red>255</red>
							<green>0</green>
							<blue>0</blue>
						</color>
						<in>1247</in>
						<out>1539</out>
					</marker>
					<marker>
						<name>Marker 2</name>
						<comment/>
						<color>
							<alpha>0</alpha>
							<red>255</red>
							<green>0</green>
							<blue>0</blue>
						</color>
						<in>3688</in>
						<out>4263</out>
					</marker>
					<marker>
						<name>generative and pre-rendered</name>
						<comment>design,&#13;style</comment>
						<color>
							<alpha>0</alpha>
							<red>255</red>
							<green>0</green>
							<blue>0</blue>
						</color>
						<in>7054</in>
						<out>7381</out>
					</marker>
					<filter>
						<effect>
							<name>Audio Levels</name>
							<effectid>audiolevels</effectid>
							<effectcategory>audiolevels</effectcategory>
							<effecttype>audiolevels</effecttype>
							<mediatype>audio</mediatype>
							<parameter>
								<name>Level</name>
								<parameterid>level</parameterid>
								<valuemin>0</valuemin>
								<valuemax>3.98109</valuemax>
								<value>1</value>
							</parameter>
						</effect>
					</filter>
					<filter>
						<effect>
							<name>Audio Pan</name>
							<effectid>audiopan</effectid>
							<effectcategory>audiopan</effectcategory>
							<effecttype>audiopan</effecttype>
							<mediatype>audio</mediatype>
							<parameter>
								<name>Pan</name>
								<parameterid>pan</parameterid>
								<valuemin>-1</valuemin>
								<valuemax>1</valuemax>
								<value>-1</value>
							</parameter>
						</effect>
					</filter>
					<sourcetrack>
						<mediatype>audio</mediatype>
						<trackindex>1</trackindex>
					</sourcetrack>
					<link>
						<linkclipref>MVI_0962 </linkclipref>
						<mediatype>video</mediatype>
						<trackindex>1</trackindex>
						<clipindex>5</clipindex>
					</link>
					<link>
						<linkclipref>MVI_0962 3</linkclipref>
						<mediatype>audio</mediatype>
						<trackindex>1</trackindex>
						<clipindex>5</clipindex>
						<groupindex>1</groupindex>
					</link>
					<link>
						<linkclipref>MVI_0962 4</linkclipref>
						<mediatype>audio</mediatype>
						<trackindex>2</trackindex>
						<clipindex>5</clipindex>
						<groupindex>1</groupindex>
					</link>
					<itemhistory>
						<uuid>1D554590-4868-4E0E-87C1-652A443E7C24</uuid>
					</itemhistory>
				</clipitem>
				<clipitem id="MVI_0963 3">
					<name>MVI_0963</name>
					<duration>15379</duration>
					<rate>
						<ntsc>TRUE</ntsc>
						<timebase>24</timebase>
					</rate>
					<in>0</in>
					<out>15379</out>
					<start>34760</start>
					<end>50139</end>
					<masterclipid>MVI_0963 1</masterclipid>
					<logginginfo>
						<scene/>
						<shottake/>
						<lognote/>
						<good>FALSE</good>
					</logginginfo>
					<labels>
						<label2/>
					</labels>
					<comments>
						<mastercomment1/>
						<mastercomment2/>
						<mastercomment3/>
						<mastercomment4/>
					</comments>
					<file id="MVI_0963 2"/>
					<marker>
						<name>new media and old media,</name>
						<comment>how does new media fit into a traditional art context?,&#13;new media old media,&#13;cultural value,&#13;link: John Maeda "Digital Divide",&#13;art world,&#13;</comment>
						<color>
							<alpha>0</alpha>
							<red>255</red>
							<green>0</green>
							<blue>0</blue>
						</color>
						<in>4465</in>
						<out>5166</out>
					</marker>
					<marker>
						<name>art world</name>
						<comment>new media old media,&#13;</comment>
						<color>
							<alpha>0</alpha>
							<red>255</red>
							<green>0</green>
							<blue>0</blue>
						</color>
						<in>5610</in>
						<out>5833</out>
					</marker>
					<marker>
						<name>crazy researcher</name>
						<comment>future,&#13;classificiation,&#13;science fiction,&#13;invention&#13;&#13;</comment>
						<color>
							<alpha>0</alpha>
							<red>255</red>
							<green>0</green>
							<blue>0</blue>
						</color>
						<in>7900</in>
						<out>8609</out>
					</marker>
					<marker>
						<name>eyebeam R&amp;D</name>
						<comment>eyebeam,&#13;video art,&#13;R&amp;D,</comment>
						<color>
							<alpha>0</alpha>
							<red>255</red>
							<green>0</green>
							<blue>0</blue>
						</color>
						<in>9720</in>
						<out>10884</out>
					</marker>
					<marker>
						<name>approach to art</name>
						<comment>art world,&#13;career,&#13;concept,&#13;maker,&#13;thinkerer,</comment>
						<color>
							<alpha>0</alpha>
							<red>255</red>
							<green>0</green>
							<blue>0</blue>
						</color>
						<in>12709</in>
						<out>13733</out>
					</marker>
					<marker>
						<name>FFFFAT</name>
						<comment>prank,&#13;net.art,&#13;irony,&#13;humor,&#13;hack,&#13;</comment>
						<color>
							<alpha>0</alpha>
							<red>255</red>
							<green>0</green>
							<blue>0</blue>
						</color>
						<in>13952</in>
						<out>15084</out>
					</marker>
					<filter>
						<effect>
							<name>Audio Levels</name>
							<effectid>audiolevels</effectid>
							<effectcategory>audiolevels</effectcategory>
							<effecttype>audiolevels</effecttype>
							<mediatype>audio</mediatype>
							<parameter>
								<name>Level</name>
								<parameterid>level</parameterid>
								<valuemin>0</valuemin>
								<valuemax>3.98109</valuemax>
								<value>1</value>
							</parameter>
						</effect>
					</filter>
					<filter>
						<effect>
							<name>Audio Pan</name>
							<effectid>audiopan</effectid>
							<effectcategory>audiopan</effectcategory>
							<effecttype>audiopan</effecttype>
							<mediatype>audio</mediatype>
							<parameter>
								<name>Pan</name>
								<parameterid>pan</parameterid>
								<valuemin>-1</valuemin>
								<valuemax>1</valuemax>
								<value>-1</value>
							</parameter>
						</effect>
					</filter>
					<sourcetrack>
						<mediatype>audio</mediatype>
						<trackindex>1</trackindex>
					</sourcetrack>
					<link>
						<linkclipref>MVI_0963 </linkclipref>
						<mediatype>video</mediatype>
						<trackindex>1</trackindex>
						<clipindex>6</clipindex>
					</link>
					<link>
						<linkclipref>MVI_0963 3</linkclipref>
						<mediatype>audio</mediatype>
						<trackindex>1</trackindex>
						<clipindex>6</clipindex>
						<groupindex>1</groupindex>
					</link>
					<link>
						<linkclipref>MVI_0963 4</linkclipref>
						<mediatype>audio</mediatype>
						<trackindex>2</trackindex>
						<clipindex>6</clipindex>
						<groupindex>1</groupindex>
					</link>
					<itemhistory>
						<uuid>71B24409-2182-4E4D-A99A-0FB3FA33DEFD</uuid>
					</itemhistory>
				</clipitem>
				<enabled>TRUE</enabled>
				<locked>FALSE</locked>
				<outputchannelindex>1</outputchannelindex>
			</track>
			<track>
				<clipitem id="MVI_0960 4">
					<name>MVI_0960</name>
					<duration>11457</duration>
					<rate>
						<ntsc>TRUE</ntsc>
						<timebase>24</timebase>
					</rate>
					<in>0</in>
					<out>7057</out>
					<start>0</start>
					<end>7057</end>
					<masterclipid>MVI_0960 1</masterclipid>
					<logginginfo>
						<scene/>
						<shottake/>
						<lognote/>
						<good>FALSE</good>
					</logginginfo>
					<labels>
						<label2/>
					</labels>
					<comments>
						<mastercomment1/>
						<mastercomment2/>
						<mastercomment3/>
						<mastercomment4/>
					</comments>
					<file id="MVI_0960 2"/>
					<marker>
						<name/>
						<comment>nature,&#13;installation,&#13;physicality,</comment>
						<color>
							<alpha>0</alpha>
							<red>255</red>
							<green>0</green>
							<blue>0</blue>
						</color>
						<in>1584</in>
						<out>2376</out>
					</marker>
					<marker>
						<name>Marker 2</name>
						<comment/>
						<color>
							<alpha>0</alpha>
							<red>255</red>
							<green>0</green>
							<blue>0</blue>
						</color>
						<in>3748</in>
						<out>4892</out>
					</marker>
					<marker>
						<name>Marker 3</name>
						<comment/>
						<color>
							<alpha>0</alpha>
							<red>255</red>
							<green>0</green>
							<blue>0</blue>
						</color>
						<in>5325</in>
						<out>6116</out>
					</marker>
					<marker>
						<name>Kids interacting</name>
						<comment>play,&#13;fantasy,&#13;children,&#13;interactivity,&#13;</comment>
						<color>
							<alpha>0</alpha>
							<red>255</red>
							<green>0</green>
							<blue>0</blue>
						</color>
						<in>7318</in>
						<out>7541</out>
					</marker>
					<marker>
						<name>leaving a mark</name>
						<comment>children,&#13;play,&#13;beginnings,</comment>
						<color>
							<alpha>0</alpha>
							<red>255</red>
							<green>0</green>
							<blue>0</blue>
						</color>
						<in>7711</in>
						<out>8079</out>
					</marker>
					<marker>
						<name>learning</name>
						<comment>beginnings,&#13;learning,&#13;golan levin,</comment>
						<color>
							<alpha>0</alpha>
							<red>255</red>
							<green>0</green>
							<blue>0</blue>
						</color>
						<in>10436</in>
						<out>10929</out>
					</marker>
					<filter>
						<effect>
							<name>Audio Levels</name>
							<effectid>audiolevels</effectid>
							<effectcategory>audiolevels</effectcategory>
							<effecttype>audiolevels</effecttype>
							<mediatype>audio</mediatype>
							<parameter>
								<name>Level</name>
								<parameterid>level</parameterid>
								<valuemin>0</valuemin>
								<valuemax>3.98109</valuemax>
								<value>1</value>
							</parameter>
						</effect>
					</filter>
					<filter>
						<effect>
							<name>Audio Pan</name>
							<effectid>audiopan</effectid>
							<effectcategory>audiopan</effectcategory>
							<effecttype>audiopan</effecttype>
							<mediatype>audio</mediatype>
							<parameter>
								<name>Pan</name>
								<parameterid>pan</parameterid>
								<valuemin>-1</valuemin>
								<valuemax>1</valuemax>
								<value>1</value>
							</parameter>
						</effect>
					</filter>
					<sourcetrack>
						<mediatype>audio</mediatype>
						<trackindex>2</trackindex>
					</sourcetrack>
					<link>
						<linkclipref>MVI_0960 </linkclipref>
						<mediatype>video</mediatype>
						<trackindex>1</trackindex>
						<clipindex>1</clipindex>
					</link>
					<link>
						<linkclipref>MVI_0960 3</linkclipref>
						<mediatype>audio</mediatype>
						<trackindex>1</trackindex>
						<clipindex>1</clipindex>
						<groupindex>1</groupindex>
					</link>
					<link>
						<linkclipref>MVI_0960 4</linkclipref>
						<mediatype>audio</mediatype>
						<trackindex>2</trackindex>
						<clipindex>1</clipindex>
						<groupindex>1</groupindex>
					</link>
					<itemhistory>
						<uuid>861EA1BD-4AF6-43B0-B571-7FDE1C3FF118</uuid>
						<uuid>C8358D90-20EF-4DC1-B6CE-C4D18CBD64CE</uuid>
					</itemhistory>
				</clipitem>
				<clipitem id="MVI_0960 7">
					<name>MVI_0960</name>
					<duration>11457</duration>
					<rate>
						<ntsc>TRUE</ntsc>
						<timebase>24</timebase>
					</rate>
					<in>7057</in>
					<out>8072</out>
					<start>7057</start>
					<end>8072</end>
					<masterclipid>MVI_0960 1</masterclipid>
					<logginginfo>
						<scene/>
						<shottake/>
						<lognote/>
						<good>FALSE</good>
					</logginginfo>
					<labels>
						<label2/>
					</labels>
					<comments>
						<mastercomment1/>
						<mastercomment2/>
						<mastercomment3/>
						<mastercomment4/>
					</comments>
					<file id="MVI_0960 2"/>
					<marker>
						<name/>
						<comment>nature,&#13;installation,&#13;physicality,</comment>
						<color>
							<alpha>0</alpha>
							<red>255</red>
							<green>0</green>
							<blue>0</blue>
						</color>
						<in>1584</in>
						<out>2376</out>
					</marker>
					<marker>
						<name>Marker 2</name>
						<comment/>
						<color>
							<alpha>0</alpha>
							<red>255</red>
							<green>0</green>
							<blue>0</blue>
						</color>
						<in>3748</in>
						<out>4892</out>
					</marker>
					<marker>
						<name>Marker 3</name>
						<comment/>
						<color>
							<alpha>0</alpha>
							<red>255</red>
							<green>0</green>
							<blue>0</blue>
						</color>
						<in>5325</in>
						<out>6116</out>
					</marker>
					<marker>
						<name>Kids interacting</name>
						<comment>play,&#13;fantasy,&#13;children,&#13;interactivity,&#13;</comment>
						<color>
							<alpha>0</alpha>
							<red>255</red>
							<green>0</green>
							<blue>0</blue>
						</color>
						<in>7318</in>
						<out>7541</out>
					</marker>
					<marker>
						<name>leaving a mark</name>
						<comment>children,&#13;play,&#13;beginnings,</comment>
						<color>
							<alpha>0</alpha>
							<red>255</red>
							<green>0</green>
							<blue>0</blue>
						</color>
						<in>7711</in>
						<out>8079</out>
					</marker>
					<marker>
						<name>learning</name>
						<comment>beginnings,&#13;learning,&#13;golan levin,</comment>
						<color>
							<alpha>0</alpha>
							<red>255</red>
							<green>0</green>
							<blue>0</blue>
						</color>
						<in>10436</in>
						<out>10929</out>
					</marker>
					<filter>
						<effect>
							<name>Audio Levels</name>
							<effectid>audiolevels</effectid>
							<effectcategory>audiolevels</effectcategory>
							<effecttype>audiolevels</effecttype>
							<mediatype>audio</mediatype>
							<parameter>
								<name>Level</name>
								<parameterid>level</parameterid>
								<valuemin>0</valuemin>
								<valuemax>3.98109</valuemax>
								<value>1</value>
							</parameter>
						</effect>
					</filter>
					<filter>
						<effect>
							<name>Audio Pan</name>
							<effectid>audiopan</effectid>
							<effectcategory>audiopan</effectcategory>
							<effecttype>audiopan</effecttype>
							<mediatype>audio</mediatype>
							<parameter>
								<name>Pan</name>
								<parameterid>pan</parameterid>
								<valuemin>-1</valuemin>
								<valuemax>1</valuemax>
								<value>1</value>
							</parameter>
						</effect>
					</filter>
					<sourcetrack>
						<mediatype>audio</mediatype>
						<trackindex>2</trackindex>
					</sourcetrack>
					<link>
						<linkclipref>MVI_0960 5</linkclipref>
						<mediatype>video</mediatype>
						<trackindex>1</trackindex>
						<clipindex>2</clipindex>
					</link>
					<link>
						<linkclipref>MVI_0960 6</linkclipref>
						<mediatype>audio</mediatype>
						<trackindex>1</trackindex>
						<clipindex>2</clipindex>
						<groupindex>1</groupindex>
					</link>
					<link>
						<linkclipref>MVI_0960 7</linkclipref>
						<mediatype>audio</mediatype>
						<trackindex>2</trackindex>
						<clipindex>2</clipindex>
						<groupindex>1</groupindex>
					</link>
					<itemhistory>
						<uuid>6FCCAEDF-ECB0-4E22-B784-3B446127AE16</uuid>
						<uuid>C8358D90-20EF-4DC1-B6CE-C4D18CBD64CE</uuid>
					</itemhistory>
				</clipitem>
				<clipitem id="MVI_0960 10">
					<name>MVI_0960</name>
					<duration>11457</duration>
					<rate>
						<ntsc>TRUE</ntsc>
						<timebase>24</timebase>
					</rate>
					<in>8072</in>
					<out>11457</out>
					<start>8072</start>
					<end>11457</end>
					<masterclipid>MVI_0960 1</masterclipid>
					<logginginfo>
						<scene/>
						<shottake/>
						<lognote/>
						<good>FALSE</good>
					</logginginfo>
					<labels>
						<label2/>
					</labels>
					<comments>
						<mastercomment1/>
						<mastercomment2/>
						<mastercomment3/>
						<mastercomment4/>
					</comments>
					<file id="MVI_0960 2"/>
					<marker>
						<name/>
						<comment>nature,&#13;installation,&#13;physicality,</comment>
						<color>
							<alpha>0</alpha>
							<red>255</red>
							<green>0</green>
							<blue>0</blue>
						</color>
						<in>1584</in>
						<out>2376</out>
					</marker>
					<marker>
						<name>Marker 2</name>
						<comment/>
						<color>
							<alpha>0</alpha>
							<red>255</red>
							<green>0</green>
							<blue>0</blue>
						</color>
						<in>3748</in>
						<out>4892</out>
					</marker>
					<marker>
						<name>Marker 3</name>
						<comment/>
						<color>
							<alpha>0</alpha>
							<red>255</red>
							<green>0</green>
							<blue>0</blue>
						</color>
						<in>5325</in>
						<out>6116</out>
					</marker>
					<marker>
						<name>Kids interacting</name>
						<comment>play,&#13;fantasy,&#13;children,&#13;interactivity,&#13;</comment>
						<color>
							<alpha>0</alpha>
							<red>255</red>
							<green>0</green>
							<blue>0</blue>
						</color>
						<in>7318</in>
						<out>7541</out>
					</marker>
					<marker>
						<name>leaving a mark</name>
						<comment>children,&#13;play,&#13;beginnings,</comment>
						<color>
							<alpha>0</alpha>
							<red>255</red>
							<green>0</green>
							<blue>0</blue>
						</color>
						<in>7711</in>
						<out>8079</out>
					</marker>
					<marker>
						<name>learning</name>
						<comment>beginnings,&#13;learning,&#13;golan levin,</comment>
						<color>
							<alpha>0</alpha>
							<red>255</red>
							<green>0</green>
							<blue>0</blue>
						</color>
						<in>10436</in>
						<out>10929</out>
					</marker>
					<filter>
						<effect>
							<name>Audio Levels</name>
							<effectid>audiolevels</effectid>
							<effectcategory>audiolevels</effectcategory>
							<effecttype>audiolevels</effecttype>
							<mediatype>audio</mediatype>
							<parameter>
								<name>Level</name>
								<parameterid>level</parameterid>
								<valuemin>0</valuemin>
								<valuemax>3.98109</valuemax>
								<value>1</value>
							</parameter>
						</effect>
					</filter>
					<filter>
						<effect>
							<name>Audio Pan</name>
							<effectid>audiopan</effectid>
							<effectcategory>audiopan</effectcategory>
							<effecttype>audiopan</effecttype>
							<mediatype>audio</mediatype>
							<parameter>
								<name>Pan</name>
								<parameterid>pan</parameterid>
								<valuemin>-1</valuemin>
								<valuemax>1</valuemax>
								<value>1</value>
							</parameter>
						</effect>
					</filter>
					<sourcetrack>
						<mediatype>audio</mediatype>
						<trackindex>2</trackindex>
					</sourcetrack>
					<link>
						<linkclipref>MVI_0960 8</linkclipref>
						<mediatype>video</mediatype>
						<trackindex>1</trackindex>
						<clipindex>3</clipindex>
					</link>
					<link>
						<linkclipref>MVI_0960 9</linkclipref>
						<mediatype>audio</mediatype>
						<trackindex>1</trackindex>
						<clipindex>3</clipindex>
						<groupindex>1</groupindex>
					</link>
					<link>
						<linkclipref>MVI_0960 10</linkclipref>
						<mediatype>audio</mediatype>
						<trackindex>2</trackindex>
						<clipindex>3</clipindex>
						<groupindex>1</groupindex>
					</link>
					<itemhistory>
						<uuid>118319E7-27BF-430D-A7FA-C16E939BF4A3</uuid>
						<uuid>C8358D90-20EF-4DC1-B6CE-C4D18CBD64CE</uuid>
					</itemhistory>
				</clipitem>
				<clipitem id="MVI_0961 4">
					<name>MVI_0961</name>
					<duration>13999</duration>
					<rate>
						<ntsc>TRUE</ntsc>
						<timebase>24</timebase>
					</rate>
					<in>0</in>
					<out>13999</out>
					<start>11457</start>
					<end>25456</end>
					<masterclipid>MVI_0961 1</masterclipid>
					<logginginfo>
						<scene/>
						<shottake/>
						<lognote/>
						<good>FALSE</good>
					</logginginfo>
					<labels>
						<label2/>
					</labels>
					<comments>
						<mastercomment1/>
						<mastercomment2/>
						<mastercomment3/>
						<mastercomment4/>
					</comments>
					<file id="MVI_0961 2"/>
					<marker>
						<name>addictive process</name>
						<comment>addiction,&#13;invention,&#13;process,</comment>
						<color>
							<alpha>0</alpha>
							<red>255</red>
							<green>0</green>
							<blue>0</blue>
						</color>
						<in>1268</in>
						<out>2037</out>
					</marker>
					<marker>
						<name>eyewriter and laser tag</name>
						<comment>eyewriter</comment>
						<color>
							<alpha>0</alpha>
							<red>255</red>
							<green>0</green>
							<blue>0</blue>
						</color>
						<in>2809</in>
						<out>3144</out>
					</marker>
					<marker>
						<name>struggle with technology</name>
						<comment>dysfunction,&#13;stress,&#13;uncertainty,&#13;struggle with technology</comment>
						<color>
							<alpha>0</alpha>
							<red>255</red>
							<green>0</green>
							<blue>0</blue>
						</color>
						<in>3448</in>
						<out>4128</out>
					</marker>
					<marker>
						<name>newness</name>
						<comment>newness,&#13;novelty,&#13;technological progress,</comment>
						<color>
							<alpha>0</alpha>
							<red>255</red>
							<green>0</green>
							<blue>0</blue>
						</color>
						<in>4893</in>
						<out>6105</out>
					</marker>
					<marker>
						<name>3D sensing</name>
						<comment>immersion,&#13;3D sensing,&#13;interactivity,</comment>
						<color>
							<alpha>0</alpha>
							<red>255</red>
							<green>0</green>
							<blue>0</blue>
						</color>
						<in>10522</in>
						<out>11106</out>
					</marker>
					<marker>
						<name>hide the technology,</name>
						<comment>experience,&#13;immersion,&#13;interactivity,&#13;interfaces,</comment>
						<color>
							<alpha>0</alpha>
							<red>255</red>
							<green>0</green>
							<blue>0</blue>
						</color>
						<in>11283</in>
						<out>12003</out>
					</marker>
					<marker>
						<name>open frameworks</name>
						<comment>open frameworks,&#13;open source,&#13;toolkit,</comment>
						<color>
							<alpha>0</alpha>
							<red>255</red>
							<green>0</green>
							<blue>0</blue>
						</color>
						<in>12398</in>
						<out>13597</out>
					</marker>
					<filter>
						<effect>
							<name>Audio Levels</name>
							<effectid>audiolevels</effectid>
							<effectcategory>audiolevels</effectcategory>
							<effecttype>audiolevels</effecttype>
							<mediatype>audio</mediatype>
							<parameter>
								<name>Level</name>
								<parameterid>level</parameterid>
								<valuemin>0</valuemin>
								<valuemax>3.98109</valuemax>
								<value>1</value>
							</parameter>
						</effect>
					</filter>
					<filter>
						<effect>
							<name>Audio Pan</name>
							<effectid>audiopan</effectid>
							<effectcategory>audiopan</effectcategory>
							<effecttype>audiopan</effecttype>
							<mediatype>audio</mediatype>
							<parameter>
								<name>Pan</name>
								<parameterid>pan</parameterid>
								<valuemin>-1</valuemin>
								<valuemax>1</valuemax>
								<value>1</value>
							</parameter>
						</effect>
					</filter>
					<sourcetrack>
						<mediatype>audio</mediatype>
						<trackindex>2</trackindex>
					</sourcetrack>
					<link>
						<linkclipref>MVI_0961 </linkclipref>
						<mediatype>video</mediatype>
						<trackindex>1</trackindex>
						<clipindex>4</clipindex>
					</link>
					<link>
						<linkclipref>MVI_0961 3</linkclipref>
						<mediatype>audio</mediatype>
						<trackindex>1</trackindex>
						<clipindex>4</clipindex>
						<groupindex>1</groupindex>
					</link>
					<link>
						<linkclipref>MVI_0961 4</linkclipref>
						<mediatype>audio</mediatype>
						<trackindex>2</trackindex>
						<clipindex>4</clipindex>
						<groupindex>1</groupindex>
					</link>
					<itemhistory>
						<uuid>4ED259C5-5156-47DD-B7DD-B166CA7A6831</uuid>
					</itemhistory>
				</clipitem>
				<clipitem id="MVI_0962 4">
					<name>MVI_0962</name>
					<duration>9304</duration>
					<rate>
						<ntsc>TRUE</ntsc>
						<timebase>24</timebase>
					</rate>
					<in>0</in>
					<out>9304</out>
					<start>25456</start>
					<end>34760</end>
					<masterclipid>MVI_0962 1</masterclipid>
					<logginginfo>
						<scene/>
						<shottake/>
						<lognote/>
						<good>FALSE</good>
					</logginginfo>
					<labels>
						<label2/>
					</labels>
					<comments>
						<mastercomment1/>
						<mastercomment2/>
						<mastercomment3/>
						<mastercomment4/>
					</comments>
					<file id="MVI_0962 2"/>
					<marker>
						<name>development feedback,</name>
						<comment>open frameworks,&#13;open source,&#13;</comment>
						<color>
							<alpha>0</alpha>
							<red>255</red>
							<green>0</green>
							<blue>0</blue>
						</color>
						<in>1247</in>
						<out>1539</out>
					</marker>
					<marker>
						<name>Marker 2</name>
						<comment/>
						<color>
							<alpha>0</alpha>
							<red>255</red>
							<green>0</green>
							<blue>0</blue>
						</color>
						<in>3688</in>
						<out>4263</out>
					</marker>
					<marker>
						<name>generative and pre-rendered</name>
						<comment>design,&#13;style</comment>
						<color>
							<alpha>0</alpha>
							<red>255</red>
							<green>0</green>
							<blue>0</blue>
						</color>
						<in>7054</in>
						<out>7381</out>
					</marker>
					<filter>
						<effect>
							<name>Audio Levels</name>
							<effectid>audiolevels</effectid>
							<effectcategory>audiolevels</effectcategory>
							<effecttype>audiolevels</effecttype>
							<mediatype>audio</mediatype>
							<parameter>
								<name>Level</name>
								<parameterid>level</parameterid>
								<valuemin>0</valuemin>
								<valuemax>3.98109</valuemax>
								<value>1</value>
							</parameter>
						</effect>
					</filter>
					<filter>
						<effect>
							<name>Audio Pan</name>
							<effectid>audiopan</effectid>
							<effectcategory>audiopan</effectcategory>
							<effecttype>audiopan</effecttype>
							<mediatype>audio</mediatype>
							<parameter>
								<name>Pan</name>
								<parameterid>pan</parameterid>
								<valuemin>-1</valuemin>
								<valuemax>1</valuemax>
								<value>1</value>
							</parameter>
						</effect>
					</filter>
					<sourcetrack>
						<mediatype>audio</mediatype>
						<trackindex>2</trackindex>
					</sourcetrack>
					<link>
						<linkclipref>MVI_0962 </linkclipref>
						<mediatype>video</mediatype>
						<trackindex>1</trackindex>
						<clipindex>5</clipindex>
					</link>
					<link>
						<linkclipref>MVI_0962 3</linkclipref>
						<mediatype>audio</mediatype>
						<trackindex>1</trackindex>
						<clipindex>5</clipindex>
						<groupindex>1</groupindex>
					</link>
					<link>
						<linkclipref>MVI_0962 4</linkclipref>
						<mediatype>audio</mediatype>
						<trackindex>2</trackindex>
						<clipindex>5</clipindex>
						<groupindex>1</groupindex>
					</link>
					<itemhistory>
						<uuid>60229D61-6152-42CD-8FF7-DCB3AFC736A0</uuid>
					</itemhistory>
				</clipitem>
				<clipitem id="MVI_0963 4">
					<name>MVI_0963</name>
					<duration>15379</duration>
					<rate>
						<ntsc>TRUE</ntsc>
						<timebase>24</timebase>
					</rate>
					<in>0</in>
					<out>15379</out>
					<start>34760</start>
					<end>50139</end>
					<masterclipid>MVI_0963 1</masterclipid>
					<logginginfo>
						<scene/>
						<shottake/>
						<lognote/>
						<good>FALSE</good>
					</logginginfo>
					<labels>
						<label2/>
					</labels>
					<comments>
						<mastercomment1/>
						<mastercomment2/>
						<mastercomment3/>
						<mastercomment4/>
					</comments>
					<file id="MVI_0963 2"/>
					<marker>
						<name>new media and old media,</name>
						<comment>how does new media fit into a traditional art context?,&#13;new media old media,&#13;cultural value,&#13;link: John Maeda "Digital Divide",&#13;art world,&#13;</comment>
						<color>
							<alpha>0</alpha>
							<red>255</red>
							<green>0</green>
							<blue>0</blue>
						</color>
						<in>4465</in>
						<out>5166</out>
					</marker>
					<marker>
						<name>art world</name>
						<comment>new media old media,&#13;</comment>
						<color>
							<alpha>0</alpha>
							<red>255</red>
							<green>0</green>
							<blue>0</blue>
						</color>
						<in>5610</in>
						<out>5833</out>
					</marker>
					<marker>
						<name>crazy researcher</name>
						<comment>future,&#13;classificiation,&#13;science fiction,&#13;invention&#13;&#13;</comment>
						<color>
							<alpha>0</alpha>
							<red>255</red>
							<green>0</green>
							<blue>0</blue>
						</color>
						<in>7900</in>
						<out>8609</out>
					</marker>
					<marker>
						<name>eyebeam R&amp;D</name>
						<comment>eyebeam,&#13;video art,&#13;R&amp;D,</comment>
						<color>
							<alpha>0</alpha>
							<red>255</red>
							<green>0</green>
							<blue>0</blue>
						</color>
						<in>9720</in>
						<out>10884</out>
					</marker>
					<marker>
						<name>approach to art</name>
						<comment>art world,&#13;career,&#13;concept,&#13;maker,&#13;thinkerer,</comment>
						<color>
							<alpha>0</alpha>
							<red>255</red>
							<green>0</green>
							<blue>0</blue>
						</color>
						<in>12709</in>
						<out>13733</out>
					</marker>
					<marker>
						<name>FFFFAT</name>
						<comment>prank,&#13;net.art,&#13;irony,&#13;humor,&#13;hack,&#13;</comment>
						<color>
							<alpha>0</alpha>
							<red>255</red>
							<green>0</green>
							<blue>0</blue>
						</color>
						<in>13952</in>
						<out>15084</out>
					</marker>
					<filter>
						<effect>
							<name>Audio Levels</name>
							<effectid>audiolevels</effectid>
							<effectcategory>audiolevels</effectcategory>
							<effecttype>audiolevels</effecttype>
							<mediatype>audio</mediatype>
							<parameter>
								<name>Level</name>
								<parameterid>level</parameterid>
								<valuemin>0</valuemin>
								<valuemax>3.98109</valuemax>
								<value>1</value>
							</parameter>
						</effect>
					</filter>
					<filter>
						<effect>
							<name>Audio Pan</name>
							<effectid>audiopan</effectid>
							<effectcategory>audiopan</effectcategory>
							<effecttype>audiopan</effecttype>
							<mediatype>audio</mediatype>
							<parameter>
								<name>Pan</name>
								<parameterid>pan</parameterid>
								<valuemin>-1</valuemin>
								<valuemax>1</valuemax>
								<value>1</value>
							</parameter>
						</effect>
					</filter>
					<sourcetrack>
						<mediatype>audio</mediatype>
						<trackindex>2</trackindex>
					</sourcetrack>
					<link>
						<linkclipref>MVI_0963 </linkclipref>
						<mediatype>video</mediatype>
						<trackindex>1</trackindex>
						<clipindex>6</clipindex>
					</link>
					<link>
						<linkclipref>MVI_0963 3</linkclipref>
						<mediatype>audio</mediatype>
						<trackindex>1</trackindex>
						<clipindex>6</clipindex>
						<groupindex>1</groupindex>
					</link>
					<link>
						<linkclipref>MVI_0963 4</linkclipref>
						<mediatype>audio</mediatype>
						<trackindex>2</trackindex>
						<clipindex>6</clipindex>
						<groupindex>1</groupindex>
					</link>
					<itemhistory>
						<uuid>883FD343-518F-425D-ABAD-503AB89B23F5</uuid>
					</itemhistory>
				</clipitem>
				<enabled>TRUE</enabled>
				<locked>FALSE</locked>
				<outputchannelindex>2</outputchannelindex>
			</track>
			<track>
				<enabled>TRUE</enabled>
				<locked>FALSE</locked>
				<outputchannelindex>1</outputchannelindex>
			</track>
			<track>
				<enabled>TRUE</enabled>
				<locked>FALSE</locked>
				<outputchannelindex>2</outputchannelindex>
			</track>
			<filter>
				<effect>
					<name>Audio Levels</name>
					<effectid>audiolevels</effectid>
					<effectcategory>audiolevels</effectcategory>
					<effecttype>audiolevels</effecttype>
					<mediatype>audio</mediatype>
					<parameter>
						<name>Level</name>
						<parameterid>level</parameterid>
						<valuemin>0</valuemin>
						<valuemax>3.98109</valuemax>
						<value>1</value>
					</parameter>
				</effect>
			</filter>
		</audio>
	</media>
	<ismasterclip>FALSE</ismasterclip>
</sequence>
</xmeml>


