<?xml version="1.0" encoding="utf-8" ?>
<!-- Generator: Adobe Illustrator 16.0.4, SVG Export Plug-In . SVG Version: 6.00 Build 0)  -->
<!DOCTYPE svg PUBLIC "-//W3C//DTD SVG 1.1//EN" "http://www.w3.org/Graphics/SVG/1.1/DTD/svg11.dtd">
<svg version="1.1" xmlns="http://www.w3.org/2000/svg" xmlns:xlink="http://www.w3.org/1999/xlink" x="0px" y="0px" width="1440px" height="900px" viewBox="0 0 1440 900" enable-background="new 0 0 1440 900" xml:space="preserve">
    <g id="BylineBacking">
        <rect x="174.352" y="702.5" opacity="0.49" fill="#101010" width="1208.884" height="108" />
    </g>
    <g id="BylineInsideBorder">
        <line opacity="0.49" fill="none" stroke="#FFFFFF" stroke-miterlimit="10" x1="1384.313" y1="702.5" x2="174.313" y2="702.5" />
        <line opacity="0.49" fill="none" stroke="#FFFFFF" stroke-miterlimit="10" x1="174.313" y1="810.5" x2="1384.313" y2="810.5" />
        <line opacity="0.16" fill="none" stroke="#FFFFFF" stroke-miterlimit="10" x1="1383.813" y1="702" x2="1383.813" y2="811" />
        <line opacity="0.16" fill="none" stroke="#FFFFFF" stroke-miterlimit="10" x1="173.813" y1="702" x2="173.813" y2="811" />
    </g>
    <g id="BylineOutsideBorder">
        <line opacity="0.26" fill="none" stroke="#FFFFFF" stroke-miterlimit="10" x1="1413.313" y1="684.5" x2="29.313" y2="684.5" />
        <line opacity="0.16" fill="none" stroke="#FFFFFF" stroke-miterlimit="10" x1="29.813" y1="684" x2="29.813" y2="829" />
        <line opacity="0.26" fill="none" stroke="#FFFFFF" stroke-miterlimit="10" x1="1412.313" y1="828.5" x2="30.313" y2="828.5" />
        <line opacity="0.16" fill="none" stroke="#FFFFFF" stroke-miterlimit="10" x1="1412.813" y1="829" x2="1412.813" y2="684" />
    </g>
    <g id="BylineTopicBackingBottom">
        <rect x="490.813" y="761" opacity="0.36" fill="#101010" width="202" height="30.557" />
    </g>
    <g id="BylineTopicBackingTop">
        <rect x="490.813" y="719.5" opacity="0.36" fill="#101010" width="230" height="29.5" />
    </g>
    <g id="BylineTopicTextBoxBottom">
        <rect x="498.656" y="770.521" fill="none" stroke="#DD4B39" stroke-miterlimit="10" width="146.314" height="13.147" />
    </g>
    <g id="BylineTopicTextBoxTop">
        <rect x="498.656" y="728.676" fill="none" stroke="#DD4B39" stroke-miterlimit="10" width="182.314" height="13.147" />
    </g>
    <g id="VSCreditsBackingBottom">
        <rect x="740.813" y="761" opacity="0.36" fill="#101010" width="202" height="30.557" />
    </g>
    <g id="VSCreditsBackingTop">
        <rect x="740.813" y="719.5" opacity="0.36" fill="#101010" width="230" height="29.5" />
    </g>
    <g id="VSCreditsTextBoxBottom">
        <rect x="748.656" y="770.521" fill="none" stroke="#DD4B39" stroke-miterlimit="10" width="146.314" height="13.147" />
    </g>
    <g id="VSCreditsTextBoxTop">
        <rect x="748.656" y="728.676" fill="none" stroke="#DD4B39" stroke-miterlimit="10" width="182.314" height="13.147" />
    </g>
    <g id="BylineLastNameTextBox">
        <rect x="200.813" y="754.021" fill="none" stroke="#DD4B39" stroke-miterlimit="10" width="278.314" height="37.147" />
    </g>
    <g id="BylineFirstNameTextBox_1_">
        <rect x="200.813" y="719.021" fill="none" stroke="#DD4B39" stroke-miterlimit="10" width="80.314" height="26.147" />
    </g>
    <g id="BylineTicks">
        <rect x="1382.371" y="701.099" opacity="0.69" fill="#FFFFFF" width="2.802" height="2.802" />
        <rect x="1382.453" y="809.099" opacity="0.69" fill="#FFFFFF" width="2.802" height="2.802" />
        <rect x="172.412" y="701.099" opacity="0.69" fill="#FFFFFF" width="2.802" height="2.802" />
        <rect x="172.412" y="809.099" opacity="0.69" fill="#FFFFFF" width="2.802" height="2.802" />
    </g>
</svg>
